<svg xmlns="http://www.w3.org/2000/svg" viewBox="0 0 24 24" fill="none" stroke="currentColor" stroke-width="2" stroke-linecap="round" stroke-linejoin="round">
  <path d="M12 2C6.48 2 2 6.48 2 12s4.48 10 10 10 10-4.48 10-10S17.52 2 12 2zm0 18c-4.41 0-8-3.59-8-8s3.59-8 8-8 8 3.59 8 8-3.59 8-8 8z" fill="#facc15" stroke="none"/>
  <path d="M12 2C6.48 2 2 6.48 2 12s4.48 10 10 10 10-4.48 10-10S17.52 2 12 2z" stroke="#eab308"/>
  <path d="M6 10l6 8 6-8" stroke="#854d0e" stroke-linecap="round" stroke-linejoin="round"/>
  <path d="M12 4v14" stroke="#854d0e" stroke-linecap="round" stroke-linejoin="round"/>
  <path d="M6 14l6-4 6 4" stroke="#854d0e" stroke-linecap="round" stroke-linejoin="round"/>
</svg>