<!-- by TradingView --><svg width="56" height="56" viewBox="0 0 56 56" xmlns="http://www.w3.org/2000/svg"><path fill="#E30611" d="M0 0h56v56H0z"/><path d="M23.09 25.37 21.68 20H17v9h2.5v-7.32L21.57 29h3.04l1.89-7.33V29H29v-9h-4.5l-1.41 5.37ZM47 20v2.5h-3.74c-1.58 0-2.76.53-2.76 2s1.18 2 2.76 2H47V29h-4c-3.43 0-5-1.8-5-4.5s1.57-4.5 5-4.5h4Zm-5 18v-2.32h.13L43.85 38H46l-2.33-3.14L45.81 32h-1.96l-1.66 2.2H42V32h-2v6h2Zm-7-2.5V38h-2v-6h2v2h2v-2h2v6h-2v-2.5h-2ZM27.53 38l.32-1h2.05l.33 1H32l-1.78-6h-2.43L26 38h1.53Zm.7-2.45.64-2.22.65 2.22h-1.3Zm-2.73.5c0 1.22-.77 1.95-2.14 1.95H20v-6h5v1.43h-3V34h1.36c1.37 0 2.14.87 2.14 2.04Zm-3.5.6h1.03c.17 0 .3-.04.4-.12.07-.07.07-.17.07-.3v-.26c0-.33-.11-.5-.47-.5H22v1.18ZM37.5 20v2.5H35V29h-2.5v-6.5H30V20h7.5ZM10.5 19c.73 0 1.6.72 2.32 1.92A8.49 8.49 0 0 1 14 25.06c0 1.96-1.08 3.94-3.5 3.94S7 27.02 7 25.06c0-1.35.44-2.9 1.19-4.14C8.9 19.72 9.77 19 10.5 19Z" fill="#fff"/></svg>