<!-- by TradingView --><svg xmlns="http://www.w3.org/2000/svg" width="56" height="56" viewBox="0 0 56 56"><path fill="#F0F3FA" d="M0 0h56v56H0z"/><path d="M20.34 27.74c.13-.05.26-.12.38-.21-.12-.6-.22-1.2-.27-1.81l-.96.56A17.04 17.04 0 0 0 11 39.43a17.02 17.02 0 0 0 23.09-9.53c-.48-.33-1-.6-1.56-.8a15.01 15.01 0 0 1-6.75 8.03 15.13 15.13 0 0 1-12.86 1.12 15.43 15.43 0 0 1 7.42-10.56v.05zm-4.78 9c1-2.97 3.06-5.46 5.77-7.02-.22-.59-.39-1.2-.5-1.81l-.28.18a14.98 14.98 0 0 0-7.14 9.95 14.75 14.75 0 0 0 12.07-1.18 15.09 15.09 0 0 0 6.58-7.81c-.5-.19-1-.34-1.52-.46h-.16v.17a13.39 13.39 0 0 1-5.66 6.56 13.27 13.27 0 0 1-9.16 1.45v-.04zm7.42-12.81c0 3.5 1.22 6.9 3.47 9.59.4-.4.8-.73 1.12-1.13l.11-.16-.1-.1a13.18 13.18 0 0 1 .4-16.85 12.97 12.97 0 0 1 3.3 8.54c.57.1 1.13.22 1.81.4v-.3a14.72 14.72 0 0 0-5.12-11.12 14.87 14.87 0 0 0-5 11.13zm2.5 2.35c.08.52.21 1.03.4 1.52v.16h.16a13.5 13.5 0 0 1 8.54 1.63 12.97 12.97 0 0 1 5.84 7.24c-3.09.63-6.3.12-9.05-1.45-.38.45-.79.88-1.23 1.28l.3.17a14.68 14.68 0 0 0 12.12 1.24 14.88 14.88 0 0 0-17.08-11.79zm7.94-1.8a9.6 9.6 0 0 1 1.8.66v-1.21A17 17 0 0 0 28 10a17.17 17.17 0 0 0-7.24 13.93 16.58 16.58 0 0 0 3.95 10.85c.49-.28.95-.6 1.4-.94a15.34 15.34 0 0 1 1.8-21.58 15.07 15.07 0 0 1 5.43 11.69l.09.52zM45 39.51a17.04 17.04 0 0 0-19.78-15.36c0 .62 0 1.18.11 1.81 3.55-.65 7.22 0 10.33 1.81a15.43 15.43 0 0 1 7.42 10.56 15.13 15.13 0 0 1-13.26-1.42c-.44.38-.94.77-1.4 1.12.28.21.62.4.9.61a17.05 17.05 0 0 0 15.68.73v.14z" fill="#026EA9"/></svg>