<!-- by TradingView --><svg width="56" height="56" viewBox="0 0 56 56" xmlns="http://www.w3.org/2000/svg"><path fill="#F0F3FA" d="M0 0h56v56H0z"/><path d="M30.73 25H32v-.69c0-.88-.66-1.31-1.57-1.31-.9 0-1.65.37-1.65 1.31v5.33c0 .88.74 1.36 1.65 1.36.91 0 1.57-.41 1.57-1.36V29h-1.27v.63s-.1.12-.22.13c-.1.01-.32-.08-.3-.13v-5.3s.14-.15.3-.12c.17.02.22.09.22.13V25Zm-8.04-2c-.61-.02-1.5.3-1.69.97V31h1.47v-2.67H23V31h1.43v-6.97c-.2-.71-1.07-1.06-1.74-1.03Zm.31 1.96v2.25h-.55v-2.87c.04-.1.14-.16.25-.16.11 0 .25.05.3.16v.62Zm5.2-.62c0-.88-.74-1.34-1.65-1.34-.91 0-1.55.4-1.55 1.34V25h1.25v-.66s.1-.12.22-.13c.1-.02.32.08.3.13v2.07h-1.15v1.17h1.16v2.1s-.15.16-.31.13c-.17-.03-.22-.1-.22-.13V29H25v.68c0 .88.64 1.32 1.55 1.32.31 0 .55-.02.8-.12.26-.1.49-.26.66-.47.13-.2.2-.43.2-.66v-5.41Zm7.62 2.37c.1-.13.19-.28.18-.44V23h-1.52v3.27a.33.33 0 0 1-.22.13c-.09-.02-.2-.06-.26-.13V23h-1.52v8H34v-3.24c.07-.1.16-.13.28-.14.12 0 .21.12.24.14V31H36v-3.28a.68.68 0 0 0-.18-.44c-.1-.1-.2-.18-.3-.25.11-.1.21-.2.3-.32Z" fill="#1F4064"/><path fill-rule="evenodd" d="M8 31.94a7.03 7.03 0 0 0 5.97 3.55c4.24.1 6.13.2 6.43.93.25.57-2.92 1.78-4.54 2.31 1.16.57 4.02 1.3 6.23-.3h2.1c-.37.32-.79.71-1.23 1.14-1.73 1.63-3.9 3.68-5.04 4.04 2 .6 5.99.76 9.17-4.1l2.2-.31c-.48.77-1.37 2.6-1.13 3.7l3.07-3.09c.08.43.13 1.7-.36 3.35-.61 2.06.56 3.91 2.6 4.84a9.25 9.25 0 0 1 .56-5.1 7.2 7.2 0 0 0 1.3-4.7c.23.07.76.4 1.05 1.3.27-.51.76-1.94.58-3.53.47.05 1.53.57 2 2.24a3.7 3.7 0 0 0 2.54 2.58c-.4-.67-.66-2.18-.69-4.37a11 11 0 0 0-.94-4.48c.38-.02 1.3.06 1.88.56-.24-.61-.77-1.92-.94-2.27-.1-.2.07-.13.39 0 .43.15 1.15.43 1.93.36 1.38-.1 3.85.05 4.87 1.35.06-.87-1.36-3.52-7.52-7.24.1-.33.7-1 2.36-1a5.74 5.74 0 0 0-2.97-2c.4-.07 1.46-.32 2.54-.85.41-.2.67-.41.9-.6.5-.44.9-.76 2.65-.6L44.13 18c-1.12-.13-3.52-.3-6.48 0 .05-.28.42-.97 1.5-1.47-.57-.34-2.05-.7-3.53.55-.3-.17-.52-.79 1.02-1.9 1.54-1.12 1.92-2.44 1.92-2.97-.15.4-.94 1.19-2.94 1.25-2 .05-3.2 1.75-3.56 2.6-.6-.63-1.28-2.34.87-4.22a6.09 6.09 0 0 0-6.28 3.34c-.47-.37-1.18-1.63-.25-3.74.93-2.1.56-3.17.25-3.44.03.3-.54 1.47-3 3.84-2.48 2.38-2.4 4.73-2.04 5.6l-1.2 1.29c.29-1.88.25-5.89-2.25-6.89.4.93.85 3.35-.55 5.6-1.39 2.26-.87 3.58-.43 3.96-.88-.57-2.58-2.24-2.29-4.32-1.18 1.46-2.64 5.64.98 10.7-.78-.13-2.9-.32-5.1 0 .02 0 .07.07.14.18.26.42.94 1.49 3.06 2 2.15.5 2.35 1.2 2.19 1.49-.7 0-2.45.23-3.76 1.05-1.31.81-3.48-.04-4.4-.56Zm20.5 5.75c5.8 0 10.5-4.74 10.5-10.6 0-5.84-4.7-10.58-10.5-10.58S18 21.25 18 27.1s4.7 10.59 10.5 10.59Z" fill="#FF820A" fill-opacity=".7"/></svg>