<?xml version="1.0" encoding="UTF-8"?>
<svg width="400" height="100" version="1.1" xmlns="http://www.w3.org/2000/svg">
 <path d="m122.2 29.69v40.406h9.1337v-8.9855h14.686c9.5 0 16.66-6.0656 16.66-15.564s-7.1598-15.856-16.66-15.856zm9.1337 8.3299h14.32c4.6773 0 7.8926 2.8486 7.8926 7.5261 0 4.6773-3.2153 7.234-7.8926 7.234h-14.32zm46.105 11.91c0-8.3299 5.9166-13.371 13.515-13.371s13.518 5.0407 13.518 13.371c0 8.3299-5.9196 13.371-13.518 13.371s-13.515-5.0407-13.515-13.371m36.166 0c0-12.714-10.375-21.189-22.65-21.189-12.274 0-22.649 8.4754-22.649 21.189s10.375 21.191 22.649 21.191c12.276 0 22.65-8.477 22.65-21.191m6.7216-20.24v40.406h36.973v-8.256h-27.841v-32.15zm28.714 0 18.925 30.323v10.083h8.9894v-10.083l18.995-30.323h-10.451l-12.491 21.555h-0.5851l-12.932-21.555zm51.659 0v20.605c0 13.372 8.0383 20.826 20.676 20.826 12.64 0 20.676-7.4536 20.676-20.826v-20.605h-9.1293v20.677c0 7.8923-3.5809 12.716-11.547 12.716-7.9614 0-11.542-4.8241-11.542-12.716v-20.677zm88.116 5.0407c-6.2828-4.6745-12.857-5.99-20.385-5.99-10.302 0-18.776 3.9462-18.776 12.494 0 7.5263 5.0402 10.74 13.298 11.69l13.591 1.5349c3.434 0.36624 4.6019 1.4608 4.6019 3.6527 0 3.4331-4.6789 5.0407-11.106 5.0407-6.6489 0-12.057-1.7515-17.608-5.6252l-4.3106 7.0871c6.4297 4.7503 12.638 6.5047 20.898 6.5047 12.127 0 20.968-4.0932 20.968-13.154 0-7.4522-5.334-11.106-13.955-12.127l-12.13-1.3894c-3.1426-0.36485-5.2594-0.94907-5.2594-3.2878 0-2.2646 1.9-4.311 9.7891-4.311 6.4297 0 11.253 1.3153 16.002 4.6048l4.3828-6.7253" fill="#2b2f2d"/>
 <path d="m57 12.11-4.7767 28.694c-0.1127 0.68217-0.8482 0.99058-1.4903 0.74001l-14.352-5.548c-1.7781-0.68498-2.3728-2.0198-2.1266-3.4923l3.0595-18.364c0.2432-1.4727 1.2367-2.5433 3.141-2.6175l15.377-0.59619c0.6881-0.0266 1.2829 0.50115 1.1686 1.1835m-41.206 20.66 25.843 13.353c0.6138 0.31435 0.6822 1.1092 0.2476 1.6446l-9.6854 11.956c-1.1967 1.4817-2.6502 1.6404-3.9774 0.95369l-16.538-8.5464c-1.3257-0.68654-2.0405-1.959-1.5259-3.7949l4.1509-14.817c0.1854-0.66591 0.872-1.0678 1.4859-0.74891m6.9138 45.458 20.714-20.424c0.4924-0.4849 1.2665-0.30248 1.6417 0.27574l8.3612 12.917c1.0351 1.5986 0.7325 3.0283-0.3308 4.0768l-13.255 13.071c-1.0634 1.0484-2.4961 1.3303-4.0829 0.27123l-12.795-8.5449c-0.5739-0.38115-0.7445-1.1582-0.2536-1.6432m45.614 7.4091-13.175-25.936c-0.3129-0.61698 0.095-1.2992 0.7607-1.4816l14.843-4.047c1.8403-0.50131 3.1113 0.22103 3.7875 1.5525l8.4308 16.598c0.6747 1.3318 0.5101 2.7821-0.9787 3.9715l-12.026 9.6024c-0.5398 0.43006-1.3301 0.356-1.6431-0.25945m20.977-40.729-28.766 4.32c-0.6851 0.10379-1.2042-0.49974-1.1656-1.1864l0.8438-15.365c0.1023-1.9027 1.1894-2.88 2.6664-3.1038l18.408-2.7613c1.477-0.22244 2.8029 0.39283 3.4599 2.1814l5.3165 14.438c0.2387 0.64793-0.08 1.3762-0.7638 1.477" fill="#f9aa24"/>
</svg>
