<!-- by TradingView --><svg width="56" height="56" viewBox="0 0 56 56" xmlns="http://www.w3.org/2000/svg"><path fill="#026137" d="M0 0h56v56H0z"/><path d="M6 21v6h2.83c.7-.01 1.79-.13 1.78-.82v-1.86c0-.8-1.27-.8-1.76-.8H8v-1.8l2 .01V21H6Zm2 5.28v-2.06h.5c.12 0 .16.08.16.2v1.66c0 .15-.07.2-.17.2H8ZM12.74 21l-1.36 6h1.83l.27-1.5h1.3l.28 1.5h1.82l-1.36-6h-2.78Zm.84 3.64.5-2.78h.1l.5 2.78h-1.1ZM20 21h-2v6h2v-2.75h1V27h2v-6h-2v2.4l-1 .01V21Zm6 0h-2v6h2v-2.73L27.43 27h1.91l-1.56-3.18L29.14 21H27.2L26 23.43V21ZM7.35 29 6 35h1.82l.28-1.49h1.3L9.67 35h1.83l-1.36-6H7.35Zm.84 3.66.5-2.8h.1l.51 2.8H8.2ZM18.86 29l-1.36 6h1.82l.28-1.49h1.29l.29 1.49H23l-1.36-6h-2.78Zm.83 3.66.51-2.79h.1l.5 2.8h-1.1ZM34.9 29l-1.35 6h1.8l.3-1.48h1.29l.28 1.48h1.83l-1.36-6H34.9Zm.84 3.67.5-2.8h.09l.51 2.79h-1.1ZM26 31.43V29h-2v6h2v-2.72h1V35h2v-6h-2v2.44h-1Zm-12 .03v-1.73h.55c.16 0 .2.07.2.16v1.44c0 .08-.05.13-.2.13H14ZM12 29v6.03h2.86c1.66 0 1.77-.56 1.77-.85v-1.66c0-.38-.26-.63-1.04-.62v-.06c.96.03 1-.52 1-.71v-1.27c.01-.29.01-.86-1.72-.86H12Zm2 5.32v-2.03h.57c.16 0 .21.09.21.22v1.63c0 .1-.07.18-.2.18H14ZM33.7 29H30v6h2v-5.27h1.7V29Zm6.3 0v6.03l2 .01V33h.7c.66 0 1.7-.04 1.7-.93v-2.2c0-.87-1.05-.87-1.64-.87H40Zm2 3.3v-2.57h.38c.1 0 .32 0 .31.22l.01 2.1v.02c-.02.14-.04.25-.33.23H42Zm2 2.06V36h2v-.97h2V36h2v-1.66h-.3V29H45v4.79c.01.22.02.56-.68.56H44Zm3-4.63h1v4.6h-1.38c.3-.1.38-.35.38-.64v-3.96Zm-.38 4.6h-.03v.02l.03-.01Z" fill="#fff"/></svg>