<!-- by TradingView --><svg width="56" height="56" viewBox="0 0 56 56" xmlns="http://www.w3.org/2000/svg"><path fill="#F0F3FA" d="M0 0h56v56H0z"/><path d="M27.99 12c-2.25.01-4.47.5-6.52 1.42l1.84 3.87-9.4-3.31 2.8 2.68 22.67 22.6A16 16 0 0 0 27.98 12Z" fill="#003D6C"/><path d="M32.71 38.68 42 42.05l-2.62-2.8-22.66-22.59a15.98 15.98 0 0 0 6.97 26.73c3.6 1.02 7.46.75 10.9-.77l-1.88-3.94Z" fill="#E9841A"/><path d="M17.38 32h-1.51l1.27-6.7H15l.26-1.3H21l-.26 1.3h-2.11L17.38 32Zm6.36-4.64h2.3a2.14 2.14 0 0 0-.47-1.52 1.53 1.53 0 0 0-1.11-.48c-.37 0-.74.12-1.03.36a1.7 1.7 0 0 0-.55.88l-1.45-.33c.15-.66.52-1.23 1.05-1.6.6-.46 1.33-.7 2.07-.67a2.9 2.9 0 0 1 2.23.86 3.39 3.39 0 0 1 .83 2.51 5.12 5.12 0 0 1-1.11 3.25c-.36.46-.8.81-1.31 1.05-.5.24-1.06.35-1.61.32a2.4 2.4 0 0 1-1.8-.6 2.67 2.67 0 0 1-.88-1.75l1.42-.51a1.55 1.55 0 0 0 .4 1.1 1.4 1.4 0 0 0 1.02.43c.45-.01.88-.19 1.22-.5.44-.4.75-.92.9-1.51h-2.33l.21-1.29Zm9.45 1.71 1.52.24c-.25.79-.7 1.48-1.33 1.99-.6.46-1.33.72-2.08.7a2.71 2.71 0 0 1-2.1-.87 3.67 3.67 0 0 1-.75-2.47c0-.82.17-1.62.5-2.36A3.82 3.82 0 0 1 32.3 24c.7 0 1.38.26 1.92.72.5.47.8 1.13.85 1.83l-1.43.15c-.04-.37-.2-.72-.46-.98a1.32 1.32 0 0 0-.92-.3c-.4.01-.79.15-1.11.4-.4.32-.7.75-.87 1.25a4.75 4.75 0 0 0-.32 1.7c-.03.5.12 1.01.42 1.42.13.16.29.29.47.38.18.09.38.13.58.13.4 0 .8-.14 1.11-.4.33-.33.56-.76.65-1.23ZM36.81 24h1.5l-.66 3.4c.23.02.46-.05.66-.18.3-.32.54-.82.72-1.22.24-.46.5-.9.8-1.32.18-.22.4-.4.65-.52.36-.13.78-.16 1.12-.16h.4l-.32 1.18h-.25c-.15-.01-.3.02-.42.1-.15.12-.26.27-.34.45-.26.56-.58 1.21-.95 1.7-.2.23-.47.41-.76.5.26.1.49.29.66.52.18.23.29.51.33.8v.13L40.6 32h-1.57l-.6-2.55-.19-.51a.87.87 0 0 0-.35-.36.8.8 0 0 0-.48-.1l-.6 3.52H35.3l1.51-8Z" fill="#F0F3FA"/></svg>