<?xml version="1.0" encoding="UTF-8"?>
<svg width="400" height="60" version="1.1" xmlns="http://www.w3.org/2000/svg">
 <g fill="#005597">
  <path d="m27.78 41.79c-9.6104-3.8352-12.508-12.162-12.158-15.666 0.35115-3.5024 1.8072-4.4414 2.9099-4.7571 0 0-4.9665-2.3643-7.078 1.5156-0.93679 2.2304-1.4549 4.6805-1.4549 7.2518 0 10.346 8.3842 18.733 18.725 18.733 5.9833 0 11.311-2.8081 14.739-7.1775-0.0081 4e-3 -6.0805 3.9324-15.684 0.0995"/>
  <path d="m28.724 11.41c-6.5758 0-12.36 3.3926-15.7 8.5226 0.40377-0.17271 2.0406-0.80181 3.7689-0.50099 0.0068 8.6e-4 0.01718 3e-3 0.02529 3e-3 3.2439-4.1601 8.3007-6.8355 13.983-6.8355 3.3308 0 6.4477 0.92077 9.1105 2.5198-3.1215-2.33-6.9933-3.7094-11.188-3.7094"/>
  <path d="m27.929 39.57c2.3769 1.3589 4.9916 2.1126 7.5789 2.3563 1.0866-0.26765 2.1252-0.66456 3.0437-1.185 3.6648-2.2876 14.492-17.312 14.492-17.312s-5.8941-1.2124-8.4517 0.66456c-2.5644 1.869-4.4803 4.8418-7.317 8.0456-2.839 3.205-4.0857 5.2215-6.5918 5.8552-1.861 0.47469-3.6271 0.39576-5.2101 0.0412 0.76064 0.51815 1.5705 1.0272 2.4558 1.5339"/>
 </g>
 <path d="m45.429 40.24c2.2682-1.6528 7.5652-8.8738 7.5652-8.8738s-4.0651-2.1321-7.7562 0c-3.6934 2.1458-3.5824 2.688-7.2484 5.7065-3.6591 3.0243-6.3997 3.3617-8.4185 3.2061-0.11209-4e-3 -0.22304-0.0275-0.33514-0.0366 5.2844 2.4558 12.159 2.8584 16.193-3e-3" fill="#e41b13"/>
 <path d="m53.047 11.43s-5.7351-1.5739-10.345 2.4054c-3.3102 2.8641-10.443 22.073-16.054 23.16-1.0878 0.21389-1.9628 0.23679-2.6777 0.14983 0.01135 0.0113 0.02075 0.0204 0.0321 0.0263 0.94365 0.0869 2.0371 0.0538 3.2999-0.19101 5.607-1.0855 13.025-18.819 16.46-21.538 3.4372-2.7051 7.5469-2.0348 7.5469-2.0348l-3.5287 6.1229z" fill="#005597"/>
 <path d="m364.52 14.195-3.9004 31.908h20.803c1.7203 0 3.4371-0.65248 4.709-1.7871 1.1198-0.99969 1.8292-2.3037 1.9961-3.6797l1.8379-14.352c0.36145-3.014-2.037-5.4648-5.3438-5.4648h-10.152l0.90429-6.625h-10.854zm-295.38 0.003907-5.4609 8.4141h10.672l-2.8828 23.494h10.582l2.8828-23.494h8.6816l1.0332-8.4141h-25.508zm93.055 0-3.9141 31.908h10.578l1.4316-11.668h6.0293l-1.4336 11.668h10.58l3.916-31.908h-10.578l-1.4473 11.793h-6.0293l1.4473-11.793h-10.58zm61.23 0-3.916 31.908h10.578l1.4336-11.668h6.0293l-1.4336 11.668h10.58l3.9141-31.908h-10.578l-1.4453 11.793h-6.0293l1.4473-11.793h-10.58zm106.29 0-1.0391 8.4141h9.2949l-2.8828 23.494h10.58l2.8848-23.494h7.6641l5.4609-8.4141h-31.963zm-231.68 0.001953-3.9121 31.908h10.885l0.74024-6.0137h10.137c3.3113 0 6.3413-2.4538 6.752-5.4609l1.8398-14.955c0.1842-1.3703-0.18754-2.6737-1.0488-3.6699-0.9802-1.1335-2.5288-1.7832-4.248-1.7832l-21.145-0.02539zm36.701 0c-1.0569 0-2.1006 0.67794-2.4277 1.5781l-11.068 30.33h10.797l1.8164-5.4277 10.309-0.125 0.57422 5.5527h10.811l-3.3711-30.357c-0.0664-0.91165-0.87805-1.5508-1.9726-1.5508h-15.467zm119.25 0-3.918 31.908h26.053l1.0332-8.4141h-15.406l0.48438-3.9316h15.404l0.88476-7.209h-15.406l0.48438-3.9375h15.398l1.041-8.416h-26.053zm35.445 0c-1.7202 0-3.4367 0.65326-4.7109 1.7891-1.1187 0.9985-1.8281 2.3028-1.9941 3.6777l-1.8301 14.959c-0.3603 3.0128 1.942 5.4668 5.25 5.4668h10.24l-0.73829 6.0156h10.666l0.74024-6.0156h10.035c3.3114 0 6.3413-2.4519 6.752-5.459l1.8379-14.953c0.18529-1.3703-0.18755-2.6756-1.0488-3.6719-0.9802-1.1335-2.5274-1.7832-4.25-1.7832l-4.3047-0.02539h-26.645zm-88.754 0.021484c-2.2419 0-4.4921 0.86224-6.1758 2.3652-1.4733 1.3142-2.4009 3.0188-2.6172 4.8066l-2.1484 17.527c-0.238 1.7752 0.15134 3.4894 1.3066 4.8242 1.3119 1.5155 3.3357 2.3848 5.5547 2.3848h11.506c4.3167 0 8.3881-3.2412 8.9199-7.2148l0.60743-5.041h-10.738l-0.46875 3.8125h-5.9375l1.8516-15.078h5.9375l-0.39063 3.1699h10.746l0.67578-5.5234c0.5364-4.4528-3.5018-6.0332-7.123-6.0332h-11.506zm92.275 8.3945h5.5801l-1.1074 9.0137h-5.5801l1.1074-9.0137zm16.248 0h5.5918l-1.0195 8.3027c-0.05949 0.39805-0.42666 0.71094-0.82812 0.71094h-4.8496l1.1055-9.0137zm-201.2 0.017578h5.5879l-1.1387 8.1797c-0.05949 0.45409-0.48515 0.82422-0.94726 0.82422h-4.7109l0.99414-7.4219 0.21484-1.582zm32.186 1.1562h2.123l0.97656 8.8027h-6.3945l3.2949-8.8027zm233.17 5.4863h5.4688l-0.86329 7.0449c-0.095 0.77894-0.75632 1.3652-1.541 1.3652h-4.0957l1.0312-8.4102z" fill="#005597"/>
</svg>
