<?xml version="1.0" encoding="UTF-8"?>
<svg width="424.56" height="100" version="1.1" xmlns="http://www.w3.org/2000/svg">
 <path d="m44.491 74.444s1.2272-0.50205 1.3388-0.86463l-0.16735-0.40721c-0.11435-0.26776-0.1004-0.55783 0.12551-0.71402l1.322-0.91764 2.2118 0.42674s-0.40163-0.50205-0.36259-1.1714l-2.1086-0.44626-1.9914 1.2133a1.9356 1.9356 0 0 0-0.63313 2.301l0.26497 0.58293zm15.638 5.7791c0.39327-0.01673 0.83396-0.02231 1.3109-0.02231 0 0 1.138-3.3331 1.2021-3.439a27.771 27.771 0 0 1-2.4712-1.3082c0.33748 0.50763 1.1575 1.085 0.99576 1.5313zm0.67776-38.884c-1.6902 1.679-3.3107 2.301-4.7583 2.4461a7.6702 7.6702 0 0 1-0.7977 0.04462h-0.03626a7.592 7.592 0 0 1-1.5843-0.16735c-0.09483 0.37653-0.21477 1.1659 0.1283 1.9133 0.30681 0.67776 0.9288 1.1826 1.8381 1.5201l0.30681 0.11993 0.0028 0.32912c0 0.09762 0.07252 2.2341 2.3987 2.8282 0.37932-0.39048 0.72518-0.7447 0.97623-1.0431-0.47416-1.1184-0.22313-2.262 0.46579-2.8226-0.02789 0.11993-0.33469 2.923 1.9105 3.9661l0.37095 0.17572-0.11156 0.39326c-0.03626 0.11993-0.78375 2.8337 1.9356 3.8434l0.47974 0.18409-0.21477 0.46579c-0.04741 0.10319-1.1128 2.566 1.3973 3.9661h5.4416v-4.3315c-1.9356-0.23708-2.7529-1.7962-2.9649-2.9007-0.9009-0.1534-1.5954-0.5411-2.0723-1.1742-1.1435-1.5062-0.16177-2.8868-0.14782-2.9621-0.0028 0.01116 0 1.4782 0.90369 2.3875 0.44906 0.4351 0.97902 0.77538 1.7851 0.85069l0.39327 0.03626 0.03347 0.40442c0.0084 0.08646 0.22313 2.0751 2.0696 2.3875l-0.0028-8.8416c0-1.3722 0.39884-2.7501 0.87858-4.0219h-11.026zm-14.651 4.0526-0.14504 5.6285 0.6415 0.1004 1.562-5.4026-0.79491-1.6623-1.2607 1.336zm3.386 20.846a0.31517 0.31517 0 0 1-0.30402-0.34306 0.31796 0.31796 0 0 1 0.34306-0.29844c0.18409 0.0084 0.31238 0.16735 0.30681 0.34027a0.32633 0.32633 0 0 1-0.34585 0.30123zm13.839 4.9842c0.04741 0 0.10319 0.0056 0.1534 0.01952 0.97623 0.27891 1.2189 3.7876 2.923 4.1 0.16735 0.03626 0.32354 0.04462 0.45742 0.04462 0.49368 0 0.78654-0.20919 1.1045-0.58572 0 0-0.85906-1.3471-1.5006-2.2592-0.85069-1.1938-1.5117-2.6357-3.0987-2.6357-0.03905 0-0.08367 0-0.12551 0.0056a1.5787 1.5787 0 0 0-0.84232 0.28449 3.2773 3.2773 0 0 0-1.7851-0.54388c-0.99018 0-1.7655 0.45742-2.1532 0.45742h-0.01394l-3.5422-0.35143c-0.55504-0.05578-0.99297-0.61361-1.1519-0.83117l-0.06136-0.09483c0-0.09762 0-0.19524-0.0056-0.2817-0.11993-2.9035-2.3624-4.1447-3.1629-4.167 0 0 0.09483-0.55225-0.11993-0.76144l-0.78096 0.94833-2.566-1.2886 1.8297 2.1421-1.548 1.7432c-0.19524 0.19803-0.17014 0.46579-0.08925 0.58014l0.66939 0.5913 0.8479-0.51599c0.04183-0.03068 0.11993-0.04184 0.21477-0.04184 0.23429 0 0.58572 0.06136 0.9009 0.06136 0.34864 0 0.64708-0.07252 0.68334-0.39884-0.10598 1.0766-1.1045 2.9481-0.44906 4.418l0.48531 1.1101-3.1322-0.45184-1.4671 2.4796c-0.45184 0.82559-0.52436 1.7181-0.08925 2.2034l0.54946 0.68891s0.76981-0.81722 0.93996-1.3555l-0.24823-0.27336c-0.20919-0.2315-0.19803-0.4379-0.06973-0.68612l0.92043-1.5285 3.6956 0.873 0.19524-0.33469c0.25102-0.41837 0.61361-0.5411 1.0097-0.5411 0.16456 0 0.33191 0.01952 0.50484 0.04741 0.68612 0.13666 1.8158 0.31796 2.9453 0.31796 1.2412 0 2.4712-0.22313 3.1266-0.9567 1.3388 1.9886 4.0554 2.3038 3.8407 3.3163l-0.71402 3.4083c0.47416-0.02231 0.9288-0.05299 1.3611-0.11156l0.68055-3.545a20.333 20.333 0 0 0 0.14504-0.90648c-0.26218-0.26776-0.89531-0.82838-1.2551-1.5117-0.47695-0.92322-0.21756-1.4057-0.66381-2.605 0 0 0.13946-0.27891 0.45184-0.27891zm32.803-11.603c-2.8728-1.4224-4.6858-5.1878-5.1264-6.5434-0.47416 7.4693-4.114 12.651-8.3674 17.638-2.209 2.5883-2.9788 5.1042-2.9788 5.1042s0.42674-2.8505 2.3345-5.171c3.9689-4.775 7.7399-10.722 8.0216-17.6 0.19245-4.7974-1.0375-8.6882-2.9621-11.895 1.0766 3.3386 0.92322 7.4303-2.7278 11.248 0 0 7.2713-8.7244-2.8923-17.672-4.0666-3.4027-8.518-5.5058-10.808-6.9952 8.2754 2.7055 12.319-0.27334 12.319-0.27334-2.6441 2.2954-6.0664 2.2564-8.1889 1.9245 0.57735 0.2817 1.177 0.57735 1.8185 0.92043 6.9812 3.7988 13.252 10.049 14.323 18.701v-0.06694c1.6204 8.4985 5.2352 10.679 5.2352 10.679zm2.1254-9.9018c0.06417 0.0056 0.11993 0.0056 0.18408 0.0056 3.8909 0 5.2073-4.1754 5.2073-4.1754h-0.0753c-0.71402 0-6.4987-0.16735-10.588-5.3747-2.6888-3.4222-4.8949-6.4318-9.252-7.6144l-0.42952-0.07809-0.09204-0.4379c-0.11993-0.6666 0.33469-1.2914 1.3722-1.9635 6.0106-3.9438 1.9245-8.9754 1.9245-8.9754s-1.7125 4.0219-5.5532 4.0219l-0.28728-0.0056c-0.4351-0.02231-0.85627-0.03626-1.2802-0.1283l-0.70844-0.13946s1.0961-2.9844-1.548-5.7205c-1.9886-2.0696-4.4124-2.421-5.8098-2.421-0.70565 0-1.1519 0.09204-1.1519 0.09204 1.3276 1.7376 2.2871 4.6244 0.75307 6.4039-1.3248 1.5285-4.5602 1.6038-4.5602 3.8853 0 0.96507 0.9009 2.0919 2.5186 3.1043 4.8642 3.0681 9.6921 7.1402 11.7 12.598 2.5102 6.8055-0.31796 11.324-4.351 13.915 0 0 1.2663 1.1659 3.0987 1.3165 0.37374 0.03626 0.73912 0.05299 1.0794 0.05299 3.8741 0 5.8767-1.8213 5.8767-1.8213s-0.33191 2.5158-2.3429 4.8503c-1.8632 2.1532-4.3036 3.425-8.0272 3.478 0 0-0.11714 1.7293 1.5313 3.2298 1.057 0.94554 3.492 1.2551 3.492 1.2551s-4.563 0.92322-5.0679 7.6757c-0.27334 3.6593-1.2049 4.9284-1.2049 4.9284h0.08088c10.588 0 10.317-9.0981 10.317-9.0981s0.73634 2.6943 3.69 3.3971c0.35701 0.09483 0.73912 0.13109 1.1017 0.13109 0.94833 0 1.7767-0.22313 1.7767-0.22313s-1.548-3.2689-0.01395-7.8403c1.2747-3.796 1.0682-6.6074 1.0682-6.6074s1.4252 2.1616 4.9647 2.1812h0.03627a4.9702 4.9702 0 0 0 4.2284-2.2369c-7.0593-2.937-6.362-12.412-6.362-12.412s0.91485 0.68612 2.7027 0.75307zm-70.535 20.997c-4.2534-4.987-7.8933-10.169-8.373-17.638-0.4379 1.3583-2.248 5.1236-5.118 6.5434 0 0 3.6092-2.1812 5.2296-10.679v0.06694c1.0738-8.6519 7.3438-14.902 14.325-18.698 0.6415-0.34864 1.244-0.6415 1.8158-0.92043-2.1198 0.32912-5.5448 0.36816-8.1861-1.9245 0 0 4.0442 2.976 12.316 0.27055-2.2871 1.4894-6.7386 3.5924-10.803 6.9952-10.166 8.9475-2.8951 17.672-2.8951 17.672-3.6538-3.8211-3.8044-7.9072-2.7278-11.248-1.9245 3.2075-3.1573 7.0984-2.9565 11.899 0.27613 6.8752 4.0442 12.821 8.0049 17.6 1.9189 2.315 2.3512 5.1655 2.3512 5.1655s-0.78096-2.513-2.9844-5.1014zm1.7014-1.6456s2.435-0.30681 3.492-1.2551c1.6456-1.4978 1.5313-3.227 1.5313-3.227-3.7263-0.05299-6.164-1.3248-8.0356-3.478-2.0026-2.3345-2.3373-4.8503-2.3373-4.8503s2.0026 1.8213 5.8712 1.8213c0.34864 0 0.71123-0.01673 1.0822-0.05299a5.7121 5.7121 0 0 0 3.1071-1.3165c-4.0387-2.5911-6.8668-7.1096-4.3594-13.918 2.0082-5.4527 6.8334-9.5274 11.704-12.598 1.6149-1.0097 2.513-2.1365 2.513-3.1015 0-2.2815-3.2298-2.3568-4.5546-3.8853-1.534-1.7795-0.57177-4.6662 0.75307-6.4039 0 0-0.44348-0.09204-1.1519-0.09204-1.3946 0-3.8183 0.35143-5.8098 2.421-2.6497 2.739-1.548 5.7233-1.548 5.7233l-0.70844 0.13946c-0.42116 0.08646-0.8479 0.10319-1.283 0.1283l-0.27891 0.0028c-3.849 0-5.5588-4.0191-5.5588-4.0191s-4.0805 5.0288 1.93 8.9726c1.0319 0.67218 1.4866 1.2998 1.3666 1.9635l-0.09204 0.4351-0.4379 0.07809c-4.3483 1.1854-6.5545 4.1949-9.2484 7.6172-4.0889 5.2073-9.8676 5.3747-10.585 5.3747h-0.078096s1.3192 4.1754 5.2129 4.1754c0.06136 0 0.11714 0 0.18409-0.0056 1.7878-0.06415 2.7055-0.75028 2.7055-0.75028s0.6917 9.4743-6.3648 12.412c0 0 1.2858 2.2396 4.2312 2.2396h0.03347c3.5422-0.02231 4.9647-2.1839 4.9647-2.1839s-0.2064 2.8142 1.0626 6.6074c1.534 4.5742-0.0056 7.8375-0.0056 7.8375s0.8228 0.22313 1.7739 0.22313c0.36816 0 0.7447-0.03347 1.0989-0.1283 2.9509-0.70286 3.69-3.3971 3.69-3.3971s-0.27055 9.0981 10.319 9.0981h0.07809s-0.9288-1.2691-1.1993-4.9284c-0.50205-6.7497-5.0707-7.6785-5.0707-7.6785zm23.365-33.526h4.9926v1.7153c-0.58572-0.7196-1.7293-0.57177-1.7293-0.57177v2.474s0.03905 1.2161 0.46858 1.7432h-2.4712c0.43232-0.52715 0.46858-1.7432 0.46858-1.7432v-2.474s-1.138-0.14782-1.7293 0.57177zm-5.4388 0.2566c0.17293 0.18688 0.34306 0.39048 0.50763 0.59409 0.03905 0.04741 0.0753 0.08925 0.11435 0.14504 0.1534 0.20082 0.30681 0.41837 0.45463 0.63592l0.10041 0.14782c0.17572 0.26776 0.34306 0.54388 0.51041 0.83117 1.5285 2.6413 3.9717 4.22 6.1389 4.2228 2.1728-0.0028 4.6132-1.5815 6.1445-4.2228 0.17014-0.29286 0.34027-0.57735 0.51878-0.84511a12.197 12.197 0 0 1 0.65266-0.90648c0.17014-0.21198 0.34585-0.41837 0.52436-0.60803 0.03068-0.02789 0.05578-0.05857 0.08646-0.08367 0.78096-0.7977 1.7042-1.4057 2.9202-1.7432l-0.5411-0.31517h-0.02789l-2.1532-1.2496-2.2062-1.2691-5.9018 3.2187-0.01673-0.01394-0.0084 0.01394-5.9018-3.2187-2.209 1.2691-2.1532 1.2496h-0.0251l-0.54388 0.31517c1.2133 0.33469 2.1393 0.93717 2.9202 1.7376 0.03347 0.02789 0.05578 0.06694 0.09483 0.09483zm7.8263-20.115c-3.6537 0.0028-6.3955 1.2021-6.9924 2.6162l6.9924 2.7613 6.9952-2.7613c-0.5913-1.4141-3.3331-2.6134-6.9952-2.6162zm0.0753 73.184h-0.13946c-2.2145 0.01395-5.2687-0.44068-6.7358-0.873l-1.7683 4.7946c1.1659 0.41558 5.1152 1.2133 8.5766 1.2133 3.4557 0 7.408-0.7977 8.5711-1.2133l-1.7655-4.7918c-1.4755 0.42952-4.524 0.88416-6.7386 0.87021zm13.379-4.7695c-1.3165 0.74749-4.2534 1.8688-5.9632 2.3875l1.4336 3.9605c2.6441-0.72518 4.828-1.5703 6.6298-2.4768l-2.9788-0.99018zm-26.901 0 0.88137 2.8812-2.9816 0.99018c1.799 0.90648 3.9912 1.7516 6.627 2.474l1.4364-3.9605c-1.7069-0.51878-4.6495-1.6372-5.9632-2.3847zm13.446-72.997c2.7585 0 5.4583 0.66102 7.539 1.8185 0.18967-0.63592 0.45463-1.4113 0.81443-2.2229l-0.78654 0.09483-0.8228 0.08367-0.34864-0.75028-1.0543-2.2229-1.9133 0.99855-0.74749 0.37932-0.59688-0.58572-2.0835-2.064-2.0779 2.064-0.59409 0.58572-0.7447-0.37932-1.9245-0.99855-1.0403 2.2229-0.35422 0.75307-0.82559-0.08646-0.78096-0.09483c0.3598 0.81164 0.62198 1.5871 0.81443 2.2229 2.0863-1.1575 4.7862-1.8185 7.5307-1.8185zm42.074 25.708c0.3598 0.12272 0.72238 0.17851 1.0822 0.17851 1.562 0 3.0681-1.0125 3.5841-2.1672 0 0-2.8589-0.17293-5.9325-3.2996-0.97623-1.0097-2.0138-1.3137-2.9007-1.3137-1.3806 0-2.4182 0.72796-2.4182 0.72796 3.7151 1.9803 4.471 5.1599 6.5851 5.8739zm-85.222 0.17572c0.36259 0 0.72518-0.05299 1.0738-0.17851 2.1198-0.71402 2.884-3.8909 6.5907-5.8684 0 0-1.0375-0.73076-2.4098-0.73076-0.89252 0-1.9273 0.30123-2.9091 1.3165-3.0708 3.1238-5.927 3.2996-5.927 3.2996 0.5132 1.1519 2.0221 2.1644 3.5813 2.1644zm41.271-12.347v1.6177l-0.30959-0.14504c-0.01395-0.01116-0.47137-0.11156-1.2607-0.74192-1.3082-1.0153-1.3332-1.9524-1.3332-1.9524l2.9007 1.2217zm1.3666 7.5781v-10.047l-6.3815-2.17 1.6846 9.7344 4.6997 2.4824zm2.3987-7.5781 2.9007-1.2217s-0.02231 0.93717-1.336 1.9524c-0.78933 0.62755-1.244 0.73076-1.2579 0.74192l-0.30681 0.14224zm3.3275 5.0986 1.6762-9.7344-6.3788 2.1672v10.047l4.7025-2.4824zm-14.752 25.769c0.62198 0.22313 1.375 0.27055 1.7627 0.27055 0.01395-0.04741 0.03626-0.10598 0.05578-0.17851 0.03068-0.11156 0.06415-0.22871 0.08925-0.35143 0.10877-0.55783 0.14504-1.1854 0.1562-1.5926a2.2369 2.2369 0 0 1-0.83953-0.88695c-0.23708-0.49926-0.57456-0.73354-1.0682-0.73354-0.6415 0-1.3304 0.39048-1.6288 0.56898-0.23429 1.389 0.78933 2.6497 1.4727 2.9007zm14.118-5.3301c-1.1826 1.2914-3.506 3.5422-3.6176 3.6537l-0.13946 0.13946-7.3354-0.11435a7.6144 7.6144 0 0 1-0.23429 1.799l-0.05857 0.2315 8.7216 1.5731c0.90648-0.63592 3.4027-2.4628 4.3734-3.1796-0.70565-1.0319-0.7726-2.2564-0.61361-3.1154a4.365 4.365 0 0 1-1.0961-0.98739z" fill="#fffffe"/>
 <path d="m70.957 60.456h-31.448v11.851c0 4.8475 3.5004 7.8793 8.6686 7.8793 4.3148 0 5.4527 0.16735 7.0565 1.7655 1.1073-1.1073 2.0221-1.5173 3.9048-1.6735l0.04184-0.1813 0.99018-3.0708c-0.05578-0.06973-1.6735-1.9133-1.6735-1.9133-0.6415 0.21477-1.1826 0.25102-2.0919 0.25102-0.9288 0-1.9803-0.11156-3.121-0.32354a1.4476 1.4476 0 0 0-0.32633-0.03905c-0.13946 0-0.14782 0.01116-0.18688 0.08088l-0.19524 0.32633-0.36259 0.59688-0.67776-0.15898-3.0179-0.71123-0.41558 0.68334 0.06415 0.0753 0.36538 0.40442-0.16177 0.52994c-0.22313 0.68891-0.94275 1.495-1.1631 1.7181l-0.75307 0.80885-0.68891-0.86742-0.51599-0.64987c-0.54389-0.60802-0.6694-1.5396-0.36259-2.5158a0.058572 0.058572 0 0 1-0.03068 0.01116l-0.85069 0.35422-0.38211-0.83674-0.27055-0.58851a2.884 2.884 0 0 1 0.9567-3.478l2.4266-1.375 2.315 0.45463c0.05578-0.22313 0.13946-1.0153 0.20361-1.2189-0.04463-0.0056-0.08646-0.01395-0.13109-0.01395l-1.3332 0.49647-1.283-0.88695s-0.50205-0.48531-0.04741-0.97065l1.2412-1.8883-3.1517-3.9605 4.8447 1.9914 0.32354-0.39884 0.65266-0.78654 0.74192 0.70844a1.4113 1.4113 0 0 1 0.39048 0.70007c1.3332 0.52157 3.7263 2.0584 3.9383 4.5574l-0.74749 0.29844v0.01952c0.17014 0.20361 0.31238 0.28728 0.35701 0.29565l3.4585 0.34027c0.08925-0.01673 0.19524-0.05578 0.31796-0.08925 0.43232-0.14782 1.0766-0.36259 1.8409-0.36259 0.62477 0 1.2272 0.14504 1.8046 0.41837 0.21477-0.08367 0.47416-0.14224 0.78096-0.16177l0.16735-0.0056c1.8492 0 2.7697 1.3862 3.5087 2.4934 0.12272 0.19245 0.24545 0.37095 0.37374 0.54946 0.64708 0.91485 1.4922 2.2508 1.5257 2.3094l0.38211 0.59409-0.46858 0.54667c-0.35701 0.41837-0.9009 0.90648-1.8269 0.90648a3.347 3.347 0 0 1-0.62477-0.06415 2.6497 2.6497 0 0 1-0.55225-0.17014 14.105 14.105 0 0 1-0.09762 0.58851l-0.60524 3.1712c3.6259-0.89252 5.9297-3.6371 5.9297-7.5641zm-31.448-0.95391h24.461c-1.2217-1.2663-1.2021-2.8644-0.89253-3.9048a4.0331 4.0331 0 0 1-0.91206-0.60245c-0.9567 0.70565-3.8741 2.8337-4.6355 3.3692l-0.16456 0.11156-9.6003-1.7404h-0.19524c-0.22871 0-0.5662-0.0084-0.93438-0.05578a0.93438 0.93438 0 0 1-1.6735 0.33748 0.93438 0.93438 0 0 1-0.16735-0.70565l0.03626-0.20919c-0.98739-0.69728-1.9049-2.2592-1.4978-3.9048l0.03905-0.17293 0.13946-0.10041a5.4109 5.4109 0 0 1 0.4351-0.26776l-0.69728-0.11157a0.48252 0.48252 0 0 1-0.39605-0.54388c0.04463-0.26218 0.28728-0.44626 0.54667-0.39884l1.6595 0.26218 0.1534-5.86 2.4712-2.6218 1.5452 3.2549-1.6288 5.6397 1.4671 0.2315a0.47974 0.47974 0 0 1 0.39605 0.54946 0.47137 0.47137 0 0 1-0.46858 0.39605l-0.0753-0.0028-1.1966-0.19524c0.01673 0.03905 0.03905 0.05857 0.05578 0.09762a1.3109 1.3109 0 0 0 0.57456 0.52994l7.3159 0.11993c0.3096-0.30402 1.0766-1.057 1.8688-1.8548a3.9522 3.9522 0 0 1-2.566-3.2717c-1.0041-0.42952-1.7014-1.071-2.0863-1.9077-0.46858-1.0375-0.30123-2.0751-0.17572-2.5799-0.97623-0.35422-2.0026-1.0069-3.0514-2.05h-11.022c0.47416 1.2719 0.873 2.6497 0.873 4.0191v14.141z" fill="#ffe52b"/>
 <path d="m55.233 21.066-6.9924-2.7669c0.59409-1.4113 3.3358-2.6106 6.9924-2.6134 3.6593 0.0028 6.4011 1.2021 6.9952 2.6134zm5.2129 8.6714-4.6997 2.4824v-10.052l6.3788-2.17-1.679 9.7344zm2.9119 2.6664 2.1477 1.2496h0.03068l0.5411 0.31517c-1.2133 0.33469-2.1421 0.94554-2.9202 1.7432l-0.08367 0.08367a10.395 10.395 0 0 0-0.52715 0.60803l-0.09762 0.1283c-0.16735 0.21477-0.32633 0.4351-0.47416 0.66381l-0.08088 0.11435a15.608 15.608 0 0 0-0.51599 0.84511c-1.534 2.6413-3.9745 4.22-6.1445 4.2256-2.17-0.0056-4.6132-1.5843-6.1417-4.2256a17.731 17.731 0 0 0-0.51042-0.83116l-0.10041-0.14782a17.097 17.097 0 0 0-0.45184-0.63592c-0.03905-0.05578-0.0753-0.09762-0.11435-0.14504a12.236 12.236 0 0 0-0.51041-0.59409c-0.03626-0.02789-0.06136-0.06415-0.09483-0.09483a6.3313 6.3313 0 0 0-2.9202-1.7376l0.54667-0.31517h0.02231l2.156-1.2496 2.2062-1.2691 5.9018 3.2187 0.01116-0.01116 0.01673 0.01116 5.899-3.2187zm8.479 8.9364c-0.48253 1.2719-0.88137 2.6497-0.88137 4.0191l0.0056 8.8416c-1.8437-0.30681-2.064-2.2982-2.0696-2.3847l-0.03347-0.40442-0.39884-0.03626a2.8142 2.8142 0 0 1-1.7795-0.85069c-0.90648-0.90648-0.90648-2.3736-0.90648-2.3875-0.01116 0.0753-0.99297 1.4504 0.14504 2.9565 0.47974 0.63592 1.177 1.0292 2.0751 1.1826 0.21198 1.1017 1.0319 2.6608 2.9677 2.9007v4.3232h-5.4416c-2.5102-1.3973-1.4476-3.8574-1.3973-3.9633l0.21198-0.46858-0.47974-0.1813c-2.7194-1.0097-1.9691-3.7263-1.9328-3.8434l0.11156-0.39605-0.37374-0.17293c-2.2424-1.0431-1.9384-3.849-1.9077-3.9661-0.6917 0.56062-0.93996 1.7014-0.46579 2.8254-0.2566 0.29565-0.60245 0.64987-0.97902 1.0403a3.0542 3.0542 0 0 1-2.3987-2.831l-0.0028-0.32912-0.30681-0.11714c-0.90648-0.3347-1.5285-0.84232-1.8381-1.5201-0.34306-0.75028-0.22313-1.534-0.1283-1.9161a8.041 8.041 0 0 0 1.5843 0.16735h0.03626c0.27055 0 0.53552-0.01673 0.7977-0.04184 1.4504-0.14504 3.0681-0.76702 4.7583-2.4461zm-6.8 38.532 0.60803-3.1712 0.09762-0.58572a3.3664 3.3664 0 0 0 1.177 0.2315c0.92601 0 1.4671-0.49089 1.8269-0.90648l0.463-0.54388-0.37932-0.59688c-0.03347-0.05857-0.87858-1.3946-1.5257-2.3094a12.425 12.425 0 0 1-0.37095-0.55225c-0.73912-1.1045-1.6623-2.4907-3.5143-2.4907l-0.16456 0.0056a2.7194 2.7194 0 0 0-0.78096 0.15898 4.22 4.22 0 0 0-1.8046-0.41279 5.6062 5.6062 0 0 0-1.8381 0.35701c-0.12272 0.03626-0.23429 0.0753-0.32075 0.09204l-3.4585-0.34027c-0.04462-0.01116-0.18409-0.09483-0.35701-0.29565v-0.01952l0.74749-0.29844c-0.20919-2.499-2.605-4.0359-3.9383-4.5574a1.4085 1.4085 0 0 0-0.39048-0.70286l-0.74192-0.70565-0.65266 0.78375-0.32075 0.40163-4.8475-1.9942 3.1517 3.9633-1.2412 1.8883c-0.45742 0.48253 0.04741 0.97065 0.04741 0.97065l1.283 0.88695 1.3332-0.49926c0.04462 0 0.08367 0.01116 0.13109 0.01673-0.06415 0.20361-0.14782 0.99855-0.20361 1.2189l-2.3122-0.45463-2.4266 1.375c-1.2524 0.92043-1.4224 2.4377-0.9567 3.478l0.26776 0.5913 0.38211 0.83396 0.85069-0.35143c0.01395-0.0056 0.0251-0.0084 0.03347-0.01673-0.30681 0.97902-0.1813 1.9077 0.36259 2.5186l0.51599 0.64987 0.68612 0.87021 0.75307-0.81164c0.22313-0.22313 0.94275-1.0292 1.1631-1.7209l0.16177-0.52715-0.36538-0.40442-0.06136-0.0753 0.41279-0.68334 3.0179 0.71402 0.68055 0.1562 0.36259-0.59967 0.19524-0.32354c0.03626-0.06973 0.04463-0.08088 0.18409-0.08088 0.10877 0 0.21477 0.01116 0.32912 0.03905a16.986 16.986 0 0 0 3.1238 0.32075c0.9009 0 1.4448-0.03347 2.0863-0.24824 0 0 1.6204 1.8409 1.6762 1.9133l-0.99297 3.0681-0.04463 0.18409c-1.8771 0.1534-2.7919 0.5662-3.8992 1.6735-1.6065-1.5954-2.7418-1.7655-7.0565-1.7655-5.1682 0-8.6714-3.0318-8.6714-7.8821v-11.848h31.45l0.0056 11.848c0 3.9299-2.3038 6.6716-5.9297 7.5669zm-19.371-6.6995 0.16456 0.41c-0.11156 0.35701-1.3388 0.86463-1.3388 0.86463l-0.26218-0.58293a1.9356 1.9356 0 0 1 0.63313-2.3038l1.9886-1.2133 2.1114 0.44626c-0.04184 0.67218 0.3598 1.1742 0.3598 1.1742l-2.209-0.42395-1.3248 0.91485c-0.22313 0.1562-0.23987 0.44626-0.12272 0.71402zm19.036 3.347-0.67776 3.545c-0.4351 0.06136-0.89253 0.09483-1.3611 0.11156l0.71402-3.4027c0.21198-1.0153-2.499-1.3304-3.8407-3.3191-0.65545 0.73634-1.8855 0.9567-3.1238 0.9567-1.1324 0-2.2592-0.1813-2.9481-0.31796a3.2354 3.2354 0 0 0-0.50205-0.04741c-0.39884 0-0.75865 0.12272-1.0097 0.54388l-0.19524 0.3347-3.6984-0.873-0.92043 1.5257c-0.1283 0.24824-0.13946 0.45463 0.06973 0.68612l0.25103 0.27334c-0.17293 0.53831-0.94275 1.3555-0.94275 1.3555l-0.54947-0.68892c-0.4351-0.48531-0.36259-1.3778 0.08925-2.2034l1.4671-2.4824 3.1322 0.45463-0.48531-1.1128c-0.65545-1.4699 0.34306-3.3386 0.44906-4.4152-0.03626 0.32633-0.33469 0.39884-0.68055 0.39884-0.31796 0-0.66939-0.05857-0.90369-0.05857-0.09204 0-0.17293 0.0084-0.21477 0.03905l-0.8479 0.51599-0.66939-0.5913c-0.08088-0.11156-0.10598-0.38211 0.08925-0.58293l1.5508-1.7404-1.8297-2.1421 2.5604 1.2914 0.78375-0.95112c0.21477 0.21198 0.11993 0.76144 0.11993 0.76144 0.80049 0.02231 3.0458 1.2635 3.1629 4.1642 0.0084 0.08925 0.0084 0.18688 0.0084 0.28449l0.05857 0.09483c0.15898 0.22034 0.59688 0.78096 1.1519 0.83117l3.5422 0.35143h0.01394c0.39048 0 1.1631-0.45742 2.1532-0.45742 0.54388 0 1.1435 0.13946 1.7851 0.54388 0 0 0.32354-0.2566 0.84511-0.28449 0.03905-0.0056 0.08367-0.0056 0.11993-0.0056 1.5898 0 2.2508 1.4392 3.1043 2.6357 0.6415 0.90927 1.4978 2.2592 1.4978 2.2592-0.31517 0.37653-0.61082 0.58572-1.1045 0.58572a2.2787 2.2787 0 0 1-0.45742-0.04462c-1.7014-0.31517-1.9496-3.8211-2.9202-4.1a0.5913 0.5913 0 0 0-0.1562-0.01952c-0.31238 0-0.44906 0.27891-0.44906 0.27891 0.44626 1.1966 0.18409 1.679 0.66381 2.6023 0.35701 0.68334 0.99018 1.244 1.2524 1.5117 0 0-0.06973 0.51878-0.14782 0.90648zm-3.2605 3.6816c-0.47416 0-0.91485 0.0056-1.3109 0.02231l1.0375-3.2382c0.16177-0.44906-0.65824-1.0264-0.99576-1.534 0.51041 0.32354 1.8353 1.0319 2.474 1.3109a169.51 169.51 0 0 0-1.2049 3.439zm-15.43-29.18 0.14782-5.6285 1.2607-1.336 0.79212 1.6623-1.562 5.4026-0.6415-0.09762zm0.90648 1.746a2.2285 2.2285 0 0 0 0.83674 0.88416 10.331 10.331 0 0 1-0.1534 1.5954c-0.02789 0.12272-0.05578 0.23708-0.09204 0.35143-0.01673 0.07252-0.03905 0.13109-0.05299 0.17851-0.38769 0-1.1435-0.04741-1.76-0.27334-0.68612-0.25102-1.7097-1.5117-1.4727-2.9007 0.29565-0.1813 0.98181-0.56898 1.626-0.56898 0.49368 0 0.83117 0.23429 1.0682 0.73354zm14.604 1.5117c-0.96786 0.7168-3.4669 2.5437-4.3734 3.1796l-8.7244-1.5731 0.06136-0.2315c0.11156-0.45463 0.2315-1.0738 0.23708-1.8018l7.3327 0.11714 0.13946-0.13946c0.11156-0.11156 2.435-2.3624 3.6176-3.6537 0.2817 0.35422 0.63313 0.68891 1.0961 0.9846-0.1562 0.86463-0.09204 2.0863 0.61361 3.1182zm-11.862-12.938c1.0515 1.0431 2.0751 1.693 3.0514 2.05-0.12551 0.50205-0.29286 1.5452 0.17572 2.5799 0.3849 0.83674 1.0822 1.4782 2.0891 1.9077 0.11156 1.0319 0.76144 2.5855 2.566 3.2717-0.79212 0.7977-1.562 1.5508-1.8688 1.852l-7.3187-0.11435a1.3109 1.3109 0 0 1-0.57456-0.53552c-0.01395-0.03626-0.03905-0.05578-0.05578-0.09483l1.1966 0.19524 0.0753 0.0028a0.47137 0.47137 0 0 0 0.46858-0.39605 0.47974 0.47974 0 0 0-0.39326-0.54946l-1.4699-0.23429 1.6288-5.6369-1.5424-3.2549-2.474 2.6218-0.15062 5.86-1.6623-0.26497c-0.2566-0.0502-0.50205 0.13946-0.54946 0.39884a0.48531 0.48531 0 0 0 0.39884 0.54946l0.69728 0.10598c-0.25102 0.14224-0.41558 0.2566-0.4351 0.27055l-0.13946 0.10041-0.03905 0.17293c-0.40442 1.6456 0.51042 3.2075 1.4978 3.9048l-0.03626 0.20919c-0.03905 0.25102 0.01673 0.50205 0.16735 0.70565a0.92043 0.92043 0 0 0 0.76702 0.39605 0.93717 0.93717 0 0 0 0.90648-0.73076c0.36816 0.04184 0.70565 0.05299 0.93438 0.05299h0.19803l9.5976 1.7376 0.16456-0.10877c0.76423-0.53552 3.6816-2.6636 4.6355-3.3692 0.26497 0.22592 0.55783 0.43232 0.91206 0.60245-0.30959 1.0403-0.32912 2.6385 0.89253 3.9048h-24.461v-14.141c0-1.3722-0.39884-2.7501-0.873-4.0219zm-1.322-21.337 6.3843 2.1672v10.047l-4.6997-2.4824-1.6846-9.7344zm15.574-1.2133c0-2.4517-4.1196-4.6579-8.6658-4.6579h-0.02789c-4.5463 0-8.663 2.2062-8.663 4.6579l0.08925 0.60245 1.8158 10.44-1.8241 1.0598-4.7164 2.7613h0.01673s-1.0598 0.54667-1.5536 0.88137c-1.7962 1.2496-2.1784 3.0736-1.1352 3.8267 0.2566-1.4866 1.4308-3.0402 3.6259-3.0402 1.5843 0 2.7891 0.82001 3.7653 2.0444 0.25102 0.30959 0.4881 0.6415 0.70844 0.99576 0.27334 0.44906 0.54946 0.84511 0.82001 1.2244h-12.155c0.89252 1.799 1.7432 3.704 1.7432 5.7735v26.949c0 6.521 5.0065 9.6336 10.423 9.6336 4.1865 0 4.7499-0.18967 7.0593 2.1142 2.2982-2.3038 2.8644-2.1142 7.0538-2.1142 5.4193 0 10.418-3.1126 10.418-9.6336v-26.949c0-2.0696 0.85069-3.9745 1.7488-5.7735h-12.161c0.27334-0.37932 0.54667-0.77539 0.82001-1.2244 0.22313-0.35422 0.46021-0.68612 0.70565-0.99576 0.98181-1.23 2.1867-2.0444 3.7709-2.0444 2.195 0 3.3664 1.5536 3.6259 3.0402 1.0431-0.75307 0.6666-2.5772-1.1435-3.8267-0.47974-0.3347-1.5452-0.88137-1.5452-0.88137h0.01952l-4.7276-2.7613-1.813-1.0598 1.813-10.44zm-49.485 12.735c0.98181-1.0125 2.0165-1.3192 2.9091-1.3192 1.3722 0 2.4126 0.73354 2.4126 0.73354-3.7095 1.9803-4.4738 5.1543-6.5935 5.8712a3.188 3.188 0 0 1-1.0738 0.17572c-1.5592 0-3.0681-1.0097-3.5813-2.1616 0 0 2.8561-0.17572 5.927-3.2996zm-2.3457 6.733c0.51042 0 1.0097-0.07809 1.4838-0.23987 1.3276-0.44068 2.1756-1.4978 3.0681-2.6023 0.91206-1.124 1.9384-2.3987 3.7179-3.347l1.8297-0.9846-1.7014-1.1993c-0.13946-0.08646-1.4141-0.94833-3.1433-0.94833-1.4169 0-2.7334 0.57735-3.8183 1.6874-2.6413 2.7027-5.0093 2.9202-5.0958 2.923l-1.8409 0.10877 0.75307 1.693c0.76423 1.6874 2.7613 2.9091 4.7471 2.9091zm8.32 14.793c-0.19524-4.8002 1.0319-8.6909 2.9565-11.899-1.071 3.3414-0.92601 7.4303 2.7334 11.252 0 0-7.2741-8.73 2.8923-17.672 4.0666-3.4055 8.5153-5.5085 10.803-6.998-8.2726 2.7055-12.314-0.27334-12.314-0.27334 2.6413 2.2954 6.0636 2.2592 8.1861 1.9245-0.57456 0.2817-1.177 0.57456-1.8185 0.92322-6.9812 3.796-13.248 10.047-14.325 18.698v-0.06415c-1.6204 8.4957-5.2296 10.677-5.2296 10.677 2.8728-1.4224 4.6802-5.1878 5.1208-6.5434 0.47974 7.4693 4.1168 12.651 8.3674 17.641 2.209 2.5855 2.9844 5.0986 2.9844 5.0986s-0.42952-2.8477-2.3457-5.1655c-3.9605-4.7778-7.7315-10.724-8.0104-17.6zm32.44-17.508v1.7181c0.5913-0.72238 1.7293-0.57456 1.7293-0.57456v2.474s-0.03626 1.2161-0.46858 1.7432h2.4712c-0.42952-0.52715-0.47137-1.7432-0.47137-1.7432v-2.474s1.1435-0.14782 1.7293 0.57456v-1.7181h-4.9926zm-1.0598-10.174c0.78933 0.62755 1.2468 0.73354 1.2607 0.74192l0.30681 0.14224v-1.6149l-2.9007-1.2217s0.0251 0.93717 1.3332 1.9524zm6.9003 0c1.3109-1.0153 1.3388-1.9524 1.3388-1.9524l-2.9035 1.2217v1.6177l0.30681-0.14504c0.01395-0.0084 0.46858-0.11435 1.2579-0.74192zm34.455 4.8391c0.88695 0 1.9245 0.30402 2.9007 1.3165 3.0737 3.1238 5.9325 3.2996 5.9325 3.2996-0.51878 1.1519-2.0249 2.1644-3.5841 2.1644-0.3598 0-0.72518-0.05578-1.0794-0.1813-2.117-0.71402-2.8728-3.8909-6.5851-5.8684 0 0 1.0319-0.73076 2.4154-0.73076zm-3.0207 1.8576c1.7767 0.94833 2.8142 2.2229 3.7235 3.3498 0.89252 1.1017 1.7376 2.1616 3.0681 2.6023 0.46858 0.16177 0.96786 0.23987 1.4782 0.23987 1.9886 0 3.9884-1.2217 4.7471-2.9119l0.76144-1.6902-1.8436-0.11156c-0.0865 0-2.4601-0.22034-5.0986-2.9202-1.0877-1.1101-2.4015-1.6902-3.8156-1.6902-1.7293 0-3.0123 0.86463-3.1517 0.95391l-1.6958 1.1966zm0.83396 16.877v0.06415c-1.071-8.6519-7.341-14.9-14.323-18.698-0.6415-0.34585-1.2412-0.6415-1.8185-0.92043 2.1226 0.32912 5.5448 0.36816 8.1889-1.9245 0 0-4.0442 2.976-12.319 0.27055 2.2871 1.4894 6.7414 3.5924 10.808 6.9952 10.161 8.9475 2.8923 17.672 2.8923 17.672 3.6537-3.8183 3.8044-7.9072 2.7278-11.248 1.9245 3.2075 3.1517 7.0984 2.9621 11.899-0.27891 6.8752-4.0526 12.821-8.0216 17.6-1.9077 2.315-2.3317 5.1655-2.3317 5.1655s0.76981-2.513 2.976-5.0986c4.2534-4.9926 7.8933-10.172 8.3674-17.641 0.44068 1.3583 2.2536 5.1236 5.1264 6.5434 0 0-3.612-2.1812-5.2352-10.677zm-55.281 32.733c-10.59 0-10.319-9.0954-10.319-9.0954s-0.74192 2.6943-3.69 3.3944a4.3427 4.3427 0 0 1-1.1017 0.13109c-0.94833 0-1.7739-0.22313-1.7739-0.22313s1.5424-3.2689 0.0056-7.8403c-1.2663-3.7932-1.0598-6.6074-1.0598-6.6074s-1.4252 2.1616-4.9647 2.1839h-0.03626c-2.9426 0-4.2284-2.2396-4.2284-2.2396 7.0565-2.937 6.3648-12.412 6.3648-12.412s-0.92043 0.68612-2.7055 0.75307h-0.18688c-3.8937 0-5.2129-4.1726-5.2129-4.1726h0.080885c0.7196 0 6.4959-0.16735 10.582-5.3747 2.6915-3.4222 4.9005-6.4318 9.2484-7.6144l0.4379-0.07809 0.09204-0.4379c0.12272-0.66381-0.33469-1.2914-1.3666-1.9635-6.0106-3.9438-1.93-8.9726-1.93-8.9726s1.7069 4.0191 5.5588 4.0191l0.27891-0.0028c0.4351-0.02231 0.86184-0.04184 1.283-0.13109l0.70844-0.13666s-1.0989-2.9844 1.5508-5.7233c1.9914-2.0696 4.4096-2.421 5.807-2.421 0.71123 0 1.1491 0.09204 1.1491 0.09204-1.322 1.7376-2.2815 4.6244-0.75307 6.4039 1.3276 1.5313 4.5602 1.6038 4.5602 3.8825 0 0.96786-0.9009 2.0947-2.5158 3.1071-4.867 3.0681-9.6948 7.1402-11.704 12.598-2.5046 6.8055 0.32354 11.324 4.3594 13.918 0 0-1.2691 1.1659-3.1043 1.3136a11.491 11.491 0 0 1-1.0822 0.05299c-3.8714 0-5.8739-1.8185-5.8739-1.8185s0.33469 2.513 2.3373 4.8503c1.8688 2.1532 4.3092 3.4222 8.0328 3.4753 0 0 0.11993 1.7293-1.5285 3.2298-1.057 0.94833-3.492 1.2551-3.492 1.2551s4.5658 0.92601 5.0679 7.6757c0.27334 3.6593 1.1993 4.9284 1.1993 4.9284zm1.124-0.72518c-0.0028-0.01395-0.74192-1.1714-0.97902-4.2952-0.27891-3.743-1.6902-5.9297-3.0875-7.1848 0.40442-0.18967 0.78096-0.42674 1.0933-0.71123 2.05-1.8464 1.9635-4.0163 1.9496-4.2562l-0.07809-1.1714-1.1742-0.01673c-3.1294-0.0502-5.3133-0.98739-7.0844-3.0458a9.5391 9.5391 0 0 1-1.0153-1.4336c0.97623 0.29844 2.17 0.51878 3.5841 0.51878 0.37653 0 0.7726-0.02231 1.1882-0.0502a7.0119 7.0119 0 0 0 3.8574-1.6456l1.2189-1.124-1.389-0.89253c-3.1126-1.9942-6.295-5.7735-3.849-12.403 1.5815-4.3092 5.238-8.2112 11.184-11.955 2.0082-1.2691 3.1071-2.7669 3.1071-4.1949 0-2.2062-1.8409-3.0764-3.1908-3.6984-0.65824-0.31517-1.3443-0.62755-1.6762-1.0153-1.0459-1.2133-0.16735-3.5366 0.80606-4.7974l1.244-1.6316-2.0165-0.39884c-0.05578-0.0084-0.58572-0.10598-1.3946-0.10598-1.5034 0-4.379 0.36538-6.7218 2.8003-1.9552 2.0249-2.2118 4.181-2.1114 5.5727-0.18967 0.01673-0.37932 0.0251-0.58014 0.03347h-0.21477c-2.9453 0-4.3343-3.1238-4.3873-3.2438l-0.82838-1.9524-1.3388 1.6456c-0.0753 0.1004-2.0361 2.5437-1.5564 5.609 0.31517 2.0361 1.5926 3.7932 3.7849 5.238 0.23987 0.1534 0.40442 0.28449 0.52436 0.39327-4.1391 1.3471-6.4457 4.3008-8.8834 7.4052l-0.35143 0.44068c-3.7263 4.7499-9.0009 4.8921-9.6309 4.8921l-1.7962-0.05578 0.54667 1.7125c0.06415 0.2064 1.6539 5.0679 6.4262 5.0679l0.22871-0.0084c0.50484-0.01395 0.95949-0.08367 1.3611-0.16177-0.19524 2.6497-1.1714 7.5502-5.556 9.3717l-1.3388 0.55783 0.72518 1.2635c0.066939 0.11435 1.6958 2.8672 5.3831 2.8672a8.1833 8.1833 0 0 0 3.7988-0.89253c0.14224 1.1993 0.4379 2.7362 1.0125 4.4571 1.3332 3.9773 0.09204 6.7693 0.04463 6.8808l-0.65824 1.389 1.4866 0.39326c0.1004 0.02789 1.0153 0.2566 2.0974 0.2566a6.2198 6.2198 0 0 0 4.061-1.495c0.40442 1.2468 1.0989 2.6553 2.301 3.902 2.0472 2.1058 4.9898 3.1684 8.8332 3.1684l2.3289-0.03068zm12.788-15.354a0.31796 0.31796 0 0 0-0.34306 0.30123 0.31517 0.31517 0 0 0 0.30402 0.34027 0.32633 0.32633 0 0 0 0.34585-0.29844 0.32633 0.32633 0 0 0-0.30681-0.34306zm14.576 24.851-1.4364-3.9605c1.7097-0.52157 4.6467-1.6428 5.966-2.3875l-0.87858 2.8812 2.976 0.99018c-1.8018 0.90369-3.9829 1.7488-6.627 2.474zm-8.9196 3.5562c-3.4613 0-7.4108-0.7977-8.5766-1.2133l1.7683-4.7918c1.4671 0.42952 4.5184 0.88416 6.7358 0.87021h0.13946c2.2145 0.01395 5.2631-0.44348 6.7386-0.87021l1.7655 4.7918c-1.1659 0.41837-5.1152 1.2133-8.5711 1.2133zm-15.552-6.0329 2.9788-0.99018-0.88137-2.8812c1.3136 0.7447 4.259 1.8688 5.9632 2.3875l-1.4364 3.9605c-2.6357-0.72518-4.8252-1.5731-6.6242-2.4768zm31.233-0.87858-1.813-0.69728 0.50205-1.8743 0.54946-2.0444s-3.2075 1.746-7.7343 3.0542c-1.283 0.36816-2.2536 0.53831-2.2536 0.53831v1.3918s-2.421 0.41837-4.8642 0.41837h-0.13946c-2.4489 0-4.8642-0.41837-4.8642-0.41837v-1.3946s-0.97344-0.16735-2.2564-0.53552c-4.5212-1.3109-7.7288-3.0542-7.7288-3.0542l0.5411 2.0444 0.5132 1.8743-1.8185 0.69728-2.0165 0.75307c2.3094 1.1184 5.5113 2.7446 8.4399 3.5478l-0.68891 1.8911s3.7151 1.6958 9.9045 1.7125v0.0027h0.08367v-0.0027c6.1975-0.01674 9.9126-1.7125 9.9126-1.7125l-0.69728-1.8911c2.9314-0.80327 6.1389-2.4266 8.4371-3.5478zm-23.248-76.303 0.8228 0.08925 0.35422-0.75307 1.0375-2.2229 1.9245 0.99855 0.74749 0.38211 2.672-2.6553 2.0835 2.064 0.59688 0.5913 0.74749-0.38211 1.9133-0.99855 1.0543 2.2229 0.34864 0.75307 0.8228-0.08925 0.78654-0.09204c-0.3598 0.81164-0.62477 1.5843-0.81722 2.2257-2.0779-1.1631-4.7778-1.8213-7.5334-1.8213-2.7446 0-5.4444 0.65823-7.5307 1.8213a19.049 19.049 0 0 0-0.81443-2.2257l0.78096 0.09204zm7.5586 1.4699c3.69 0 6.6381 1.2272 8.2698 2.5297 0 0 0.48531-2.9202 2.1365-5.4946l-2.9704 0.3347-1.5536-3.3052-2.9844 1.5424-2.8979-2.8672-2.8868 2.8672-2.99-1.5424-1.5508 3.308-2.9704-0.34027c1.6539 2.5772 2.1365 5.4946 2.1365 5.4946 1.64-1.3026 4.5797-2.5269 8.2615-2.5269zm46.741 49.119s-1.283 2.2396-4.2284 2.2396h-0.03627c-3.5366-0.02231-4.9647-2.1839-4.9647-2.1839s0.2064 2.8114-1.0654 6.6074c-1.534 4.5742 0.01116 7.8375 0.01116 7.8375s-0.82559 0.22592-1.7767 0.22592c-0.36259 0-0.74192-0.03626-1.1017-0.13109-2.9537-0.70007-3.69-3.3944-3.69-3.3944s0.27334 9.0954-10.317 9.0954h-0.08367s0.93438-1.2691 1.2105-4.9284c0.50205-6.7497 5.0651-7.6785 5.0651-7.6785s-2.435-0.30681-3.492-1.2524c-1.6484-1.4978-1.534-3.2298-1.534-3.2298 3.7263-0.05299 6.1696-1.322 8.03-3.478a10.264 10.264 0 0 0 2.3429-4.8503s-2.0026 1.8213-5.8767 1.8213c-0.34027 0-0.70286-0.01673-1.0766-0.05299-1.8353-0.14782-3.1015-1.3165-3.1015-1.3165 4.0331-2.5911 6.8613-7.1123 4.3538-13.918-2.0082-5.4527-6.839-9.5274-11.7-12.596-1.6177-1.0125-2.5214-2.1393-2.5214-3.1071 0-2.2787 3.2354-2.3512 4.563-3.8825 1.534-1.7795 0.57177-4.6662-0.75586-6.4039 0 0 0.44626-0.09204 1.1519-0.09204 1.4001 0 3.8211 0.35143 5.8126 2.421 2.6413 2.739 1.5452 5.7233 1.5452 5.7233l0.70844 0.13946c0.42395 0.08646 0.84511 0.10598 1.283 0.1283l0.28449 0.0028c3.8407 0 5.556-4.0219 5.556-4.0219s4.0833 5.0316-1.9273 8.9754c-1.0347 0.67218-1.4922 1.2998-1.3722 1.9635l0.09483 0.4379 0.42674 0.0753c4.3566 1.1854 6.5629 4.1977 9.2547 7.6172 4.0889 5.2073 9.8739 5.3747 10.585 5.3747h0.0781s-1.3192 4.1754-5.2101 4.1754c-0.06417 0-0.11992 0-0.18408-0.0056-1.7851-0.06415-2.7055-0.75028-2.7055-0.75028s-0.69449 9.4743 6.3648 12.412zm-3.4753-10.379c4.7695 0 6.3648-4.8614 6.4318-5.0679l0.52994-1.7153-1.7851 0.05578h-5e-3c-0.63314 0-5.8935-0.13946-9.6228-4.8893l-0.35422-0.44068c-2.4377-3.1043-4.7499-6.058-8.8834-7.4052a4.2116 4.2116 0 0 1 0.52715-0.39327c2.1922-1.4448 3.4697-3.1991 3.7876-5.238 0.47137-3.0653-1.4838-5.5085-1.5675-5.609l-1.3276-1.6456-0.83117 1.9524c-0.05578 0.11993-1.4504 3.2438-4.3845 3.2438h-0.21756c-0.20082-0.0084-0.39326-0.01673-0.58293-0.03347 0.10319-1.3946-0.15062-3.5478-2.103-5.5727-2.3457-2.435-5.224-2.8003-6.7302-2.8003-0.80327 0-1.3388 0.10041-1.3973 0.10598l-2.0054 0.39884 1.2356 1.6316c0.97065 1.2607 1.852 3.5841 0.80885 4.7974-0.3347 0.39048-1.0209 0.70007-1.6762 1.0153-1.3499 0.62198-3.1964 1.4922-3.1964 3.6984 0 1.428 1.1073 2.9258 3.1154 4.1949 5.9353 3.7402 9.6003 7.645 11.182 11.955 2.4489 6.627-0.7447 10.409-3.849 12.4l-1.389 0.89531 1.2189 1.1212c0.16456 0.14504 1.6511 1.4587 3.8518 1.6484 0.41837 0.02789 0.81722 0.0502 1.191 0.0502 1.4085 0 2.6106-0.22313 3.5869-0.51878a9.1764 9.1764 0 0 1-1.0153 1.4336c-1.7713 2.0584-3.9524 2.9956-7.0902 3.0458l-1.1659 0.01673-0.08925 1.1714c-0.01116 0.23708-0.09762 2.4098 1.9524 4.2562 0.31517 0.28449 0.69449 0.52157 1.0933 0.71123-1.3946 1.2551-2.8058 3.4418-3.0792 7.1848-0.2315 3.1238-0.97623 4.2813-0.9846 4.2952l-1.2886 1.9691 2.3289 0.03068c3.8462 0 6.7916-1.0598 8.8304-3.1684a10.013 10.013 0 0 0 2.3038-3.902 6.2533 6.2533 0 0 0 4.061 1.495c1.0877 0 1.997-0.2315 2.0974-0.25381l1.4866-0.39605-0.65545-1.389c-0.0502-0.11156-1.2886-2.9007 0.04462-6.8808 0.57456-1.7209 0.86742-3.2605 1.0097-4.4626 0.93717 0.49089 2.1895 0.89253 3.81 0.8981 3.6816 0 5.3022-2.7529 5.3747-2.8672l0.72518-1.2663-1.3443-0.55225c-4.3845-1.8241-5.3552-6.7218-5.5504-9.3717 0.39884 0.0753 0.85069 0.14504 1.3611 0.15898z"/>
 <path d="m142.02 63.706h8.3674v-19.468h11.491v-7.0844h-31.35v7.0844h11.491zm45.24-26.553-13.946 15.452v-15.452h-8.0885v26.553h7.1402l13.946-15.452v15.452h8.0885v-26.553zm21.356 16.679h12.997v9.8736h8.0885v-26.553h-8.0885v9.7062h-12.997v-9.7062h-8.0885v26.553h8.0885zm43.611 9.8736c1.8408 0 3.5143-0.16735 5.0762-0.61361 4.1837-1.1714 6.9171-4.5742 6.9171-9.2042 0-4.4068-2.3429-7.4749-6.0803-8.8695-1.7851-0.6694-3.9048-0.72518-5.913-0.72518h-8.3116v-7.1402h-8.0885v26.553zm-8.3116-13.165h6.9171c1.1157 0 2.1755 0 3.1238 0.3347 1.3388 0.44626 2.1198 1.5619 2.1198 2.9007 0 1.3946-0.78096 2.566-2.064 3.1238-0.89252 0.39048-1.785 0.39048-3.1796 0.39048h-6.9171zm32.577 3.1238h2.2313l9.6504 10.041h10.766l-13.444-13.834 12.942-12.718h-10.152l-9.762 9.9851h-2.2313v-9.9851h-8.0885v26.553h8.0885zm39.291-17.237c-10.878 0-17.404 6.1361-17.404 14.057s6.5266 14.057 17.404 14.057c10.822 0 17.348-6.1361 17.348-14.057s-6.5266-14.057-17.348-14.057zm0 21.644c-5.4109 0-8.8695-3.2354-8.8695-7.5865s3.4585-7.5307 8.8695-7.5307c5.3552 0 8.8695 3.1796 8.8695 7.5307s-3.5143 7.5865-8.8695 7.5865zm44.286-19.747v-2.6776h-8.0885v2.6776c-10.152 0.22313-16.233 4.5184-16.233 12.105s6.0803 11.547 16.233 11.77v2.6776h8.0885v-2.6776c10.208-0.22313 16.289-4.1837 16.289-11.77s-6.0803-11.882-16.289-12.105zm-8.0885 18.185c-5.5783-0.22313-8.0327-2.5102-8.0327-6.0803s2.4544-6.1361 8.0327-6.3592zm8.0885 0v-12.44c5.6341 0.22313 8.0327 2.7891 8.0327 6.3592s-2.3987 5.8572-8.0327 6.0803zm43.198-18.185v-2.6776h-8.0885v2.6776c-10.152 0.22313-16.233 4.5184-16.233 12.105s6.0803 11.547 16.233 11.77v2.6776h8.0885v-2.6776c10.208-0.22313 16.289-4.1837 16.289-11.77s-6.0803-11.882-16.289-12.105zm-8.0885 18.185c-5.5783-0.22313-8.0327-2.5102-8.0327-6.0803s2.4544-6.1361 8.0327-6.3592zm8.0885 0v-12.44c5.6341 0.22313 8.0327 2.7891 8.0327 6.3592s-2.3987 5.8572-8.0327 6.0803z" aria-label="ТИНЬКОФФ"/>
</svg>
