<!-- by TradingView --><svg width="56" height="56" xmlns="http://www.w3.org/2000/svg"><path fill="#0079C2" d="M0 0h56v56H0z"/><path d="M35.808 13.499c-.798-3.341-2.797-6.06-3.073-6.499-.436.623-2.03 3.025-2.842 5.681-.885 2.974-1.016 5.61-.71 8.196.303 2.595 1.45 5.262 1.45 5.262.608 1.39 1.52 2.892 2.115 3.628.87-1.083 2.871-4.312 3.495-8.522.347-2.35.362-4.405-.435-7.746zm-3.073 15.43c-.392-.705-1.001-2.044-1.059-4.128-.015-2.003.826-3.73 1.072-4.088.219.358.943 1.86 1.03 3.914a8.492 8.492 0 01-1.043 4.302zm2.842-9.759c-.03 1.278-.19 2.627-.392 3.434.072-1.39-.102-3.342-.435-4.874-.334-1.523-1.277-4.078-2.03-5.253-.695 1.124-1.552 3.331-2.001 5.242-.45 1.911-.464 4.23-.464 4.926-.12-.583-.418-2.678-.334-4.773.07-1.726.494-3.515.725-4.332.885-2.728 1.886-4.476 2.074-4.752.188.276 1.449 2.432 2.102 4.69a19.97 19.97 0 01.755 5.692z" fill="#fff"/><path d="M34.089 31h-6.067v3.437c.005 0 .01-.01.015-.01 1.429-1.37 3.747-1.37 5.178 0 1.429 1.359 1.429 3.576 0 4.945-.007.01-.013.01-.02.02-.007 0-.015.011-.021.021-1.426 1.35-3.29 2.024-5.152 2.024-1.872 0-3.744-.675-5.171-2.044-2.517-2.401-2.815-6.131-.896-8.85.258-.367.556-.715.896-1.042 1.427-1.369 3.277-2.043 5.149-2.043v-9.36c-7.192 0-13 5.569-13 12.446S20.83 43 28.022 43c3.75 0 7.602-1.523 9.978-3.944V31h-3.911z" fill="#fff"/></svg>