<!-- by TradingView --><svg width="56" height="56" viewBox="0 0 56 56" xmlns="http://www.w3.org/2000/svg"><path fill="#F0F3FA" d="M0 0h56v56H0z"/><path fill-rule="evenodd" d="M8 31.94a7.03 7.03 0 0 0 5.97 3.55c4.24.1 6.13.2 6.43.93.25.57-2.92 1.78-4.54 2.31 1.16.57 4.02 1.3 6.23-.3h2.1c-.37.32-.79.71-1.23 1.14-1.73 1.63-3.9 3.68-5.04 4.04 2 .6 5.99.76 9.17-4.1l2.2-.31c-.48.77-1.37 2.6-1.13 3.7l3.07-3.09c.08.43.13 1.7-.36 3.35-.61 2.06.56 3.91 2.6 4.84a9.25 9.25 0 0 1 .56-5.1 7.2 7.2 0 0 0 1.3-4.7c.23.07.76.4 1.05 1.3.27-.51.76-1.94.58-3.53.47.05 1.53.57 2 2.24a3.7 3.7 0 0 0 2.54 2.58c-.4-.67-.66-2.18-.69-4.37-.03-2.2-.64-3.9-.94-4.48.38-.02 1.3.06 1.88.56-.24-.61-.77-1.92-.94-2.27-.1-.2.07-.13.39 0 .43.15 1.15.43 1.93.36 1.38-.1 3.85.05 4.87 1.35.06-.87-1.36-3.52-7.52-7.24.1-.33.7-1 2.36-1a5.74 5.74 0 0 0-2.97-2c.4-.07 1.46-.32 2.54-.85.41-.2.67-.41.9-.6.5-.44.9-.76 2.65-.6L44.13 18c-1.12-.13-3.52-.3-6.48 0 .05-.28.42-.97 1.5-1.47-.57-.34-2.05-.7-3.53.55-.3-.17-.52-.79 1.02-1.9 1.54-1.12 1.92-2.44 1.92-2.97-.15.4-.94 1.19-2.94 1.25-2 .05-3.2 1.75-3.56 2.6-.6-.63-1.28-2.34.87-4.22a6.09 6.09 0 0 0-6.28 3.34c-.47-.37-1.18-1.63-.25-3.74.93-2.1.56-3.17.25-3.44.03.3-.54 1.47-3 3.84-2.48 2.38-2.4 4.73-2.04 5.6l-1.2 1.29c.29-1.88.25-5.89-2.25-6.89.4.93.85 3.35-.55 5.6-1.39 2.26-.87 3.58-.43 3.96-.88-.57-2.58-2.24-2.29-4.32-1.18 1.46-2.64 5.64.98 10.7-.78-.13-2.9-.32-5.1 0 .02 0 .07.07.14.18.26.42.94 1.49 3.06 2 2.15.5 2.35 1.2 2.19 1.49-.7 0-2.45.23-3.76 1.05-1.31.81-3.48-.04-4.4-.56Zm20.5 5.75c5.8 0 10.5-4.74 10.5-10.6 0-5.84-4.7-10.58-10.5-10.58S18 21.25 18 27.1s4.7 10.59 10.5 10.59Z" fill="#01589F" fill-opacity=".7"/><path d="M31.77 36.67a10.04 10.04 0 0 0 6.73-10.16l-6.57-1.88-2.15 1.13 1.99 10.91Zm-1.02.3L28.84 25.4v11.81c.66-.02 1.3-.1 1.91-.25Zm-2.88.23V25.4l-1.93 11.5c.63.16 1.27.26 1.93.3Zm-2.8-.58a10.04 10.04 0 0 1-6.59-10.26l6.2-1.73 2.2 1.13-1.82 10.86ZM18.53 25.8l5.39-1.56-.32-.2-5.02 1.47-.05.29Zm.19-.99 4.16-1.17-.3-.24-3.78 1.1-.08.31Zm.27-.93 2.73-.8-1.84-1.1a10 10 0 0 0-.89 1.9ZM20.58 21h7.1l.63-1.1.64 1.1h7.45a10.02 10.02 0 0 0-15.82 0Zm16.42.86-2.2 1.22 3.18.84a10 10 0 0 0-.98-2.06Zm1.17 2.66-4.22-1.1-.3.23 4.61 1.23a9.96 9.96 0 0 0-.09-.36Zm.22 1.02-5.41-1.5-.29.2 5.75 1.6-.05-.3ZM27.5 22l-.43 2.76L21.58 22h5.91Zm2.15 2.76L29.2 22h6l-5.57 2.76Z" fill="#01589F"/></svg>