<?xml version="1.0" encoding="utf-8"?>
<!-- Generator: Adobe Illustrator 28.0.0, SVG Export Plug-In . SVG Version: 6.00 Build 0)  -->
<svg version="1.1" id="Слой_1" xmlns="http://www.w3.org/2000/svg" xmlns:xlink="http://www.w3.org/1999/xlink" x="0px" y="0px"
	 viewBox="0 0 1000 211.6" style="enable-background:new 0 0 1000 211.6;" xml:space="preserve">
<style type="text/css">
	.st0{fill-rule:evenodd;clip-rule:evenodd;fill:#476BF0;}
	.st1{fill:#476BF0;}
</style>
<path class="st0" d="M105.9,0C47.5,0,0,47.5,0,105.9c0,58.3,47.5,105.8,105.9,105.8c58.3,0,105.8-47.5,105.8-105.8
	C211.6,47.5,164.2,0,105.9,0z M105.9,206.3c-55.5,0-100.6-45.1-100.6-100.5C5.3,50.4,50.4,5.3,105.9,5.3
	c55.4,0,100.5,45.1,100.5,100.6C206.3,161.3,161.3,206.3,105.9,206.3z"/>
<path class="st0" d="M62.4,42.5c25.6-11.4,56.8-10.6,73.5-3.2c5.3,2.4,8.8,3.9,10.4,6.8c-17.4-4.7-24.8-5.5-39.4-5.1
	c-20.7,0.4-48.2,8.6-58.7,14.8l-4.6,5.8c15.2-9,43.4-14.8,59.1-15.3c17.5-0.2,31.1,1.4,43.6,5.9c-0.7,3.2-2.3,4.8-5,6.4
	c-49.9-8.7-79.4,1.6-106.1,19l-2,5.7c29.7-20.4,66.2-26,101.3-19.9c-12.6,4.4-27.6,5.4-40.2,8.3c-10.8,2.5-16.5,3.2-30.8,8
	c-14.5,4.8-23.1,9.7-28.5,15.9c-2.6,3-4.5,6.4-5,10c-0.2,2.2-0.1,4.2,0.6,6.1c0.6,1.7,1.9,3.4,3.4,5.1c-1.7,2.9-3.2,6.7-0.7,11.1
	c1.1,2.1,3.9,4.1,6.6,6.1l-0.8,2.2c-0.4,2.6-0.7,5.6,1,8.2c2.9,4.7,6.5,7.7,12.1,10.7c0.9,3.8,2.2,6.9,5.1,9.6
	c6.2,5.7,20.2,16.8,45,18.5c18.6,1.2,31.9-4.4,37-6.9l6.1-3.2c-10.4,4.1-27.9,6.6-42.2,5.4c-20.8-1.7-39.4-15.3-41.7-19.2
	c0.7,0.5,1.7,0.9,2.6,1.2c24.4,11.7,55.8,18.1,96,1.7l3.3-3.2c-36.6,11.4-68.6,11-103-7c0.4-1.7,1.1-3.2,2.7-4.4
	c8.8,3.9,17.3,7.1,27.5,9.2c12,2.2,25.7,2.7,37,2.2c11.4-0.5,33.9-6.1,44.5-11.7c1-0.9,1.5-2.3,2.4-3.3c-20.8,7.6-45.5,11.1-60.4,10
	c-14.6-1.1-27.5-2.8-44.7-10.6c3.3-1.3,6.7-2.4,10.1-3.4c11.3,3.4,22.8,5.5,36.3,6.1c13.5,0.6,44.9-4.4,64.7-16.4
	c0.6-1.7,1.2-3.6,1.2-3.6s-27.5,14.7-58.7,14.7c-14.6,0-23.5-2.1-30.1-3.7c14.7-2.7,33.1-4.9,53.9-10.2c10.5-2.7,23.5-8.8,29.4-14
	c5-4.5,8.9-10.4,7.6-16.4c-0.3-1.6-2.5-5.4-5.2-6.7c2.6-3.3,2.3-6.1,2-8.6c-0.3-1.9-1.1-3.9-2.2-5.8c-1.8-2.4-4-4.4-6.6-5.9
	c0.5-2.6,0.2-5.2-1-7.6c-2.6-4.4-7.2-8.2-15.2-12.2c-0.4-1.6-1.4-3.7-3.1-5.8c-10-9.9-26.4-14.7-40.3-14.9c-0.8,0-1.5,0-2.3,0
	c-16.2,0-29.2,3.6-37.2,7.4C68.8,38.4,65.6,40.3,62.4,42.5L62.4,42.5z M154.8,55.9c3.4,2.2,7.4,5.5,7.8,8.9
	c-3.7-1.4-7.6-2.8-11.4-3.8C152.4,59.7,154.3,57.6,154.8,55.9z M136.4,71.2c4.2-1.6,7-3.3,9.4-5.3c5.5,1.5,10.6,3.3,14.8,5.1
	c-0.7,1.1-4.9,4.9-6.2,4.9c-0.1,0-0.1,0-0.2,0C148.4,74.3,143.3,72.4,136.4,71.2z M169.3,76.1c3.3,2.8,4.3,4.8,2.7,7.8
	c-2.2-1.6-4.5-2.4-7.1-3.7C166.5,79,168,77.7,169.3,76.1z M67.7,87.3c15.3-4.5,33.2-8,49.3-9.9c11.1-1.4,17-0.1,27.5,2.7
	c-27,7.2-53.7,9.5-79.2,17c-20.5,6-26,13.5-26,13.5C30.2,98.1,61.7,89.2,67.7,87.3z M82.1,102.4c22.6-4.9,43.7-7.9,52.3-10.1
	c10.5-2.6,17.9-5,23-7.5c0.2-0.4,8.6,3.7,9.4,4.6c-2.8,2.3-6.7,4.3-11,5.8c-12.8,4.7-36.2,9.5-48.6,11.4
	c-12.5,2.1-22.9,3.7-36.7,7.3c-8,2.1-13.4,4.6-17.3,7.1c-2.9-1.7-4.6-2.2-7.3-4.4C55.5,108.5,75,104,82.1,102.4L82.1,102.4z
	 M76.4,122.2c21.5-5.3,40.5-6.2,66.7-13.3c12.6-3.3,21.8-6.9,27.5-11.3c0.8-0.8,1.7-1.4,2.6-2.1c7.6,11.7-20.9,20.8-40.4,25
	c-10.8,2.2-25.7,4.9-30.6,5.7c-12.7,2.1-16.9,3.2-25.7,5.8c-4.4-1.7-8.8-3.6-12.8-5.6C67.8,124.7,72.2,123.3,76.4,122.2L76.4,122.2z
	 M46.6,126.1c-0.9,0.7-2,1.5-2.8,2.3c-1.9-1.1-3.9-3.5-2.9-5.8C42.8,123.9,44.3,124.9,46.6,126.1z M55.5,130.7
	c3.7,1.7,7.5,3.3,11,4.9c-2.4,0.9-4.7,2-6.8,3.3c-2.9-1.6-5.8-3.2-8.7-4.9C52.2,132.9,53.8,131.8,55.5,130.7z M54.1,143.5
	c-0.9,1.2-1.5,2.2-1.8,3.4c-3.1-2.6-4.5-4.7-4.4-7C49.9,141.3,52,142.4,54.1,143.5z"/>
<path class="st1" d="M370.3,88.3l3.8,26.7h-7.7L370.3,88.3L370.3,88.3z M340.1,149.4h20.6l2.5-15.1h14.2l2.5,15.1h20.6L383.1,62
	h-25.6L340.1,149.4L340.1,149.4z M488.7,81.2h4.9c4.6,0,7.5,2.7,7.5,10c0,9.5-4.9,10.2-7.5,10.2h-4.9V81.2z M468.3,149.4h20.3v-28.8
	h6.9c20.1,0,26.3-18,26.3-29.5c0-11.3-7.1-29.1-26.3-29.1h-27.1L468.3,149.4L468.3,149.4z M623.2,129.3c-7.1,0-10.9-8.3-10.9-23.8
	c0-15.5,3.7-23.8,10.9-23.8c7.2,0,10.9,8.3,10.9,23.8C634.1,121,630.4,129.3,623.2,129.3z M623.2,150.5c24.1,0,32.2-22.4,32.2-44.9
	c0-22.5-8.1-44.9-32.2-44.9c-24.1,0-32.2,22.4-32.2,44.9C591,128,599.1,150.5,623.2,150.5z M665.4,149.4h20.3V96l12.3,15.4L710.3,96
	v53.3h20.1V62h-17.2l-15.3,20.6L682.6,62h-17.2C665.4,62,665.4,149.4,665.4,149.4z M336.8,99.4h-29.5v16.1h10.8
	c-0.8,9.5-3.9,14.3-9.4,14.3c-7.1,0-12.2-8.3-12.2-23.8c0-1,0-2,0.1-2.9c0.6-13.5,4.9-21.9,14.4-21.9c6.7,0,10.5,1.5,16.1,4.4l6-18
	c-5.1-3.8-13.9-6.4-19.9-6.4c-23.2,0-37.1,16.6-38,42c0,1-0.1,1.9,0,2.9c0,22.4,8.9,44.9,33,44.9c24.1,0,28.9-22.4,28.9-44.9
	C336.9,105,336.9,100.3,336.8,99.4z M407.2,62.1v20.2h23.3l-24,67.3h52.1v-20.4h-23.3l22.1-67.1C457.4,62.1,407.2,62.1,407.2,62.1z
	 M549.8,81.2h4.8c4.6,0,7.5,2.7,7.5,10c0,9.5-4.9,10.2-7.5,10.2h-4.9C549.8,101.3,549.8,81.2,549.8,81.2z M588.7,149.4l-17.5-35.9
	c7.1-5.3,11.7-15.9,11.7-23.3c0-11.3-7.1-28.4-26.3-28.3h-27.1v87.4h20.3v-29.9l4.4-0.1l11.2,30L588.7,149.4L588.7,149.4z
	 M769.6,129.3h-5.8v-15.1h5.2c5.9-0.2,8.8,2.9,8.8,7.7C777.8,125.3,775.5,129.3,769.6,129.3z M775.7,88.6c0,6.2-6,7.5-9.3,7.5h-2.6
	V81.5h2.2C767.9,81.5,775.7,81.3,775.7,88.6z M786,103.6c0,0,10-5.8,10-19.5c0-11-7.7-22-24.4-22h-28.1v87.4h28.8
	c14.7,0,26.7-7.5,26.8-25.2C799.1,111.4,791.4,106.6,786,103.6z M872.1,149.4H892v-42.8l0.6,3.4l18.8,39.3h17V62h-19.9v41.9
	l-0.5-3.2L888.9,62h-16.8V149.4L872.1,149.4z M940.6,149.4h19.9v-35.1h4.8l11.4,35.1h23.4l-17.7-45.9L997.9,62h-21.6l-11.4,31.5
	h-4.3V62h-19.9L940.6,149.4L940.6,149.4z M834,88.5l3.8,26.7h-7.7L834,88.5L834,88.5z M803.8,149.5h20.6l2.5-15.1h14.2l2.5,15.1
	h20.7l-17.4-87.4h-25.6L803.8,149.5z"/>
</svg>
