<?xml version="1.0" encoding="UTF-8" standalone="no"?>
<!-- Created with Inkscape (http://www.inkscape.org/) -->
<svg
   xmlns:svg="http://www.w3.org/2000/svg"
   xmlns="http://www.w3.org/2000/svg"
   version="1.0"
   width="685"
   height="365"
   id="svg2"
   xml:space="preserve"><defs
     id="defs5" /><g
     transform="matrix(0,1.25,1.25,0,-84.267685,-338.475)"
     id="g11"><path
       d="M 271.19,341.63194 L 271.19,355.80703 L 271.78063,369.39149 C 297.32532,696.63922 536.23468,696.62938 561.77937,369.39149 L 562.37,355.80703 L 562.37,327.45685 C 561.28718,245.18225 528.74353,100.61601 438.92858,71.123948 L 431.84103,69.352062 L 424.16286,68.170804 C 326.93552,62.353111 279.90177,210.79781 274.14314,286.70346 L 271.78063,313.87238 L 271.19,327.45685 L 271.19,341.63194 z M 283.5932,341.63194 L 283.5932,354.62577 L 284.18383,367.61961 C 307.11008,675.55378 526.91258,675.55378 549.37617,367.61961 L 549.9668,354.62577 L 549.9668,328.6381 C 549.68132,252.91949 519.83488,115.04704 437.15669,87.070926 L 430.65978,85.29904 L 423.57223,84.708411 C 333.78681,78.20165 291.94076,220.8385 285.95572,289.6566 L 284.77446,302.65044 L 284.18383,315.64427 L 283.5932,328.6381 L 283.5932,341.63194 z M 300.13081,341.63194 L 300.72144,354.03514 L 300.72144,366.43835 C 321.92501,653.35598 512.03858,653.44457 532.83856,366.43835 L 533.42919,354.03514 L 533.42919,329.22873 C 532.92715,262.93065 507.75652,129.55682 434.79418,104.19916 L 428.88789,102.42727 L 422.9816,101.83664 C 341.9178,95.861451 307.53336,233.13343 302.49333,293.20038 L 301.9027,305.01295 L 300.72144,316.82553 L 300.72144,329.22873 L 300.13081,341.63194 z M 294.81515,341.63194 L 294.81515,354.03514 L 295.40578,366.43835 C 316.17623,659.68555 517.66924,659.69539 538.15422,366.43835 L 538.74485,354.03514 L 538.74485,329.22873 C 538.85313,260.48938 511.32983,124.47741 435.38481,99.474131 L 429.47852,97.702244 L 422.9816,96.520987 C 338.29528,92.96737 302.73942,227.64058 297.17767,292.01912 L 295.99641,304.42232 L 295.40578,316.82553 L 294.81515,329.22873 L 294.81515,341.63194 z M 466.09751,144.95255 L 368.05312,144.95255 L 368.05312,173.89336 L 425.93475,210.51234 L 368.05312,210.51234 L 368.05312,237.09064 L 466.09751,237.09064 L 466.09751,208.74046 L 407.03462,171.53084 L 466.09751,171.53084 L 466.09751,144.95255 z M 466.09751,255.40013 L 368.05312,255.40013 L 368.05312,283.15969 L 442.47235,283.15969 L 442.47235,312.69113 L 466.09751,312.69113 L 466.09751,255.40013 z M 466.09751,316.82553 L 368.05312,331.59125 L 368.05312,359.3508 L 427.70663,376.47904 L 368.05312,394.1979 L 368.05312,421.95746 L 466.09751,436.72318 L 466.09751,409.55425 L 409.39714,402.4667 L 466.09751,385.33847 L 466.09751,367.61961 L 409.39714,351.082 L 466.09751,343.40382 L 466.09751,316.82553 z M 466.09751,447.35449 L 368.05312,447.35449 L 368.05312,475.11405 L 409.39714,475.11405 L 368.05312,505.23612 L 368.05312,537.7207 L 415.30343,499.92046 L 466.09751,538.90196 L 466.09751,504.05486 L 424.16286,475.11405 L 466.09751,475.11405"
       id="path1181"
       style="fill:#004696;fill-opacity:1;fill-rule:evenodd;stroke:none" /></g></svg>