<!-- by TradingView --><svg width="56" height="56" viewBox="0 0 56 56" xmlns="http://www.w3.org/2000/svg"><path fill="#B0283C" d="M0 0h56v56H0z"/><path d="M26 20.8a9.9 9.9 0 0 0-4.3-2.61c-.14-.04-.14-.07 0-.09 3.1-.36 5.88.26 8.33 1.86.23.15.47.24.74.27l2.51.29a16.6 16.6 0 0 1 7.07 2.36c2.46 1.57 3.67 3.61 3.63 6.12l-.02.8c0 .07.02.14.07.2.7.73 1.34 1.51 1.92 2.33.08.12.06.15-.07.1a1.36 1.36 0 0 1-.24-.16l-.21-.14a37.13 37.13 0 0 0-19.31-3.43c-6.13.57-14.85 4.83-16.99 11.07-.1.32-.15.3-.12-.03.62-8.86 8.26-17.3 16.95-18.83.09-.01.1-.05.04-.11Z" fill="#fff"/></svg>