<!-- by TradingView --><svg width="56" height="56" viewBox="0 0 56 56" xmlns="http://www.w3.org/2000/svg"><path fill="#FEC60F" d="M0 0h56v56H0z"/><path d="M42.95 32h-1.52c-.06 0-.13-.1-.16-.16l-.4-.99c-.05-.12-.11-.18-.26-.18h-3c-.15 0-.22.05-.27.2l-.42 1c-.03.05-.1.13-.15.13h-1.53l2.93-6.82c.06-.14.13-.19.28-.18h1.34c.11 0 .19.02.24.14L42.95 32Zm-3.85-5.52-1.18 2.93h2.37l-1.2-2.93h.01ZM14.5 32H13v-7h1.44L18 29.52V25h1.5v7h-1.39l-3.61-4.52V32ZM10 25h1.5v7H10v-7ZM44 25c1.23 0 2.5-.04 3.6.14a2.89 2.89 0 0 1 2.3 2.4c.17.88.13 1.73-.2 2.57a2.7 2.7 0 0 1-1.75 1.64c-.44.14-.91.21-1.37.23-.37.02-1.74.02-2.58.02v-7Zm1.5 5.47c0 .11.05.21.2.2.44 0 .73.02 1.17-.02.64-.07 1.16-.37 1.43-1.01.25-.59.26-1.2.14-1.81-.17-.86-.73-1.4-1.57-1.46-.42-.04-.7-.02-1.12-.04-.16-.01-.25.05-.25.22v3.92ZM34.54 32h-1.75c-.05 0-.12-.06-.16-.1l-1.79-2.2a.5.5 0 0 0-.31-.14c-.25-.03-1.03-.02-1.03-.02V32H28v-7h3.4c.55 0 1.06.16 1.54.42.64.36.94.91 1 1.6.02.3-.01.61-.08.9-.15.66-.6 1.08-1.24 1.34l-.27.11L34.54 32Zm-5.04-3.7h1.54c.12 0 .25 0 .38-.03.63-.12.94-.47.92-1.02-.03-.52-.38-.86-1-.9-.54-.05-1.08-.03-1.62-.04-.12 0-.22.05-.22.15v1.83ZM27 31.56c0 .06-.09.15-.15.18-.87.43-2.37.56-3.59.25-1.43-.36-2.37-1.2-2.65-2.58a3.56 3.56 0 0 1 .82-3.34c.54-.59 1.25-.9 2.05-1.08a5.76 5.76 0 0 1 3.14.27c.16.05.22.13.21.3v1.18l-.2-.08c-1.74-.83-4.63-.6-4.63 1.95 0 1.41 1.06 2.12 2.37 2.22.3.02.52.02.7-.01.26-.05.42-.05.43-.43v-1.03H24V28h3v3.56Z" fill="#2C2E35"/><path d="M7.5 34.5V22.3L18 16.61V23h1.5v-9L6 21.37V36h13.5v-1.5h-12Z" fill="#fff"/></svg>