<!-- by TradingView --><svg width="56" height="56" viewBox="0 0 56 56" xmlns="http://www.w3.org/2000/svg"><path fill="#F0F3FA" d="M0 0h56v56H0z"/><path d="m23.31 36-.68 4.77A13.07 13.07 0 0 1 15.85 33h6.57l-.52 3h1.41ZM32.31 33l-.55 2.93.57 5.37c3.8-1.33 6.8-4.41 8.06-8.3H32.3Z" fill="#FF0104"/><path d="M40.48 32.71h-8.11L33.44 27h-1.09l.21-1h-1.6l-.13-1.39h9.48a13.23 13.23 0 0 1 .17 8.1ZM22.47 32.71h-6.7a13.25 13.25 0 0 1 .16-8.1h9.12L24.79 26h-1.63l-.13.67a87.49 87.49 0 0 0-.68 3.55c-.12.87.16 1.27.32 1.35l-.2 1.14Z" fill="#0003EA"/><path fill-rule="evenodd" d="M25.78 17.17h.55l.16-.92a12.64 12.64 0 0 0-9.95 7.61h8.2l1.04-6.69Zm-.79 7h-8.9l.13-.3a12.94 12.94 0 0 1 10.63-7.96l-.27 1.56h-.55L25 24.17Zm5.45-7 .7 6.7h8.56a12.64 12.64 0 0 0-9.95-7.62l.13.92h.56Zm-.82.3h.55l.7 6.7h9.27l-.12-.3A12.94 12.94 0 0 0 29.4 15.9l.22 1.56Z"/><path d="M27.35 15.91h1.49l.29 2.09h.55v.28h-.18l.57 6.62.16.03v.61h-.12v.3h-.3v-.3h-3.97v.3h-.3v-.3h-.11v-.61l.19-.04.03-.14.99-6.47h-.1V18h.48l.33-2.09Zm-1.41 8.93 1.96-.32 1.87.32-.57-6.56h-2.26l-1 6.53v.03ZM27.32 18h.11l.14-.6h.97l.12.6h.17l-.25-1.79h-.97L27.32 18Z"/><path fill-rule="evenodd" d="M25.92 35h-3l.67-3.6c-.19-.12-.54-.59-.4-1.49l.58-3.68h2.92l-.18.93h.86l-.52 2.75h1.34l.64-3.56h3.07l-.11.94h.74L31.19 35h-3.11v-.6h-.6l.36-2.15H26.5l-.6 2.75Zm-1.88-8.48h2.26l-.44 2.78c-.07.3-.03.91.74.92h1.85l.66-3.58h2.5L30.37 34H27.8l.43-2.65h-3.7c-.42 0-1.22-.32-1.04-1.57l.54-3.26Z"/><path d="m24.03 35.41.3.05-.68 4.9h7.55l-.38-4.91.3-.03.4 5.27h-8.21l.72-5.28Z"/><circle cx="28.25" cy="13.03" r=".43"/><path d="m23.5 13.07.83-.26c.25-.08.47-.1.67-.08a.95.95 0 0 1 .82.7c.05.16.06.3.05.45a.96.96 0 0 1-.13.4c-.07.12-.18.23-.3.33-.14.1-.3.17-.48.23l-1.21.39-1.03-3.3.57-.19.88 2.86.65-.2c.14-.05.25-.12.32-.2a.54.54 0 0 0 .14-.28.66.66 0 0 0-.18-.56.5.5 0 0 0-.26-.14.76.76 0 0 0-.37.04l-.82.26-.14-.45ZM21.19 12.42l1.47 3.13-.53.25-1.47-3.12.53-.26Zm.96-.47.2.43-2.45 1.2-.2-.44 2.45-1.19ZM17.64 14.77l.6-.45c.19-.14.37-.23.57-.3.19-.05.38-.07.57-.06.18.02.36.07.53.16.16.1.3.23.43.4a1.36 1.36 0 0 1 .23 1.1c-.04.18-.12.36-.23.52a1.9 1.9 0 0 1-.45.46l-.6.45c-.18.13-.37.23-.56.3-.2.05-.39.08-.58.06a1.28 1.28 0 0 1-.95-.55 1.34 1.34 0 0 1-.24-1.1c.04-.19.12-.36.23-.53.12-.17.27-.33.45-.46Zm.27.38c-.15.12-.27.25-.34.4a.8.8 0 0 0-.07.46c.02.16.09.32.2.48.09.11.18.2.28.27a.77.77 0 0 0 .67.1c.12-.04.24-.1.36-.2l.61-.45c.16-.11.27-.24.34-.39a.8.8 0 0 0 .07-.45 1.01 1.01 0 0 0-.2-.47 1.09 1.09 0 0 0-.28-.28.76.76 0 0 0-.67-.1c-.12.03-.24.1-.35.18l-.62.45Zm.01-1.18 2.2 3.03-.52.38-2.19-3.03.51-.38ZM10.04 28.56l.46-.02.06 1.61 2.95-.1.02.59-3.41.12-.08-2.2ZM11.92 31.25l.18-.03c.26-.04.5-.05.7-.01.22.04.4.1.57.22.17.1.3.25.41.42.11.18.18.38.22.6.04.23.04.44 0 .64a1.42 1.42 0 0 1-.7.95c-.2.11-.42.2-.67.24l-.19.03c-.25.04-.49.05-.7 0a1.36 1.36 0 0 1-.98-.65c-.1-.16-.18-.36-.22-.59a1.68 1.68 0 0 1 0-.64 1.48 1.48 0 0 1 .7-.94 2 2 0 0 1 .68-.24Zm.3.6-.2.04c-.19.03-.35.08-.49.15a1 1 0 0 0-.33.24c-.08.09-.14.2-.17.32a.91.91 0 0 0-.01.39c.02.14.07.26.14.36.06.1.15.18.27.24.1.06.24.1.39.1.15.02.32.02.5-.02l.2-.03c.19-.03.35-.08.49-.15.13-.07.25-.15.33-.24a.8.8 0 0 0 .19-.71.92.92 0 0 0-.14-.37.75.75 0 0 0-.27-.23c-.11-.06-.25-.1-.4-.11a1.9 1.9 0 0 0-.5.03ZM11.72 25.35h.19c.25.01.48.05.69.13.2.08.38.19.52.33.14.13.25.3.32.49.07.2.1.4.1.63 0 .23-.04.44-.12.63a1.41 1.41 0 0 1-.87.8 2 2 0 0 1-.7.1h-.19c-.26-.01-.49-.05-.69-.13a1.5 1.5 0 0 1-.52-.33c-.14-.14-.25-.3-.32-.5-.07-.19-.1-.4-.1-.63 0-.23.04-.44.12-.63.08-.18.2-.35.34-.48.15-.13.33-.24.53-.3.2-.08.44-.11.7-.1Zm.17.65h-.19c-.19 0-.36.01-.5.05a1 1 0 0 0-.38.17.73.73 0 0 0-.23.28.91.91 0 0 0-.08.38c0 .14.02.27.07.38.05.12.12.21.22.3.1.07.22.13.37.18.14.04.3.06.5.07h.2c.18 0 .35-.01.5-.05.15-.04.27-.1.38-.17a.8.8 0 0 0 .31-.67.92.92 0 0 0-.07-.38.75.75 0 0 0-.22-.29c-.1-.08-.22-.14-.37-.18a1.9 1.9 0 0 0-.5-.07ZM44.36 25.36l-.17.09c-.23.12-.45.19-.67.21a1.33 1.33 0 0 1-1.12-.33c-.15-.13-.28-.3-.38-.51a1.7 1.7 0 0 1-.17-.62 1.43 1.43 0 0 1 .4-1.11c.16-.16.35-.3.58-.42l.17-.08a2 2 0 0 1 .67-.21 1.35 1.35 0 0 1 1.12.34 1.67 1.67 0 0 1 .55 1.13c.02.2-.01.4-.08.58a1.5 1.5 0 0 1-.33.52c-.15.16-.34.3-.57.41Zm-.45-.49.17-.08c.17-.1.31-.18.43-.29.11-.1.2-.2.25-.32a.74.74 0 0 0 .07-.36.9.9 0 0 0-.1-.38.88.88 0 0 0-.23-.3.74.74 0 0 0-.33-.16 1.04 1.04 0 0 0-.4.01c-.15.03-.31.09-.49.18l-.17.08c-.17.09-.31.18-.42.29-.12.1-.2.21-.26.33a.8.8 0 0 0 .02.73c.07.13.14.23.24.3.1.09.2.14.33.16.12.02.26.02.4-.01.16-.03.32-.1.49-.18ZM44.05 32.5l-.18-.01a2.05 2.05 0 0 1-.69-.17c-.2-.1-.36-.21-.5-.36a1.36 1.36 0 0 1-.28-.51 1.7 1.7 0 0 1-.06-.64c.02-.23.07-.44.16-.62a1.4 1.4 0 0 1 .92-.74 2 2 0 0 1 .7-.05l.19.01c.26.03.48.08.68.17.2.1.36.22.5.37.13.15.23.32.29.51.06.2.08.41.06.64-.02.23-.08.44-.17.62-.09.18-.21.34-.37.46-.15.12-.34.21-.55.27-.2.06-.44.08-.7.05Zm-.13-.65.2.01c.18.02.35.01.5-.02a1 1 0 0 0 .38-.14c.1-.07.2-.16.25-.27a.9.9 0 0 0 .1-.37.9.9 0 0 0-.04-.39.75.75 0 0 0-.2-.3c-.09-.09-.2-.15-.35-.2-.14-.06-.3-.1-.5-.11l-.2-.02a1.9 1.9 0 0 0-.5.02c-.15.03-.28.08-.39.15a.8.8 0 0 0-.36.64c0 .14 0 .27.05.39.04.11.1.21.2.3.1.08.22.15.36.2.14.05.31.09.5.1ZM13 35.2l.41-.2.79 1.66-.43.2L13 35.2Zm-.58 2.15 3.09-1.5.25.55-3.08 1.5-.26-.55Zm-.91-1.94 3.08-1.5.26.54-3.09 1.5-.25-.54ZM14.2 19.89l.41.23-.9 1.6-.4-.23.9-1.6Zm-2.06.75 2.98 1.72-.3.52-2.97-1.72.3-.52Zm1.05-1.87 2.97 1.71-.29.52-2.97-1.71.29-.52ZM15.68 38.16l.53.72-.37.28-.54-.72a.81.81 0 0 0-.28-.26.46.46 0 0 0-.3-.04c-.1.02-.19.06-.28.13a.7.7 0 0 0-.2.24c-.05.1-.07.2-.06.3.01.12.06.24.16.37l.42.57 2.36-1.8.36.49-2.74 2.08-.78-1.06a1.5 1.5 0 0 1-.29-.63 1.02 1.02 0 0 1 .41-1.04c.18-.13.36-.2.55-.23.18-.01.36.03.54.13.18.1.35.25.5.47ZM13.05 23.6l-.25.86-.45-.14.26-.86a.83.83 0 0 0 .03-.39.48.48 0 0 0-.13-.26.66.66 0 0 0-.28-.16.68.68 0 0 0-.3-.02c-.11.01-.2.06-.29.14a.73.73 0 0 0-.19.33l-.2.7 2.82.86-.17.57-3.27-1 .37-1.26c.08-.26.19-.46.33-.62a.99.99 0 0 1 1.07-.27c.21.06.38.16.5.3.13.15.2.32.23.52s0 .44-.08.7ZM17.7 39.14l.33-.33 1.27 1.32-.33.33-1.27-1.32Zm-.95 3.3L19.19 40l.4.43-2.43 2.43-.41-.43Zm.03-2.04.32-.33 1.11 1.14-.33.33-1.1-1.14Zm-1.18.85.33-.33 1.27 1.3-.34.34-1.26-1.31ZM17.72 18.1l.35.31-1.27 1.43-.35-.32 1.27-1.42Zm-3.35-.7 2.55 2.31-.41.46-2.55-2.32.41-.46Zm2.05-.15.34.31-1.1 1.24-.34-.3 1.1-1.25Zm-.9-1.15.35.32-1.26 1.42-.35-.32 1.26-1.42ZM38.12 17.94l-.28.37-1.5-1.17.28-.38 1.5 1.18Zm.45-3.44-2.1 2.75-.48-.38 2.09-2.75.49.38Zm.29 2.06-.28.37-1.3-1.02.27-.37 1.3 1.02Zm1.06-1-.3.38-1.48-1.17.29-.37 1.49 1.16ZM37.96 39.72l-.35-.3 1.24-1.46.35.31-1.24 1.45Zm3.36.64-2.58-2.26.4-.47 2.58 2.26-.4.47Zm-2.04.19-.35-.3 1.08-1.27.35.3-1.08 1.27Zm.93 1.12-.36-.3 1.23-1.45.36.31-1.23 1.44ZM20.33 44.96l-.48-.34.6-.88c.1-.14.15-.26.17-.36a.41.41 0 0 0-.07-.29 1.08 1.08 0 0 0-.28-.26 2.92 2.92 0 0 0-.82-.42l.27-.39a3.03 3.03 0 0 1 .82.42c.21.15.37.3.49.48a.9.9 0 0 1 .15.55c-.01.19-.09.4-.24.61l-.6.88Zm-1.66-1.18-.48-.34 1.96-2.84.48.34-1.96 2.84ZM36.08 44.48l-1.62-3.06.4-.21 1.62 3.05-.4.22Zm-.96.52-.18-.33 2.32-1.27.18.33L35.12 45ZM39.15 42.44l-2.32-2.55.33-.31 2.32 2.55-.33.31Zm-2.1-.16L36.8 42l1.13-1.05.25.28-1.13 1.05Zm.87 1.3-.25-.27 1.3-1.21.25.27-1.3 1.21ZM44.21 28.81h-1.25a1.16 1.16 0 0 1-.2-.23c-.08-.1-.15-.24-.2-.42a2.3 2.3 0 0 1 .03-1.31c.07-.2.18-.36.32-.5.14-.13.31-.24.52-.32.2-.07.43-.1.68-.1h.27c.25 0 .48.04.68.1.2.07.37.17.5.3.15.13.25.29.32.47.08.2.11.4.1.65 0 .28-.04.52-.13.71-.1.2-.22.34-.38.45-.16.11-.34.18-.54.2v-.49a.9.9 0 0 0 .34-.13c.1-.06.19-.16.25-.28.06-.12.1-.27.1-.47 0-.17-.03-.32-.09-.45a.81.81 0 0 0-.24-.31c-.11-.08-.24-.15-.4-.19a2.1 2.1 0 0 0-.51-.06h-.27c-.2 0-.38.02-.53.07-.16.05-.29.12-.4.21-.1.1-.2.2-.25.34a1.1 1.1 0 0 0-.09.43c0 .18.01.32.04.43.03.11.06.2.1.26l.1.14h.77v-.86h.37v1.36ZM44.27 21.26 41.32 23l-.24-.41 1.39-2.9-2.28 1.35-.23-.4 2.95-1.76.23.41-1.38 2.9 2.28-1.35.23.4ZM42.42 39.21l-2.86-1.88.25-.4 3.17-.05-2.2-1.45.25-.4 2.86 1.89-.25.4-3.18.04 2.21 1.46-.25.4ZM40.73 16.11l.8.91c.19.2.31.4.38.6a.93.93 0 0 1-.29 1.06.9.9 0 0 1-.83.21c-.15-.03-.3-.1-.45-.2l-.12-.07-.76-.86.27-.25.57.65c.12.13.24.22.36.27.11.04.23.06.34.04a.7.7 0 0 0 .5-.45.55.55 0 0 0 0-.35 1.08 1.08 0 0 0-.24-.4l-.48-.54-2.28 2.06-.32-.37 2.55-2.31Zm-1.13 3.92.57-1.72.33.38-.54 1.7-.02.03-.34-.4ZM45.36 33.6l-.44 1.13c-.1.26-.22.46-.37.6a.9.9 0 0 1-.48.28.99.99 0 0 1-.58-.07.91.91 0 0 1-.56-.65 1.35 1.35 0 0 1-.02-.5v-.14l.43-1.07.34.13-.31.8a1 1 0 0 0-.09.45c.02.13.06.24.12.33.07.1.16.16.27.2.12.05.24.07.35.06a.54.54 0 0 0 .31-.16c.1-.1.18-.22.24-.4l.27-.68-2.83-1.14.18-.46 3.17 1.29Zm-3.96.71 1.77-.25-.19.48-1.74.27-.03-.01.19-.49ZM36.18 14.71l-.17.34-1.64-.87.17-.33 1.64.86Zm-.9-2.15-1.58 3.08-.4-.21 1.57-3.08.4.21Zm1.93 1.01-1.58 3.08-.4-.2 1.58-3.09.4.21ZM32.7 14.3l.44.24c-.13.18-.29.32-.46.41-.18.1-.39.14-.61.13a1.7 1.7 0 0 1-.73-.24c-.2-.1-.35-.24-.47-.4a1.36 1.36 0 0 1-.27-1.1 2 2 0 0 1 .23-.63l.16-.3c.12-.21.26-.39.41-.52.16-.14.33-.24.5-.3.2-.06.38-.07.58-.05.2.03.4.1.6.21.25.14.44.3.57.48.12.19.19.38.2.59.01.2-.03.41-.11.62l-.44-.24c.06-.15.09-.3.09-.43a.68.68 0 0 0-.12-.38c-.07-.11-.2-.22-.36-.31a1.05 1.05 0 0 0-.43-.14.86.86 0 0 0-.4.06 1.1 1.1 0 0 0-.35.24c-.11.11-.21.25-.3.41l-.17.3c-.08.16-.14.3-.18.45-.04.15-.05.3-.03.43.01.14.06.27.13.39.08.11.2.21.34.3.18.1.34.15.48.16.14.01.27-.02.38-.1.11-.06.22-.16.32-.29Z"/></svg>