<!-- by TradingView --><svg width="56" height="56" viewBox="0 0 56 56" xmlns="http://www.w3.org/2000/svg"><path fill="#F0F3FA" d="M0 0h56v56H0z"/><path d="M27.99 12c-2.25.01-4.47.5-6.52 1.42l1.84 3.87-9.4-3.31 2.8 2.68 22.67 22.6A16 16 0 0 0 27.98 12Z" fill="#004880"/><path d="M32.71 38.68 42 42.05l-2.62-2.8-22.66-22.59a15.98 15.98 0 0 0 6.97 26.73c3.6 1.02 7.46.75 10.9-.77l-1.88-3.94Z" fill="#F18C16"/><path d="m25.91 29.1 1.57.24a4.09 4.09 0 0 1-1.38 1.97c-.62.46-1.38.7-2.15.69a2.78 2.78 0 0 1-2.18-.86 3.59 3.59 0 0 1-.76-2.45c0-.82.17-1.7.52-2.44A3.85 3.85 0 0 1 25.02 24c.73 0 1.43.21 1.99.68.51.47.83 1.12.9 1.82l-1.5.14a1.63 1.63 0 0 0-.47-.97 1.4 1.4 0 0 0-.95-.3c-.41 0-.82.15-1.16.4a2.7 2.7 0 0 0-.9 1.24 4.93 4.93 0 0 0-.33 1.76c-.03.51.13 1.02.44 1.43a1.39 1.39 0 0 0 1.08.5c.43.02.84-.12 1.17-.4.32-.33.53-.74.62-1.2Zm5.19-1.71h2.32a2.05 2.05 0 0 0-.49-1.52 1.58 1.58 0 0 0-1.16-.47 1.6 1.6 0 0 0-1.03.3c-.3.21-.51.52-.62.88l-1.5-.33c.15-.65.54-1.22 1.08-1.6.62-.44 1.3-.65 2.1-.65a3.14 3.14 0 0 1 2.33.86 3.35 3.35 0 0 1 .86 2.49c.01 1.19-.4 2.39-1.16 3.29A3.72 3.72 0 0 1 30.8 32c-.69 0-1.34-.17-1.86-.6a2.64 2.64 0 0 1-.91-1.76l1.46-.51a1.67 1.67 0 0 0 .56 1.18c.27.2.6.31.93.32a2 2 0 0 0 1.26-.5c.45-.4.78-.97.93-1.56h-2.3l.22-1.18Z" fill="#F0F3FA"/></svg>