<!-- by TradingView --><svg width="56" height="56" viewBox="0 0 56 56" xmlns="http://www.w3.org/2000/svg"><path fill="#F0F3FA" d="M0 0h56v56H0z"/><path d="M23.27 43.97c-5.96.45-10.59-4.12-12.16-6.46C14.55 40.79 18.6 43 23 43c5.5 0 9.1-4.02 14.6-4.02 4.4 0 8.22 2.8 9.4 4.2 0 0-3.5-3.18-8.83-3.18-6.65 0-7.9 3.44-14.9 3.97Z" fill="#00A1E4"/><path d="M37.83 41c-3.67 0-7.65 1.68-9.17 2.63 0 0 4.93-1.63 9.17-1.63 3.55 0 6.65 1.06 8.25 1.63A15.08 15.08 0 0 0 37.83 41Z" fill="#00A1E4"/><path d="M34 26a11 11 0 1 1-22 0 11 11 0 0 1 22 0Z" fill="#00467A"/><path fill-rule="evenodd" d="M23 37.5a11.5 11.5 0 1 0 0-23 11.5 11.5 0 0 0 0 23Zm0 .5a12 12 0 1 0 0-24 12 12 0 0 0 0 24Z" fill="#00467A"/><path fill-rule="evenodd" d="m24.64 14.04 3.56-2.27 3.53 2.27L35 26.5h3.24L38 30h6v4h-2v3.62s-1.62-.8-3-1.02v-2.3l-4 1.13v1.17c-1.38.23-3 1.02-3 1.02v-2.1l-4-1.2v5.57c-1.03.8-3.01 1.02-3.01 1.02v-7.39L21 34.82v5.97s-2.06-.22-3-1.02V33h-2v-3h2v-2h3.08l3.56-13.96ZM39 33.54v.06l-4 1.12v-1.18h4Zm-11 .08 4 1.18v-1.26h-4v.08ZM21 33h3.4L21 34.1V33Zm3.9-3H30v-1.63L24.9 30Zm-2.76-.35L30 26.87v-.28l-6.77-1.7-1.09 4.76Zm11.24-3.72-.46.14-9.42-2.3.06-.2h9.23l.59 2.36Zm-1.26-5.09h-7.89l.43-1.73 7.43 1.6.03.13Zm-.27-1.08-6.06-1.32 5.44-1.18.62 2.5Zm-6.26-4.4-.58 2.34 5.02-1.09-4.44-1.25Zm5.31.57-5.1-1.43h4.75l.35 1.43Z" fill="#F0F3FA"/><path fill-rule="evenodd" d="m28.2 11 3.96 2.72L35.4 26h3.14v3.5h5.97v5h-2v3.92l-.72-.35h-.01l-.06-.03a12.41 12.41 0 0 0-.88-.38c-.56-.22-1.27-.46-1.91-.57l-.42-.07v-2.05l-3 .84v1.21l-.42.07a10.07 10.07 0 0 0-2.6.86l-.2.09-.05.02h-.01l-.72.36V35.9l-3-.9v5.14l-.2.15c-.6.47-1.43.74-2.07.9a10.83 10.83 0 0 1-1.16.22h-.02l-.06-.5s.2-.01.5-.07a6.4 6.4 0 0 0 2.51-.94v-5.56l4 1.18v2.11l.5-.23c.59-.25 1.6-.64 2.5-.79v-1.17l4-1.12v2.29a11.76 11.76 0 0 1 3 1.02V34h2v-4h-6v-3.5h-3l-3.27-12.46-3.53-2.27-3.56 2.27L21.08 28H18v2h-2v3h2v6.77a5.9 5.9 0 0 0 2.5.95l.5.07-.05.5h-.03a4.4 4.4 0 0 1-.34-.05l-.85-.17a5.26 5.26 0 0 1-2.05-.91L17.5 40V33.5h-2v-4h2v-2h3.2l3.5-13.77 4-2.73ZM21 40.8l-.05.5.55.05V35.2l2.99-.98v7.26l.55-.07-.05-.5v-7.38L21 34.82v5.97Zm3.4-7.8L21 34.1V33h3.4Zm1.2-17.64L25 17.7l5.02-1.09-4.44-1.25Zm.19 3.08 5.44-1.18.62 2.5-6.06-1.32Zm2.35 0 3.03.66-.3-1.25-2.73.6Zm-.17-1.9-2.02-.56-.26 1.06 2.28-.5Zm2.93-.6-.35-1.45H25.8l5.1 1.44Zm-1.49-.95.8.23-.05-.23h-.75ZM39 33.6v-.06h-4v1.18l4-1.12Zm-3.42.44h-.08v.02l.08-.02ZM32 34.8v-1.26h-4v.08l4 1.18Zm-.82-.76.32.1v-.1h-.32Zm-3.06-4.54h1.38v-.44l-1.38.44Zm-3.21.5L30 28.37V30h-5.1Zm-1.68-5.12-1.09 4.77L30 26.87v-.28l-6.77-1.71Zm-.4 4 5.92-2.1-5.14-1.29-.78 3.39Zm9.93-3.37-5.96-1.45h5.6l.36 1.45Zm.03-1.95h-9.23l-.06.22 9.42 2.29.46-.14-.59-2.37Zm-.67-2.72-.03-.12-7.43-1.61-.43 1.73h7.89Zm-7.25-.5H28l-2.97-.64-.16.64Z" fill="#00467A"/><path d="M23 23.75c-5.58 0-8.64-2.54-9.68-3.57l.36-.36c.96.97 3.9 3.43 9.32 3.43v.5ZM20.3 17.9a13.87 13.87 0 0 1-3.09-1.45l.27-.42c.59.38 1.68.97 2.97 1.39a8 8 0 0 0 4.14.34l.1.5a8.5 8.5 0 0 1-4.4-.37Z" fill="#F0F3FA"/><path d="M15.63 26.33c.52-3.04 2.37-7.54 7.12-9.57a.3.3 0 0 1 .4.17.31.31 0 0 1-.17.4c-2.9 1.23-6.55 4.83-7.35 9Z" fill="#F0F3FA"/></svg>