<svg xmlns="http://www.w3.org/2000/svg" width="355.832" height="60" fill="none" viewBox="0 0 355.832 60"><g transform="translate(5,5)"><path fill="#00529b" d="m 339.91993,19.538394 h 0.38541 c 0.43125,0 1.23958,0 1.23958,-0.865373 0,-0.865393 -0.82708,-0.865393 -1.21041,-0.865393 h -0.41458 z m 0.51041,-2.673076 c 0.6625,0 2.13333,0.115374 2.13333,1.807703 0.0229,0.388249 -0.1,0.770894 -0.34375,1.074372 -0.24375,0.303499 -0.58958,0.506436 -0.97291,0.569853 l 1.98957,2.519285 h -1.27916 l -1.75833,-2.355827 h -0.2875 v 2.355827 h -1.01874 v -5.971213 z m -4.06665,3.009617 c 0,1.147642 0.45624,2.248056 1.26666,3.059512 0.8125,0.811456 1.91249,1.267497 3.05832,1.267497 1.14792,0 2.24791,-0.456041 3.06041,-1.267497 0.81042,-0.811456 1.26667,-1.91187 1.26667,-3.059512 0,-1.147581 -0.45625,-2.24814 -1.26667,-3.059596 -0.8125,-0.811457 -1.91249,-1.26733 -3.06041,-1.26733 -1.14583,0 -2.24582,0.455873 -3.05832,1.26733 -0.81042,0.811456 -1.26666,1.912015 -1.26666,3.059596 z m 9.46872,0 c 0,1.369517 -0.54375,2.682847 -1.5125,3.651177 -0.96666,0.968331 -2.28124,1.512288 -3.64999,1.512288 -1.36874,0 -2.68124,-0.543957 -3.64999,-1.512288 -0.96874,-0.96833 -1.51249,-2.28166 -1.51249,-3.651177 0,-1.369434 0.54375,-2.682785 1.51249,-3.651116 0.96875,-0.968351 2.28125,-1.51235 3.64999,-1.51235 1.36875,0 2.68333,0.543999 3.64999,1.51235 0.96875,0.968331 1.5125,2.281682 1.5125,3.651116 z m -22.13744,12.817403 c 0,-6.298108 -3.84582,-9.4231 -8.11456,-9.4231 -4.26666,0 -8.11248,3.124992 -8.11248,9.4231 0,6.298108 3.84582,9.4231 8.11248,9.4231 4.26874,0 8.11456,-3.124992 8.11456,-9.4231 z m -25.64785,0 c 0,-8.721227 5.59582,-17.259725 17.53329,-17.259725 11.93955,0 17.53328,8.538498 17.53328,17.307641 C 333.11369,41.509606 327.51996,50 315.58041,50 303.64294,50 298.04712,41.346065 298.04712,32.692338 Z m -17.09995,-1.634787 c 3.26874,0 4.29582,-1.865204 4.29582,-3.77874 0,-1.913537 -1.02708,-3.730824 -4.29582,-3.730824 h -2.18125 v 7.509564 z M 269.57636,16.34609 h 13.51455 c 10.91872,0 11.29372,8.307728 11.29372,9.79814 0,6.163317 -3.77707,8.721019 -6.86248,9.798099 l 9.14164,13.057674 h -11.0458 L 278.76592,38.21149 v 10.769346 h -9.14164 z m -4.95207,13.721255 c 0.65417,7.692271 -1.53749,19.865364 -16.22495,19.865364 -9.93956,0 -17.95621,-6.009568 -17.95621,-17.028913 0,-10.673097 6.85415,-17.490412 17.30204,-17.490412 10.20831,0 13.98538,5.769193 15.14996,7.932729 l -8.06456,3.77874 c -0.66667,-1.219997 -1.6625,-2.227703 -2.87499,-2.907909 -1.2125,-0.680207 -2.59166,-1.005414 -3.97916,-0.938123 -4.28749,0 -8.39164,3.038534 -8.39164,9.471225 0,6.432691 4.05624,10.028723 8.71872,10.028723 1.66667,0.09104 3.3125,-0.411457 4.64374,-1.418121 1.33125,-1.006872 2.26458,-2.45291 2.63124,-4.081864 h -8.48747 V 30.04797 Z m -55.57901,6.086442 h 7.45831 l -3.72916,-12.03851 z M 207.21861,16.34609 h 11.10164 l 11.61247,32.692246 h -9.80414 l -1.81666,-5.644152 h -11.09331 l -1.81687,5.644152 h -9.79518 z m -17.43745,9.144184 c -1.53791,-1.394163 -3.58541,-2.884576 -5.92123,-2.884576 -2.74916,0 -3.40291,1.634579 -3.40291,2.798118 0,1.923119 2.23978,2.51916 3.84499,2.884575 4.80644,1.124997 10.1606,3.221242 10.1606,10.913513 0,6.490399 -4.61416,10.730805 -12.2656,10.730805 -4.19124,0 -7.50748,-1.394372 -12.21767,-5.221237 l 4.33519,-6.951856 c 2.56666,2.471035 5.41187,4.336447 8.12269,4.336447 1.67271,0 3.21062,-0.788331 3.21062,-2.749993 0,-2.990409 -2.79729,-3.355824 -6.24811,-4.432696 -2.60499,-0.788332 -7.78623,-2.605827 -7.78623,-9.615391 0,-5.269195 3.84499,-9.84612 11.47747,-9.84612 3.56562,0.0064 7.03894,1.133184 9.92976,3.221158 z m -31.26012,7.202064 c 0,-6.298108 -3.84499,-9.4231 -8.1129,-9.4231 -4.26811,0 -8.14185,3.08645 -8.14185,9.4231 0,6.336441 3.84499,9.4231 8.11289,9.4231 4.26812,0 8.11311,-3.124992 8.11311,-9.4231 z m -25.67514,0 c 0,-8.721227 5.59456,-17.259725 17.53328,-17.259725 11.93893,0 17.5335,8.538498 17.5335,17.307641 C 167.91268,41.509606 162.31811,50 150.37918,50 138.44046,50 132.87465,41.346065 132.87465,32.692338 Z M 98.432654,16.34609 h 9.141646 v 11.740427 h 11.10267 V 16.34609 h 9.1704 v 32.692246 h -9.14165 V 35.922954 H 107.5743 V 48.980836 H 98.432654 Z M 77.861876,31.019217 h 2.595409 c 4.056448,0 4.479363,-2.374993 4.479363,-3.778948 0,-1.624996 -0.557498,-3.730615 -4.479363,-3.730615 H 77.861876 Z M 68.701067,16.34609 h 13.765171 c 9.276225,0 11.890802,6.442316 11.890802,10.913554 0,4.47103 -2.662701,10.951846 -11.890802,10.951846 h -4.604362 v 10.769346 h -9.160809 z" style="stroke-width:2.08333"/><path fill="#2fb457" d="m 0,32.317964 c 0,0 9.6125993,0.09625 13.909421,0.894372 13.80363,2.51916 14.332379,15.653709 14.332379,15.653709 0,0 -2.287703,0.173124 -8.180312,0.173124 C 6.2289625,49.039169 0,32.317964 0,32.317964 Z" style="stroke-width:2.08333"/><path fill="#2fb457" d="m 58.387552,32.317964 c 0,0 -9.612682,0.09625 -13.909337,0.894372 -13.79413,2.51916 -14.322879,15.653709 -14.322879,15.653709 0,0 2.239786,0.124999 8.180395,0.124999 13.832463,0 20.051821,-16.67308 20.051821,-16.67308 z" style="stroke-width:2.08333"/><path fill="#00529b" d="m 34.355533,30.769635 c 0,1.021247 -0.302916,2.019578 -0.869997,2.868742 -0.567291,0.849164 -1.37333,1.510829 -2.316661,1.901662 -0.943122,0.390832 -1.981036,0.493123 -2.982492,0.293957 -1.001247,-0.199374 -1.921036,-0.69104 -2.64291,-1.413121 -0.721873,-0.72229 -1.213538,-1.642287 -1.412704,-2.643951 -0.199166,-1.001456 -0.09708,-2.039787 0.293749,-2.983117 0.390624,-0.94354 1.052289,-1.749996 1.901037,-2.317494 0.848956,-0.56729 1.847078,-0.869998 2.867909,-0.869998 1.368954,0 2.682076,0.543957 3.64999,1.512288 0.968122,0.96833 1.512079,2.28166 1.512079,3.651032 z" style="stroke-width:2.08333"/><path fill="#00529b" d="m 44.890089,25.722148 c 0,1.021664 -0.302916,2.020203 -0.870623,2.869576 -0.567707,0.849372 -1.374371,1.511246 -2.318119,1.901661 -0.943747,0.390624 -1.982286,0.492291 -2.983742,0.292291 -1.001664,-0.199999 -1.921453,-0.692706 -2.64291,-1.415829 -0.721664,-0.723123 -1.212496,-1.644163 -1.410621,-2.646243 -0.197916,-1.002289 -0.09437,-2.040828 0.297708,-2.984159 0.39229,-0.943331 1.055414,-1.749162 1.905411,-2.315202 0.850206,-0.566249 1.849162,-0.867519 2.870618,-0.865623 0.677289,0 1.348121,0.133625 1.973953,0.393332 0.625623,0.259583 1.194163,0.639999 1.672704,1.119581 0.47854,0.479582 0.857914,1.048955 1.116247,1.675412 0.258332,0.626248 0.390624,1.297497 0.389374,1.975203" style="stroke-width:2.08333"/><path fill="#00529b" d="m 40.198434,5.1538699 c 0.0021,1.022039 -0.299374,2.021682 -0.865831,2.872263 -0.566456,0.850602 -1.372496,1.513912 -2.316243,1.905911 -0.94354,0.3919991 -1.982287,0.4950621 -2.984576,0.2961451 -1.00208,-0.198936 -1.922703,-0.6908931 -2.645201,-1.4136001 -0.722498,-0.722706 -1.214372,-1.643621 -1.41333,-2.646139 -0.198749,-1.002497 -0.09583,-2.041494 0.296041,-2.985388 0.391874,-0.943893 1.054997,-1.750222 1.905412,-2.31685996 0.850414,-0.566636 1.849787,-0.868095 2.87145,-0.8661929950138 1.366455,0 2.677077,0.5429939950138 3.643324,1.5095289550138 0.966247,0.966526 1.508954,2.27744 1.508954,3.644332 z" style="stroke-width:2.08333"/><path fill="#00529b" d="m 28.500132,5.1538699 c 0.0019,1.022039 -0.299374,2.021682 -0.865831,2.872263 -0.566665,0.850602 -1.372704,1.513912 -2.316244,1.905911 -0.943747,0.3919991 -1.982286,0.4950621 -2.984575,0.2961451 -1.002289,-0.198936 -1.92287,-0.6908931 -2.645347,-1.4136001 -0.722498,-0.722706 -1.21433,-1.643621 -1.413184,-2.646139 -0.198874,-1.002497 -0.09585,-2.041494 0.296041,-2.985388 0.391895,-0.943893 1.054997,-1.750222 1.905349,-2.31685996 0.850269,-0.566636 1.849641,-0.868095 2.871513,-0.8661929950138 1.366455,0 2.676868,0.5429939950138 3.643116,1.5095289550138 0.966247,0.966526 1.509162,2.27744 1.509162,3.644332" style="stroke-width:2.08333"/><path fill="#00529b" d="m 23.808686,25.722148 c 0,1.021664 -0.303124,2.020203 -0.870622,2.869576 -0.567707,0.849372 -1.374372,1.511246 -2.318265,1.901661 -0.943789,0.390624 -1.982182,0.492291 -2.983763,0.292291 -1.00158,-0.199999 -1.921328,-0.692706 -2.642868,-1.415829 -0.721519,-0.723123 -1.212392,-1.644163 -1.410475,-2.646243 -0.198104,-1.002289 -0.0945,-2.040828 0.297666,-2.984159 0.392165,-0.943331 1.055289,-1.749162 1.905432,-2.315202 0.850144,-0.566249 1.849099,-0.867519 2.870451,-0.865623 0.677436,0 1.348205,0.133625 1.973953,0.393332 0.62579,0.259583 1.194122,0.639999 1.672662,1.119581 0.478541,0.479582 0.857915,1.048955 1.116247,1.675412 0.258333,0.626248 0.390832,1.297497 0.389582,1.975203 z" style="stroke-width:2.08333"/><path fill="#00529b" d="m 47.494248,14.307074 c 0.0019,1.02206 -0.299582,2.021682 -0.866039,2.872284 -0.566457,0.850602 -1.372496,1.513913 -2.316036,1.905912 -0.943747,0.391999 -1.982286,0.495061 -2.984575,0.296124 -1.002289,-0.198916 -1.922912,-0.690894 -2.64541,-1.413579 -0.722498,-0.722707 -1.214371,-1.643642 -1.413121,-2.646139 -0.198958,-1.002518 -0.09583,-2.041515 0.296041,-2.985409 0.391874,-0.943893 1.054997,-1.750203 1.905412,-2.316848 0.850206,-0.5666441 1.849578,-0.8681021 2.87145,-0.8662061 1.365622,0.0025 2.674577,0.546353 3.640407,1.5123501 0.965623,0.965977 1.509371,2.275411 1.511871,3.641511 z" style="stroke-width:2.08333"/><path fill="#00529b" d="m 21.204527,14.307074 c 0.0019,1.02206 -0.299583,2.021682 -0.86604,2.872284 -0.566477,0.850602 -1.372558,1.513913 -2.316181,1.905912 -0.943622,0.391999 -1.982307,0.495061 -2.984534,0.296124 -1.002205,-0.198916 -1.92287,-0.690894 -2.645368,-1.413579 -0.722477,-0.722707 -1.214309,-1.643642 -1.413183,-2.646139 -0.198875,-1.002518 -0.09583,-2.041515 0.296061,-2.985409 0.391874,-0.943893 1.054998,-1.750203 1.905349,-2.316848 0.850352,-0.5666441 1.849683,-0.8681021 2.871451,-0.8662061 1.365705,0.0025 2.674743,0.546353 3.640449,1.5123501 0.965706,0.965977 1.509287,2.275411 1.511996,3.641511" style="stroke-width:2.08333"/></g></svg>