<!-- by TradingView --><svg width="56" height="56" viewBox="0 0 56 56" xmlns="http://www.w3.org/2000/svg"><path fill="#134C9D" d="M0 0h56v56H0z"/><path d="M28.5 37.1a10.02 10.02 0 1 1-.01-20.03 10.02 10.02 0 0 1 0 20.03Zm0-19.42a9.4 9.4 0 1 0-.01 18.8 9.4 9.4 0 0 0 0-18.8Z" fill="#fff"/><path d="M35.63 24.97h.49v.42h-.49V26h.49v.4H34.1V26h.63v-.61h-1.67l1.8-2.97h.77v2.55Zm-1.94 0h1.04v-1.66l-1.04 1.66Z" fill="#fff"/><path d="M33 26h.4v.4h-1.8V26h.4v-2.66l-.2.19h-.07l-.19-.25.87-.86H33V26Zm-3.52-3.21H29v-.37h1.48v.37h-.5l-1.17 1.17L30.35 26h.25v.4H29.1V26h.31l-1.11-1.48-.31.37V26h.37v.4h-1.8V26H27v-3.21h-.42v-.37h1.8v.37H28v1.54l1.48-1.54Z" fill="#fff"/><path d="M25 26v-4.55h-.44V21h2.88v.88H27v-.43h-1V26h.41v.4h-1.85V26H25Zm-3.35.4V26H22v-3.25h-.73v.38h-.43v-.75h3.34v.75h-.37v-.38H23V26h1.24v.4h-2.59ZM30 24h1.46v1.19H30V24Zm-10.47 2.7h18.06V28H19.53v-1.3Z" fill="#fff"/><path d="m33.26 28.13 2.6.56s.7-.8.92-1.43l.06-.18h-3.52l-.06 1.05Z" fill="#fff"/><path d="m32.95 29.06 2.47 1.11s.94-.7 1.24-1.36l.12-.3-.62-.13-.18.43-2.79-.56-.24.8Z" fill="#fff"/><path d="m32.4 29.99 2.22 1.6s1.07-.51 1.48-1.11l.19-.3-.56-.26-.3.44-2.54-1.18-.5.8Z" fill="#fff"/><path d="m31.71 30.73 1.78 1.96s1.25-.15 1.75-.66l.24-.31-.5-.31-.36.3-2.29-1.66-.62.68Z" fill="#fff"/><path d="m30.9 31.35 1.37 2.35s1.2.02 1.8-.38c.12-.08.3-.24.3-.24l-.43-.43-.44.24-1.85-2.1-.74.56Z" fill="#fff"/><path d="m29.98 31.72.8 2.6s1.18.32 1.86.06c.15-.06.37-.19.37-.19l-.37-.5-.43.13-1.43-2.41-.8.3Z" fill="#fff"/><path d="m28.99 31.96.25 2.73s1.22.59 1.98.37l.18-.07-.18-.55-.5.06-.86-2.72-.87.18Z" fill="#fff"/><path d="m27.94 31.96-.25 2.66s.83.75 1.52.81l.46.05-.13-.61-.43-.12-.3-2.79h-.87Z" fill="#fff"/><path d="m26.94 31.75-.8 2.56s.77.86 1.43 1.12l.37.12.06-.62-.43-.18.24-2.79-.87-.2Z" fill="#fff"/><path d="m26.02 31.35-1.36 2.35s.64.96 1.24 1.36c.11.08.3.18.3.18l.2-.62-.44-.24.87-2.66-.8-.37Z" fill="#fff"/><path d="m25.22 30.73-1.86 2.04s.45 1.04.8 1.42c.16.16.44.37.44.37l.25-.55-.38-.31 1.43-2.42-.68-.55Z" fill="#fff"/><path d="m24.47 29.99-2.16 1.54s.05 1.11.43 1.67c.13.19.37.43.37.43l.38-.5-.31-.42 1.91-2.04-.62-.68Z" fill="#fff"/><path d="m23.98 29.06-2.47 1.11s-.11 1.06.12 1.67c.08.2.25.5.25.5l.5-.38-.25-.43 2.28-1.67-.43-.8Z" fill="#fff"/><path d="m23.67 28.13-2.67.56s-.33 1.1-.24 1.67c.04.2.13.5.13.5l.55-.26-.06-.5 2.54-1.17-.06-.18-.06-.19-.07-.24-.06-.19Z" fill="#fff"/><path d="M23.55 27.08h-2.66l-.31.74s-.26.51-.31.87c-.03.21 0 .55 0 .55l.62-.18v-.5l2.78-.55-.12-.93Zm6.12.12-1.05.93.74.06L28 29.24h.56l-1.73 1.24.92-.99-.55-.12.92-.93-.55-.06.8-1.18h1.3Z" fill="#fff"/><path fill-rule="evenodd" d="M8 31.94a7.03 7.03 0 0 0 5.97 3.55c4.24.1 6.13.2 6.43.93.25.57-2.92 1.78-4.54 2.31 1.16.57 4.02 1.3 6.23-.3h2.1c-.37.32-.79.71-1.23 1.14-1.73 1.63-3.9 3.68-5.04 4.04 2 .6 5.99.76 9.17-4.1l2.2-.31c-.48.77-1.37 2.6-1.13 3.7l3.07-3.09c.08.43.13 1.7-.36 3.35-.61 2.06.56 3.91 2.6 4.84a9.25 9.25 0 0 1 .56-5.1 7.2 7.2 0 0 0 1.3-4.7c.23.07.76.4 1.05 1.3.27-.51.76-1.94.58-3.53.47.05 1.53.57 2 2.24a3.7 3.7 0 0 0 2.54 2.58c-.4-.67-.66-2.18-.69-4.37a11 11 0 0 0-.94-4.48c.38-.02 1.3.06 1.88.56-.24-.61-.77-1.92-.94-2.27-.1-.2.07-.13.39 0 .43.15 1.15.43 1.93.36 1.38-.1 3.85.05 4.87 1.35.06-.87-1.36-3.52-7.52-7.24.1-.33.7-1 2.36-1a5.74 5.74 0 0 0-2.97-2c.4-.07 1.46-.32 2.54-.85.41-.2.67-.41.9-.6.5-.44.9-.76 2.65-.6L44.13 18c-1.12-.13-3.52-.3-6.48 0 .05-.28.42-.97 1.5-1.47-.57-.34-2.05-.7-3.53.55-.3-.17-.52-.79 1.02-1.9 1.54-1.12 1.92-2.44 1.92-2.97-.15.4-.94 1.19-2.94 1.25-2 .05-3.2 1.75-3.56 2.6-.6-.63-1.28-2.34.87-4.22a6.09 6.09 0 0 0-6.28 3.34c-.47-.37-1.18-1.63-.25-3.74.93-2.1.56-3.17.25-3.44.03.3-.54 1.47-3 3.84-2.48 2.38-2.4 4.73-2.04 5.6l-1.2 1.29c.29-1.88.25-5.89-2.25-6.89.4.93.85 3.35-.55 5.6-1.39 2.26-.87 3.58-.43 3.96-.88-.57-2.58-2.24-2.29-4.32-1.18 1.46-2.64 5.64.98 10.7-.78-.13-2.9-.32-5.1 0 .02 0 .07.07.14.18.26.42.94 1.49 3.06 2 2.15.5 2.35 1.2 2.19 1.49-.7 0-2.45.23-3.76 1.05-1.31.81-3.48-.04-4.4-.56Zm20.5 5.75c5.8 0 10.5-4.74 10.5-10.6 0-5.84-4.7-10.58-10.5-10.58S18 21.25 18 27.1s4.7 10.59 10.5 10.59Z" fill="#fff" fill-opacity=".7"/><path d="M23.97 27.84a4.53 4.53 0 0 0 4.46 3.88 4.53 4.53 0 0 0 4.47-3.88h-.44a4.1 4.1 0 0 1-4.03 3.4 4.1 4.1 0 0 1-4.03-3.4h-.43Z" fill="#fff"/></svg>