<?xml version="1.0" encoding="UTF-8" standalone="no"?>
<!-- Created with Inkscape (http://www.inkscape.org/) -->
<svg
   xmlns:svg="http://www.w3.org/2000/svg"
   xmlns="http://www.w3.org/2000/svg"
   xmlns:inkscape="http://www.inkscape.org/namespaces/inkscape"
   version="1.0"
   width="708.66138"
   height="708.30707"
   id="svg2">
  <defs
     id="defs4">
    <inkscape:perspective
       id="perspective10" />
    <inkscape:perspective
       id="perspective2395" />
    <clipPath
       id="clipPath2697">
      <path
         d="M 0,842.04 L 594.96,842.04 L 594.96,0 L 0,0 L 0,842.04 z"
         id="path2699" />
    </clipPath>
    <clipPath
       id="clipPath2689">
      <path
         d="M -0.138,841.945 L 595.138,841.945 L 595.138,0.055 L -0.138,0.055 L -0.138,841.945 z"
         id="path2691" />
    </clipPath>
    <clipPath
       id="clipPath2681">
      <path
         d="M 0,842.04 L 594.96,842.04 L 594.96,0 L 0,0 L 0,842.04 z"
         id="path2683" />
    </clipPath>
    <clipPath
       id="clipPath2673">
      <path
         d="M -0.138,841.945 L 595.138,841.945 L 595.138,0.055 L -0.138,0.055 L -0.138,841.945 z"
         id="path2675" />
    </clipPath>
    <clipPath
       id="clipPath2665">
      <path
         d="M 0,842.04 L 594.96,842.04 L 594.96,0 L 0,0 L 0,842.04 z"
         id="path2667" />
    </clipPath>
    <clipPath
       id="clipPath2657">
      <path
         d="M -0.138,841.945 L 595.138,841.945 L 595.138,0.055 L -0.138,0.055 L -0.138,841.945 z"
         id="path2659" />
    </clipPath>
    <clipPath
       id="clipPath2649">
      <path
         d="M 0,842.04 L 594.96,842.04 L 594.96,0 L 0,0 L 0,842.04 z"
         id="path2651" />
    </clipPath>
    <clipPath
       id="clipPath2641">
      <path
         d="M -0.138,841.945 L 595.138,841.945 L 595.138,0.055 L -0.138,0.055 L -0.138,841.945 z"
         id="path2643" />
    </clipPath>
    <clipPath
       id="clipPath2633">
      <path
         d="M 0,842.04 L 594.96,842.04 L 594.96,0 L 0,0 L 0,842.04 z"
         id="path2635" />
    </clipPath>
    <clipPath
       id="clipPath2625">
      <path
         d="M -0.138,841.945 L 595.138,841.945 L 595.138,0.055 L -0.138,0.055 L -0.138,841.945 z"
         id="path2627" />
    </clipPath>
    <clipPath
       id="clipPath2617">
      <path
         d="M 0,842.04 L 594.96,842.04 L 594.96,0 L 0,0 L 0,842.04 z"
         id="path2619" />
    </clipPath>
    <clipPath
       id="clipPath2609">
      <path
         d="M -0.138,841.945 L 595.138,841.945 L 595.138,0.055 L -0.138,0.055 L -0.138,841.945 z"
         id="path2611" />
    </clipPath>
    <clipPath
       id="clipPath2601">
      <path
         d="M 0,842.04 L 594.96,842.04 L 594.96,0 L 0,0 L 0,842.04 z"
         id="path2603" />
    </clipPath>
    <clipPath
       id="clipPath2593">
      <path
         d="M -0.138,841.945 L 595.138,841.945 L 595.138,0.055 L -0.138,0.055 L -0.138,841.945 z"
         id="path2595" />
    </clipPath>
    <clipPath
       id="clipPath2579">
      <path
         d="M 15.209,817.788 L 151.993,817.788 L 151.993,787.252 L 15.209,787.252 L 15.209,817.788 z"
         id="path2581" />
    </clipPath>
    <inkscape:perspective
       id="perspective2559" />
    <inkscape:perspective
       id="perspective2863" />
    <clipPath
       id="clipPath3083">
      <path
         d="M 0,842.04 L 594.96,842.04 L 594.96,0 L 0,0 L 0,842.04 z"
         id="path3085" />
    </clipPath>
    <clipPath
       id="clipPath3075">
      <path
         d="M -0.138,841.945 L 595.138,841.945 L 595.138,0.055 L -0.138,0.055 L -0.138,841.945 z"
         id="path3077" />
    </clipPath>
    <clipPath
       id="clipPath3067">
      <path
         d="M 0,842.04 L 594.96,842.04 L 594.96,0 L 0,0 L 0,842.04 z"
         id="path3069" />
    </clipPath>
    <clipPath
       id="clipPath3059">
      <path
         d="M -0.138,841.945 L 595.138,841.945 L 595.138,0.055 L -0.138,0.055 L -0.138,841.945 z"
         id="path3061" />
    </clipPath>
    <clipPath
       id="clipPath3051">
      <path
         d="M 0,842.04 L 594.96,842.04 L 594.96,0 L 0,0 L 0,842.04 z"
         id="path3053" />
    </clipPath>
    <clipPath
       id="clipPath3043">
      <path
         d="M -0.138,841.945 L 595.138,841.945 L 595.138,0.055 L -0.138,0.055 L -0.138,841.945 z"
         id="path3045" />
    </clipPath>
    <clipPath
       id="clipPath3035">
      <path
         d="M 0,842.04 L 594.96,842.04 L 594.96,0 L 0,0 L 0,842.04 z"
         id="path3037" />
    </clipPath>
    <clipPath
       id="clipPath3027">
      <path
         d="M -0.138,841.945 L 595.138,841.945 L 595.138,0.055 L -0.138,0.055 L -0.138,841.945 z"
         id="path3029" />
    </clipPath>
    <clipPath
       id="clipPath3019">
      <path
         d="M 0,842.04 L 594.96,842.04 L 594.96,0 L 0,0 L 0,842.04 z"
         id="path3021" />
    </clipPath>
    <clipPath
       id="clipPath3011">
      <path
         d="M -0.138,841.945 L 595.138,841.945 L 595.138,0.055 L -0.138,0.055 L -0.138,841.945 z"
         id="path3013" />
    </clipPath>
    <clipPath
       id="clipPath3003">
      <path
         d="M 0,842.04 L 594.96,842.04 L 594.96,0 L 0,0 L 0,842.04 z"
         id="path3005" />
    </clipPath>
    <clipPath
       id="clipPath2995">
      <path
         d="M -0.138,841.945 L 595.138,841.945 L 595.138,0.055 L -0.138,0.055 L -0.138,841.945 z"
         id="path2997" />
    </clipPath>
    <clipPath
       id="clipPath2987">
      <path
         d="M 0,842.04 L 594.96,842.04 L 594.96,0 L 0,0 L 0,842.04 z"
         id="path2989" />
    </clipPath>
    <clipPath
       id="clipPath2979">
      <path
         d="M -0.138,841.945 L 595.138,841.945 L 595.138,0.055 L -0.138,0.055 L -0.138,841.945 z"
         id="path2981" />
    </clipPath>
    <clipPath
       id="clipPath2965">
      <path
         d="M 15.209,817.788 L 151.993,817.788 L 151.993,787.252 L 15.209,787.252 L 15.209,817.788 z"
         id="path2967" />
    </clipPath>
    <inkscape:perspective
       id="perspective2945" />
    <clipPath
       id="clipPath3328">
      <path
         d="M 0.233,841.98 L 622.827,841.98 L 622.827,0 L 0.233,0 L 0.233,841.98 z"
         id="path3330" />
    </clipPath>
    <inkscape:perspective
       id="perspective3320" />
  </defs>
  <g
     transform="translate(-662.97369,808.05773)"
     id="layer1">
    <g
       transform="matrix(3.9351766,0,0,3.9351766,-1910.5119,536.23013)"
       id="g3510">
      <path
         d="M 825.04909,-332.60358 L 662.9737,-332.60358 L 662.9737,-170.61873 L 825.04909,-170.61873 L 825.04909,-332.60358 z"
         id="path3350"
         style="fill:#ed1b34;fill-opacity:1;fill-rule:nonzero;stroke:none" />
      <path
         d="M 798.88393,-316.4378 C 795.15864,-316.4378 792.3251,-313.99366 790.91518,-311.03155 L 770.50893,-277.4378 C 769.09902,-274.3334 768.07143,-270.84691 768.07143,-268.53155 C 768.07143,-266.46195 768.33952,-264.65059 769.10268,-262.96905 L 791.16518,-210.28155 L 705.44643,-210.28155 C 702.3679,-210.28155 699.82143,-213.36041 699.82143,-216.21905 L 699.82143,-307.03155 C 699.17468,-319.4362 681.33449,-319.43631 680.94643,-306.65655 L 681.32143,-210.28155 C 681.32143,-199.80422 689.4217,-191.40655 699.82143,-191.40655 L 816.69643,-191.40655 L 788.22768,-264.2503 C 787.45158,-266.96665 787.06331,-269.42281 788.97768,-272.65655 L 807.85268,-303.28155 C 808.12431,-303.9283 808.47769,-306.6434 808.47768,-307.40655 C 808.10255,-312.96861 803.76041,-316.6965 798.88393,-316.4378 z M 752.60268,-316.40655 C 748.01723,-316.37421 743.44643,-313.23388 743.44643,-307.03155 L 743.44643,-242.03155 C 743.44643,-232.60195 730.72768,-233.36511 730.72768,-242.03155 L 730.72768,-307.03155 C 730.72768,-319.4362 712.38393,-319.4362 712.38393,-307.03155 L 712.38393,-241.53155 C 712.38393,-226.55284 723.53502,-216.59405 736.88393,-216.59405 C 750.60794,-216.59405 761.79017,-226.55284 761.79018,-241.53155 L 761.79018,-307.03155 C 761.79018,-313.36322 757.18813,-316.43889 752.60268,-316.40655 z"
         id="rect3402"
         style="fill:#ffffff;fill-opacity:1;stroke:none" />
    </g>
  </g>
</svg>
