<!-- by TradingView --><svg xmlns="http://www.w3.org/2000/svg" width="56" height="56" viewBox="0 0 56 56"><path fill="#162F77" d="M0 0h56v56H0z"/><path d="M36.9 33.64c-2.58 7.97-7.59 11.3-15.02 10a10.27 10.27 0 0 1-4.71-2.12 9.67 9.67 0 0 1-2.93-4.27c-.61-1.75-.73-3.67-.37-5.74.13-.74.3-1.44.52-2.1l5.56-16.42 5.9-.02-5.15 17.09c-.27.86-.46 1.58-.56 2.14-.29 1.63-.15 2.89.41 3.78.57.87 1.55 1.42 2.95 1.66 1.73.3 3.22-.04 4.49-1.04 1.29-1 2.31-2.66 3.07-5L37.64 13h5.9L36.9 33.64Z" fill="#fff"/></svg>