<!-- by TradingView --><svg width="56" height="56" viewBox="0 0 56 56" xmlns="http://www.w3.org/2000/svg"><path fill="#F0F3FA" d="M0 0h56v56H0z"/><path d="M38.66 16.35c3.5.01 6.45.96 7.59 2.9a9.07 9.07 0 0 1-.03 7.3 28 28 0 0 1-3.45 4.78s-1 1.1-1.5 1a.35.35 0 0 1-.2-.12c-.1-.13-.04-.4.19-.64l.58-.67a35.4 35.4 0 0 0 2.32-3.03l.26-.44c.56-.97.52-1.09.44-1.18-.07-.1-.3-.1-.37-.1a.32.32 0 0 0-.15 0 1.48 1.48 0 0 0-.76.88c-.16.33-.21.41-.42.77l-.13.23-.25.41-.1.17-.29.43-.23.32c-.17.25-.39.55-.52.68-.36.44-.8.8-1.3 1.07l-.21.06c-.12.05-.2.07-.31 0-.17-.1-.18-.23-.17-.43 0-.16.08-.23.44-.63l.25-.28c.5-.52 1.15-1.5 1.5-2.14a.35.35 0 0 0 0-.25.52.52 0 0 0-.48-.23c-.27.01-.44.24-.93.91l-.02.02-.57.8a15.01 15.01 0 0 1-2.22 2.47s-.22.2-.71.57c-.13.09-.26.16-.4.22a.64.64 0 0 1-.45.08.44.44 0 0 1-.28-.3c-.06-.3.33-.65.56-.86l.02-.01a9.96 9.96 0 0 0 1.81-1.91l1.16-1.56.07-.1c.38-.5.84-1.1.76-1.62-.01-.1-.05-.33-.22-.41a.34.34 0 0 0-.34 0v.06A16.63 16.63 0 0 1 38.17 28a26.65 26.65 0 0 1-7.82 7.1 29.1 29.1 0 0 1-5.78 2.88h-.2c-6.03 1.98-11.53 1.33-13.62-2.07-1.9-3.08-.53-7.64 3.1-11.8l.9-.98.3-.29a.55.55 0 0 1 .7 0 .5.5 0 0 1 .1.4c-.94.98-1.81 2.03-2.6 3.15a.44.44 0 0 0 .44.69.44.44 0 0 0 .29-.18c.76-1.08 1.6-2.1 2.5-3.04l.06-.02c.16-.04.58-.15.73.02a.53.53 0 0 1 0 .6c-.8.95-1.52 1.97-2.16 3.05a.4.4 0 0 0 .46.59c.1-.03.19-.1.24-.2a21.9 21.9 0 0 1 5.07-6l.14-.06a.9.9 0 0 1 .23 0h.03c.1 0 .28-.01.38.16.12.2-.14.5-.14.5l-.2.17-.2.2-.07.08a23.48 23.48 0 0 0-3.69 4.65.47.47 0 1 0 .81.48 22.54 22.54 0 0 1 3.53-4.47l.7-.65a28.82 28.82 0 0 1 3.46-2.6 23.58 23.58 0 0 1 12.8-4Zm-25.71 12.4c.1-.23.22-.45.34-.66l-.02.04a.48.48 0 0 0-.55-.7.49.49 0 0 0-.3.22l-.29.56-.07.14c-.19.4-.35.8-.5 1.22a.48.48 0 0 0 .32.61h.16a.48.48 0 0 0 .45-.32c.13-.38.28-.75.46-1.12Zm1.5 2.42a.6.6 0 0 1 0-.13l.11.01a.4.4 0 0 0-.45-.59.4.4 0 0 0-.25.2c-.09.14-.15.31-.17.49a.4.4 0 0 0 .35.45.4.4 0 0 0 .4-.35v-.08Zm.41-1.45c.07-.26.18-.5.34-.7a.44.44 0 0 0-.42-.7.45.45 0 0 0-.3.18c-.22.3-.39.65-.48 1.02a.44.44 0 0 0 .33.53h.1a.44.44 0 0 0 .43-.33Zm4 4.14c1.98 2.8 7.82 2.12 13.03-1.5 5.24-3.6 7.96-8.8 5.98-11.6-1.98-2.79-7.8-2.12-13.03 1.5-5.24 3.62-7.96 8.8-5.98 11.6Zm21.77-8.78c.18-.12.31-.3.38-.5l-.04-.05c.1-.26.2-.74-.03-.76a.46.46 0 0 0-.43 0c-.07.05-.15.13-.28.43l-.24.63a.4.4 0 0 0 .1.34c.18.13.54-.1.54-.1Zm1.98 1.03c.13-.16.21-.34.25-.54l-.04-.04c.01-.06.06-.42-.1-.5a.4.4 0 0 0-.55.14l-.08.13-.2.34-.18.29a.54.54 0 0 0-.12.25c-.03.21.06.51.17.56.12.05.28-.06.46-.2.15-.13.29-.27.4-.43Zm-2.02 6.63c.1.1.15.25.15.4 0 .15-.16.3-.33.48l-.12.12c-.16.16-.35.27-.56.34-.45.13-1.05-.08-1.07-.23-.02-.1.13-.22.36-.39.13-.1.3-.22.46-.37l.33-.3c.19-.19.27-.27.41-.27.14.03.28.1.37.22Zm-2.72-.6c.33-.32.5-.49.82-.53.08-.01.47.04.57.16.08.08.05.19.02.29l-.02.1c-.13.3-.34.54-.6.71l-.56.42-.09.07-.62.48c-.3.27-.65.5-1.02.65a.82.82 0 0 1-.48 0 .34.34 0 0 1-.22-.14.39.39 0 0 1 0-.25V34c.11-.25.87-.7.87-.7.24-.18.47-.36.7-.56l.63-.59Zm-3.43 3.35a.47.47 0 0 1-.18-.03.3.3 0 0 1-.13-.23c-.01-.1.1-.17.3-.32l.18-.13.16-.12c.18-.14.23-.18.34-.18a.38.38 0 0 1 .27.52c-.02.1-.11.16-.27.24-.15.1-.31.17-.48.22a.47.47 0 0 1-.19.03ZM16.2 22.63c-.1 0-.2-.03-.27-.1a.43.43 0 0 1-.03-.55l.26-.24a.44.44 0 0 1 .61 0 .43.43 0 0 1 0 .5l-.3.3a.43.43 0 0 1-.27.1Zm3.75-1.47c.05.04.1.09.1.15.01.1-.02.2-.08.28-.61.52-1.19 1.08-1.74 1.67a.48.48 0 0 1-.63 0 .47.47 0 0 1-.1-.52l.12-.14a5.34 5.34 0 0 1 1.72-1.44l.14-.02c.14-.04.34-.08.47.02Zm4.13-1.8c.12.03.23.1.3.2a.56.56 0 0 1 .02.62c-.04.06-.1.1-.16.13l-.18.1c-.12.05-.7.07-.78-.19a.6.6 0 0 1 0-.26c0-.1.04-.19.09-.27.05-.06.1-.11.17-.16.05-.05.11-.1.18-.14a.56.56 0 0 1 .36-.03Z" fill="url(#aoxgojk45)"/><path d="M18.1 16H14v.73h1.25L13.87 21h3.9v-.74h-1.04L18.1 16Zm-7.8 0H9v.73h1.3V21h2.17v-4.27h1.2V16H10.3Zm10.84 5h2.14l-2-5h-1.1l-2.22 5h.73l.29-.65h1.9l.26.65Zm-1.93-1.2.76-1.71.69 1.7h-1.45Z" fill="url(#boxgojk45)"/><path d="M28 30.5a3 3 0 1 0 0-6 3 3 0 0 0 0 6Z" fill="url(#coxgojk45)"/><path d="M35.46 40h1.82v-2.09l.9 2.09h.5l.55-1.33.4-.95V40h1.75l.2-.53h1.31l.14.53H46.85v-.6h-.72L47 36h-2.75v.6h.89l-.83 3.24L43.04 36h-.55l-.4 1.07L41 39.9V36h-1.25l-.82 1.98-.86-1.98H36.8v4l-1.34-4h-.53l-.44 1.1-.96 2.44-1.05-2.4L33.65 36h-.7l-1.2 1.14-.47.46V36H30v4h1.3v-1.72l.14-.14.81 1.86h1.56l.2-.53h1.3l.15.53Zm-1.25-1 .5-1.27.46 1.27h-.96Zm7.54 0 .51-1.36.47 1.36h-.98Z" fill="#004C96"/><defs><linearGradient id="aoxgojk45" x1="45.6" y1="20.42" x2="9.06" y2="27.76" gradientUnits="userSpaceOnUse"><stop offset=".87" stop-color="#FC3E00"/><stop offset="1" stop-color="#FC7A4F"/></linearGradient><linearGradient id="boxgojk45" x1="16.14" y1="16" x2="16.14" y2="21" gradientUnits="userSpaceOnUse"><stop stop-color="#12589E"/><stop offset="1" stop-color="#004090"/></linearGradient><linearGradient id="coxgojk45" x1="31" y1="27.5" x2="24.59" y2="27.5" gradientUnits="userSpaceOnUse"><stop stop-color="#004894"/><stop offset="1" stop-color="#6C97C1"/></linearGradient></defs></svg>