<!-- by TradingView --><svg width="56" height="56" viewBox="0 0 56 56" xmlns="http://www.w3.org/2000/svg"><path fill="#F0F3FA" d="M0 0h56v56H0z"/><path d="M31.93 38.26c-1.18.53-2.4 1.28-3.7 2.25a.44.44 0 0 1-.41.07.98.98 0 0 1-.4-.25 22.42 22.42 0 0 0-3.94-2.3c-1.02-.47-2.1-1.11-3.24-1.93a6.4 6.4 0 0 1-1.79-1.8 4.84 4.84 0 0 1-.64-3.64 24.75 24.75 0 0 1 .25-1.25l.45-2.06c.2-.85.26-1.55.19-2.11-.1-.83-.5-1.52-1.22-2.06-.24-.2-.4-.43-.46-.7a.79.79 0 0 1 .25-.78c.62-.6 1.24-1.22 1.86-1.86l1.35-1.34c.16-.16.37-.28.65-.37.24-.07.49-.11.75-.11 3.85-.03 7.97-.02 12.36.01.48 0 .93.22 1.35.64 1.14 1.14 2.22 2.24 3.25 3.3.11.13.17.27.16.44 0 .17-.08.3-.2.42l-.16.13-.55.49c-.2.18-.36.36-.48.53-.31.42-.47.88-.47 1.39-.01.69.07 1.38.24 2.07.04.17.1.42.16.76.08.43.15.76.21.97.28.96.4 1.9.38 2.81a4.41 4.41 0 0 1-.48 1.85c-.18.38-.4.72-.64 1.04-.28.35-.56.63-.86.85-.15.1-.28.22-.4.35a.39.39 0 0 1-.18.1.75.75 0 0 0-.3.2 1 1 0 0 1-.21.16c-.15.07-.36.2-.64.38-.3.2-.55.34-.72.43-.62.3-1.21.61-1.77.92Zm-.76-.8c.43-.27.87-.5 1.33-.72.2-.1.4-.2.59-.33l.6-.35a10.7 10.7 0 0 0 2.26-1.57 4.1 4.1 0 0 0 1.29-2.5c.05-.24.04-.48 0-.7-.26-1.16-.5-2.3-.72-3.42-.08-.36-.13-.7-.16-1.03-.04-.38-.09-.77-.15-1.15a2.23 2.23 0 0 1 0-.6 7.63 7.63 0 0 1 .16-.87c.03-.13.11-.3.25-.52l.14-.2c.16-.3.48-.67.95-1.14.06-.05.06-.11 0-.17l-2.56-2.54c-.4-.4-.85-.6-1.36-.59-3.93.04-7.9.04-11.9 0-.16 0-.31.02-.46.05-.24.05-.4.1-.46.18-.42.44-.84.85-1.27 1.24l-1.67 1.69c-.04.04-.04.09 0 .13a4.24 4.24 0 0 1 1.52 3.93c-.1.82-.33 1.95-.68 3.39-.17.66-.26 1.3-.3 1.93-.04.95.24 1.76.83 2.44a11.4 11.4 0 0 0 3.37 2.45l5.05 2.61a.2.2 0 0 0 .2 0l3.15-1.64Zm.25.3c1.43-.64 2.78-1.4 4.07-2.26a5.1 5.1 0 0 0 1.74-1.9c.41-.81.55-1.66.42-2.55-.08-.51-.23-1.3-.47-2.34-.24-1.09-.4-1.9-.48-2.45-.12-.8-.02-1.53.3-2.19a4.4 4.4 0 0 1 1.45-1.65.1.1 0 0 0 .04-.08.1.1 0 0 0-.03-.08A205.28 205.28 0 0 0 35.11 19a1.28 1.28 0 0 0-.92-.33c-4.92-.02-9.1-.02-12.56 0-.41 0-.74.12-.98.35l-1.23 1.18-2.05 2.02a.17.17 0 0 0-.05.14c0 .05.02.1.07.13a3.84 3.84 0 0 1 1.7 2.54c.1.62 0 1.51-.27 2.68-.23.98-.44 1.92-.62 2.83a4.39 4.39 0 0 0 1.3 4.32c.26.25.53.47.81.67a23 23 0 0 0 2.12 1.27 72.74 72.74 0 0 0 2.98 1.51c.88.44 1.69.96 2.42 1.57.04.02.07.03.1 0l.32-.24c.39-.3.69-.52.9-.64.75-.44 1.5-.84 2.27-1.23ZM28.17 10c.25.43.25.82.01 1.18-.04.06-.03.12.04.15.1.05.17.12.22.21.05.1.12.1.2.04.13-.1.27-.2.42-.28.32-.19.57-.15.75.11.08.11.13.24.17.4.02.16.03.31 0 .46-.13.9-.37 1.75-.72 2.56-.04.1-.12.15-.22.15-.8.04-1.54.02-2.2-.06a.15.15 0 0 1-.13-.1 9.69 9.69 0 0 1-.7-2.42 1.86 1.86 0 0 1 0-.4c.01-.19.04-.34.09-.48.13-.37.34-.46.65-.28.22.14.44.24.65.3.07.02.13.01.19-.04.2-.19.22-.38.06-.58a.43.43 0 0 1-.1-.25c-.01-.1.01-.19.06-.27l.2-.3c.05-.08.03-.12-.04-.15l-.2-.06c-.09-.03-.1-.09-.06-.17a.24.24 0 0 1 .21-.12c.07 0 .11-.04.13-.1a1 1 0 0 0 .02-.46l.01-.02.06-.02c.04 0 .06 0 .07.04l.14.45c.02.07.07.11.14.13l.15.09c.07.06.06.1-.02.15a.35.35 0 0 1-.2.04c-.07 0-.09.03-.05.1ZM26.39 14.75c.05.1.01.16-.1.16l-1.29.02a.4.4 0 0 1-.36-.2c-.18-.28-.3-.58-.34-.9-.06-.31-.05-.62.03-.91a1.92 1.92 0 0 1 1.2-1.34.06.06 0 0 1 .1.06c-.03.97.22 2 .76 3.11ZM29.7 14.65c.34-.7.57-1.46.68-2.3.03-.21.02-.44-.03-.66-.01-.03 0-.06.03-.09a.09.09 0 0 1 .09-.02c.32.1.58.28.79.5.2.22.33.47.42.77.07.28.1.58.05.9-.04.31-.13.62-.28.91a.44.44 0 0 1-.41.26l-1.17.02c-.21 0-.27-.1-.17-.29Z" fill="#95979B"/><path d="m17 17.99-.25.42c-.26.44-.46.76-.61.96-.25.35-.5.6-.77.77a.34.34 0 0 1-.19.06h-.63a.17.17 0 0 0-.16.1c-.4.83-.73 1.61-1 2.34-.16.46-.3 1.02-.4 1.67-.06.39-.13.99-.2 1.8-.08.74-.15 1.29-.2 1.64-.03.15 0 .3.08.45.13.23.21.21.24-.06.07-.78.18-1.53.3-2.24.03-.17.1-.3.22-.4.22-.2.32-.15.32.14 0 .75-.04 1.48-.13 2.2-.05.51-.29.76-.7.74a.1.1 0 0 0-.1.04.11.11 0 0 0-.02.1c.06.5.11 1.03.15 1.55.04.51.11.98.23 1.42a16.48 16.48 0 0 0 2.65 5.63 15 15 0 0 0 6.57 5.05c.71.29 1.99.64 3.84 1.07.04 0 .08 0 .12-.03a.14.14 0 0 0 .05-.12v-.05c0-.06-.03-.1-.08-.1-.68-.14-1.3-.29-1.86-.44a1.68 1.68 0 0 1-1.08-.85.1.1 0 0 1 0-.12.1.1 0 0 1 .12-.04c.54.13 1.1.24 1.7.33.73.11 1.19.52 1.35 1.2.02.07.05.11.1.15.34.22.75.35 1.24.4.5.01 1.03-.1 1.58-.34a.18.18 0 0 0 .12-.16c.03-.35.14-.6.35-.78.35-.29.72-.45 1.1-.5.5-.05 1.02-.15 1.58-.3.03 0 .06 0 .09.04.02.02.03.06 0 .1-.28.6-.79.94-1.5 1.02-.47.06-.94.16-1.4.3-.09.04-.12.1-.07.2l.02.04c.02.04.05.05.1.05a20 20 0 0 0 4.33-1.22l1.14-.57a14.4 14.4 0 0 0 5.13-4.62c.04-.06.04-.12-.02-.17a.94.94 0 0 1-.35-.58 1.7 1.7 0 0 1 .04-.68c.05-.18.11-.34.2-.5.3-.46.58-.94.85-1.43.1-.19.2-.19.3 0 .08.14.11.3.11.47.01.27-.06.52-.2.74a7.4 7.4 0 0 0-.83 1.7c-.01.05 0 .1.04.14.05.04.09.03.12-.02a16.42 16.42 0 0 0 2.75-7.91c.01-.13-.05-.18-.17-.17a.74.74 0 0 1-.5-.14.54.54 0 0 1-.23-.35 12.8 12.8 0 0 1-.22-2.82c0-.08.04-.1.1-.06.44.21.66.63.68 1.25.02.54.02 1.06.02 1.55 0 .08.03.15.1.2l.09.08c.07.06.11.05.12-.05 0-.08 0-.18-.03-.32a1.48 1.48 0 0 1-.03-.33c.05-.79.03-1.67-.06-2.65a1.02 1.02 0 0 0-.27-.6.24.24 0 0 0-.15-.07c-.6-.09-.99-.45-1.17-1.1l-.51-1.71c-.1-.28 0-.36.26-.22.39.2.67.54.84 1.04.16.5.33.97.5 1.42.03.1.08.16.16.2.07.04.1.02.08-.06-.27-1.24-.69-2.44-1.25-3.61-.03-.07-.08-.1-.16-.08-.48.14-.93 0-1.36-.44a4.04 4.04 0 0 1-.5-.65 13.5 13.5 0 0 1-.67-1.14c-.1-.17-.05-.25.14-.23l.2.02c.24.03.44.14.6.33.36.45.7.91 1.02 1.39.1.14.22.25.37.34.08.05.1.04.04-.05a43.47 43.47 0 0 0-2.08-3.06.25.25 0 0 0-.18-.1.26.26 0 0 0-.2.05c-.36.29-.85.21-1.47-.22a9.32 9.32 0 0 1-1.48-1.37.08.08 0 0 1-.02-.09.08.08 0 0 1 .07-.05c.5-.1.94 0 1.32.32.45.38.92.76 1.41 1.12.02.02.03.01.04 0l.06-.06v-.02a16.97 16.97 0 0 0-1.8-1.69 7.09 7.09 0 0 0-2.49-1.28 3.57 3.57 0 0 1-1.21-.63 2.36 2.36 0 0 0-.5-.3.2.2 0 0 1-.11-.15c-.01-.06.01-.1.08-.1a2.96 2.96 0 0 1 2.62.82c.4.4.85.77 1.33 1.1a16.13 16.13 0 0 1 6.83 12.24c.11 1.7.01 3.29-.3 4.76-.22 1.1-.62 2.27-1.18 3.49a15.75 15.75 0 0 1-8.81 8.24c-1.1.33-2.22.62-3.38.87-.2.04-.2.1 0 .17.13.05.29.07.45.07.65 0 1.26-.02 1.83-.07a.8.8 0 0 1 .43.08c.14.06.27.15.38.25.13.12.11.2-.07.2-.56.05-1.15.13-1.77.27-.37.07-.68.06-.93-.05-.3-.12-.5-.35-.61-.7-.03-.08-.08-.1-.15-.1l-.85.17c-.11.02-.12.07-.02.13l.92.65c.03.03.05.06.06.1 0 .04-.01.08-.04.11l-.05.05a.07.07 0 0 1-.06.02c-.02 0-.04 0-.05-.03-.35-.4-.8-.66-1.36-.8-.49.07-.98.25-1.47.56a.17.17 0 0 0-.07.07.47.47 0 0 0-.02.05c-.06.12-.09.1-.1-.02 0-.1.05-.18.13-.24.24-.16.49-.33.74-.52.09-.07.08-.1-.03-.13l-.85-.17c-.06 0-.1.01-.12.07-.23.64-.67.9-1.33.8l-2-.33c-.1-.01-.1-.05-.05-.12.3-.31.67-.48 1.11-.5.19 0 .4.02.64.06a12.08 12.08 0 0 1 .93.21c.1.02.19.02.28-.02a.73.73 0 0 0 .21-.12c.06-.05.06-.08-.02-.1a16.07 16.07 0 0 1-12.65-10 18.86 18.86 0 0 1-1.03-8.08 15.81 15.81 0 0 1 3.22-8.15 27 27 0 0 1 1.68-1.83c.58-.56 1.2-1.1 1.88-1.6.26-.2.62-.5 1.07-.9.22-.19.38-.34.5-.43.31-.28.7-.47 1.17-.59.42-.1.86-.14 1.3-.1.04 0 .06.03.07.06.02.03.01.06-.01.08a4.74 4.74 0 0 1-2.28 1.28 5.4 5.4 0 0 0-1.93.98 16.47 16.47 0 0 0-4.66 5.4c-.02.04 0 .07.04.07l.1.02s.02 0 .03-.02c.34-.4.64-.81.9-1.23.15-.26.35-.47.6-.65.28-.21.56-.3.82-.3.06.01.1.05.09.11 0 .05-.03.1-.08.15ZM39.5 15.88l-1.7-1.71a.15.15 0 0 1-.04-.08l-.16-.88c-.01-.08.01-.13.08-.16.07-.04.12-.03.18.02l1.68 1.7.04.08.17.9c0 .07-.02.13-.08.16-.07.04-.13.03-.18-.03ZM16.7 14.74c.44-.54.98-1.09 1.62-1.64a.11.11 0 0 1 .12-.02c.05.02.07.05.08.1.06.4-.05.77-.32 1.1-.45.55-.98 1.08-1.6 1.61a.1.1 0 0 1-.1.02.1.1 0 0 1-.06-.07c-.09-.4 0-.76.27-1.1Z" fill="#95979B"/><path d="M17.05 16.64c.42-.3.82-.65 1.2-1.04a2.08 2.08 0 0 1 1.84-.68c.15.02.16.07.04.15-.2.13-.49.37-.84.7-.4.38-.72.64-.95.76-.39.21-.81.28-1.27.22-.03 0-.04-.02-.05-.05 0-.03 0-.05.03-.06ZM30.91 15.28H25.1a.1.1 0 0 0-.09.1v.51c0 .05.04.1.09.1h5.82a.1.1 0 0 0 .09-.1v-.52a.1.1 0 0 0-.09-.1ZM15.13 17.21c-.02.27-.1.54-.24.83a7.67 7.67 0 0 1-.68 1.12.48.48 0 0 0-.06.2c-.02.14-.09.23-.2.28-.07.03-.12 0-.15-.06-.15-.42-.18-.75-.1-1 .14-.49.44-1.03.9-1.63l.28-.47c.04-.05.08-.06.13 0 .14.16.18.4.13.73ZM41.94 19.13l-.67-1.07a2 2 0 0 1-.19-1.6c.01-.03.03-.05.06-.06.04 0 .06 0 .08.03.44.6.8 1.2 1.1 1.8.18.38.2.82.08 1.32a.22.22 0 0 1-.1.14.15.15 0 0 1-.18 0 .2.2 0 0 1-.08-.14l-.01-.1a.7.7 0 0 0-.09-.32Z" fill="#95979B"/><path d="M19.8 24.04a3.7 3.7 0 0 0-.32-.77c-.24-.4-.5-.75-.76-1.06a.17.17 0 0 1-.04-.13c0-.05.02-.09.06-.12.73-.67 1.47-1.4 2.22-2.18.23-.25.49-.37.76-.37 4.1-.04 8.16-.04 12.2 0 .37 0 .71.17 1.03.48l2.07 2.08c.08.09.08.17 0 .25a5.47 5.47 0 0 0-1 1.61c-.15.35-.24.76-.3 1.22-.05.49-.04.92.04 1.3.3 1.58.75 3.14 1 4.72.05.36.06.7.02.98a3.97 3.97 0 0 1-1.7 2.72 25.74 25.74 0 0 1-2.6 1.56l-4.48 2.3a.21.21 0 0 1-.2 0l-4.85-2.46a17.36 17.36 0 0 1-2.69-1.79c-.4-.37-.73-.8-.96-1.26a3.19 3.19 0 0 1-.25-1.77c.2-1.87.83-3.67 1.03-5.54.06-.62-.1-1.2-.29-1.77Z" fill="#003270"/><path d="M43.64 23.59c-.17-.6-.31-1.18-.42-1.71-.08-.46.02-.9.3-1.3a.1.1 0 0 1 .13-.04c.05 0 .08.03.1.08.28 1.03.39 2.06.33 3.08a.4.4 0 0 1-.22.33c-.07.04-.1.02-.13-.06a5.83 5.83 0 0 0-.09-.38ZM12.43 20.69a.1.1 0 0 1 .06-.07c.03 0 .06 0 .08.02a1 1 0 0 1 .4.73c.02.23-.02.51-.11.85-.18.62-.33 1.23-.45 1.82-.01.02-.02.03-.05.04-.02 0-.04 0-.05-.02a1.7 1.7 0 0 1-.34-1.24c.08-.68.23-1.4.46-2.13ZM13.25 24.25c.16-.61.34-1.23.53-1.85.18-.6.56-.99 1.14-1.2.1-.02.12 0 .08.1-.25.55-.42 1.1-.52 1.62-.06.32-.19.6-.38.85-.2.26-.47.44-.77.55-.07.03-.1 0-.08-.07Z" fill="#95979B"/><path d="m23.83 23.15-.15.06c-.22.07-.24.03-.06-.12a6.72 6.72 0 0 1 3.73-1.48c1.79-.12 3.4.4 4.87 1.57.03.02.03.05.01.08 0 .02-.02.02-.04.01a10.43 10.43 0 0 0-8.36-.12ZM29.7 30.96c.1-.06.2-.07.26-.03.05.03.08.07.1.13.03.3.16.54.38.73.03.03.07.04.11.04.04 0 .08-.02.11-.05.2-.23.32-.62.34-1.2.02-.4 0-.82-.08-1.25-.07-.42-.31-.59-.72-.5-.06 0-.09-.01-.09-.07l.01-.77a.1.1 0 0 1 .05-.09.1.1 0 0 1 .1-.01c.15.04.29 0 .4-.1.21-.22.3-.61.3-1.2 0-.5-.07-.91-.19-1.26-.05-.13-.15-.19-.3-.17a.25.25 0 0 0-.24.2l-.2 1c0 .05-.02.08-.06.1a.14.14 0 0 1-.11.03c-.1-.02-.15-.09-.17-.19l.01-1.5.15-.07c.03 0 .06-.02.1-.04.3-.11.52-.18.66-.19.24-.02.44.07.6.26.38.44.5 1.21.35 2.3-.05.4-.23.79-.54 1.15-.05.06-.04.11.02.16.33.27.53.73.59 1.36.04.4.02.91-.05 1.55-.03.23-.1.45-.2.64-.12.2-.26.35-.43.45a.85.85 0 0 1-.57.12 1.18 1.18 0 0 1-.64-.33.22.22 0 0 1-.07-.18l.02-1.02ZM25.17 32.37c-.09-.08-.1-.17-.04-.28l.18-.3a.34.34 0 0 0 .05-.17v-6.37c0-.06-.02-.09-.07-.09h-.25c-.07 0-.1.04-.1.12-.03 2.04-.21 4.17-.57 6.39-.04.24-.12.44-.24.6-.17.22-.35.29-.56.2a.16.16 0 0 1-.1-.16v-.81c0-.1.04-.13.13-.13.07 0 .11.04.15.1.05.07.1.07.15.01.12-.13.18-.23.2-.3.39-2.24.51-4.46.37-6.67h1.72c.08 0 .13.03.17.1.03.08.01.15-.04.2-.1.1-.16.2-.2.28-.05.1-.12.22-.12.34v5.95c0 .23.14.47.33.72.04.06.05.12.02.19a.17.17 0 0 1-.16.1l-1.02-.02Z" fill="#F5F5F7"/><path d="M11.1 25.41c-.1-.02-.12-.08-.08-.17.07-.13.16-.14.27-.05.24.22.42.47.57.75.12.25.18.52.18.8l.02 1.49c0 .13.04.25.09.37.06.14.03.17-.1.08a1.77 1.77 0 0 1-.8-1.33c-.05-.53-.05-1.1-.01-1.75 0-.04 0-.08-.04-.12a.18.18 0 0 0-.1-.07ZM44.93 26.18c.08.63.05 1.15-.08 1.57-.11.36-.37.65-.77.86a.1.1 0 0 1-.07.01h-.02c-.02-.02-.02-.03 0-.04a.35.35 0 0 0 .06-.07.2.2 0 0 0 .03-.11v-.53c-.02-.63 0-1.09.05-1.39.1-.5.3-.9.62-1.22a.12.12 0 0 1 .1-.03c.03 0 .06.01.09.04.08.1.08.22 0 .32-.05.06-.05.12 0 .18.04.07.04.14.02.21a.44.44 0 0 0-.03.2Z" fill="#95979B"/><path d="M23.47 30.11c0 .04 0 .08.03.13.05.22.13.4.25.53.11.12.08.22-.08.23h-.72a8.1 8.1 0 0 1-.42-1.68.99.99 0 0 0-.17-.47c-.27-.34-.36-.3-.36.14v1.18c.03.26.1.48.23.64.02.03.02.05 0 .08-.01.03-.03.11-.07.11h-.97c.14-1.38.18-2.88.13-4.31a.93.93 0 0 0-.22-.54c-.07-.08-.05-.15.06-.15h1c.04 0 .07.04.09.08a.1.1 0 0 1-.01.1l-.2.3c-.04.04-.04.09-.04.14v1.07c-.03.72.13.76.49.13.05-.1.1-.3.16-.63.07-.43.15-.72.25-.88.15-.27.4-.36.74-.28.06 0 .09.05.1.1l.01.73c0 .08-.04.13-.12.14l-.07.01c-.06.01-.1-.01-.1-.07a.37.37 0 0 0-.14-.29.12.12 0 0 0-.12-.02.12.12 0 0 0-.08.1l-.25 1a.6.6 0 0 1-.09.19l-.16.24c-.05.07-.04.12.04.15.24.1.4.28.47.54.1.42.22.83.34 1.26ZM33 31h-.87c-.11 0-.14-.06-.07-.15l.18-.25a.32.32 0 0 0 .06-.2V26.6a.3.3 0 0 0-.07-.2l-.2-.24a.08.08 0 0 1-.01-.08c.01-.04.04-.07.07-.07h.92s.23.05.23.14l-.01.05-.15.19a.3.3 0 0 0-.06.18L33 28.1c0 .12.05.16.16.11l.08-.03a.32.32 0 0 0 .2-.25c.1-.56.23-1.07.4-1.51.1-.32.34-.46.69-.41.07.01.12.04.16.1.04.06.05.12.04.18-.04.18-.04.36 0 .54.03.1-.01.15-.1.17l-.07.02c-.1.02-.14-.02-.14-.12 0-.17-.07-.25-.22-.24a.16.16 0 0 0-.1.04.15.15 0 0 0-.06.1c-.05.59-.2 1.06-.47 1.4-.05.06-.03.1.05.13.22.06.38.23.46.49.16.54.3 1.05.4 1.53.03.18.13.35.29.5.09.1.07.15-.06.15h-.71c-.09 0-.14-.05-.16-.13-.14-.58-.27-1.19-.4-1.82a.57.57 0 0 0-.21-.33.2.2 0 0 0-.08-.04c-.13-.04-.18 0-.17.13.03.5.04 1.01.02 1.5-.01.2.05.36.18.52.05.05.04.1-.03.14a.3.3 0 0 1-.15.03ZM29.2 31.03l.01-1.2a3.04 3.04 0 0 0-.54-1.47.15.15 0 0 1-.01-.18c.36-.6.53-1.31.53-2.1 0-.37-.02-.65-.05-.85-.05-.3-.14-.56-.27-.8a.78.78 0 0 0-.44-.37 2.45 2.45 0 0 0-.78-.06c-.25 0-.51 0-.78.03-.07.01-.1.05-.1.1 0 .14.03.3.1.52.09.22.12.4.12.53v6.7c0 .13-.04.31-.12.54l-.1.28c-.04.2.04.3.26.29h.3c.36.02.63.01.8-.01.3-.04.5-.13.6-.28.3-.44.46-1 .48-1.67Zm-1.51-6.2c0-.02 0-.03.03-.03h.2c.16 0 .3.12.4.35.12.23.18.51.18.84v.8c0 .33-.07.6-.18.84-.12.23-.25.35-.41.35h-.2c-.02 0-.03-.01-.03-.03v-3.13Zm0 3.88c0-.01 0-.02.02-.02h.08c.2 0 .38.1.52.32.15.22.22.48.22.79v1.3c0 .31-.08.57-.22.8-.15.2-.32.32-.52.32h-.09c-.02 0-.03-.01-.03-.03l.01-3.48Z" fill="#F5F5F7"/><path d="M42.27 29.59c-.04-.06-.03-.12.01-.18.1-.13.18-.12.25.03a2.18 2.18 0 0 1 .18 1.88c-.14.41-.25.82-.31 1.24-.06.35-.17.37-.35.06a1.7 1.7 0 0 1-.2-.71c-.01-.2.01-.43.07-.66l.39-1.47a.21.21 0 0 0-.04-.2ZM13.76 32.8l-.52-2.55v-.09l.3-.65c.03-.06.08-.1.15-.08.06 0 .1.04.12.1l.56 2.34v.09l-.34.86c-.03.06-.07.1-.15.09-.07 0-.1-.05-.12-.12ZM44.76 30.58c-.12.47-.24.95-.39 1.43-.16.55-.48.94-.94 1.17a.22.22 0 0 1-.2 0 .15.15 0 0 1-.08-.09.15.15 0 0 1 0-.13c.11-.19.23-.53.37-1.03.15-.55.29-.93.42-1.16.22-.37.53-.59.91-.66.14-.02.17.03.08.14l-.04.05a.73.73 0 0 0-.13.28ZM12.89 33.17c-.3-.03-.54-.17-.75-.44-.16-.22-.29-.5-.38-.85-.14-.51-.3-1.05-.48-1.6a.08.08 0 0 1 .09-.1c.33.03.61.22.82.56.15.23.28.56.38.97.1.46.24.9.4 1.35a.08.08 0 0 1-.08.11ZM15.04 35.46a3.14 3.14 0 0 1-.42-.94c-.08-.35-.06-.69.07-1.01a.08.08 0 0 1 .07-.06c.04 0 .07.02.09.05.34.55.65 1.08.93 1.59.3.52.33 1.08.09 1.67-.04.1-.09.1-.13 0l-.02-.04c-.28-.57-.5-.99-.68-1.26Z" fill="#95979B"/><path d="M23.41 33.62c.05-.03.09-.04.12-.02a10.38 10.38 0 0 0 8.44.14c.21-.09.23-.05.07.11-.15.15-.3.29-.48.4a7 7 0 0 1-4.07 1.08A7.14 7.14 0 0 1 23.8 34c-.15-.11-.28-.24-.39-.38Z" fill="#F5F5F7"/><path d="M15.15 37.23c.02.01.02.04 0 .06 0 .02-.02.03-.05.03-.46-.04-.85-.2-1.16-.5a2.77 2.77 0 0 1-.38-.44l-.32-.51a6.14 6.14 0 0 0-.67-.95c-.1-.12-.08-.17.08-.16.7.07 1.27.51 1.68 1.31.22.42.5.8.82 1.16ZM41.93 35.87c.15-.28.35-.53.6-.74.3-.25.58-.37.86-.37a.1.1 0 0 1 .1.06.1.1 0 0 1-.01.1c-.3.47-.58.95-.86 1.44-.12.23-.25.4-.37.52s-.25.2-.4.26c-.08.03-.22.07-.41.1l-.33.08c-.16.05-.18 0-.07-.12.34-.4.64-.84.9-1.33ZM17.06 38.22a1.27 1.27 0 0 1-.23-.52c-.05-.2-.05-.39-.02-.58 0-.04.02-.06.05-.07.03 0 .06 0 .08.02a11 11 0 0 1 1.63 1.62c.23.3.32.66.27 1.1-.02.1-.06.12-.14.05a10.12 10.12 0 0 1-1.64-1.62ZM39.29 37.49a2 2 0 0 1-.46 1.04c-.16.2-.45.46-.85.8l-.52.45a.07.07 0 0 1-.07.02.07.07 0 0 1-.05-.06c-.1-.42.01-.82.32-1.2.21-.27.55-.56 1-.87a2.86 2.86 0 0 0 .55-.5c.13-.15.17-.12.12.06l-.04.26ZM38.13 40.68a.08.08 0 0 1-.07-.06.08.08 0 0 1 .03-.09c.49-.45.97-.9 1.45-1.32.4-.35.86-.48 1.4-.36.03 0 .05.02.06.06.01.03 0 .06-.02.09l-1.49 1.34c-.37.33-.83.45-1.36.34ZM18.12 40.53l.02.04c0 .02-.02.03-.03.03-.31.1-.63.1-.95 0-.32-.1-.58-.27-.8-.51a6.54 6.54 0 0 0-1.18-1.04c-.14-.1-.13-.15.04-.18.3-.04.6-.02.87.06.28.09.52.24.73.46.42.45.85.83 1.3 1.14ZM35.2 41.36c-.52.2-.99.48-1.4.83a.05.05 0 0 1-.06 0 .05.05 0 0 1-.03-.04c0-.59.24-1.04.74-1.37l1.7-.87c.22-.12.3-.06.2.18a2.07 2.07 0 0 1-1.15 1.27ZM19.92 39.89c.52.23 1.07.5 1.63.8a1.77 1.77 0 0 1 .92 1.21c.03.18-.03.23-.19.15-.57-.29-1.15-.6-1.72-.95a1.7 1.7 0 0 1-.51-.47c-.14-.2-.23-.4-.27-.64-.02-.12.03-.15.14-.1ZM21.88 42.79c.2.06.21.14.03.25l-.3.18a.58.58 0 0 1-.53.05c-.62-.23-1.19-.5-1.71-.77a1.16 1.16 0 0 0-.3-.1 1.26 1.26 0 0 1-.27-.08.14.14 0 0 1-.08-.14c0-.06.03-.1.1-.13a2 2 0 0 1 1.14-.08c.22.06.54.19.97.4.4.21.72.35.95.42ZM36.44 42.72l-1.06.47c-.24.1-.48.12-.72.05a2.33 2.33 0 0 1-.36-.13c-.2-.1-.2-.2 0-.3l1.37-.68c.53-.24 1-.3 1.4-.18.41.13.42.28.03.47l-.66.3Z" fill="#95979B"/></svg>