<?xml version="1.0" standalone="no"?>
<!DOCTYPE svg PUBLIC "-//W3C//DTD SVG 20010904//EN"
 "http://www.w3.org/TR/2001/REC-SVG-20010904/DTD/svg10.dtd">
<svg version="1.0" xmlns="http://www.w3.org/2000/svg"
 width="160.000000pt" height="160.000000pt" viewBox="0 0 160.000000 160.000000"
 preserveAspectRatio="xMidYMid meet">

<g transform="translate(0.000000,160.000000) scale(0.100000,-0.100000)"
fill="#000000" stroke="none">
<path d="M611 974 c-12 -19 -21 -37 -21 -40 0 -2 15 -4 33 -4 28 0 37 6 56 40
l22 40 -34 0 c-29 0 -38 -6 -56 -36z"/>
<path d="M70 735 l0 -157 120 4 c108 3 122 5 142 25 29 30 30 84 0 116 -19 20
-20 25 -8 37 28 29 29 65 3 96 -25 28 -28 29 -141 32 l-116 4 0 -157z m195 65
c0 -24 -3 -25 -62 -28 l-63 -3 0 31 0 31 63 -3 c59 -3 62 -4 62 -28z m13 -122
c4 -35 -24 -50 -86 -46 -47 3 -47 3 -50 41 l-3 38 68 -3 c65 -3 68 -4 71 -30z"/>
<path d="M508 818 c-25 -40 -68 -110 -96 -155 l-52 -83 42 0 43 0 73 119 c39
65 72 122 72 127 0 5 -9 22 -19 37 l-18 29 -45 -74z"/>
<path d="M804 880 c-28 -11 -64 -58 -64 -82 0 -27 26 -74 47 -84 10 -4 56 -10
103 -13 76 -5 85 -8 85 -26 0 -19 -8 -20 -107 -23 -60 -1 -108 -5 -108 -8 0
-3 8 -19 18 -36 l17 -30 103 4 c99 3 105 4 128 31 32 37 32 87 0 124 -22 26
-31 28 -117 33 -86 5 -94 7 -94 25 0 18 8 21 83 25 81 5 84 6 103 38 l21 32
-99 -1 c-54 0 -108 -4 -119 -9z"/>
<path d="M1100 735 l0 -155 35 0 35 0 0 155 0 155 -35 0 -35 0 0 -155z"/>
<path d="M1269 875 c-55 -30 -62 -119 -11 -153 17 -11 54 -19 111 -22 78 -5
86 -7 86 -25 0 -19 -8 -20 -107 -23 -60 -1 -108 -5 -108 -8 0 -3 7 -18 15 -34
15 -30 16 -30 108 -30 54 0 102 6 117 13 57 29 64 121 13 154 -18 12 -55 19
-112 23 -78 4 -86 7 -86 25 0 18 8 21 83 25 81 5 84 6 103 38 l21 32 -104 0
c-69 -1 -112 -5 -129 -15z"/>
<path d="M594 756 c-16 -33 -16 -34 26 -105 41 -69 44 -71 81 -71 22 0 39 3
39 6 0 8 -121 204 -126 204 -2 0 -12 -15 -20 -34z"/>
</g>
</svg>
