<!-- by TradingView --><svg width="56" height="56" viewBox="0 0 56 56" xmlns="http://www.w3.org/2000/svg"><path fill="#F0F3FA" d="M0 0h56v56H0z"/><path d="M12.98 33.22c-2.6 0-3.98-2.1-3.98-4.15 0-.37.05-.73.1-1.09.42-2.64 2.33-5.16 3.88-5.16 1.78 0 4.02 3.3 4.02 6.2 0 .27 0 .53-.04.78a3.93 3.93 0 0 1-3.98 3.42ZM18.6 21H7.4A1.39 1.39 0 0 0 6 22.4v11.2A1.38 1.38 0 0 0 7.4 35h11.2a1.4 1.4 0 0 0 1.4-1.4V22.4a1.4 1.4 0 0 0-1.4-1.4ZM33 24v8h2v-6h2.13l.14-2H33Zm-3.92 4.16L27.92 31h-1.35l-1.25-2.89h-.12L25 32h-2l.47-8h1.96l1.77 4.5h.12l1.72-4.5h2l.44 8h-2.05l-.23-3.84h-.12Zm9-2.16H40v6h2v-6h2.19l.12-2h-6.36l.12 2Zm10.01 4c.6 0 1.17 0 1.77-.08l.14 1.9c-.7.1-1.42.17-2.14.18-2.25 0-3.36-.65-3.36-3.05v-1.9c0-2.15.91-3.05 3.4-3.05.68.01 1.35.07 2.02.17l-.14 1.95c-.58-.09-1.14-.12-1.72-.12-1.23 0-1.56.32-1.56 1.4v1.25c0 1.03.37 1.35 1.56 1.35h.03Z" fill="#0085C3"/></svg>