<!-- by TradingView --><svg width="56" height="56" viewBox="0 0 56 56" xmlns="http://www.w3.org/2000/svg"><path fill="#FFC536" d="M0 0h56v56H0z"/><path d="M38 27h-6v10h-4V27h-3v-4h3v-1.45c0-1.4.47-2.5 1.35-3.32a5.08 5.08 0 0 1 3.6-1.23H40v4h-6.5c-.96 0-1.5.5-1.5 1.4v.6h6v4ZM16.15 37c-2.57 0-4.6-.46-6.03-1.36C8.72 34.75 8 33.64 8 32h3.63c0 1.5 3.53 1.5 4.58 1.5 2.7 0 3.79-.36 3.79-1.27v-.15c0-1-1.29-1.12-2.05-1.19l-.15-.01-3.57-.4c-2.03-.23-3.52-.7-4.44-1.4a3.53 3.53 0 0 1-1.37-2.97v-.31c0-1.5.67-2.68 2-3.52 1.36-.85 3.28-1.28 5.7-1.28 2.52 0 4.48.45 5.82 1.34 1.33.88 2 2 2 3.66h-3.62c0-1.39-3.25-1.5-4.3-1.5-.81 0-3.77 0-3.77 1.12v.18c0 .36.08.63.42.81.32.18.83.3 1.56.39l3.63.4c2.15.25 3.73.73 4.7 1.43.96.7 1.44 1.72 1.44 3.03v.31c0 1.52-.7 2.7-2.05 3.55-1.38.85-3.33 1.28-5.8 1.28Zm31.32-15.54c-.63.63-2.66.71-3.62.22-.6.28-.85.82-.85 1.59V37h-4V23h.39c3.15-.1 3.6-3.69 3.63-3.98.06-.63.23-1.2.52-1.49.7-.7 3.22-.7 3.93 0 .7.7.7 3.22 0 3.93Z" fill="#3F3F3F"/></svg>