<!-- by TradingView --><svg width="56" height="56" viewBox="0 0 56 56" xmlns="http://www.w3.org/2000/svg"><path fill="#F0F3FA" d="M0 0h56v56H0z"/><path fill-rule="evenodd" d="m31.76 30.15 2.35 5.12 2.28-5.09L34.1 32l-2.33-1.85Zm3.8-2.84-1.36-10.7-1.41 10.68 1.36 2.69 1.4-2.67Zm-.49-13.03 2.05 14.88 6.16.89c.08-.62.13-1.26.13-1.9h-6.05v-.3h6.1a15.56 15.56 0 0 0-6.76-12.66l-.84.33v-.25l.5-.23c-.42-.27-.85-.52-1.29-.76Zm-1.63-.74-2.16 15.64-14.16 1.84 14.42 2.15 2.67 5.19 2.66-5.2 5.96-.97a15.58 15.58 0 0 1-5.99 8.42l.04.02a21.66 21.66 0 0 0-4.24-1.37c.3-.4.56-.81.8-1.24l-.14-.28c-.28.51-.59 1-.93 1.46-1.42-.28-2.8-.42-4.24-.41V33h-.3v5.79c-1.45.02-2.88.16-4.3.42-.42-.58-.79-1.2-1.1-1.84a20.28 20.28 0 0 1-1.8-5.44h-.33c.34 1.93.96 3.8 1.82 5.56.32.62.7 1.22 1.11 1.79-1.47.29-2.91.73-4.3 1.32a15.49 15.49 0 0 1-6.4-12.44h7.51c0 .66 0 1.27.1 1.92h.26c-.1-.67-.1-1.27-.1-1.92h7.53V29h.3v-.8h2.76v-.3h-2.76V16.97c1.39-.03 2.36-.06 4.05-.35l.08-.38a16.26 16.26 0 0 0-3.68-3.72c1.67.08 3.31.42 4.86 1.02Zm.08-.56a16 16 0 0 0-5.44-.98h-.16a16 16 0 1 0 15.55 20.09L50 31.02l-6.14-.89a16.02 16.02 0 0 0-8.88-16.53L34.2 8l-.7 4.98Zm-5.39 26.08v4.2a19.3 19.3 0 0 0 4.04-3.84 20.86 20.86 0 0 0-4.04-.36Zm4.4.42a20.3 20.3 0 0 1-4.26 4c3-.05 5.9-.98 8.36-2.66a22.04 22.04 0 0 0-4.1-1.34Zm-8.8-.02a19.9 19.9 0 0 0 4.1 3.85v-4.25c-1.38.02-2.75.15-4.1.4Zm-.3.08c-1.46.28-2.88.71-4.24 1.28 2.48 1.7 5.4 2.65 8.41 2.71a20.16 20.16 0 0 1-4.18-3.99Zm-.04-22.97a20.6 20.6 0 0 1-4.2-1.3 15.47 15.47 0 0 0-6.67 12.6h7.5c0-3.4.83-6.75 2.42-9.76.3-.53.62-1.04.95-1.54Zm3.85-4a15.44 15.44 0 0 0-7.8 2.55c1.31.56 2.69.98 4.1 1.26a16.49 16.49 0 0 1 3.7-3.81Zm.6 15.34v-10.9l-.16.01a21.5 21.5 0 0 1-4-.36c-.35.5-.68 1.05-.98 1.6a20.67 20.67 0 0 0-2.4 9.65h7.53Zm0-11.2v-4.2h-.07a15.99 15.99 0 0 0-3.93 3.87c1.27.22 2.55.33 3.84.33h.15Zm.36-4.2h-.08l.01 4.2c1.34 0 2.61-.11 3.93-.33a16.01 16.01 0 0 0-3.86-3.87Z" fill="#006BAE"/></svg>