<!-- by TradingView --><svg xmlns="http://www.w3.org/2000/svg" width="56" height="56" viewBox="0 0 56 56"><path fill="#15316C" d="M0 0h56v56H0z"/><path fill-rule="evenodd" d="M35.34 20.72c0-3.53-3.37-6.26-7.33-6.26-3.98 0-7.34 2.72-7.35 6.26 0 1.12.35 2.27 1.07 3.3 1.87-1.75 3.52-4.98 4.17-8.8.07-.04.63-.17 1.07-.2 0 .56-.47 8.77-3.38 11.68a8 8 0 0 1 2.66-14.5c.2-2.58.2-3.92.2-5.2h.64l-.04 5.06c.22-.03.43-.05.67-.06l.01-8h.53v8l.22.02.46.04L28.9 7h.64v.42c.02 1.16.04 2.47.2 4.77A8 8 0 0 1 36 20.01a8.07 8.07 0 0 1-3.6 6.7c-2.9-2.92-3.37-11.13-3.37-11.69.44.03 1 .16 1.07.2.64 3.82 2.3 7.04 4.17 8.8a5.95 5.95 0 0 0 1.07-3.3Zm-7.77-5.76c-.24 6.76-.89 10.62-2.06 12.65a8.04 8.04 0 0 0 4.97 0c-1.16-2.02-1.8-5.88-2.05-12.65h-.86ZM8.38 38h2.02l3.09-6h-2.02l-1.2 2.55L9.08 32H7l2.3 4.3-.92 1.7Zm11.84 0h-1.96l2.41-6h2.1l1.98 5.05L26.77 32h2.04l2.45 6h-1.97l-1.48-4.27L26.33 38H23.2l-.44-1h-2.09l-.45 1Zm1.45-4.27.66 1.96h-1.27l.61-1.96ZM33.63 38H36v-1.62h-1.4c-1.06 0-1.63-.3-1.63-1.27 0-.98.56-1.28 1.63-1.28H36V32h-2.35c-1.5 0-2.65 1.2-2.65 3.14 0 1.7 1.15 2.86 2.63 2.86ZM43 38h-2v-4.18L39.07 38H37v-6h2v3.67L40.76 32H43v6Zm6-1.9c0-.64-.25-1.83-1.88-1.83h-1.45v-.77H48V32h-4v6h3.14c1.61 0 1.86-1.2 1.86-1.9Zm-3.33-.58h1.14a.63.63 0 1 1 0 1.26h-1.14v-1.26ZM13.92 38h1.84v-1.98h1.63c1.79 0 1.79-1.55 1.79-1.95 0-.37 0-2.07-1.8-2.07h-3.46v6Zm1.84-4.65h1.25a.64.64 0 1 1 0 1.28h-1.25v-1.28ZM19 48h1.73c.88 0 1.66-.53 1.66-1.46 0-1.03-.68-1.54-1.67-1.54H20v-1h2v-1h-3v5Zm16.78 0H37l-2.1-2.75L37 43h-1.22L34 45.14V43h-1v5h1v-2.5l1.78 2.5ZM20 46h.95a.5.5 0 0 1 0 1H20v-1Zm12 2h-1v-2h-2v2h-1v-5h1v2h2v-2h1v5Zm-4.73 0h-1.06l-.4-1h-1.95l-.4 1h-1.03l1.88-5h1.08l1.88 5Zm-2.44-4 .77 2h-1.52l.75-2Z" fill="#fff"/></svg>