<!-- by TradingView --><svg xmlns="http://www.w3.org/2000/svg" width="56" height="56"><path d="M0 28a28 28 0 1156 0 28 28 0 01-56 0z" fill="#F0F3FA"/><path d="M26.5 25H19l1-1h6.91L30 27l-.7.7-2.8-2.7z"/><path d="M25.8 27H17l1-1h8.2l2.5 2.5-1.35 1.35-.7-.7.64-.65-1.5-1.5zm7.2 2.5L29.4 33h-6.2l.95-1h4.84l3.3-3.2.71.7z"/><path d="M31.4 28.2L28.6 31h-3.8l1-1h2.4l2.5-2.5.7.7zm-7.9-.2l-4.9 5h-1.4l5-5h1.3zm-2.1 5l4.07-4.15-.72-.7L20 33h1.4z"/><path d="M25.91 19.67c4.4-3.74 8.8-6.1 12.4-6.65.48-.07 2.3.03 2.7.14 1.07.3 2.01 1.04 2.47 1.9.68 1.29.7 3.45.05 5.81-.9 3.29-3.33 7.58-6.43 11.38-2 2.46-4.79 5.26-7.15 7.2l-.68.55h-2.81l.68-.48a43.46 43.46 0 008.5-8.08c2.3-2.82 3.87-5.22 4.83-7.42 2.45-5.64 1.24-9.34-2.99-9.07-3.51.23-8.8 3.21-13.3 7.5l-.57.55h-1.25l.2-.22a70.9 70.9 0 013.36-3.1z" fill="#073975"/><path d="M25.71 23l.34-.3a23.54 23.54 0 014.73-3.22c2.3-1.16 4.17-1.54 5.49-1.12.41.13.59.24.9.56.92.94 1.04 2.48.37 4.6-.9 2.91-3.09 6.11-6.46 9.47-2.36 2.35-6.9 7.01-11.92 5.82-4.2-1.38-2.28-5.7-2.28-5.7s-1.57 1.52-3.46 3.43L10 39.99l14.39.01.95-.55c6.79-3.96 13.46-12.14 14.62-17.93.22-1.07.18-2.6-.07-3.24a3.1 3.1 0 00-1.95-1.85c-.52-.16-1.99-.2-2.67-.07-2.99.58-6.7 2.77-10.23 6.02l-.67.62h1.34z" fill="#073975"/></svg>