<!-- by TradingView --><svg xmlns="http://www.w3.org/2000/svg" width="56" height="56"><path fill="#013BFE" d="M0 0h56v56H0z"/><path fill-rule="evenodd" d="M48 24.25c0-.74.34-1.25 1-1.25.8 0 1 .7 1 1.22v8.43c0 .2-.18.37-.36.35a.33.33 0 01-.17-.08L43 27.29v4.49c0 .71-.37 1.22-1 1.22-.64 0-1-.51-1-1.25v-8.4c0-.2.18-.37.36-.35.07.01.12.04.17.08L48 28.7v-4.45zM17 24c0-.68.5-1 1.12-1h7.02c.28 0 .4.36.26.56L20 31h4.3c.6 0 1.1.28 1.1 1s-.6 1-1.1 1h-7.62c-.27 0-.4-.35-.26-.56L22 25h-3.76c-.54 0-1.24-.32-1.24-1zm-6 7a3 3 0 100-6 3 3 0 000 6zm0 2a5 5 0 100-10 5 5 0 000 10zm26-5c0 .63-.33 1.34-1.12 1.95A5.58 5.58 0 0132.5 31c-1.4 0-2.58-.43-3.38-1.05-.8-.6-1.12-1.32-1.12-1.95 0-.63.33-1.34 1.12-1.95A5.58 5.58 0 0132.5 25c1.4 0 2.58.44 3.38 1.05.8.61 1.12 1.32 1.12 1.95zm2 0c0 2.76-2.91 5-6.5 5S26 30.76 26 28s2.91-5 6.5-5 6.5 2.24 6.5 5z" fill="#fff"/></svg>