<svg height="282.842712" viewBox="0 0 70.089996 56.360001" width="353.553391" xmlns="http://www.w3.org/2000/svg"><g transform="translate(0 -996.0021)"><g fill="#001999"><path d="m7.1433084 1042.5824c0 .3143 0 .5236-.21587.5236-.108 0-.21613-.2093-.21613-.3138-.3235-.838-.64737-1.9899-2.4820001-1.9899-1.07862 0-2.374.4187-2.374 1.6756 0 1.3616 1.29538 1.9899 2.59013 2.5139 1.1870001.5234 3.3452501 1.2565 3.3452501 3.666 0 1.6756-1.29513 3.5614-4.2087501 3.5614-.97125 0-1.5105-.1053-2.26638-.4197-.86312-.3142-.86312-.6285-.86312-.8378v-.838c0-.9423 0-1.4659.32387-1.4659.32388 0 .21575.3139.32388.6281.10775.8378.43125 2.4088 2.58975 2.4088 1.29475 0 2.8056201-.6282 2.8056201-2.4088 0-1.3616-1.07925-2.0951-2.9136201-2.9327-1.29513-.524-2.91375-1.2568-2.91375-3.1419 0-1.4669 1.18712-2.9328 3.77725-2.9328.64737 0 1.7266201.2094 2.4820001.5238.10775 0 .21587.1041.21587.4187zm57.7346296-1.0474c-.10775-.2095-.32388-.7327-.32388-.838-.10737-.2091-.10737-.4185-.32387-.4185-.21538 0-.21538.2094-.3235.3139 0 .2099-.32388.9426-.43125 1.3618l-3.23788 8.2746c-.4315 1.152-.755 1.152-1.187 1.152-.53962 0-.53962.1045-.53962.2094 0 .2093-.10775.3143-.4315.3143-.647 0-1.29475-.105-2.0505-.105-.64775 0-1.29475.105-1.94288.105-.32312 0-.43125-.2098-.43125-.3143 0-.2094.2155-.2094.3235-.2094.75588 0 1.51125.2094 1.51125-1.4663l-.2165-7.5415c0-.105-.10737-.2095-.10737-.2095s-.108.1045-.108.2095l-3.56138 8.0649c-.3235.7331-.21587.5238-.3235.8384-.10775.1045-.10775.209-.21587.209-.10838 0-.21575-.1045-.21575-.209-.108-.1053-.21575-.3146-.3235-.8384l-3.346-8.0649c-.10763-.105-.21538-.105-.21538.1049l-.3235 7.1224c-.10875 1.9899.53888 1.7805 1.4025 1.7805.10763 0 .21613 0 .21613.1045.10737 0 .10737.1049.10737.1049 0 .2093 0 .3143-.3235.3143-.64775 0-1.18712-.105-1.72675-.105-.64737 0-1.18737.105-1.72662.105-.10838 0-.3235 0-.3235-.3143 0-.2094.21512-.2094.3235-.2094.647 0 1.18737.2094 1.29512-1.5711l.53888-7.5417c.10812-.5236.10812-1.047-.64663-1.1518-.21612 0-.43162 0-.64812 0-.3235 0-.3235-.2098-.3235-.2098 0-.1041 0-.314.3235-.314.54 0 .432.1046 1.51162.1046.21538 0 .53888 0 .75475-.1046h.43188c.21587 0 .21587 0 .3235.314l3.2375 8.0653c.10775.1048.10775.1048.10775.1048s.10812 0 .10812-.1048l3.56138-8.1694c.108-.1053 0-.2099.43187-.2099.53938 0 .86288.1046 1.187.1046.43163 0 .75588-.1046 1.18663-.1046.32425 0 .32425.2099.32425.314 0 .2098-.108.2098-.54.2098-.86275.1048-.97088.2093-.97088 1.2568l.2155 7.8558c.10838.9422.32388 1.152.97113 1.152.54 0 .64775 0 .64775.2094 0 .1045 0 .2093.21612.3143h.2155c.54-.105 1.07925-.105 1.51088-.105.64762 0 1.18662.105 1.727.105.3235 0 .43087-.105.43087-.3143 0-.1049-.10737-.2094-.43087-.2094-.86388 0-1.2955-.2098-1.2955-.6286 0-.2094.10775-.4188.10775-.5234l.7555-2.1996c.10837-.2094 0-.314.54-.314h3.02137c.108 0 .3235 0 .43188.4192l.86275 2.0944c.10887.4189.10887.5234.10887.6286 0 .4189-.54.5234-.86425.4189-.10737 0-.21575 0-.3235 0s-.3235.1045-.3235.3139c0 .2093.21575.3143.53963.3143.64737 0 1.40275-.105 2.05012-.105.64775 0 1.18738.105 1.83513.105.21537 0 .32387 0 .32387-.2098 0-.3139-.1085-.3139-.432-.3139-.53962-.1045-.8635-.2098-1.187-1.0474zm.32387 5.2373c.21575.4185 0 .4185-.10775.4185h-2.80587c-.10775 0-.10775 0-.10775-.1041 0 0 0-.1053 0-.2102l1.40237-3.6652c0-.1053 0-.2094.10813-.2094.10775 0 .10775.1041.10775.2094zm-29.56862-4.1899c0-1.676-.54025-1.3614-1.295-1.4662-.21613 0-.32388 0-.32388-.2098 0-.1041.10775-.314.32388-.314.64737 0 1.187.1046 1.72587.1046h3.56138c.54037 0 1.83512 0 2.26675-.1046.75537 0 .75537 0 .75537.2099v.4187.8377.9432s-.10837.2094-.21612.2094c-.21575 0-.32388-.2094-.32388-.4191-.53962-1.2572-.86312-1.5712-3.45325-1.5712-1.4025 0-1.51025 0-1.51025.6287v3.0372c0 .3144 0 .5238.53938.5238h1.6185c1.29475 0 1.40287-.6287 1.51087-1.047.10813-.2102.21588-.4193.32388-.4193.10775 0 .2155.1045.2155.314 0 .9429-.2155.4191 0 3.2474 0 .2094.10837.5234-.2155.5234-.32388 0-.32388-.314-.43188-.7335-.2155-.9425-.43162-1.3613-2.0505-1.3613h-1.187c-.32325 0-.32325.3139-.32325.5236v3.1423c0 .8376 0 1.676 1.61825 1.676h1.187c1.83513 0 2.26638-.8384 2.69825-1.7805 0-.2099.10775-.4193.32388-.4193 0 0 .21537 0 .21537.2094 0 .5238-.21537.6286-.3235 2.0949-.108.6282-.21575.5237-.54.5237h-2.05012c-1.72663 0-2.914-.105-3.66913-.105-.75575 0-1.40275.105-2.15812.105-.10775 0-.43163 0-.43163-.3143 0-.2094.21538-.2094.32388-.2094.75475 0 1.295.2094 1.295-1.4663zm-3.34588-1.99c.32388 0 .43225 0 .53963-.3139.10812-.2093.10812-.3146.32387-.3146.3235 0 .21575.3146.21575.524v1.4663c-.108.838-.108 1.1518-.32387 1.1518-.32313 0-.32313-.3138-.4315-.6281-.10813-.5237-.43163-1.2569-1.29513-1.2569h-1.94237c-.2155 0-.43125-.1048-.43125.314v8.3795c0 1.2565.21575 1.4663 1.07887 1.4663.3235 0 .64738 0 .64738.2094 0 .2093-.108.3143-.32388.3143-.75537 0-1.40237-.105-2.15812-.105-.75513 0-1.40325.105-2.15788.105-.32425 0-.32425-.105-.32425-.3143 0-.2094.10775-.2094.32425-.2094.75463-.1045 1.40275.2094 1.40275-1.4663v-8.3795c0-.4188-.21612-.314-.97162-.314-1.29463 0-2.05013-.1048-3.02138 1.3614-.2165.3143-.2165.5236-.43187.5236-.10813 0-.21575 0-.21575-.2093 0-.1045 0-.2098.10762-.5237l.64775-2.0945c.10813-.3146.21575-.4191.32388-.4191.10775 0 .21575 0 .21575.2098v.2093c.10812.3139.43125.3139.64737.3139zm-10.46762 1.99c0 .3143 0 .5236-.21575.5236-.21588 0-.32388-.2093-.32388-.3138-.21587-.838-.647-1.9899-2.48212-1.9899-1.07863 0-2.374.4187-2.374 1.6756 0 1.3616 1.29537 1.9899 2.69787 2.5139 1.187.5234 3.2375 1.2565 3.2375 3.666 0 1.6756-1.187 3.5614-4.20875 3.5614-.8635 0-1.51087-.1053-2.266-.4197-.86375-.3142-.86375-.6285-.86375-.8378v-.838c0-.9423 0-1.4659.32375-1.4659.32363 0 .32363.3139.32363.6281.108.8378.43225 2.4088 2.59012 2.4088 1.295 0 2.80588-.6282 2.80588-2.4088 0-1.3616-1.07888-2.0951-2.91363-2.9327-1.187-.524-2.914-1.2568-2.914-3.1419 0-1.4669 1.18738-2.9328 3.7775-2.9328.7555 0 1.834.2094 2.48213.5238.10775 0 .21537.1041.21537.4187zm-9.71225 7.8555c0 1.0474.8635.9429 1.40287.9429.21575 0 .21575 0 .21575.2094 0 .2093 0 .3143-.3235.3143-.64812 0-1.29512-.105-1.94287-.105-.755 0-1.40275.105-2.0504996.105-.108 0-.32388 0-.32388-.3143 0-.2094.10775-.2094.32388-.2094.43162 0 1.2954996.1045 1.2954996-.9429v-8.3792c0-1.0474-.8638796-.9425-1.4034996-.9425-.21588 0-.21588 0-.21588-.2098 0-.1041 0-.314.32388-.314.6477496 0 1.2954996.1046 2.0504996.1046.64775 0 1.29475-.1046 1.94287-.1046.10775 0 .3235 0 .3235.314 0 .2098-.10812.2098-.3235.2098-.43162 0-1.29512-.1049-1.29512.9425z" fill-rule="evenodd"/><path d="m21.829938 996.30815h23.86412.66975v.66975 32.4723.6693h-.66975-23.86412-.66963v-.6693-32.4723-.66975zm23.19487 1.33937h-22.52525v31.13338h22.52525z"/><path d="m45.533938 998.24315c-6.2135 4.12305-12.42638 8.24535-18.63988 12.36905-.87412 1.1395-.87412 2.2046 0 3.1965 1.48038 1.3913 2.96 2.7821 4.44013 4.1736v1.8645c1.18375-.9468 2.36762-1.8943 3.55212-2.8414.25013-.7151.10875-1.2997-.0889-1.8652-1.243-1.2129-2.48638-2.4268-3.72975-3.6404-.43688-.8288-.22038-1.6575.089-2.4864 4.79475-3.167 9.59025-6.3344 14.38537-9.50175-.002-.42225-.005-.84575-.007-1.2685" fill-rule="evenodd"/></g><path d="m22.341188 1028.3819c6.21362-4.123 12.42675-8.2452 18.64037-12.3682.87375-1.1397.87375-2.2054 0-3.1972-1.47975-1.3907-2.96012-2.7822-4.43987-4.1733 0-.6212 0-1.243 0-1.8649-1.18413.9475-2.36788 1.8942-3.55213 2.8421-.2505.715-.10875 1.2994.089 1.8645 1.243 1.2139 2.486 2.4275 3.72925 3.6408.43688.8291.22038 1.6575-.0885 2.4866-4.79525 3.1671-9.59037 6.3341-14.38587 9.5017.002.4228.005.8452.007 1.2679" fill="#80b3d9" fill-rule="evenodd"/><path d="m1.0020583 1038.7107v-1.804c0-.1399-.0131-.2374-.0404-.2927-.0266-.054-.0776-.09-.1535-.1062l-.107-.023c-.0354-.01-.0535-.023-.0535-.048 0-.027.0199-.04.0585-.039.0244.001.067 0 .12862.011.0612.01.16225.011.30188.011.11975 0 .19525-.001.22425-.01.0581-.01.0917-.013.101-.013.0226 0 .034.011.034.034s-.0163.038-.0496.046c-.0662.017-.11125.044-.13525.079-.0235.036-.0359.098-.0359.1864v.1477l-.001.074v1.564l.001.085-.0234.2349c-.0417.1942-.12575.3572-.25012.4897-.12513.1322-.259.1988-.40188.1988-.0404 0-.0747-.01-.10375-.027-.0288-.019-.0436-.04-.0436-.066 0-.01.002-.025.007-.042.002-.01.009-.032.0152-.066.0159-.075.0386-.1116.0676-.1116.0149 0 .0351.015.0624.048.0475.054.0995.082.157.082.0697 0 .12787-.045.175-.1353.0464-.09.0697-.2016.0697-.3349l-.005-.1796zm2.099-2.3302c.37138 0 .67613.1145.91388.3438.23737.2295.35675.5232.35675.8811 0 .3799-.11975.6914-.36.9341-.2385.243-.54563.3649-.9195.3649-.38338 0-.693-.1159-.929-.3486-.23713-.2325-.35538-.5371-.35538-.9145 0-.1626.0307-.3254.0931-.4859.0627-.1611.14637-.2951.252-.4035.11162-.1134.25225-.2037.42412-.2707.17038-.068.34475-.1007.524-.1007zm-.11512.1152c-.275 0-.494.093-.6555.2781-.162.1857-.24275.4359-.24275.7501 0 .3594.10275.6616.30937.9089.20763.2466.46163.3692.76325.3692.27525 0 .50163-.1002.68138-.3005.17887-.2016.2685-.456.2685-.7646 0-.354-.10738-.6499-.32175-.8869-.21463-.2363-.4825-.3543-.8025-.3543zm2.2658701.4517v1.3309c0 .1655.01.2761.0301.3292.0238.061.0529.1032.0879.1279.0348.025.0904.043.16513.054.0589.01.0886.023.0886.044 0 .029-.0181.043-.0556.043-.0174 0-.0394 0-.067-.01-.0371 0-.0995-.01-.1885-.01h-.2576301l-.21012.013c-.0344 0-.0626 0-.085 0-.0326 0-.0481-.013-.0481-.036 0-.022.018-.035.0553-.042.0904-.014.14813-.047.174-.092.0261-.047.0389-.146.0389-.2972v-1.5233c0-.1467-.0166-.2459-.0499-.297-.0344-.051-.10662-.085-.21612-.103-.038-.01-.0564-.021-.0575-.043-.001-.027.016-.039.0514-.039.01 0 .0202.001.0322 0 .0869.01.201.013.34475.013.0876 0 .1630001 0 .2265001-.01l.11863-.01c.0228-.001.0369 0 .0444 0 .0326 0 .0481.011.0481.034 0 .021-.0153.037-.046.048l-.0921.036c-.0882.033-.13225.1746-.13225.4251zm2.76875.1624v1.4902c0 .1344-.002.2159-.009.2449-.006.029-.0228.043-.05.042-.0181-.001-.0315-.01-.0404-.015l-.0398-.047-1.49988-1.7146-.0174-.02c-.007-.01-.0163-.01-.0255-.01-.0219 0-.0336.026-.0336.08v1.2065l-.001.074.006.1265c.009.078.0284.1325.061.1622.0311.03.0946.051.18775.066.0394 0 .0589.02.0589.046 0 .023-.0127.035-.038.035-.0159 0-.034-.001-.052 0-.0135 0-.0649-.01-.15488-.01l-.18175-.01h-.0854c-.0461 0-.09 0-.13263.01-.0294.01-.052.01-.0651.01-.0315 0-.0475-.011-.0496-.033-.001-.017.0149-.033.0496-.044.0999-.034.1665-.08.20225-.1377.0344-.058.0521-.151.0521-.2789v-1.21c0-.2052-.0329-.3667-.0977-.4847-.0653-.1188-.15987-.186-.2835-.202-.0315-.01-.0475-.018-.0475-.041s.0127-.033.0386-.033c.006 0 .0164.0003.0291.001l.0726.001h.11975.028c.0286-.001.051-.001.0659-.001.0298 0 .0595.017.089.052l1.63725 1.8538c.0259.029.0419.044.0493.043.0125-.001.0185-.013.0195-.034v-.8801l.001-.2402-.0214-.41c-.0125-.1001-.0408-.1721-.0881-.2146-.0461-.042-.13112-.073-.25337-.093-.0347-.01-.0517-.021-.0517-.044s.017-.033.0517-.033c.0153 0 .0396.001.0744.01.0823.01.192.014.3295.014.0726 0 .13188 0 .17575-.011.0382-.01.0677-.01.0875-.01.0305 0 .0475.011.0496.037.001.016-.01.026-.0361.034-.0715.018-.119.047-.14275.089-.022.042-.0344.1201-.0344.2335v.1921l-.004.1176zm2.2514996-.4958h-.4996196c-.0518 0-.085.01-.0981.022-.0143.014-.021.049-.021.1049v1.744l.001.07c.006.1383.0839.2208.2335.247.041.01.062.021.062.041 0 .027-.0168.039-.05.039-.0139 0-.0433 0-.0875-.01-.0228 0-.0759-.01-.15987-.01h-.13-.13888c-.05 0-.0921.001-.12612.01-.068.01-.10775.01-.11913.01-.0358 0-.0535-.013-.0535-.039 0-.018.0199-.03.0585-.035.0918-.013.15275-.037.185-.075.0325-.039.0481-.1081.0481-.2072v-1.7643l-.001-.046c0-.043-.006-.07-.0195-.082-.0112-.01-.0408-.018-.0857-.018h-.47125c-.096 0-.1655.02-.20875.058-.0439.039-.0779.1113-.10063.2179-.0112.046-.0272.069-.0481.068-.0213-.001-.0322-.017-.0322-.048 0-.025.007-.071.0212-.1368.0174-.085.0266-.1562.0266-.2118 0-.054.006-.09.0184-.1082.0131-.017.0394-.025.0794-.025h1.9144996c.0659 0 .1055.01.11825.021.0143.014.0213.057.0213.1265 0 .069.002.1205.009.1528.005.04.009.07.0113.087.00075.036-.0125.055-.0379.057-.0213.001-.0351-.017-.0425-.054-.0152-.085-.0403-.1396-.0747-.1651-.0347-.025-.10138-.039-.20125-.039zm.83825 1.2444c.0125 0 .0192.031.0192.094 0 .071-.004.1135-.0125.1269-.009.013-.0414.029-.10025.048-.0815.027-.15025.051-.2055.071-.13187.048-.21787.076-.2565.085-.0337.01-.0567.018-.0695.027-.0145.01-.0251.015-.0336.016-.017 0-.0255-.017-.0255-.06 0-.085.006-.1375.0213-.157.0131-.019.0584-.041.13562-.065.0291-.01.0919-.031.19038-.066.0392-.014.10337-.036.19237-.067.0616-.021.10238-.037.12263-.046l.0215-.01zm.94575-1.4779c.12688 0 .2335.018.32175.055l.123.051c.01.01.0213.01.0319.01.0137 0 .028-.01.0429-.018l.0244-.021c.004-.01.01-.01.0202-.01.029-.001.0439.028.0439.087 0 .02.007.079.0231.1793l.0283.1836c.006.039.009.063.009.073 0 .037-.0125.055-.0371.055-.0191 0-.0383-.028-.0575-.086-.0421-.1272-.12887-.2327-.26-.3164-.13112-.082-.2775-.124-.43837-.124-.12788 0-.2345.037-.321.113-.0861.075-.12863.1694-.12863.2817 0 .1003.0276.1857.084.2583.0485.062.10138.1067.15875.135.057.029.19838.08.42413.1545.439.1435.658.3792.658.7069 0 .2215-.0808.4033-.24313.5439-.1605.141-.367.2119-.61962.2119-.0919 0-.19213-.013-.302-.039-.11013-.026-.19025-.056-.24088-.091-.0216-.014-.0355-.029-.0425-.046-.007-.016-.0177-.057-.0322-.1233-.003-.01-.017-.064-.0446-.1627-.0309-.1067-.0461-.1822-.0461-.2272 0-.036.0125-.053.0361-.052.0213.001.0404.03.0571.088.0421.1474.13288.27.27025.3703.1365.1.28638.1495.44763.1495.16437 0 .30187-.048.41487-.1439.11407-.097.17032-.2128.17032-.3511 0-.1314-.0524-.242-.15688-.3327-.0532-.046-.207-.1113-.46212-.1973-.26325-.089-.44963-.1879-.55875-.2952-.1105-.108-.16513-.248-.16513-.4199 0-.1924.0716-.349.21438-.4695.14275-.1204.327-.1814.55275-.1814zm2.78713.2335h-.4995c-.0525 0-.0847.01-.0983.022-.0137.014-.0201.049-.0201.1049v1.744l.001.07c.006.1383.084.2208.23312.247.0415.01.0618.021.0618.041 0 .027-.0168.039-.0496.039-.0139 0-.0429 0-.0873-.01-.023 0-.0765-.01-.15937-.01h-.13075-.13888c-.05 0-.0915.001-.1255.01-.068.01-.10837.01-.11937.01-.0361 0-.0535-.013-.0535-.039 0-.018.0191-.03.0587-.035.0911-.013.15237-.037.18462-.075.0319-.039.0479-.1081.0479-.2072v-1.7643l-.001-.046c0-.043-.006-.07-.0188-.082-.0125-.01-.0415-.018-.0861-.018h-.47163c-.096 0-.1655.02-.20837.058-.0436.039-.0776.1113-.10138.2179-.0113.046-.0265.069-.0478.068-.021-.001-.0326-.017-.0326-.048 0-.025.007-.071.0216-.1367.0177-.085.0265-.1563.0265-.2119 0-.054.006-.09.0191-.1081.0125-.017.039-.025.0791-.025h1.91438c.0656 0 .10525.01.11875.021.0131.014.0205.057.0205.1265 0 .069.002.1205.009.1527.005.04.009.07.01.087.001.036-.0113.055-.0371.057-.0212 0-.0355-.017-.0429-.054-.0153-.085-.0401-.1396-.0747-.1651-.0348-.025-.10175-.039-.20138-.039zm1.74725-.2335c.371 0 .67612.1145.91387.3438.237.2295.356.5232.356.8811 0 .3799-.11937.6914-.35925.9341-.23912.243-.54525.3649-.91987.3649-.38263 0-.69263-.1159-.92863-.3486-.23712-.2325-.35575-.5371-.35575-.9145 0-.1626.0311-.3254.0935-.4859.0624-.1611.14638-.2951.25163-.4035.112-.1134.253-.2037.42375-.2707.17075-.068.34587-.1007.52475-.1007zm-.11513.1152c-.275 0-.49425.093-.65625.2781-.16187.1857-.24275.4359-.24275.7501 0 .3594.10313.6616.31075.9089.20663.2466.46138.3692.7625.3692.275 0 .50213-.1002.68175-.3005.17863-.2016.26863-.456.26863-.7646 0-.354-.10775-.6499-.3225-.8869-.21463-.2363-.48188-.3543-.80213-.3543zm3.88838.1392.0574.4263.006.045-.006.018c-.006.01-.0145.017-.0269.018-.0141.001-.0354-.024-.0637-.074-.22188-.3892-.523-.5833-.9025-.5833-.30225 0-.54075.093-.71538.2795-.174.1858-.26112.4405-.26112.7625 0 .3718.0967.6748.2905.91.19412.2353.44287.3533.748.3533.17862 0 .35362-.048.52512-.1428.17225-.095.29163-.2105.35825-.3459.0305-.062.0541-.094.0709-.096.0188-.0007.0286.011.0286.034l-.002.019-.007.039-.0408.2175-.007.032c-.005.031-.0323.063-.0833.096-.27425.174-.57612.2615-.906.2615-.3805 0-.6885-.1137-.92262-.3401-.23363-.2264-.35088-.5247-.35088-.894 0-.3699.12163-.6781.36363-.9226.242-.2453.54562-.3671.91062-.3671.2505 0 .48013.056.69013.1682l.0709.038.0288.011.0305.011c.006 0 .0145 0 .0263-.014.0261-.019.0439-.029.0535-.029.0191 0 .0315.022.0371.068zm.96275 1.1559v.6516c0 .136.0188.226.0549.27.0365.044.12087.077.25262.098.0348.01.0529.018.0539.037.001.024-.0131.035-.0425.034-.0166-.001-.0489 0-.096-.01-.0398 0-.10987 0-.21187 0h-.1425-.12575c-.05 0-.0836.0006-.0985.001-.0624.01-.0985.01-.10625.01-.0397 0-.0592-.014-.0592-.042 0-.019.017-.029.0514-.034.0738-.01.12475-.042.15412-.1051.0288-.062.0436-.1676.0436-.3169v-1.5122c0-.1269-.0131-.2154-.0404-.2658-.0284-.051-.0797-.084-.15737-.1006l-.0871-.018c-.0312-.01-.0464-.02-.0464-.037 0-.025.0159-.037.0481-.037.017 0 .0398 0 .0645.01.0599.01.1555.011.28412.011l.0663-.001h.134c.0344 0 .0659-.001.0917 0 .0475 0 .0763-.01.0861-.01.0288-.001.0425.01.0425.033 0 .016-.0138.031-.0425.043-.0755.032-.12262.069-.14275.1091-.0189.042-.0288.1223-.0288.2431v.6934c0 .025.005.038.0156.038l.029-.021.0266-.021.765-.6842c.11725-.1049.17575-.1885.17575-.2513 0-.054-.0422-.09-.128-.1045-.0541-.01-.0821-.024-.0821-.046 0-.025.0184-.037.0553-.037.0113 0 .0269.0006.0475 0 .0506 0 .10625.01.16788.01l.16412.01.13325-.001c.0751 0 .124 0 .14738-.01.0276 0 .046-.01.0556-.01.0323 0 .0493.011.0514.035.001.019-.0269.036-.0857.05-.10625.027-.31075.1765-.61263.4486l-.61088.5497c-.0263.024-.0394.043-.0408.057-.001.017.0128.043.0429.075l.92838.9684c.0985.1035.20625.1669.32237.191l.078.015c.028.01.0411.018.0411.036 0 .029-.0189.043-.0556.041-.01 0-.0241-.001-.0423 0-.0226 0-.0736-.01-.153-.01-.0709 0-.12262.001-.1545 0-.0355 0-.0627 0-.0822 0-.04 0-.0751-.017-.1045-.048l-.0305-.034-.95387-.9839-.0361-.039c-.0137-.013-.0284-.02-.0425-.02-.0209 0-.0319.014-.0319.041zm3.28387-1.0939v.7045l.001.034v.046c.005.033.0386.049.10163.049h.15275.0589.20975c.10875 0 .18812-.016.23812-.049.0499-.033.0808-.089.0945-.169.004-.028.016-.043.0351-.043.023 0 .033.018.0309.055l-.0113.1761c-.001.023-.001.059-.001.1082 0 .1392.002.2273.007.2653.002.023.004.039.004.05 0 .029-.0112.043-.0322.043-.0224 0-.0404-.029-.0531-.087-.0143-.063-.0299-.1056-.0465-.1286-.017-.022-.0442-.038-.0836-.047-.0797-.02-.19587-.03-.35075-.03-.14175 0-.2335 0-.276.01-.0419.01-.0656.019-.0699.041-.006.022-.009.058-.009.1066v.6602c0 .094.0245.1683.0749.224.0495.056.11688.084.20013.084.0411 0 .062.011.0631.035.002.027-.0149.041-.0535.041-.0262 0-.0631 0-.1085-.01-.039 0-.0974-.01-.17463-.01l-.12263-.001-.13713.001c-.0297 0-.0695 0-.12087.01-.0421 0-.0726.01-.091.01-.0347.001-.0518-.01-.0518-.032 0-.019.0181-.032.0553-.041.0763-.016.12762-.048.15525-.096.0272-.047.0404-.129.0404-.2453v-1.603c0-.1134-.0181-.2001-.0553-.26-.0238-.041-.05-.068-.0788-.082-.0279-.014-.0775-.024-.147-.03-.0288 0-.0429-.014-.0443-.032-.002-.031.0209-.046.0713-.046.0151 0 .0514 0 .11012.01.10563.011.2845.016.53538.016.22437 0 .36787-.001.43262-.01l.247-.013c.107 0 .17538-.01.20663-.016.0222 0 .0417-.01.0588-.01.0262 0 .039.013.039.041 0 .014-.004.034-.009.059-.0201.076-.0301.1796-.0301.3094 0 .055-.0163.082-.0464.082-.0181 0-.0284-.015-.0305-.044-.004-.037-.01-.074-.0199-.1123-.0151-.061-.0344-.1-.0577-.1166-.023-.017-.0747-.029-.15375-.036l-.20938-.021c-.0666-.01-.151-.01-.253-.01-.13287 0-.21437.01-.247.025-.0326.018-.0479.062-.0479.1331zm1.88338.2505v1.3309c0 .1655.0112.2761.0304.3292.0241.061.0529.1032.0882.1279.0344.025.0904.043.16475.054.0593.01.0886.023.0886.044 0 .029-.0184.043-.0552.043-.0178 0-.0398 0-.0674-.01-.0369 0-.0995-.01-.1885-.01h-.25788l-.20987.013c-.0344 0-.063 0-.0854 0-.0325 0-.0481-.013-.0481-.036 0-.022.018-.035.0556-.042.0896-.014.14812-.047.17362-.092.0265-.047.0396-.146.0396-.2972v-1.5233c0-.1467-.017-.2459-.0506-.297-.0344-.051-.10625-.085-.21612-.103-.0376-.01-.056-.021-.0571-.043-.001-.027.0156-.039.0514-.039.009 0 .0199.001.0326 0 .0858.01.20025.013.34412.013.0879 0 .163 0 .22638-.01l.11875-.01c.023-.001.0375 0 .0446 0 .0323 0 .0478.011.0478.034 0 .021-.0151.037-.046.048l-.0917.036c-.0886.033-.1325.1746-.1325.4251zm2.76875.1624v1.4902c0 .1344-.002.2159-.009.2449-.006.029-.0231.043-.0504.042-.0181-.001-.0315-.01-.0408-.015l-.0394-.047-1.50025-1.7146-.0173-.02c-.007-.01-.016-.01-.0252-.01-.0222 0-.034.026-.034.08v1.2065l-.001.074.006.1265c.009.078.028.1325.0606.1622.0315.03.0946.051.18812.066.0394 0 .0589.02.0589.046 0 .023-.0128.035-.0383.035-.016 0-.0341-.001-.0521 0-.0135 0-.0652-.01-.1545-.01l-.18212-.01h-.0854c-.0465 0-.09 0-.13225.01-.0297.01-.052.01-.0651.01-.0312 0-.0475-.011-.05-.033-.001-.017.0152-.033.05-.044.0995-.034.16612-.08.202-.1377.035-.058.052-.151.052-.2789v-1.21c0-.2052-.0322-.3667-.0974-.4847-.0652-.1188-.15988-.186-.2835-.202-.0319-.01-.0475-.018-.0475-.041s.0127-.033.039-.033c.006 0 .0152.0003.0284.001l.073.001h.11937.0284c.0286-.001.0506-.001.0663-.001.0294 0 .0595.017.0879.052l1.638 1.8538c.0256.029.0419.044.0493.043.0112-.001.0185-.013.0195-.034v-.8801l.001-.2402-.021-.41c-.0125-.1003-.041-.1723-.0885-.2148-.0461-.042-.13075-.073-.253-.093-.0347-.01-.0521-.021-.0521-.044s.0174-.033.0521-.033c.0153 0 .0393.001.0744.01.0815.01.19175.014.32925.014.0732 0 .1325 0 .176-.011.038-.01.067-.01.0875-.01.0309 0 .0475.011.0496.037.001.016-.0113.026-.0361.034-.0719.018-.11937.047-.14237.089-.0231.042-.0347.1201-.0347.2335v.1921l-.004.1177zm1.83612.816h-.64425c-.0875 0-.14275.01-.16325.022-.0216.014-.0496.062-.0858.1435l-.11625.2611c-.0521.1194-.0788.2084-.0788.2665 0 .056.0146.096.0423.1204.0284.026.0825.047.164.065.0365.01.0546.021.0564.042.001.02-.0152.03-.05.03-.0134 0-.0333-.0006-.0602-.001l-.17075-.01c-.0566 0-.12225 0-.19737 0-.034 0-.0612.0004-.08.001-.0606.01-.0933.01-.0996.01-.0322 0-.0482-.011-.0482-.032 0-.02.0113-.032.0305-.038l.066-.019c.0236-.01.0556-.036.096-.086.0396-.05.0733-.1031.0989-.1574l.0516-.1172.91487-2.0289c.015-.036.033-.053.0515-.053.0184 0 .035.017.0481.052l.765 1.957.039.096c.0556.1435.10163.2331.13888.2682.0365.035.11087.063.22425.083.0369.01.0546.022.0535.044-.001.02-.018.03-.0499.03-.0113 0-.0337-.001-.0677 0-.0616-.01-.17188-.01-.32913-.01-.16437 0-.26787 0-.31.01-.0245.01-.0433.01-.0554.01-.0311 0-.0464-.013-.0464-.037 0-.018.0145-.031.0446-.036l.0556-.013c.0589-.011.089-.052.089-.1205 0-.063-.0365-.1885-.10912-.376l-.0879-.2348c-.0252-.065-.0446-.1024-.0592-.113-.0145-.01-.0545-.016-.12075-.016zm.0212-.2845-.27962-.7048-.0138-.036c-.0146-.038-.0297-.058-.0461-.059-.009-.001-.018.011-.029.034l-.34688.7704c-.0149.033-.0231.054-.0231.065 0 .031.0274.046.0822.046l.0471.001h.53787c.0599 0 .0889-.014.0889-.045 0-.01-.004-.021-.009-.04l-.009-.032zm3.258-.5315v1.4902c0 .1344-.002.2159-.009.2449-.006.029-.0234.043-.0499.042-.0181-.001-.0319-.01-.0411-.015l-.0394-.047-1.4995-1.7146-.0178-.02c-.007-.01-.0162-.01-.0251-.01-.0226 0-.034.026-.034.08v1.2065l-.001.074.005.1265c.009.078.0284.1325.0606.1622.0311.03.095.051.18812.066.0394 0 .0591.02.0591.046 0 .023-.0127.035-.0379.035-.0163 0-.034-.001-.0528 0-.0135 0-.0652-.01-.15525-.01l-.18137-.01h-.0854c-.0465 0-.0904 0-.13188.01-.0301.01-.052.01-.0655.01-.0309 0-.0475-.011-.0492-.033-.001-.017.0145-.033.0492-.044.0993-.034.1665-.08.202-.1377.0346-.058.052-.151.052-.2789v-1.21c0-.2052-.0326-.3667-.0974-.4847-.066-.1188-.15987-.186-.28275-.202-.033-.01-.0479-.018-.0479-.041s.0127-.033.0383-.033c.006 0 .016.0003.0284.001l.073.001h.12013.0284c.0276-.001.0503-.001.0651-.001.0305 0 .0599.017.089.052l1.63737 1.8538c.0257.029.0425.044.0495.043.0113-.001.0185-.013.0195-.034v-.8801l.001-.2402-.0213-.41c-.0125-.1003-.0414-.1723-.0881-.2148-.0465-.042-.1315-.073-.25375-.093-.0347-.01-.0514-.021-.0514-.044s.0166-.033.0514-.033c.0149 0 .04.001.0747.01.0819.01.19175.014.32913.014.073 0 .13225 0 .17575-.011.0384-.01.0677-.01.0872-.01.0315 0 .0481.011.0506.037.00075.016-.0113.026-.0365.034-.0719.018-.11863.047-.14213.089-.0234.042-.035.1201-.035.2335v.1921l-.004.1177z" fill="#001999"/><path d="m37.124308 1036.6349.057.4263.006.045-.006.018c-.006.01-.0145.017-.0266.018-.0137.001-.0354-.024-.0637-.074-.22137-.3892-.523-.5833-.90212-.5833-.30288 0-.54138.093-.71538.2795-.17462.1858-.26187.4405-.26187.7625 0 .3718.0971.6748.29087.91.19425.2353.44338.3533.748.3533.17863 0 .35363-.048.52513-.1428.1715-.095.29162-.2105.35787-.3459.0312-.062.0543-.094.0709-.096.0191-.0007.0284.011.0284.034l-.001.019-.007.039-.0408.2175-.008.032c-.005.031-.0326.063-.0834.096-.2745.174-.57613.2615-.906.2615-.382 0-.68988-.1137-.923-.3401-.2335-.2264-.3505-.5247-.3505-.894 0-.3699.12087-.6781.36325-.9226.242-.2453.54562-.3671.911-.3671.25012 0 .48012.056.68987.1682l.0705.038.029.011.0305.011c.006 0 .0145 0 .0266-.014.0263-.019.0439-.029.0535-.029.0188 0 .0311.022.0369.068zm.96413.3125v1.3309c0 .1655.0113.2761.0305.3292.0236.061.0528.1032.0885.1279.0344.025.0892.043.16437.054.0589.01.0883.023.0883.044 0 .029-.0184.043-.0549.043-.0177 0-.04 0-.0674-.01-.0371 0-.0999-.01-.18887-.01h-.2575l-.2095.013c-.0346 0-.0634 0-.0858 0-.0323 0-.0481-.013-.0481-.036 0-.022.018-.035.0553-.042.0904-.014.14887-.047.17437-.092.0265-.047.039-.146.039-.2972v-1.5233c0-.1467-.0174-.2459-.0508-.297-.034-.051-.10625-.085-.21612-.103-.0369-.01-.0553-.021-.0564-.043-.002-.027.0152-.039.0511-.039.01 0 .0201.001.0321 0 .0865.01.201.013.34487.013.0875 0 .16263 0 .226-.01l.11875-.01c.0226-.001.0375 0 .0446 0 .0323 0 .0481.011.0481.034 0 .021-.0155.037-.0464.048l-.0925.036c-.0883.033-.13176.1747-.13176.4252zm1.92187.9784h-.6445c-.0876 0-.1425.01-.16337.022-.0213.014-.0496.062-.0858.1435l-.11588.2611c-.0525.1194-.0784.2084-.0784.2665 0 .056.0146.096.0419.1204.028.026.0829.047.16475.065.0358.01.0539.021.0556.042.001.02-.0156.03-.05.03-.0134 0-.0336-.0006-.0605-.001l-.1705-.01c-.057 0-.12262 0-.19762 0-.0341 0-.0606.0004-.0797.001-.061.01-.0936.01-.0996.01-.0326 0-.0485-.011-.0485-.032 0-.02.0113-.032.0311-.038l.0652-.019c.0238-.01.056-.036.096-.086s.0734-.1031.0996-.1574l.0516-.1172.91462-2.0289c.0152-.036.0325-.053.0514-.053.0184 0 .035.017.0478.052l.76538 1.957.0386.096c.056.1435.10237.2331.13887.2682.0369.035.11125.063.22475.083.0371.01.0545.022.0535.044-.001.02-.0181.03-.0504.03-.01 0-.033-.001-.067 0-.0616-.01-.17186-.01-.32986-.01-.16438 0-.26788 0-.30963.01-.0249.01-.0433.01-.0556.01-.0309 0-.0457-.013-.0457-.037 0-.018.0141-.031.044-.036l.0556-.013c.0591-.011.0892-.052.0892-.1205 0-.063-.0365-.1885-.10875-.376l-.0883-.2348c-.0249-.065-.0446-.1024-.0593-.113-.0138-.01-.0549-.016-.12075-.016zm.0209-.2845-.27925-.7048-.0141-.036c-.0145-.038-.0298-.058-.0457-.059-.009-.001-.0184.011-.0286.034l-.34763.7704c-.0149.033-.0226.054-.0226.065 0 .031.0269.046.0817.046l.0475.001h.53825c.0595 0 .0883-.014.0883-.045 0-.01-.004-.021-.009-.04l-.009-.032zm1.68275.7349.002.062c0 .1431.0131.2275.0408.2537.0276.026.11688.039.26675.039.22225 0 .415-.027.57763-.079.16362-.053.26787-.1225.31287-.2094.0163-.033.0333-.048.0499-.048.0185 0 .0274.013.0266.036-.005.078-.0433.1637-.11587.2579-.10163.1294-.26713.1935-.49638.1935-.038 0-.0819-.001-.1315-.01l-.19274-.014c-.11238-.01-.23138-.014-.3575-.014-.146 0-.26788.01-.36675.022-.0411.01-.0747.01-.0995.011-.0299.001-.0444-.01-.0444-.032 0-.019.016-.033.0479-.043.0822-.025.13712-.061.16512-.1091.028-.048.0417-.129.0417-.2427l.001-.082v-1.5907c0-.1583-.0644-.2501-.192-.2763l-.0801-.016c-.029-.01-.0425-.017-.0425-.035 0-.027.0199-.04.0603-.04.027 0 .0649.001.11162.01.0811.01.1715.01.2725.01.10838 0 .20763 0 .29663-.01h.0765c.0284 0 .0429.01.0429.027 0 .025-.0174.043-.0517.051l-.0616.013c-.10738.026-.16088.1325-.16088.319v1.5466zm4.51988-1.7413.0574.4263.005.045-.005.018c-.006.01-.0145.017-.0273.018-.0139.001-.0351-.024-.0635-.074-.22175-.3892-.523-.5833-.9025-.5833-.30225 0-.541.093-.71538.2795-.174.1858-.26112.4405-.26112.7625 0 .3718.0964.6748.29025.91.19412.2353.44325.3533.74825.3533.17825 0 .35362-.048.52512-.1428.17188-.095.292-.2105.35788-.3459.0312-.062.0546-.094.0709-.096.0191-.0007.0291.011.0291.034l-.003.019-.007.039-.0408.2175-.007.032c-.005.031-.0323.063-.0834.096-.27425.174-.57575.2615-.90563.2615-.38162 0-.68912-.1137-.923-.3401-.23387-.2264-.3505-.5247-.3505-.894 0-.3699.12088-.6781.36325-.9226.242-.2453.54563-.3671.91063-.3671.2505 0 .48012.056.69025.1682l.0709.038.0286.011.0305.011c.006 0 .0145 0 .0266-.014.0259-.019.0435-.029.0535-.029.0184 0 .0311.022.0369.068zm1.6685-.2544c.37137 0 .676.1145.9145.3438.23675.2295.3565.5232.3565.8811 0 .3799-.12013.6914-.36038.9341-.23887.243-.54537.3649-.91912.3649-.38375 0-.6935-.1159-.92938-.3486-.23712-.2325-.3555-.5371-.3555-.9145 0-.1626.0312-.3254.0936-.4859.062-.1611.14638-.2951.2515-.4035.112-.1134.253-.2037.42388-.2707.17037-.068.34537-.1007.52437-.1007zm-.11512.1152c-.27538 0-.494.093-.65588.2781-.162.1857-.24275.4359-.24275.7501 0 .3594.10313.6616.31.9089.207.2466.46175.3692.76288.3692.275 0 .50212-.1002.68137-.3005.179-.2016.26938-.456.26938-.7646 0-.354-.10813-.6499-.3225-.8869-.21513-.2363-.48225-.3543-.8025-.3543zm2.91362 1.1406.49113.726.0574.085c.15162.2225.29087.3377.4195.3466h.0568c.0216 0 .0315.01.0305.026-.001.018-.0274.034-.0791.049-.0516.014-.11088.021-.17575.021-.10663 0-.20225-.029-.28663-.088-.0857-.059-.17112-.1545-.25937-.287l-.44326-.6757-.0245-.04c-.0286-.048-.075-.073-.13888-.073h-.23625l-.0397.01c-.0141.01-.0213.027-.0213.056v.5556l.001.071c0 .1016.005.1715.0153.209.01.037.0336.071.072.1006.0514.04.13038.065.23738.076.0425 0 .0641.019.0655.041.002.024-.017.035-.0591.035-.0164 0-.0518 0-.10488-.01-.0489 0-.124-.01-.22612-.01l-.17038-.001-.0921.001c-.0411 0-.0896 0-.14637.01-.0464 0-.0776.01-.096.01-.0301 0-.0442-.013-.0442-.037 0-.017.0141-.029.0442-.035.0946-.018.15762-.061.18637-.1297.0301-.068.0446-.2023.0446-.4033v-1.2776l-.004-.185c0-.1854-.0641-.2888-.19387-.3098l-.0832-.013c-.0385-.01-.0573-.021-.0573-.042 0-.025.0199-.037.0605-.037.01 0 .0507 0 .12437.01.0429 0 .0958.01.15775.01.0549 0 .14875 0 .28025-.013.0954-.01.17825-.01.25125-.01.27213 0 .47863.052.61688.1549.1385.1024.20837.2548.20837.4578 0 .2667-.14675.473-.43975.619zm-.523-.039h.20088c.15525 0 .27812-.042.36675-.1275.0893-.086.13325-.2031.13325-.3505 0-.1729-.0606-.3146-.18113-.4255-.12075-.1116-.27487-.1669-.46275-.1669-.0697 0-.11825.011-.14525.035-.0263.023-.04.064-.04.1259l.001.059v.7232c0 .056.007.091.0226.1059.0143.014.0492.022.10388.022zm2.26525-.8869v1.4843l-.002.173.005.1495c.0135.1435.0666.2267.1605.2508.0652.017.11413.026.1475.026.0354 0 .0541.01.0553.032.002.03-.0184.046-.0627.046-.0199 0-.0595 0-.11862-.01-.038-.001-.1 0-.185 0h-.12688-.1385c-.0702 0-.123 0-.15875.01-.0461.01-.0805.01-.101.01-.0315 0-.0464-.012-.0464-.035s.0191-.037.0584-.043c.0929-.014.15625-.066.18963-.1562.0336-.09.0506-.2526.0506-.4879v-1.079c0-.2495-.0141-.4067-.0435-.4726-.0301-.065-.10388-.1047-.22363-.1186-.0315-.001-.0471-.014-.0461-.035.001-.028.0245-.041.0699-.041.022 0 .0528 0 .0904.01.0754.011.136.016.18525.016.0755 0 .18637-.01.33025-.019.0751-.01.13637-.01.18387-.01.248 0 .44938.06.60413.1789.15487.1197.23175.2746.23175.4677 0 .2321-.095.4149-.28375.5493-.1425.1-.29338.1491-.45213.1491-.0755 0-.1435-.01-.2055-.024-.0627-.017-.0929-.034-.09-.053.002-.014.013-.021.0343-.021.009 0 .021.001.0355 0 .0263.01.0701.013.13113.013.17 0 .3075-.047.40987-.1408.1025-.094.15425-.2175.15425-.3737 0-.179-.0681-.3274-.2035-.4454-.13462-.1174-.30612-.1757-.51375-.1757-.0475 0-.08.01-.0977.027-.0178.017-.0263.051-.0263.101l-.001.052zm2.63263-.3299c.37137 0 .67612.1145.91425.3438.237.2295.35612.5232.35612.8811 0 .3799-.1195.6914-.35975.9341-.23837.243-.54525.3649-.9195.3649-.383 0-.693-.1159-.92975-.3486-.236-.2325-.35462-.5371-.35462-.9145 0-.1626.0308-.3254.0931-.4859.0627-.1611.14637-.2951.252-.4035.11124-.1134.25187-.2037.42337-.2707.17075-.068.3455-.1007.52475-.1007zm-.1155.1152c-.27488 0-.49325.093-.65513.2781-.16187.1857-.24312.4359-.24312.7501 0 .3594.10275.6616.31012.9089.20688.2466.461.3692.7625.3692.27525 0 .50238-.1002.68175-.3005.17888-.2016.2685-.456.2685-.7646 0-.354-.10737-.6499-.32162-.8869-.21475-.2363-.48263-.3543-.803-.3543zm2.91375 1.1406.491.726.0571.085c.15237.2225.29162.3377.4195.3466h.057c.0213 0 .0319.01.0301.026-.001.018-.0272.034-.0786.049-.0518.014-.11088.021-.17538.021-.10662 0-.20275-.029-.287-.088-.0854-.059-.1715-.1545-.259-.287l-.44337-.6757-.0247-.04c-.0288-.048-.0744-.073-.13925-.073h-.23563l-.0404.01c-.0135.01-.0206.027-.0206.056v.5556l.001.071c0 .1016.005.1715.0151.209.01.037.0341.071.072.1006.051.04.13.065.237.076.0425 0 .0645.019.0656.041.002.024-.017.035-.0592.035-.0159 0-.051 0-.10487-.01-.0481 0-.12356-.01-.22556-.01l-.17088-.001-.0918.001c-.0415 0-.0896 0-.14662.01-.0461 0-.078.01-.0964.01-.0291 0-.044-.013-.044-.037 0-.017.0149-.029.044-.035.0949-.018.15725-.061.187-.1297.0301-.068.0444-.2023.0444-.4033v-1.2776l-.002-.185c0-.1854-.0652-.2888-.1945-.3098l-.0836-.013c-.0376-.01-.0574-.021-.0574-.043 0-.025.0205-.037.0609-.037.01 0 .051 0 .12475.01.0425 0 .0953.01.15762.01.0553 0 .1485 0 .27925-.013.0953-.01.17925-.01.25188-.01.27212 0 .47837.052.617.1549.13925.1024.20787.2548.20787.4578 0 .2667-.14625.473-.43925.619zm-.52275-.039h.20062c.1555 0 .27813-.042.36675-.1275.0896-.086.1335-.2031.1335-.3505 0-.1729-.0609-.3146-.181-.4255-.12125-.1116-.27537-.1669-.46275-.1669-.0701 0-.11912.011-.14562.035-.0274.023-.0398.064-.0398.1259l.001.059v.7232c0 .056.008.091.0228.1059.0141.014.0485.022.10375.022zm2.99025.3285h-.64413c-.0876 0-.14212.01-.16337.022-.0212.014-.0496.062-.0857.1435l-.11588.2611c-.0521.1194-.0786.2084-.0786.2665 0 .056.0149.096.0425.1204.0276.026.0825.047.164.065.0361.01.0539.021.0553.042.001.02-.0149.03-.0495.03-.0131 0-.033-.0006-.0602-.001l-.1705-.01c-.0574 0-.12262 0-.19737 0-.0344 0-.0609.0004-.08.001-.061.01-.0936.01-.0993.01-.0326 0-.0482-.011-.0482-.032 0-.02.01-.032.0305-.038l.0656-.019c.0234-.01.0556-.036.0956-.086s.0734-.1031.0996-.1574l.0516-.1172.91425-2.0289c.0153-.036.0329-.053.052-.053.0181 0 .0355.017.0475.052l.76537 1.957.0383.096c.0568.1435.1025.2331.13925.2682.0369.035.11125.063.22463.083.0373.01.0546.022.0536.044-.002.02-.0178.03-.05.03-.0113 0-.0334-.001-.0674 0-.0616-.01-.17188-.01-.32988-.01-.16438 0-.26788 0-.30963.01-.0249.01-.0433.01-.0556.01-.0305 0-.0457-.013-.0457-.037 0-.018.0145-.031.0446-.036l.0546-.013c.0599-.011.0896-.052.0896-.1205 0-.063-.0369-.1885-.10912-.376l-.0883-.2349c-.0247-.065-.0442-.1023-.0585-.113-.0145-.01-.0553-.016-.1215-.016zm.0216-.2845-.27963-.7048-.0138-.036c-.0143-.038-.0297-.058-.0461-.059-.009-.001-.0188.011-.0286.034l-.34763.7704c-.0152.033-.023.054-.023.065 0 .031.028.046.0821.046l.0479.001h.5375c.0595 0 .0886-.014.0886-.045 0-.01-.002-.021-.009-.04l-.009-.032zm2.65925-1.0273h-.49925c-.0525 0-.0848.01-.0985.022-.0139.014-.0203.049-.0203.1049v1.744l.001.07c.006.1383.0839.2208.23312.247.0411.01.062.021.062.041 0 .027-.0164.039-.0496.039-.0141 0-.0433 0-.0879-.01-.0224 0-.0759-.01-.15912-.01h-.13-.13888c-.0504 0-.0925.001-.12687.01-.0676.01-.10738.01-.119.01-.0359 0-.0532-.013-.0532-.039 0-.018.0195-.03.0585-.035.0914-.013.15275-.037.18462-.075.0326-.039.0489-.1081.0489-.2072v-1.7643l-.002-.046c0-.043-.005-.07-.0195-.082-.0113-.01-.0404-.018-.0854-.018h-.47125c-.096 0-.16612.02-.209.058-.044.039-.0772.1113-.10062.2179-.0113.046-.0274.069-.0479.068-.022-.001-.0326-.017-.0326-.048 0-.025.007-.071.0209-.1368.0177-.085.027-.1562.027-.2118 0-.054.006-.09.0195-.1082.0125-.017.0383-.025.0783-.025h1.91487c.0655 0 .10488.01.11825.021.0135.014.021.057.021.1265 0 .069.002.1205.009.1528.005.04.009.07.01.087.001.036-.0125.055-.0384.057-.0205.001-.0346-.017-.0421-.054-.0149-.085-.04-.1396-.0747-.1651-.0344-.025-.10137-.039-.20125-.039zm1.08712.3334v1.3309c0 .1655.0113.2761.0308.3292.0234.061.0529.1032.0879.1279.0344.025.0904.043.16438.054.0592.01.0886.023.0886.044 0 .029-.0177.043-.0553.043-.0177 0-.04 0-.0674-.01-.0371 0-.0995-.01-.18813-.01h-.25787l-.2095.013c-.0347 0-.063 0-.0861 0-.0323 0-.0471-.013-.0471-.036 0-.022.0178-.035.0546-.042.0896-.014.14812-.047.174-.092.0265-.047.0393-.146.0393-.2972v-1.5233c0-.1467-.0173-.2459-.0506-.297-.034-.051-.10588-.085-.21538-.103-.0376-.01-.0564-.021-.0577-.043-.001-.027.0155-.039.0514-.039.01 0 .0205.001.0323 0 .0867.01.20088.013.34538.013.0873 0 .16262 0 .22575-.01l.11875-.01c.023-.001.0375 0 .0446 0 .0322 0 .0478.011.0478.034 0 .021-.0151.037-.046.048l-.0921.036c-.0883.033-.13213.1747-.13213.4252zm1.90063-.5669c.37062 0 .67562.1145.91337.3438.2375.2295.3565.5232.3565.8811 0 .3799-.11937.6914-.35962.9341-.23888.243-.54538.3649-.91913.3649-.38375 0-.69375-.1159-.9295-.3486-.237-.2325-.35537-.5371-.35537-.9145 0-.1626.0309-.3254.0933-.4859.0624-.1611.146-.2951.2515-.4035.11237-.1134.253-.2037.42425-.2707.17037-.068.345-.1007.52475-.1007zm-.1155.1152c-.27538 0-.49363.093-.65588.2781-.162.1857-.24275.4359-.24275.7501 0 .3594.10275.6616.31038.9089.20662.2466.46137.3692.7625.3692.275 0 .50212-.1002.681-.3005.17937-.2016.26937-.456.26937-.7646 0-.354-.10775-.6499-.32175-.8869-.21513-.2363-.48263-.3543-.80288-.3543zm3.83875.6141v1.4902c0 .1344-.002.2159-.009.2449-.006.029-.0226.043-.0503.042-.0178-.001-.0312-.01-.0404-.015l-.0398-.047-1.4995-1.7146-.0177-.02c-.007-.01-.0159-.01-.0251-.01-.0224 0-.034.026-.034.08v1.2065l-.001.074.005.1265c.009.078.0284.1325.0609.1622.0312.03.0946.051.18787.066.0396 0 .0587.02.0587.046 0 .023-.0125.035-.0375.035-.0162 0-.034-.001-.0528 0-.0131 0-.0645-.01-.15487-.01l-.18175-.01h-.0851c-.0464 0-.09 0-.13213.01-.0298.01-.0521.01-.0652.01-.0311 0-.0474-.011-.0495-.033-.001-.017.0145-.033.0495-.044.0992-.034.16663-.08.202-.1377.0344-.058.0517-.151.0517-.2789v-1.21c0-.2052-.0322-.3667-.0974-.4847-.0656-.1188-.16025-.186-.28312-.202-.0319-.01-.0479-.018-.0479-.041s.0131-.033.0386-.033c.006 0 .0159.0003.029.001l.0724.001h.12012.0282.0656c.0301 0 .0595.017.0889.052l1.63738 1.8538c.0259.029.0419.044.0492.043.0113-.001.0181-.013.0195-.034v-.8801l.002-.2402-.0216-.41c-.0125-.1003-.0411-.1723-.0879-.2148-.0468-.042-.13138-.073-.254-.093-.0348-.01-.0514-.021-.0514-.044s.0166-.033.0514-.033c.0152 0 .0404.001.0747.01.0819.01.192.014.32912.014.0734 0 .13225 0 .17613-.011.0379-.01.0676-.01.0871-.01.0309 0 .0479.011.0507.037.001.016-.0112.026-.0365.034-.0724.018-.11913.047-.14313.089-.0224.042-.0344.1201-.0344.2335v.1921l-.004.1177z" fill="#001999"/></g></svg>