<!-- by TradingView --><svg width="56" height="56" xmlns="http://www.w3.org/2000/svg"><path fill="#F28C00" d="M0 0h56v56H0z"/><path d="M17.036 37.767c.243-.07.435-.12.623-.183.55-.183 1.028-.482 1.398-.935.433-.527.943-.935 1.603-1.134.038-.011.068-.046.15-.103-.118-.073-.208-.133-.302-.185-.73-.404-1.531-.563-2.345-.57-1.165-.008-2.33.04-3.494.098-1.58.076-3.043-.213-4.173-1.411-.508-.538-.908-1.181-1.396-1.829.672.228 1.229.474 1.811.601 1.173.257 2.317.175 3.359-.516.534-.354 1.108-.605 1.757-.635.264-.012.528-.002.882-.002-.214-.23-.378-.447-.581-.616-.655-.544-1.43-.848-2.241-1.068-.807-.219-1.58-.49-2.065-1.246-.069-.107-.13-.218-.252-.424.894.458 1.663.128 2.43-.099.885-.261 1.67-.19 2.348.656 0-.183.023-.268-.003-.334-.23-.588-.421-1.198-.713-1.754-.57-1.086-1.144-2.164-1.451-3.363-.373-1.456-.15-2.812.657-4.075.16-.25.319-.503.546-.743.01.152.019.305.032.458.045.5.018 1.023.154 1.498.245.857.813 1.451 1.703 1.68.041.01.084.016.126.02.02 0 .041-.009.103-.023.015-.293.032-.599.046-.904.075-1.668.618-3.242.962-4.855.127-.593.18-1.204.225-1.81.015-.2-.096-.41-.154-.634.294-.085.52.062.725.225.69.552 1.017 1.305 1.048 2.164.023.685-.044 1.374-.088 2.06-.036.556-.001 1.073.558 1.445.062-.16.117-.292.165-.427.49-1.353.969-2.71 1.471-4.057a6.328 6.328 0 011.26-2.047c.729-.804 1.457-1.607 2.187-2.408.086-.094.185-.175.298-.282.308.346.42.74.452 1.162.05.674-.145 1.296-.408 1.904-.149.345-.296.69-.437 1.039-.205.506-.07.965.202 1.406.12.193.237.228.398.048.114-.128.243-.243.361-.367.503-.532 1.092-.938 1.783-1.172 1.252-.426 2.51-.832 3.84-1.27-.072.16-.118.27-.17.378-.352.749-.71 1.495-1.057 2.245-.117.253-.134.511.052.774.067-.042.128-.064.17-.106.726-.718 1.636-1.023 2.61-1.196.756-.135 1.507-.302 2.26-.46.439-.09.824-.288 1.133-.625.106-.115.225-.217.34-.327.154.96-.372 1.911-1.243 2.254-.288.114-.583.218-.855.364-.61.328-.893.942-.744 1.673 1.006-.826 2.084-1.09 3.295-.45-.633.219-1.262.404-1.755.934.436.307.884.482 1.343.505.785.04 1.579.04 2.36-.029 1.177-.102 2.352-.17 3.518.007.901.138 1.657.66 2.432 1.153-.174-.01-.348-.032-.521-.027-.735.02-1.471.03-2.204.08-.49.034-.847.33-1.119.73-.096.142-.2.28-.287.428-.323.541-.82.761-1.421.791a452.4 452.4 0 01-1.84.09c.229.16.392.312.584.4.465.214.947.394 1.418.598.446.193.846.453 1.144.898-.762.373-1.677.279-2.382.835 1.014.887 1.98 1.781 3.004 2.603.46.37 1.05.574 1.557.892.606.38 1.212.77 1.771 1.214.569.453.957 1.04.907 1.854-.276-.163-.512-.379-.785-.447a20.074 20.074 0 00-2.095-.401c-.824-.114-1.659-.144-2.479-.272-.358-.057-.692-.269-1.037-.41l-.492-.197.64 2.368c-.576-.197-1.002-.786-1.721-.693.056.124.096.221.144.314.596 1.159.859 2.395.896 3.694.02.708.052 1.42.14 2.122.1.788.302 1.55 1.033 2.044-.58.205-1.091.115-1.439-.32-.299-.374-.524-.807-.79-1.21-.396-.599-.772-1.214-1.207-1.784-.376-.492-.896-.817-1.592-1.042.371 1.236.315 2.402-.088 3.566-.338-.587-.581-1.25-1.162-1.645l-.099.037c0 .123-.014.248.003.368.15 1.04-.128 1.997-.507 2.948-.353.887-.7 1.78-.979 2.692-.27.88-.303 1.797-.206 2.715.008.065.011.13.01.194 0 .03-.013.06-.03.129-.904-.204-1.61-.678-2.08-1.474-.503-.854-.539-1.782-.29-2.715.196-.736.461-1.453.677-2.185.07-.24.084-.496.137-.84-.271.075-.498.075-.636.186-.43.347-.877.695-1.226 1.119-.53.645-.984 1.355-1.474 2.034a1.12 1.12 0 01-.353.322c.1-.7.131-1.418.318-2.094.186-.671.527-1.299.814-1.977-.298 0-.655-.06-.982.012-.716.16-1.299.576-1.823 1.09-.652.636-1.267 1.334-2.004 1.85-1.543 1.082-3.297 1.554-5.183 1.449-.484-.028-.935-.187-1.292-.622.37-.087.702-.151 1.025-.245 1.268-.366 2.267-1.13 2.974-2.227a6.164 6.164 0 012.423-2.197c.036-.02.067-.048.098-.075.006-.004.001-.02.001-.108-.572.073-1.142.109-1.696.224-.772.16-1.526.407-2.298.567a5.046 5.046 0 01-3.148-.327zm11.16-1.446c4.722.043 8.843-3.744 8.976-8.794.131-5.024-3.783-9.25-8.922-9.278-4.948-.027-8.963 3.9-9.008 8.964-.047 5.185 4.12 9.134 8.953 9.108z" fill="#fff"/><path d="M25.826 21.782c-1.092.045-2.123-.086-3.124.22a6.082 6.082 0 011.846-1.424c.15-.075.374-.057.549-.016.383.088.757.22 1.116.376l-.667.111.28.733zm5.215-1.246c.335-.17.612-.076.896.093.657.39 1.264.839 1.76 1.458-.251-.038-.503-.081-.755-.114-.454-.06-.914-.082-1.36-.177-.422-.09-.684-.67-.543-1.087.018-.056.002-.123.002-.173zm-5.594 5.986c-.124.417-.217.77-.34 1.11-.028.078-.161.118-.246.175-.06-.097-.174-.197-.168-.29.021-.341.077-.681.128-1.02.035-.231.23-.207.368-.172.111.028.199.149.258.197zm-2.618.2c.123.133.263.255.363.403.044.067.023.27.01.272-.155.024-.282.254-.464.08-.272-.256-.253-.413.09-.755zm1.607 2.972c-.15-.206-.553.039-.597-.328a1.97 1.97 0 01.06-.737c.039.112.06.234.119.333.088.147.205.277.31.414l.192.259a2.11 2.11 0 01-.084.058zm6.781-9.417l-2.734-.617c.958.02 1.855.245 2.734.617zm.019 7.731c-.012.114-.02.23-.045.341-.002.011-.113-.003-.173-.005l.087-.364.13.028z" fill="#F08A00"/><path fill-rule="evenodd" d="M28.194 35.508a8.188 8.188 0 01-8.216-8.293c.041-4.612 3.725-8.188 8.267-8.163 4.715.025 8.307 3.873 8.186 8.449-.12 4.598-3.903 8.046-8.237 8.007zm.03-13.52l-.048-1.224c-.016-.094-.324-.01-.374-.152.229-.082.352-.146.407-.41.027-.124-.803-.282-.88-.198-.097.109.034.296.082.393-.581.027-1.121.052-1.691.08.036-.067.043-.101.064-.114.645-.41 1.317-.721 2.115-.593.102.016.211-.01.317-.016-.851-.178-2.6.203-3.24.636.798.117 1.478.485 2.142.889.05.03.108.088.154.08.274-.049.382.105.426.382l.25-.47.055.008v.756a.272.272 0 00-.163.19l-.001.006c-.183-.022-.497-.161-.658-.03-.125.104-.196.053-.302.033a80 80 0 00-1.544-.279 2.29 2.29 0 00-.31-.023c-.735-.02-1.455-.008-2.168.197-.311.09-.557.247-.757.516-1.31 1.765-2.064 4.313-1.314 6.46l.066-.026c-.36-.948-.35-2-.181-2.998.115-.682.287-1.35.676-1.946.14-.213.64-.215.702.072.077.357.35 1.103-.036 1.318-.381.215.248 1.32.425 1.486.187-.283.396-.545.499-.866.106-.331.05-1.362-.221-1.693-.196-.239-.726-.094-.608-.475.093-.298.298-.48.623-.577l-.058.554.456-.428c.264.19.695.354.762.698.056.285.283.371.537.215a2.61 2.61 0 00.42-.352c.063-.06.126-.12.193-.18-.185-.05-.338.03-.486.109-.159.083-.313.164-.5.084.027-.216.45-.26.166-.574.434-.162.741-.073 1.175-.06a1.11 1.11 0 00.517-.113l.13-.069.045-.024c.554-.298 1.661-.862 1.761-.913.01.029.032.054.045.085-.557.316-1.12.627-1.692.918l-.044.022c-.251.126-.284.3-.195.534.06.15.003.295-.026.448l-.277-.139-.14.245c.268.03.505.047.74.081.176.026.495-.3.813-.699.433-.543.863-1.22.923-1.316.023.016.048.03.075.044l-.802 1.272-.433.672.226.194c.157-.092.214-.246.304-.404.19-.117.042.276.32.276.153 0 .224-.131.224-.267.228-.085.31-.266.316-.508.008-.306.05-1.178.05-1.178l.088.008v1.3c.205 0 .366-.011.52.014.033.005.023.254.025.284l.496-.136-.878-1.498a.37.37 0 00.111-.064l1.047 1.672c.252-.054.19-.426.407-.529.151-.071.54-.143.558-.319a9.07 9.07 0 00-.13-.088l-1.798-.87a.228.228 0 00.002-.09c.515.22 1.892.843 2.083.942-.093-.305.069-.42.233-.538a.782.782 0 00.216-.2c.184.256.778.995.572 1.337-.014.023-.02.034.025.097.24.248.465.502.678.76a9.42 9.42 0 012.415 4.93l.029.12c.174-.213.339-.435.493-.663.324-.703.419-1.454.36-2.262a7.894 7.894 0 00-1.468-4.06c-.212-.3-.46-.495-.823-.552-.356-.056-.712-.11-1.07-.162-.293-.043-.594-.088-.783.287-.005.01-.036.007-.064.012l-.317-.21-.04.232-.217-.185-.016.077c-.113-.012-.261.015-.331-.047-.196-.17-.344-.144-.638-.144-.324 0-1.058.092-1.375.133a.375.375 0 00-.055-.07l1.782-.26c-.207-.403-.452-.856-.95-.484-.24.178-.715.542-.904.687a.565.565 0 00-.086-.047c.198-.166.817-.77.817-.77l.314-.153c-.306-.416-.743-.363-1.185-.48L28.341 22a.638.638 0 00-.118-.011zm6.78 8.065c.025.22.043.443.053.668l.53-1.38a5.404 5.404 0 00-.135.107c-.141.208-.291.41-.449.605zm-2.826 3.88a2.06 2.06 0 00.207-.138c.892-.64 1.792-1.455 2.362-2.398a9.688 9.688 0 00-.027-1.01 9.034 9.034 0 01-2.542 1.987c.026.52 0 1.038 0 1.558zm-8.21-1.825c-.013-.559.003-1.113.054-1.653l-.09-.018c-.31-.06-.611-.119-.908-.192-.076-.019-.17-.14-.178-.22-.064-.696-.08-1.394-.17-2.086-.232.821-.16 1.613.127 2.385.103.276 1.036.393.583.73-.18.133-.397.218-.618.328.38.272.78.515 1.2.726zm4.267.951a.317.317 0 00.026-.135c.013-.652.002-1.304 0-1.955l-.002-.153c-.31.16-.629.457-.953.565-.295.1-.383.303-.427.582-.016.096-.148.202-.25.243-.05.02-.188-.087-.23-.167-.219-.42-.374-.86-.31-1.402-.28.173-.724-.598-1.085-.746a2.863 2.863 0 01-.397-.187c0 .046.001.09.003.13.004.119.16.63.122.7 0 0-.248-.064-.363.138-.05.007-.07 1.06-.06 1.598a9.023 9.023 0 003.926.79zm3.617-.857a13.26 13.26 0 00-.348-2.36.84.84 0 01-.046.1c-.215.388-.59.564-.981.73-.133.056-.233.214-.315.347-.017.028.101.168.18.22.218.14.318.354.222.525-.485.859-1.501-.345-1.664-.614-.073-.121-.208-.06-.317-.085-.014.66-.005 1.32-.005 1.98a8.949 8.949 0 003.274-.843zm2.84-2.113a9.388 9.388 0 00-.873-3.033 12.34 12.34 0 00-1.355-2.069c-.2-.231-.41-.454-.631-.665a1.057 1.057 0 00-.354-.226l.176.398c-.304.349-.363.56-.357 1 .002.152.005.3.293.133.78-.435.374 2.747-.163 2.17.009.186-.011.337.028.47.356 1.202.594 2.433.745 3.669.004.033.01.06.016.083a9.035 9.035 0 002.474-1.93zm-8.866-8.307l-.28-.733.667-.11a6.418 6.418 0 00-1.116-.377c-.174-.041-.398-.059-.548.016a6.081 6.081 0 00-1.846 1.424c1-.306 2.031-.176 3.123-.22zm-1.624 7.435c-.025.124-.048.25-.07.376-.138-.009-.269-.026-.293-.227-.102-.825-.014-.624.363-.149zm-.22 3.238a9.007 9.007 0 01-1.6-1.023c-.05.038-.043.127-.025.18.061.19.221.412.172.61l-.264-.073c.511.615 1.118 1.194 1.81 1.604a23.304 23.304 0 01-.093-1.298zm.836 1.698c-.366-.195-.418-.303-.418-.303a23.414 23.414 0 01-.08-1.234 9.026 9.026 0 003.945.78c.001.446.003 1.113.002 1.52a1.043 1.043 0 01-.227.022 6.77 6.77 0 01-3.222-.785zm3.76-.771v1.543a.99.99 0 00.121 0c.96-.043 1.95-.325 2.759-.625.224-.084.34-.128.401-.283.008-.497.028-.991.01-1.488a8.947 8.947 0 01-3.29.853zm2.463-12.846c0 .05.017.117-.002.174-.14.416.121.997.542 1.087.696.148 1.414.184 2.117.29-.498-.619-1.104-1.068-1.76-1.457-.285-.17-.562-.264-.897-.094zm-7.04 6.424l.064-.688-.406-.456c-.159-.066-.578.31-.505.385.152.157.632.832.847.76zm4.482-7.3c.959.019 1.855.244 2.734.615l-2.734-.615z" fill="#fff"/></svg>