<!-- by TradingView --><svg xmlns="http://www.w3.org/2000/svg" width="56" height="56"><path fill="#223D7A" d="M0 0h56v56H0z"/><path d="M43.87 31.57c-.65.84-1.8 1.81-2.87 2.52v-5.66l4.16.02a5.9 5.9 0 01-1.29 3.12zm-9.13 4.95l-.5.11c1.37-.55 2.6-1.28 3.62-2.15.43-.34.83-.71 1.19-1.1.55.3 1.08.6 1.56.9-.12.09-.25.16-.38.23a21.91 21.91 0 01-5.48 2.01zm-13.5 0a21.53 21.53 0 01-5.48-2.02l-.4-.22a15.8 15.8 0 011.58-.9c.5.53 1.07 1.02 1.71 1.49l.3.2c.87.63 1.86 1.17 2.93 1.59l-.63-.14zm-9.13-4.95c-.77-1-1.2-2.05-1.28-3.13H15v5.62a12.99 12.99 0 01-2.9-2.5zm0-7a10.9 10.9 0 012.79-2.45c.55.37 1.14.72 1.78 1.03A8.72 8.72 0 0015 27.67h-4.17a5.79 5.79 0 011.28-3.1zm9.14-4.97c.77-.18 1.56-.32 2.37-.44v.01l-.76.21a14.47 14.47 0 00-4.21 2.02c-.56.39-1.05.8-1.5 1.25-.57-.28-1.12-.58-1.62-.9l.22-.13a21.2 21.2 0 015.5-2.02zm6.78-4.98c.8 0 1.44.6 1.44 1.36 0 .76-.65 1.37-1.44 1.37-.8 0-1.44-.61-1.44-1.37 0-.75.64-1.36 1.44-1.36zm6.71 4.98c2.06.47 3.9 1.15 5.48 2.01.1.06.2.1.3.17-.52.33-1.07.63-1.65.92-.45-.46-.96-.9-1.53-1.3a14.71 14.71 0 00-4.22-2.02l-.69-.19v-.02c.8.12 1.56.25 2.31.43zm-14.3 4.99c-.33.97-.5 2-.54 3.08h-4.2a6.79 6.79 0 011.62-4.21c.98.44 2.03.82 3.14 1.13zm3.18-4.45c-.49.36-.95.8-1.38 1.28a9.64 9.64 0 00-1.56 2.56 21.47 21.47 0 01-2.87-1.02 13.18 13.18 0 015.81-3.1v.28zM35.32 24a9.68 9.68 0 00-1.58-2.58c-.4-.47-.84-.87-1.3-1.22v-.33c2.33.62 4.34 1.72 5.78 3.12-.9.4-1.88.73-2.9 1.01zm.77 3.67a10.72 10.72 0 00-.55-3.05 22.6 22.6 0 003.16-1.12 6.78 6.78 0 011.6 4.17h-4.21zm4.14.78l-4.64 2.91h-.04c.3-.93.48-1.91.53-2.92l4.17-.02v.02l-.02.01zm-4.91 3.53l.1.02c.67.19 1.32.41 1.94.65-.95.67-2.09 1.23-3.34 1.65h-.07a9.3 9.3 0 001.37-2.32zM20.56 32l.1-.03c.34.84.8 1.61 1.35 2.31h-.03a13.14 13.14 0 01-3.38-1.64 23.4 23.4 0 011.96-.64zm6.04-3.56c-.02.63-.05 1.3-.13 1.96-1.86.1-3.66.35-5.36.77a9.6 9.6 0 01-.5-2.73h5.99zm.17-2.88c-.06.81-.12 1.55-.14 2.11h-6.04c.02-1.02.22-2 .52-2.9 1.78.44 3.7.72 5.66.8zm2.66 2.11l-.14-2.1c1.95-.08 3.83-.34 5.59-.77.3.9.48 1.86.51 2.88h-5.96zm.17 2.74a25.4 25.4 0 01-.13-1.97h5.92c-.05.96-.22 1.88-.51 2.74a27.83 27.83 0 00-5.28-.77zm-8.26 1.39c1.61-.4 3.3-.65 5.05-.74-.14.79-.34 1.49-.67 2-.55.82-1.72 1.23-2.77 1.29a8.86 8.86 0 01-1.61-2.55zm11.7 2.54c-1.02-.08-2.16-.49-2.7-1.3-.33-.49-.53-1.2-.65-1.97 1.71.1 3.37.33 4.95.73-.4.95-.94 1.82-1.6 2.54zm1.6-10.17c-1.7.42-3.51.68-5.4.74-.15-2.03-.35-3.91-.35-3.91h3.37a7.4 7.4 0 012.38 3.17zM23.62 21h3.56s-.2 1.89-.36 3.92c-1.9-.08-3.73-.34-5.46-.77A7 7 0 0123.62 21zm-3.71 7.44c.04 1 .22 2 .53 2.91h-.03l-4.66-2.9h4.16zm23.96-3.88c.77 1 1.2 2.04 1.29 3.11H41a7.57 7.57 0 00-1.66-4.47 17.4 17.4 0 001.82-1.04 10.5 10.5 0 012.71 2.4zm.66-.47a12.4 12.4 0 00-3.89-3.15c-1.65-.9-3.57-1.6-5.7-2.09a29.47 29.47 0 00-4.74-.7c.6-.54.97-1.31.97-2.16 0-1.64-1.4-2.99-3.14-2.99a3.07 3.07 0 00-3.15 2.99c0 .85.38 1.62.97 2.16-1.65.11-3.25.35-4.8.7-2.13.49-4.05 1.2-5.7 2.1-1.65.9-2.97 1.97-3.89 3.14A6.46 6.46 0 0010 28.06c0 1.38.5 2.71 1.46 3.96a12.18 12.18 0 003.9 3.15c1.64.9 3.57 1.6 5.69 2.1 1.18.27 2.4.47 3.63.6A4.68 4.68 0 0128.03 40a4.43 4.43 0 012.8-2.02l.23-.05c.14-.04.27-.06.4-.08 1.2-.13 2.36-.32 3.49-.58 2.12-.5 4.04-1.2 5.7-2.1 1.66-.9 2.97-1.96 3.89-3.15A6.42 6.42 0 0046 28.06a6.5 6.5 0 00-1.47-3.97zM13.97 41.17l-.95-.57-.65-3.05-1.21 1.96-1.06-.64 2.16-3.5.96.57.65 3.03 1.2-1.94 1.06.64-2.16 3.5zm11.28 2.64a3.32 3.32 0 01-1.11.19c-.2-.01-.37-.02-.58-.05a3.19 3.19 0 01-.94-.27c-.27-.13-.5-.3-.68-.53a1.78 1.78 0 01-.38-.72 2.26 2.26 0 01-.04-.87c.05-.35.15-.65.3-.9.17-.24.37-.44.62-.58.24-.15.51-.25.8-.29.3-.04.6-.05.92 0 .47.06.98.23 1.55.51l-.15 1.08a4.3 4.3 0 00-.56-.4 1.7 1.7 0 00-.69-.2 1.5 1.5 0 00-.7.05c-.2.07-.4.17-.55.34a1 1 0 00-.27.57c-.03.21 0 .4.09.59.1.19.21.35.4.47.2.13.4.2.66.25.2.02.39.02.58 0 .18-.04.34-.06.46-.1.14-.05.27-.1.4-.17l-.13 1.03zm11.03-1.67a1.15 1.15 0 01-.54 1.2c-.22.15-.49.25-.8.3l-.3.05h-.5a5.4 5.4 0 01-.69-.1l-.18-1c.22.1.45.16.67.21.21.05.44.05.67.02.2-.04.34-.1.39-.18.05-.07.07-.15.05-.2a.321.321 0 00-.2-.25c-.14-.06-.3-.11-.52-.15a4.32 4.32 0 01-.65-.2c-.2-.08-.36-.2-.5-.34a1.1 1.1 0 01-.27-.55 1.1 1.1 0 01.47-1.13c.21-.15.47-.25.8-.31a3.3 3.3 0 011.14 0l.3.1.17.94c-.2-.09-.4-.15-.62-.21a1.67 1.67 0 00-.7-.02c-.14.03-.25.08-.3.15-.06.07-.08.15-.06.23 0 .09.05.15.13.19.08.04.22.09.41.15.35.09.62.17.83.25.22.07.4.19.52.32.14.12.23.3.28.53zm8.18-5.2c-.12-.16-.23-.24-.37-.24-.15 0-.35.09-.6.24l-.22.15.54.82.23-.14c.17-.11.3-.2.38-.28.08-.1.13-.17.13-.25.02-.1-.02-.2-.1-.3zm1.07-.68c.1.13.15.26.18.41.04.15.04.31 0 .48-.02.17-.1.34-.23.5-.12.18-.3.34-.53.48l-.7.44.85 1.3-1.06.66-2.26-3.43 1.76-1.11c.23-.15.45-.24.67-.28.2-.04.4-.04.57 0 .17.05.31.11.44.2.12.1.22.21.31.35zM15.84 18.28l-1.04.64-.85-1.33-1.58.97.85 1.33-1.06.63-2.16-3.4 1.06-.64.78 1.25 1.57-.97-.78-1.25 1.04-.64 2.17 3.41z" fill="#fff"/><path d="M23.3 15.94l-1.21.25-.49-2.28-.8 1.55-.1.01-1.37-1.08.48 2.27-1.18.25-.83-3.94 1.1-.23 1.54 1.22.92-1.72 1.1-.24.84 3.94zm14.03-2.18l-1.48-.28-.6 3-1.2-.24.6-3-1.48-.28.19-.96 4.15.8-.18.96zm6.62 6.21l-1.07-.6 1.52-2.65-1.63-.89-1.51 2.66-1.09-.59 2-3.51 3.78 2.06-2 3.52z" fill="#fff"/></svg>