<!-- by TradingView --><svg width="56" height="56" viewBox="0 0 56 56" xmlns="http://www.w3.org/2000/svg"><path fill="#7A8D6C" d="M0 0h56v56H0z"/><path d="m16.82 12 3.95 23h2.83c.88 0 1.68-.46 1.68-1.32.02-.85-.8-1.29-1.57-1.28h-.25v-3.01c.39-.02.77-.09 1.14-.2a.66.66 0 0 0 .45-.33.5.5 0 0 0-.14-.53A1.39 1.39 0 0 0 24 28H21.3l.93-3.77c.06-.22 1.38-.17 1.92-.14h.22c.73.02 1.45.15 2.14.41.67.24 1.25.68 1.68 1.27.42.6.66 1.3.68 2.04a3.19 3.19 0 0 1-1.25 2.37l-.13.08c-.17.1-.34.21-.25.42.07.15.25.27.44.4.13.08.26.17.34.26.23.29.41.61.54.96a5.23 5.23 0 0 1-.14 3.97 3.74 3.74 0 0 1-2.2 1.87c-1.08.32-2.21.42-3.33.3-.15 0-1.42-.16-1.58-.18L19.92 41l-1.68-3h-2.48l-1.21 3L11 35h2l3.82-23Zm.16 16.33L16.1 35h1.74l-.86-6.67ZM38.83 12l4 23H45l-3.08 6-1.68-3h-2.48l-1.2 3L33 35h2.01l3.82-23Zm.21 16.33L38.16 35h1.74l-.86-6.67Zm-4.3-2.5c.6.83.99 1.8 1.1 2.83a4.9 4.9 0 0 1-.43 2.55 4.7 4.7 0 0 1-1.64 1.93c-.34.18-.86.3-1.23.35V39H29V24h3.41a5.5 5.5 0 0 1 2.34 1.84ZM32.4 27.6v3.62c.68-.4.98-1.47.85-2.22a1.9 1.9 0 0 0-.85-1.4Z" fill="#7C1618"/></svg>