<!-- by TradingView --><svg xmlns="http://www.w3.org/2000/svg" width="56" height="56" viewBox="0 0 56 56"><path fill="#F0F3FA" d="M0 0h56v56H0z"/><path d="M52 28.5C52 34.85 41.25 40 28 40S4 34.85 4 28.5 14.75 17 28 17s24 5.15 24 11.5Z" fill="#8D1013"/><path d="M51.51 28.5c0 6.1-10.48 11.04-23.41 11.04S4.68 34.6 4.68 28.5c0-6.1 10.49-11.04 23.42-11.04 12.93 0 23.41 4.94 23.41 11.04Z" fill="#F2D06F"/><path d="M6 26.25c-.87 1.44-.74 2.53 0 4.04 1.78 3.65 7.33 6.75 15.5 8.04 2.77.43 10.54.39 13.5-.08 6.36-1 11.87-3.52 14.46-6.26 1.87-1.98 1.67-3.76.89-5.86-1.18-3.14-10.05-7.61-22.92-7.61-6.65.42-17.38 1-21.44 7.73Zm24.45-4.72c1.27.26 3.2.89 3.44 1.13.1.1.06.36-.1.76-.23.59-.18.5-.18.5.86-.18 1.16.64 1.16 1.05 0 .04.02.06.02.14 0 0 .35.08.5-.23.16-.3.53-.96.8-.96.2 0 .38.05.38.12 0 .07-.25.7-.54 1.41-.62 1.47-.6 1.42-.35 1.42.4-.02.88-.62 1.37-1.76.46-1.1.54-1.2.95-1.2.3 0 .42.07.37.2l-.58 1.4a3.87 3.87 0 0 0-.4 1.3c.24.26.84-.47 1.32-1.63.48-1.16.56-1.26.96-1.26.5 0 .52-.12-.3 1.79-.5 1.17-.42 1.4.29.87.48-.36.77-.2.34.17-.37.32-1.2.74-1.49.74-.13 0-.3-.1-.37-.25-.13-.23-.18-.23-.62 0-.6.31-1.07-.12-1.07-.49-.2.06-.36.29-.85.52-.3.15-.66.22-.8.17-.3-.11-.3-.67-.01-1.2.12-.2.35-.68.36-.79-.15.02-.35 0-.35 0s-1.2 1.86-1.98 1.99c-.43.07-.66.02-.86-.16-.26-.23-.1-.38-.55-.15-.7.35-1.25.38-1.24-.19 0-.25.06-.62.12-.8.1-.3.07-.36-.2-.36-.24 0-.41.22-.7.86-.32.73-.43.85-.78.85-.33 0-.4-.06-.34-.3l.13-.46-.56.29c-.58.27-1.1.37-1.49.27-.34-.09-.51-.44-.64-.77-.22.2-1.84 1.54-1.84.63-.2.06-.41.12-.6.2-.7.29-1.22 0-1.22-.7 0-.3.08-.73.16-.96.07-.17.14-.32.15-.4-.13.02-.25.01-.3.06l-.26.53c-.5.98-.99 1.48-1.6 1.51-1.1.06-1.01-1.06.15-1.79.3-.19.65-.37.8-.56.05-.14.05-.18.05-.29 0-.43-.13-.99-.36-.99-.33 0-.87.93-1.87 3.27-1.1 2.55-1.67 3.42-2.4 3.63a.8.8 0 0 1-.61-.12c-.57-.41-.24-1.8.64-2.76l.38-.4-.37.07c-.22.04-.45-.03-.57-.18-.17-.2-.12-.43.31-1.4.28-.65.47-1.22.41-1.27-.25-.25-.56.2-1.3 1.9-.94 2.11-1.72 3.25-2.6 3.75-1.57.9-2.48 0-1.85-1.81.47-1.35 1.67-2.6 3.67-3.82.85-.52 1.12-1.31 1.48-2.18-.48 0-4 0-4-.13 0-.04.05-.31.19-.52.24-.38-.12-.36 2.12-.34 1.04 0 2.1-.02 3.1.21l-.46.99a15.1 15.1 0 0 0-.46 1.04c0 .03.5-.15 1.1-.4 4.71-1.96 8.92-2.54 12.8-1.76Zm-6.14.68c-1.92.2-3.62.58-5.75 1.29-1.63.53-1.86.65-1.47.72.62.12.65.44.14 1.56-.23.52-.37.98-.32 1.03.05.05.3-.06.56-.24.61-.45.6-.19-.05.73-1 1.42-1.63 3-1.19 3 .26 0 .59-.62 1.57-2.94 1.15-2.7 1.53-3.35 2.14-3.67.9-.47 2.01-.2 2.01.98v.23c.22 0 .39 0 .57-.12.23-.28.74-.86 1.45-.86.22 0 .48.08.58.18.19.2.32-.18.66-.18.33 0 .46.06.4.2l-.58 1.39c-.28.66-.46 1.25-.4 1.3.21.22.89-.75 1.1-1.11.54-1.8 1.68-3.03 2.82-3.03.77 0 1.03.6.64 1.47-.2.45-.47.5-.75.16-.16-.19-.15-.28.05-.51.32-.35.33-.8.04-.8-.62 0-1.94 2.33-1.94 3.43 0 .62.29.7 1.15.31.33-.15.74-.45.79-.52.14-.24.23-.47.48-1.04.51-1.14.6-1.25 1-1.25h.44l-.25.58-.33.78c-.05.12.06.2.29.19.29 0 .43-.17.7-.78.28-.64.4-.77.73-.77.22 0 .4.03.4.06 0 .04-.25.64-.55 1.35-.6 1.43-.64 1.84-.13 1.42.17-.15.65-1.06 1.06-2.03.58-1.37.7-1.8.55-1.89-.76-.47-6.27-.87-8.61-.62Zm16.18.84c-.18.46-.8.67-1.37.46-.6-.2-.63-.54-.04-.43.4.08.54.02.9-.37.48-.53.76-.35.5.34Zm-16.97 1.73c-.42.54-.85 1.71-.74 2 .12.32.47.31.73 0 .29-.35 1.05-2.2.95-2.31-.2-.2-.65-.06-.94.31Zm10.04-.06c.07.5.44.55.44.07 0-.27-.09-.4-.25-.4s-.22.1-.19.33ZM13.8 25.8c-1.64 1.37-2.71 2.97-2.62 3.92.06.68.6.75 1.24.16.43-.41 2.71-4.8 2.57-4.95-.04-.03-.57.36-1.19.87Zm18.9.17c-.46 1.07-.36 1.4.27.9.4-.33.93-1.08.96-1.37-.09 0-.17.02-.23 0-.1-.03-.27-.15-.38-.27-.06-.06-.17-.07-.17-.07-.11.12-.22.27-.46.81Zm-12.53.19c-.48.42-.57.57-.42.72.46.48 1.9-2.03.42-.72Zm4.52 2.17c.53.47.41.64-.22.33-1.23-.62-2.62.66-3.23 2.95-.42 1.57-.17 2.57.64 2.57.4 0 1.2-.85 1.52-1.62.26-.6.48-1.02.43-1.18-.2 0-.23-.01-.49-.1-1.16-.45-.7-2.39.56-2.39.7 0 1.27.93 1.1 1.8-.05.3-.02.37.18.31 1.03-.3 1.14-.3 1.02.07-.1.32-.07.32.6-.15 2.1-1.45 4.67-2.18 6.6-1.88 1.08.17 2.6.72 2.6.93 0 .23-.2.31-.4.15-.1-.09-.39-.14-.63-.11-.9.1-1.55 2-.73 2.11.26.04.39-.1.65-.73.27-.66.39-.79.72-.79.22 0 .4.07.4.15 0 .08-.25.7-.55 1.38-.57 1.32-.6 1.46-.34 1.46.33 0 .6-.22.73-.36v-.42c0-1.06 1.08-2.21 1.88-2 .26.07.3.02.22-.26-.3-1.06-.28-1.47.04-1.8.32-.31.47-.32 3.96-.32 2 0 3.62.02 3.62.06 0 .03-.2.53-.46 1.1-.25.57-.46 1.07-.46 1.1 0 .04.13.07.3.07.4 0 .77.4.88.94.08.38.13.42.38.29.23-.12.3-.1.3.08 0 .13-.17.28-.37.33-.1.02-.15.06-.37.16-.11.12-.2.34-.28.49-.37.69-1.08.95-1.8.95-.93 0-1.12-.34-.66-1.44.09-.21.13-.36.14-.45l-.14-.03c-.1.1-.24.3-.4.62-.57 1.2-1.8 1.63-2.3 1.01-.34-.4.18-.9 1-1.43.32-.21.48-.31.63-.45 0 0 .06-.29.06-.55 0-.36-.07-.7-.16-.76-.3-.2-.72.4-1.54 2.22-1.81 4.06-2.23 4.7-3.08 4.7-.95 0-.94-1.45.03-2.6.27-.32.54-.76.68-.92.09-.12.13-.21.13-.21s-.21.1-.52.2c-.53.2-1.2.05-1.56-.37l-.43.17c-1.13.47-1.8.41-1.46-.5l.17-.45-.53.47c-.82.73-1.25.75-2.38.77-.98.01-1.05 0-1.05-.32 0-.19.15-.58.36-1.03.47-1.03.48-1.15.04-.95-.23.1-.52.56-.82 1.28-.4.97-.47.98-.85 1.02-.5.06-.4-.29.18-1.5.25-.56.43-1.03.4-1.05-.02-.02-.2.03-.39.1-.24.09-.52.53-.9 1.38-.47 1.05-.57 1.07-.88 1.07-.2 0-.33-.2-.3-.4 0 0-.15.11-.36.22-.37.2-1 .26-1.12.06-.05-.08-.08-.26.05-.57.3-.7.3-.84.03-.84-.1 0-.36.38-.55.85-.2.47-.37.68-.76.68h-.44l.44-.87c.47-1.03.72-1.54.73-1.7 0 0-.22 0-.3.04-.05.08-.17.3-.28.6a4.95 4.95 0 0 1-1.6 2.11c-.75.46-1.7.4-2.29-.12-.4-.37-.49-.57-.56-1.37-.17-1.83.69-3.6 2.07-4.33.98-.51 1.9-.52 2.47-.03Zm13.68 1.11c-.05.13.06.63.24 1.1.38 1.02.4 1.44.1 2.16-.14.34-.1.55-.1.55.09.06.07.37-.11.67l-.86 1.41c-.52.86-.74 1.8-.42 1.8.24 0 .43-.35 1.48-2.8.56-1.32 1.2-2.7 1.4-3.05.37-.64 1.14-1.14 1.75-1.14.43 0 .93.52 1.05 1.09.03.18.02.3.07.38l.39-.07c.21-.25.5-.85.92-1.83l.22-.5h-3.02c-2.58 0-3.03.03-3.1.23Zm-15.08.33c-.17.17-.12.75.08.96.37.36.6.2.6-.44 0-.5-.06-.62-.3-.62-.15 0-.32.05-.38.1Zm7.31.14c-.95.2-1.39.5-1.39.94 0 .14.13.15.56.02.47-.15.59-.14.75.08.16.23.26.24.67.08.38-.14.53-.14.68 0 .2.2.09.62-.56 2.1-.2.48-.18.47 0 .47.06 0 .22-.03.27-.08-.08-.04-.11-.16-.08-.27.14-.58.91-.48.98.1v.25c.38-.2 1.5-.68.9-1.13-.69-.53-.5-1.96.34-2.56.09-.06.28-.13.3-.17 0 0-.34-.07-1.19-.06-.67 0-1.68.11-2.23.23Zm-3.17 1.18c-.5.27-1.06.58-1.23.7-.29.2-.28.21.12.21.55 0 .64.26.34 1-.29.7-.16.88.34.6.25-.13.51-.68.88-1.56.31-.73.54-1.35.51-1.38-.02-.03-.46.17-.96.43Zm9.9.28c-.36.39-.62 1.06-.63 1.7 0 .4.08.57.3.57.16 0 .38-.19.51-.34.23-.25.65-1.56.65-2.03 0-.3-.53-.24-.84.1Zm7.34.17c.03.2.15.39.26.43.14.04.2-.05.16-.29-.03-.2-.15-.39-.26-.42-.14-.05-.2.04-.16.28Zm-.87 1.11c-.33.7-.5 1.04-.21 1.04.23 0 .94-.52 1.18-.99.12-.25.08-.36-.22-.6l-.37-.27-.38.82Zm-2.7.22c-.43.37-.64.77-.33.77.16 0 .7-.38.93-.82.24-.47 0-.45-.6.05Z" fill="#8D1013"/><path d="M44.42 35.87c-4.17 1.8-9.9 2.9-16.19 2.9-6.3 0-12.02-1.1-16.19-2.9-2.08-.9-3.8-1.98-5-3.21a5.97 5.97 0 0 1-1.92-4.16c0-1.52.71-2.92 1.92-4.16a15.73 15.73 0 0 1 5-3.21c4.17-1.8 9.9-2.9 16.19-2.9 6.3 0 12.02 1.1 16.19 2.9 2.08.9 3.8 1.98 5 3.21a5.97 5.97 0 0 1 1.92 4.16c0 1.52-.71 2.92-1.92 4.16a15.73 15.73 0 0 1-5 3.21Zm-16.19 2.4c12.49 0 22.61-4.37 22.61-9.77 0-5.4-10.12-9.78-22.61-9.78S5.62 23.1 5.62 28.5c0 5.4 10.12 9.78 22.61 9.78Z" fill="#8D1013"/></svg>