<!-- by TradingView --><svg xmlns="http://www.w3.org/2000/svg" width="56" height="56" viewBox="0 0 56 56"><path fill="url(#afiepn5ut)" d="M0 0h56v56H0z"/><path d="M42 19c-1.25-.04-1.76.91-1.99 1.98l-.44 2.27c-.08.34-.32.66-.62.75h-1.98c-1.3-.09-1.96.53-2 1.55-.01.84.9 1.43 1.77 1.45h1.85c.22.04.35.13.36.4l-.57 2.15c-.38 1.17.12 2.42 1.44 2.46 1.55.05 1.77-1.13 1.94-2.08l.04-.19.44-2.26a.84.84 0 0 1 .73-.48h1.93c1.4.12 2.05-.5 2.1-1.4.04-.84-.41-1.56-1.7-1.6h-1.87c-.2-.02-.4-.3-.36-.61l.43-2.21c.26-1.05-.42-2.13-1.5-2.18zm-30.17 3.33C9.5 18.57 11.37 14.91 16 15h5.81c.18-.01.25.07.23.24l-.44 2.47c-.03.2-.17.29-.36.29h-5.03c-.94.07-1.65.53-1.65 1.7.13 1.01.71 1.13 1.39 1.28l.11.02h3.89c.26.02.33.17.3.39l-.39 2.27c-.02.24-.16.36-.42.34h-4.4c-1.54.02-2.3 1.58-2.36 2.58-.05 1.01.42 2.33 1.48 2.42h5.05c.97-.02 1.75-.46 1.96-1.1l1.3-4.32c1.3-4.75 11.48-5.2 10.58 1.46l-1.29 6.55c-.03.29-.2.41-.43.41h-2.66c-.2-.02-.34-.2-.27-.43l1.3-6.26c.27-1.32-.1-2.13-1.26-2.31h-1.02c-.96.05-1.67.89-1.95 1.69-.4 1.62-.76 3-1.14 3.96A4.59 4.59 0 0 1 20.15 32h-6.08A5.09 5.09 0 0 1 9 27.2c-.07-1.62.7-3.55 2.83-4.87zM43.52 35H42v4h.8v-1.39h.72c.75.01 1.38-.4 1.38-1.27S44.23 35 43.52 35zm-.12 1.84h-.6v-.98h.6c.28-.01.6.22.57.48.02.27-.3.52-.57.5zm-6.74 1.74a2 2 0 0 0 .34-1.25V35h-.84v2.4c.03.37-.13.74-.55.74-.38 0-.63-.38-.61-.75V35h-.75v2.33c0 .56.1.97.32 1.25s.57.42 1.05.42c.47 0 .82-.14 1.04-.42zm-10.48-2.36c-.07.25-.1.51-.1.78s.04.53.1.78a2 2 0 0 0 .3.64 1.47 1.47 0 0 0 1.8.43c.2-.1.37-.25.5-.43.13-.19.24-.4.3-.64a3 3 0 0 0 0-1.56 1.99 1.99 0 0 0-.3-.64c-.13-.18-.3-.33-.49-.42-.42-.21-.9-.21-1.31 0-.19.1-.36.24-.5.42a2 2 0 0 0-.3.64zm.76 1.2a2.15 2.15 0 0 1 0-.84c.02-.13.07-.26.13-.37a.66.66 0 0 1 .56-.36c.23 0 .44.13.57.36.06.11.1.24.12.37.06.27.06.56 0 .84-.02.13-.06.25-.12.36-.13.23-.34.37-.57.37a.66.66 0 0 1-.56-.37c-.06-.11-.1-.23-.13-.36zM19.62 35H18v4h.84v-1.48h.63c.42-.03.44.55.46.92v.19c.02.11.03.28.08.37h.8c-.1-.17-.1-.47-.11-.7v-.06c-.02-.39-.04-.98-.47-1.1v-.01c.51-.23.6-1 .4-1.46-.18-.4-.59-.67-1-.67zm-.1 1.75h-.68l-.01-.87h.65c.24 0 .43.18.42.42.01.22-.12.47-.38.45zM12.5 39h.52v-2H11.7v.73h.57c-.01.12-.06.15-.13.19l-.1.06a.75.75 0 0 1-.49.16c-.22 0-.44-.13-.56-.36-.06-.1-.1-.23-.13-.36a2.2 2.2 0 0 1 0-.84c.03-.13.07-.25.13-.37.12-.23.34-.36.56-.35.15 0 .3.04.43.14.1.08.18.23.2.39h.8a1.62 1.62 0 0 0-.15-.63 1.3 1.3 0 0 0-.78-.68 1.55 1.55 0 0 0-.48-.08c-.23 0-.45.05-.65.15-.19.1-.36.25-.5.43-.13.18-.24.4-.31.63-.15.5-.15 1.06 0 1.57a2 2 0 0 0 .32.63c.13.18.3.33.5.43a1.34 1.34 0 0 0 .87.13 1.02 1.02 0 0 0 .64-.47l.06.5z" fill="#fff"/><defs><linearGradient id="afiepn5ut" x1="10.42" y1="9.71" x2="68.15" y2="76.02" gradientUnits="userSpaceOnUse"><stop stop-color="#1A1E21"/><stop offset="1" stop-color="#06060A"/></linearGradient></defs></svg>