<svg xmlns="http://www.w3.org/2000/svg" xmlns:xlink="http://www.w3.org/1999/xlink" viewBox="0 0 330.65 127"><defs><style>.cls-1{fill:url(#Безымянный_градиент_9);}.cls-2{fill:url(#Безымянный_градиент_9-2);}.cls-3{fill:url(#Безымянный_градиент_9-3);}.cls-4{fill:url(#Безымянный_градиент_9-4);}.cls-5{fill:url(#Безымянный_градиент_9-5);}.cls-6{fill:url(#Безымянный_градиент_9-6);}.cls-7{fill:url(#Безымянный_градиент_9-7);}.cls-8{fill:url(#Безымянный_градиент_9-8);}</style><radialGradient id="Безымянный_градиент_9" cx="94.61" cy="62.4" fx="102.76445707358418" r="65.56" gradientTransform="matrix(-0.95, -0.31, 0.24, -0.74, 169.82, 137.6)" gradientUnits="userSpaceOnUse"><stop offset="0.07" stop-color="#74c4ee"/><stop offset="0.17" stop-color="#6bbbe8"/><stop offset="0.32" stop-color="#54a1d6"/><stop offset="0.42" stop-color="#408cc8"/><stop offset="0.5" stop-color="#3d81c0"/><stop offset="0.65" stop-color="#3465ab"/><stop offset="0.81" stop-color="#283c8d"/></radialGradient><radialGradient id="Безымянный_градиент_9-2" cx="-1945.75" cy="-1138.72" fx="-1937.5935513003185" r="65.56" gradientTransform="matrix(-0.46, -0.89, 0.69, -0.36, -13.97, -2051.16)" xlink:href="#Безымянный_градиент_9"/><radialGradient id="Безымянный_градиент_9-3" cx="-5684.35" cy="-889.35" fx="-5676.192337598863" r="65.56" gradientTransform="matrix(0.31, -0.95, 0.74, 0.24, 2462.78, -5105.3)" xlink:href="#Безымянный_градиент_9"/><radialGradient id="Безымянный_градиент_9-4" cx="-9222.73" cy="1648.68" fx="-9214.578400082626" r="65.56" gradientTransform="matrix(0.89, -0.46, 0.36, 0.69, 7659.31, -5269.5)" xlink:href="#Безымянный_градиент_9"/><radialGradient id="Безымянный_градиент_9-5" cx="-10979.91" cy="5735.71" fx="-10971.755704379004" r="65.56" gradientTransform="matrix(0.95, 0.31, -0.24, 0.74, 11852.13, -828.98)" xlink:href="#Безымянный_градиент_9"/><radialGradient id="Безымянный_градиент_9-6" cx="-11089.26" cy="9587.12" fx="-11081.106503841076" r="65.56" gradientTransform="matrix(0.46, 0.89, -0.69, 0.36, 11748.03, 6495.11)" xlink:href="#Безымянный_градиент_9"/><radialGradient id="Безымянный_градиент_9-7" cx="-9686.55" cy="11692.75" fx="-9678.396246664557" r="65.56" gradientTransform="matrix(-0.31, 0.95, -0.74, -0.24, 5768.05, 12039.85)" xlink:href="#Безымянный_градиент_9"/><radialGradient id="Безымянный_градиент_9-8" cx="-7670.17" cy="11720.63" fx="-7662.011026477962" r="65.56" gradientTransform="matrix(-0.89, 0.46, -0.36, -0.69, -2567.75, 11663.73)" xlink:href="#Безымянный_градиент_9"/></defs><g id="Слой_2" data-name="Слой 2"><g id="Layer_1" data-name="Layer 1"><path d="M198.51,43.86V80.43h-7V67h-7.81L170.58,80.43h-8.36V79.37l12.1-12.43c-7.59-.39-12.27-4.63-12.27-11.15v-.61c0-7,5.24-11.32,13.6-11.32Zm-7,6.24H175.82c-4.29,0-6.69,1.84-6.69,5.08v.61c0,3.23,2.4,5.07,6.69,5.07h15.73Z"/><path d="M219,50.1H204V43.86h37.07V50.1H226V80.43h-7Z"/><path d="M285.77,61.75v.79c0,11.31-8.42,18.56-21.63,18.56-12,0-20.91-6.58-20.91-15.39v-.33h7.08v.33c0,5.24,5.69,8.92,13.83,8.92,8.3,0,13.27-3.23,14.33-9.36H258.34V59h20.13c-1.06-6.07-6.08-9.36-14.33-9.36-8,0-13.83,3.79-13.83,9V59h-7.08v-.34c0-8.86,8.92-15.44,20.91-15.44C277.35,43.19,285.77,50.44,285.77,61.75Z"/><path d="M330.65,44.92,314.26,61.7,330,79.37v1.06h-8.14L307.85,65H300.6V80.43h-7V43.86h7V58.74h7.19l14.44-14.88h8.42Z"/><path class="cls-1" d="M113.05,103.68a.89.89,0,0,1-1.34.19c-1.59-1.43-3.51-3.1-6.32-5.94-3.59-3.63-6.93-7.41-9.15-10.13-3.6-4.3-5.58-6.81-8.94-11.4-.75-1-2.91-4.11-4.43-6.6a.91.91,0,0,1,.39-1.28c2.09-1,5.55-2.12,5.86-2.23A70,70,0,0,1,98.35,64a31.82,31.82,0,0,1,13-.06A18,18,0,0,1,114.48,65a12.68,12.68,0,0,1,7.26,8.57,10.63,10.63,0,0,1,.33,1.55,14.4,14.4,0,0,1,.2,1.67,33.07,33.07,0,0,1-2.19,12.86,69.49,69.49,0,0,1-5.25,11.12C114.67,101,113.77,102.51,113.05,103.68Z"/><path class="cls-2" d="M70.15,127a.89.89,0,0,1-1.08-.81c-.12-2.14-.29-4.68-.27-8.68,0-5.1.34-10.14.69-13.62.5-5.59.87-8.76,1.74-14.38.19-1.26.85-5,1.54-7.81A.9.9,0,0,1,74,81.06c2.15.8,5.42,2.42,5.72,2.56a69,69,0,0,1,8.16,4.88,31.89,31.89,0,0,1,9.24,9.16,17.71,17.71,0,0,1,1.45,3,12.7,12.7,0,0,1-.93,11.19,12.45,12.45,0,0,1-.86,1.33,15,15,0,0,1-1,1.32A33,33,0,0,1,85,122a69,69,0,0,1-11.56,4.16C73.16,126.25,71.49,126.67,70.15,127Z"/><path class="cls-3" d="M23.34,113.17a.89.89,0,0,1-.19-1.34c1.43-1.59,3.1-3.51,5.94-6.32,3.63-3.59,7.41-6.94,10.13-9.15,4.3-3.6,6.81-5.58,11.4-8.94,1-.75,4.11-2.91,6.6-4.43a.91.91,0,0,1,1.28.39c1,2.09,2.12,5.55,2.23,5.86a69.91,69.91,0,0,1,2.32,9.22,31.87,31.87,0,0,1,.06,13A18,18,0,0,1,62,114.6a12.68,12.68,0,0,1-8.57,7.26,10.63,10.63,0,0,1-1.55.33,14.4,14.4,0,0,1-1.67.2,32.9,32.9,0,0,1-12.86-2.2A69.39,69.39,0,0,1,26.26,115Z"/><path class="cls-4" d="M0,70.27a.88.88,0,0,1,.81-1.08c2.14-.12,4.68-.29,8.68-.27,5.1,0,10.14.33,13.62.69,5.59.5,8.76.87,14.38,1.74,1.26.19,5,.85,7.81,1.54a.89.89,0,0,1,.62,1.18c-.8,2.15-2.42,5.42-2.56,5.71A70,70,0,0,1,38.5,88a31.73,31.73,0,0,1-9.16,9.23,16.3,16.3,0,0,1-3,1.45,12.66,12.66,0,0,1-11.19-.92,12.45,12.45,0,0,1-1.33-.86c-.44-.3-.88-.68-1.32-1A33,33,0,0,1,5,85.16,68.75,68.75,0,0,1,.82,73.59C.75,73.28.33,71.61,0,70.27Z"/><path class="cls-5" d="M13.83,23.4a.89.89,0,0,1,1.34-.19c1.59,1.43,3.51,3.1,6.32,5.94,3.59,3.63,6.94,7.41,9.15,10.13,3.6,4.3,5.58,6.81,8.94,11.39.75,1,2.91,4.12,4.43,6.61a.91.91,0,0,1-.39,1.28c-2.09,1-5.55,2.12-5.86,2.23a69.91,69.91,0,0,1-9.22,2.32,32,32,0,0,1-13,.06,18,18,0,0,1-3.13-1.08,12.68,12.68,0,0,1-7.26-8.57A10.63,10.63,0,0,1,4.81,52a14.4,14.4,0,0,1-.2-1.67,32.9,32.9,0,0,1,2.2-12.86,69,69,0,0,1,5.24-11.12C12.22,26.05,13.11,24.57,13.83,23.4Z"/><path class="cls-6" d="M56.75,0a.88.88,0,0,1,1.08.81c.12,2.14.29,4.68.27,8.68,0,5.1-.33,10.14-.69,13.62-.5,5.59-.87,8.76-1.74,14.38-.19,1.26-.85,5-1.54,7.81a.9.9,0,0,1-1.18.62c-2.15-.8-5.42-2.42-5.71-2.56a70,70,0,0,1-8.17-4.88,31.73,31.73,0,0,1-9.23-9.16,16.3,16.3,0,0,1-1.45-3,12.66,12.66,0,0,1,.92-11.19,12.45,12.45,0,0,1,.86-1.33c.3-.44.68-.88,1-1.32A33,33,0,0,1,41.86,5,68.75,68.75,0,0,1,53.43.82C53.74.75,55.41.33,56.75,0Z"/><path class="cls-7" d="M103.6,13.93a.89.89,0,0,1,.19,1.34c-1.43,1.59-3.1,3.51-5.94,6.32-3.63,3.59-7.41,6.93-10.13,9.15-4.3,3.6-6.81,5.58-11.39,8.94-1,.75-4.12,2.91-6.61,4.43a.91.91,0,0,1-1.28-.39c-1-2.09-2.12-5.55-2.23-5.86a70,70,0,0,1-2.32-9.23,32,32,0,0,1-.06-13,18,18,0,0,1,1.08-3.13,12.68,12.68,0,0,1,8.57-7.26A10.63,10.63,0,0,1,75,4.91a14.4,14.4,0,0,1,1.67-.2,32.9,32.9,0,0,1,12.86,2.2,68.15,68.15,0,0,1,11.12,5.24Z"/><path class="cls-8" d="M126.94,56.85a.89.89,0,0,1-.81,1.08c-2.14.12-4.68.29-8.68.27-5.1,0-10.14-.34-13.62-.69-5.59-.5-8.76-.87-14.38-1.74-1.26-.19-5-.85-7.81-1.54A.9.9,0,0,1,81,53.05c.8-2.15,2.42-5.42,2.56-5.72a69,69,0,0,1,4.88-8.16,31.89,31.89,0,0,1,9.16-9.24,17.71,17.71,0,0,1,3-1.45,12.7,12.7,0,0,1,11.19.93,11.53,11.53,0,0,1,1.33.86,15,15,0,0,1,1.32,1A33,33,0,0,1,122,42a69,69,0,0,1,4.16,11.56C126.21,53.84,126.63,55.51,126.94,56.85Z"/></g></g></svg>