<?xml version="1.0" encoding="UTF-8" standalone="no"?>
<svg
   xmlns:dc="http://purl.org/dc/elements/1.1/"
   xmlns:cc="http://creativecommons.org/ns#"
   xmlns:rdf="http://www.w3.org/1999/02/22-rdf-syntax-ns#"
   xmlns:svg="http://www.w3.org/2000/svg"
   xmlns="http://www.w3.org/2000/svg"
   xmlns:xlink="http://www.w3.org/1999/xlink"
   width="580"
   height="400"
   version="1.1"
   id="svg15">
  <metadata
     id="metadata21">
    <rdf:RDF>
      <cc:Work
         rdf:about="">
        <dc:format>image/svg+xml</dc:format>
        <dc:type
           rdf:resource="http://purl.org/dc/dcmitype/StillImage" />
        <dc:title></dc:title>
      </cc:Work>
    </rdf:RDF>
  </metadata>
  <defs
     id="defs19">
    <linearGradient
       id="linearGradient115">
      <stop
         style="stop-color:#7bb631;stop-opacity:1;"
         offset="0"
         id="stop111" />
      <stop
         style="stop-color:#027e40;stop-opacity:1"
         offset="1"
         id="stop113" />
    </linearGradient>
    <linearGradient
       id="linearGradient81">
      <stop
         style="stop-color:#fcfefa;stop-opacity:1"
         offset="0"
         id="stop77" />
      <stop
         style="stop-color:#d6d7d6;stop-opacity:1"
         offset="1"
         id="stop79" />
    </linearGradient>
    <linearGradient
       id="linearGradient29">
      <stop
         style="stop-color:#db2f7b;stop-opacity:1;"
         offset="0"
         id="stop25" />
      <stop
         style="stop-color:#9b2978;stop-opacity:1"
         offset="1"
         id="stop27" />
    </linearGradient>
    <linearGradient
       xlink:href="#linearGradient29"
       id="linearGradient31"
       x1="551.09491"
       y1="82.48175"
       x2="512.40875"
       y2="178.10219"
       gradientUnits="userSpaceOnUse"
       gradientTransform="translate(102.18978,9.4890509)" />
    <radialGradient
       xlink:href="#linearGradient81"
       id="radialGradient75"
       cx="651.54382"
       cy="180.39651"
       fx="651.54382"
       fy="180.39651"
       r="118.19141"
       gradientTransform="matrix(1.140098,-1.0301598,0.6597892,0.73020159,-252.35842,727.05968)"
       gradientUnits="userSpaceOnUse" />
    <radialGradient
       xlink:href="#linearGradient115"
       id="radialGradient117"
       cx="595.62476"
       cy="234.32346"
       fx="595.62476"
       fy="234.32346"
       r="129.19727"
       gradientTransform="matrix(-0.97174999,-0.01129937,0.00893483,-0.76831946,1181.0843,394.06472)"
       gradientUnits="userSpaceOnUse" />
  </defs>
  <!-- Created with SVG Editor - http://github.com/mzalive/SVG Editor/ -->
  <g
     id="g122"
     transform="translate(-336.49635,5.8394161)">
    <ellipse
       style="fill:url(#linearGradient31);fill-opacity:1;stroke-width:1.6251;stop-color:#000000"
       id="path23"
       cx="609.48901"
       cy="183.94159"
       rx="129.19708"
       ry="127.73723" />
    <path
       id="path23-7"
       style="fill:url(#radialGradient75);fill-opacity:1;stroke-width:1.6251;stop-color:#000000"
       d="m 538.74776,76.799799 c -14.52444,9.536235 -26.94635,21.880422 -36.51757,36.289061 l 110.17773,92.75 v 69.34375 L 738.613,168.99902 c -2.16367,-19.10364 -8.66037,-37.47812 -19.00586,-53.75391 l -107.19922,88.4043 v -66.42383 z" />
    <path
       id="path23-1"
       style="fill:url(#radialGradient117);fill-opacity:1;stroke-width:1.6251;stop-color:#000000"
       d="m 501.95703,113.13672 c -14.12729,20.97217 -21.66545,45.60692 -21.66601,70.80469 -5.9e-4,70.5478 57.8432,127.73838 129.19726,127.73828 71.35407,1e-4 129.19786,-57.19047 129.19727,-127.73828 4e-4,-4.96313 -0.29176,-9.92206 -0.875,-14.85157 l -126.1314,104.63195 1.45931,-69.34375 z" />
  </g>
  <path
     d="m 75.376437,368.32227 q 5.046603,0 7.298807,-1.42902 2.419032,-1.55604 2.419032,-4.50935 0,-2.88978 -2.419032,-4.41407 -2.210497,-1.42902 -7.298807,-1.42902 h -9.425884 v 11.78146 z m 1.16781,8.32007 H 49.893182 v -47.41168 h 47.087719 v 9.241 H 65.950553 v 8.82816 h 10.593694 q 11.80321,0 18.51811,3.71545 6.089293,3.36613 6.089293,10.98756 0,7.55793 -6.089293,10.92406 -6.7149,3.71545 -18.51811,3.71545 z"
     style="font-style:normal;font-variant:normal;font-weight:bold;font-stretch:normal;font-size:68.4472px;line-height:1.25;font-family:Eurostile;-inkscape-font-specification:Eurostile;letter-spacing:0px;word-spacing:0px;fill:#636163;fill-opacity:1;stroke:none;stroke-width:2.79499"
     id="path128" />
  <path
     d="m 144.30571,367.27478 h -22.57885 l -3.5631,8.63763 h -14.51497 l 20.74103,-47.41168 h 17.21542 l 20.74103,47.41168 H 147.8313 Z m -18.97823,-8.7964 h 15.34011 l -7.65131,-18.86305 z"
     style="font-style:normal;font-variant:normal;font-weight:bold;font-stretch:normal;font-size:68.4472px;line-height:1.25;font-family:Eurostile;-inkscape-font-specification:Eurostile;letter-spacing:0px;word-spacing:0px;fill:#636163;fill-opacity:1;stroke:none;stroke-width:2.65049"
     id="path130" />
  <path
     d="m 209.30641,367.40135 h 16.8753 v -38.17069 h 13.02003 v 47.41168 h -72.81066 v -47.41168 h 13.02002 v 38.17069 h 16.8753 v -38.17069 h 13.02001 z"
     style="font-style:normal;font-variant:normal;font-weight:bold;font-stretch:normal;font-size:68.4472px;line-height:1.25;font-family:Eurostile;-inkscape-font-specification:Eurostile;letter-spacing:0px;word-spacing:0px;fill:#636163;fill-opacity:1;stroke:none;stroke-width:2.5168"
     id="path132" />
  <path
     d="m 250.27267,329.23066 h 15.01234 v 18.06916 h 22.14809 v -18.06916 h 15.01234 v 47.41168 H 287.4331 v -20.10153 h -22.14809 v 20.10153 h -15.01234 z"
     style="font-style:normal;font-variant:normal;font-weight:bold;font-stretch:normal;font-size:68.4472px;line-height:1.25;font-family:Eurostile;-inkscape-font-specification:Eurostile;letter-spacing:0px;word-spacing:0px;fill:#636163;fill-opacity:1;stroke:none;stroke-width:2.70251"
     id="path134" />
  <path
     d="m 309.83158,329.23066 h 40.83489 v 9.241 h -25.70358 v 8.82816 h 24.17079 v 9.24099 h -24.17079 v 10.86054 h 26.56822 v 9.24099 h -41.69953 z"
     style="font-style:normal;font-variant:normal;font-weight:bold;font-stretch:normal;font-size:68.4472px;line-height:1.25;font-family:Eurostile;-inkscape-font-specification:Eurostile;letter-spacing:0px;word-spacing:0px;fill:#636163;fill-opacity:1;stroke:none;stroke-width:2.7132"
     id="path136" />
  <path
     d="m 371.28764,352.74884 q 0,5.71676 2.95466,8.27024 2.99303,2.55348 9.43958,3.08705 v -22.75266 q -6.44655,0.53356 -9.43958,3.12515 -2.95466,2.55349 -2.95466,8.27022 z m 39.56181,0 q 0,-5.71673 -2.99305,-8.27022 -2.95466,-2.59159 -9.4012,-3.12515 v 22.75266 q 6.44654,-0.53357 9.4012,-3.08705 2.99305,-2.55348 2.99305,-8.27024 z M 383.68188,324.8511 h 14.77332 v 5.64053 q 14.08262,1.14335 20.83613,6.36465 6.79191,5.22129 6.79191,15.89256 0,10.67127 -6.79191,15.89258 -6.75351,5.18318 -20.83613,6.32652 v 6.78389 h -14.77332 v -6.78389 q -14.08263,-1.14334 -20.87452,-6.32652 -6.79189,-5.22131 -6.79189,-15.89258 0,-10.67127 6.79189,-15.89256 6.79189,-5.2213 20.87452,-6.36465 z"
     style="font-style:normal;font-variant:normal;font-weight:bold;font-stretch:normal;font-size:68.4472px;line-height:1.25;font-family:Eurostile;-inkscape-font-specification:Eurostile;letter-spacing:0px;word-spacing:0px;fill:#636163;fill-opacity:1;stroke:none;stroke-width:2.93697"
     id="path138" />
  <path
     d="m 424.21851,329.23066 h 48.3999 v 9.241 h -17.4113 v 38.17068 h -13.54212 v -38.17068 h -17.44648 z"
     style="font-style:normal;font-variant:normal;font-weight:bold;font-stretch:normal;font-size:68.4472px;line-height:1.25;font-family:Eurostile;-inkscape-font-specification:Eurostile;letter-spacing:0px;word-spacing:0px;fill:#636163;fill-opacity:1;stroke:none;stroke-width:2.56677"
     id="path140" />
  <path
     d="m 504.01272,368.32227 q 4.831,0 6.987,-1.42902 2.31567,-1.55604 2.31567,-4.50935 0,-2.88978 -2.31567,-4.41407 -2.11607,-1.42902 -6.987,-1.42902 h -9.02322 v 11.78146 z m 24.67408,-6.31944 q 0,7.55793 -5.82915,10.92406 -6.42804,3.71545 -17.72701,3.71545 h -25.51253 v -47.41168 h 15.37139 v 18.06916 h 10.14114 q 11.29897,0 17.72701,3.71545 5.82915,3.36613 5.82915,10.98756 z"
     style="font-style:normal;font-variant:normal;font-weight:bold;font-stretch:normal;font-size:68.4472px;line-height:1.25;font-family:Eurostile;-inkscape-font-specification:Eurostile;letter-spacing:0px;word-spacing:0px;fill:#636163;fill-opacity:1;stroke:none;stroke-width:2.73464"
     id="path142" />
  <rect
     style="fill:#000000;fill-opacity:1;stroke-width:1.74699;stop-color:#000000"
     id="rect153"
     width="496.35037"
     height="5.109489"
     x="37.226276"
     y="-1.459854"
     rx="0.26547262"
     ry="0" />
</svg>
