<!-- by TradingView --><svg width="56" height="56" viewBox="0 0 56 56" xmlns="http://www.w3.org/2000/svg"><path fill="#F0F3FA" d="M0 0h56v56H0z"/><path fill-rule="evenodd" d="M43 13H13v30h30V13Zm-26 5h7a2 2 0 0 1 2 2v1.89A6.44 6.44 0 0 0 21.89 26H19a2 2 0 0 1-2-2v-6Zm-1 6v-7h8a3 3 0 0 1 3 3v7h-8a3 3 0 0 1-3-3Zm23-6h-7a2 2 0 0 0-2 2v1.89A6.44 6.44 0 0 1 34.11 26H37a2 2 0 0 0 2-2v-6Zm1 6v-7h-8a3 3 0 0 0-3 3v7h8a3 3 0 0 0 3-3Zm-8 14h7v-6a2 2 0 0 0-2-2h-2.89A6.44 6.44 0 0 1 30 34.11V36c0 1.1.9 2 2 2Zm8 1v-7a3 3 0 0 0-3-3h-8v7a3 3 0 0 0 3 3h8Zm-23-1h7a2 2 0 0 0 2-2v-1.89A6.44 6.44 0 0 1 21.89 30H19a2 2 0 0 0-2 2v6Zm-1-6v7h8a3 3 0 0 0 3-3v-7h-8a3 3 0 0 0-3 3Z" fill="#00A8AF"/></svg>