<!-- by TradingView --><svg width="56" height="56" viewBox="0 0 56 56" xmlns="http://www.w3.org/2000/svg"><path fill="#F0F3FA" d="M0 0h56v56H0z"/><path d="M37.4 26h-5.28l3.32 1.97-3.32 2.06h6.52L43 26.1v-5.28L37.4 26Z" fill="url(#aiux0p5ty)"/><path d="M33.1 26h-2.98l4.15 1.97L30.01 30h3.1l3.31-2.03L33.1 26Z" fill="#54BEE3"/><path d="M23.88 26h-6.52L13 30.99v5.62l5.78-6.56h5.1l.5-2.08-.5-1.97Z" fill="url(#biux0p5ty)"/><path d="M24.25 26h-.98l.49 1.97-.5 2.03h.99l.5-2.03-.5-1.97Z" fill="#4B9BD2"/><path d="M23.14 33.3 34.27 28h-9.53l-1.6 5.3Z" fill="#D0D5D6"/><path d="M13 13v18.08L17.36 26h6.7l-.92-3.5 8.3 3.5h5.97L43 21.02V13H13ZM38.57 30h-7.13l-8.6 3.55 1.3-3.55h-5.36L13 36.13V43h30V26.05L38.57 30Z" fill="#1B4692"/><path d="M23.14 22.63 34.27 28h-9.53l-1.6-5.37Z" fill="#fff"/><path d="M23.16 26h.98l-1-3.37L30.12 26h2.18l-10.7-5.15L23.17 26ZM30.07 30l-6.93 3.3 1-3.3h-.96L21.6 35.1 32.27 30h-2.2Z" fill="#1B4692"/><defs><linearGradient id="aiux0p5ty" x1="43" y1="25.48" x2="12.85" y2="25.48" gradientUnits="userSpaceOnUse"><stop offset=".16" stop-color="#57C8E8"/><stop offset=".78" stop-color="#478ECC"/></linearGradient><linearGradient id="biux0p5ty" x1="42.97" y1="31.25" x2="12.97" y2="31.25" gradientUnits="userSpaceOnUse"><stop offset=".16" stop-color="#57C8E8"/><stop offset=".78" stop-color="#478ECC"/></linearGradient></defs></svg>