<!-- by TradingView --><svg width="56" height="56" viewBox="0 0 56 56" xmlns="http://www.w3.org/2000/svg"><path fill="#F0F3FA" d="M0 0h56v56H0z"/><path d="M18.44 14.63a6.37 6.37 0 0 1-1.55-.9c-.17-.14-.15-.2.07-.16a9.1 9.1 0 0 0 2.92 0c.21-.03.43-.11.66-.24 1.3-.7 2.56-1.12 3.82-1.27a6.2 6.2 0 0 1 3.84.65 4.72 4.72 0 0 1 2.53 5.05 5.9 5.9 0 0 1-.57 1.72c-.23.46-.57.97-1 1.54-.16.2-.18.46-.05.75.16.37.33.73.5 1.08.03.05.03.1 0 .14a.15.15 0 0 1-.11.08.78.78 0 0 1-.36-.04 20.52 20.52 0 0 0-2.41-.63 3.23 3.23 0 0 0-2.2.49c-.5.32-.81.8-.96 1.44a2.9 2.9 0 0 0 .14 1.77c.24.59.66 1.1 1.25 1.55.3.23.8.55 1.45.96.92.58 1.58 1.04 1.99 1.39.67.58 1.17 1.2 1.49 1.89.01.03 0 .05-.01.08a.07.07 0 0 1-.08.03c-1.63-.27-3.17-.8-4.61-1.58l-3.6-1.95c-3.17-1.72-5.67-2.03-7.48-.93-.6.37-1.03.96-1.3 1.78a7.13 7.13 0 0 0-.33 2.3c-.02.02-.03.01-.04-.01a15.89 15.89 0 0 1-.37-5.59c.16-2.15.82-4.26 1.98-6.34a15.03 15.03 0 0 1 4.4-5c.03-.02.03-.04-.01-.05Z" fill="#E64E25"/><path d="M27.27 19.92c.3-.18.41-.55.25-.83-.17-.29-.55-.37-.85-.2a.62.62 0 0 0-.25.83c.17.28.54.37.85.2Z" fill="#fff"/><path d="M35.95 29.19c-.16-.8.02-1.34.56-1.65.24-.13.52-.19.84-.18.32 0 .64.08.97.22a4.47 4.47 0 0 1 2.23 2.17c.04.09.01.15-.06.2a16.95 16.95 0 0 1-8.88 2.21.17.17 0 0 1-.16-.09 3.17 3.17 0 0 1-.24-2.62 11.17 11.17 0 0 1 1.43-2.62c.28-.44.44-.88.48-1.3.04-.53-.11-.95-.47-1.27l-.46-.43a.25.25 0 0 1-.06-.11c-.02-.06 0-.1.06-.12l.23-.07c.24-.07.42-.13.53-.19.19-.1.32-.21.39-.36.31-.62.79-1.06 1.42-1.3a2.98 2.98 0 0 1 1.95-.06c.55.16.99.51 1.3 1.05.29.48.44 1.03.46 1.67l.02.55c.01.6.03 1.06.07 1.35.07.5.19.95.37 1.36.04.1.02.13-.08.07a4.18 4.18 0 0 0-1.48-.61c-.63-.11-1.1.03-1.44.42-.18.22-.28.5-.28.86 0 .32.06.62.18.89.16.32.2.3.12-.04Z" fill="#E64E25"/><path d="M35.1 23.85a.4.4 0 1 0 0-.78.4.4 0 0 0 0 .78Z" fill="#fff"/><path d="M27.85 40.68c.39.06.77.1 1.16.12a18.77 18.77 0 0 0 11.58-3.32c.43-.3.83-.64 1.22-1.04.06-.07.08-.06.06.03l-.02.08a12.78 12.78 0 0 1-2.47 3.14 16.62 16.62 0 0 1-7.15 3.85 15.3 15.3 0 0 1-3.99.46 16.85 16.85 0 0 1-7.63-1.97c-2.37-1.26-4.31-3-5.83-5.22a11.86 11.86 0 0 1-1.58-3.21 5.74 5.74 0 0 1-.13-3.5c.4-1.23 1.34-1.95 2.82-2.16a8.44 8.44 0 0 1 3.76.45c.77.26 1.45.55 2.05.87l3.37 1.76c2.9 1.48 5.95 2 9.18 1.55a17.34 17.34 0 0 0 10.6-5.62.07.07 0 0 1 .08-.03c.03.01.05.04.05.07.1.84-.14 1.77-.7 2.8a7.37 7.37 0 0 1-1.88 2.27c-3.2 2.54-7.11 3.88-11.76 4.01-2.27.07-4.44-.21-6.5-.85a.15.15 0 0 0-.17.04c-.02.02-.02.04-.01.06.04.08.1.14.19.17a20 20 0 0 0 15.97-1.23 13.79 13.79 0 0 0 3.58-2.78c.07-.07.1-.06.11.04.04.85-.16 1.7-.58 2.52a7.32 7.32 0 0 1-1.63 2.08c-2.02 1.83-4.82 3.14-8.39 3.94-1.79.4-3.55.56-5.3.47a.08.08 0 0 0-.07.04l-.02.04c-.03.04-.02.06.03.07Z" fill="#E64E25"/></svg>