<!-- by TradingView --><svg width="56" height="56" viewBox="0 0 56 56" xmlns="http://www.w3.org/2000/svg"><path fill="#F0F3FA" d="M0 0h56v56H0z"/><path d="M37.5 44a5.5 5.5 0 1 0 0-11 5.5 5.5 0 0 0 0 11Z" fill="url(#acwhtp4co)"/><path d="M14.9 17.83c6.5-8.09 20.9-5.78 22.47 5.2.81 5.7-6.36 8-8.52 12.59-5.27 11.19-23.95-5.36-13.96-17.79Z" fill="url(#bcwhtp4co)"/><path d="M36.43 19.77a12 12 0 0 1 .94 3.27c.5 3.46-1.97 5.67-4.46 7.9-1.6 1.44-3.22 2.88-4.06 4.68-1.77 3.75-5.05 4.39-8.25 3.1a13.26 13.26 0 0 1 15.83-18.95Z" fill="#8858C8"/><path d="M37.12 21.76c.1.41.18.84.25 1.28.5 3.46-1.97 5.67-4.46 7.9-1.6 1.44-3.22 2.88-4.06 4.68-1.35 2.86-3.57 3.9-5.96 3.68a11.55 11.55 0 0 1-2.32-6.97 11.65 11.65 0 0 1 16.55-10.57Z" fill="#9A55C1"/><path d="M37.43 23.84c.04 3.02-2.23 5.05-4.52 7.1-1.6 1.44-3.22 2.88-4.06 4.68-.94 2-2.31 3.11-3.87 3.52a9.88 9.88 0 0 1-2.71-6.8 9.96 9.96 0 0 1 15.16-8.5Z" fill="#AF5DAE"/><path d="M37.18 25.59c-.64 2.1-2.45 3.72-4.27 5.35-1.6 1.44-3.22 2.88-4.06 4.68a6.72 6.72 0 0 1-2.31 2.82 8.3 8.3 0 0 1-2.67-6.1 8.36 8.36 0 0 1 13.31-6.75Z" fill="#C063A0"/><path d="M36.52 27.05c-.87 1.44-2.23 2.66-3.61 3.9-1.6 1.43-3.22 2.87-4.06 4.67-.33.7-.71 1.29-1.13 1.78a6.8 6.8 0 0 1 8.8-10.34Z" fill="#D56F8B"/><path d="M35.64 28.27c-.8.94-1.76 1.8-2.73 2.67-1.6 1.44-3.22 2.88-4.06 4.68l-.27.53a5.3 5.3 0 0 1 7.06-7.88Z" fill="#F1826B"/><defs><linearGradient id="acwhtp4co" x1="32.83" y1="35.05" x2="41.59" y2="42.21" gradientUnits="userSpaceOnUse"><stop offset=".3" stop-color="#F1826A"/><stop offset=".41" stop-color="#B65CAD"/><stop offset=".66" stop-color="#6A5BD2"/></linearGradient><linearGradient id="bcwhtp4co" x1="16.35" y1="16.25" x2="33.42" y2="31.19" gradientUnits="userSpaceOnUse"><stop stop-color="#6B5CD6"/><stop offset="1" stop-color="#904ECC"/></linearGradient></defs></svg>