<!-- by TradingView --><svg width="56" height="56" viewBox="0 0 56 56" xmlns="http://www.w3.org/2000/svg"><path fill="#FC171A" d="M0 0h56v56H0z"/><path fill-rule="evenodd" d="M42.78 34.12a15.85 15.85 0 0 0 0-12.24 15.85 15.85 0 0 0-8.66-8.66 15.85 15.85 0 0 0-12.24 0 15.85 15.85 0 0 0-8.66 8.66 15.85 15.85 0 0 0 0 12.24 15.85 15.85 0 0 0 8.66 8.66 15.85 15.85 0 0 0 12.24 0 15.85 15.85 0 0 0 8.66-8.66Zm-10.84-6.8c.03-.05.05-.05.06.01v6.9c0 .44.1.75.15.95l.03.1a2.24 2.24 0 0 0 1.43 1.57 2.59 2.59 0 0 0 2.08-.16c.32-.17.58-.4.8-.7.22-.3.37-.65.45-1.04.05-.23.07-.6.06-1.08l-.01-1.08c0-6.03 0-9.65-.02-10.85a3.02 3.02 0 0 0-1.9-2.76 2.84 2.84 0 0 0-1.1-.18c-.97.02-1.76.39-2.38 1.1-.15.18-.37.5-.65.97a551.48 551.48 0 0 0-2.88 4.8l-.02-.01-3-4.82c-.2-.33-.4-.6-.6-.85a3.19 3.19 0 0 0-1.2-.94 3.15 3.15 0 0 0-2.87.22A2.9 2.9 0 0 0 19 21.9c.02 3.39.02 7.49.01 12.3 0 .46.03.78.08.98.1.37.25.69.47.96.23.28.51.49.85.63.44.19.87.26 1.3.22 1.62-.16 2.29-1.54 2.29-2.9a3230.25 3230.25 0 0 0 0-6.91c.02-.02.03-.01.04 0 .1.14.18.33.3.57.2.42.46 1 .95 1.74.21.33.4.57.54.75a2.68 2.68 0 0 0 2.26 1.03 2.92 2.92 0 0 0 2.4-1.45c.64-1.03 1.03-1.75 1.26-2.16.09-.16.15-.28.2-.34Z" fill="#fff"/></svg>