<!-- by TradingView --><svg width="56" height="56" viewBox="0 0 56 56" xmlns="http://www.w3.org/2000/svg"><path fill="#F0F3FA" d="M0 0h56v56H0z"/><path d="M20.14 40H10l3.82-2h8l.93 1h10.59l.86-1h8l3.8 2H35.87l-.98 2H21.13l-1-2Z" fill="#9A2A2B"/><path d="M13.84 38.01 10 40l5.2-8.58-1.14-1.22L20.78 18h2.03L28 9v4.62L24.13 20h-1.77l-5.28 10.2.67 1.22-3.91 6.6Z" fill="#F62D33"/><path d="M42.22 38.01 46 40l-5.2-8.58 1.14-1.22L35.29 18h-2.1L28 9v4.62L31.99 20h1.65l5.28 10.2-.67 1.22 3.97 6.6Z" fill="#C22E30"/><path d="M23.42 36h-6.8l3.72-1.65h4.36l.36.65h5.9l.32-.65h4.3L39.4 36H32.6l-.5 1h-8.17l-.5-1Z" fill="#00509F"/><path d="M20.36 34.37 16.64 36l3.44-5.03-.68-1.27 4.2-7.3h1.1l3.3-5.84v4.53L25.84 25H24.8l-2.86 5.23.6.51-2.17 3.63Z" fill="#007BC1"/><path d="m35.57 34.35 3.8 1.65-3.46-5.03.68-1.27-4.2-7.3h-1.1L28 16.55v4.53L30.14 25h1.05l2.87 5.23-.6.51 2.11 3.61Z" fill="#0068B4"/><path d="M27.99 30.24 23.23 33h2.72l.3.36h3.48l.3-.36h2.74l-4.78-2.76Z" fill="#9A2A2B"/><path d="M28 30.26v-5.62L26.6 27h-.42l-1.86 3.17.36.36L23.24 33 28 30.26Z" fill="#F62D33"/><path d="M28 30.26v-5.62L29.37 27h.43l1.86 3.17-.37.36L32.76 33 28 30.26Z" fill="#C22E30"/></svg>