<?xml version="1.0" encoding="UTF-8"?>
<svg version="1.1" viewBox="0 0 418.52 150" xmlns="http://www.w3.org/2000/svg">
	<path d="m150 135c0 8.2761-6.7224 14.999-14.999 14.999h-120c-8.2611 0-14.999-6.7224-14.999-14.999v-120c0-8.2761 6.7374-14.998 14.999-14.998l120 0.0149c8.2761 0 14.999 6.7075 14.999 14.984z" fill="#e9322b"/>
	<path d="m74.978 130.57c28.07 0 40.618-22.333 40.618-44.458 0-31.162-21.646-66.687-40.618-66.687-18.927 0-40.574 35.524-40.574 66.687 0 22.124 12.549 44.458 40.574 44.458" fill="#fff"/>
	<path d="m388.55 113.52c-15.686 0-30.102-3.6451-30.102-3.6451l1.3893-17.224s16.104 3.2118 28.712 3.2118c6.588 0 9.3815-1.1055 9.3815-4.0484v-0.28383c0-2.7936-1.2549-3.914-6.3042-5.3182l-14.55-3.9289c-12.474-3.3463-19.196-8.2611-19.196-21.557v-0.70212c0-17.926 13.027-21.99 32.208-21.99 12.608 0 25.067 2.5246 25.067 2.5246l-1.5387 17.508s-13.445-2.8085-24.365-2.8085c-8.1267 0-10.786 1.2698-10.786 4.6161v0.56767c0 2.6591 1.4042 3.4957 6.3042 4.7655l12.324 3.2118c15.402 4.0633 21.422 9.6654 21.422 22.124v1.5387c0 13.31-7.559 21.437-29.967 21.437m-148.48-8.7885 11.592-27.741h1.2698l2.4051 35.001h21.094l-4.8252-72.393h-20.362l-17.553 41.126h-1.2698l-18.255-41.126h-20.093l-4.8103 72.393h20.511l2.1213-35.001h1.2698l13.027 27.741zm44.435-46.793h20.959v54.063h21.826v-54.063h20.944l1.2698-18.33h-66.253z" fill="#e9322b"/>
</svg>
