<!-- by TradingView --><svg width="56" height="56" viewBox="0 0 56 56" xmlns="http://www.w3.org/2000/svg"><path fill="#3300BD" d="M0 0h56v56H0z"/><path d="M37 17h-1.5c-.4 0-.78.15-1.06.41-.28.27-.44.63-.44 1v8.35l3 1.95V17Z" fill="#E3E3E1"/><path d="M34 26.66v16.28l3-2.03V28.7l-3-2.04Z" fill="#FEFFFF"/><path d="M25 13.51a1.53 1.53 0 0 0-1.82-1.48 1.5 1.5 0 0 0-1.03.8c-.1.2-.15.42-.15.65v12.7a.04.04 0 0 0 .02.04.04.04 0 0 0 .04 0L25 24.23V13.51Z" fill="#E3E3E1"/><path d="M22 26.19v17.27l.3.2 2.7 1.82V24.14l-3 2.05Z" fill="#FEFFFF"/><path d="M29 23.62V10.64a1.61 1.61 0 0 0-1.18-1.59 1.46 1.46 0 0 0-1.67.74c-.1.2-.15.4-.15.62v13.2l1.49-1.02L29 23.62Z" fill="#E3E3E1"/><path d="M27.5 22.5 26 23.51v22.46L27.5 47l1.5-1.02V23.5l-1.5-1.02Z" fill="#FEFFFF"/><path d="M33 13.54a1.58 1.58 0 0 0-1.14-1.5A1.5 1.5 0 0 0 30 13.52v10.66l3 2.1V13.54Z" fill="#E3E3E1"/><path d="M30 24.17v21.26l3-2.04V26.2l-3-2.03Z" fill="#FEFFFF"/><path d="M21 26.43v-4A1.43 1.43 0 0 0 19.57 21H18v7.51l3-2.08Z" fill="#E3E3E1"/><path d="M18 28.51V40.8l3 2.05V26.43l-3 2.08Z" fill="#FEFFFF"/></svg>