<!-- by TradingView --><svg xmlns="http://www.w3.org/2000/svg" width="56" height="56"><path fill="#005B9C" d="M0 0h56v56H0z"/><path d="M32 17.5c-.23 0-.46.04-.67.12l-2.44-5.6c4.4.24 8.31 2.26 11.06 5.35l-6.15 1.25A2 2 0 0032 17.5zm9.04 1.23l-7.05.94a2 2 0 01-.34.97l10.13 10.02a16.14 16.14 0 00.22-2.65c0-3.46-1.1-6.66-2.96-9.28zM43.4 32.4L32.92 21.3l-.36.14 3.27 20.55a16.05 16.05 0 007.57-9.59zm-9.18 10.38l-2.64-21.3a1.99 1.99 0 01-.2-.06L21.83 42.8A15.94 15.94 0 0028 44.02a15.94 15.94 0 006.22-1.25zm-13.98-.75L30.57 20.9a2.08 2.08 0 01-.07-.07L12.66 32.57a16.05 16.05 0 007.58 9.45zm-8-11.25L29.96 20.1l-15.22-1.03A15.95 15.95 0 0012 28c0 .94.08 1.86.24 2.76zm3.73-13.32l14.06 1.73c.05-.32.18-.62.37-.87l-3.35-6.28a15.96 15.96 0 00-11.08 5.42z" fill="#fff"/></svg>