<!-- by TradingView --><svg width="56" height="56" viewBox="0 0 56 56" xmlns="http://www.w3.org/2000/svg"><path fill="#F0F3FA" d="M0 0h56v56H0z"/><path d="m12.4 27.14-.02.01.02-.02Zm0 0a504 504 0 0 0 .82 4.86h1.77l2.82-4.95a8.05 8.05 0 0 1-.7-.51c-.25-.2-.5-.39-.75-.54a126.91 126.91 0 0 0-1.9 4.19c-.1-.76-.18-1.55-.26-2.34-.06-.62-.12-1.25-.2-1.85l-.77.55c-.27.2-.55.41-.83.59ZM38.9 26l-.47 2.33c-.15.72-.52 2-1.4 2.15-.39.06-.78-.15-.75-.59.02-.54.1-1.07.23-1.6l.07-.32c.07-.31.13-.63.18-.94a16.5 16.5 0 0 1-.79-.52c-.26-.17-.52-.35-.79-.51l-.69 3.55c-.32 1.3.34 2.63 1.67 2.42a2.8 2.8 0 0 0 1.91-1.13L39.54 32c.26-1.56.58-3.28.9-4.83L38.9 26Zm-12.42.05c-.65.13-1.22.48-1.6 1l-.07.05-1.47-.95c-.07.5-.16 1-.26 1.5l-.41 2.18-.41 2.17h1.82l.22-1.13.21-1.14c.07-.48.21-.96.42-1.4.17-.39.47-.7.86-.9.14-.06.3-.08.44-.04.15.03.28.12.36.24.1.32.1.64 0 .95l-.32 1.71-.33 1.71h1.8a65.7 65.7 0 0 0 .64-3.31c.11-.49.15-1 .1-1.49a1.31 1.31 0 0 0-.58-.95 2 2 0 0 0-1.42-.2ZM8.44 28.33c.04-.2.13-.4.26-.57.28-.34.56-.46 1-.5.28-.02.65.01.76.32.11.34-.23.56-.52.62-.5.1-1 .15-1.5.13Zm2.82-2.09a3.22 3.22 0 0 0-1.95-.15c-.86.16-1.52.56-2.02 1.24-.6.81-.83 1.81-.65 2.79.08.54.36 1.05.82 1.38.58.36 1.27.54 1.96.48a5.17 5.17 0 0 0 1.99-.46l-.21-1.17c-.46.2-.95.3-1.45.32-.38.03-.76-.06-1.08-.26-.13-.1-.23-.21-.3-.35-.07-.13-.08-.3-.08-.46.76.02 1.53-.06 2.28-.23.71-.16 1.4-.62 1.57-1.37a1.57 1.57 0 0 0-.88-1.76Zm35.53-2.1a1.47 1.47 0 0 0-1.6.25 1.27 1.27 0 0 0-.28 1.52c.12.26.33.47.6.6a1.47 1.47 0 0 0 1.65-.22 1.28 1.28 0 0 0 .26-1.57 1.38 1.38 0 0 0-.63-.58ZM29.92 32h-1.76l1.67-8.47 1.59 1.02a78.8 78.8 0 0 0-.48 2.34c.34-.37.8-.65 1.3-.8a1.99 1.99 0 0 1 1.6.2c.19.15.34.36.44.59.1.22.14.47.12.72-.05.69-.16 1.37-.32 2.05L33.63 32h-1.77l.28-1.5.38-2.05c.11-.4.05-.94-.41-1.05-.52-.13-1.04.37-1.25.8-.29.57-.47 1.19-.55 1.82L29.92 32ZM4 32l1.66-8.48h.06l1.6 1.01c-.26 1.21-.5 2.47-.75 3.74L5.82 32H4Zm35.98 0 1.65-8.49c.51.3 1.04.67 1.55 1.06l-.38 1.9-.37 1.9a86 86 0 0 1 1.3-1.48l.66-.73c.2.46.59.82 1.07 1.02l-1.44 1.32 1.7 3.5h-1.99c-.24-.56-.48-1.17-.72-1.78-.2-.54-.42-1.08-.63-1.58L41.75 32h-1.77ZM19.1 28.33c.05-.21.14-.4.27-.58.28-.33.55-.45 1-.5.28-.02.65.02.75.33.12.34-.22.56-.51.62-.5.1-1 .15-1.5.13Zm2.82-2.1a3.21 3.21 0 0 0-1.94-.15c-.87.16-1.52.56-2.02 1.25-.6.81-.83 1.82-.66 2.8.1.53.37 1.05.83 1.38.58.36 1.27.54 1.96.48a5.15 5.15 0 0 0 1.98-.46 58.7 58.7 0 0 0-.2-1.17c-.46.2-.95.3-1.45.31-.38.04-.76-.05-1.08-.25-.13-.1-.23-.22-.3-.35a1.05 1.05 0 0 1-.09-.46c.77.01 1.54-.06 2.28-.24.72-.16 1.4-.62 1.57-1.37a1.58 1.58 0 0 0-.88-1.76Z"/><path d="M48.5 20a3.51 3.51 0 0 1 2.9 5.47 3.5 3.5 0 0 1-4.03 1.34 1.95 1.95 0 0 0-2.37-3.1v-.2A3.5 3.5 0 0 1 48.5 20Z" fill="url(#aimudzihm)"/><defs><linearGradient id="aimudzihm" x1="44.61" y1="21.57" x2="54.24" y2="22.09" gradientUnits="userSpaceOnUse"><stop stop-color="#FEED53"/><stop offset=".8" stop-color="#EB8100"/></linearGradient></defs></svg>