<!-- by TradingView --><svg xmlns="http://www.w3.org/2000/svg" width="56" height="56" viewBox="0 0 56 56"><path fill="#F0F3FA" d="M0 0h56v56H0z"/><g clip-path="url(#aoth3qidm)"><path d="M7.56 37.8c.18.13.4.2.63.2a1.1 1.1 0 0 0 1.04-.63c.06-.13.1-.27.1-.41 0-.58-.39-.93-.79-.96.7-.58 2.36-.54 3.13-.47l.3.02a1.42 1.42 0 0 0-.52 1.13v.05a1.33 1.33 0 0 0 .78 1.23c.9-2.02 3.58-2.04 4.86-2.14.19-.02 1.81-.13 3.69-.19 3.36-.11 7.75-.18 7.75-.18s3.05.02 5.99.11c2.5.08 4.92.23 5.4.27 1.27.1 3.95.12 4.85 2.14l.25-.15a1.35 1.35 0 0 0 .53-1.08v-.06a1.4 1.4 0 0 0-.53-1.12l.3-.03c.77-.07 2.44-.1 3.14.47-.4.03-.8.38-.8.96a1.1 1.1 0 0 0 .79 1 1.14 1.14 0 0 0 1-.16c.26-.2.44-.48.5-.8a1.56 1.56 0 0 0-.3-1.35c-.33-.41-.91-.58-1.46-.62l-.44-.01-.96-.02H10.21l-.97.02-.44.01c-.55.04-1.13.21-1.46.62a1.56 1.56 0 0 0-.3 1.35c.07.32.25.6.52.8Zm40.16-2.58.46.02c.51.03 1.04.2 1.3.54.2.24.3.54.3.85a.98.98 0 0 1-1.02 1.02.67.67 0 0 1-.52-.25.48.48 0 0 1-.02-.52c.14-.2.36-.23.46-.15.1.1.14.18.07.28-.07.1-.06.15 0 .22a.2.2 0 0 0 .25.05.2.2 0 0 0 .06-.06c.12-.17-.08-.34-.08-.34s.48-.39.04-1.04c-.3-.44-.93-.57-1.3-.6-.18-.02-.11-.02 0-.02Zm-3.16.38a.36.36 0 0 1 .28.1 1.23 1.23 0 0 1 .5 1v.04c0 .28-.1.56-.3.77-.12-.44-.4-.83-.76-1.1a3.3 3.3 0 0 0-1.63-.7l1.9-.1Zm-32.4.1a.36.36 0 0 1 .28-.1l1.91.12a3.3 3.3 0 0 0-1.63.7c-.37.27-.64.66-.76 1.1a1.1 1.1 0 0 1-.3-.82 1.21 1.21 0 0 1 .5-1.01Zm-4.65.08c.27-.34.8-.5 1.3-.54l.47-.02c.11 0 .18 0 0 .02-.37.03-.99.16-1.3.6-.44.65.04 1.04.04 1.04s-.2.17-.08.34a.2.2 0 0 0 .15.08.2.2 0 0 0 .16-.07c.06-.07.07-.12 0-.22-.06-.1-.02-.2.07-.28.1-.08.33-.03.47.15a.48.48 0 0 1-.02.52.66.66 0 0 1-.53.25 1 1 0 0 1-1.03-1.02c0-.3.1-.6.3-.85Z" fill="url(#both3qidm)"/><path d="M43.89 39.44a1.65 1.65 0 0 0 .02-.75 1.25 1.25 0 0 0-.36-.66l-.07-.05a1.07 1.07 0 0 0-.7-.24c-.25 0-.5.1-.7.27a1 1 0 0 0-.34.68c0 .73.93.76 1.14.21.1.12.15.27.15.42 0 .08-.01.16-.04.24a.8.8 0 0 1-.43.5.97.97 0 0 1-.27.1c-.42.03-.95-.21-1.48-.95-.33.05-.67.03-1-.06-.77-.16-1.27-.92-1.3-.94.35.35.79.6 1.27.72 1.78.32 2.14-1.45 1.34-1.98-.05.18-.14.35-.25.5a1.14 1.14 0 0 1-.91.38 3 3 0 0 1-.83-.14l-.73-.23-.2-.07a7.15 7.15 0 0 0-2.28-.36c-1.37 0-2.33.52-2.92 1.2-.47.47-.74 1.1-.75 1.76 0 .16.01.32.05.47.1.53.38 1.01.38 1.3v.01c0 .22-.07.43-.19.6-.05.09-.12.17-.2.24.1.02.21.03.32.02.74-.03 1.3-.46 1.1-1.37 1.2.45 2.04-.43 2.04-1.19 0-.49-.36-1.04-.95-1.04a.79.79 0 0 0-.6.2.76.76 0 0 0-.24.6c0 .24.1.47.27.65a.72.72 0 0 1-.47-.15.99.99 0 0 1-.33-.62c-.06-.34-.04-.68.07-1a1.48 1.48 0 0 1 1.28-.97h.07c.13-.03.26-.04.4-.04.46-.01.9.13 1.26.4a.9.9 0 0 1 .32.72c0 .13-.02.26-.07.38-.12.25-.29.47-.5.65.11.05.23.08.35.09.87.1 1.48-.58 1.5-1.48a3.84 3.84 0 0 1 1.2 2.23 1.57 1.57 0 0 1-.68 1.44c-.24.18-.53.27-.84.28a.98.98 0 0 1-.31-.05.72.72 0 0 1-.46-.32.71.71 0 0 0 .58-.17.7.7 0 0 0 .23-.53.85.85 0 0 0-.57-.8.89.89 0 0 0-.35-.06 1.05 1.05 0 0 0-1 .67c-.06.16-.1.34-.1.51 0 .37.16 1 1 1.32.22.09.46.13.7.13.32 0 .65-.08.95-.22l.05-.03h.2c.44 0 1.54-.13 1.93-1.3.1-.31.15-.64.15-.96l-.01-.28c.4.23.85.36 1.31.37.44 0 .86-.13 1.21-.38l.03-.01c.33-.2.74-.46 1.25-.27a1 1 0 0 1 .62.79.65.65 0 0 1-.24.58c-.4.35-1.04.1-.91-.28a.23.23 0 0 1 .13-.17.24.24 0 0 1 .21.01.2.2 0 0 0 .22 0 .2.2 0 0 0 .09-.19.27.27 0 0 0-.07-.18.27.27 0 0 0-.17-.08.53.53 0 0 0-.3.06c-.1-.1-.2-.2-.33-.26-.74.68-.06 1.72.85 1.62a1.07 1.07 0 0 0 .93-.83c.03-.14.03-.3 0-.44-.13-.81-.9-1.27-1.72-1.22Zm-4.82-1.54c.29.1.59.15.9.15h.11a1.27 1.27 0 0 0 1.14-.74.77.77 0 0 1 .02.71.83.83 0 0 1-.71.5c-.93.1-1.68-.61-1.78-.71l.32.1Zm-5.81 4.2a.7.7 0 0 1-.56.34c.12-.2.19-.42.2-.65v-.02c-.02-.38-.3-.84-.4-1.34a2.22 2.22 0 0 1 .37-1.7 3.17 3.17 0 0 0 .4 2.48.91.91 0 0 1 0 .88h-.01Zm.16-1.8a.97.97 0 0 0 .8.4c.43 0 .58-.22.62-.33a.36.36 0 0 0-.06-.36s.24-.05.24-.23a.17.17 0 0 0-.1-.17.16.16 0 0 0-.14 0 .17.17 0 0 0-.08.11l-.01.07c0 .1-.07.16-.2.15-.35-.03-.37-.5.03-.67a.65.65 0 0 1 .52.02.75.75 0 0 1 .41.62.97.97 0 0 1-.27.77c-.18.17-.4.28-.65.32h-.02c-.3.04-.6-.03-.86-.2-.56-.37-.47-1.18-.47-1.18.02.25.1.49.25.7v-.01Zm4.06-.91c-.09.11-.2.2-.33.26-.16.06-.33.1-.5.1.12-.14.22-.3.29-.46a1.21 1.21 0 0 0 0-.94 1.11 1.11 0 0 0-.3-.4c-.4-.3-.9-.46-1.4-.44h-.23a2.9 2.9 0 0 1 1.58-.17 1.3 1.3 0 0 1 1.15 1.09c.03.34-.06.68-.25.96h-.01Zm.87 3.3c-.26.14-.56.2-.86.2-.2 0-.42-.04-.61-.12-.58-.23-.78-.6-.84-.89a1.53 1.53 0 0 1-.03-.23c0-.15.04-.29.1-.42.04-.08.1-.16.16-.23a.64.64 0 0 1 .52-.2.56.56 0 0 1 .46.3.3.3 0 0 1-.14.44c-.06.02-.23.03-.27-.1-.05-.11-.11-.15-.2-.14a.2.2 0 0 0-.16.1.19.19 0 0 0 0 .18.25.25 0 0 0 .2.16h.06v.04c0 .12.03.24.1.35.12.2.32.35.55.42.13.04.26.06.39.06a1.91 1.91 0 0 0 1.13-.43c-.14.21-.33.39-.55.52Zm2.07-1.2a1.55 1.55 0 0 1-.82.96c.2-.15.34-.35.43-.58.28-.66.3-1.4.03-2.07.15.13.3.25.47.37a2.67 2.67 0 0 1-.1 1.32Zm2.74-1.35c-.15.13-.34.21-.53.26a1.2 1.2 0 0 1-1-.18c.25.12.52.16.78.11a1 1 0 0 0 .83-1 .87.87 0 0 0-.3-.67.29.29 0 0 0 .06-.13.19.19 0 0 0-.1-.2.2.2 0 0 0-.1-.02.17.17 0 0 0-.11.06.16.16 0 0 0-.04.13c.02.12.12.2.05.27a.29.29 0 0 1-.26.09.29.29 0 0 1-.22-.18c-.1-.19-.05-.4.2-.57a.87.87 0 0 1 1.1.2c.08.13.15.28.18.43a1.4 1.4 0 0 1-.53 1.4Z" fill="url(#coth3qidm)"/><path d="M34.97 42.42c-.46-.12-.87.31-.9.37a.67.67 0 0 0-.23.51c.02.15.05.3.12.42l.2-.14s.22.39.19.6a.94.94 0 0 0 .7-.37c.03-.04.03.1 0 .22.14 0 .26-.06.36-.14a.59.59 0 0 0 .18-.27c.04-.15.05-.3.03-.44-.02-.15-.2-.65-.65-.76Zm.42 1.2a.33.33 0 0 1-.2.19s-.04-.44-.06-.35a.78.78 0 0 1-.12.22c-.15.16-.35.3-.56.36a4.34 4.34 0 0 0 .43-.95c-.49.1-.86.4-.87.34 0-.07.39-.5.93-.68l.03-.2.12.06.17.15c.08.1.13.21.15.33.05.17.04.35-.02.52Zm-13.44-1.2c-.46.12-.63.62-.65.76-.02.15-.01.3.03.44.03.11.1.2.18.28.1.08.23.13.36.14-.03-.13-.03-.26 0-.22a.93.93 0 0 0 .7.36c-.03-.19.2-.59.2-.59l.2.14c.06-.13.1-.28.1-.42a.66.66 0 0 0-.21-.52c-.04-.07-.46-.5-.91-.37Zm.08.67.05.19c.1.27.23.52.39.77a1.3 1.3 0 0 1-.57-.37.77.77 0 0 1-.11-.22c-.02-.09-.06.35-.06.35a.34.34 0 0 1-.2-.19.86.86 0 0 1-.03-.53.7.7 0 0 1 .15-.32l.16-.16a.48.48 0 0 1 .13-.06l.02.2c.56.18.95.61.94.68-.01.07-.38-.24-.87-.35Z" fill="url(#doth3qidm)"/><path d="M24.55 40.48a2.45 2.45 0 0 0-.7-2.23 3.72 3.72 0 0 0-2.92-1.2 7.1 7.1 0 0 0-2.27.35l-.21.07-.72.23a3 3 0 0 1-.84.14 1.15 1.15 0 0 1-.9-.38c-.12-.15-.2-.32-.26-.5-.8.53-.43 2.3 1.34 1.98a2.6 2.6 0 0 0 1.26-.73c-.02.03-.53.78-1.3.95-.33.08-.66.1-1 .06-.52.73-1.06.97-1.47.94a1 1 0 0 1-.28-.1.8.8 0 0 1-.46-.74c0-.15.05-.3.14-.42.22.55 1.14.52 1.14-.21a1 1 0 0 0-.33-.68c-.2-.17-.45-.27-.72-.26-.23 0-.46.07-.65.2l-.04.03a1.25 1.25 0 0 0-.43.71 1.58 1.58 0 0 0 .03.76c-.82-.05-1.57.41-1.7 1.22a1.04 1.04 0 0 0 .5 1.14c.14.07.28.12.43.13.9.1 1.59-.94.85-1.62-.12.07-.24.15-.33.26a.53.53 0 0 0-.3-.06.27.27 0 0 0-.17.08.27.27 0 0 0-.07.18.19.19 0 0 0 .08.2.2.2 0 0 0 .22 0 .24.24 0 0 1 .35.15c.13.38-.51.63-.92.28a.66.66 0 0 1-.23-.57 1 1 0 0 1 .61-.8c.5-.18.9.06 1.24.26l.03.03c.35.26.78.39 1.21.38.46 0 .92-.13 1.31-.37l-.01.28c0 .33.05.65.15.96.39 1.17 1.49 1.3 1.94 1.3h.2l.04.03c.3.15.63.22.96.22.23 0 .47-.04.7-.12.83-.33 1-.96.99-1.32 0-.18-.04-.35-.1-.52a1.03 1.03 0 0 0-1-.66.89.89 0 0 0-.85.51.85.85 0 0 0-.07.34.68.68 0 0 0 .25.52.7.7 0 0 0 .56.16.7.7 0 0 1-.44.33.97.97 0 0 1-.32.06 1.6 1.6 0 0 1-1.51-1.73c.06-.68.44-1.47 1.19-2.23.03.9.64 1.57 1.51 1.48.12 0 .24-.04.35-.09-.21-.18-.38-.4-.5-.65a1.02 1.02 0 0 1 0-.78.92.92 0 0 1 .25-.32c.36-.27.8-.41 1.26-.4a2.81 2.81 0 0 1 .53.04 1.5 1.5 0 0 1 1.22.96c.1.32.13.67.07 1a.98.98 0 0 1-.33.63c-.13.1-.3.15-.47.15a.97.97 0 0 0 .27-.66.75.75 0 0 0-.24-.58.78.78 0 0 0-.6-.21c-.58 0-.95.55-.95 1.04 0 .77.83 1.64 2.04 1.19-.2.9.36 1.34 1.1 1.37.1 0 .2 0 .31-.02a1.24 1.24 0 0 1-.38-.84v-.01c-.02-.28.24-.76.36-1.3Zm-8.23-1.97a.84.84 0 0 1-.71-.49.76.76 0 0 1 .03-.71 1.25 1.25 0 0 0 1.12.74h.13c.3 0 .6-.06.9-.15l.32-.1c-.1.1-.86.81-1.79.7Zm-2.1 1.9c-.2-.06-.38-.14-.54-.27a1.43 1.43 0 0 1-.53-1.4c.03-.16.1-.3.19-.43.13-.16.3-.27.51-.3.2-.05.4-.02.58.09.25.19.3.38.2.57a.28.28 0 0 1-.22.18.3.3 0 0 1-.27-.09c-.06-.07.03-.14.05-.27a.16.16 0 0 0-.09-.17.17.17 0 0 0-.06-.02.18.18 0 0 0-.2.14v.08c.01.05.03.1.06.13a.88.88 0 0 0-.3.67 1 1 0 0 0 .83 1c.27.05.54.01.78-.1a1.2 1.2 0 0 1-1 .18Zm4.03 2c.26.14.53.21.82.22.13 0 .26-.02.39-.06a.93.93 0 0 0 .55-.42c.06-.1.1-.23.1-.35v-.04h.06a.25.25 0 0 0 .2-.16.19.19 0 0 0-.16-.28c-.1 0-.16.03-.2.15-.05.12-.21.11-.27.09a.3.3 0 0 1-.19-.32.3.3 0 0 1 .05-.12.55.55 0 0 1 .45-.3.65.65 0 0 1 .53.2c.06.07.12.15.16.23.05.13.09.28.09.42 0 .08 0 .16-.02.23-.06.3-.25.66-.84.9-.2.07-.4.11-.62.11-.3 0-.6-.06-.86-.2-.22-.12-.4-.29-.55-.49.1.08.2.14.31.2Zm-1.83-.92a2.86 2.86 0 0 1-.1-1.32l.46-.37a2.7 2.7 0 0 0 .03 2.08c.1.22.24.42.43.57a1.57 1.57 0 0 1-.82-.96Zm5.2-3.98c-.51-.02-1.01.14-1.41.45a1.12 1.12 0 0 0-.39.87c0 .16.03.31.1.46.06.17.16.32.28.46-.17 0-.34-.03-.5-.1a.83.83 0 0 1-.33-.26c-.2-.28-.28-.62-.25-.95.04-.29.18-.54.38-.74.21-.2.48-.32.76-.35a2.9 2.9 0 0 1 1.58.18 1.13 1.13 0 0 0-.23-.02Zm1.57 3.31c-.25.16-.55.23-.85.2h-.02a1.27 1.27 0 0 1-.66-.32.98.98 0 0 1-.27-.78.76.76 0 0 1 .42-.61.66.66 0 0 1 .52-.02c.39.17.38.64.04.67-.14 0-.22-.05-.21-.16a.16.16 0 0 0-.1-.17.17.17 0 0 0-.19.04.16.16 0 0 0-.04.12c0 .18.23.24.23.24a.36.36 0 0 0-.05.35c.04.12.2.33.62.33a.93.93 0 0 0 .8-.4c.13-.2.21-.43.23-.67 0 0 .1.8-.47 1.18Zm.96 1.62a.72.72 0 0 1-.57-.34.92.92 0 0 1 0-.88 3.17 3.17 0 0 0 .4-2.48 2.21 2.21 0 0 1 .37 1.7c-.1.5-.37.96-.39 1.34v.02c0 .22.07.44.19.64Zm5.21 3.52a.95.95 0 0 0-.92-.91c-.25 0-.48.1-.66.27a.9.9 0 0 0 .66 1.55c.24 0 .48-.1.65-.27a.9.9 0 0 0 .27-.64Zm-.75.01a.36.36 0 0 1-.53-.03.24.24 0 0 1-.06-.15c-.25.26.02.77.02.77s-.67-.56-.11-1.12c.28-.25.56-.2.7-.03a.38.38 0 0 1 .12.29.38.38 0 0 1-.14.27Zm2.1-4.81c-.25 0-.49.1-.66.27a.9.9 0 0 0 .65 1.55c.25 0 .48-.1.66-.26a.9.9 0 0 0 .27-.65c-.01-.24-.11-.47-.28-.64a.95.95 0 0 0-.65-.27Zm.17.92a.36.36 0 0 1-.42.07.36.36 0 0 1-.11-.1.26.26 0 0 1-.07-.15c-.24.26.02.77.02.77s-.67-.56-.11-1.12c.28-.25.56-.2.71-.03a.38.38 0 0 1 .08.44.39.39 0 0 1-.1.12Zm-1.31 1.01c-.25 0-.48.1-.65.27a.9.9 0 0 0 .65 1.55c.24 0 .48-.1.65-.26a.9.9 0 0 0 .27-.65c0-.24-.1-.47-.27-.64a.95.95 0 0 0-.65-.27Zm.18.92a.36.36 0 0 1-.42.07.36.36 0 0 1-.11-.1.26.26 0 0 1-.07-.15c-.25.26.02.77.02.77s-.67-.56-.11-1.12c.28-.25.56-.19.71-.03a.39.39 0 0 1 .11.29.38.38 0 0 1-.13.27Zm-2.65-1.94a.9.9 0 0 0-.27-.64.93.93 0 0 0-.65-.27.93.93 0 0 0-.92.91.9.9 0 0 0 .56.85.94.94 0 0 0 1.02-.2.9.9 0 0 0 .26-.65Zm-.72.01a.36.36 0 0 1-.42.07.36.36 0 0 1-.11-.1.3.3 0 0 1-.07-.15c-.25.26 0 .77 0 .77a.5.5 0 0 1-.16-.16.7.7 0 0 1 .05-.93.52.52 0 0 1 .72-.06.38.38 0 0 1-.02.56Zm-.23-2.76a.16.16 0 0 0-.15-.03.16.16 0 0 0-.1.13c-.01.05 0 .1.03.14.02.04.06.07.11.09.08.02.16.02.24 0 .06.1.13.17.22.24.7-.45.2-1.43-.58-1.34-.2.02-.4.12-.53.28a.8.8 0 0 0-.2.55c0 .77.61 1.17 1.32 1.17.95 0 1.66-.72 1.69-1.7.02-.93-.5-1.74-1.82-1.78-.76-.02-1.2.26-1.55.2a.91.91 0 0 1-.63-.4c-.02.1-.04.21-.03.32 0 .33.12.9.77.98.06.01.13.02.2.01.3-.02.59-.07.87-.13.94-.1 1.25.25 1.4.58a1.03 1.03 0 0 1-.43 1.27c-.27.18-.72.3-1.07.1a.68.68 0 0 1-.38-.68.52.52 0 0 1 .26-.41c.35-.21.8.07.65.33a.18.18 0 0 1-.12.12.18.18 0 0 1-.17-.04Zm.26-1.52-.2.01c-.35.08-.7.13-1.06.16h-.17a.65.65 0 0 1-.42-.22.63.63 0 0 1-.16-.44c.05.07.1.14.17.2.49.38 1.19.09 1.6.1.44.01.53.17.58.21a1.71 1.71 0 0 0-.34-.02Zm.9 5.3a.9.9 0 1 0 0 1.82c.24 0 .48-.1.65-.27a.9.9 0 0 0 .27-.65c0-.24-.1-.47-.28-.64a.95.95 0 0 0-.64-.27Zm.17.91a.36.36 0 0 1-.53-.02.28.28 0 0 1-.06-.16c-.25.26.02.77.02.77s-.67-.56-.12-1.12c.28-.25.57-.19.72-.03a.38.38 0 0 1 .07.44.38.38 0 0 1-.1.12Zm5.23-6.83-.03-.3a.91.91 0 0 1-.64.39c-.35.06-.79-.22-1.55-.2-1.31.04-1.84.85-1.82 1.79.03.97.74 1.69 1.7 1.69.7 0 1.32-.4 1.3-1.17a.8.8 0 0 0-.19-.55.82.82 0 0 0-.53-.28c-.79-.09-1.28.89-.58 1.34a.87.87 0 0 0 .22-.24c.08.02.16.02.24 0a.21.21 0 0 0 .14-.23.15.15 0 0 0-.1-.13.16.16 0 0 0-.15.03.18.18 0 0 1-.29-.08c-.15-.26.3-.54.66-.33a.51.51 0 0 1 .25.4.67.67 0 0 1-.37.69c-.35.2-.8.08-1.07-.1a1.04 1.04 0 0 1-.44-1.27c.15-.33.47-.69 1.4-.58.3.06.58.1.87.13h.2c.66-.1.78-.66.78-1Zm-.8.78-.17.01a9.77 9.77 0 0 1-1.07-.16 1.88 1.88 0 0 0-.53.02c.05-.05.14-.2.58-.21.4-.02 1.1.28 1.59-.1a.93.93 0 0 0 .17-.2c0 .16-.06.31-.16.43-.11.12-.26.2-.42.21Zm-2.55 4.11a.95.95 0 0 0-.92-.91c-.25 0-.48.1-.66.27a.9.9 0 0 0 .66 1.55c.24 0 .48-.1.65-.27a.9.9 0 0 0 .27-.64Zm-.75.01a.36.36 0 0 1-.52-.03.24.24 0 0 1-.07-.15c-.25.26.02.77.02.77s-.67-.56-.11-1.12c.28-.25.56-.2.7-.03a.38.38 0 0 1-.02.56Zm-1.26-15.15c.09 0 .17-.04.24-.1a.33.33 0 0 0 0-.47.34.34 0 0 0-.48 0 .33.33 0 0 0 0 .47c.07.07.15.1.24.1Zm.88-.67a.34.34 0 0 0-.3.2.33.33 0 0 0 .07.37.34.34 0 0 0 .57-.24.33.33 0 0 0-.1-.23.34.34 0 0 0-.24-.1Zm-.45 1.38c.08 0 .17-.03.23-.1a.33.33 0 0 0-.23-.56.34.34 0 0 0-.22.11.33.33 0 0 0 .22.55Zm-16.93 2.22c.13.1.3.15.46.14a.72.72 0 0 0 .32-.2c.03-.03.03-.06 0-.09l-.18-.14c-.18-.11-.31-.28-.4-.47l-.77-4.15a1.03 1.03 0 0 1-.02-.36c.02-.14.1-.27.21-.35.02-.02.02-.04 0-.08 0 0-.2-.3-.63-.07l-.34.16-.37-.18c-.43-.23-.61.12-.61.12-.03.04-.02.05 0 .07.11.1.19.22.2.36.02.12.02.24-.01.36l-.7 4.13c-.08.2-.22.36-.4.48l-.19.14c-.01.02-.02.05.01.08.1.1.2.16.33.2.16 0 .31-.05.44-.15l.21-.15.19.13c.12.1.28.15.44.15.05-.02.44-.16.33-.27l-.14-.11c-.36-.3-.24-.77-.23-1.18h.97c.1.45.24.87-.17 1.2-.04.03-.2.1-.12.17.08.1.2.16.32.2.16 0 .32-.05.44-.15l.18-.13c.02 0 .11.06.23.14Zm-1.72-2.15.36-1.87.35 1.87h-.7Zm13.1 2 .2.14c.14.1.31.17.48.16a.71.71 0 0 0 .3-.22c.04-.03.04-.06.02-.08l-.2-.14c-.17-.12-.3-.28-.38-.47l-.74-4.16a1 1 0 0 1-.02-.36c.02-.14.1-.27.21-.35.02-.02.02-.04 0-.08 0 0-.24-.27-.61-.1l-.36.19-.37-.15c-.43-.23-.61.09-.61.09-.03.04-.02.05 0 .07.11.09.19.21.2.35.02.12.01.25-.01.37l-.75 4.15c-.08.2-.21.36-.39.47l-.19.14c-.02.03-.02.06.01.08.09.1.2.16.32.2.17.01.33-.03.46-.13l.22-.15.18.13c.12.1.28.15.44.15.06-.02.46-.16.32-.27 0-.02-.1-.08-.14-.11a.95.95 0 0 1-.26-.35 14.3 14.3 0 0 1 0-.56l.06-.3h.97l.06.3.03.33c0 .08 0 .15-.02.23a.98.98 0 0 1-.27.34l-.13.1a.06.06 0 0 0 0 .08c.1.09.2.16.33.19.16 0 .31-.05.44-.15l.18-.13h.01Zm-1.48-2 .36-1.87.36 1.87h-.72Zm-6.72-1.8-.2.15a.05.05 0 0 0 0 .08c.09.09.2.15.31.19.16.01.31-.03.43-.13l.07-.05.07.05c.12.1.27.14.43.13.12-.04.22-.1.3-.2a.06.06 0 0 0 0-.07l-.2-.14a.73.73 0 0 1-.24-.62v-.4c.03-.6.28-.69.45-.7a.65.65 0 0 0-.3-.2c-.26-.02-.43.12-.61.26a1.3 1.3 0 0 0-.75-.26h-.06c-.33 0-.65.09-.92.27a7.4 7.4 0 0 0-.2-.16c-.13-.1-.2-.12-.45-.09-.19.04-.36.29-.3.4.32.11.46.33.43.79v3.55c.01.18-.04.51-.13.67-.09.1-.22.17-.31.27-.1.28.13.28.3.3.16.01.31-.07.43-.16l.2-.15.07.04c.29.17.62.27.95.27 1.1 0 1.5-.8 1.5-1.81 0-1.12-.33-1.47-1.5-1.5h-.45V25.5c0-.33.1-.6.46-.6a.44.44 0 0 1 .43.3c.03.1.04.2.03.3-.02.16-.1.3-.24.4Zm-.22 1.4c.37.03.46.18.46.58v.69c.02.3-.2.66-.52.66-.28 0-.4-.24-.4-.48V27.3h.46Zm5.59-1.53c0-1-.31-1.78-1.4-1.78-.34 0-.76.11-1.04.28l-.07.05-.2-.15c-.12-.1-.28-.18-.43-.17-.28.03-.41.22-.31.32.3.32.43.58.43 1.01v3.55c.01.2-.03.4-.12.57a.7.7 0 0 1-.13.13l-.2.14c-.1.12.25.25.32.27.16.01.31-.03.43-.12.09-.07.19-.15.23-.2l.23.2c.12.09.27.13.43.12.06-.02.44-.15.3-.27l-.18-.14a.7.7 0 0 1-.12-.13c-.11-.17-.11-.64-.11-.64V27.3h.46c1.15-.02 1.48-.38 1.48-1.5Zm-1.04.3c0 .4-.1.55-.46.58h-.44v-1.44c0-.24.12-.33.39-.33h.06a.49.49 0 0 1 .34.16.47.47 0 0 1 .12.35l-.01.68Zm23.5-.3c0-1.17-.42-1.78-1.43-1.78h-.06c-.42 0-.83.17-1.02.44-.08-.26-.2-.47-.62-.44-.26.03-.38.28-.33.42.26 0 .43.4.44.63l.01.27v3.4c0 .2-.02.56-.11.74a.86.86 0 0 1-.12.12c-.05.04-.29.14-.2.22.08.1.19.16.3.2.16 0 .31-.04.44-.13.08-.06.18-.15.22-.2l.23.2c.12.1.28.14.43.13.06-.02.43-.17.3-.27-.01-.03-.08-.07-.19-.15a.79.79 0 0 1-.12-.12c-.13-.16-.15-.8-.15-.8v-1.35h.46c1.18-.04 1.52-.4 1.52-1.53Zm-1.03.3c0 .4-.1.55-.46.58h-.46v-1.44c0-.24.12-.33.4-.33s.53.22.51.51v.68Zm-14.4 2.44v-3.25c-.01-.2.04-.56.14-.73a.77.77 0 0 1 .12-.13l.2-.14a.06.06 0 0 0 0-.08.65.65 0 0 0-.31-.18.62.62 0 0 0-.43.12l-.23.2a7.06 7.06 0 0 1-.23-.2.62.62 0 0 0-.43-.12.55.55 0 0 0-.28.18.06.06 0 0 0 0 .08l.16.14.13.13c.1.17.13.51.12.7v1.41l-.3.03c-.5 0-.64-.12-.64-.6v-.8c0-.13 0-.41.02-.54a.48.48 0 0 1 .08-.2.78.78 0 0 1 .12-.13c.05-.03.26-.14.18-.22a.58.58 0 0 0-.3-.18.62.62 0 0 0-.43.12l-.17.14a4.93 4.93 0 0 0-.16-.14.62.62 0 0 0-.43-.12.65.65 0 0 0-.3.18.06.06 0 0 0 0 .08c.01.02.08.06.19.14.07.06.13.13.17.22.04.08.05.33.05.42v.73c0 1.2.36 1.53 1.7 1.53h.25v1.2c0 .34-.1.61-.46.61a.44.44 0 0 1-.3-.12c-.06-.04-.18-.16-.14-.52.01-.09.04-.18.1-.25a.89.89 0 0 1 .13-.13l.19-.14a.06.06 0 0 0 0-.08.63.63 0 0 0-.3-.19.63.63 0 0 0-.43.13l-.07.05-.07-.05a.63.63 0 0 0-.43-.13.65.65 0 0 0-.37.2c-.02.02-.02.06 0 .08l.2.14.12.12a.6.6 0 0 1 .1.27c0 .17.03.34.06.51.16.59.68.99 1.21.99.59 0 1.48-.43 1.48-1.48Zm5.5 1.5c.14.13.35.17.53.11a2.51 2.51 0 0 0-.06-.38l-.05-.46c-.05-.14-.17-.2-.31-.2v-3.6c0-.17 0-.33.02-.5 0-.1.05-.36.11-.45a.86.86 0 0 1 .12-.12c.05-.03.29-.15.19-.22a.64.64 0 0 0-.3-.2.6.6 0 0 0-.44.13l-.21.18-.2-.11a1.57 1.57 0 0 0-1.02-.2c-.54.1-.95.6-1.06 1.38-.05.32-.06 1.34-.06 1.9.02.43 0 .87-.07 1.3a.95.95 0 0 1-.23.45c-.14.1-.47.1-.45.34l-.06.33c-.06.33-.2.41-.16.46.15.21.6-.05.7-.21a.49.49 0 0 0 .06-.25h2.8c.02.12.07.23.15.31Zm-.96-4.55v3.37c0 .1 0 .22-.25.22h-.9c.08-.1.13-.21.15-.34.03-.13.05-.27.05-.4.07-.82.05-1.56.08-2.39a6 6 0 0 1 .04-.64c.02-.2.2-.38.42-.4.36 0 .43.28.41.58ZM38 28.61v-3.22c0-.84-.62-1.39-1.5-1.39-.89 0-1.5.55-1.5 1.39v1.26h-.65v-1.39c-.01-.2.03-.54.12-.72a.88.88 0 0 1 .13-.13l.18-.13a.05.05 0 0 0 0-.09.65.65 0 0 0-.3-.19.63.63 0 0 0-.43.13l-.23.2-.23-.2a.63.63 0 0 0-.43-.13.63.63 0 0 0-.3.2.06.06 0 0 0-.01.08l.2.13.12.13c.09.17.13.51.13.7v3.48c0 .2-.03.57-.12.74a.78.78 0 0 1-.12.12c-.04.03-.25.13-.2.2l.01.02c.08.1.19.16.3.2.16 0 .31-.04.44-.13l.22-.2.23.2c.12.1.28.14.43.13.07-.02.45-.16.3-.28l-.18-.14a.79.79 0 0 1-.12-.12 2.07 2.07 0 0 1-.14-.76v-1.39H35v1.3c0 .8.61 1.39 1.5 1.39.87 0 1.5-.58 1.5-1.4Zm-1 0c0 .24-.26.41-.5.41-.26 0-.5-.17-.5-.41v-3.25c0-.25.24-.47.5-.47.24 0 .5.22.5.47v3.25Zm6.9-2.35a.06.06 0 0 0 .02.08c.08.1.19.15.3.18a.6.6 0 0 0 .43-.13l.07-.05.07.05c.12.1.28.13.43.12.12-.03.22-.1.3-.2a.06.06 0 0 0 0-.07c-.21-.21-.42-.3-.44-.63 0-.26-.08-.6.04-.84.07-.15.1-.26.34-.34a.45.45 0 0 0-.17-.37c-.26-.24-.59.24-.71.4-.23-.21-.52-.45-.84-.45-.76 0-1.39.55-1.39 1.39v3.22c0 .81.6 1.38 1.37 1.38.5 0 1.31-.43 1.36-1.3 0-.18-.01-.36.01-.54.06-.24.25-.3.4-.46.09-.11-.26-.25-.32-.26a.63.63 0 0 0-.43.13l-.06.05-.07-.05a.6.6 0 0 0-.43-.12c-.07.02-.43.16-.3.27.2.22.41.29.44.63.02.19.02.36-.1.52-.08.13-.23.17-.4.15-.25 0-.45-.14-.46-.4v-3.25c0-.38.22-.48.46-.48.23-.02.46.16.48.39.04.45-.01.7-.4.98Zm5.63-1.85c.03-.1 0-.37-.33-.4-.15-.01-.3.18-.42.27l-.16.12c-.3-.2-.67-.4-1.04-.39-.88 0-1.58.53-1.58 1.37v3.22c0 .81.67 1.4 1.55 1.4S49 29.4 49 28.6V25.2c0-.43.17-.76.53-.78ZM48 28.6c0 .26-.23.41-.5.41-.24 0-.5-.16-.5-.41v-3.25c0-.25.26-.48.5-.5.26 0 .5.24.5.5v3.25Zm-17.07-5.89c.49 0 .9-.45.9-1.3 0-.6-.25-1.13-.76-1.13s-.9.56-.9 1.3c0 .6.26 1.12.76 1.13Zm0-2.26c.45 0 .54.97.54 1.32 0 .24-.06.8-.39.8-.44 0-.53-.98-.53-1.33 0-.25.05-.8.38-.8Zm-4.6 1.4c0 .58.48.85 1 .85.5 0 1.1-.33 1.1-.93 0-.43-.27-.65-.66-.8.3-.1.53-.28.53-.64 0-.5-.46-.71-.88-.71-.64 0-1 .45-1 .83a.74.74 0 0 0 .5.68c-.34.11-.59.33-.59.72Zm.5-1.59a.48.48 0 0 1 .14-.36.5.5 0 0 1 .37-.14.59.59 0 0 1 .54.39c.02.07.03.15.03.23a.54.54 0 0 1-.3.5l-.24-.08c-.24-.07-.55-.2-.55-.54Zm.28.94.24.08c.62.2.65.43.65.68a.53.53 0 0 1-.15.42.55.55 0 0 1-.42.16c-.41 0-.67-.35-.67-.74 0-.25.09-.52.35-.6Zm3.34-1.58a3.68 3.68 0 0 1-1.06.14c-.27.01-.54-.03-.8-.12a3.4 3.4 0 0 0-.07.38c0 .09.1.12.47.12s.73-.05 1.08-.15a6.75 6.75 0 0 0-1.14 2.54c.13.06.27.1.4.14.08 0 .08-.05.08-.12a5.94 5.94 0 0 1 1.07-2.91l-.01-.02h-.02Zm-5.07 2.9h-.35v.12h1.22v-.12h-.28c-.12 0-.14-.01-.14-.47v-1.7l-.8.08v.1h.18c.05 0 .11 0 .16.03.03.03.07.12.07.58v1.33c0 .03-.01.05-.06.05Z" fill="url(#eoth3qidm)"/><path d="m8.8 22.62.44.02.97.01h12.86l.04-.16a5.62 5.62 0 0 1 10.72.1v.06h13.82c.14 0 .29 0 .44-.03.54-.03 1.12-.2 1.45-.61a1.55 1.55 0 0 0 .3-1.35c-.06-.31-.25-.6-.5-.79a1.13 1.13 0 0 0-1.78.83c0 .58.39.92.79.96-.7.57-2.36.54-3.12.47l-.3-.03a1.42 1.42 0 0 0 .52-1.12v-.05a1.32 1.32 0 0 0-.78-1.23c-.9 2.01-3.57 2.03-4.85 2.14l-5.5.38a5.95 5.95 0 0 0-2.12-3.33 6.08 6.08 0 0 0-9.64 3.33 595 595 0 0 1-5.5-.38c-1.27-.1-3.95-.13-4.83-2.14-.1.04-.18.1-.26.15a1.34 1.34 0 0 0-.53 1.08v.06a1.4 1.4 0 0 0 .53 1.11l-.3.03c-.77.07-2.43.1-3.12-.47.4-.03.78-.37.78-.96a1.06 1.06 0 0 0-.72-.98 1.1 1.1 0 0 0-.42-.06c-.23 0-.45.08-.64.2-.26.2-.44.48-.5.8a1.55 1.55 0 0 0 .3 1.34c.32.42.9.59 1.45.62Zm38.8-.2c.38-.04 1-.17 1.3-.6.44-.65-.04-1.04-.04-1.04s.2-.17.08-.34a.2.2 0 0 0-.3-.01c-.07.07-.07.12 0 .22.06.1.02.19-.08.27-.1.09-.32.04-.46-.14a.48.48 0 0 1 .02-.52.65.65 0 0 1 .53-.25 1 1 0 0 1 .86.45c.1.17.16.37.16.57 0 .3-.1.6-.3.85-.27.33-.8.5-1.3.53a12.91 12.91 0 0 1-.46 0Zm-3.42-1.18c.37-.27.64-.66.76-1.1a1.1 1.1 0 0 1 .3.83 1.2 1.2 0 0 1-.5 1 .36.36 0 0 1-.28.08l-1.9-.11c.59-.08 1.15-.32 1.62-.7ZM27.04 18.1c.4-.08.58.27.13.36a5.3 5.3 0 0 0-2.72 1.45c.01-.05.65-1.44 2.59-1.81Zm-15.4 2.88v-.05c0-.29.11-.56.3-.77.13.43.4.82.77 1.1.47.37 1.03.6 1.63.69l-1.9.11a.36.36 0 0 1-.3-.08 1.22 1.22 0 0 1-.5-1Zm-4.27-.5a.98.98 0 0 1 .86-.46.67.67 0 0 1 .53.25.48.48 0 0 1 .02.52c-.14.19-.37.23-.46.14-.1-.08-.14-.17-.07-.27s.06-.15 0-.22a.2.2 0 0 0-.32.01c-.12.17.09.34.09.34s-.48.38-.04 1.03c.3.44.92.57 1.3.6.17.02.1.02 0 .02-.16 0-.32 0-.47-.02-.51-.02-1.04-.19-1.3-.53-.2-.25-.3-.55-.3-.85 0-.2.05-.4.16-.57Z" fill="url(#foth3qidm)"/><path d="M10.22 18.38a1 1 0 0 0 1.3-.09c.03.2.1.39.23.55l.06.06.03.04c.17.16.38.27.61.3.26.04.53 0 .75-.15.22-.14.38-.36.44-.62.11-.72-.8-.89-1.1-.38a.66.66 0 0 1-.08-.44.76.76 0 0 1 .08-.23.8.8 0 0 1 .5-.43c.1-.03.19-.05.29-.05.41.03.9.35 1.3 1.16.34 0 .67.07.97.2.74.3 1.13 1.11 1.14 1.14-.28-.4-.67-.72-1.13-.9-1.7-.6-2.35 1.1-1.64 1.74.08-.17.2-.33.33-.46a1.14 1.14 0 0 1 .86-.26l.1.01c.28.06.55.14.8.27l.78.38c.7.38 1.48.64 2.29.77a3.73 3.73 0 0 0 3.07-.74c.53-.39.9-.97 1.02-1.62.02-.16.03-.32.02-.48-.02-.54-.21-1.05-.17-1.33v-.02c.05-.22.15-.41.3-.57l.23-.19a1.5 1.5 0 0 0-.3-.07c-.74-.09-1.36.26-1.31 1.19-1.12-.64-2.08.1-2.2.85-.08.48.2 1.09.78 1.18a.78.78 0 0 0 .85-.35c.06-.1.1-.2.1-.3a.96.96 0 0 0-.16-.7c.17.03.33.1.44.23.16.18.24.42.23.66 0 .34-.07.68-.23.98a1.5 1.5 0 0 1-1.35.76h-.13a2.6 2.6 0 0 1-.41-.04 1.97 1.97 0 0 1-1.19-.6.9.9 0 0 1-.2-.74c.03-.13.07-.26.14-.37.15-.23.36-.42.6-.57a.9.9 0 0 0-.33-.14c-.85-.23-1.55.35-1.73 1.22a3.82 3.82 0 0 1-.83-2.37 1.58 1.58 0 0 1 .9-1.32c.26-.14.57-.19.87-.15.1.02.21.05.3.1a.73.73 0 0 1 .4.4.71.71 0 0 0-.81.29.69.69 0 0 0-.1.29.85.85 0 0 0 .43.88c.1.05.22.09.34.1a1.05 1.05 0 0 0 1.08-.51 1.28 1.28 0 0 0 .13-1.18.67.67 0 0 0 .52-.05c.16-.1.27-.25.32-.43a.2.2 0 0 1 .03-.03 1.67 1.67 0 0 0 .76-.48c.12-.14.2-.3.25-.49l-.2.05h-.1a1.9 1.9 0 0 1-.65-.08c-.3-.1-.6-.22-.88-.36a2.14 2.14 0 0 0-.52-.15c-.36-.06-.73 0-1.05.19-.1.05-.2.11-.29.19l-.01.01a.77.77 0 0 0-.08-.5.62.62 0 0 0-.53-.31v.12c-.07.35-.24.67-.5.93-.37.41-.74.55-1.13 1.07-.2.28-.32.6-.36.92-.07.47-.04.94.07 1.4a3.4 3.4 0 0 0-.66-.73c-.36-.3-.8-.52-1.27-.6-.43-.06-.87 0-1.26.2a1.57 1.57 0 0 0-.82 1.06.82.82 0 0 1-.87.58.72.72 0 0 1-.33-.14.43.43 0 0 1-.15-.38c.04-.34.46-.5.57-.26a.15.15 0 0 1 0 .14.15.15 0 0 1-.1.09.13.13 0 0 0-.1.09.13.13 0 0 0 .03.13.18.18 0 0 0 .24.02c.05-.04.1-.1.12-.16.09.01.18 0 .27-.02.05-.66-.74-.86-1.13-.41a.7.7 0 0 0-.17.38.7.7 0 0 0 .29.63Zm5.93 1.27a3.32 3.32 0 0 0-.98-.3 1.27 1.27 0 0 0-1.23.56.76.76 0 0 1 .08-.7.83.83 0 0 1 .79-.38c.93.04 1.56.86 1.65.98l-.3-.16Zm6.4-3.24a.71.71 0 0 1 .6-.25 1.26 1.26 0 0 0-.28.63c-.05.38.15.87.17 1.37a2.13 2.13 0 0 1-.64 1.63 3.15 3.15 0 0 0 0-2.51.91.91 0 0 1 .15-.87Zm-.6 1.51a.97.97 0 0 0-.56-.28c-.43-.07-.6.12-.67.22a.36.36 0 0 0 0 .36s-.24.02-.27.2a.16.16 0 0 0 .07.17.17.17 0 0 0 .26-.13c0-.11.1-.15.23-.12.33.08.28.54-.14.65a.66.66 0 0 1-.5-.1.77.77 0 0 1-.32-.66.97.97 0 0 1 .38-.72c.21-.14.45-.22.7-.22h.01c.3.01.6.12.82.32.5.47.32 1.24.32 1.24a1.85 1.85 0 0 0-.17-.7.96.96 0 0 0-.16-.23Zm-4.4 1.43c.02-.35.16-.67.4-.92.1-.1.23-.17.37-.2.17-.04.34-.05.51-.03-.14.12-.26.26-.36.42a1.2 1.2 0 0 0-.14.93c.04.16.12.3.23.43.35.36.81.6 1.31.66l.23.03c-.53.12-1.08.1-1.59-.08a1.3 1.3 0 0 1-.96-1.25Zm2.2-2.94c-.02.15-.08.28-.16.4a.99.99 0 0 1-.2.2.64.64 0 0 1-.54.11.56.56 0 0 1-.4-.35.3.3 0 0 1 .2-.42c.14-.02.23 0 .25.13.02.13.08.17.18.18a.2.2 0 0 0 .17-.07.19.19 0 0 0 .02-.18.25.25 0 0 0-.17-.2.36.36 0 0 0-.06-.01v-.04a.67.67 0 0 0-.03-.36.93.93 0 0 0-.49-.5c-.11-.06-.24-.1-.37-.12a2.08 2.08 0 0 0-1.39.34 3 3 0 0 1 .83-.5 1.87 1.87 0 0 1 1.46.14c.55.33.68.71.7 1.02v.23Zm-1.64-2.1.08.01-.08-.01Zm.33-.17c.29-.18.63-.25.97-.2.16.03.32.08.46.14.3.15.6.27.92.37a3.3 3.3 0 0 0 .65.1l-.02.03c-.1.15-.24.27-.4.36a1.4 1.4 0 0 1-.83.09c-.5-.13-.64-.41-1.14-.5a2.43 2.43 0 0 0-1.13.11c.15-.2.32-.37.52-.51Zm-2.76 2.26c.04-.3.15-.58.33-.83.35-.48.7-.6 1.12-1.06.23-.24.4-.53.5-.85.1.24.11.5.03.74-.1.24-.27.44-.49.59-.14.07-.28.15-.4.24a3 3 0 0 0-1.11 1.7c-.02-.18 0-.35.02-.53Zm-3.96 1.44a1.36 1.36 0 0 1 .73-1.03c.18-.1.38-.15.58-.17.37-.02.74.08 1.06.28a1.66 1.66 0 0 0-1.09-.15l-.14.05a1 1 0 0 0-.52.5.97.97 0 0 0-.1.29.86.86 0 0 0 .2.7.28.28 0 0 0-.1.2.18.18 0 0 0 .1.14c.02.02.04.03.07.03a.16.16 0 0 0 .17-.1.16.16 0 0 0 .01-.06c0-.13-.07-.21 0-.28a.29.29 0 0 1 .46.17c.07.2 0 .4-.28.54a.79.79 0 0 1-.58 0 .84.84 0 0 1-.46-.39c-.07-.14-.11-.3-.12-.45l.01-.27Z" fill="url(#goth3qidm)"/><path d="M13.78 15.98c.25.15.51.27.79.38.15.08.3.16.45.26l.02.02.06-.13a.77.77 0 0 0 .01-.5.79.79 0 0 0-.4-.43l-.03-.02a1.41 1.41 0 0 1-.84-.42.5.5 0 0 1-.13-.21.84.84 0 0 1 .52-1.06c.13-.04.26-.05.4-.05a.6.6 0 0 1 .53.4.42.42 0 0 1-.05.38.42.42 0 0 1-.21.16.3.3 0 0 1-.37-.1v-.08c0-.02 0-.05.02-.08a.14.14 0 0 1 .06-.05h.18a.16.16 0 0 0 .1-.2.21.21 0 0 0-.22-.14h-.06a.48.48 0 0 0-.13.08.82.82 0 0 0-.25-.1h-.02v.01a.61.61 0 0 0-.08.54c.07.18.2.31.37.4a.73.73 0 0 0 1-.45.75.75 0 0 0 0-.5l-.03-.05c-.11-.24-.3-.43-.55-.53-.25-.1-.53-.1-.77-.01a1.43 1.43 0 0 0-.9 1.64c.08.33.26.62.53.84Zm-.32-1.61c-.02.1-.18.97.87 1.27.1.03.19.07.27.13a.53.53 0 0 1 .3.3l.02.11v.11l-.06-.02a1.95 1.95 0 0 0-.25-.17 2.2 2.2 0 0 1-.95-.54c-.37-.4-.22-1.1-.2-1.2Zm9.17.6c.45.34 1.03.22 1.4-.18a.26.26 0 0 0-.23-.12c-.13.04-.25.08-.36.15a.72.72 0 0 1-.68-.1.43.43 0 0 1-.15-.39c.04-.34.47-.5.57-.26a.15.15 0 0 1-.03.2.15.15 0 0 1-.07.03.13.13 0 0 0-.1.1.13.13 0 0 0 .04.12.18.18 0 0 0 .23.03c.06-.05.1-.1.12-.17.1.01.19 0 .28-.02.05-.65-.75-.85-1.14-.4-.1.1-.15.23-.17.37a.7.7 0 0 0 .3.64Zm19.2 0 .14.07a.73.73 0 0 0 .91-.41.6.6 0 0 0-.08-.54v-.02h-.02a.8.8 0 0 0-.26.1l-.02-.01a.5.5 0 0 0-.1-.05l-.06-.02a.21.21 0 0 0-.22.14v.01a.15.15 0 0 0 .04.15.16.16 0 0 0 .15.05h.08a.14.14 0 0 1 .09.13v.07a.29.29 0 0 1-.37.1.43.43 0 0 1-.3-.37c0-.06.01-.11.03-.17a.6.6 0 0 1 .54-.4c.13 0 .26.02.39.06.2.07.38.23.48.42.1.2.11.43.04.63a.52.52 0 0 1-.12.2c-.16.16-.34.28-.55.35a1.58 1.58 0 0 0-.32.1l-.03.02a.78.78 0 0 0-.4.43.74.74 0 0 0 .01.5l.06.13.02-.02c.15-.1.3-.18.46-.26.27-.1.53-.23.78-.38.28-.22.48-.51.57-.85a1.4 1.4 0 0 0-.9-1.64 1.06 1.06 0 0 0-1.33.54l-.02.05a.75.75 0 0 0 .3.9Zm1.7-.6c.02.09.17.79-.2 1.19a2.2 2.2 0 0 1-.94.54c-.08.05-.17.1-.25.17l-.05.02v-.11c0-.04 0-.07.02-.1a.52.52 0 0 1 .3-.3c.08-.07.17-.11.27-.14 1.04-.3.88-1.16.85-1.27Z" fill="url(#hoth3qidm)"/><path d="M33.6 15.96c-.11.02-.21.04-.31.08.08.05.16.12.23.2a1.1 1.1 0 0 1 .3.58c.04.28-.15.8-.18 1.34 0 .16 0 .32.03.48.12.65.49 1.22 1.03 1.61.69.57 1.72.96 3.07.74a7.2 7.2 0 0 0 2.28-.75l.77-.39a3.05 3.05 0 0 1 .9-.27 1.14 1.14 0 0 1 .86.26c.14.13.25.28.33.45.71-.64.07-2.34-1.63-1.75-.46.2-.86.5-1.14.91.02-.03.4-.85 1.14-1.14.3-.13.63-.2.97-.2.4-.82.89-1.13 1.3-1.16a.95.95 0 0 1 .6.2.88.88 0 0 1 .28.5c.01.14 0 .28-.07.4l-.02.04c-.3-.5-1.2-.33-1.09.38a1 1 0 0 0 .44.62c.22.14.49.2.75.15.23-.03.44-.14.6-.3l.04-.04.06-.06c.12-.16.2-.35.23-.54a1 1 0 0 0 1.3.08.71.71 0 0 0 .3-.64.72.72 0 0 0-.18-.38c-.38-.44-1.18-.24-1.13.4a.8.8 0 0 0 .27.03c.02.06.07.12.12.16a.18.18 0 0 0 .23-.02.13.13 0 0 0 .04-.13.13.13 0 0 0-.1-.1.16.16 0 0 1-.09-.05.15.15 0 0 1 0-.17c.1-.24.52-.09.56.26a.43.43 0 0 1-.15.38.72.72 0 0 1-.68.1.83.83 0 0 1-.5-.53 1.54 1.54 0 0 0-.83-1.07 2.12 2.12 0 0 0-1.26-.2c-.47.09-.91.3-1.27.6-.26.22-.48.47-.66.74.11-.46.14-.94.07-1.4a2.07 2.07 0 0 0-.36-.9c-.39-.52-.76-.66-1.13-1.08a1.87 1.87 0 0 1-.5-.93v-.12a.63.63 0 0 0-.53.32.77.77 0 0 0-.08.5l-.01-.02a1.62 1.62 0 0 0-1.35-.4c-.18.04-.36.09-.52.16-.29.13-.58.25-.88.35a3.2 3.2 0 0 1-.76.1l-.2-.05a1.3 1.3 0 0 0 .68.83c.11.06.22.1.34.14l.03.03c.05.18.17.33.33.43a.67.67 0 0 0 .53.05 1.3 1.3 0 0 0 .12 1.17 1.03 1.03 0 0 0 1.09.5.88.88 0 0 0 .75-.63.85.85 0 0 0 .02-.35.69.69 0 0 0-.6-.6.7.7 0 0 0-.3.03.72.72 0 0 1 .38-.4c.1-.05.2-.08.3-.1a1.62 1.62 0 0 1 1.77 1.47c.05.67-.2 1.52-.82 2.38-.17-.88-.88-1.45-1.73-1.22a.85.85 0 0 0-.32.13c.23.15.44.35.6.58.06.11.1.23.12.36a.9.9 0 0 1-.2.75c-.31.33-.74.54-1.2.59-.13.02-.27.03-.4.03h-.14a1.52 1.52 0 0 1-1.35-.75c-.16-.3-.24-.64-.23-.98-.01-.24.07-.48.23-.66.11-.13.27-.2.44-.22a.95.95 0 0 0-.06.98.77.77 0 0 0 .85.36c.58-.1.85-.7.78-1.18-.12-.75-1.08-1.5-2.2-.85.04-.94-.57-1.28-1.3-1.2Zm8.48 2.87a.85.85 0 0 1 .78.37.78.78 0 0 1 .09.71 1.26 1.26 0 0 0-1.24-.56l-.12.02c-.3.05-.59.15-.86.28l-.3.16c.08-.12.71-.94 1.65-.98Zm1.78-2.2c.2.03.4.09.57.18a1.38 1.38 0 0 1 .75 1.31c-.01.16-.05.31-.13.45a.86.86 0 0 1-.45.38.78.78 0 0 1-.58 0c-.27-.14-.35-.33-.29-.53a.28.28 0 0 1 .18-.22.29.29 0 0 1 .28.05c.08.07 0 .15 0 .28a.16.16 0 0 0 .12.15h.06a.18.18 0 0 0 .14-.08.18.18 0 0 0 .02-.16.28.28 0 0 0-.08-.12.87.87 0 0 0 .2-.7 1.03 1.03 0 0 0-.77-.84 1.66 1.66 0 0 0-1.07.15c.31-.2.68-.3 1.05-.3Zm-5.1-2.32-.07.01.08-.01Zm-2.07.72c-.28.05-.56.02-.83-.09a1.34 1.34 0 0 1-.41-.4 2.46 2.46 0 0 0 .66-.1c.31-.1.62-.22.91-.36.15-.07.3-.11.47-.14.33-.06.68.01.96.2.2.13.37.3.51.5a2.39 2.39 0 0 0-1.13-.1c-.49.08-.63.36-1.13.48Zm2.9.24a2.1 2.1 0 0 0-.87-.1c-.13.03-.26.07-.38.13-.22.1-.39.28-.48.5a.67.67 0 0 0-.03.36v.04a.43.43 0 0 0-.07.01.25.25 0 0 0-.17.2.19.19 0 0 0 .1.23.2.2 0 0 0 .1.02c.1 0 .15-.05.18-.18.02-.12.1-.15.25-.13a.3.3 0 0 1 .2.16.3.3 0 0 1 0 .26.55.55 0 0 1-.4.35.64.64 0 0 1-.55-.1.92.92 0 0 1-.35-.6 1.13 1.13 0 0 1-.02-.24c.01-.3.15-.68.7-1.01a1.87 1.87 0 0 1 1.47-.14c.3.12.57.29.82.5-.16-.1-.33-.2-.5-.26Zm.53-.05c-.13-.09-.26-.17-.4-.24a1.3 1.3 0 0 1-.5-.59c-.07-.24-.07-.5.03-.73.1.31.28.6.51.85.4.45.77.57 1.12 1.05.17.25.28.53.32.83.03.18.04.36.04.54a2.98 2.98 0 0 0-1.12-1.7Zm-3.1 5.42c.5-.07.97-.3 1.31-.66a1.11 1.11 0 0 0 .26-.92c-.03-.16-.08-.3-.16-.44-.1-.16-.22-.3-.37-.42.17-.02.35-.01.51.02.14.04.27.11.37.21.24.25.39.57.4.91a1.27 1.27 0 0 1-.96 1.25c-.51.17-1.06.2-1.59.07l.23-.02Zm-2.1-3.03c.23-.2.52-.31.82-.32h.02c.25 0 .5.07.7.21a.98.98 0 0 1 .38.73.76.76 0 0 1-.31.66.65.65 0 0 1-.51.1c-.42-.1-.47-.57-.14-.65.13-.03.22 0 .23.12a.16.16 0 0 0 .12.16.17.17 0 0 0 .18-.07.16.16 0 0 0 .03-.13c-.03-.18-.28-.2-.28-.2a.34.34 0 0 0 0-.35c-.06-.1-.24-.3-.66-.23a.92.92 0 0 0-.72.51c-.1.22-.17.46-.18.7 0 0-.17-.77.33-1.24Zm-.44-.33c-.07.26-.14.38-.2.67-.12.62-.04 1.26.21 1.84a2.22 2.22 0 0 1-.64-1.63c.02-.5.22-1 .17-1.37v-.02a1.3 1.3 0 0 0-.29-.61.72.72 0 0 1 .6.25.92.92 0 0 1 .15.87Zm-.23-2.31a.71.71 0 0 0 .3-.64.72.72 0 0 0-.18-.39c-.38-.44-1.18-.23-1.13.41a.8.8 0 0 0 .28.02c.02.07.06.13.11.17a.18.18 0 0 0 .24-.03.13.13 0 0 0-.07-.22.16.16 0 0 1-.1-.09.15.15 0 0 1 0-.14c.1-.23.53-.08.57.27a.43.43 0 0 1-.15.38.72.72 0 0 1-.68.1 1.4 1.4 0 0 0-.35-.14.26.26 0 0 0-.23.11c.38.41.96.53 1.4.19Zm-7.01-1.8c.31.17.6.41.82.69-.5.14-.68.57-.97.9-.24.27-.56.47-.92.57.38.03.75-.1 1.05-.33.22-.2.58-.77.94-.88a1 1 0 0 1 .3-.06c.11 0 .22.02.33.06.36.11.72.7.95.88.29.24.66.36 1.04.33-.36-.1-.68-.3-.92-.57-.3-.33-.47-.77-1.02-.91.23-.28.5-.5.8-.69.55-.32 1.41-.16 1.41-.16-.03 0-.9-.25-1.55.02-.37.13-.69.36-.91.67 0-.27-.06-1.68.39-2.4.33-.54 1.18-.77 1.18-.77-.04.02-.92.17-1.37.7l-.24.31c-.02-1.3-.05-2.66-.1-2.66-.04 0-.09 1.36-.12 2.66l-.25-.3c-.46-.54-1.34-.7-1.37-.7 0 0 .85.22 1.18.76.53.85.39 2.15.39 2.4a1.81 1.81 0 0 0-.92-.67c-.65-.27-1.5-.03-1.55-.02.03 0 .88-.16 1.43.16Z" fill="url(#ioth3qidm)"/><path d="M25.37 14.35c.21-.04.77-.29.85 0 .07.3-1.5.4-1.63.5.07.16.17.3.3.4l-.52.2s.13.84.8 1.1c.35.13.74.12 1.09-.02-.08.2-.11.43-.08.66.4-.23.84-.39 1.3-.45.49-.09.97-.21.86-1.05-.03-.2-.27-.62.1-.63.36.01.12.44.1.63-.12.84.36.96.85 1.05.46.06.9.22 1.3.45.03-.22.01-.45-.07-.66.35.14.74.15 1.09.03.67-.26.8-1.1.8-1.1l-.52-.2c.13-.12.23-.26.3-.41-.13-.1-1.7-.22-1.63-.5.07-.29.64-.04.85 0 .58.1.91-.12 1-.2.45-.47.28-1.27.28-1.27l-.55-.12c.06-.2.09-.41.09-.62 0-.21-.05-.42-.14-.61a2.35 2.35 0 0 0-.66-.02c-.36.04-.49.18-.75.45-.27.28-.6.6-.75.44-.15-.16.35-.48.61-.64 1.09-.67.14-2.2.14-2.2l-.39.22s.17-.51-1.04-1.09c-.35-.17-.65-.4-.9-.69a3 3 0 0 1-.92.7c-1.21.57-1.05 1.08-1.05 1.08l-.38-.21s-.95 1.53.14 2.2c.26.15.76.47.6.64-.15.17-.48-.17-.74-.44s-.39-.41-.75-.46a2.35 2.35 0 0 0-.67.02c-.09.2-.13.4-.13.62 0 .2.03.42.08.62l-.55.11s-.16.8.3 1.28c.08.08.4.3.99.2Zm-.39-1.34c-.1-.19-.17-.4-.2-.61-.02-.2.02-.4.1-.58.32.25.66.46 1.02.65.32.14 1.21.34 1.36.1.15-.24.08-.5-.22-.78-.3-.29-.86-.43-.89-.86.02-.32.12-.62.3-.88l.41.22c.05-.29.18-.55.37-.77.2-.23.42-.45.66-.66.2-.17.4-.38.54-.62.14.24.33.45.54.62.23.21.45.43.66.66.19.22.32.48.37.77l.4-.22c.19.25.3.56.3.87-.03.43-.58.58-.89.86-.3.3-.37.54-.22.79.16.24 1.04.04 1.36-.1.37-.19.71-.4 1.04-.65.09.18.12.38.1.58-.02.21-.08.42-.19.62l.5.15c-.06.31-.17.76-.82.78-.21.01-.24-.05-.67-.09-.44-.04-.68.01-.78.1a.35.35 0 0 0-.05.5c.2.24 1.54.48 1.54.48s-.25.34-.53.38c.18.18 1.07.34 1.07.34s-.16.58-.65.7a1.46 1.46 0 0 1-1.27-.3l-.08.4s-1.01.1-1.17-.51c-.1-.45.1-.71-.06-.94-.1-.16-.35-.3-.49-.48-.13.19-.39.32-.49.48-.15.23.05.5-.06.94-.14.61-1.16.52-1.16.52l-.09-.41a1.44 1.44 0 0 1-1.28.3c-.47-.14-.64-.71-.64-.71s.89-.17 1.07-.34c-.27-.04-.53-.39-.53-.39s1.35-.24 1.54-.47a.35.35 0 0 0-.05-.5c-.1-.09-.33-.14-.77-.1-.45.04-.46.1-.68.09-.65-.03-.75-.47-.82-.78l.5-.15ZM12.46 31.67c-.03 0-.04 0-.04.05v1.67c0 .04 0 .05.04.05h.2c.03 0 .04 0 .04-.05v-.68c.22 0 .43.01.59-.15.1-.1.16-.26.15-.4 0-.3-.11-.49-.57-.49h-.4Zm.7.5c0 .22-.11.3-.32.3h-.13v-.57h.15c.23 0 .3.06.3.26Zm1.16 1.08a.36.36 0 0 1-.18-.07c-.02 0-.06-.03-.07 0l-.07.16v.01c0 .05.1.09.13.1l.21.03a.42.42 0 0 0 .4-.35l.43-1.42c0-.01 0-.03-.02-.03l-.23-.03-.02.02-.21.74c-.04.11-.06.23-.08.34h-.01a2.78 2.78 0 0 0-.11-.34l-.28-.74c0-.02-.04-.02-.06-.02l-.2.04s-.02.02-.01.03l.46 1.19c0 .01 0 .03.04.03h.11l-.02.08c-.06.22-.15.23-.2.23Zm2.04-1.38c.1 0 .2.05.27.12.02.02.04.02.05 0l.09-.13c.01-.02.04-.04-.02-.07a.64.64 0 0 0-.4-.16c-.5 0-.62.5-.62.9 0 .62.22.95.63.95.15 0 .3-.05.4-.15.04-.03.03-.05.02-.07-.03-.04-.06-.14-.1-.14-.02 0-.03 0-.04.02a.41.41 0 0 1-.25.1c-.24 0-.35-.25-.35-.74 0-.44.1-.63.32-.63Zm1.59 0c.1 0 .2.05.27.12.02.01.05.02.06 0 .02-.04.15-.16.07-.2a.65.65 0 0 0-.41-.16c-.5 0-.62.5-.62.9 0 .62.22.95.63.95.15 0 .3-.05.4-.15.04-.03.03-.05.02-.07l-.08-.13c-.01-.02-.04-.01-.06 0a.42.42 0 0 1-.25.1c-.24 0-.35-.23-.35-.73 0-.44.1-.63.32-.63Zm1.33-.2h-.25l-.03.03v1.7c0 .03.02.04.05.04h.22c.02 0 .04-.01.04-.05v-.76h.13c.12 0 .2.04.23.22l.06.28c.05.25.16.34.39.34.03 0 .04 0 .04-.03l.06-.16c0-.03-.03-.04-.04-.05h-.05c-.06 0-.1 0-.15-.18l-.06-.26a.4.4 0 0 0-.23-.27.36.36 0 0 0 .2-.28l.03-.16c.02-.1.05-.2.15-.2.03 0 .1 0 .08-.05l-.04-.15a.04.04 0 0 0-.05-.03c-.1 0-.18.04-.25.1a.5.5 0 0 0-.12.26l-.04.2c-.02.12-.09.2-.22.2h-.13v-.7c0-.01 0-.03-.02-.04Zm2.63 1.73c0 .03 0 .04.04.04h.19c.03 0 .04 0 .04-.04V31.7c0-.03 0-.04-.04-.04h-.22a.05.05 0 0 0-.04.03l-.47.98c-.04.07-.1.25-.12.3l.01-.3v-.97c0-.03 0-.04-.04-.04h-.21c-.04 0-.05.01-.05.04v1.69c0 .02.02.04.05.04h.2c.04 0 .05-.02.06-.04l.5-1.03c.04-.08.08-.18.1-.27l-.01.26v1.04Zm1.27-2.15c.02.2.22.35.41.33.15 0 .4-.1.4-.33 0-.02 0-.03-.04-.03-.04-.01-.13-.04-.17-.02-.02 0-.02.03-.02.05a.18.18 0 0 1-.16.14.17.17 0 0 1-.19-.15c0-.02 0-.04-.02-.04l-.17.02c-.04 0-.04.02-.04.03Zm.71 2.15c0 .03.01.04.04.04h.2c.03 0 .04 0 .04-.04V31.7c0-.03 0-.04-.04-.04h-.24a.05.05 0 0 0-.04.03c-.2.42-.4.84-.59 1.28.03-.42.02-.85.02-1.27 0-.03 0-.04-.04-.04h-.2c-.03 0-.04.01-.04.04v1.69c0 .02.01.04.04.04h.21c.04 0 .04-.02.05-.04.2-.42.48-.85.6-1.3-.04.43 0 .87 0 1.3Zm2.16.03h.36c.3.02.66-.12.64-.5a.4.4 0 0 0-.08-.27.41.41 0 0 0-.24-.15.42.42 0 0 0 .26-.4.47.47 0 0 0-.13-.33c-.1-.09-.2-.11-.44-.11h-.37c-.04 0-.05 0-.05.04v1.68c0 .04.01.04.05.04Zm.18-1.55h.2c.18 0 .27.07.27.25.04.29-.28.3-.47.3v-.55Zm0 .77h.2c.23 0 .34.09.34.28 0 .3-.31.28-.54.28v-.56Zm2.48.75c0 .03.01.04.04.04h.2c.02 0 .05 0 .05-.04V31.7c0-.03-.01-.04-.06-.04h-.23a.05.05 0 0 0-.04.03c-.2.42-.43.84-.59 1.28.03-.43.02-.85.02-1.27 0-.03 0-.04-.05-.04h-.19c-.03 0-.04.01-.04.04v1.68c0 .03.01.04.04.04h.2c.04 0 .05 0 .06-.03.2-.42.48-.85.6-1.3l-.01 1.3Zm2.04.03h.2c.03 0 .05 0 .05-.04V31.7c0-.04 0-.04-.05-.04h-.2c-.04 0-.04 0-.04.04v.7h-.58v-.7c0-.04-.01-.04-.05-.04h-.2c-.03 0-.03 0-.03.04v1.68c0 .03 0 .04.04.04h.19c.04 0 .05 0 .05-.04v-.77h.58v.77c0 .04 0 .04.04.04Zm2.01 0h.2c.03 0 .04 0 .04-.04V31.7c0-.04 0-.04-.05-.04h-.19c-.04 0-.04 0-.04.04v.7h-.58v-.7c0-.04-.01-.04-.05-.04h-.2c-.03 0-.04 0-.04.04v1.68c0 .03 0 .04.05.04h.19c.04 0 .05 0 .05-.04v-.77h.58v.77c-.01.04 0 .04.04.04Zm1.34-1.76h-.2c-.03 0-.04.02-.04.04v1.69c0 .03.01.04.04.04h.46c.16 0 .32-.04.44-.14.1-.1.16-.25.15-.4a.48.48 0 0 0-.14-.35c-.19-.17-.43-.15-.67-.15v-.69c0-.02-.02-.04-.04-.04Zm.2.96c.12 0 .34.02.34.29a.3.3 0 0 1-.32.29h-.2v-.58h.19Zm.9-.96c-.03 0-.03.02-.03.04v1.69c0 .03.01.04.04.04h.2c.04 0 .04-.01.04-.04V31.7c0-.03-.01-.04-.04-.04h-.2Zm1.71-.1c.15 0 .4-.1.4-.32 0-.02 0-.04-.03-.04l-.17-.01c-.02 0-.03.02-.03.04a.17.17 0 0 1-.35 0c0-.02.01-.04-.02-.04l-.17.01c-.02 0-.03.02-.03.04.01.1.06.18.14.24.07.06.17.1.26.09Zm.3 1.83c0 .03 0 .04.04.04h.19c.03 0 .04 0 .04-.04V31.7c0-.03 0-.04-.04-.04h-.22a.05.05 0 0 0-.05.03c-.2.42-.4.84-.59 1.28.03-.42.02-.85.02-1.27 0-.03 0-.04-.04-.04h-.2c-.03 0-.03.01-.03.04v1.68c0 .03 0 .04.04.04h.2c.04 0 .04 0 .05-.03.2-.42.44-.86.61-1.3l-.03 1.3Zm3 .47h.18c.04 0 .05-.02.05-.04v-.58c0-.02 0-.04-.04-.04h-.13v-1.5c0-.03-.02-.04-.04-.04h-.86c-.03 0-.04.01-.04.04v.41c0 .19-.01.38-.04.56-.03.18-.08.36-.16.52-.04 0-.13-.02-.13.04v.58c0 .04.02.04.04.04h.18c.04 0 .04-.01.04-.04v-.4h.91v.4c.01.03.02.05.05.05Zm-.23-.67h-.58c.14-.35.2-.73.2-1.1v-.2h.38v1.3Zm1.63.28c.41 0 .63-.32.63-.93 0-.62-.2-.91-.61-.91-.46 0-.63.4-.63.9 0 .63.2.94.61.94Zm.01-1.62c.22 0 .3.25.3.7 0 .48-.09.7-.3.7-.22 0-.31-.27-.31-.7 0-.48.1-.7.31-.7Zm2.51 1.53c0 .04 0 .05.05.05h.2c.03 0 .03-.02.03-.05l-.08-1.68c0-.04 0-.04-.05-.04h-.2c-.04 0-.04 0-.05.03l-.33 1-.3-1c0-.03-.02-.03-.05-.03h-.21c-.04 0-.05 0-.05.04l-.08 1.7c0 .02 0 .02.04.02h.17c.04 0 .05 0 .05-.04l.03-1.14V32l.07.31.22.69c.01.03.01.03.05.03h.1c.04 0 .04 0 .05-.03l.24-.69.08-.31v.28l.02 1.11Zm-34.96-.83a.3.3 0 0 0 .18.3l.12.03c.09 0 .18-.04.24-.1a.33.33 0 0 0-.36-.54.31.31 0 0 0-.17.18.3.3 0 0 0-.01.13Zm37.5 0a.3.3 0 0 0 .08.23.31.31 0 0 0 .41.04.33.33 0 0 0 .14-.34.33.33 0 0 0-.2-.24.31.31 0 0 0-.42.18.3.3 0 0 0-.01.13Z" fill="url(#joth3qidm)"/></g><defs><linearGradient id="both3qidm" x1="28.5" y1="35" x2="28.5" y2="38" gradientUnits="userSpaceOnUse"><stop stop-color="#EDA141"/><stop offset="1" stop-color="#EFC586"/></linearGradient><linearGradient id="coth3qidm" x1="38.94" y1="36.95" x2="38.94" y2="43.11" gradientUnits="userSpaceOnUse"><stop stop-color="#EDA141"/><stop offset="1" stop-color="#EFC586"/></linearGradient><linearGradient id="doth3qidm" x1="28.46" y1="42.4" x2="28.46" y2="44.18" gradientUnits="userSpaceOnUse"><stop stop-color="#EDA141"/><stop offset="1" stop-color="#EFC586"/></linearGradient><linearGradient id="eoth3qidm" x1="28.45" y1="19.63" x2="28.45" y2="46.87" gradientUnits="userSpaceOnUse"><stop stop-color="#EDA141"/><stop offset="1" stop-color="#EFC586"/></linearGradient><linearGradient id="foth3qidm" x1="28.44" y1="17.6" x2="28.44" y2="22.65" gradientUnits="userSpaceOnUse"><stop stop-color="#EDA141"/><stop offset="1" stop-color="#EFC586"/></linearGradient><linearGradient id="goth3qidm" x1="16.76" y1="13.32" x2="16.76" y2="21.05" gradientUnits="userSpaceOnUse"><stop stop-color="#EDA141"/><stop offset="1" stop-color="#EFC586"/></linearGradient><linearGradient id="hoth3qidm" x1="28.51" y1="13.42" x2="28.51" y2="16.64" gradientUnits="userSpaceOnUse"><stop stop-color="#EDA141"/><stop offset="1" stop-color="#EFC586"/></linearGradient><linearGradient id="ioth3qidm" x1="36.39" y1="8.87" x2="36.39" y2="21.05" gradientUnits="userSpaceOnUse"><stop stop-color="#EDA141"/><stop offset="1" stop-color="#EFC586"/></linearGradient><linearGradient id="joth3qidm" x1="28.44" y1="8" x2="28.44" y2="33.87" gradientUnits="userSpaceOnUse"><stop stop-color="#EDA141"/><stop offset="1" stop-color="#EFC586"/></linearGradient><clipPath id="aoth3qidm"><path transform="translate(7 8)" d="M0 0h43v39H0z"/></clipPath></defs></svg>