<!-- by TradingView --><svg width="56" height="56" viewBox="0 0 56 56" xmlns="http://www.w3.org/2000/svg"><path fill="url(#avcs2d1gg)" d="M0 0h56v56H0z"/><path fill-rule="evenodd" d="M29.5 19.75c1.44.72 3.27-.15 4.1-1.95.82-1.8.33-3.83-1.1-4.55-1.44-.72-3.27.15-4.1 1.95-.83 1.8-.33 3.83 1.1 4.55Zm-7.31.08c-2-.53-3.06-1.48-3.33-1.9.84 4.84 6.12 6.18 8.65 6.24-2.52 1-3.58 3.95-3.79 5.3-1.24 1.02-3.72 4.55-3.72 6.52 0 1.97.62 3.76.93 4.4L17 44h14.23l-3.7-3.27c1.12-1.58 3.37-6.4 3.37-9.06 0-2.65-.72-4.99-1.07-5.83a75.6 75.6 0 0 1 4-2.55c1.32-.77 3.16-3 4.43-4.55.58-.7 1.04-1.26 1.27-1.47.59-.51 3.23-3.06 4.47-4.27h-3.06c-.3.74-1.13 2.54-2 3.82-.99 1.43-2.56 2.38-3.96 3.22l-.47.28c-1.2.73-4.6 2.45-6.14 3.22-2.34-2.73-3.46-3.02-5.52-3.54l-.66-.17Zm6.94 6.53-4.97 3.42c-.35 2.73.14 5.92.43 6.67.16-.21.42-.67.74-1.24.61-1.08 1.46-2.59 2.35-3.67 1.35-1.64 1.53-4.14 1.45-5.18Z" fill="#fff"/><defs><linearGradient id="avcs2d1gg" x1="56" y1="25.14" x2="0" y2="28" gradientUnits="userSpaceOnUse"><stop stop-color="#19A69C"/><stop offset=".77" stop-color="#286BB2"/></linearGradient></defs></svg>