<!-- by TradingView --><svg width="56" height="56" viewBox="0 0 56 56" xmlns="http://www.w3.org/2000/svg"><path fill="#0E294D" d="M0 0h56v56H0z"/><path d="M34 34h-3v-5h-6v5h-3V22h3v4h6v-4h3v12Zm7.29-3.38a7.64 7.64 0 0 1-10.7 10.7l-1.21 1.22L27.92 44l-1.45-1.46-1.22-1.22a7.64 7.64 0 0 1-10.7-10.7l-1.21-1.22L12 27.98l1.45-1.46 1.22-1.22a7.64 7.64 0 0 1 10.7-10.7l1.21-1.22L27.96 12l1.46 1.46 1.21 1.22a7.64 7.64 0 0 1 10.7 10.7l1.22 1.22L44 28.06l-1.45 1.46-1.26 1.1Zm-.51 4.64c0-1.57-.67-2.99-1.7-4.01l-.62-.63 2.6-2.6-2.64-2.64.63-.63a5.59 5.59 0 0 0-3.82-9.6c-1.57 0-2.98.63-3.97 1.7l-.7.66-2.6-2.6-2.6 2.6-.62-.63a5.57 5.57 0 0 0-9.6 3.82c0 1.57.67 2.99 1.7 4.01l.66.67-2.6 2.6 2.6 2.6-.66.67a5.58 5.58 0 1 0 7.94 7.87l.63-.63 2.59 2.6 2.6-2.6.62.63a5.54 5.54 0 0 0 9.55-3.86Z" fill="#fff"/></svg>