<!-- by TradingView --><svg xmlns="http://www.w3.org/2000/svg" width="56" height="56"><path fill="#F0F3FA" d="M0 0h56v56H0z"/><path d="M28 30c-6 0-10-4.6-10-10 0-5.34 4-10 10-10s10 4.75 10 10c0 5.56-4 10-10 10z" fill="url(#awxdfpt5x)"/><path d="M38 36.5v1.03C38 39.47 33.54 41 28 41s-10-1.46-10-3.4v-1.02l20-.08z" fill="url(#bwxdfpt5x)"/><path d="M38 36.5c0 1.95-4.47 3.48-10 3.5-5.54.02-9.99-1.56-10-3.5 0-1.95 4.46-3.48 10-3.5 5.53-.02 10 1.56 10 3.5z" fill="url(#cwxdfpt5x)"/><path d="M18 43.6c0-.29 4.46-.6 10-.6s10 .31 10 .6v.8c0 .28-4.46.6-10 .6s-10-.31-10-.6v-.8z" fill="url(#dwxdfpt5x)"/><defs><linearGradient id="awxdfpt5x" x1="25.57" y1="23.46" x2="40.99" y2="2.95" gradientUnits="userSpaceOnUse"><stop offset=".06" stop-color="#E51837"/><stop offset=".57" stop-color="#F25027"/></linearGradient><linearGradient id="bwxdfpt5x" x1="31.2" y1="39.2" x2="38.19" y2="42.73" gradientUnits="userSpaceOnUse"><stop stop-color="#C31837"/><stop offset="1" stop-color="#B02837"/></linearGradient><linearGradient id="cwxdfpt5x" x1="25.88" y1="38.69" x2="35.71" y2="25.2" gradientUnits="userSpaceOnUse"><stop offset=".07" stop-color="#E51837"/><stop offset=".48" stop-color="#F0472A"/></linearGradient><linearGradient id="dwxdfpt5x" x1="27.95" y1="44.79" x2="27.42" y2="47.62" gradientUnits="userSpaceOnUse"><stop stop-color="#C21836"/><stop offset="1" stop-color="#B02837"/></linearGradient></defs></svg>