<!-- by TradingView --><svg width="56" height="56" viewBox="0 0 56 56" xmlns="http://www.w3.org/2000/svg"><path fill="#F0F3FA" d="M0 0h56v56H0z"/><path d="M5 25h5.73C12.37 25 13 25.85 13 27V36h-.27L11 34.35v-6.72c0-.46-.3-.63-.5-.63H7.03L5 25ZM23 25h-5.73C15.63 25 15 25.85 15 27v7.3L16.82 36H17v-8.39c0-.46.3-.61.5-.61h3.47L23 25ZM25.69 25h2.73l-3.85 4.02L29 34.98h-2.61l-3.31-4.38c-.51.33-1.08.94-1.08 1.47v2.22L20.27 36H20v-3.37a4.05 4.05 0 0 1 .98-2.81l4.7-4.82ZM29 29h4v2h-4z" fill="#00537F"/><path d="M37.62 25H33v2h4.09c.63.02.88.4.91.6v.54c0 .66-.37 1.23-.54 1.44L32.36 35H40v-2h-3.16l1.89-1.93A4.1 4.1 0 0 0 40 28.31v-1c-.1-1.82-1.62-2.3-2.38-2.31Z" fill="#00537F"/><path d="m42 30.11.53-.07c-.21.35-.61 1.17-.5 1.67l1.38-1.4c.04.2.06.77-.16 1.51-.28.93.25 1.76 1.18 2.18a4.14 4.14 0 0 1 .25-2.3c.22-.25.64-1.03.59-2.1.1.02.34.17.47.58.12-.24.34-.88.27-1.6.2.03.69.26.9 1.01.2.76.77 1.03 1.15 1.17-.19-.3-.3-.98-.31-1.97a4.93 4.93 0 0 0-.43-2.02c.17 0 .59.03.85.25-.1-.27-.35-.86-.42-1.02-.05-.08.03-.06.17 0 .2.07.52.2.88.17.62-.05 1.73.02 2.2.6.02-.39-.62-1.58-3.4-3.26.04-.14.32-.44 1.06-.44a2.6 2.6 0 0 0-1.34-.9 4.5 4.5 0 0 0 1.15-.39c.18-.09.3-.18.4-.27.23-.2.4-.34 1.2-.27l-.83-.74c-.5-.06-1.58-.13-2.92 0 .02-.13.18-.44.67-.66-.25-.15-.92-.32-1.6.25-.13-.08-.23-.36.47-.86s.87-1.1.87-1.34c-.07.18-.43.54-1.33.57-.9.02-1.45.79-1.61 1.16-.27-.28-.58-1.05.4-1.89a2.75 2.75 0 0 0-2.84 1.5c-.22-.17-.54-.73-.12-1.68.42-.95.25-1.43.12-1.55 0 .13-.25.66-1.37 1.73-1.11 1.07-1.07 2.13-.92 2.52l-.54.58c.13-.85.11-2.65-1.01-3.1.18.42.38 1.5-.25 2.52s-.4 1.61-.2 1.78c-.4-.26-1.16-1-1.03-1.94a3.42 3.42 0 0 0-.47 2.91h2.15a4.75 4.75 0 0 1 9.22 1.6A4.76 4.76 0 0 1 42 29.35v.75Z" fill="#C16528"/></svg>