<!-- by TradingView --><svg width="56" height="56" viewBox="0 0 56 56" xmlns="http://www.w3.org/2000/svg"><path fill="#F66921" d="M0 0h56v56H0z"/><path d="M28.04 16.52a2.26 2.26 0 1 0 0-4.52 2.26 2.26 0 0 0 0 4.52Zm4.36 4a.23.23 0 0 0-.2.3l.9 3.03c.02.05.01.1-.02.13a.14.14 0 0 1-.13.05 17.2 17.2 0 0 0-10.75 1.34.1.1 0 0 1-.13-.02c-.04-.03-.05-.07-.03-.12.57-1.81 1.07-3.69 1.52-5.62.02-.09 0-.15-.09-.2a21.06 21.06 0 0 1-4.03-2.73c-1.62-1.45-2.34-2.75-2.18-3.92 0-.06.03-.1.09-.12.05-.02.1-.02.15.02 3.11 2.4 6.49 4.01 10.13 4.8a.2.2 0 0 1 .15.24l-.74 3.27c-.05.19 0 .34.15.46l1.49 1.23c.11.1.22.1.32-.01.4-.38.69-.8.89-1.24a.41.41 0 0 0 0-.36l-1.42-3.24a.12.12 0 0 1 .02-.13.12.12 0 0 1 .12-.05 22 22 0 0 0 8.98-.26c.05-.01.1 0 .14.05.04.04.05.1.04.15-.27.8-1.03 1.48-2.3 2.06-.96.44-1.98.74-3.07.9Zm-8.12 12.13c1.67-2.72 2.91-4.76 3.73-6.13a.14.14 0 0 0 0-.15.14.14 0 0 0-.11-.08c-2.1-.14-4.1.04-6 .54a.45.45 0 0 0-.33.33l-3.19 11.73c-.02.08 0 .16.05.22.06.07.13.1.21.08a3.54 3.54 0 0 0 2.75-1.78c.64-1.06 1.6-2.65 2.9-4.76Zm4.3-6.27A22 22 0 0 1 34 28.06a.9.9 0 0 1 .31.24c.1.11.16.23.2.35 1 3.38 2 6.82 3 10.32.05.18-.02.27-.21.26-1.18-.07-2.01-.54-2.5-1.42L28.67 26.9a1.78 1.78 0 0 1-.17-.42c-.01-.03 0-.05.01-.07a.07.07 0 0 1 .07-.02Zm-3.32 14.04c-3.85.66-7.59 1.8-11.22 3.45-.04.02-.05.04-.04.08.02.04.05.06.1.05a66.96 66.96 0 0 1 26.71-1.91c.16.02.22-.05.18-.2-.02-.06-.04-.09-.09-.1a31.3 31.3 0 0 0-15.64-1.37Z" fill="#fff"/></svg>