<!-- by TradingView --><svg width="56" height="56" viewBox="0 0 56 56" xmlns="http://www.w3.org/2000/svg"><path fill="#F0F3FA" d="M0 0h56v56H0z"/><path d="M13.63 21.9c-1.5 4.76-.53 9.52 5.13 8.83 0 0 18.58-2.08 9-14.57C26.02 13.92 24.2 13 22.43 13c-3.87 0-7.42 4.45-8.81 8.9Zm5.35 5.76c-9.27-4.53 3.07-10.08 3.07-10.08 4.2-2.5 5.73 1.24 5.04 4.98-.54 2.9-2.41 5.8-5.42 5.8a6.1 6.1 0 0 1-2.69-.7Z" fill="url(#a)"/><path d="M22.05 17.58s-12.34 5.55-3.07 10.08c4.6 2.25 7.43-1.42 8.1-5.1.54-2.9-.26-5.79-2.59-5.79-.68 0-1.49.25-2.44.81Zm-1.3 9.12c-7.1-1.13-.06-7.32-.06-7.32 2.5-2.78 4.44.18 4.43 3.14 0 2.13-1.01 4.25-3.55 4.25-.26 0-.53-.02-.82-.07Z" fill="url(#b)"/><path d="M31.94 24.65c-3.86 7.69 16.68 6.14 10.97-2.3-1.6-2.39-3.18-3.25-4.61-3.25-3.65 0-6.36 5.55-6.36 5.55Zm1.95.52c-.84-6.55 11.78-3.64 6.92.3 0 0-2.62 2.69-4.65 2.7-1.07 0-1.98-.75-2.27-3Z" fill="url(#c)"/><path d="M33.9 25.16c.83 6.56 6.91.3 6.91.3 2.78-2.25-.16-4.17-3.03-4.17-2.15 0-4.25 1.07-3.89 3.87Zm.97-.85c.8-4.53 8.58-.04 4.53 1.6 0 0-1.7.93-3.04.93-1.03 0-1.85-.56-1.5-2.53Z" fill="url(#d)"/><path d="M21.63 39.4c7.51 9.78 13.07-3.57 13.07-3.57 1.68-3.95-1.54-5.7-5.36-5.7-5.45 0-12.12 3.53-7.71 9.27Zm2.3-3.92s6.87-7.99 8.37-.14c.68 3.56-2.13 4.97-4.87 4.97-3.31 0-6.54-2.04-3.5-4.83Z" fill="url(#e)"/><path d="M23.93 35.47c-5.57 5.11 9.87 7.71 8.37-.13-.5-2.59-1.57-3.45-2.8-3.45-2.48 0-5.57 3.58-5.57 3.58Zm1.67-.63s6.23-3.9 5.59 1.6C30.97 38.3 29.73 39 28.35 39c-2.7 0-5.91-2.64-2.75-4.15Z" fill="url(#f)"/><defs><linearGradient id="a" x1="19.59" y1="13.46" x2="23.01" y2="29.95" gradientUnits="userSpaceOnUse"><stop stop-color="#55B9D1"/><stop offset=".17" stop-color="#27ABCA"/><stop offset=".42" stop-color="#27ABCA"/><stop offset="1" stop-color="#38627E"/></linearGradient><linearGradient id="b" x1="17.63" y1="19.59" x2="26.38" y2="24.93" gradientUnits="userSpaceOnUse"><stop stop-color="#55B9D1"/><stop offset=".17" stop-color="#27ABCA"/><stop offset=".42" stop-color="#27ABCA"/><stop offset="1" stop-color="#38627E"/></linearGradient><linearGradient id="c" x1="31.25" y1="25.76" x2="43.3" y2="22.23" gradientUnits="userSpaceOnUse"><stop stop-color="#55B9D1"/><stop offset=".17" stop-color="#27ABCA"/><stop offset=".42" stop-color="#27ABCA"/><stop offset="1" stop-color="#38627E"/></linearGradient><linearGradient id="d" x1="38.62" y1="27.7" x2="37.61" y2="21.22" gradientUnits="userSpaceOnUse"><stop stop-color="#55B9D1"/><stop offset=".17" stop-color="#27ABCA"/><stop offset=".42" stop-color="#27ABCA"/><stop offset="1" stop-color="#38627E"/></linearGradient><linearGradient id="e" x1="35.45" y1="34.44" x2="21.22" y2="39.68" gradientUnits="userSpaceOnUse"><stop stop-color="#55B9D1"/><stop offset=".17" stop-color="#27ABCA"/><stop offset=".42" stop-color="#27ABCA"/><stop offset="1" stop-color="#38627E"/></linearGradient><linearGradient id="f" x1="26.41" y1="32.62" x2="28.05" y2="40.38" gradientUnits="userSpaceOnUse"><stop stop-color="#55B9D1"/><stop offset=".17" stop-color="#27ABCA"/><stop offset=".42" stop-color="#27ABCA"/><stop offset="1" stop-color="#38627E"/></linearGradient></defs></svg>