<!-- by TradingView --><svg width="56" height="56" xmlns="http://www.w3.org/2000/svg"><path fill="#0055AD" d="M0 0h56v56H0z"/><path fill-rule="evenodd" d="M48 28c0 2.48-1.937 4.966-5.615 6.892C38.755 36.794 33.671 38 28 38c-5.67 0-10.755-1.206-14.385-3.108C9.937 32.966 8 30.48 8 28c0-2.48 1.937-4.966 5.615-6.892C17.245 19.206 22.329 18 28 18c5.67 0 10.755 1.206 14.385 3.108C46.063 23.034 48 25.52 48 28zm1 0c0 6.075-9.402 11-21 11S7 34.075 7 28s9.402-11 21-11 21 4.925 21 11zm-7.736 6.002C44.668 32.39 46.6 30.241 46.6 28c0-2.24-1.932-4.39-5.336-6.003C37.89 20.4 33.2 19.4 28 19.4c-5.201 0-9.89 1-13.264 2.598C11.332 23.61 9.4 25.758 9.4 28c0 2.24 1.932 4.39 5.336 6.002C18.11 35.601 22.8 36.6 28 36.6c5.201 0 9.89-1 13.264-2.598zM28 37c10.493 0 19-4.03 19-9s-8.507-9-19-9-19 4.03-19 9 8.507 9 19 9zm-15-5v-8h2.13l2.696 4.723V24h1.957v8h-2.087l-2.74-4.82V32H13zm8 0v-8h2.174v6.072h2.174V32H21zm4.652 0l1.087-8h2.044l1.26 4.867L31.349 24h2.043l1.087 8h-2l-.522-4.627L30.696 32H29.39l-1.217-4.627L27.609 32h-1.957zm9.609 0v-8h2.043v3.373L39.522 24h2.391l-2.783 3.855L42 32h-2.565l-2.13-3.422V32H35.26z" fill="#fff"/></svg>