<!-- by TradingView --><svg width="56" height="56" viewBox="0 0 56 56" xmlns="http://www.w3.org/2000/svg"><path fill="#74838A" d="M0 0h56v56H0z"/><path d="m24.67 16-.84.86L41.68 35H50v-1.5h-7.69l-1.5-1.5H50v-1.5H39.29L37.78 29H50v-1.5H36.26L24.66 16Zm-2.3 2.34.84-.86L40.57 35h-1.82L22.36 18.34Zm-.62.63-.86.87L35.81 35h1.82L21.75 18.97ZM18.77 22l1.52-1.54L21.8 22h-3.04Zm-.98 1-.99 1h7l-1-1H17.8Zm-2.95 3 .98-1h8.97l.98 1H14.84Zm-.98 1L6 35h3.57l5.95-5.95.28.48L10.34 35h3.76l3.5-3.67.4.4L14.8 35h3.5l1.6-1.5.25.42L19.08 35h9.94L28 33.94l.6-.55L30.14 35h1.71l-2.4-2.46.6-.62L32.98 35h1.7l-7.92-8h-12.9Z" fill="#fff"/></svg>