<!-- by TradingView --><svg width="56" height="56" viewBox="0 0 56 56" xmlns="http://www.w3.org/2000/svg"><path fill="#F0F3FA" d="M0 0h56v56H0z"/><path d="M28.66 24h-3.94l-1.66 5.56c-.13.42-.28.94-.66 1.35-.35.39-.94.69-1.92.69-.95 0-1.35-.33-1.5-.75-.12-.42.02-.93.12-1.29L20.77 24h-3.94l-1.66 5.56c-.48 1.58-.43 2.33.54 3.3.98.95 2.97 1.14 4.09 1.14 1.76 0 3.2-.38 4.36-.99l.01-.02s2.05-.9 2.76-3.17L28.66 24Z" fill="#5F666F"/><path d="M47.79 30.72c-.16.14-.34.28-.53.4-1.55 1.03-3.47.9-4.3-.27-.81-1.19-.22-2.98 1.33-4 1.55-1.03 3.48-.9 4.3.27l.17.3H52a3.45 3.45 0 0 0-.29-1c-1.09-2.37-4.6-3.13-7.87-1.7-3.26 1.43-5.02 4.5-3.93 6.87 1.08 2.36 4.6 3.12 7.87 1.69a7.91 7.91 0 0 0 3.25-2.56H47.8ZM37.08 24h-.45c-2.33 4.3-1.76 7.03-1.15 8.57l.65 1.43h3.5l-2.55-10Z" fill="#2F4486"/><path d="M27.87 30.6 24.95 34h4.07l1.12-1.43h4.32c-1.36-3.71-5.76-2.34-6.6-1.97Z" fill="#5F666F"/><path d="M35.88 24H33.8l-4.86 5.44c3.3-.77 5.55-3.25 6.94-5.43ZM10.66 21.18c-.01.02-1.55 1.99-1.81 2.2-.63.48-2.1.61-2.46.56h-.02l-.1.3.03.02c.02 0 1.49.33 2.21.76.68.4 1.62 1.4 1.75 1.54l.24-.28c-.25-.35-.86-1.62-.75-2.38.04-.33.96-2.67.97-2.7l.08-.2-.14.18Z" fill="#C22821"/><path d="m10.26 26.56-.21.23c-.61.47-2 .6-2.42.57l-.1.32c.2.04 1.51.36 2.18.75.72.42 1.76 1.55 1.77 1.56l.02.03.24-.27-.02-.02c-.24-.32-.88-1.64-.77-2.42.04-.33.96-2.66.97-2.69l.08-.2-.14.17c0 .02-.81 1.05-1.36 1.7l-.24.27Z" fill="#2F4486"/><path d="m7.53 27.68-.05.2c-.1.76.5 2.03.76 2.38l-.25.28A10.31 10.31 0 0 0 6.24 29c-.72-.42-2.19-.75-2.2-.76H4l.1-.31h.03c.35.05 1.82-.08 2.45-.57.26-.2 1.8-2.17 1.82-2.2l.11-.13-.06.17c0 .02-.54 1.38-.82 2.17l-.1.32Z" fill="#5F666F"/><path d="M8 30.54c-.1.11-.18.2-.22.22-.63.5-2.1.63-2.45.58H5.3l-.1.3h.03c.02.01 1.49.34 2.21.77.73.42 1.76 1.55 1.77 1.56l.02.03.24-.27-.02-.02c-.24-.32-.87-1.64-.77-2.42.04-.33.96-2.66.97-2.69l.06-.17-.11.14a77.5 77.5 0 0 1-1.36 1.7l-.25.27Z" fill="#C3C4C7"/></svg>