<!-- by TradingView --><svg xmlns="http://www.w3.org/2000/svg" width="56" height="56"><path fill="#DF1E42" d="M0 0h56v56H0z"/><path d="M6 25.32L9.67 21H20v9.68L16.47 35H6v-9.67zM8 33h.1c.18 0 .36-.02.54-.05.43-.08.84-.28 1.15-.57.42-.38.7-.86.88-2.07.1-.67.14-1.94.14-1.94h1.69V33H14v-6H9.33v1.11c0 .83-.07 1.95-.25 2.53-.11.4-.51.89-.97 1.01h-.02a.5.5 0 01-.1.01V33zm28-7.68L39.67 21H50v9.68L46.47 35H36v-9.67zM39 27v6h1.5v-1.46h1c1.57 0 2.5-.96 2.5-2.39 0-1.29-.94-2.15-2.46-2.15H39zm2.43 3.2h-.93v-1.84h.92c.7 0 1.08.38 1.08.94 0 .5-.42.9-1.07.9zM24.67 21L21 25.32V35h10.47L35 30.68V21H24.67zm1.27 12A2.9 2.9 0 0123 30.02V30c0-1.71 1.3-3 3-3 .47 0 .92.08 1.34.27.35.17.67.41.92.72l-1 1.01-.09-.1a1.54 1.54 0 00-1.18-.55c-.83 0-1.49.72-1.49 1.64 0 .95.66 1.66 1.5 1.66.33 0 .66-.1.93-.31.12-.1.22-.19.32-.3l.02-.03.96.98a2.86 2.86 0 01-2.29 1z" fill="#fff"/></svg>