<!-- by TradingView --><svg width="56" height="56" viewBox="0 0 56 56" xmlns="http://www.w3.org/2000/svg"><path fill="#00A5E5" d="M0 0h56v56H0z"/><path d="M26.07 22.35a1.17 1.17 0 1 0 0-2.35 1.17 1.17 0 0 0 0 2.35ZM18.43 26a1.17 1.17 0 1 0 0-2.34 1.17 1.17 0 0 0 0 2.34Zm1.17 2.46a1.17 1.17 0 1 1-2.34 0 1.17 1.17 0 0 1 2.34 0Zm3.85 0a1.17 1.17 0 1 1-2.34 0 1.17 1.17 0 0 1 2.34 0Zm2.62 1.18a1.17 1.17 0 1 0 0-2.35 1.17 1.17 0 0 0 0 2.35Zm5.03-1.18a1.17 1.17 0 1 1-2.35 0 1.17 1.17 0 0 1 2.35 0Zm2.62 1.18a1.17 1.17 0 1 0 0-2.35 1.17 1.17 0 0 0 0 2.35Zm4.97-1.18a1.17 1.17 0 1 1-2.35 0 1.17 1.17 0 0 1 2.35 0ZM8 32a1 1 0 1 1-2 0 1 1 0 0 1 2 0Zm2.82 1a1 1 0 1 0 0-2 1 1 0 0 0 0 2Zm4.82-1a1 1 0 1 1-2 0 1 1 0 0 1 2 0Zm2.81 1a1 1 0 1 0 0-2 1 1 0 0 0 0 2Zm4.82-1a1 1 0 1 1-2 0 1 1 0 0 1 2 0Zm2.8 1a1 1 0 1 0 0-2 1 1 0 0 0 0 2Zm4.85-1a1 1 0 1 1-2 0 1 1 0 0 1 2 0Zm2.8 1a1 1 0 1 0 0-2 1 1 0 0 0 0 2Zm4.83-1a1 1 0 1 1-2 0 1 1 0 0 1 2 0Zm2.81 1a1 1 0 1 0 0-2 1 1 0 0 0 0 2Zm4.82-1a1 1 0 1 1-2 0 1 1 0 0 1 2 0ZM49 33a1 1 0 1 0 0-2 1 1 0 0 0 0 2Zm-25.55-8.17a1.17 1.17 0 1 1-2.34 0 1.17 1.17 0 0 1 2.34 0ZM26.07 26a1.17 1.17 0 1 0 0-2.34 1.17 1.17 0 0 0 0 2.34Zm5.03-1.17a1.17 1.17 0 1 1-2.35 0 1.17 1.17 0 0 1 2.35 0ZM33.72 26a1.17 1.17 0 1 0 0-2.34 1.17 1.17 0 0 0 0 2.34Zm4.97-1.17a1.17 1.17 0 1 1-2.35 0 1.17 1.17 0 0 1 2.35 0Zm-7.6-3.66a1.17 1.17 0 1 1-2.34 0 1.17 1.17 0 0 1 2.35 0Z" fill="#fff"/></svg>