<!-- by TradingView --><svg xmlns="http://www.w3.org/2000/svg" width="56" height="56"><path d="M0 28a28 28 0 1156 0 28 28 0 01-56 0z" fill="#1180C5"/><path d="M11 25.5v-5c-1.8 0-3.26.5-4.38 1.3a6.3 6.3 0 00-2.51 6.35C5.15 34.13 11.77 35.75 16 32v-5h-5v2c1.87-.76 3 .3 3 1.5-.1 1.99-1.8 2.49-3.3 2.49-1 0-2.23-.48-2.86-1.24A4.18 4.18 0 017 29c0-.41.05-.78.16-1.11.59-1.78 2.57-2.38 3.84-2.38zm5.5 1.5v7H18v-4.26l.8 4.26h1.02l.8-4.26V34h1.5v-7h-2l-.81 4.3-.8-4.3H16.5z" fill="#fff"/><path fill-rule="evenodd" d="M49.6 27a.8.8 0 00-.8.8v5.4c0 .44.36.8.8.8h1.6a.8.8 0 00.8-.8v-5.4a.8.8 0 00-.8-.8h-1.6zm.8 1a.25.25 0 00-.25.25v4.5a.25.25 0 00.5 0v-4.5a.25.25 0 00-.25-.25zm-26.9-1a.8.8 0 00-.8.8v5.4c0 .44.36.8.8.8h1.6a.8.8 0 00.8-.8v-5.4a.8.8 0 00-.8-.8h-1.6zm.8 1a.25.25 0 00-.25.25v4.5a.25.25 0 00.5 0v-4.5a.25.25 0 00-.25-.25z" fill="#fff"/><path d="M26.5 27.8c0-.44.36-.8.8-.8h1.9c.44 0 .8.36.8.8v1.7h-1.5v-1.25a.25.25 0 10-.5 0v1.25c0 .46 2 1 2 2v1.7a.8.8 0 01-.8.8h-1.9a.8.8 0 01-.8-.8v-1.7H28v1.25a.25.25 0 10.5 0V32c0-1-2-1-2-2v-2.2zM32 27h-1.5v7H33v-1h-1v-2h1v-1h-1v-2h1v-1h-1zm7.5 0H38v7h2.5v-1h-1v-2h1v-1h-1v-2h1v-1h-1zM35 34v-3.43L36 34h1.5v-7H36v3.43L35 27h-1.5v7H35z" fill="#fff"/><path fill-rule="evenodd" d="M41 27h2.7c.44 0 .8.36.8.8v2.9a.8.8 0 01-.6.78l.5 2.52h-1.3l-.5-2.5h-.11V34H41v-7zm1.5 3.5V28h.2c.17 0 .3.13.3.3v1.9a.3.3 0 01-.3.3h-.2z" fill="#fff"/><path d="M45.73 27c-.4 0-.73.36-.73.8v5.4c0 .44.33.8.73.8h1.74c.4 0 .73-.36.73-.8v-2.54h-1.61v1h.24v1.09c0 .14-.1.25-.23.25s-.23-.11-.23-.25v-4.5c0-.14.1-.25.23-.25s.23.11.23.25v1.11h1.37V27.8c0-.44-.33-.8-.73-.8h-1.74z" fill="#fff"/><path fill-rule="evenodd" d="M13.25 15c-.05 0-.29.34-.52.7-2 3.27-1.63 7.77.57 10.83 2.16-3.1 2.5-7.55.47-10.82-.23-.37-.47-.71-.52-.71zM12 23.17c-.5-1.44-.5-4.8 1.25-7.2a8.92 8.92 0 011.24 7.2c0-1.44-.24-4-1.24-5.42-1 1.43-1.25 3.98-1.25 5.42zm1.27-.96a4.01 4.01 0 000 4.15c.77-1.27.77-2.7 0-4.15z" fill="#fff"/></svg>