<!-- by TradingView --><svg width="56" height="56" viewBox="0 0 56 56" xmlns="http://www.w3.org/2000/svg"><path fill="#F0F3FA" d="M0 0h56v56H0z"/><path d="M28.2 17.87a9.43 9.43 0 0 1 8.75 5.83 9.5 9.5 0 0 1-6.87 12.93 9.42 9.42 0 0 1-11.3-9.29 9.48 9.48 0 0 1 9.43-9.47ZM9.43 33.71a5.09 5.09 0 0 0 3.24 1.5c2.19.11 4.08-.32 6.2.07.53.13 1.04.34 1.53.6-2.25.68-1.4 1.94-4.16 2.45a6.57 6.57 0 0 0 5.16 0 10.7 10.7 0 0 1 2.63-.4 5.97 5.97 0 0 0-2.36 1.86 6 6 0 0 1-4.7 3.13c.81 1.29 3.36.73 4.48.4a8.03 8.03 0 0 0 3.53-1.99l.97-1.06c.26-.27.55-.52.86-.74.38-.23.78-.4 1.2-.5.36-.05.72-.05 1.07 0H29c-.06 0-.25.38-.4.6a5.48 5.48 0 0 0-.74 2.58c0 .46-.17 1.23-.17 1.23 1.16-1.06 1.93-3.18 3.4-3.9.16-.07.34-.1.52-.1-.08 1.46-1 2.7-1 4.15A3.3 3.3 0 0 0 33.4 47c-.1-1-.06-2.02.13-3.01.35-1.4 1.06-2.79 1.53-4.25a6 6 0 0 0 .1-2.31c.39-.06 1.4 1.83 1.35 2.12 0-.51.32-1.42.37-2.03a6 6 0 0 0-.28-2.03c.72.25 1.35.7 1.8 1.3.27.35.52.7.76 1.07.43.7.79 1.72 1.5 2.12.43.16.9.19 1.34.08-.35-.26-.64-.6-.85-.98a9.08 9.08 0 0 1-.45-3.18 8.8 8.8 0 0 0-1.13-4.48c.38.04.75.18 1.06.4.17.13.6.48.84.34-.43-.4-.3-1.18-.51-1.72l-.33-.74c.33.1.64.26.94.44.73.29 1.51.43 2.3.44a8.63 8.63 0 0 1 3.48.6l.63.48c.02-.32-.01-.64-.1-.94a3.95 3.95 0 0 0-1.51-1.74c-.76-.52-1.56-.97-2.4-1.35-.51-.32-1-.67-1.46-1.06-.66-.74-1.4-1.41-2.21-1.99.13-.09.26-.17.4-.23.7-.3 1.5-.3 2.12-.63-.87-1.3-2.4-1.12-3.38-2.06.65.08 1.3.08 1.95 0 1.06-.1 1.26-.49 1.77-1.26.14-.22.32-.4.53-.56.81-.54 2.9-.28 3.82-.28a9.79 9.79 0 0 0-3-1.34c-3.62-.44-5 .82-7.42-.38-.26-.1 1.16-.96 2.02-1-.48-.22-1-.38-1.52-.45-.79.03-1.54.34-2.12.87a1.6 1.6 0 0 1 .72-1.63c.41-.26 1.23-.45 1.55-.68.34-.32.6-.73.74-1.17.08-.42.12-.84.1-1.27A2.6 2.6 0 0 1 37 13.7s-3.07.59-3.8.85c-.58.26-1.1.62-1.55 1.06a.84.84 0 0 1-.12-.48c0-.34 1.62-3.32 1.41-3.18-.21.14-1.2.44-1.8.64-.96.26-1.9.58-2.81.96-1.21.54-1.91 1.73-2.02 1.57-.24-.3-.39-.67-.43-1.06.1-.66.31-1.29.65-1.87A3.04 3.04 0 0 0 26.36 9a32.64 32.64 0 0 0-3.49 3.96c-.5.98-.94 1.99-1.32 3.02l-.95 2.84a3.02 3.02 0 0 1-.45-.49c-.1-.4-.12-.82-.07-1.23.22-1.48.25-3.27-1.06-4.25a1.5 1.5 0 0 0-.92-.26c.22.33.33.72.33 1.12-.03.44-.1.87-.21 1.29l-.7 2.78a14.3 14.3 0 0 0-.43 3.54 2.52 2.52 0 0 1-2.05-2c-.08-.7-.11-1.42-.1-2.13-1.17 1.73-1.82 2.85-1.47 4.95.36 1.5.96 2.94 1.8 4.25.28.58.5 1.2.64 1.82a2.12 2.12 0 0 0-1.54-.83c-1 0-2.42.89-3.29.37l-.33-.15.2.41c.94 1.5 2.12 1.24 3.55 1.93.7.27 1.3.72 1.75 1.3a3.36 3.36 0 0 0-1.82.1c-.65.23-1.19.73-1.89.96a5.58 5.58 0 0 1-3.78-.28c-.24-.11-.76-.43-.76-.43.06.17.13.33.21.49.37.57.77 1.12 1.2 1.64" fill="#FECB2F"/><path d="M23.25 20.69c.11-.2.38-.3.6-.24.23.07.38.3.38.52L29 23.54V22h1v1.97l2.56 1.43L30 26.43v2.07l2.58 1.06L30 31.04v1.5h-1v-1.15l-4.76 2.56c0 .23-.13.4-.33.5a.56.56 0 0 1-.44 0 .43.43 0 0 1-.26-.3.44.44 0 0 1 .22-.47c.18-.1.42-.1.6 0l4.97-2.7v-2.36l-2.64-1.23L29 26.32v-2.35l-4.7-2.58c-.1-.04-.17-.13-.28-.1a.8.8 0 0 1-.56 0c-.2-.1-.33-.4-.21-.6Zm.47.3c.16-.03.18-.23 0-.26-.18-.04-.25.32 0 .27ZM30 24.35v1.73a39 39 0 0 0 1.8-.73l-1.8-1Zm-2.74 3.05c.64.26 1.09.57 1.74.8v-1.5l-1.74.7ZM30 28.9v1.68l1.74-1c-.63-.26-1.1-.45-1.74-.68Zm-6.43 5c-.08.06-.08.18 0 .23.07.09.26 0 .22-.11-.04-.13-.13-.15-.22-.11Z" fill="#EE1D23"/></svg>