<!-- by TradingView --><svg width="56" height="56" viewBox="0 0 56 56" xmlns="http://www.w3.org/2000/svg"><path fill="#F0F3FA" d="M0 0h56v56H0z"/><path d="M41.1 39a42.22 42.22 0 0 1-4.33-4.45A50.86 50.86 0 0 1 34 30.96c-.22-.35-.46-.7-.7-1.05 0 0-.05-.05-.16-.24-.22-.35 1.56-.86 1.7-.92.8-.27 1.71-.48 2.47-.62a9.12 9.12 0 0 1 3.52 0c.3.08.6.17.84.27.96.43 1.7 1.27 1.96 2.3.03.13.08.26.08.42.03.14.03.3.05.46a8.77 8.77 0 0 1-.59 3.48c-.19.64-1.05 2.32-1.29 2.83-.05.08-.62 1.21-.78 1.1Z" fill="url(#ata5s3oyl)"/><path d="M44.95 26.46c-1.8.11-4.39.11-6.22-.08-1.5-.13-3-.3-4.49-.59-.4-.08-.8-.16-1.24-.27 0 0-.08 0-.26-.05-.4-.11.5-1.73.53-1.84.38-.75.86-1.56 1.32-2.2.7-1 1.48-1.9 2.48-2.51.27-.16.53-.3.78-.38 1-.4 2.1-.32 3 .24.12.09.25.14.36.25l.35.27a8.9 8.9 0 0 1 2.04 2.88c.33.6.9 2.37 1.08 2.9.08.17.46 1.38.27 1.38Z" fill="url(#bta5s3oyl)"/><path d="M38.84 14.9a42.23 42.23 0 0 1-4.44 4.34 50.76 50.76 0 0 1-3.57 2.78c-.35.21-.7.46-1.05.7l-.25.16c-.35.22-.86-1.56-.91-1.7-.27-.8-.48-1.72-.62-2.48a9.16 9.16 0 0 1 0-3.53c.08-.3.16-.59.27-.83a3.48 3.48 0 0 1 2.29-1.97c.13-.02.27-.08.43-.08.13-.03.3-.03.45-.05a8.73 8.73 0 0 1 3.47.59c.65.19 2.32 1.05 2.83 1.3.08.05 1.2.61 1.1.77Z" fill="url(#cta5s3oyl)"/><path d="M26.33 11.05a43.75 43.75 0 0 1-.67 10.73c-.08.4-.16.8-.27 1.23 0 0 0 .09-.05.27-.11.4-1.72-.5-1.83-.53a17.7 17.7 0 0 1-2.2-1.32c-1-.7-1.89-1.49-2.5-2.48-.17-.27-.3-.54-.41-.78-.4-1-.33-2.1.24-3.02.08-.11.13-.25.24-.35l.27-.35a8.89 8.89 0 0 1 2.88-2.05c.6-.32 2.37-.89 2.9-1.08.17-.08 1.38-.46 1.4-.27Z" fill="url(#dta5s3oyl)"/><path d="M30.29 45c-.14 0-.2-.03-.2-.03-.04 0-.13 0-.18-.02-.05 0-.13 0-.19-.03l-.19-.03-.02-.27c-.03-.16-.03-.32-.03-.48l-.03-.76v-1.51c0-.24 0-.5.03-.75l.03-.75c0-.25.02-.52.05-.76.03-.24.03-.51.05-.75l.09-.76.08-.75.08-.76c.02-.24.05-.5.1-.75.03-.24.09-.51.11-.75.06-.25.08-.49.14-.76l.16-.75c.02-.17.05-.33.1-.49 0 0 .03-.08.06-.27.13 0 .19.03.19.03.05 0 .13 0 .19.03.05 0 .13 0 .18.02l.2.03.32.13c.08.03.16.09.21.11l.16.08.32.16c.09.06.2.11.27.14l.54.3c.54.3.97.59 1.37.86.4.3.78.56 1.08.83.32.27.6.57.8.84a5.13 5.13 0 0 1 1.19 2.37c.03.24.05.51.03.75-.03.25-.06.52-.14.76a4.3 4.3 0 0 1-.32.73c-.08.1-.13.24-.24.35l-.27.35a6.49 6.49 0 0 1-1.67 1.37c-.35.22-.78.43-1.2.65l-.74.32c-.26.1-.5.22-.8.32l-.57.2c-.1.02-.21.05-.3.1-.1.03-.2.05-.32.1 0 0-.05.03-.18.06-.09.08-.27.14-.54.19Z" fill="url(#eta5s3oyl)"/><path d="m17.62 41.69-.14-.17-.13-.16c-.06-.05-.08-.1-.14-.16l-.13-.16.16-.22.32-.37.51-.57.54-.54.54-.54c.19-.19.38-.35.54-.5l.56-.52.57-.49a2435.39 2435.39 0 0 0 1.16-.97c.18-.16.37-.32.59-.48l.59-.46c.19-.16.4-.3.6-.46l.6-.45c.22-.14.41-.3.63-.44.21-.13.43-.26.64-.43.14-.08.27-.19.4-.27l.22-.13.14.16.13.16c.06.06.08.11.14.16l.13.17.13.32.09.21c.05.11.05.2.05.2.03.1.08.2.1.32l.11.3.17.59a15.83 15.83 0 0 1 .5 2.96c.03.43.03.8 0 1.16-.02.35-.07.67-.13 1-.08.3-.16.59-.27.83a3.47 3.47 0 0 1-.91 1.27c-.19.16-.4.3-.62.43-.24.1-.48.21-.75.3-.14.02-.27.07-.43.07-.14.03-.3.03-.46.06-.32.03-.65.03-1-.03a6.84 6.84 0 0 1-1.15-.19c-.4-.08-.86-.24-1.32-.37a9.94 9.94 0 0 1-2.04-.89c-.11-.06-.2-.11-.3-.14-.1-.05-.22-.1-.3-.16l-.16-.08c-.08-.08-.24-.16-.48-.32Z" fill="url(#fta5s3oyl)"/><path d="M11 30.34c0-.13.03-.19.03-.19 0-.05 0-.13.02-.18 0-.06 0-.14.03-.2l.03-.18.27-.03c.16-.02.32-.02.48-.02l.75-.03h1.51c.24 0 .51 0 .75.02l.76.03c.24 0 .5.03.75.06.24.02.51.02.75.05l.76.08.75.08.75.08c.24.03.51.06.76.11.24.03.5.08.75.1.24.06.48.09.75.14l.76.16c.16.03.32.06.48.11 0 0 .08.03.27.06 0 .13-.03.18-.03.18 0 .06 0 .14-.02.2 0 .05 0 .13-.03.18l-.03.19-.13.32-.11.22-.08.16a974.44 974.44 0 0 1-.3.6l-.3.53c-.29.54-.59.97-.85 1.38-.3.4-.57.78-.84 1.07-.27.33-.56.6-.83.81a5.14 5.14 0 0 1-2.37 1.21c-.24.03-.51.06-.75.03s-.51-.05-.76-.13a4.3 4.3 0 0 1-.72-.33c-.11-.08-.24-.13-.35-.24l-.35-.27a6.5 6.5 0 0 1-1.37-1.67c-.22-.35-.43-.78-.65-1.21l-.32-.73c-.1-.27-.22-.51-.32-.8l-.2-.57a.97.97 0 0 0-.1-.3c-.03-.1-.05-.21-.1-.32 0 0-.03-.06-.06-.2-.08-.1-.14-.26-.19-.56Z" fill="url(#gta5s3oyl)"/><path d="m14.3 17.65.17-.13c.05-.06.1-.08.16-.14l.16-.13.16-.14.22.17.38.32.56.51.54.54.54.54c.19.19.35.38.5.54.17.19.36.37.52.56l.48.57.49.57c.16.18.32.37.48.59l.49.59c.16.19.32.4.45.6.16.18.3.4.46.59l.46.62c.13.21.3.4.43.62a9 9 0 0 0 .43.64c.08.14.19.27.27.4l.13.22-.16.14-.16.13-.16.14-.16.13-.33.14c-.08.02-.16.05-.21.08-.1.05-.19.05-.19.05-.1.03-.21.08-.32.1-.11.03-.2.06-.3.12l-.59.16a15.76 15.76 0 0 1-2.96.5 8.28 8.28 0 0 1-2.15-.13c-.3-.08-.6-.16-.84-.27a3.46 3.46 0 0 1-1.26-.92c-.16-.18-.3-.4-.43-.61-.1-.24-.21-.49-.3-.76-.02-.13-.08-.26-.08-.43-.02-.13-.02-.3-.05-.45-.03-.33-.03-.65.03-1 .02-.35.08-.73.19-1.16.08-.4.24-.86.37-1.32.08-.24.16-.48.27-.73a9.95 9.95 0 0 1 .62-1.32c.05-.1.1-.19.13-.3l.17-.29.08-.16c.08-.08.18-.24.32-.49Z" fill="url(#hta5s3oyl)"/><defs><linearGradient id="ata5s3oyl" x1="28.74" y1="27.96" x2="43.26" y2="35.13" gradientUnits="userSpaceOnUse"><stop stop-color="#68BCEA"/><stop offset=".71" stop-color="#4591CA"/><stop offset=".99" stop-color="#2C53A4"/></linearGradient><linearGradient id="bta5s3oyl" x1="26.99" y1="26.54" x2="43.55" y2="22.34" gradientUnits="userSpaceOnUse"><stop stop-color="#68BCEA"/><stop offset=".71" stop-color="#4591CA"/><stop offset=".99" stop-color="#2C53A4"/></linearGradient><linearGradient id="cta5s3oyl" x1="27.83" y1="28.98" x2="35.11" y2="12.17" gradientUnits="userSpaceOnUse"><stop stop-color="#68BCEA"/><stop offset=".71" stop-color="#4591CA"/><stop offset=".99" stop-color="#2C53A4"/></linearGradient><linearGradient id="dta5s3oyl" x1="26.85" y1="28.12" x2="22.36" y2="12.31" gradientUnits="userSpaceOnUse"><stop stop-color="#68BCEA"/><stop offset=".71" stop-color="#4591CA"/><stop offset=".99" stop-color="#2C53A4"/></linearGradient><linearGradient id="eta5s3oyl" x1="29.45" y1="28.55" x2="34.51" y2="43.52" gradientUnits="userSpaceOnUse"><stop stop-color="#68BCEA"/><stop offset=".71" stop-color="#4591CA"/><stop offset=".99" stop-color="#2C53A4"/></linearGradient><linearGradient id="fta5s3oyl" x1="27.43" y1="29.42" x2="20.95" y2="43.21" gradientUnits="userSpaceOnUse"><stop stop-color="#68BCEA"/><stop offset=".71" stop-color="#4591CA"/><stop offset=".99" stop-color="#2C53A4"/></linearGradient><linearGradient id="gta5s3oyl" x1="28.31" y1="29.51" x2="11.99" y2="34.44" gradientUnits="userSpaceOnUse"><stop stop-color="#68BCEA"/><stop offset=".71" stop-color="#4591CA"/><stop offset=".99" stop-color="#2C53A4"/></linearGradient><linearGradient id="hta5s3oyl" x1="27.07" y1="28.02" x2="12.16" y2="21.71" gradientUnits="userSpaceOnUse"><stop stop-color="#68BCEA"/><stop offset=".71" stop-color="#4591CA"/><stop offset=".99" stop-color="#2C53A4"/></linearGradient></defs></svg>