<?xml version="1.0" encoding="utf-8"?>
<!-- Generator: Adobe Illustrator 28.0.0, SVG Export Plug-In . SVG Version: 6.00 Build 0)  -->
<svg version="1.1" id="Слой_1" xmlns="http://www.w3.org/2000/svg" xmlns:xlink="http://www.w3.org/1999/xlink" x="0px" y="0px"
	 viewBox="0 0 1000 468.9" style="enable-background:new 0 0 1000 468.9;" xml:space="preserve">
<style type="text/css">
	.st0{fill-rule:evenodd;clip-rule:evenodd;fill:#1A7FC3;}
	.st1{filter:url(#Adobe_OpacityMaskFilter);}
	.st2{fill-rule:evenodd;clip-rule:evenodd;fill:#FFFFFF;}
	.st3{mask:url(#mask-4_00000132794076354296537420000008678918549074027144_);fill-rule:evenodd;clip-rule:evenodd;fill:#1A7FC3;}
</style>
<polygon id="Fill-20_00000085237022320856420790000016374724763305728133_" class="st0" points="509.2,284.7 545.7,162.3 
	509.8,162.3 509.8,141.8 579.2,141.8 579.2,162.2 542.7,284.3 581.1,284.3 581.1,305.3 509.2,305.3 "/>
<path id="Fill-22_00000064340441805321856840000009023294580507408553_" class="st0" d="M414.3,305.3h30.6l2.9-43.5h14.8l2.9,43.5
	H496l-16.3-163.5h-49.1L414.3,305.3z M448.9,243.9l5.4-81.8h1.8l5.4,81.8H448.9z"/>
<path id="Fill-24_00000049212803303148923710000003018774516268548226_" class="st0" d="M598.7,305.3H630v-55.6h17.9
	c21.9,0,25.4-17.8,25.4-29.2V171c0-11.5-3.5-29.2-25.4-29.2h-49.1V305.3z M630,231.7v-69.6h8.2c3.4,0,5.8,3,5.8,8.1v53.3
	c0,5.1-2.4,8.1-5.8,8.1H630z"/>
<path id="Fill-26_00000099646415609988120480000016398917329924319658_" class="st0" d="M722.2,162.1h8.2c3.4,0,5.8,3,5.8,8.1v53.3
	c0,5.1-2.4,8.1-5.8,8.1h-8.2V162.1z M771,305.3L755.9,245c7.9-6.1,9.5-16.7,9.5-24.5V171c0-11.5-3.5-29.2-25.4-29.2h-49.1v163.5
	h31.3v-55.6h5.2l10.2,55.6H771z"/>
<polygon id="Fill-28_00000038383103218169695990000012911382960862421432_" class="st0" points="959.3,141.8 1000,141.8 1000,305.3 
	968.7,305.3 968.7,202.7 967.6,202.7 951.5,305.3 926.5,305.3 910.4,202.7 909.3,202.7 909.3,305.3 878,305.3 878,141.8 
	918.7,141.8 939,256.7 "/>
<path id="Fill-30_00000145768208591825020850000000727136404374876831_" class="st0" d="M822,285.1c-3.8,0-6.9-2.9-6.9-6.5
	c0-0.1,0-0.2,0-0.2V168.7c0-0.1,0-0.4,0-0.5l0-0.4c0.4-3.3,3.3-5.8,6.9-5.8c3.6,0,6.5,2.5,6.9,5.8l0,0.4v0.5v109.6
	c0,0.1,0,0.2,0,0.2C828.9,282.2,825.8,285.1,822,285.1 M834.9,141.8H809c-21.9,0-23.2,17.8-23.2,29.2v105.1
	c0,11.5,1.3,29.2,23.2,29.2h25.9c21.9,0,23.2-17.8,23.2-29.2V171C858.1,159.5,856.8,141.8,834.9,141.8"/>
<path id="Fill-32_00000104705481415547985070000013063256643112821378_" class="st0" d="M367.9,193.7h29.3V171
	c0-11.5-1.3-29.2-23.2-29.2H348c-21.9,0-23.2,17.8-23.2,29.2v105.1c0,11.5,1.3,29.2,23.2,29.2h25.9c21.9,0,23.2-17.8,23.2-29.2
	v-51.4h-37.4v18.4h8.2v35.2c0,0.1,0,0.2,0,0.2c0,3.6-3.1,6.5-6.9,6.5c-3.8,0-6.9-2.9-6.9-6.5c0-0.1,0-0.2,0-0.2V168.7
	c0-0.1,0-0.4,0-0.5l0-0.4c0.4-3.3,3.3-5.8,6.9-5.8c3.6,0,6.5,2.5,6.9,5.8l0,0.4v0.5V193.7z"/>
<path id="Fill-34_00000084510142860100422680000007093540689866289594_" class="st0" d="M971.6,390.9h-12.5v57.7h-15.7v-57.7H930
	v-13.5h41.7V390.9z M780.9,390.9h-22.6v14h20.2v13.5h-20.2v30.2h-17.1v-71.1h39.7V390.9z M590.6,390.9H568v14h20.2v13.5H568v16.7
	h22.6v13.5h-39.7v-71.1h39.7V390.9z M397.9,448.6h-16.5l-14.7-43.3h-0.1c0.8,7.5,2.9,18.8,2.9,26.5v16.8h-16.3v-71.1h16.5l14.5,44.7
	h0.1c-0.5-7.9-2.7-19.1-2.7-26.9v-17.7h16.3V448.6z M324.8,468.8H1000v-109H324.8V468.8z"/>
<g id="Group-38_00000072241172909128544820000008799262071673729436_" transform="translate(19.096582, 0.000000)">
	<g id="Clip-37_00000157300916934245987490000006124930091873952160_">
	</g>
	<defs>
		<filter id="Adobe_OpacityMaskFilter" filterUnits="userSpaceOnUse" x="158.3" y="0" width="91.8" height="296.1">
			<feColorMatrix  type="matrix" values="1 0 0 0 0  0 1 0 0 0  0 0 1 0 0  0 0 0 1 0"/>
		</filter>
	</defs>
	
		<mask maskUnits="userSpaceOnUse" x="158.3" y="0" width="91.8" height="296.1" id="mask-4_00000132794076354296537420000008678918549074027144_">
		<g class="st1">
			<polygon id="path-3_00000013889550627529483050000017773788880116209852_" class="st2" points="158.3,0 250.2,0 250.2,296.1 
				158.3,296.1 			"/>
		</g>
	</mask>
	<path id="Fill-36_00000134935138406390122190000015790144800161732994_" class="st3" d="M239.1,158.4c-0.4,16.6-2.3,34.1-4.8,44.5
		c0.9-18-1.3-43.5-5.4-63.3c-4.1-19.9-15.8-53-25.1-68.4c-8.6,14.6-19.2,43.3-24.7,68.2c-5.6,24.9-5.7,55-5.7,64.1
		c-1.5-7.6-5.2-34.8-4.1-62.1c0.9-22.5,6.1-45.6,9-56.3c10.9-35.5,23.3-58.2,25.6-61.8c2.3,3.6,17.9,31.6,26,61
		C237.9,113.7,239.5,141.8,239.1,158.4 M204,285.3c-4.8-9.2-12.4-26.7-13.1-53.7c-0.2-26.1,10.2-48.6,13.2-53.2
		c2.7,4.7,11.7,24.2,12.7,50.9C217.6,255.4,209,275.9,204,285.3 M242,84.6C232.2,41.1,207.4,5.8,204,0c-5.4,8.1-25.1,39.3-35.1,74
		c-10.9,38.6-12.5,72.9-8.8,106.6c3.7,33.7,17.9,68.3,17.9,68.3c7.5,18.2,18.8,37.7,26.1,47.2c10.8-14.1,35.5-56,43.2-110.9
		C251.7,154.8,251.8,128.1,242,84.6"/>
</g>
<path id="Fill-39_00000051380248934194189350000001441465150025227434_" class="st0" d="M162.7,305.3v51.4c0.1-0.1,0.1-0.2,0.2-0.2
	c17.8-17.9,46.8-17.9,64.7,0c17.8,17.9,17.8,47,0,64.9c-0.1,0.1-0.2,0.1-0.2,0.2c0,0,0,0,0,0c-0.1,0.1-0.2,0.2-0.3,0.3
	c-17.8,17.7-41.1,26.6-64.4,26.6c-23.4,0-46.7-9-64.6-26.8c-31.4-31.5-35.1-80.3-11.2-115.9c3.2-4.8,6.9-9.4,11.2-13.6
	c17.9-17.9,41.2-26.8,64.6-26.8V142.6C72.8,142.6,0,215.7,0,305.7c0,90.1,72.8,163.1,162.7,163.1c46.8,0,89-19.9,118.7-51.6V305.3
	H162.7z"/>
</svg>
