<!-- by TradingView --><svg width="56" height="56" viewBox="0 0 56 56" xmlns="http://www.w3.org/2000/svg"><path fill="#F0F3FA" d="M0 0h56v56H0z"/><path d="M5 31h6.57c1.57 4.7 6.45 8.56 12.65 9.66l1.1-2.89c-4.58-.74-8.3-3.47-9.77-6.77h13.71l1.02-2H14.9a12.46 12.46 0 0 1 0-2h15.87l1.01-2H15.52c1.76-3.99 6.75-7 12.64-7 1.64 0 3.21.23 4.67.64l1.12-2.88a22.47 22.47 0 0 0-5.83-.76c-8.1 0-14.82 4.29-16.62 10H7.52l-1.01 2h4.55a18.66 18.66 0 0 0 .01 2H6.01L5 31Z" fill="#FA7327"/><path d="M49 27h-3.8c-.63-5.2-5.29-9.75-11.59-11.33l-1.15 2.87c4.68 1.2 8.16 4.65 8.8 8.46H27.5l-1.01 2h14.8c-.81 4.93-6.34 9-13.12 9-1.15 0-2.26-.1-3.32-.31l-1.15 2.87c1.41.29 2.9.44 4.43.44 8.89 0 16.2-5.4 17.07-12H48L49 27Z" fill="#1D40A2"/></svg>