<!-- by TradingView --><svg width="56" height="56" viewBox="0 0 56 56" xmlns="http://www.w3.org/2000/svg"><path fill="#F0F3FA" d="M0 0h56v56H0z"/><path d="m10.44 25.55 13.03-14.73c1.84-2.08 5.39-1.96 7.9.25L36 15.24l6.3 5.52 2.09 1.84c2.5 2.21 3 5.77 1.16 7.85l-6.85 7.73-6.18 7c-1.84 2.08-5.39 1.96-7.9-.25l-5.26-4.66-7.77-6.93c-2.5-2.21-3-5.7-1.16-7.8Z" fill="#005A99"/><path d="M16.12 33.74a5.78 5.78 0 0 1-4.9-2.89c.75.43 2.53 1.12 3.6.46a6.77 6.77 0 0 1 3.1-.86c.13-.23-.03-.8-1.8-1.22-2.21-.52-2.52-1.78-2.64-1.76a14.8 14.8 0 0 1 4.2 0c-2.98-4.12-1.78-7.53-.8-8.72-.24 1.7 1.15 3.05 1.87 3.52-.36-.3-.78-1.38.36-3.22 1.15-1.84.78-3.8.45-4.56 2.05.8 2.09 4.07 1.85 5.6l.98-1.04c-.29-.72-.36-2.63 1.67-4.56 2.03-1.94 2.5-2.9 2.48-3.13.24.21.55 1.08-.21 2.8-.77 1.72-.18 2.74.2 3.04a5.01 5.01 0 0 1 5.17-2.71c-1.77 1.52-1.22 2.92-.72 3.43.29-.69 1.28-2.07 2.92-2.12 1.65-.05 2.3-.7 2.42-1.01 0 .42-.32 1.5-1.58 2.41-1.27.9-1.09 1.41-.84 1.55 1.22-1.02 2.44-.72 2.9-.45-.89.41-1.19.97-1.23 1.2 2.44-.24 4.4-.1 5.32 0l1.5 1.34c-2.08-.18-1.8.45-2.91.98a8.2 8.2 0 0 1-2.09.69 4.72 4.72 0 0 1 2.45 1.64c-1.36 0-1.86.54-1.94.8 5.06 3.03 6.22 5.2 6.17 5.9-.83-1.05-2.86-1.18-4-1.1-1.13.1-2.08-.65-1.9-.3.14.3.57 1.36.77 1.86a2.45 2.45 0 0 0-1.55-.46c.25.47.75 1.86.78 3.65.02 1.79.23 3.02.57 3.56-.7-.24-1.71-.74-2.1-2.1-.38-1.36-1.25-1.78-1.63-1.82a5.54 5.54 0 0 1-.48 2.87c-.24-.73-.68-1-.87-1.05a5.82 5.82 0 0 1-1.06 3.82 7.47 7.47 0 0 0-.46 4.15C30.46 43.18 29.5 41.67 30 40c.4-1.34.36-2.37.3-2.72l-2.52 2.51c-.2-.9.53-2.39.92-3.02l-1.8.25c-2.62 3.96-5.9 3.84-7.54 3.35 1.18-.37 3.7-2.93 5.14-4.23H22.8c-1.82 1.31-4.17.72-5.12.26 1.33-.44 3.93-1.42 3.73-1.9-.25-.58-1.8-.66-5.28-.75Z" fill="#fff" fill-opacity=".65"/><circle cx="28.05" cy="26.9" r="8.62" fill="#005A99"/><path d="M22.25 31.99a7.72 7.72 0 0 1-.12-9.94l3.42 3.74-3.3 6.2Zm.43.37 3.3-6.14.55.61-3.85 5.53Zm.43.42 3.85-5.52.67.74-4.52 4.78Zm9.36.43a7.61 7.61 0 0 1-8.88-.12L28 28.37l4.47 4.84Zm-6.61-7.97-3.37-3.62a7.5 7.5 0 0 1 1.9-1.47l2.33 3.5-.86 1.59Zm.98 1.1-.61-.67.8-1.53.6.98-.8 1.22Zm1.1 1.23-.74-.8.8-1.16.73 1.1-.8.86Zm4.95 5.34L28.37 28l.73-.8 3.8 5.7Zm-5.87-9.82-2.14-3.19a8.53 8.53 0 0 1 1.77-.55l1.17 2.27-.8 1.47Zm1.04 1.54-.67-1.05.73-1.35.68 1.35-.74 1.05Zm1.1 1.65-.8-1.16.68-.98.73 1.47-.6.67Zm4.1 6.2-3.8-5.7.62-.62 3.18 6.32Zm.61-10.5a7.68 7.68 0 0 1-.12 10.13l-3.3-6.44 3.42-3.68Zm-2.08-1.77c.68.37 1.29.86 1.78 1.35l-3.37 3.56-.8-1.54 2.4-3.37Zm-2.2-.8c.55.12 1.16.3 1.65.55L29.1 23.1l-.73-1.4 1.22-2.28Zm-1.53-.18c.3 0 .61 0 .98.06L28.12 21l-.92-1.78c.31.06.55 0 .86 0Z" fill="#F0F3FA"/></svg>