<!-- by TradingView --><svg width="56" height="56" viewBox="0 0 56 56" xmlns="http://www.w3.org/2000/svg"><path fill="#F0F3FA" d="M0 0h56v56H0z"/><path d="M23 21h-4.5l9.5 9.5 9.5-9.5H33l-5-5-5 5Z" fill="#4B7ABD"/><path d="M28.5 33.99a11 11 0 1 0-2-.1v1.02a12 12 0 1 1 2 .08V35h-1v-5h1v3.99ZM13.2 38a.2.2 0 0 0-.2.2v3.6c0 .11.09.2.2.2h3.6a.2.2 0 0 0 .2-.2v-2.6c0-.11.09-.2.2-.2h1.6c.11 0 .2.09.2.2v2.6c0 .11.09.2.2.2h3.49c.06 0 .13-.04.15-.1a.17.17 0 0 1 .32 0c.02.06.09.1.15.1h5.17a.2.2 0 0 0 .18-.29l-.3-.6a.2.2 0 0 0-.18-.11h-.86a.2.2 0 0 1-.18-.29l.68-1.35a.2.2 0 0 1 .36 0l1.26 2.53c.04.07.1.11.18.11H42.8a.2.2 0 0 0 .2-.2v-1.22a.2.2 0 0 0-.06-.14l-.3-.3a.2.2 0 0 1 0-.28l.3-.3a.2.2 0 0 0 .06-.14V38.2a.2.2 0 0 0-.2-.2h-9.6a.2.2 0 0 0-.2.2v.6c0 .11.09.2.2.2h5.6c.11 0 .2.09.2.2v.6a.2.2 0 0 1-.2.2h-4a.2.2 0 0 0-.16.09l-.58.82a.2.2 0 0 1-.16.09h-.78a.2.2 0 0 1-.18-.1l-1.48-2.8a.2.2 0 0 0-.18-.1h-6.46a.2.2 0 0 0-.18.1l-1.27 2.24c-.1.18-.37.1-.37-.1V38.2a.2.2 0 0 0-.2-.2h-9.6Z" fill="#4B7ABD"/></svg>