<!-- by TradingView --><svg xmlns="http://www.w3.org/2000/svg" width="56" height="56" viewBox="0 0 56 56"><path fill="#0967D2" d="M0 0h56v56H0z"/><path d="M23.37 10.32c-.17.17-.34.3-.38.29-.06-.03-.3.4-.3.56 0 .07-.16.34-.27.46a.3.3 0 0 0-.08.18c0 .1-.25.45-.57.77-.53.54-1.65 1.3-1.85 1.25-.15-.04-.2.12-.13.38.06.22.01.77-.06.77-.03 0-.05.05-.05.1 0 .07-.06.17-.12.23-.07.06-.18.2-.25.32-.16.25-.69.82-.9.97-.08.05-.15.12-.15.17 0 .03.1.15.24.27.22.2.24.24.26.56.03.4-.05.6-.34.9-.1.1-.2.28-.23.42-.03.14-.1 1.25-.16 2.48-.1 2.25-.12 2.39-.37 3.01a1 1 0 0 0-.08.31c0 .07-.04.2-.08.3-.4.97-.5 1.8-.5 4.03 0 2.05.17 3.15.59 3.8.07.1.15.19.18.19.02 0 .27.25.56.55.3.3.7.68.9.85.2.17.43.4.5.53.14.27.38 1.05.43 1.42.03.24.07.32.3.53a6.18 6.18 0 0 0 .8.63c.07.07.58.41.62.41.15 0 .7.7 1 1.27l.24.44.24.4c.14.24.22.3 1.52.96 1.27.64 1.66.9 1.66 1.08 0 .13.6.7.86.83.35.17.84.17 1.17 0 .25-.12.78-.73.84-.97.06-.27-.18-1.02-.35-1.02a.15.15 0 0 1-.12-.08c-.09-.15-.49-.38-.74-.42-.13-.02-.26-.06-.28-.09-.02-.03-.08-.05-.15-.05-.1 0-.1.02-.07.13.02.08.05.23.05.34 0 .15-.02.2-.1.22-.24.05-.38-.05-.63-.5-.14-.25-.26-.49-.26-.54 0-.1-.22-.58-.28-.62-.03-.02-.06-.08-.06-.14a.29.29 0 0 0-.08-.18c-.05-.04-.09-.11-.09-.15 0-.16-.43-.51-.93-.76-.46-.23-.53-.28-.72-.58-.19-.3-.2-.36-.17-.55.04-.2.05-.22.27-.2.12 0 .3.05.4.1.09.05.2.09.24.09.04 0 .2.06.36.14.33.15.46.19 1 .27.21.04.44.1.53.15.08.04.18.08.21.08.12 0 .51.37.75.7a5.78 5.78 0 0 0 .39.53c0 .03.17.16.4.3.28.19.47.37.68.65.15.22.28.4.28.43 0 .1.52.78.7.92.42.3.48.38.69.83l.2.48c0 .03.2.5.36.85.07.14.09.15.63.15.5-.01.6-.03.86-.17.17-.09.33-.16.35-.16.03 0 .1.1.17.2.2.37.84.54 1.4.38.18-.05.23-.04.31.05.1.11.31.86.27.94-.02.02 0 .1.02.18.04.13.06.13 1 .13h.96l.3-.32c.17-.17.38-.35.47-.39.1-.05.16-.11.16-.2 0-.14-.32-.67-.4-.67-.03 0-.06-.04-.06-.08 0-.03-.08-.18-.17-.3a6.58 6.58 0 0 1-.75-1.3c-.1-.06-.21-.4-.21-.59 0-.07-.04-.15-.08-.18-.1-.06-.45-.54-.57-.77-.05-.1-.2-.35-.35-.56-.25-.37-.27-.43-.31-.93-.03-.3-.09-.63-.13-.75a4.6 4.6 0 0 1-.26-.92.47.47 0 0 0-.09-.22.47.47 0 0 1-.08-.25.2.2 0 0 0-.14-.18c-.16-.07-.42-.44-.63-.88-.24-.5-.25-.53-.32-1a10.23 10.23 0 0 0-.61-2.74.5.5 0 0 0-.09-.23.48.48 0 0 1-.08-.25c0-.11-.2-.57-.3-.65a2.62 2.62 0 0 1-.27-.6c0-.05-.03-.11-.06-.15a2.9 2.9 0 0 1-.09-.85 25.87 25.87 0 0 0-.39-3.74c-.07-.4-.15-.66-.29-.92-.11-.23-.2-.46-.2-.58 0-.19.03-.22.27-.33.2-.09.33-.1.53-.09.95.12 1.33.17 1.7.26.34.08.68.1 1.65.1 1.1 0 1.24-.01 1.53-.12.36-.15.4-.2.2-.3-.38-.18.03-.57.73-.73l.68-.17.43-.1c.54-.15.95-.4.89-.56-.02-.06-.1-.1-.21-.1-.12 0-.17-.02-.17-.1 0-.14.17-.3.32-.3.05-.01.17-.04.25-.1a.78.78 0 0 1 .3-.08c.08 0 .16-.02.17-.05.02-.03.12-.07.22-.09a1 1 0 0 0 .58-.46c.14-.23.06-.3-.23-.22-.17.05-.8.05-2.66-.02a44.57 44.57 0 0 0-5.13.01c-.78.08-1.88.3-2.22.46-.5.22-1.5.74-1.76.91-.3.2-.42.2-1.35.02a4.5 4.5 0 0 0-1.3-.06c-1.14.06-1.14.06-1.26-.08-.06-.08-.09-.17-.06-.2.02-.04.04-.93.04-1.98 0-2.37-.04-2.25.7-2.3a3.29 3.29 0 0 0 1.37-.34c.06 0 .2-.1.33-.25.23-.24.26-.26.73-.32a4.02 4.02 0 0 1 1.58-.04c.13.1.5.1.7 0a1 1 0 0 0 .45-.55c.13-.4.13-.4-.5-.37-.8.04-1.1-.08-.97-.42.11-.3.18-.32 1.33-.44.5-.06.58-.09.73-.23.22-.21.22-.52 0-.6l-.32-.15c-.12-.07-.22-.09-.4-.06-.71.14-1.1.02-1.02-.34.06-.32.14-.36.47-.25.42.14.52.13.52-.07 0-.18-.12-.32-.27-.34l-.47-.07c-.23-.05-.9-.05-1.83-.03a7.38 7.38 0 0 1-2.06-.09c-.35-.06-.84-.15-1.13-.18-.7-.1-.88-.23-.68-.55.04-.07.1-.19.12-.26.02-.1.01-.13-.07-.1a.74.74 0 0 0-.19.11c-.09.08-.87.27-1.1.27a.46.46 0 0 1-.23-.08c-.08-.06-.09-.12-.03-.58.06-.47.04-.69-.05-.69-.02 0-.18.14-.34.32zm3.66 2.21l.18.14s.04.1.06.23c.04.17.03.22-.07.32-.19.17-.5.21-.8.1-.42-.17-.5-.37-.24-.68.24-.27.6-.31.87-.1zm-1.89 4.62c.1.1.1.15.04.95l-.12 1.6c-.04.42-.05 1.47-.04 2.33.02 1.5.02 1.57-.08 1.6-.19.07-.31-.12-.35-.52-.03-.37-.1-.71-.25-1.26a10.6 10.6 0 0 1-.08-2.14c0-2.7.03-2.84.53-2.72.13.03.29.11.35.16zM27 22.28c.3.05.56.11.59.14.03.04.1.07.15.07.06 0 .3.09.53.2.39.18.44.19.52.11a.52.52 0 0 0 .08-.29c0-.3.07-.29 1.02.17a4.12 4.12 0 0 1 1.7 1.7l.15.4c.11.28.2.88.2 1.37a8.87 8.87 0 0 1-.54 2.72c-.02.25-.21.45-.57.58a1.4 1.4 0 0 1-.52.13c-.22 0-.24.41-.01.41.18 0 .49.16.65.34.46.5.65 1.06.43 1.28-.14.15-.43.26-.67.26-.19 0-.25-.04-.53-.36-.47-.54-.63-.6-1.13-.43-.2.07-.3.08-.43.03-.14-.06-.16-.09-.13-.29.04-.25.38-.6.59-.6.06 0 .16-.06.22-.15.09-.14.09-.17 0-.35-.05-.1-.09-.23-.09-.26s-.12-.24-.28-.48a2.95 2.95 0 0 1-.28-.48.69.69 0 0 0-.16-.24 16.62 16.62 0 0 0-1.45-1.81l-.7-.86a1.51 1.51 0 0 1-.09-.44l-.1-.76a12.9 12.9 0 0 1-.14-1.98c.08-.25.17-.26.99-.13zm.07 5.94c.04.04.1.07.16.07.22 0 .85.95.85 1.3 0 .2-.1.52-.18.52-.03 0-.05.05-.05.12 0 .17-.26.5-.5.65-.2.1-.23.16-.3.48-.07.4-.15.53-.46.69-.38.2-.9.1-.9-.16 0-.27.17-.58.42-.8.15-.13.27-.27.27-.31 0-.05.03-.14.07-.2.05-.08.04-.14-.07-.32-.07-.12-.16-.2-.19-.2a1.9 1.9 0 0 1-.5-.32c-.36-.27-.45-.38-.5-.56-.1-.39-.08-.68.1-.89l.15-.19.78.03c.5.01.81.05.85.1zm-5.67 1.82a7.6 7.6 0 0 1 1.46 1.38c.12.22.38.37.74.4.34.04.89.2.94.29.02.03.14.05.27.05.32 0 .45.14.42.45-.01.2-.04.24-.35.42-.42.25-.7.29-1.33.17a13 13 0 0 0-1.1-.15 2.31 2.31 0 0 1-1.1-.3c-1.03-.5-1.22-.78-1.3-1.92-.03-.41-.03-.43.12-.58.17-.15.7-.5.78-.5.02 0 .23.14.45.3zm11.1 3.28c.44.3.61.6.91 1.6l.2.55.35.7.5.96c.15.24.25.45.25.47 0 .02.12.22.25.43.2.32.25.45.28.75.03.33.02.37-.1.45-.29.2-.79.09-.97-.2-.09-.13-.1-.28-.1-.85.01-.67 0-.69-.14-.84a2.1 2.1 0 0 1-.2-.26 4.08 4.08 0 0 0-1.39-1.57c-.45-.24-.98-1.33-.9-1.86a.99.99 0 0 1 .13-.36c.09-.14.1-.14.43-.1.2.01.41.08.5.13zm-2.44.96c.33.64.67 1.07 1.02 1.3.4.24.7.5.9.78.22.3.64 1.3.78 1.87.14.54.48 1.24.82 1.65.09.1.2.31.26.47l.18.43c.09.18.1.42 0 .51-.13.15-.35.07-1-.34-.86-.53-.86-.53-.92-.82-.06-.26-.35-.6-1.03-1.2-.34-.29-.55-.62-.55-.84 0-.06-.04-.13-.08-.14-.04-.02-.1-.1-.12-.2a.44.44 0 0 0-.08-.2 1.72 1.72 0 0 1-.2-.36c-.16-.35-.49-.68-1.05-1.06a3.05 3.05 0 0 1-.48-.38c-.14-.16-.15-.2-.12-.44.02-.13.1-.35.15-.47.15-.3.55-.74.67-.74.05 0 .14-.05.2-.1a.53.53 0 0 1 .29-.08c.16 0 .2.03.36.36zm-7.4.57c.27.24.66.97.83 1.58.04.11.12.32.2.46l.14.31c0 .16.45.72.73.94.5.37.52.75.05.88-.36.1-.57.06-.67-.15a6.7 6.7 0 0 0-.24-.42 1.9 1.9 0 0 1-.16-.28 4.75 4.75 0 0 0-1.04-1.37c-.13-.1-.37-.3-.53-.47-.3-.29-.3-.3-.3-.65 0-.68.27-1.03.74-.95.08.02.2.07.25.12zm12.97 5.94c.22.18.98 1.66 1.04 2 .03.2.01.25-.16.42-.15.16-.24.2-.4.2-.25 0-.31-.1-.31-.47 0-.14-.03-.53-.07-.85l-.07-.59h-.23c-.3 0-.48-.2-.36-.4.05-.06.1-.17.15-.25.07-.14.27-.17.41-.06z" fill="#fff"/></svg>