<!-- by TradingView --><svg width="56" height="56" viewBox="0 0 56 56" xmlns="http://www.w3.org/2000/svg"><path fill="#F0F3FA" d="M0 0h56v56H0z"/><path d="M12.43 27h-.86a.57.57 0 0 0-.57.57v.86c0 .32.25.57.57.57h.86c.32 0 .57-.25.57-.57v-.86a.57.57 0 0 0-.57-.57ZM18.15 21.46h-1.3a.84.84 0 0 0-.85.83v1.28c0 .46.38.83.85.83h1.3c.47 0 .85-.37.85-.83V22.3a.84.84 0 0 0-.85-.83ZM18.15 31.65h-1.3a.84.84 0 0 0-.85.83v1.28c0 .46.38.83.85.83h1.3c.47 0 .85-.37.85-.83v-1.28a.84.84 0 0 0-.85-.83ZM22.86 36h-1.72c-.63 0-1.14.51-1.14 1.14v1.72c0 .63.5 1.14 1.14 1.14h1.72c.63 0 1.14-.51 1.14-1.14v-1.72c0-.63-.5-1.14-1.14-1.14ZM22.86 26h-1.72c-.63 0-1.14.5-1.14 1.14v1.72c0 .63.5 1.14 1.14 1.14h1.72c.63 0 1.14-.5 1.14-1.14v-1.72c0-.63-.5-1.14-1.14-1.14ZM22.86 16h-1.72c-.63 0-1.14.5-1.14 1.14v1.72c0 .63.5 1.14 1.14 1.14h1.72c.63 0 1.14-.5 1.14-1.14v-1.72c0-.63-.51-1.14-1.14-1.14Z" fill="#007BC1"/><path fill-rule="evenodd" d="M26.13 11h1.74c.62 0 1.13.5 1.13 1.13v1.4c.08.49.65 1.35 1 1.67.35.32 1.02.79 1.5.8h2.15c.75 0 1.35.54 1.35 1.2V19.2c.03.4.06.88.39 1.22.38.4.85.58 1.3.59h1.89c.78 0 1.42.55 1.42 1.22v1.81a1.98 1.98 0 0 0 1.06.97h2.42c.84 0 1.52.76 1.52 1.7v2.6c0 .94-.68 1.7-1.52 1.7h-1.74c-.78 0-1.74.64-1.74 1.65v1.04c0 .71-.64 1.31-1.42 1.31h-1.74c-.5 0-1.05.22-1.42.57-.3.29-.39.74-.42 1.17v2c0 .7-.64 1.26-1.42 1.26h-2.16a2.5 2.5 0 0 0-1.3.63A5.47 5.47 0 0 0 29 42.42v1.45c0 .62-.5 1.13-1.13 1.13h-1.74c-.62 0-1.13-.5-1.13-1.13v-1.74c0-.62.5-1.13 1.13-1.13h1.85c.52 0 1.02-.5 1.4-.89l.03-.03c.35-.35.56-.82.59-1.31v-2.02c-.02-.51-.23-1-.59-1.36-.38-.38-.9-.39-1.43-.39h-1.84c-.63 0-1.14-.5-1.14-1.13v-1.74c0-.62.5-1.13 1.13-1.13H27.98c1.3 0 2.02-1.4 2.02-2.35v-1.68c0-.54-.2-1.06-.59-1.45-.38-.38-.9-.52-1.43-.52H26.13c-.62 0-1.13-.5-1.13-1.13v-1.74c0-.62.5-1.13 1.13-1.13H27.94c.54 0 1.05-.39 1.43-.77.38-.39.63-.9.63-1.45V17.1a2.1 2.1 0 0 0-.63-1.45c-.38-.38-.9-.64-1.43-.64h-1.8c-.63 0-1.14-.5-1.14-1.13v-1.74c0-.62.5-1.13 1.13-1.13Zm5.6 9h1.53c.96 0 1.74.83 1.74 1.85v1.3c0 1.02-.78 1.85-1.74 1.85h-1.52c-.96 0-1.74-.83-1.74-1.85v-1.3c0-1.02.78-1.85 1.74-1.85Zm1.53 11h-1.52c-.96 0-1.74.83-1.74 1.85v1.3c0 1.02.78 1.85 1.74 1.85h1.52c.96 0 1.74-.83 1.74-1.85v-1.3c0-1.02-.78-1.85-1.74-1.85Zm3.56-5.5h1.36c1 0 1.82.78 1.82 1.75v1.5c0 .97-.82 1.75-1.82 1.75h-1.36c-1 0-1.82-.78-1.82-1.75v-1.5c0-.97.82-1.75 1.82-1.75Z" fill="#007BC1"/></svg>