<!-- by TradingView --><svg width="56" height="56" viewBox="0 0 56 56" xmlns="http://www.w3.org/2000/svg"><path fill="#F0F3FA" d="M0 0h56v56H0z"/><path d="M10 18s-2 4.48-2 10 2 10 2 10V18Z" fill="#009572"/><path d="M10 18s2 4.48 2 10-2 10-2 10V18Z" fill="#016E53"/><path d="M15.05 18s-.5 5.24 1.68 10.76c2.18 5.52 6.22 9.24 6.22 9.24l-7.9-20Z" fill="#009572"/><path d="M15.05 18s4.03 3.72 6.21 9.24C23.44 32.76 22.95 38 22.95 38l-7.9-20ZM30.95 18s.5 5.24-1.69 10.76A27.85 27.85 0 0 1 23.04 38l7.9-20Z" fill="#016E53"/><path d="M30.95 18s-4.04 3.72-6.22 9.24C22.55 32.76 23.04 38 23.04 38l7.9-20ZM32.05 38s-.5-5.24 1.68-10.76c2.19-5.52 6.22-9.24 6.22-9.24l-7.9 20Z" fill="#009572"/><path d="M32.05 38s4.03-3.72 6.22-9.24C40.45 23.24 39.95 18 39.95 18l-7.9 20ZM47.95 38s.5-5.24-1.68-10.76A27.85 27.85 0 0 0 40.05 18l7.9 20Z" fill="#016E53"/><path d="M47.95 38s-4.03-3.72-6.22-9.24C39.55 23.24 40.05 18 40.05 18l7.9 20Z" fill="#009572"/></svg>