<!-- by TradingView --><svg xmlns="http://www.w3.org/2000/svg" width="56" height="56"><path fill="#F0F3FA" d="M0 0h56v56H0z"/><path d="M31.38 32.63A3.33 3.33 0 0128 35.9a3.34 3.34 0 01-3.38-3.28 3.34 3.34 0 013.38-3.3 3.34 3.34 0 013.38 3.3zm6.91-3.24a3.34 3.34 0 01-3.38 3.29 3.34 3.34 0 01-3.38-3.29 3.33 3.33 0 013.38-3.29 3.33 3.33 0 013.38 3.29zm-3.07-13.1a3.34 3.34 0 01-3.38 3.28 3.34 3.34 0 01-3.39-3.28A3.34 3.34 0 0131.84 13a3.33 3.33 0 013.38 3.29zm-7.67 0a3.34 3.34 0 01-3.39 3.28 3.34 3.34 0 01-3.38-3.28A3.33 3.33 0 0124.16 13a3.33 3.33 0 013.38 3.29zm-3.08 13.1a3.34 3.34 0 01-3.38 3.29 3.34 3.34 0 01-3.38-3.29 3.34 3.34 0 013.38-3.29 3.33 3.33 0 013.38 3.29zM40 22.12a3.34 3.34 0 01-3.38 3.29 3.33 3.33 0 01-3.38-3.29 3.34 3.34 0 013.38-3.29A3.33 3.33 0 0140 22.12zm-17.24 0a3.33 3.33 0 01-3.38 3.29A3.33 3.33 0 0116 22.12a3.33 3.33 0 013.38-3.29 3.33 3.33 0 013.38 3.29z" fill="#004A86"/><path d="M10 33s5.9.06 8.57.54C27.1 35.04 27 43 27 43h-4.63C13.84 43 10 33 10 33zm36 0s-5.9.06-8.57.54C28.91 35.04 29 43 29 43h4.63C42.16 43 46 33 46 33z" fill="#2DAA55"/></svg>