<!-- by TradingView --><svg xmlns="http://www.w3.org/2000/svg" width="56" height="56"><path fill="#0078DC" d="M0 0h56v56H0z"/><path d="M36 24.24V18h-3v5.75c0 2.9 1.42 4.25 4.35 4.25H42V18h-3v8h-1.43c-.97 0-1.57-.49-1.57-1.76zm-12 8.38V39h3v-5.75c0-2.9-1.43-4.25-4.35-4.25H18v10h3v-8h1.43c.97 0 1.57.43 1.57 1.62zM29 22h-3v-4h-3v10h3v-4h3v4h3V18h-3v4zm14 7c-3.43 0-5 2.14-5 5 0 2.93 1.57 5 5 5s5-2.14 5-5-1.57-5-5-5zm0 7.64c-1.42 0-2-1.07-2-2.57s.66-2.57 2-2.57c1.42 0 2 1.07 2 2.57 0 1.43-.58 2.57-2 2.57zM17.18 18c-3.2 0-4.36 1.86-4.74 4H11v-4H8v10h3v-4h1.44c.38 2.29 1.88 4 4.82 4 3.46 0 5.04-2.14 5.04-5-.07-2.86-1.65-5-5.12-5zm0 7.64c-1.43 0-1.87-1.27-1.88-2.57 0-1.3.45-2.57 1.88-2.57S19 21.57 19 23.07c0 1.43-.39 2.5-1.82 2.57zM31.06 38h1.16c3.27 0 5.14-1.07 5.14-4.33 0-3.27-1.87-4.67-5.14-4.67H28v13h3v-4h.06zM31 36v-5h1.07c1.39 0 2.3.93 2.3 2.67 0 1.66-.92 2.33-2.3 2.33H31z" fill="#fff"/></svg>