<?xml version="1.0" encoding="UTF-8" standalone="no"?>
<!-- Created with Inkscape (http://www.inkscape.org/) -->

<svg
   width="296.88791mm"
   height="72.167114mm"
   viewBox="0 0 296.88791 72.167114"
   version="1.1"
   id="svg1589"
   inkscape:version="1.1 (c68e22c387, 2021-05-23)"
   sodipodi:docname="Typeface logo of KAMAZ.svg"
   xmlns:inkscape="http://www.inkscape.org/namespaces/inkscape"
   xmlns:sodipodi="http://sodipodi.sourceforge.net/DTD/sodipodi-0.dtd"
   xmlns="http://www.w3.org/2000/svg"
   xmlns:svg="http://www.w3.org/2000/svg">
  <sodipodi:namedview
     id="namedview1591"
     pagecolor="#ffffff"
     bordercolor="#666666"
     borderopacity="1.0"
     inkscape:pageshadow="2"
     inkscape:pageopacity="0.0"
     inkscape:pagecheckerboard="0"
     inkscape:document-units="mm"
     showgrid="false"
     inkscape:zoom="1"
     inkscape:cx="545.5"
     inkscape:cy="84.5"
     inkscape:window-width="1920"
     inkscape:window-height="1002"
     inkscape:window-x="-8"
     inkscape:window-y="-8"
     inkscape:window-maximized="1"
     inkscape:current-layer="layer1" />
  <defs
     id="defs1586">
    <clipPath
       clipPathUnits="userSpaceOnUse"
       id="clipPath848">
      <path
         d="M 0,0 H 46.7541 V 11.3649 H 0 Z"
         id="path846" />
    </clipPath>
  </defs>
  <g
     inkscape:label="Layer 1"
     inkscape:groupmode="layer"
     id="layer1"
     transform="translate(-52.339677,-126.5766)">
    <g
       id="g840"
       transform="matrix(6.3499999,0,0,-6.3499999,52.339677,198.74371)">
      <g
         id="g842">
        <g
           id="g844"
           clip-path="url(#clipPath848)">
          <g
             id="g850">
            <g
               id="g852"
               transform="translate(34.022,6.4539)">
              <path
                 d="M 0,0 -1.062,-3.236 H 1.07 Z m 12.732,-4.527 v 0.028 H 8.87 l 3.862,9.408 V 4.911 H 4.902 V 2.962 H 8.1 L 4.945,-4.484 1.839,4.911 h -2.588 l -2.932,-8.777 v 8.777 h -4.003 l -2.138,-6.359 -1.932,6.359 h -4.193 v -8.777 l -2.946,8.777 h -2.584 l -3.007,-9.033 -2.307,5.731 3.359,3.302 h -3.248 l -3.875,-3.912 v 3.912 h -3.467 V -6.454 h 3.467 v 4.483 l 0.964,0.935 2.126,-5.418 h 4.583 l 0.419,1.268 h 3.432 l 0.417,-1.268 h 4.801 v 6.186 l 1.99,-6.184 h 2.783 l 1.912,6.184 v -6.186 h 4.996 l 0.418,1.268 h 3.427 l 0.42,-1.268 10.543,0.027 z M -20.749,0 -21.82,-3.236 h 2.145 z"
                 style="fill:#152b5b;fill-opacity:1;fill-rule:evenodd;stroke:none"
                 id="path854" />
            </g>
          </g>
        </g>
      </g>
    </g>
  </g>
</svg>
