<!-- by TradingView --><svg width="56" height="56" viewBox="0 0 56 56" xmlns="http://www.w3.org/2000/svg"><path fill="#F0F3FA" d="M0 0h56v56H0z"/><path d="M11.16 30.56 9 25.16 49 16 11.16 30.56Z" fill="#7566A8"/><path d="M49 16 11.16 30.56l32.4-6.78L49 16Z" fill="#4E428C"/><path d="m38 26.4-26.5 5.42 1.5 3.94 25-9.36Z" fill="#9F6BA8"/><path d="m13 35.76 25-9.36-3.68 5.25L13 35.76Z" fill="#76468E"/><path d="M13.39 37.1 31 33.68l-12.88 5.4L15.24 42l-1.85-4.9Z" fill="#C073AB"/><path d="m31 33.68-12.88 5.4 10.11-1.67L31 33.68ZM15.24 42l2.88-2.91 1.05 2.9-3.93.01Z" fill="#9C458D"/></svg>