<!-- by TradingView --><svg width="56" height="56" xmlns="http://www.w3.org/2000/svg"><path fill="#F0F3FA" d="M0 0h56v56H0z"/><path d="M36.512 12.557c-4.318-2.161-7.605-1.895-8.676-1.557l-.708.642c0 1.953 5.606 4.621 8.372 5.807 2.377-1.26 4.072-3.36 1.012-4.892zM19.413 43.443c4.317 2.161 7.645 1.87 8.715 1.532l.709-.642c0-1.952-5.531-4.596-8.297-5.782-2.301 1.186-4.187 3.36-1.127 4.892zm17.731-3.731c9.333-4.373 12.799-9.33-2.605-14.504-2.569-.863-4.616-2.084-6.45-2.891-6.248-2.62-8.752-4.868-9.182-6.054-1.964.84-6.318 3.133-7.714 5.683-1.396 2.55 1.568 4.95 3.212 5.807l13.456 5.856c6.9 2.926 8.296 4.62 9.283 6.103z" fill="#DD862E"/><path d="M11.117 22.095C15.72 10.9 25.863 10.431 28.696 10.505c.961.544-3.38 2.788-9.789 5.758-6.45 2.99-7.79 5.831-7.79 5.831zm25.647-9.415c2.378 1.22 7.442 5.214 8.676 11.44.547 1.997-2.782 4.18-4.477 5.09-7.36 3.954-18.818 7.784-21.803 10.23-1.98 1.623-1.338 3.004-.43 3.57.07.04.137.077.203.112a2.014 2.014 0 01-.203-.111c-2.481-1.398-7.295-5.437-8.22-11.379-.43-4.25 13.384-8.965 16.39-10.205 5.691-2.347 14.746-5.831 9.864-8.747zm8.101 21.226c-4.603 11.193-14.746 11.662-17.579 11.588-.961-.543 3.38-2.787 9.789-5.757 6.45-2.99 7.79-5.831 7.79-5.831z" fill="#2866A3"/></svg>