<!-- by TradingView --><svg xmlns="http://www.w3.org/2000/svg" width="56" height="56"><path fill="#007AC2" d="M0 0h56v56H0z"/><path d="M35.8 13.5c-.79-3.34-2.79-6.06-3.07-6.5-.43.62-2.03 3.02-2.84 5.68a19.74 19.74 0 00-.7 8.2 18.44 18.44 0 003.56 8.89A19.24 19.24 0 0035.8 13.5zm-3.07 15.43c-.39-.7-1-2.04-1.05-4.13-.02-2 .82-3.73 1.07-4.09.22.36.94 1.86 1.03 3.92a8.5 8.5 0 01-1.05 4.3zm2.85-9.76a17.54 17.54 0 01-.4 3.43c.08-1.39-.1-3.34-.43-4.87a20.54 20.54 0 00-2.03-5.25 20.48 20.48 0 00-2 5.24 23.55 23.55 0 00-.46 4.92c-.12-.58-.42-2.67-.34-4.77.07-1.72.5-3.51.73-4.33a22.74 22.74 0 012.07-4.75c.19.27 1.45 2.43 2.1 4.69.65 2.26.78 4.42.76 5.69z" fill="#fff"/><path d="M34.09 31h-6.07v3.44l.02-.01a3.78 3.78 0 015.17 0 3.39 3.39 0 010 4.94l-.01.02-.03.02a7.48 7.48 0 01-5.15 2.03 7.44 7.44 0 01-5.17-2.05 6.77 6.77 0 010-9.89A7.39 7.39 0 0128 27.46V18.1c-7.2 0-13 5.57-13 12.44C15 37.42 20.83 43 28.02 43c3.75 0 7.6-1.52 9.98-3.94V31h-3.91z" fill="#fff"/></svg>