<!-- by TradingView --><svg width="56" height="56" viewBox="0 0 56 56" xmlns="http://www.w3.org/2000/svg"><path fill="#353E47" d="M0 0h56v56H0z"/><path d="M42.02 24h-4L38 33h4c.9.02 1.8-.18 2.6-.56A4.16 4.16 0 0 0 47 28.5a4.16 4.16 0 0 0-2.37-3.94 5.82 5.82 0 0 0-2.61-.56Zm1.69 7.2c-.55.26-1.16.4-1.77.38l-2.2.03v-6.17h2.22a3.9 3.9 0 0 1 1.78.38c.49.23.9.6 1.17 1.07.28.5.42 1.06.41 1.63.01.57-.13 1.13-.41 1.63-.29.46-.7.83-1.2 1.05Z" fill="#fff"/><path d="M10 20.87c0-2.54 5.01-3.87 9.96-3.87 4.95 0 9.96 1.46 9.96 4h-1.4c-.02-.06-.03-.25-.06-.3a.73.73 0 0 0-.1-.18 1.77 1.77 0 0 0-.61-.54 4.11 4.11 0 0 0-.22-.14c-.28-.16-.58-.3-.88-.4l-1.15 2.55-.13.3-.09.2a1.73 1.73 0 0 1-.15.3c-.19.3-.57.66-1.43.37l-.2-.08h-.05a6.35 6.35 0 0 0-1.8-.45c-.56-.06-1.12-.1-1.69-.1h-.08a9.42 9.42 0 0 0-3.44.54l-.22.1c-.9.31-1.28-.12-1.45-.42l-.12-.26-1.38-3.05c-.59.2-1.14.51-1.6.93l-.05.06a1.92 1.92 0 0 0-.3 1.1 2.32 2.32 0 0 0 .17.9.5.5 0 0 0 .1.17 4.8 4.8 0 0 0 1.89 1.1s.24.1.7.22l.34.1a26.14 26.14 0 0 0 5.45.6h.95c.54-.01 1.08-.05 1.62-.1a16.42 16.42 0 0 0 3.3-.61l.18-.05.14-.05a7.99 7.99 0 0 0 1.24-.5l-.86 1.88c-2.13.63-4.35.93-6.58.9-3.34 0-6.69-.6-8.53-1.78v.87c0 1 3.33 2.45 8.53 2.45 1.96.03 3.91-.22 5.8-.73l-.74 1.65c-1.67.35-3.36.51-5.06.5-3.34 0-6.69-.6-8.53-1.77v.86c0 1 3.33 2.45 8.53 2.45 1.44 0 2.88-.12 4.3-.37l-.7 1.55c-1.2.17-2.4.25-3.6.25-3.34 0-6.69-.61-8.53-1.78v.86c0 1 3.33 2.45 8.52 2.47.95 0 1.9-.05 2.85-.16l-.67 1.5c-.72.06-1.45.09-2.17.09-4.95 0-9.96-1.33-9.96-3.87V20.87Zm5.75 1.24a9.6 9.6 0 0 1 3.63-.74v-2.93c-1.68.01-3.36.23-5 .65l1.37 3.02Zm4.8-.74c1.24.01 2.47.26 3.63.74l1.37-3.02a20.88 20.88 0 0 0-5-.65v2.93ZM29.51 31h4.81l.97 2h1.86l-4.34-9h-1.76l-4.33 9h1.84l.95-2Zm2.4-5.3 1.82 3.7h-3.61l1.8-3.7Z" fill="#01A872"/></svg>