<!-- by TradingView --><svg width="56" height="56" viewBox="0 0 56 56" xmlns="http://www.w3.org/2000/svg"><path fill="#F0F3FA" d="M0 0h56v56H0z"/><path d="m32 23-2.55.03V33l2.55-.03V23Zm3.56 3H33v7h2.56v-7Zm0-3H33v2h2.56v-2Z" fill="#B1B1B1"/><path d="m4 30.87 2.57-.25c.09.32.24.54.42.67.48.33 1.78.46 1.78-.42 0-1.02-4.53-.2-4.53-2.68 0-1.72 1.88-2.19 3.27-2.19 1.57 0 2.74.31 3.37 1.84l-2.45.26c-.13-.49-.55-.73-1.04-.73-.34 0-.83.1-.82.53 0 .57.98.58 1.34.64 1.08.12 3.18.5 3.18 1.98 0 1.86-1.95 2.45-3.48 2.45-1.6 0-3.2-.34-3.61-2.1ZM15.24 33c2.16 0 3.88-1.42 3.88-3.65 0-2.14-1.9-3.35-3.88-3.35-1.96 0-3.85 1.32-3.85 3.41 0 2.18 1.78 3.59 3.85 3.59Zm.07-5.23c.82 0 1.25.82 1.25 1.55 0 .82-.28 1.87-1.28 1.87-.99 0-1.29-1.03-1.29-1.84 0-.8.44-1.58 1.32-1.58Zm7.27-1.94h1.22V28h-1.22v5H20v-5h-1v-2.17h.98v-.32c0-.29.03-.6.1-.95.05-.35.18-.64.33-.83.2-.23.43-.42.7-.54.3-.13.73-.19 1.28-.19.46 0 1.1.06 1.99.16l-.3 1.62c-.31-.07-.56-.07-.77-.07-.24 0-.4.04-.49.13-.09.06-.15.2-.18.35-.03.1-.06.32-.06.64Z" fill="#A50F2D"/><path d="M27.55 27.8v2.47c0 .29.03.5.1.6.09.16.24.23.42.23.19 0 .46-.07.8-.16l.18 1.84a7.3 7.3 0 0 1-1.77.22c-.64 0-1.1-.1-1.4-.25-.31-.16-.53-.45-.68-.8-.15-.35-.2-.92-.2-1.68V28h-1.32v-2.17H25v-1.27l2.55-1.4v4.63Z" fill="#A50F2D"/><path d="M36.42 26H39v1.26c.62-.81 1.27-1.27 2.3-1.27.7 0 1.29.22 1.68.67.4.44.62 1.1.62 2.03V33H41v-3.74c0-.45-.1-.76-.25-.92-.15-.2-.36-.29-.67-.29-.3 0-.55.13-.76.38-.19.26-.32.7-.32 1.34V33h-2.58v-7ZM52 29.78c0-2.44-1.6-3.8-3.97-3.8-2 0-3.79 1.32-3.79 3.42 0 2.29 1.7 3.5 3.85 3.5 1.63 0 2.93-.47 3.76-1.93l-2.54-.26a1.38 1.38 0 0 1-1.16.63c-.4 0-.7-.15-.98-.44-.18-.22-.27-.49-.33-.9h5.13v-.22H52Zm-5.13-.95c.05-.65.63-1.22 1.28-1.22.71 0 1.17.55 1.25 1.22h-2.53Zm-31.05-4.75c2.94.32 4.13.6 6.88 1.36 2.3.64 5.93.35 5.93.35v1.97a16.4 16.4 0 0 1-7.1-.86c-4.6-1.71-6.68-2.06-9.13-2.25-3.36-.25-7.33.29-7.33.29l-.03-.35s5.74-1.05 10.78-.51Z" fill="#B1B1B1"/></svg>