<!-- by TradingView --><svg width="56" height="56" viewBox="0 0 56 56" xmlns="http://www.w3.org/2000/svg"><path fill="url(#ayignde54)" d="M0 0h56v56H0z"/><path d="M28 44c.7 0 1.4-.05 2.08-.13a8.05 8.05 0 0 1-.27-5.75c.5-1.57 1.38-2.86 2.14-3.68l-.04-.02c-1.7-.74-4.07-.47-5.33-.17-4.14.85-6.84-.2-8.13-1.02a10.6 10.6 0 0 0-.33 3.8 9.1 9.1 0 0 0 2.3 5.06A15.93 15.93 0 0 0 28 44Zm15.92-14.4a16 16 0 0 1-13.16 14.16 7.38 7.38 0 0 1-.31-5.44 9.3 9.3 0 0 1 2.18-3.64c1.33.39 2.8.31 4.2-.28a10.64 10.64 0 0 0 7.1-4.8Zm.08-1.7c-1.34 3.59-4.7 5.21-6.57 5.7-.07-1.6-.66-4.54-2.68-6.82-2.67-2.99-3.02-4.14-3.2-5.46a9.26 9.26 0 0 0 9.11-3.1A15.93 15.93 0 0 1 44 27.9ZM28.86 16.78c.85.72 2.18 2.55 2.56 3.83a8.6 8.6 0 0 0 8.81-2.92 15.97 15.97 0 0 0-18.77-4.3c3.94.17 6.49 2.25 7.4 3.39ZM13.2 21.91a16.06 16.06 0 0 1 6.9-7.83c4.32-.3 7.1 1.8 8.11 2.96-1.92 1.14-4.31 3.41-4.98 6.56-.66 3.12-1.96 4.12-2.8 4.65a9.4 9.4 0 0 0-7.23-6.34Zm-.25.63a8.74 8.74 0 0 1 6.9 6.1A5.9 5.9 0 0 0 18 32.31c-.26 1-.79 3-.54 4.81.19 1.28.6 2.71 1.38 4a15.98 15.98 0 0 1-5.89-18.58ZM28 31.5a3.5 3.5 0 1 0 0-7 3.5 3.5 0 0 0 0 7Z" fill="#fff"/><defs><linearGradient id="ayignde54" x1="28" y1="0" x2="28" y2="56" gradientUnits="userSpaceOnUse"><stop stop-color="#1B75B9"/><stop offset="1" stop-color="#81B3D8"/></linearGradient></defs></svg>