<!-- by TradingView --><svg width="56" height="56" viewBox="0 0 56 56" xmlns="http://www.w3.org/2000/svg"><path fill="#F0F3FA" d="M0 0h56v56H0z"/><path d="M46 28a18 18 0 1 1-36 0 18 18 0 0 1 36 0Z" fill="#7EC500"/><path fill-rule="evenodd" d="M28 45a17 17 0 1 0 0-34 17 17 0 0 0 0 34Zm0 1a18 18 0 1 0 0-36 18 18 0 0 0 0 36Z" fill="#013A81"/><path d="M41 28a13 13 0 1 1-26 0 13 13 0 0 1 26 0Z" fill="#F0F3FA"/><path d="M22 19.5c0-.28.22-.5.5-.5h5c.28 0 .5.22.5.5v3a.5.5 0 0 1-.5.5H27v3h.5c.28 0 .5.22.5.5v3a.5.5 0 0 1-.5.5H27v5.5a.5.5 0 0 1-.5.5h-4a.5.5 0 0 1-.5-.5v-16ZM29 26.5c0-.28.22-.5.5-.5h4c.28 0 .5.22.5.5v3a.5.5 0 0 1-.5.5h-4a.5.5 0 0 1-.5-.5v-3ZM29.5 19a.5.5 0 0 0-.5.5v3c0 .28.22.5.5.5h5a.5.5 0 0 0 .5-.5v-3a.5.5 0 0 0-.5-.5h-5Z" fill="#013A81"/></svg>