<!-- by TradingView --><svg xmlns="http://www.w3.org/2000/svg" width="56" height="56" viewBox="0 0 56 56"><path fill="#F0F3FA" d="M0 0h56v56H0z"/><path d="M16.68 34.83c-.66 3.05-1.82 4.17-4.2 4.17C9.82 38.76 9 37.04 9 34.83 9 30.59 15.3 18 31 18c-8.53 2.51-12.7 9.27-14.32 16.83Z" fill="#8F8F8F"/><path d="M25.68 34.83c-.66 3.05-1.82 4.17-4.2 4.17-2.67-.24-3.48-1.96-3.48-4.17C18 30.59 24.3 18 40 18c-8.53 2.51-12.7 9.27-14.32 16.83Z" fill="#48BBFA"/><path d="M34.68 34.83c-.66 3.05-1.82 4.17-4.2 4.17-2.67-.24-3.48-1.96-3.48-4.17C27 30.59 33.3 18 49 18c-8.53 2.51-12.7 9.27-14.32 16.83Z" fill="#040404"/></svg>