<!-- by TradingView --><svg xmlns="http://www.w3.org/2000/svg" width="56" height="56"><path fill="#07F" d="M0 0h56v56H0z"/><path fill-rule="evenodd" d="M14.6 15.54C13 17.48 13 20.37 13 26.16v3.68c0 5.79 0 8.68 1.6 10.62a7 7 0 00.94.94C17.48 43 20.37 43 26.16 43h3.68c5.79 0 8.68 0 10.62-1.6a7 7 0 00.93-.94C43 38.52 43 35.63 43 29.84v-3.68c0-5.79 0-8.68-1.6-10.62a7 7 0 00-.94-.93C38.52 13 35.63 13 29.84 13h-3.68c-5.79 0-8.68 0-10.62 1.6a7 7 0 00-.93.94zm3.54 7.9c.15 2.07.84 4.34 1.77 5.86 1.79 2.92 4.5 4.42 8.4 4.64L29 34v-4.34l.48.05c1.9.25 3.79 1.77 4.6 3.7l.24.59h.58c1.01.02 2.9.05 2.9 0a9.8 9.8 0 00-.77-1.88 9.19 9.19 0 00-4.06-4.01c-.13-.06-.24-.13-.24-.16a12.27 12.27 0 002.66-2.4 9.03 9.03 0 001.59-3.24l.06-.31h-3.15l-.24.6a7.65 7.65 0 01-3.25 3.73c-.44.2-.92.34-1.4.4V22h-3v8.34l-.36-.16a6.15 6.15 0 01-3.05-2.9 12.18 12.18 0 01-1.12-4.43L21.4 22H18l.14 1.45z" fill="#fff"/></svg>