<svg xmlns="http://www.w3.org/2000/svg" version="1.1" x="0" y="0" viewBox="0 0 178 51" width="178" height="51">
  <path fill="#fff" d="M18.7 40.9H18l-3.5-14.6H7.9V44h3.4V29.4h.7L15.5 44h5.8l3.5-14.6h.7V44h3.4V26.3h-6.6l-3.6 14.6zM53.4 44h12.1v-3.1h-8.6v-4.4h7.4v-3h-7.4v-4.1h8.6v-3.1H53.4V44zm-12.2-2.6c-3.9 0-5.7-2.7-5.7-6.3s1.8-6.2 5.7-6.2 5.7 2.7 5.7 6.2-1.8 6.3-5.7 6.3zm0-15.6c-5.9 0-9.3 3.8-9.3 9.3s3.4 9.4 9.3 9.4 9.3-3.9 9.3-9.4-3.4-9.3-9.3-9.3zM67.9 44h3.7l4.1-7 4.5 7h3.7L78 34.7l5.6-8.4h-3.8l-3.9 6.3-3.9-6.3h-3.8l5.4 8.3-5.7 9.4z"/>
  <path fill="#ff0508" d="M0 51V19.1h31.9V0h51v51H0z"/>
  <path fill="#fff" d="M17.3 40.9h-.7l-3.3-14.7h-6V44h3.2V29.4h.7L14.3 44h5.4l3.2-14.7h.7V44h3.2V26.3h-6.1l-3.4 14.6zM49.5 44h11.1v-3.1h-7.9v-4.4h6.8v-3h-6.8v-4.2h7.9v-3.1H49.5V44zm-11.4-2.6c-3.6 0-5.3-2.7-5.3-6.2s1.7-6.2 5.3-6.2 5.3 2.7 5.3 6.2-1.7 6.2-5.3 6.2zm0-15.6c-5.4 0-8.6 3.7-8.6 9.3s3.2 9.4 8.6 9.4 8.6-3.9 8.6-9.4-3.2-9.3-8.6-9.3zM62.8 44h3.4l3.9-7 4.1 7h3.4l-5.5-9.3 5.2-8.5h-3.4l-3.6 6.3-3.7-6.3h-3.4l5 8.4-5.4 9.4z"/>
  <g>
    <path fill="#ff0508" d="M97.8 26.3v7.5h-1.4v-5.9l-1.8 5.9H93l-1.9-6v6h-1.4v-7.5h2.2l1.9 5.9 1.8-5.9h2.2zM102.7 26.2c2.1 0 3.6 1.5 3.6 3.9s-1.5 3.9-3.6 3.9-3.6-1.5-3.6-3.9 1.5-4 3.6-3.9zm0 6.4c1.3 0 2.1-1 2.1-2.6s-.8-2.6-2.1-2.6h-.1c-1.3 0-2.1 1-2.1 2.6s.8 2.6 2.1 2.6h.1zM108.4 31.3c.1.8.6 1.3 1.7 1.3h.1c.8 0 1.2-.4 1.2-.9s-.2-.7-.8-.8l-1.3-.3c-1.3-.3-1.9-1-1.9-2.2 0-1.1 1.1-2.3 2.8-2.3 1.8 0 2.8 1 2.8 2.5h-1.4c0-.8-.6-1.2-1.4-1.2h-.1c-.8 0-1.3.4-1.3.9s.3.7.9.9l1.1.2c1.3.3 2 1 2 2.2 0 1.3-1.1 2.3-2.8 2.3-2 0-2.9-1-3-2.6h1.4zM117.4 26.2c1.9 0 3 1.1 3.1 2.6h-1.4c-.2-.8-.7-1.3-1.6-1.3h-.1c-1.2 0-2.1 1-2.1 2.6s.8 2.6 2.1 2.6h.1c.9 0 1.5-.5 1.6-1.3h1.4c-.1 1.5-1.2 2.6-3.1 2.6-2.2 0-3.6-1.6-3.5-3.9 0-2.4 1.3-4 3.5-3.9zM125 26.2c2.1 0 3.6 1.5 3.6 3.9S127.1 34 125 34s-3.6-1.5-3.6-3.9c-.1-2.4 1.5-4 3.6-3.9zm0 6.4c1.3 0 2.1-1 2.1-2.6s-.8-2.6-2.1-2.6h-.1c-1.3 0-2.1 1-2.1 2.6s.8 2.6 2.1 2.6h.1zM138.7 26.3l-1.8 7.5H135l-1.1-5.5-1.1 5.5H131l-1.8-7.5h1.5l1.3 6 1.2-6h1.7l1.2 6 1.3-6h1.3zM89.7 36.5h5.6v1.3h-4.2v1.7h3.5v1.3h-3.5v1.9h4.3V44h-5.7v-7.5zM100.9 44l-1.7-2.6-1.8 2.6h-1.6l2.6-3.9-2.4-3.6h1.7l1.6 2.4 1.6-2.4h1.6l-2.4 3.6 2.6 3.9h-1.8zM106.2 36.3c1.9 0 3 1.1 3.1 2.6h-1.4c-.2-.8-.7-1.3-1.6-1.3h-.1c-1.2 0-2.1 1-2.1 2.6s.8 2.6 2.1 2.6h.1c.9 0 1.5-.5 1.6-1.3h1.4c-.1 1.5-1.2 2.6-3.1 2.6-2.2 0-3.5-1.6-3.5-3.9s1.3-3.9 3.5-3.9zM110.6 36.5h1.4v3.1h3.2v-3.1h1.4V44h-1.4v-3.1H112V44h-1.4v-7.5zM122.8 42.2h-3.1L119 44h-1.5l2.9-7.5h1.7L125 44h-1.5l-.7-1.8zm-.5-1.3-1.1-2.9-1.1 2.9h2.2zM132.1 36.5V44h-1.8l-2.9-5.6V44H126v-7.5h1.8l2.9 5.5v-5.5h1.4zM137.1 36.3c1.9 0 3.1 1.1 3.2 2.7h-1.4c-.1-.9-.7-1.4-1.7-1.4h-.2c-1.4 0-2.2 1-2.2 2.6s.8 2.6 2.2 2.6h.1c.9 0 1.7-.5 2-1.4v-.1h-2V40h3.2v4h-1.2v-.7c-.5.5-1.2.8-2.1.8-2.1 0-3.6-1.7-3.5-3.9-.1-2.2 1.4-3.9 3.6-3.9zM141.7 36.5h5.6v1.3h-4.2v1.7h3.5v1.3h-3.5v1.9h4.3V44h-5.7v-7.5z"/>
  </g>
</svg>
