<!-- by TradingView --><svg width="56" height="56" xmlns="http://www.w3.org/2000/svg"><path fill="#255398" d="M0 0h56v56H0z"/><path d="M14.885 32.157l-2.358-1.03 9.775-1.202c.17.287.342.544.542.8l-7.959 1.432zm26.23 0l2.36-1.088-9.72-1.172c-.085.314-.34.57-.511.828l7.872 1.432zm-1.42.171l-2.956 1-4.206-1.286-.37-.114a2.17 2.17 0 00.37-.37c.17-.145.313-.344.483-.488l6.679 1.258zm7.815-2.774l-2.7 1.258-10.799-1.258.256-.774 13.242.774zm.966-.373L52 27H32.902c0 .801-.113 1.41-.369 2.01-.739 1.916-2.585 2.83-4.433 2.803-1.819-.059-3.666-1.002-4.49-2.746A4.736 4.736 0 0123.155 27H4l3.496 2.181 14.635-.772c.284 1.058.796 1.973 1.477 2.659 1.166 1.23 2.843 1.916 4.49 1.916 1.62.029 3.27-.571 4.434-1.888.626-.686 1.109-1.573 1.393-2.631l14.55.716zm-15.943 5.836l.37.686-.37.172-.994.456-1.137-2.257a7.655 7.655 0 01-2.302.426 7.248 7.248 0 01-2.5-.34l-.967 2.17c-.313.03-.74 0-1.023-.198a.753.753 0 01-.341-.429l.34-.573.825-1.488c-.256-.17-.483-.284-.71-.513l.682-.83c1.165.716 2.443 1.115 3.694 1.115 1.25.03 2.501-.37 3.666-1.2l.767.228.313.114c-.114.086-.2.172-.313.257-.227.23-.426.459-.795.657l.795 1.547zm0-11.697c.739.887 1.28 1.973 1.564 3.23h-1.222a7 7 0 00-.342-1.085c-.824-2.174-2.5-3.718-4.433-5.004-.255-.145-.483-.316-.739-.461.256.088.484.174.739.26 1.763.712 3.325 1.685 4.433 3.06zm-3.296 8.065a2.97 2.97 0 001.165-.515l-1.933-3.86 2.018-.973-1.705-1.488-.683.316-2.927 1.343.852 1.945 1.393-.63 1.82 3.862zm-5.286.542c-.114-.086-.228-.2-.341-.287a3.642 3.642 0 01-.569-.601l-6.673 1.27 2.84.96 4.743-1.342zm-1.819-2.373a8.087 8.087 0 01-.284-.774l-13.356.774 2.699 1.317 10.941-1.317z" fill="#fff"/></svg>