<!-- by TradingView --><svg width="56" height="56" viewBox="0 0 56 56" xmlns="http://www.w3.org/2000/svg"><path fill="#00804C" d="M0 0h56v56H0z"/><path d="M33.54 11.08c.53.6-2.33 3.81-2.86 4.4a21 21 0 0 1-4.56 4.19c-2.52 1.62-3.29 1.18-6.07 3.03a10.7 10.7 0 0 0-3.28 2.8 8.28 8.28 0 0 0-1.3 6.64c.87 3.28 3.98 4.84 5.48 5.6 2.63 1.35 3.7.8 6.35 2.1 1.99.97 3.35 1.7 4.7 3.44V32.3c-.44-.08-.46-.03-.87.15a3.5 3.5 0 0 0-.61.42c-.47.4-.99.73-1.54 1-.33.1-.67.19-1.01.25-1.48.5-1.87 2.2-2.32 2.1-.44-.11-.32-1.17-.32-1.24.1-2.05.83-4.03 2.1-5.66a16.64 16.64 0 0 1 4.73-4.2 8.6 8.6 0 0 1 2.13-.84h.12c.23 0 .4-.09.51-.12l.34-.1.32-.22c.31-.21.28-.87.27-.99a4.15 4.15 0 0 0-1.6-2.43c-.88-.8-1.11-.71-1.35-1.22a2.44 2.44 0 0 1 .12-2.29 2 2 0 0 1 1.01-.9 1.88 1.88 0 0 1 1.66.15 1.89 1.89 0 0 1 .83 1.46L40 21.3l-4.57-2.2a.69.69 0 0 0 0 .33c.06.23.21.42.42.54.45.3.87.63 1.32.92a3.03 3.03 0 0 1 1 2.16 4.22 4.22 0 0 1-2.52 3.81c-.59.3-.58.13-1.5.49-1.92.74-3.53 2.09-3.33 2.6a.85.85 0 0 0 .84.38c.88-.2 1.72-.54 2.5-1a1.56 1.56 0 0 1 1.2-.33c.2.06.37.18.51.33a1.3 1.3 0 0 1-.08 1.4c-.27.42-.55.38-1.01.86-.22.28-.4.6-.53.93-.1.28-.25 1.59-.25 3.47v9h-1.69a12 12 0 0 0-5.44-4.48c-1.3-.52-2.66-.88-4.05-1.08-.9-.16-1.47-.22-1.78-.26a10.49 10.49 0 0 1-6.92-4.4c-2.54-4.12 0-9.1.28-9.74 1.67-3.3 4.68-5.14 7.15-6.62 2.46-1.49 2.6-1 4.3-2.29 2.15-1.66 3.24-3.51 6.16-4.77 1.22-.5 1.45-.36 1.53-.28Z" fill="#EFF4E0"/></svg>