<!-- by TradingView --><svg xmlns="http://www.w3.org/2000/svg" width="56" height="56"><path fill="#F0F3FA" d="M0 0h56v56H0z"/><path d="M25.1 37.27c-4.6-2.1-7.73-5.86-8.64-9.86a5.9 5.9 0 01.88-4.58c.57-.89 1.27-.95 1.27-.95s-.72-.33-1.68-.47c-1.2-.18-2.76-.05-3.76 1.45A14.36 14.36 0 0012 28.45a14.7 14.7 0 005.9 11.7c1.22.92 2.6 1.63 4.08 2.12.2.07.42.12.61.17a18.11 18.11 0 002.04.43l.56.06.85.06.42.01h.15l.8-.02.81-.07.1-.01.66-.1.37-.07.08-.02c2.44-.5 4.47-1.59 6.03-2.73.91-.7 1.73-1.49 2.44-2.37-3.59 1.7-8.35 1.71-12.8-.34zM17.25 20.4a13.62 13.62 0 019.16-5.12 13.75 13.75 0 0110.1 2.86 14.59 14.59 0 00-9.96-3.9c-5.09 0-9.57 2.6-12.17 6.53.9-.4 1.9-.52 2.87-.37z" fill="#024278"/><path d="M25.81 36.2a14.6 14.6 0 005.8 1.78c.82-.2 1.62-.5 2.31-.9C36.73 35.35 45 23.97 45 23.97s-4.5-.93-6.46.49c-1.95 1.42-3.42 3.67-5.6 6.1-2.15 2.42-3.1 3.96-5.02 4.44-1.43.36-2.77.3-3.98.02.58.4 1.2.79 1.87 1.18z" fill="#024278"/><path d="M39.18 36.7c1.74-1.25 5.79-6.72 5.79-6.72s-3.1-1.6-5.92 0c-2.83 1.63-2.75 2.04-5.54 4.33-2.8 2.28-4.89 2.54-6.43 2.42-.1 0-.17-.02-.26-.03 4.03 1.86 9.29 2.17 12.36 0z" fill="#EE2121"/><path d="M44.95 14.24s-4.44-1.21-8 1.84c-2.55 2.2-8.07 16.92-12.4 17.75-.67.15-1.36.2-2.04.14.72.06 1.57.04 2.54-.15 4.34-.84 10.07-14.42 12.72-16.52 2.66-2.07 5.83-1.54 5.83-1.54l-2.67 4.69 4.02-6.21z" fill="#024278"/></svg>