<!-- by TradingView --><svg width="56" height="56" viewBox="0 0 56 56" xmlns="http://www.w3.org/2000/svg"><path fill="#275197" d="M0 0h56v56H0z"/><path d="M37.9 15.22a11.98 11.98 0 0 0-8.17-4.13c-8.79-.88-16.68 4.84-17.63 13.72a13.9 13.9 0 0 0 3.86 11.61c.23.22.54.13.76 0 .95-.7 1.8-1.4 2.47-2.2.32-.4.63-1-.04-1.76a11.73 11.73 0 0 1-3.05-7.82c0-6.78 5.96-12.28 13.27-12.28 3.23 0 6.24 1.06 8.53 2.86ZM19.55 41.8a11.87 11.87 0 0 0 8.57 3.2c8.8-.08 16.01-6.68 15.88-15.56 0-4.36-1.75-8.4-5.2-11.13-.27-.22-.59-.09-.77.09-.83.73-1.57 1.56-2.2 2.46-.27.4-.45 1.06.27 1.72A11.95 11.95 0 0 1 40.14 30c.76 6.73-4.49 12.84-11.75 13.68-3.23.35-6.33-.35-8.84-1.9Zm4.91-26.35h-.07c2.16-.7 4.58-.44 5.48.05 1.57.75 1.34 2.6.13 3.74l-6.1 5.8c-.5.44-.5 1.1.23 1.19l8.02.79c3.28.35 3.73 3.08 2.02 4.93l-5.6 5.98c-.32.35-1.08 1.27.04 1.8.64.3 1.74.28 2.91.27h.72c-1.03.35-3.45 1.1-5.47.57-2.96-.75-1.97-3.17-.63-4.58l5.39-5.76c1.66-1.76-.68-2.07-.68-2.07l-8.2-.83c-2.7-.27-2.74-2.68-1.35-3.96l5.79-5.37c1.07-1 1.16-1.67.22-2.1a6.97 6.97 0 0 0-2.85-.45Z" fill="#FFDC00"/></svg>