<!-- by TradingView --><svg xmlns="http://www.w3.org/2000/svg" width="56" height="56"><path fill="#215A96" d="M0 0h56v56H0z"/><path d="M26.54 12.03a16.1 16.1 0 00-8.64 3.53c-.63.5-1.86 1.72-1.76 1.74.06.02 13.47 1.63 13.53 1.63.01 0 .1-.14.18-.32.08-.17.25-.41.36-.53l.2-.24-1.66-2.93L27.08 12h-.18l-.36.03zm2.53.05l1.12 2.7 1.09 2.62h.5c.41 0 .57.02.8.11.4.16.74.45.99.82l.26.34c.04.01 6.03-1.4 6.07-1.43a16.02 16.02 0 00-10.54-5.22c-.3-.02-.32-.02-.29.06zm8.35 7.12c-1.86.23-3.4.43-3.43.45-.03.01-.06.13-.07.25-.02.12-.1.37-.18.54l-.15.32 4.72 4.47 5.13 4.85.43.4.06-.52a18 18 0 00.07-2.05c0-1.3-.02-1.63-.1-2.2a16.35 16.35 0 00-2.45-6.47c-.3-.45-.31-.46-.48-.46-.1 0-1.7.2-3.55.42zm-22.95.21a16.14 16.14 0 00-2.4 6.92 20.68 20.68 0 00.13 4.28c.01.02 17.45-10.2 17.52-10.27.02-.02.01-.16-.02-.3l-.06-.25-.3-.03c-.17-.02-3.38-.19-7.12-.38-3.74-.2-6.96-.36-7.14-.38l-.33-.03-.28.44zm6.97 7.35a866.76 866.76 0 00-8.74 5.79c-.09.14.46 1.57 1.05 2.74a15.98 15.98 0 005.33 6c.53.36 1.13.7 1.15.67l4.44-8.9 5.14-10.32.72-1.44-.15-.13a.58.58 0 00-.2-.13c-.02 0-3.96 2.57-8.74 5.72zm11.28-5.29c-.2.1-.22.14-.2.28 0 .1.74 4.69 1.63 10.22l1.62 10.05.46-.28a16.17 16.17 0 007.14-9.18c0-.07-10.32-11.2-10.39-11.2-.02 0-.13.04-.26.11zM26.6 32.18l-4.66 10.59c-.02.05.66.31 1.47.56 3.33 1 7.01.88 10.29-.36.25-.1.29-.12.29-.24 0-.21-2.3-20.99-2.32-21.01a1 1 0 00-.22-.05l-.2-.03-4.65 10.54z" fill="#fff"/></svg>