<!-- by TradingView --><svg width="56" height="56" viewBox="0 0 56 56" xmlns="http://www.w3.org/2000/svg"><path fill="#F0F3FA" d="M0 0h56v56H0z"/><circle cx="16.5" cy="16.5" fill="#007BC3" r="2.5"/><circle cx="16.5" cy="22.5" fill="#E84735" r="2.5"/><circle cx="16.5" cy="28.5" fill="#E84735" r="2.5"/><circle cx="16.5" cy="34.5" fill="#E84735" r="2.5"/><circle cx="16.5" cy="40.5" fill="#E84735" r="2.5"/><circle cx="22.5" cy="16.5" r="2.5" fill="#007BC3"/><circle cx="22.5" cy="22.5" r="2.5" fill="#E84735"/><circle cx="22.5" cy="28.5" r="2.5" fill="#E84735"/><circle cx="22.5" cy="34.5" r="2.5" fill="#E84735"/><circle cx="22.5" cy="40.5" r="2.5" fill="#E84735"/><circle cx="28.5" cy="16.5" r="2.5" fill="#007BC3"/><circle cx="28.5" cy="22.5" r="2.5" fill="#007BC3"/><circle cx="28.5" cy="28.5" r="2.5" fill="#007BC3"/><circle cx="28.5" cy="34.5" r="2.5" fill="#007BC3"/><circle cx="28.5" cy="40.5" r="2.5" fill="#007BC3"/><circle cx="34.5" cy="16.5" r="2.5" fill="#007BC3"/><circle cx="34.5" cy="22.5" fill="#E84735" r="2.5"/><circle cx="34.5" cy="28.5" fill="#E84735" r="2.5"/><circle cx="34.5" cy="34.5" fill="#E84735" r="2.5"/><circle cx="34.5" cy="40.5" fill="#E84735" r="2.5"/><circle cx="40.5" cy="16.5" r="2.5" fill="#007BC3"/><circle cx="40.5" cy="22.5" fill="#E84735" r="2.5"/><circle cx="40.5" cy="28.5" fill="#E84735" r="2.5"/><circle cx="40.5" cy="34.5" fill="#E84735" r="2.5"/><circle cx="40.5" cy="40.5" fill="#E84735" r="2.5"/></svg>