<!-- by TradingView --><svg width="56" height="56" xmlns="http://www.w3.org/2000/svg"><path fill="#0C328C" d="M0 0h56v56H0z"/><path d="M7.442 20l-.761 2h10.546l.76-2H7.442zM6.3 23l-.76 2h10.545l.76-2H6.3zm-1.14 3l-.76 2h10.545l.76-2H5.162z" fill="#009FDF"/><path d="M26.6 29.072v.045c.483.18.943.495 1.184.697.745.63 1.075 1.462 1.075 2.542 0 1.777-.921 3.059-2.434 3.464-.46.135-.942.18-1.841.18h-4.58V23h4.054c.833 0 1.403.045 1.907.18 1.469.405 2.433 1.44 2.433 3.08 0 .878-.307 1.62-.81 2.115-.22.225-.527.495-.987.697zm-4.1 1.372v3.419h1.8c1.093 0 1.863-.546 1.863-1.71 0-1.19-.833-1.709-1.951-1.709H22.5zm0-2.447h1.448c.439 0 .658 0 .877-.067.592-.18.965-.652.965-1.395 0-1.213-.906-1.535-1.93-1.535H22.5v2.997zM32.672 36V25h-3.66v-2h10.17l-.723 2h-3.244v11h-2.543zm7.3 0V23h8.241l-.723 2H42.5v3.06h2.03c1.645 0 2.5.405 3.091.922.46.405 1.25 1.305 1.25 3.082 0 1.754-.811 2.721-1.49 3.216-.79.562-1.623.72-3.31.72h-4.1zm2.528-2h1.9c1.129 0 1.84-.871 1.84-2.004 0-1.148-.764-1.996-1.863-1.996H42.5v4z" fill="#fff"/></svg>