<svg version="1.1" id="Слой_1" x="0px" y="0px" style="enable-background:new 0 0 116.5 52;" xml:space="preserve" sodipodi:docname="footen.svg" inkscape:version="1.2.2 (b0a8486, 2022-12-01)" xmlns:inkscape="http://www.inkscape.org/namespaces/inkscape" xmlns:sodipodi="http://sodipodi.sourceforge.net/DTD/sodipodi-0.dtd" xmlns="http://www.w3.org/2000/svg" xmlns:svg="http://www.w3.org/2000/svg" viewBox="0 0 116.6 52.1"><defs id="defs1308"/><sodipodi:namedview id="namedview1306" pagecolor="#ffffff" bordercolor="#000000" borderopacity="0.25" inkscape:showpageshadow="2" inkscape:pageopacity="0.0" inkscape:pagecheckerboard="0" inkscape:deskcolor="#d1d1d1" showgrid="false" inkscape:zoom="4.5384615" inkscape:cx="32.940678" inkscape:cy="26" inkscape:window-width="1440" inkscape:window-height="456" inkscape:window-x="0" inkscape:window-y="25" inkscape:window-maximized="0" inkscape:current-layer="Слой_1"/><style type="text/css" id="style1236"> .st0{fill:url(#Shape_6_);} .st1{fill:url(#Shape_9_);} .st2{fill:url(#Shape_11_);} .st3{fill:url(#Shape_12_);} .st4{fill:url(#Shape_13_);} .st5{fill:url(#Shape_14_);} .st6{fill:#4F525A;} </style><style class="darkreader darkreader--sync" media="screen"/><g id="g1303"><g id="g1288"><g id="Group" transform="translate(40.5)"><linearGradient id="Shape_6_" gradientUnits="userSpaceOnUse" x1="-39.283001" y1="200.66141" x2="-38.283001" y2="200.66141" gradientTransform="matrix(23.3259,0,0,-6.2184,910.7738,1250.907)"><stop offset="0" style="stop-color: rgb(128, 0, 0); --darkreader-inline-stopcolor: #ff7272;" id="stop1238" data-darkreader-inline-stopcolor=""/><stop offset="0.5" style="stop-color: rgb(255, 0, 0); --darkreader-inline-stopcolor: #ff1a1a;" id="stop1240" data-darkreader-inline-stopcolor=""/><stop offset="1" style="stop-color: rgb(252, 167, 137); --darkreader-inline-stopcolor: #fc9c7b;" id="stop1242" data-darkreader-inline-stopcolor=""/></linearGradient><polygon id="Shape" class="st0" points="17.8,6.2 6.1,0 -5.5,6.2 " style="fill:url(#Shape_6_)"/><linearGradient id="Shape_9_" gradientUnits="userSpaceOnUse" x1="-38.968399" y1="199.9706" x2="-39.359299" y2="200.9705" gradientTransform="matrix(11.6619,0,0,-18.6524,455.8778,3756.3586)"><stop offset="0" style="stop-color: rgb(128, 0, 0); --darkreader-inline-stopcolor: #ff7272;" id="stop1246" data-darkreader-inline-stopcolor=""/><stop offset="0.5" style="stop-color: rgb(255, 0, 0); --darkreader-inline-stopcolor: #ff1a1a;" id="stop1248" data-darkreader-inline-stopcolor=""/><stop offset="1" style="stop-color: rgb(252, 167, 137); --darkreader-inline-stopcolor: #fc9c7b;" id="stop1250" data-darkreader-inline-stopcolor=""/></linearGradient><polygon id="Shape_1_" class="st1" points="-5.5,6.2 -5.5,18.7 6.1,24.9 " style="fill:url(#Shape_9_)"/><linearGradient id="Shape_11_" gradientUnits="userSpaceOnUse" x1="-38.7728" y1="200.9705" x2="-39.163799" y2="199.9705" gradientTransform="matrix(11.664,0,0,-18.6524,467.62,3756.3586)"><stop offset="0" style="stop-color: rgb(128, 0, 0); --darkreader-inline-stopcolor: #ff7272;" id="stop1254" data-darkreader-inline-stopcolor=""/><stop offset="0.5" style="stop-color: rgb(255, 0, 0); --darkreader-inline-stopcolor: #ff1a1a;" id="stop1256" data-darkreader-inline-stopcolor=""/><stop offset="1" style="stop-color: rgb(252, 167, 137); --darkreader-inline-stopcolor: #fc9c7b;" id="stop1258" data-darkreader-inline-stopcolor=""/></linearGradient><polygon id="Shape_2_" class="st2" points="6.1,24.9 17.8,18.7 17.8,6.2 " style="fill:url(#Shape_11_)"/></g><g id="Group_1_" transform="translate(63.5)"><linearGradient id="Shape_12_" gradientUnits="userSpaceOnUse" x1="-62.283001" y1="200.66141" x2="-63.283001" y2="200.66141" gradientTransform="matrix(23.3301,0,0,-6.2203,1471.2102,1269.939)"><stop offset="0" style="stop-color: rgb(2, 23, 41); --darkreader-inline-stopcolor: #dad7d2;" id="stop1263" data-darkreader-inline-stopcolor=""/><stop offset="0.5" style="stop-color: rgb(9, 92, 166); --darkreader-inline-stopcolor: #6bbaf7;" id="stop1265" data-darkreader-inline-stopcolor=""/><stop offset="1" style="stop-color: rgb(153, 196, 222); --darkreader-inline-stopcolor: #91bfdb;" id="stop1267" data-darkreader-inline-stopcolor=""/></linearGradient><polygon id="Shape_3_" class="st3" points="18.1,18.7 6.5,24.9 -5.2,18.7 " style="fill:url(#Shape_12_)"/><linearGradient id="Shape_13_" gradientUnits="userSpaceOnUse" x1="-63.359299" y1="200.1371" x2="-62.9683" y2="201.1371" gradientTransform="matrix(11.664,0,0,-18.6505,736.2485,3749.7588)"><stop offset="0" style="stop-color: rgb(2, 23, 41); --darkreader-inline-stopcolor: #dad7d2;" id="stop1271" data-darkreader-inline-stopcolor=""/><stop offset="0.5" style="stop-color: rgb(9, 92, 166); --darkreader-inline-stopcolor: #6bbaf7;" id="stop1273" data-darkreader-inline-stopcolor=""/><stop offset="1" style="stop-color: rgb(153, 196, 222); --darkreader-inline-stopcolor: #91bfdb;" id="stop1275" data-darkreader-inline-stopcolor=""/></linearGradient><polygon id="Shape_4_" class="st4" points="-5.2,18.7 -5.2,6.2 6.5,0 " style="fill:url(#Shape_13_)"/><linearGradient id="Shape_14_" gradientUnits="userSpaceOnUse" x1="-63.1637" y1="201.1371" x2="-62.772598" y2="200.1371" gradientTransform="matrix(11.6661,0,0,-18.6505,748.0421,3749.7588)"><stop offset="0" style="stop-color: rgb(2, 23, 41); --darkreader-inline-stopcolor: #dad7d2;" id="stop1279" data-darkreader-inline-stopcolor=""/><stop offset="0.5" style="stop-color: rgb(9, 92, 166); --darkreader-inline-stopcolor: #6bbaf7;" id="stop1281" data-darkreader-inline-stopcolor=""/><stop offset="1" style="stop-color: rgb(153, 196, 222); --darkreader-inline-stopcolor: #91bfdb;" id="stop1283" data-darkreader-inline-stopcolor=""/></linearGradient><polygon id="Shape_5_" class="st5" points="6.5,0 18.1,6.2 18.1,18.7 " style="fill:url(#Shape_14_)"/></g></g><g id="g1301"><path id="Shape_7_" class="st6 _fillpath" d="M66.9,32c-6.1,0-10.5,3.9-10.5,10c0,6.2,4.3,10,10.5,10s10.5-3.8,10.5-10 C77.4,35.8,73.1,32,66.9,32z M66.9,47.8c-3.2,0-5.5-2.4-5.5-5.8s2.3-5.8,5.5-5.8c3.4,0,5.5,2.3,5.5,5.8 C72.5,45.4,70.2,47.8,66.9,47.8z"/><polygon id="Shape_8_" class="st6 _fillpath" points="8.4,33 0,52 5.7,52 13.6,47.5 7.1,47.5 11,37.7 16.6,52 22,52 13.6,33 "/><polygon id="Shape_10_" class="st6 _fillpath" points="108.2,33 103,33 94.6,52 100,52 105.6,37.7 109.5,47.5 103,47.5 110.9,52 116.6,52 "/><polygon class="st6 _fillpath" points="28.3,47.5 28.3,33 23.5,33 23.5,52 25.2,52 28.3,52 34.5,52 37.3,47.5 " id="polygon1293"/><g id="g1297"><path class="st6 _fillpath" d="M81.8,51.4c-1.5-0.4-2.6-0.9-3.5-1.4l1.8-3.8c0.8,0.5,1.8,1,3,1.3c1.2,0.3,2.3,0.5,3.4,0.5 c2.3,0,3.4-0.6,3.4-1.7c0-0.5-0.3-0.9-0.9-1.1c-0.6-0.2-1.6-0.4-2.8-0.6c-1.5-0.2-2.8-0.5-3.7-0.8c-1-0.3-1.8-0.8-2.6-1.6 c-0.7-0.8-1.1-1.8-1.1-3.2c0-1.2,0.3-2.2,1-3.1c0.7-0.9,1.7-1.6,3-2.1c1.3-0.5,2.8-0.8,4.6-0.8c1.3,0,2.6,0.1,3.9,0.4 c1.3,0.3,2.4,0.7,3.2,1.2l-1.8,3.8C91,37.5,89.2,37,87.3,37c-1.1,0-2,0.2-2.6,0.5c-0.6,0.3-0.9,0.7-0.9,1.2c0,0.6,0.3,1,0.9,1.2 c0.6,0.2,1.6,0.4,2.9,0.7c1.5,0.3,2.7,0.5,3.7,0.8c1,0.3,1.8,0.8,2.5,1.6c0.7,0.8,1.1,1.8,1.1,3.2c0,1.1-0.3,2.2-1,3.1 c-0.7,0.9-1.7,1.6-3,2.1c-1.3,0.5-2.9,0.7-4.7,0.7C84.7,52,83.2,51.8,81.8,51.4z" id="path1295"/></g><path class="st6 _fillpath" d="M51.7,45c1.6-1.1,2.7-2.7,2.7-5.3c0-4.7-3.4-6.8-7.4-6.8L38.5,33v19h4.8V37.2l3.4-0.1c1.7,0,3.1,0.9,3.1,2.9 c0,2-1.7,2.8-3.4,2.8h-1.3l1.3,2.2l0,0l4,7l5.4,0L51.7,45z" id="path1299"/></g></g></svg>