<!-- by TradingView --><svg width="56" height="56" viewBox="0 0 56 56" xmlns="http://www.w3.org/2000/svg"><path fill="#F0F3FA" d="M0 0h56v56H0z"/><path d="M17.98 12c-1.09 0-1.98.82-1.98 1.84v28.32c0 1.02.89 1.84 1.98 1.84h20.04c1.09 0 1.98-.82 1.98-1.84V13.84c0-1.02-.89-1.84-1.98-1.84H17.98Zm20.04 33H17.98A2.92 2.92 0 0 1 15 42.16V13.84A2.92 2.92 0 0 1 17.98 11h20.04A2.92 2.92 0 0 1 41 13.84v28.32A2.92 2.92 0 0 1 38.02 45Z" fill="#1E6AA4"/><path d="M39 40.87c0 1.18-.98 2.13-2.19 2.13H19.2c-1.21 0-2.19-.95-2.19-2.13V15.13c0-1.18.98-2.13 2.19-2.13H36.8c1.21 0 2.19.95 2.19 2.13v25.74Z" fill="#1E6AA4"/><path d="M38 35.37c0 .9-.89 1.63-1.99 1.63H20c-1.1 0-1.99-.73-1.99-1.63V15.63c0-.9.89-1.63 1.99-1.63H36c1.1 0 1.99.73 1.99 1.63v19.74Z" fill="#FFFFFE"/><path d="M26 29v-9h-6v-4h16v4h-6v9h-4Z" fill="#FFDB30"/><path d="M30.36 26H36v-5h-5.64v5Z" fill="#1E6AA4"/><path d="M25.5 25.95V21h-1.79C21.76 21 20 22.86 20 24.78v6.56S19.87 35 23.76 35H36v-5H25.56c-.36 0-.56-.2-.56-.5v-2.86c0-.35.05-.7.4-.7h.04l.06.01Z" fill="#1E6AA4"/><path d="M20 39h1v-1h-3v1h1v3h1v-3ZM23.56 38c.15 0 .85.16.87 1.23.01 1.08-.61 1.33-.84 1.33h-1.17V42h-.95v-4h2.09Zm-1.15 1v.68h.77c.14 0 .24-.16.24-.33s-.1-.34-.24-.35h-.77ZM29.8 39.72h.93s.09-.97-.65-1.46a1.55 1.55 0 0 0-2.17.47c-.39.66-.3 1.58-.19 2.07.18.75.88 1.2 1.45 1.2.5 0 .95-.1 1.3-.65.23-.37.25-.9.25-.9h-.97s-.05.54-.5.54c-.39.02-.53-.27-.58-.42-.1-.27-.16-.88.07-1.27.22-.4.54-.37.72-.27.18.1.27.3.3.58v.1h.05ZM24.2 42l1.09-4h1.2l1.07 4H26.5l-.11-.41h-1.02l-.13.41H24.2Zm1.69-2.78-.3 1.34h.62l-.32-1.34ZM33.24 39.72h.92s.09-.97-.64-1.46a1.55 1.55 0 0 0-2.18.47c-.39.66-.3 1.58-.19 2.07.18.75.89 1.2 1.45 1.2.51 0 .96-.1 1.3-.65.24-.37.25-.9.25-.9h-.97s-.05.54-.5.54c-.39.02-.53-.27-.58-.42-.1-.27-.16-.88.07-1.27.22-.4.54-.37.72-.27.18.1.27.3.3.58v.1h.05ZM34.26 42l1.1-4h1.2l1.07 4h-1.06l-.11-.41h-1.02l-.13.41h-1.05Zm1.7-2.78-.3 1.34h.62l-.32-1.34Z" fill="#FFDB30"/></svg>