<!-- by TradingView --><svg xmlns="http://www.w3.org/2000/svg" width="56" height="56" viewBox="0 0 56 56"><path fill="#F0F3FA" d="M0 0h56v56H0z"/><path d="M6 20h35v7.26L33.19 37h-19.2L6 27.26V20zm10.78 2h-5.56L10 23.39v4.19L11.22 29h5.56L18 27.58v-4.19L16.78 22zm-.92 1.31h-3.72l-.64.87v2.62l.64.89h3.72l.64-.9v-2.6l-.64-.88zM26.9 22H20v7h6.9l1.1-1.27v-1.78l-.59-.63.59-.66v-1.45L26.9 22zm-1.02 1.19h-4.12v1.51h4.12l.44-.56v-.42l-.44-.53zm-4.16 2.98h4.12l.44.53v.42l-.44.56h-4.12v-1.51zm9.9-4.17H30v7h1.63v-2.86h2.27L36.3 29h1.33v-.92l-2.21-2.6 2.21-2.64V22h-1.42l-2.29 2.76h-2.3V22z" fill="#497590"/><path d="M49 37V20h-7v7.68L34.4 37H49z" fill="#E4121B"/></svg>