<!-- by TradingView --><svg width="56" height="56" viewBox="0 0 56 56" xmlns="http://www.w3.org/2000/svg"><path fill="#F0F3FA" d="M0 0h56v56H0z"/><path fill-rule="evenodd" d="M13.09 24.76c.13.27.6.8 1.39.83.99.02 1.43.04 1.5.21.05.14-.68.42-1.06.54.27.13.94.3 1.45-.07h.49l-.29.27c-.4.38-.9.85-1.17.94.46.14 1.4.17 2.13-.96l.51-.07c-.1.18-.32.6-.26.86l.71-.72c.02.1.04.4-.08.78-.14.48.13.91.6 1.13-.04-.18-.07-.66.14-1.19.1-.13.33-.53.3-1.1.05.02.18.1.24.31.07-.12.18-.45.14-.82.1.01.36.13.46.52.11.39.4.53.6.6-.1-.16-.16-.5-.17-1.02 0-.51-.14-.9-.21-1.04.09 0 .3.01.43.13a12.8 12.8 0 0 0-.22-.53c-.02-.04.02-.03.1 0 .1.04.26.1.45.08.32-.02.9.02 1.13.32.01-.2-.32-.82-1.75-1.69.02-.08.16-.23.55-.23a1.34 1.34 0 0 0-.7-.47c.1-.01.35-.07.6-.2.1-.04.15-.1.2-.14.12-.1.21-.17.62-.14l-.42-.38a7.5 7.5 0 0 0-1.51 0c.01-.07.1-.23.35-.34-.13-.08-.48-.17-.82.13-.07-.04-.12-.19.23-.45.36-.26.45-.57.45-.69-.03.1-.22.28-.68.3-.47 0-.75.4-.83.6-.14-.15-.3-.55.2-.98a1.42 1.42 0 0 0-1.46.77c-.1-.08-.27-.38-.06-.87.22-.49.13-.74.06-.8 0 .07-.13.34-.7.9-.57.55-.56 1.1-.47 1.3l-.28.3c.07-.44.06-1.37-.53-1.6.1.21.2.78-.12 1.3-.33.53-.2.84-.1.92-.21-.13-.6-.52-.54-1-.27.34-.61 1.31.23 2.5a4.14 4.14 0 0 0-1.19 0c.01-.01.02 0 .04.03.06.1.22.35.71.47.5.11.55.28.5.34-.16 0-.56.06-.87.25-.3.19-.8-.01-1.02-.13Zm4.77 1.34c1.35 0 2.44-1.1 2.44-2.47 0-1.36-1.1-2.47-2.44-2.47a2.46 2.46 0 0 0-2.44 2.47c0 1.36 1.1 2.47 2.44 2.47Z" fill="#E7AE27" fill-opacity=".7"/><path d="M46 17v1H22.83a12.01 12.01 0 0 1 6.25 9.5H49v1H29.08c-.32 4.14-2.7 7.4-6.33 9.5H46v1H17.65a10.7 10.7 0 0 1-6.7-2.52 10.8 10.8 0 0 1-3.92-7.54c-.13-1.77.1-3.47.77-5.1 1-2.42 2.64-4.27 4.92-5.54A9.69 9.69 0 0 1 17.1 17H46Zm-27.97 1C12.7 17.95 8.12 22.59 8 27.73A10.13 10.13 0 0 0 18.27 38 9.98 9.98 0 0 0 28 28.26 10.09 10.09 0 0 0 18.03 18Z" fill="#2F21AF"/><path d="M19.65 22.42a2.19 2.19 0 0 0-3.27-.42c-.3.26-.53.61-.65 1l.16.1.17-.12h.23l.4.05.06.12h-.52v1.05h.93v-.24h-.59v-.2h.53v-.22h-.53v-.16h.57v-.18l.48-.07.13-.06.17-.2.27-.02.04.28h.27l.03-.13h.16l.08.13.17-.1v-.16l.04-.07.16-.05.38-.2s.18.1.13-.12v-.01Zm0 2.27v.2a2.2 2.2 0 0 1-3.98-.82h.13l.12.1.1.18h.2l.13-.14h.13l.16.14.25.17.19.28.12.2h.64l.08-.16.18-.07.17-.13v-.12h.12v.21l-.22.17v.1h.66s.08-.13.08-.19v-.24l.22-.05v.08l.2.06h.19l.13.03Zm.19-.13v-.07l-.08-.15v-.27l-.1-.15h-.08a.52.52 0 0 1-.08.14c-.04.05-.1.1-.16.12a.63.63 0 0 1-.24.04c-.1 0-.2-.01-.3-.05a.46.46 0 0 1-.2-.18.57.57 0 0 1-.07-.32c0-.17.05-.3.14-.4.12-.1.26-.15.41-.14.14 0 .25.03.33.08.08.06.14.14.18.25l-.3.06a.25.25 0 0 0-.04-.07.2.2 0 0 0-.07-.05.2.2 0 0 0-.09-.02.2.2 0 0 0-.18.08c-.03.05-.04.12-.04.21 0 .12.02.2.05.24a.2.2 0 0 0 .16.07c.06 0 .11-.02.15-.06a.3.3 0 0 0 .07-.15l.18.05.05-.07.13-.22.13-.08v-.33l.08-.14h.05l.04.13v.07c.05.15.07.31.07.48 0 .32-.07.63-.2.9Zm-2.03-1.43c-.25 0-.42.09-.5.27l.3.1c.03-.08.1-.12.2-.12.13 0 .2.06.23.2h-.34v.2h.33c-.01.13-.09.2-.22.2-.11 0-.18-.06-.21-.17l-.32.09c.03.1.1.17.18.23.1.07.24.1.36.09a.57.57 0 0 0 .42-.14c.1-.1.14-.23.14-.41a.52.52 0 0 0-.15-.4c-.1-.1-.24-.14-.42-.14Z" fill="#E7AE27"/><path d="M11 29h1v2.13L13.7 29h1.2l-1.84 2.35L15 34h-1.2L12 31.62V34h-1v-5ZM21 29h1v2.14L23.7 29h1.2l-1.84 2.35L25 34h-1.19l-1.8-2.38V34h-1v-5ZM18.74 30.75c.05-.91-2-1.37-2 .73.05 2.2 2.09 1.6 2 .7h1.1c.11.04-.25 1.23-1.21 1.68-1.52.58-2.98-.65-2.98-2.24 0-1.41.6-2.52 1.87-2.61 1.21-.07 1.94.22 2.3 1.74h-1.08Z" fill="#2F21AF"/></svg>