<!-- by TradingView --><svg width="56" height="56" viewBox="0 0 56 56" xmlns="http://www.w3.org/2000/svg"><path fill="url(#apdkgwlig)" d="M0 0h56v56H0z"/><path d="M13 15v15.96c0 3.66 1.88 7.05 4.96 8.92L28 46l10.04-6.12A10.43 10.43 0 0 0 43 30.96V15H13Z" fill="#fff"/><path d="M21 22h14v5.2a4.04 4.04 0 0 0-2.87-1.2H30v6.1c0 1.09.67 2.13 1.43 2.9h-6.79A4.3 4.3 0 0 0 26 32.1V26h-2.13c-1.07 0-2.1.43-2.87 1.2V22Z" fill="#333"/><defs><linearGradient id="apdkgwlig" x1="8" y1="8" x2="48.5" y2="48.5" gradientUnits="userSpaceOnUse"><stop stop-color="#FDE76D"/><stop offset="1" stop-color="#FEDD2C"/></linearGradient></defs></svg>