<!-- by TradingView --><svg width="56" height="56" viewBox="0 0 56 56" xmlns="http://www.w3.org/2000/svg"><path fill="#F0F3FA" d="M0 0h56v56H0z"/><path d="M28.18 10v2.38a5.53 5.53 0 0 0 3.5-1.4 7.17 7.17 0 0 0-3.5-.98Zm-.42 0v2.4c-2.07-.02-3.34-.86-3.7-1.26l-.3.28c.44.49 1.83 1.38 4 1.39v1.35h-5.61c.05-2.25 2.53-4.08 5.61-4.16Zm-5.61 4.34a3.79 3.79 0 0 0 1.7 2.89 6.03 6.03 0 0 1 3.85-1.29h.06v-1.6h-5.61Zm2.05 3.13c.96.6 2.2.97 3.56 1v-2.11h-.06a5.73 5.73 0 0 0-3.5 1.1Zm3.98 1a7.27 7.27 0 0 0 3.25-.82 5.36 5.36 0 0 0-3.25-1.28v2.1Zm3.62-1.04c1.18-.76 1.95-1.86 1.99-3.09h-5.61v1.61c1.8.1 3.06.92 3.62 1.48Zm1.99-3.27a3.8 3.8 0 0 0-1.76-2.96 5.9 5.9 0 0 1-3.85 1.6v1.36h5.6Z" fill="#AE955D"/><path d="M28.24 10.25v2.05c1.46-.1 2.5-.71 3.01-1.16a6.75 6.75 0 0 0-3-.9Zm-1.05 0v2.03a5.2 5.2 0 0 1-2.96-1.12 6.7 6.7 0 0 1 2.96-.9Zm4.4 1.1a5.56 5.56 0 0 1-3.35 1.34v1.35h5.03c-.07-1.05-.7-2-1.68-2.68Zm1.68 3.08h-5.03v1.41c1.6.12 2.74.8 3.3 1.31 1-.69 1.66-1.65 1.73-2.72Zm-2.07 2.94a5.24 5.24 0 0 0-2.96-1.14v2a6.77 6.77 0 0 0 2.96-.86Zm-4.01.85v-1.98c-1.49.13-2.48.7-2.95 1.09.82.49 1.84.81 2.95.9Zm-3.29-1.11a5.57 5.57 0 0 1 3.29-1.26v-1.42h-4.95c.07 1.05.7 1.99 1.66 2.68Zm-1.66-3.07h4.95v-1.36a5.48 5.48 0 0 1-3.3-1.3 3.63 3.63 0 0 0-1.65 2.66Z" fill="url(#aqfod3jqv)"/><path d="M23.32 23.53c-1.63-1.3-1.16-4.37-.87-6.08.09.57.67 1.9 2.28 2.65a3.6 3.6 0 0 1 2.04 3.05v3.48c-.56-.73-1.6-1.64-3.45-3.1ZM33.02 24.16c1.63-1.28 1.16-4.36.87-6.07-.09.57-.67 1.9-2.28 2.65a3.6 3.6 0 0 0-2.04 3.05v3.48c.56-.73 1.6-1.64 3.45-3.1ZM23.32 29.5c-1.63-1.3-1.16-4.37-.87-6.08.09.57.67 1.9 2.28 2.65a3.6 3.6 0 0 1 2.04 3.05v3.48c-.56-.73-1.6-1.64-3.45-3.1ZM33.02 30.13c1.63-1.29 1.16-4.36.87-6.07-.09.57-.67 1.89-2.28 2.65a3.6 3.6 0 0 0-2.04 3.05v3.47c.56-.72 1.6-1.64 3.45-3.1ZM23.32 35.59c-1.63-1.29-1.16-4.37-.87-6.07.09.56.67 1.89 2.28 2.65a3.6 3.6 0 0 1 2.04 3.04v3.48c-.56-.72-1.6-1.64-3.45-3.1ZM33.02 36.23c1.63-1.29 1.16-4.37.87-6.07-.09.56-.67 1.89-2.28 2.64a3.6 3.6 0 0 0-2.04 3.05v3.48c.56-.72 1.6-1.64 3.45-3.1ZM27.28 42.37l.43-24.07h.99l.36 24.07h-1.78Z" fill="#AE8F4C"/><path d="m26.94 42.37.43-24.07h.99l.36 24.07h-1.78Z" fill="url(#bqfod3jqv)"/><path d="M22.95 23.84c-1.63-1.29-1.16-4.36-.87-6.07.09.57.67 1.9 2.28 2.65a3.6 3.6 0 0 1 2.04 3.05v3.48c-.56-.73-1.6-1.64-3.45-3.1Z" fill="url(#cqfod3jqv)"/><path d="M32.88 23.94c1.63-1.3 1.16-4.37.87-6.08-.09.57-.67 1.9-2.28 2.65a3.6 3.6 0 0 0-2.04 3.05v3.48c.56-.73 1.6-1.64 3.45-3.1Z" fill="url(#dqfod3jqv)"/><path d="M22.95 29.8c-1.63-1.28-1.16-4.36-.87-6.06.09.56.67 1.89 2.28 2.65a3.6 3.6 0 0 1 2.04 3.04v3.48c-.56-.72-1.6-1.64-3.45-3.1Z" fill="url(#eqfod3jqv)"/><path d="M32.88 29.9c1.63-1.29 1.16-4.36.87-6.07-.09.57-.67 1.9-2.28 2.65a3.6 3.6 0 0 0-2.04 3.05V33c.56-.73 1.6-1.64 3.45-3.1Z" fill="url(#fqfod3jqv)"/><path d="M22.95 35.9c-1.63-1.28-1.16-4.36-.87-6.07.09.57.67 1.9 2.28 2.65a3.6 3.6 0 0 1 2.04 3.05v3.48c-.56-.73-1.6-1.64-3.45-3.1Z" fill="url(#gqfod3jqv)"/><path d="M32.88 36c1.63-1.29 1.16-4.37.87-6.07-.09.56-.67 1.89-2.28 2.65a3.6 3.6 0 0 0-2.04 3.04v3.48c.56-.72 1.6-1.64 3.45-3.1Z" fill="url(#hqfod3jqv)"/><path d="M19 22.07c-.25-6.12-4.91-7.5-7.37-7.41 2.22 1.67 2.68 4.88 2.64 6.28v8.55c.02 9.08 7.85 10.6 11.76 10.24A9.75 9.75 0 0 1 19 30.35v-8.28ZM37.32 22.07c.25-6.12 5.22-7.5 7.68-7.41-2.22 1.67-3.05 4.88-3 6.28v8.55c-.02 9.08-7.49 10.6-11.4 10.24 5.8-1.8 6.72-6.9 6.72-9.38v-8.28Z" fill="#AD9454"/><path d="M18.68 22.07c-.25-6.12-5.22-7.5-7.68-7.41 2.22 1.67 3.05 4.88 3 6.28v8.55c.02 9.08 7.49 10.6 11.4 10.24-5.8-1.8-6.72-6.9-6.72-9.38v-8.28Z" fill="url(#iqfod3jqv)"/><path d="M37 22.07c.25-6.12 4.88-7.5 7.33-7.41-2.22 1.67-2.68 4.88-2.63 6.28v8.55c-.02 9.08-7.85 10.6-11.76 10.24A9.8 9.8 0 0 0 37 30.35v-8.28Z" fill="url(#jqfod3jqv)"/><path d="M24.7 41.8c-5.12 1.68-8.36-3.31-9.56-5.08.2 8.7 6.43 9.16 9.45 8.1 2.74 2.14 5.33.9 6.22 0 7.75 2.3 10.09-4.35 9.83-8.4-3.75 6.44-8.09 6.19-9.94 5.39-2.34 1.58-5 .7-6 0Z" fill="#B5954A"/><path d="M24.67 41.97c-5.12 1.56-8.51-2.9-9.57-5.32.42 8.77 6.56 8.98 9.57 8 2.74 1.98 5.2.82 6.1 0 7.74 2.13 9.7-4.44 9.7-8-3.32 6.04-7.85 6.07-9.7 5.32a5.87 5.87 0 0 1-6.1 0Z" fill="url(#kqfod3jqv)"/><defs><linearGradient id="aqfod3jqv" x1="23.24" y1="13.91" x2="32.36" y2="13.84" gradientUnits="userSpaceOnUse"><stop stop-color="#008DD7"/><stop offset=".51" stop-color="#9BCFEF"/><stop offset="1" stop-color="#008DD7"/></linearGradient><linearGradient id="bqfod3jqv" x1="27.09" y1="33.59" x2="28.62" y2="33.59" gradientUnits="userSpaceOnUse"><stop stop-color="#FFD500"/><stop offset=".51" stop-color="#F08000"/><stop offset="1" stop-color="#FFD500"/></linearGradient><linearGradient id="cqfod3jqv" x1="23.2" y1="18.16" x2="23.22" y2="26.95" gradientUnits="userSpaceOnUse"><stop stop-color="#FFD500"/><stop offset=".53" stop-color="#F08000"/><stop offset="1" stop-color="#FFD500"/></linearGradient><linearGradient id="dqfod3jqv" x1="32.64" y1="18.25" x2="32.61" y2="27.04" gradientUnits="userSpaceOnUse"><stop stop-color="#FFD500"/><stop offset=".53" stop-color="#F08000"/><stop offset="1" stop-color="#FFD500"/></linearGradient><linearGradient id="eqfod3jqv" x1="23.2" y1="24.12" x2="23.22" y2="32.91" gradientUnits="userSpaceOnUse"><stop stop-color="#FFD500"/><stop offset=".53" stop-color="#F08000"/><stop offset="1" stop-color="#FFD500"/></linearGradient><linearGradient id="fqfod3jqv" x1="32.64" y1="24.22" x2="32.61" y2="33.01" gradientUnits="userSpaceOnUse"><stop stop-color="#FFD500"/><stop offset=".53" stop-color="#F08000"/><stop offset="1" stop-color="#FFD500"/></linearGradient><linearGradient id="gqfod3jqv" x1="23.2" y1="30.22" x2="23.22" y2="39.01" gradientUnits="userSpaceOnUse"><stop stop-color="#FFD500"/><stop offset=".53" stop-color="#F08000"/><stop offset="1" stop-color="#FFD500"/></linearGradient><linearGradient id="hqfod3jqv" x1="32.64" y1="30.31" x2="32.61" y2="39.1" gradientUnits="userSpaceOnUse"><stop stop-color="#FFD500"/><stop offset=".53" stop-color="#F08000"/><stop offset="1" stop-color="#FFD500"/></linearGradient><linearGradient id="iqfod3jqv" x1="18.2" y1="14.66" x2="18.2" y2="39.78" gradientUnits="userSpaceOnUse"><stop stop-color="#FFD500"/><stop offset=".52" stop-color="#F08000"/><stop offset="1" stop-color="#FFD500"/></linearGradient><linearGradient id="jqfod3jqv" x1="37.14" y1="14.66" x2="37.14" y2="39.78" gradientUnits="userSpaceOnUse"><stop stop-color="#FFD500"/><stop offset=".52" stop-color="#F08000"/><stop offset="1" stop-color="#FFD500"/></linearGradient><linearGradient id="kqfod3jqv" x1="15.41" y1="39.79" x2="40.19" y2="40.32" gradientUnits="userSpaceOnUse"><stop stop-color="#003F92"/><stop offset=".51" stop-color="#0087CD"/><stop offset="1" stop-color="#043C91"/></linearGradient></defs></svg>