<!-- by TradingView --><svg width="56" height="56" viewBox="0 0 56 56" xmlns="http://www.w3.org/2000/svg"><path fill="url(#ahvvwsgtb)" d="M0 0h56v56H0z"/><path d="M27.78 13.01c7.14.26 11.43 5.71 12.68 8.4l-8.12 4.43c.04-3.5-1.31-6.36-3.7-6.24-1.92.1-2.88 1.32-3.12 1.92 1.12-.22 3.3-.3 4.3.82.29.31.77 1.23.74 2.59l-.37 7.7c-.05 1.09.36 1.53 1.65.92 1.04-.48 11.2-6.77 16.16-9.86 0 .24-.2.81-1.08 1.24l-14.9 9.02c-.81.47-2.4.85-2.26-1.33.14-2.17.34-5.98.43-7.62.03-.62-.14-2-1.01-2.6-1.08-.74-2.67-.77-3.98-.41l-.02.03-.96.35-11.9 5.74c.12-.45 1.5-1.11 2.17-1.38-.24-6.32 4.35-14.04 13.29-13.72ZM11.56 29.46c-.01-.17.14-.58.82-.87l12.08-5.88a5.67 5.67 0 0 1 2.27-.49c1.18.03 2.5.35 2.82 2.75.05 1.03-.04 4.32-.24 7.34-.23 3.43 1.92 2.63 3.15 1.85l14.72-8.53c-.02.27-.26.9-1.1 1.27l-14.12 8.02c-1.04.56-3.11.95-3.06-1.99l.33-7.29c0-1.53-.72-3.92-4.13-2.7l-13.54 6.52Zm.13.17c-.69.3-.84.7-.82.87L24.4 24c3.41-1.22 3.85.69 3.85 2.47l-.2 7.32c-.05 2.93 1.92 3 3.29 2.24l13.97-7.4c.84-.38 1.08-1 1.1-1.27l-14.69 7.97c-1.23.78-3.37 1.45-3.26-1.74.08-2.44.22-6.73.18-7.75-.23-2.52-1.37-2.6-2.55-2.63a5.87 5.87 0 0 0-2.33.55l-12.08 5.88Zm-1.52 2.05c-.01-.17.14-.58.82-.88l12.19-6.02c.36-.17 1.39-.57 2.33-.54 1.17.02 2.09.12 2.31 2.64.03.63-.06 2.58-.16 4.54-.06 1.2-.12 2.39-.15 3.3-.11 3.2 3.6 1.9 4.83 1.12l13.3-6.63c-.02.26-.25.9-1.1 1.27l-12.6 6.13c-1.36.76-4.86 1.2-4.81-1.74l.3-7.36c0-1.78-.2-3.71-3.61-2.49l-13.65 6.66Zm.15.18c-.68.3-.83.7-.82.87l13.65-6.65c3.4-1.22 3.47.6 3.47 2.43l-.3 7.15c-.04 2.94 3.3 2.86 4.67 2.1l12.7-5.74c.84-.38 1.13-.83 1.15-1.1l-13.61 6.2c-1.23.77-4.58 1.31-4.47-1.88l.1-2.48c.09-2.04.18-4.17.14-4.88-.11-2.55-.94-2.6-2.11-2.63a6.05 6.05 0 0 0-2.38.6l-12.19 6.01Zm-1.46 1.92c-.01-.17.14-.58.82-.87l12.24-5.96a6.04 6.04 0 0 1 2.38-.6c1.18.03 1.84.16 1.84 2.6 0 .59-.06 1.9-.12 3.36-.06 1.13-.11 2.35-.15 3.4-.11 3.2 2.64 3.28 4.1 2.66l14.1-5.63c-.01.27-.3.72-1.15 1.1l-13.18 5.05c-1.52.6-4.36.18-4.3-2.76l.25-6.51v-.4c.02-1.68.04-3.17-3.13-2.04l-13.7 6.6Zm-.04.49c-.68.3-.83.7-.82.87l13.84-6.77c2.96-1.4 2.96-.33 2.95 1.34v.3l-.17 6.77c-.05 2.94 2.54 3.73 4.63 3.1l12.85-4.35c.84-.39 1.14-.75 1.15-1.01L29.7 39.28c-1.45.63-4.64.6-4.64-2.5 0-1.55.06-3.06.12-4.33.04-.9.07-1.7.07-2.27 0-2.45-.34-2.93-1.52-2.96-.78-.02-1.76.5-2.27.78l-.26.13-12.38 6.14Zm29.75 3.3c-.77 2.01-4.4 5.32-10.86 5.43-8.06.14-11.8-5.82-12.64-10.87l7.3-3.67c.64-.3 1.77-.52 1.77 1.07 0 .56-.04 1.31-.08 2.15-.15 2.68-.34 6.27.57 7.48 1.07 1.42 2.4 1.48 5.3.95a59.8 59.8 0 0 0 5.87-1.69c1.1-.35 2.1-.67 2.77-.86Z" fill="#fff"/><defs><linearGradient id="ahvvwsgtb" x1="10.42" y1="9.71" x2="68.15" y2="76.02" gradientUnits="userSpaceOnUse"><stop stop-color="#1A1E21"/><stop offset="1" stop-color="#06060A"/></linearGradient></defs></svg>