<!-- by TradingView --><svg xmlns="http://www.w3.org/2000/svg" width="56" height="56" viewBox="0 0 56 56"><path fill="#004DA6" d="M0 0h56v56H0z"/><path d="M13.63 27.93c-.45 1.56.73 3.01 3.22 3.07h3.79l1.18-2h-3.3c-.73 0-.82-.46-.82-.46H22l1.18-2.1H19c.03-.05.36-.44.86-.44h3.5l1.17-2h-4.27c-2.94 0-6.08 2.03-6.64 3.93Zm18.59 0c-.46 1.56.73 3.01 3.21 3.07h3.67l1.18-2H37.1c-1.9 0-1.01-3 2.32-3h2.24l1.17-2h-3.99c-3.4 0-6.07 2.03-6.63 3.93ZM33.85 24h-4.2c-2.58 0-5.47 1.53-6.55 3.46l-.6 1.08h3.85c0 .07-.35.46-.97.46h-3.07l-1.18 2h4.33c2.29 0 5.2-1.3 6.2-3.1l.83-1.46h-4.14c0-.1.37-.44.78-.44h3.53l1.19-2Z" fill="#fff"/><path d="M50.89 25.67c-.58-1.65-3.27-2.16-6.01-1.15a7.82 7.82 0 0 0-2.83 1.76 10.24 10.24 0 0 1 1.52.28c.73.19 1.56.4 3.2.35l-.15.28a9.95 9.95 0 0 1-3.17-.34l-.7-.16a9.48 9.48 0 0 0-4.08.14l-.22.4a8.91 8.91 0 0 1 4.91 0c.71.18 1.51.38 3.04.35l-.15.28a9.58 9.58 0 0 1-3-.34l-.7-.16a9.45 9.45 0 0 0-4.28.19l-.23.4a8.92 8.92 0 0 1 4.44-.21c.23.04.44.1.67.16.68.17 1.45.37 2.87.35l-.15.28a9.75 9.75 0 0 1-2.89-.34 9.72 9.72 0 0 0-5.09.03l-.23.4a9.23 9.23 0 0 1 3.23-.37c-.09.38-.05.7.08 1.08.58 1.65 3.27 2.16 6.01 1.15 2.74-1 4.49-3.16 3.9-4.81Zm-37 .76h-2.95c.04-.12.43-.43 1.15-.43h2l1.16-2h-2.82a7.91 7.91 0 0 0-6.59 3.68L4 31h3.8l1.3-2.48h3.62l1.17-2.1Z" fill="#fff"/></svg>