<?xml version="1.0" encoding="UTF-8" standalone="no"?>
<!DOCTYPE svg PUBLIC "-//W3C//DTD SVG 1.1//EN" "http://www.w3.org/Graphics/SVG/1.1/DTD/svg11.dtd">
<svg
   xmlns:i="http://ns.adobe.com/AdobeIllustrator/10.0/"
   xmlns:svg="http://www.w3.org/2000/svg"
   xmlns="http://www.w3.org/2000/svg"
   version="1.1"
   id="svg7220"
   width="192.756"
   height="103.756">
  <defs
     id="defs7222" />
  <path
     id="path6670"
     d="m 81.764,10.169 -73.26,0 0,45.786 18.315,0 c -2.875,-3.825 -4.58,-8.581 -4.58,-13.734 0,-12.644 10.25,-22.895 22.895,-22.895 12.644,0 22.894,10.251 22.894,22.895 0,5.154 -1.704,9.909 -4.578,13.734 l 18.313,0 0,-45.786 10e-4,0 z"
     i:knockout="Off"
     style="clip-rule:evenodd;fill-rule:evenodd" />
  <path
     id="path6672"
     d="m 36.256,37.64 -0.279,0 0,54.947 54.945,0 0,-0.281 C 64.679,84.574 43.991,63.886 36.256,37.64 l 0,0 z"
     i:knockout="Off"
     style="clip-rule:evenodd;fill:#fe000c;fill-rule:evenodd" />
  <path
     id="path6674"
     d="m 152.467,52.51 c -0.094,0.229 -0.209,0.561 -0.34,0.998 -0.133,0.438 -0.199,0.799 -0.199,1.084 0,0.266 0.063,0.472 0.184,0.613 0.125,0.145 0.32,0.262 0.586,0.358 0.152,0.036 0.326,0.069 0.527,0.098 0.201,0.03 0.375,0.055 0.527,0.071 l 0,0.558 -4.795,0 0,-0.558 c 0.303,-0.037 0.602,-0.133 0.896,-0.285 0.295,-0.151 0.547,-0.332 0.756,-0.54 0.17,-0.191 0.313,-0.396 0.428,-0.615 0.113,-0.216 0.189,-0.384 0.229,-0.498 l 6.215,-16.17 0.512,0 6.418,18.108 1.908,0 0,0.558 -7.762,0 0,-0.558 2.51,0 -2.074,-5.762 -5.504,0 -1.022,2.54 0,0 z m 3.902,-10.185 -2.736,7.084 5.16,0 -2.424,-7.084 0,0 z m 27.883,-4.14 -2.166,0 0,17.542 2.166,0 0,0.563 -7.475,0 0,-0.563 2.166,0 0,-17.542 -3.172,0 c -0.248,0 -0.59,0.029 -1.027,0.087 -0.438,0.055 -0.82,0.236 -1.143,0.541 -0.268,0.248 -0.443,0.533 -0.531,0.855 -0.084,0.324 -0.146,0.626 -0.184,0.912 -0.037,0.304 -0.068,0.64 -0.088,1.009 -0.018,0.373 -0.031,0.809 -0.041,1.312 -0.01,0.503 -0.02,1.098 -0.027,1.781 -0.012,0.684 -0.025,1.482 -0.045,2.394 l -0.111,4.363 c -0.02,0.704 -0.043,1.333 -0.072,1.895 -0.029,0.56 -0.139,1.059 -0.328,1.495 -0.15,0.36 -0.324,0.637 -0.512,0.827 -0.188,0.188 -0.406,0.313 -0.68,0.456 -0.275,0.142 -0.693,0.18 -1.223,0.18 -0.93,0 -1.689,-0.209 -2.275,-0.628 -0.266,-0.191 -0.508,-0.453 -0.727,-0.787 -0.217,-0.333 -0.328,-0.767 -0.328,-1.301 0,-0.61 0.172,-1.116 0.516,-1.517 0.342,-0.399 0.826,-0.599 1.453,-0.599 0.533,0 0.955,0.151 1.27,0.456 0.313,0.305 0.471,0.667 0.471,1.085 0,0.495 -0.121,0.933 -0.363,1.313 -0.094,0.134 -0.18,0.256 -0.254,0.371 -0.074,0.114 -0.111,0.22 -0.111,0.313 0,0.096 0.047,0.22 0.143,0.372 0.092,0.151 0.301,0.227 0.619,0.227 0.266,0 0.527,-0.08 0.791,-0.24 0.262,-0.162 0.547,-0.48 0.676,-0.852 0.129,-0.369 0.24,-0.779 0.268,-1.254 0.029,-0.475 0.053,-1.081 0.072,-1.821 l 0.113,-4.361 c 0.018,-0.949 0.037,-1.717 0.057,-2.306 0.018,-0.588 0.029,-1.053 0.029,-1.396 l 0,-2.307 c 0,-0.283 -0.016,-0.616 -0.045,-0.996 -0.027,-0.378 -0.166,-0.73 -0.41,-1.053 -0.152,-0.19 -0.324,-0.342 -0.514,-0.455 -0.191,-0.114 -0.381,-0.205 -0.568,-0.271 -0.189,-0.066 -0.494,-0.101 -0.912,-0.101 l -0.684,0 0,-0.561 15.207,0 0,0.562 -10e-4,0 z m -61.898,0.018 -2.402,0 5.629,11.86 3.518,-8.973 c 0.094,-0.21 0.188,-0.501 0.271,-0.872 0.084,-0.371 0.129,-0.672 0.129,-0.9 0,-0.381 -0.129,-0.663 -0.387,-0.844 -0.256,-0.181 -0.557,-0.271 -0.9,-0.271 l -0.4,0 0,-0.571 4.857,0 0,0.571 c -0.436,0 -0.803,0.076 -1.098,0.229 -0.295,0.154 -0.545,0.328 -0.742,0.527 -0.201,0.201 -0.359,0.405 -0.473,0.615 -0.113,0.208 -0.191,0.37 -0.229,0.485 l -4.031,10.432 c -0.229,0.571 -0.479,1.081 -0.697,1.529 -0.217,0.449 -0.42,0.824 -0.695,1.271 -0.295,0.479 -0.453,0.742 -0.754,1.134 -0.344,0.45 -0.527,0.644 -0.934,1.005 -0.352,0.314 -0.688,0.532 -1.021,0.667 -0.332,0.132 -0.719,0.197 -1.158,0.197 -0.588,0 -1.104,-0.09 -1.543,-0.271 -0.438,-0.182 -0.818,-0.405 -1.141,-0.672 -0.496,-0.418 -0.814,-0.852 -0.957,-1.3 -0.145,-0.448 -0.215,-0.853 -0.215,-1.214 0,-0.249 0.037,-0.496 0.113,-0.744 0.076,-0.249 0.189,-0.471 0.344,-0.672 0.152,-0.198 0.352,-0.366 0.6,-0.499 0.248,-0.133 0.543,-0.201 0.887,-0.201 0.609,0 1.066,0.172 1.371,0.515 0.305,0.343 0.457,0.688 0.457,1.027 0,0.211 -0.039,0.421 -0.113,0.631 -0.078,0.209 -0.172,0.392 -0.285,0.543 -0.23,0.306 -0.488,0.539 -0.773,0.7 -0.287,0.162 -0.43,0.366 -0.43,0.614 0,0.19 0.121,0.399 0.357,0.63 0.238,0.227 0.623,0.341 1.158,0.341 0.42,0 0.826,-0.104 1.215,-0.313 0.391,-0.21 0.721,-0.457 0.986,-0.743 0.209,-0.229 0.4,-0.485 0.572,-0.771 0.17,-0.287 0.285,-0.477 0.342,-0.571 l -7.316,-15.122 -1.973,0 0,-0.571 7.861,0 0,0.572 0,0 z m -8.465,4.349 c -0.029,-0.304 -0.1,-0.636 -0.213,-0.995 -0.115,-0.362 -0.285,-0.732 -0.514,-1.113 -0.229,-0.381 -0.533,-0.75 -0.912,-1.113 -0.742,-0.7 -1.605,-1.16 -2.596,-1.379 -0.988,-0.219 -1.967,-0.328 -2.938,-0.328 l -8.125,0 0,0.562 2.166,0 0,17.542 -2.166,0 0,0.562 7.477,0 0,-0.562 -2.166,0 0,-6.853 2.773,0 c 1.121,0 2.199,-0.126 3.227,-0.383 1.029,-0.257 1.867,-0.708 2.516,-1.354 0.133,-0.134 0.285,-0.309 0.457,-0.525 0.17,-0.221 0.336,-0.486 0.5,-0.8 0.16,-0.314 0.295,-0.679 0.4,-1.098 0.104,-0.417 0.156,-0.892 0.156,-1.423 0.001,-0.188 -0.013,-0.436 -0.042,-0.74 l 0,0 z m -4.479,4.541 c -0.18,0.212 -0.381,0.39 -0.652,0.565 -0.229,0.134 -0.486,0.242 -0.771,0.328 -0.285,0.085 -0.564,0.151 -0.844,0.198 -0.275,0.049 -0.531,0.082 -0.77,0.1 -0.238,0.02 -0.414,0.029 -0.529,0.029 l -1.941,0 0,-10.127 1.941,0 c 0.533,0 1.09,0.049 1.672,0.143 0.508,0.083 0.98,0.29 1.422,0.605 0.033,0.025 0.068,0.046 0.1,0.071 0.029,0.023 0.063,0.041 0.092,0.065 0.15,0.132 0.287,0.27 0.404,0.414 0.76,0.881 1.246,2.229 1.246,3.738 -0.001,1.591 -0.542,2.996 -1.37,3.871 l 0,0 z m 37.176,-9.469 -0.693,0 c -0.152,0.589 -0.484,0.884 -0.998,0.884 -0.209,0 -0.426,-0.042 -0.654,-0.129 -0.227,-0.085 -0.549,-0.203 -0.969,-0.355 -0.379,-0.133 -0.734,-0.234 -1.066,-0.299 -0.332,-0.066 -0.717,-0.1 -1.152,-0.1 -0.455,0 -1.041,0.004 -1.621,0.109 -0.578,0.105 -1.211,0.209 -1.893,0.528 -0.602,0.281 -0.988,0.491 -1.566,1.002 -0.578,0.512 -1.123,1.166 -1.637,1.962 -0.568,0.931 -0.973,1.884 -1.209,2.86 -0.236,0.976 -0.355,2.007 -0.355,3.087 0,1.272 0.141,2.391 0.428,3.357 0.285,0.968 0.646,1.813 1.084,2.533 0.398,0.625 0.842,1.163 1.324,1.607 0.484,0.446 0.986,0.759 1.545,1.023 0.568,0.27 1.074,0.444 1.619,0.513 0.563,0.068 1.146,0.089 1.697,0.089 0.629,0 1.213,-0.068 1.754,-0.206 0.543,-0.138 1.051,-0.338 1.525,-0.605 0.285,-0.151 0.547,-0.294 0.783,-0.427 0.238,-0.133 0.26,-0.199 0.506,-0.199 0.191,0 0.338,0.047 0.441,0.144 0.105,0.094 0.191,0.203 0.258,0.326 0.066,0.126 0.113,0.252 0.143,0.386 0.027,0.132 0.039,0.521 0.039,0.577 l 0.643,0 0.002,-6.209 -0.52,0 c 0.01,0.138 0.016,0.276 0.016,0.419 0,0.99 -0.271,1.893 -0.715,2.586 -0.023,0.04 -0.047,0.08 -0.074,0.12 -0.49,0.738 -1.146,1.344 -1.961,1.817 -0.814,0.472 -1.621,0.708 -2.418,0.708 -0.51,0 -1.021,-0.114 -1.535,-0.34 -0.512,-0.229 -0.902,-0.479 -1.311,-0.843 -0.25,-0.221 -0.512,-0.508 -0.709,-0.77 -0.232,-0.321 -0.422,-0.656 -0.699,-1.464 -0.051,-0.148 -0.1,-0.306 -0.131,-0.456 -0.307,-1.295 -0.49,-2.977 -0.49,-4.817 0,-3.579 0.707,-5.92 1.512,-6.932 0.043,-0.057 0.162,-0.197 0.207,-0.253 0.135,-0.169 0.334,-0.369 0.543,-0.567 0.209,-0.199 0.42,-0.361 0.725,-0.523 0.352,-0.187 0.635,-0.316 1.035,-0.43 0.398,-0.113 0.869,-0.152 1.346,-0.152 0.76,0 1.441,0.16 2.049,0.483 0.607,0.32 1.092,0.726 1.453,1.216 0.17,0.246 0.322,0.539 0.455,0.879 0.133,0.339 0.246,0.692 0.342,1.061 0.096,0.369 0.172,0.717 0.229,1.047 0.055,0.332 0.094,0.6 0.111,0.807 l 0.564,0 0,-6.054 -0.002,0 z"
     i:knockout="Off"
     style="clip-rule:evenodd;fill-rule:evenodd" />
</svg>
