<!-- by TradingView --><svg width="56" height="56" viewBox="0 0 56 56" xmlns="http://www.w3.org/2000/svg"><path fill="#F0F3FA" d="M0 0h56v56H0z"/><path fill-rule="evenodd" d="M28 45a17 17 0 1 0 0-34 17 17 0 0 0 0 34Zm0 1a18 18 0 1 0 0-36 18 18 0 0 0 0 36Zm15.39-13.6A16.01 16.01 0 1 0 12 28a16 16 0 0 0 31.39 4.4Zm-30.21-2.08A31.92 31.92 0 0 1 21 26.27V21.4l-7.21 1.87a15.32 15.32 0 0 0-.77 5.44c.02.55.08 1.09.16 1.62Zm4.87 8.9a15.02 15.02 0 0 1-4.14-6.06c2.1-1.6 4.67-3 7.09-4.05v9.36l-2.95.76Zm.77.64 23.01-6.05a15 15 0 0 1-23.01 6.05Zm23.37-6.97-3.03.78-5-6.93a29.5 29.5 0 0 1 7.9-3.98 14.97 14.97 0 0 1 .13 10.13ZM40.6 19.87A42.93 42.93 0 0 0 30 25.92v-4.2l-3 .8v2.14c-1.1.2-1.93.38-3 .68V20.6l14.1-3.7c.95.88 1.8 1.88 2.51 2.97Zm-3.23-3.58L14.1 22.4A15.03 15.03 0 0 1 28 13c3.55 0 6.8 1.23 9.38 3.3ZM27 27.53c-1.13.1-1.9.24-3 .52v9.67l3-.82v-9.37Zm8.86 7-4.2-5.65L30 30.3v5.83l5.84-1.58.02-.02Z" fill="#0A47B9"/></svg>