<!-- by TradingView --><svg width="56" height="56" viewBox="0 0 56 56" xmlns="http://www.w3.org/2000/svg"><path fill="#082D69" d="M0 0h56v56H0z"/><path d="M9.1 29.1a2.24 2.24 0 0 1-3.2 0 2.24 2.24 0 0 1 0-3.2 2.24 2.24 0 0 1 3.2 0c.87.89.87 2.31 0 3.2Zm.88-4.08A3.49 3.49 0 0 0 5.05 25l-.03.02v.01l-.02.02a3.48 3.48 0 0 0 .02 4.93 3.5 3.5 0 1 0 4.96-4.96ZM25.04 24h-1.37a.45.45 0 0 0-.33.14l-3 3.26V24h-.9c-.24 0-.44.2-.44.43V31h1.34v-3.4l3 3.26c.09.09.2.14.33.14h1.37l-3.22-3.5 3.22-3.5ZM17 24h1.42v3.06c0 .24-.2.44-.43.44H17v-2.44l-5.15 5.8c-.08.09-.2.14-.32.14h-1.38l6.1-6.86c.08-.09.2-.14.32-.14H17Zm1.25 6.94c-.6-1.58-1.27-2.22-2.96-2.78-.1-.03-.07-.16.03-.16h2.65c.25 0 .45.19.45.42v2.5c0 .1-.14.11-.17.02ZM29.8 27.06c0 .05-.04.07-.07.07a.06.06 0 0 1-.06-.04c-.55-1.57-1.2-2.2-2.75-2.76a.06.06 0 0 1-.05-.07c0-.02.03-.05.07-.05h2.45c.22 0 .4.18.4.4v2.45ZM28.5 23a2.5 2.5 0 1 0 0 5 2.5 2.5 0 0 0 0-5ZM34.3 28.58v.67h-.72a.5.5 0 0 1-.3-.09c-.08-.05-.12-.13-.12-.25 0-.1.04-.18.11-.24a.5.5 0 0 1 .31-.09h.72Zm.64-.58h-1.39c-.16 0-.31.02-.44.07a1 1 0 0 0-.34.18.81.81 0 0 0-.21.29.88.88 0 0 0-.07.36c0 .2.05.38.17.53.1.13.25.24.44.3l-.92 1.23v.03l.02.01h.71l.03-.01.87-1.18h.49v1.16c0 .02.01.03.02.03h.62c.04 0 .06 0 .06-.03v-2.94c0-.02-.02-.03-.06-.03ZM40.28 29.5c0 .13-.02.25-.07.36a.9.9 0 0 1-.18.29.81.81 0 0 1-.27.19.87.87 0 0 1-.34.06.87.87 0 0 1-.35-.06.8.8 0 0 1-.27-.2.9.9 0 0 1-.25-.64c0-.13.02-.25.07-.36a.9.9 0 0 1 .18-.29.8.8 0 0 1 .27-.19c.1-.04.22-.06.35-.06.12 0 .23.02.34.06.1.05.2.11.27.2a.96.96 0 0 1 .25.65Zm.23-1.06a1.5 1.5 0 0 0-1.1-.44 1.56 1.56 0 0 0-1.09.44 1.47 1.47 0 0 0-.43 1.06 1.52 1.52 0 0 0 .43 1.06 1.49 1.49 0 0 0 1.1.44 1.57 1.57 0 0 0 1.09-.44 1.47 1.47 0 0 0 .43-1.06 1.51 1.51 0 0 0-.43-1.06ZM42.95 30.33c-.08.06-.2.1-.34.1h-.75v-.72h.75c.14 0 .26.03.34.1.08.05.12.14.12.26s-.04.2-.12.26Zm-.14-1.25a.46.46 0 0 1-.29.07h-.66v-.6h.66c.13 0 .22.03.29.09.07.05.1.12.1.22s-.03.16-.1.21Zm.78.5a.76.76 0 0 0-.36-.24.6.6 0 0 0 .2-.18.66.66 0 0 0 .13-.4.68.68 0 0 0-.27-.57.86.86 0 0 0-.3-.14 1.4 1.4 0 0 0-.37-.05h-1.4a.03.03 0 0 0-.03.03v2.94c0 .02 0 .03.02.03h1.51c.16 0 .31-.02.44-.06.13-.04.25-.1.34-.18a.77.77 0 0 0 .29-.62.86.86 0 0 0-.2-.56ZM46.64 28h-2.11a.03.03 0 0 0-.03.03l-.01.86c0 .28-.02.52-.03.72-.01.2-.03.35-.06.47a.53.53 0 0 1-.12.25.25.25 0 0 1-.19.07l-.12-.01a.45.45 0 0 1-.09-.02h-.02l-.01.02v.55l.01.02c.04.02.08.03.13.03a1.13 1.13 0 0 0 .6-.09.72.72 0 0 0 .3-.31c.08-.14.13-.33.17-.57.04-.23.06-.52.07-.86l.02-.57H46v2.37l.02.04h.62l.02-.04v-2.93a.03.03 0 0 0-.02-.03ZM49.28 30.4h-1.6v-.7h1.24c.02 0 .03-.01.03-.03v-.53a.03.03 0 0 0-.03-.03h-1.25v-.51h1.56c.02 0 .03-.02.03-.03v-.54a.03.03 0 0 0-.03-.03h-2.2a.03.03 0 0 0-.03.03v2.94c0 .02.01.03.03.03h2.25c.01 0 .02-.01.02-.03v-.54a.03.03 0 0 0-.02-.03ZM51.17 30.33c-.08.06-.2.1-.34.1h-.74v-.72h.74c.14 0 .26.03.34.1.08.05.12.14.12.26s-.04.2-.12.26Zm-.14-1.25a.45.45 0 0 1-.28.07h-.66v-.6h.66c.12 0 .22.03.28.09.07.05.1.12.1.22s-.03.16-.1.21Zm.91.74a.75.75 0 0 0-.5-.48.6.6 0 0 0 .2-.18.7.7 0 0 0 .13-.4.75.75 0 0 0-.07-.33.68.68 0 0 0-.2-.24.84.84 0 0 0-.29-.14 1.36 1.36 0 0 0-.36-.05h-1.4a.03.03 0 0 0-.02.03v2.94c0 .02.01.03.03.03h1.48c.16 0 .31-.02.44-.06a1 1 0 0 0 .33-.18c.1-.07.17-.17.22-.27.05-.1.07-.23.07-.35a.86.86 0 0 0-.05-.32Z" fill="#fff"/><path d="M35.33 28h.64c.02 0 .03.01.03.02v1.15L37.2 28h.9l-1.36 1.33L38.2 31h-.91l-1.06-1.23L36 30v.98s-.01.03-.04.03h-.63c-.02 0-.03-.01-.03-.03v-2.94c0-.02 0-.03.03-.03Z" fill="#fff"/></svg>