<!-- by TradingView --><svg width="56" height="56" viewBox="0 0 56 56" xmlns="http://www.w3.org/2000/svg"><path fill="#F0F3FA" d="M0 0h56v56H0z"/><path fill-rule="evenodd" d="M36.5 35.21c.94 5.26.3 9.33-2.07 10.48-2.4 1.16-5.99-.97-9.46-5.14-4.15.38-7.84-.93-9.72-3.9-2.15-3.36-1.43-8 1.41-12.08-2.05-7.02-1.74-12.85 1.17-14.26 2.6-1.25 6.59 1.34 10.32 6.23 5.27-1.42 10.29-.27 12.6 3.37 2.74 4.3.81 10.67-4.25 15.3Zm-2.13-7.39c2.22-2.98 2.92-6.12 1.52-8.13-1.21-1.73-3.72-2.23-6.62-1.6a46.74 46.74 0 0 1 5.1 9.73Zm-5.93-9.53a43.34 43.34 0 0 1 5.2 10.44 19.43 19.43 0 0 1-7.55 5.37 41.54 41.54 0 0 1-3.15-5.6 42.1 42.1 0 0 1-2.2-5.7c.63-.6 1.32-1.17 2.06-1.7a18.23 18.23 0 0 1 5.64-2.8Zm-1.12-1.5c-2.42-3.06-4.79-4.66-6.28-3.94-1.55.75-1.78 3.84-.85 7.9a21.78 21.78 0 0 1 7.13-3.97Zm-9.85 10.27c-1.17 2.32-1.36 4.57-.26 6.13.82 1.16 2.23 1.77 3.96 1.85a49.15 49.15 0 0 1-3.7-7.98Zm13.1 12.01a21.38 21.38 0 0 0 4.55-2.7c-.03 1.8-.48 3.06-1.4 3.5-.83.4-1.93.08-3.16-.8Z" fill="url(#achq1s0co)"/><defs><linearGradient id="achq1s0co" x1="17" y1="10.51" x2="35.32" y2="45.34" gradientUnits="userSpaceOnUse"><stop stop-color="#FF7819"/><stop offset=".1" stop-color="#FEA90B"/><stop offset=".27" stop-color="#FFE800"/><stop offset=".4" stop-color="#F76021"/><stop offset=".53" stop-color="#E34A25"/><stop offset=".72" stop-color="#E34825"/><stop offset="1" stop-color="#891C22"/></linearGradient></defs></svg>