<!-- by TradingView --><svg xmlns="http://www.w3.org/2000/svg" width="56" height="56" viewBox="0 0 56 56"><path fill="#F0F3FA" d="M0 0h56v56H0z"/><path fill-rule="evenodd" d="M13 26.66v-8.04c0-.49.27-.94.71-1.18l13.44-7.2a2.07 2.07 0 0 1 1.97.01l13.18 7.2c.43.23.7.68.7 1.16v8.05c0 .74-.6 1.34-1.36 1.34H14.36c-.75 0-1.36-.6-1.36-1.34zm4.06-6.9c-.46-.3-1.1-1.05 0-1.53 1.09-.49 7.19-3.61 10.1-5.11.45-.19 1.35-.29 1.33.8.47.25 1.17.89.24 1.45-.93.56-7.5 3.84-10.67 5.41-.53.05-1.47-.09-1-1.02zm23.81 6.72c-.02.17-.16.52-.58.52-.52 0-.79-.4-.79-.7v-7.28c.31-.27 1.05-.79 1.5-.75.03-.09.16-.27.36-.27.25 0 .64.42.64.61v7.53c-.1.17-.49.49-1.13.34zM15 27v-5h1.88c.9 0 1.62.7 1.62 1.55 0 .85-.73 1.45-1.62 1.45h-.38v2H15zm1.4-4.01v1.12c.19-.05.58-.25.58-.64s-.4-.48-.59-.48zM28 22v5h1.5v-1.62L30.67 27H32l-1.46-2.12c.57-.22.96-.7.96-1.34 0-.85-.73-1.54-1.62-1.54H28zm1.46 2.11v-1.12c.2 0 .61.1.61.48 0 .39-.41.59-.61.64zM20.5 22H19v5h1.5v-2h1v2h3.02l.28-1h1.23l.23 1h1.6l-1.94-5h-.87L23 27v-5h-1.5v2h-1v-2zm4.58 3h.72l-.32-1.4-.4 1.4zm7.42-3h2l1 2.12L36.75 22h1.75l-.5.84V27h-1.5v-2.6l-1 1.55-1-1.54V27H33v-4.16l-.5-.84zm-14.8 8H19l.51 1.7.78-1.7h1.28L20 32.45V35h-1v-2.55L17.7 30zm4.3.63V35h1v-3.1l2.04 3.1H26v-5h-1v3.35L23.3 30h-1.47l.17.63zm4.4.4l.24-1.03h3.9l-.18 1a2.84 2.84 0 0 0-1.36-.36V35h-1v-4.36c-.33.01-1.34.1-1.6.4zM31 35v-5h1.04v2h1.33v-2h1.13v5h-1.13v-2H32v2h-1zm4-5v5h2.56l.44-1.17-1.01.67H36v-1.75c.22-.03.7-.02 1.08.21l.4-1c-.3.09-.96.25-1.48.25v-1.63a4.3 4.3 0 0 1 1.45.4l.4-.98H35zm3.45 1.06l.26-1.06h3.03l-2.15 4.33h1.12c.25-.15.8-.48.97-.67L41.3 35H38l2.22-4.13c-.4-.09-1.3-.17-1.77.2zm-21.21-1v.97c0-.3-1.2-.35-1.2.15s.12.59.77 1.06c.63.46.62 1.14.62 1.26v.01c0 1.75-1.74 1.6-2.6 1.31v-1.16c.1.22.42.66.88.66.57 0 .7-.53.7-.8 0-.28-.17-.67-.79-1-.62-.32-.68-.99-.68-1.07 0-1.5 1.53-1.55 2.3-1.39zM41 38.6v-2.66c-.21-.18-.7-.42-1.02 0-.33.02-.98.17-.98.6v2.06c.19.28.64.5 1.1 0 .04.17.2.51.51.51s.39-.34.39-.5zm-24.84-1c.09-.56.52-1.53 1.56-.89 1.03.64 7.22 3.96 10.19 5.55.4.27.95.96-.16 1.58-.02.54-.32 1.5-1.34 1.04-1.03-.46-7.62-4.09-10.78-5.84-.31-.42-.64-1.29.53-1.44z" fill="#0194A8"/></svg>