<!-- by TradingView --><svg width="56" height="56" viewBox="0 0 56 56" xmlns="http://www.w3.org/2000/svg"><path fill="url(#aorcjwuas)" d="M0 0h56v56H0z"/><path d="M25.05 12h.57v11.26c0 .8-.08 1.45-.48 2.1l-2.16 3.53a3.87 3.87 0 0 1-1.29 1.37l-9.35 5.47c-.03.01-.05 0-.07-.02l-.27-.43v-.02l5.7-5.62c.24-.25.5-.59.76-1.01l3.82-6.25c.42-.7.66-1.4.86-2.26l1.9-8.12Zm5.35 0h.57l1.96 8.34c.17.77.46 1.47.84 2.1l3.78 6.17c.27.44.6.86 1 1.26l5.42 5.35c.04.03.04.07.01.12l-.22.36c-.02.04-.05.05-.1.03l-9.33-5.47a3.35 3.35 0 0 1-1.14-1.15l-2.33-3.78a3.1 3.1 0 0 1-.43-1.65L30.4 12Zm10.72 28h.02l.28-.47c.02-.04.02-.07-.02-.09l-9.22-5.74a3.85 3.85 0 0 0-2.09-.7 228.7 228.7 0 0 0-3.25 0c-.75 0-1.2.02-1.35.04-.5.07-.97.24-1.4.5a19285.04 19285.04 0 0 1-9.5 5.95v.04l.27.47h.03c2.38-.72 4.26-1.47 5.63-2.02.86-.34 1.52-.6 1.98-.73.57-.16 1.3-.25 1.94-.25h7.68c.47 0 1.03.15 1.66.33 1.26.37 2.52.87 3.79 1.37 1.18.47 2.37.94 3.55 1.3Z" fill="#fff"/><defs><linearGradient id="aorcjwuas" x1="10.42" y1="9.71" x2="68.15" y2="76.02" gradientUnits="userSpaceOnUse"><stop stop-color="#1A1E21"/><stop offset="1" stop-color="#06060A"/></linearGradient></defs></svg>