<!-- by TradingView --><svg width="56" height="56" viewBox="0 0 56 56" xmlns="http://www.w3.org/2000/svg"><path fill="#F0F3FA" d="M0 0h56v56H0z"/><path d="M40 14v9h-9l9-9Z" fill="#4C9D37"/><path d="M40 23v9h-9l9-9Z" fill="#6FB93E"/><path d="M31 23v9h-9l9-9Z" fill="#B8BA3B"/><path d="M31 32v9h-9l9-9Z" fill="#FEB93A"/><path d="M22 32v9h-9l9-9Z" fill="#FD8900"/><path d="M31 14h9l-9 9v-9Z" fill="#5FB63E"/><path d="M31 23h9l-9 9v-9Z" fill="#86CF52"/><path d="M22 23h9l-9 9v-9Z" fill="#C8CC3A"/><path d="M22 32h9l-9 9v-9Z" fill="#FDCA4E"/><path d="M13 32h9l-9 9v-9Z" fill="#F9AA00"/></svg>