<!-- by TradingView --><svg width="56" height="56" viewBox="0 0 56 56" xmlns="http://www.w3.org/2000/svg"><path fill="#F0F3FA" d="M0 0h56v56H0z"/><path d="M10.03 35.64C12.1 22.58 25.54 18.44 32 18c-12.83 5.57-14.5 15.28-15.06 16.66-.62 1.5-1.98 4.39-4.65 4.34-2.13-.04-2.4-2.26-2.26-3.36Z" fill="#9A9A9A"/><path d="M18.57 35.64C20.64 22.58 34.07 18.44 40.5 18 27.7 23.57 26.03 33.28 25.47 34.66c-.62 1.5-1.98 4.39-4.64 4.34-2.13-.04-2.4-2.26-2.26-3.36Z" fill="#26C0FE"/><path d="M27.03 35.64C29.1 22.58 42.54 18.44 49 18c-12.83 5.57-14.5 15.28-15.06 16.66-.62 1.5-1.98 4.39-4.65 4.34-2.13-.04-2.4-2.26-2.26-3.36Z" fill="#010101"/></svg>