<!-- by TradingView --><svg width="56" height="56" viewBox="0 0 56 56" xmlns="http://www.w3.org/2000/svg"><path fill="#CECDC9" d="M0 0h56v56H0z"/><path d="m14.85 16.71 4.1 11.17a.3.3 0 0 1 0 .2l-4.1 11.11a.26.26 0 0 1-.11.16.24.24 0 0 1-.18.03.25.25 0 0 1-.15-.1.28.28 0 0 1-.05-.19V16.81c0-.06 0-.13.05-.18.03-.05.09-.09.15-.1.06-.02.12 0 .18.03.05.03.09.09.1.15Z" fill="url(#axbt23shx)"/><path d="M14.6 39.55h-.08c-.13 0-.08.65-.12.66-.12-.36-.2-.73-.24-1.12-.16-2.08-.14-8.76-.16-11.59 0 0 .05-7.83.16-10.67.02-.16.04-.32.08-.47 0-.23.18-.65.27-.64.1.01 0 .33.28.69.06.1.13.18.21.25l4.11 11.17a.5.5 0 0 1 0 .35l-4.1 11.1c-.13.11-.26.2-.4.27Zm0-22.85a.07.07 0 0 0-.04.03.08.08 0 0 0-.01.06v22.3a.08.08 0 0 0 0 .06l.03.02.03.01a.07.07 0 0 0 .08 0L18.75 28l-4.1-11.17-.01-.06a.07.07 0 0 0-.03-.03v-.04Z" fill="#1D1D1B"/><path d="M15.17 15.38a52.3 52.3 0 0 1 4.13-.2c1.8 0 3.48 0 5.03.2a.6.6 0 0 1 .37.12c.1.08.19.2.23.32l2.6 7.72h2.38v-7.49a.7.7 0 0 1 .19-.47c.12-.13.28-.2.44-.2a74.1 74.1 0 0 1 4.6-.17c1.6 0 3.25 0 4.77.17a.6.6 0 0 1 .36.11c.11.08.2.2.24.32l3.97 11.26c.03.1.05.21.03.32-.01.11.13.43.07.52-.06.09-.31-.05-.4 0a.6.6 0 0 1-.3.07H19.42a.6.6 0 0 1-.35-.11.67.67 0 0 1-.23-.3l-4.2-11.26a.71.71 0 0 1 .04-.61.65.65 0 0 1 .2-.23.6.6 0 0 1 .29-.1Z" fill="url(#bxbt23shx)"/><path d="M43.95 28.18H19.42a.78.78 0 0 1-.45-.16.86.86 0 0 1-.3-.4l-4.2-11.25a.91.91 0 0 1 .08-.8.83.83 0 0 1 .29-.28c.11-.07.24-.1.38-.1a56.31 56.31 0 0 1 9.18 0c.17 0 .32.05.46.15.14.1.24.25.3.42l2.54 7.62h2.12v-7.33a.9.9 0 0 1 .23-.6.79.79 0 0 1 .58-.26c1.52-.1 3.06-.18 4.59-.19 1.53-.01 3.19.02 4.77.19.17 0 .32.06.46.15.14.1.24.24.3.4l3.96 11.27c.05.13.07.27.05.4-.02.15 0 .38-.07.5-.08.11-.24.1-.36.17a.77.77 0 0 1-.38.1ZM15.23 15.49c-.24 0-.48.27-.5.5-.02.09 0 .17.02.24l4.2 11.26c.04.09.1.17.17.22.08.05.16.08.25.08H44.38l.18.04c0-.08-.16-.61-.18-.68l-3.97-11.26a.48.48 0 0 0-.16-.23.44.44 0 0 0-.27-.1c-1.55-.1-3.13-.16-4.67-.16h-.08c-1.52 0-3.06 0-4.58.16a.43.43 0 0 0-.33.13.48.48 0 0 0-.13.35v7.62h-2.75L24.8 15.8a.48.48 0 0 0-.17-.23.44.44 0 0 0-.26-.09 55.68 55.68 0 0 0-9.15 0Z" fill="#1D1D1B"/><path d="m33 23.66-2.82-7.72v7.72H33Z" fill="url(#cxbt23shx)"/><path d="M39.98 40.53a48 48 0 0 1-9.44 0 .37.37 0 0 1-.16-.05.4.4 0 0 1-.13-.13.41.41 0 0 1 0-.37l2.64-7a.6.6 0 0 0-.06-.52.55.55 0 0 0-.19-.18.51.51 0 0 0-.24-.07h-4.41a.52.52 0 0 0-.3.1.57.57 0 0 0-.2.28l-2.54 7.56c-.03.1-.1.2-.2.27-.08.07-.19.1-.3.1a38.27 38.27 0 0 1-9.38 0 .54.54 0 0 1-.25-.06.58.58 0 0 1-.19-.19.59.59 0 0 1 0-.53l4.28-11.43c.04-.08.1-.16.18-.22a.52.52 0 0 1 .26-.1h25.03c.05 0 .1.02.15.05.05.03.1.06.12.11a.37.37 0 0 1 .04.33l-4.18 11.67a.6.6 0 0 1-.21.27c-.1.07-.2.1-.32.1Z" fill="url(#dxbt23shx)"/><path d="M19.76 41h-.43a38.6 38.6 0 0 1-4.27-.3.7.7 0 0 1-.32-.1.76.76 0 0 1-.32-.95l4.27-11.42a.74.74 0 0 1 .26-.35c.12-.09.26-.04.4-.04h25c.08 0 .2-.07.27-.03.07.04.13.1.18.17a.57.57 0 0 1 .06.5l-4.18 11.67a.8.8 0 0 1-.28.36.72.72 0 0 1-.42.14c-1.48.16-2.98.34-4.48.35-1.49.01-3.33-.18-4.98-.35a.53.53 0 0 1-.24-.07.56.56 0 0 1-.19-.18.61.61 0 0 1 0-.55l2.64-7.04a.4.4 0 0 0-.03-.35.37.37 0 0 0-.13-.12.34.34 0 0 0-.16-.05h-4.42a.34.34 0 0 0-.2.07c-.07.05-.11.11-.14.19l-2.53 7.6a.76.76 0 0 1-.25.36.69.69 0 0 1-.4.14c-1.57.21-3.14.33-4.71.35Zm-.41-12.82a.33.33 0 0 0-.2.06c-.05.05-.1.1-.12.18l-4.28 11.42a.39.39 0 0 0 0 .36.4.4 0 0 0 .13.11c.05.03.1.05.16.05a38.25 38.25 0 0 0 9.34 0c.07 0 .14-.02.2-.07.06-.04.11-.1.13-.18l2.54-7.6a.76.76 0 0 1 .26-.37c.12-.09.26-.14.4-.14h4.37c.11 0 .23.03.33.1.1.05.19.13.25.24a.8.8 0 0 1 .07.7l-2.56 7.02a.21.21 0 0 0 0 .19.2.2 0 0 0 .06.06 50.27 50.27 0 0 0 5.06.34c1.65 0 2.98-.16 4.46-.31.07 0 .15-.03.21-.08a.42.42 0 0 0 .15-.19l4.18-11.67a.17.17 0 0 0-.02-.15.16.16 0 0 0-.05-.06.15.15 0 0 0-.08-.01H19.35Z" fill="#1D1D1B"/><path d="M30 40.1v-7.87h2.32c.1 0 .18.02.26.06.08.05.15.11.2.19a.6.6 0 0 1 .06.54l-2.7 7.13c0 .02-.02.03-.04.05a.07.07 0 0 1-.05 0 .07.07 0 0 1-.05-.03.08.08 0 0 1 0-.06Z" fill="#383736"/><path d="M30.35 40.61s-.19-.04-.28-.1c-.06-.05-.19-.13-.2-.29a.5.5 0 0 1 0-.11v-7.99h2.38c.1 0 .21.03.3.08a.71.71 0 0 1 .3.86l-2.63 7.13a.17.17 0 0 1-.08.08l.2.34Zm-.28-8.3v7.72L32.73 33a.52.52 0 0 0-.05-.46.48.48 0 0 0-.16-.16.44.44 0 0 0-.22-.06h-2.23Zm14.9-4.53c.04.14.04.29 0 .42l-.3.8.02-2.03.28.81Z" fill="#1D1D1B"/><path d="m19.2 28-.35.14L14.6 16.7a1.05 1.05 0 0 1 0-.43c.03-.12.08-.24.14-.34l4.63 11.85-.18.2Z" fill="#fff"/><path d="m18.86 27.74.36.16-4.45 11.98a.34.34 0 0 0 0 .18 1.54 1.54 0 0 1-.14-.4 1.65 1.65 0 0 1 0-.38v-.15l4.23-11.39Z" fill="#fff"/><path d="M44.55 27.8h-25.6c-.1 0-.16.07-.16.16v.05c0 .1.07.17.15.17h25.52c.09 0 .14-.08.14-.17 0-.1-.05-.22-.05-.22Z" fill="#FCFCFC"/><defs><linearGradient id="axbt23shx" x1="16.66" y1="16.52" x2="16.66" y2="39.38" gradientUnits="userSpaceOnUse"><stop stop-color="#1D1A15"/><stop offset="1" stop-color="#D2CFCA"/></linearGradient><linearGradient id="bxbt23shx" x1="29.55" y1="15.19" x2="29.55" y2="27.98" gradientUnits="userSpaceOnUse"><stop stop-color="#BCB4AD"/><stop offset="1" stop-color="#FFFEFF"/></linearGradient><linearGradient id="cxbt23shx" x1="31.59" y1="15.94" x2="31.59" y2="23.66" gradientUnits="userSpaceOnUse"><stop stop-color="#2C2824"/><stop offset="1" stop-color="#A39B98"/></linearGradient><linearGradient id="dxbt23shx" x1="29.64" y1="28" x2="29.64" y2="40.82" gradientUnits="userSpaceOnUse"><stop stop-color="#393532"/><stop offset="1" stop-color="#EAE5E2"/></linearGradient></defs></svg>