<!-- by TradingView --><svg width="56" height="56" viewBox="0 0 56 56" xmlns="http://www.w3.org/2000/svg"><path fill="url(#ashtxu0b0)" d="M0 0h56v56H0z"/><path d="M5.12 33c-.84-5.06 2.83-9.43 7.88-10h2v10h-2v-8a6.7 6.7 0 0 0-5.78 8h-2.1Zm14.94-12.66c.76-.21 1.54-.32 2.33-.34 2.13 0 4.25 1 5.76 2.5a7.85 7.85 0 0 1 0 11.18 8.1 8.1 0 0 1-11.62-.27.34.34 0 0 1 0-.23.3.3 0 0 1 .25-.17.22.22 0 0 1 .13 0 9.97 9.97 0 0 0 2.53 1.37c.54.15 1.1.25 1.66.31h.46c.38-1.02.66-2.19.86-3.25h3.93L26.27 30h-3.63a17.17 17.17 0 0 0 .03-3.73l-.03-.27h3.64l.08-1.56h-3.94a21.2 21.2 0 0 0-.86-3.23 9.8 9.8 0 0 0-2.53.47c-.76.2-1.46.58-2.05 1.1l-.14.15a.36.36 0 0 1-.22 0 .28.28 0 0 1-.13-.14.3.3 0 0 1 0-.26 8.23 8.23 0 0 1 3.57-2.2ZM51 22.87V24.75c-1.63.1-3.34.97-3.34 3.13 0 2.17 1.68 3.15 3.34 3.25V33a5.18 5.18 0 0 1-5.27-4.26H45V33h-2V23h2v4h.73c.41-2.43 2.6-4.13 5.27-4.13Zm-14.78 8.35c1.3 0 2.43-.78 2.94-1.9h2.18a5.17 5.17 0 0 1-2.15 2.99 5.32 5.32 0 0 1-6.88-.87 5.13 5.13 0 0 1 0-6.84 5.28 5.28 0 0 1 9.03 2.12h-2.16a3.22 3.22 0 1 0-2.96 4.5Z" fill="#fff"/><defs><linearGradient id="ashtxu0b0" x1="0" y1="28" x2="56" y2="28" gradientUnits="userSpaceOnUse"><stop stop-color="#FF8601"/><stop offset=".5" stop-color="#FF9300"/><stop offset="1" stop-color="#FF8601"/></linearGradient></defs></svg>