<?xml version="1.0" standalone="no"?>
<!DOCTYPE svg PUBLIC "-//W3C//DTD SVG 20010904//EN"
 "http://www.w3.org/TR/2001/REC-SVG-20010904/DTD/svg10.dtd">
<svg version="1.0" xmlns="http://www.w3.org/2000/svg"
 width="270.000000pt" height="270.000000pt" viewBox="0 0 270.000000 270.000000"
 preserveAspectRatio="xMidYMid meet">
<metadata>
Created by potrace 1.14, written by Peter Selinger 2001-2017
</metadata>
<g transform="translate(0.000000,270.000000) scale(0.100000,-0.100000)"
fill="#000000" stroke="none">
<path d="M95 2680 c-22 -11 -51 -36 -65 -57 l-25 -37 0 -1236 0 -1236 25 -37
c14 -21 43 -46 66 -57 40 -20 59 -20 1266 -18 l1224 3 37 25 c21 14 46 43 57
66 20 40 20 64 20 1254 0 1188 0 1215 -20 1254 -12 25 -36 52 -61 68 l-43 28
-1220 0 c-1201 0 -1222 0 -1261 -20z"/>
</g>
</svg>
