<!-- by TradingView --><svg width="56" height="56" viewBox="0 0 56 56" xmlns="http://www.w3.org/2000/svg"><path fill="#97D8EA" d="M0 0h56v56H0z"/><path d="M12.63 32.6a16.1 16.1 0 0 0 1.52 3.63 15.36 15.36 0 0 0 4.06 4.74 15 15 0 0 0 3.54 2.12c.88.38 1.79.65 2.71.89a.5.5 0 0 0 .15 0h.11a3.86 3.86 0 0 1-.05-.08l-.07-.08-.2-.2-.38-.43c-.48-.61-.84-1.3-1.2-2a17.46 17.46 0 0 0-2.4-3.46c-.43-.5-.9-.97-1.36-1.44l-.26-.25c-.69-.7-1.44-1.32-2.23-1.9-.95-.7-1.82-1.47-2.5-2.45a6.26 6.26 0 0 1-1.2-4.17c.08-.89.34-1.71.76-2.48a9.11 9.11 0 0 1 2.66-2.97 25.15 25.15 0 0 0 4.78-4.58 14.48 14.48 0 0 0 1.69-2.56l.73-1.3c.3-.53.64-1.04 1.12-1.43l.07-.1.05-.1-.22.05a15.46 15.46 0 0 0-7.83 4.38 14.73 14.73 0 0 0-2.77 3.8 16.4 16.4 0 0 0-1.9 7.3 16.72 16.72 0 0 0 .62 5.07Zm21.24-16.55a24.5 24.5 0 0 0 2.9 3.53c.3.28.58.56.88.82.61.53 1.23 1.04 1.87 1.53.72.56 1.41 1.14 2 1.86a6.81 6.81 0 0 1 1.53 3.27c.1.61.12 1.22.02 1.84a6.9 6.9 0 0 1-1.66 3.44c-.6.7-1.28 1.3-2.02 1.82-.82.59-1.57 1.25-2.3 1.95a22.05 22.05 0 0 0-4.14 5.47l-.52.93a4.28 4.28 0 0 1-1.12 1.4l-.02.03.02.06a15.84 15.84 0 0 0 9.83-6.63c3.5-5.12 4-12.4.3-18.25a15.94 15.94 0 0 0-6.63-5.94c-1.2-.58-3.16-1.2-3.56-1.12l.06.06a7.57 7.57 0 0 0 .26.28l.38.4c.37.47.66 1 .95 1.53a43.82 43.82 0 0 0 .4.73c.18.33.36.67.57 1Z" fill="#124066"/></svg>