<!-- by TradingView --><svg width="56" height="56" viewBox="0 0 56 56" xmlns="http://www.w3.org/2000/svg"><path fill="#F0F3FA" d="M0 0h56v56H0z"/><path d="M43.6 31.55a16.06 16.06 0 0 0 .34-4.93l-6.2-6.11a1.72 1.72 0 0 1-.05-2.4l1.48-1.57c-.91-.88-1.92-1.66-3.02-2.31l-6 6.01c-.67.67-1.76.68-2.43 0l-2.74-2.72a2.5 2.5 0 1 1 .59-.6l2.75 2.73c.34.34.9.33 1.23 0l5.83-5.85a15.94 15.94 0 0 0-17.82 2.08l11 10.88c.33.33.88.34 1.22 0l3.3-3.22a1.72 1.72 0 0 1 2.41 0l8.12 8Zm-.24.94-8.46-8.34a.87.87 0 0 0-1.22 0l-3.31 3.22c-.67.66-1.74.65-2.41 0L16.93 16.44c-1.02.97-1.9 2.08-2.64 3.3l2.77 2.88c.64.67.64 1.73 0 2.39l-4.92 5.07c.19 1.46.57 2.85 1.12 4.15l1.9-1.81c.67-.63 1.71-.63 2.38 0l6.4 6.11a2.5 2.5 0 1 1-.56.63l-6.43-6.13a.87.87 0 0 0-1.2 0l-2.11 2.02A16 16 0 0 0 27.82 44l5.46-5.6c.7-.7 1.83-.68 2.5.04l2.03 2.2c1.13-.87 2.14-1.9 3-3.04l-6-6.12a.87.87 0 0 0-1.23 0l-3.21 3.21c-.67.67-1.75.67-2.42.02l-5.62-5.5A2.5 2.5 0 0 1 18 27.5a2.5 2.5 0 1 1 4.8.98l5.74 5.62c.34.33.89.33 1.23 0l3.21-3.22a1.72 1.72 0 0 1 2.44.01l5.88 6c.9-1.33 1.6-2.81 2.06-4.4Zm-6.24 8.66-1.97-2.13A.87.87 0 0 0 33.9 39l-4.85 4.97c2.99-.2 5.76-1.2 8.08-2.82ZM13.86 20.52a15.93 15.93 0 0 0-1.83 8.46l4.42-4.55a.87.87 0 0 0 0-1.21l-2.6-2.7Zm25.9-3.37-1.45 1.54a.87.87 0 0 0 .02 1.22l5.44 5.35c-.54-3.1-1.97-5.9-4.01-8.11ZM23.5 17a1.5 1.5 0 1 0 0-3 1.5 1.5 0 0 0 0 3ZM22 27.5a1.5 1.5 0 1 1-3 0 1.5 1.5 0 0 1 3 0ZM25.5 42a1.5 1.5 0 1 0 0-3 1.5 1.5 0 0 0 0 3Z" fill="url(#a)"/><defs><linearGradient id="a" x1="41.75" y1="20.08" x2="13.92" y2="36.15" gradientUnits="userSpaceOnUse"><stop stop-color="#FC0600"/><stop offset="1" stop-color="#FF6C00"/></linearGradient></defs></svg>