<?xml version="1.0" encoding="UTF-8" standalone="no"?>
<!-- Created with Inkscape (http://www.inkscape.org/) -->
<svg xmlns:dc="http://purl.org/dc/elements/1.1/" xmlns:cc="http://web.resource.org/cc/" xmlns:rdf="http://www.w3.org/1999/02/22-rdf-syntax-ns#" xmlns:svg="http://www.w3.org/2000/svg" xmlns="http://www.w3.org/2000/svg" xmlns:sodipodi="http://sodipodi.sourceforge.net/DTD/sodipodi-0.dtd" xmlns:inkscape="http://www.inkscape.org/namespaces/inkscape" id="svg4195" sodipodi:version="0.32" inkscape:version="0.45.1" width="1043" height="508" version="1.0" sodipodi:docbase="C:\Documents and Settings\9999\Рабочий стол\википедия" sodipodi:docname="nornik_logo.svg" inkscape:output_extension="org.inkscape.output.svg.inkscape">
  <metadata id="metadata4200">
    <rdf:RDF>
      <cc:Work rdf:about="">
        <dc:format>image/svg+xml</dc:format>
        <dc:type rdf:resource="http://purl.org/dc/dcmitype/StillImage"/>
      </cc:Work>
    </rdf:RDF>
  </metadata>
  <defs id="defs4198"/>
  <sodipodi:namedview inkscape:window-height="778" inkscape:window-width="1152" inkscape:pageshadow="2" inkscape:pageopacity="0.0" guidetolerance="10.0" gridtolerance="10.0" objecttolerance="10.0" borderopacity="1.0" bordercolor="#666666" pagecolor="#ffffff" id="base" inkscape:zoom="0.52476232" inkscape:cx="504.30923" inkscape:cy="285.96812" inkscape:window-x="-4" inkscape:window-y="-4" inkscape:current-layer="svg4195"/>
  <path style="opacity:1;fill:#0000aa;fill-rule:evenodd;stroke:#0000aa;stroke-width:1px;stroke-linecap:butt;stroke-linejoin:miter;stroke-opacity:1;fill-opacity:1" d="M 528.19915,99.538431 C 528.19915,99.538431 528.19915,98.864691 247.92339,287.51189 C 804.43261,288.18563 804.43261,288.18563 804.43261,288.18563 L 803.75891,288.18563 L 528.19915,99.538431" id="path4209" sodipodi:nodetypes="ccccc"/>
  <path style="fill:#a6a6a6;fill-opacity:1" d="M 113.97085,474.01281 C 104.76945,471.68904 97.959848,466.06043 94.038348,457.53704 C 90.814648,450.53045 90.729748,435.71787 93.874448,428.91463 C 96.935648,422.29179 102.44645,416.63903 108.49465,413.91779 C 116.05745,410.51514 130.43215,410.52305 138.01575,413.93404 C 148.82655,418.79655 155.60785,430.01499 155.60785,443.03703 C 155.60785,456.08853 148.75455,467.41686 138.08115,472.00845 C 132.18485,474.54497 120.06695,475.55236 113.97085,474.01281 z M 130.04445,457.01264 C 138.61805,451.78547 139.51565,437.00148 131.67725,430.1193 C 124.81295,424.09232 114.28765,426.88329 110.60035,435.70822 C 104.69205,449.84879 117.95665,464.38242 130.04445,457.01264 z M 419.95385,474.00903 C 411.53175,471.88431 405.35375,466.58314 401.34005,458.03704 C 397.86445,450.63662 397.62695,436.06961 400.86645,428.98622 C 403.77975,422.61591 408.68435,417.36627 414.64635,414.23684 C 418.99335,411.95507 420.97705,411.56304 428.23635,411.55106 C 434.75689,411.5403 437.66789,412.00278 440.73639,413.53703 L 444.73639,415.53703 L 445.02389,424.78703 C 445.18209,429.87453 445.02199,434.03703 444.66829,434.03703 C 444.31449,434.03703 442.70219,432.92387 441.08529,431.56333 C 436.95579,428.08858 431.00235,426.62912 426.72125,428.04201 C 417.16445,431.19603 413.06085,445.45902 419.39375,453.51006 C 424.06785,459.45224 431.87685,460.64766 439.08849,456.52499 C 441.48209,455.15662 443.84459,454.03704 444.33849,454.03704 C 444.83229,454.03704 445.23639,457.885 445.23639,462.58807 L 445.23639,471.13909 L 441.55029,472.67926 C 437.03289,474.56672 425.08145,475.30262 419.95385,474.00903 z M 277.65345,472.68171 C 277.36745,471.93628 277.26905,468.45479 277.43485,464.94506 L 277.73635,458.56373 L 281.53715,457.94954 C 283.62765,457.61173 285.87765,456.7969 286.53715,456.1388 C 287.35735,455.32039 287.89435,448.39971 288.23635,434.23963 L 288.73635,413.53703 L 311.73635,413.53703 L 334.73635,413.53703 L 334.73635,443.03703 L 334.73635,472.53704 L 326.23635,472.53704 L 317.73635,472.53704 L 317.23635,450.53703 L 316.73635,428.53703 L 311.73635,428.53703 L 306.73635,428.53703 L 306.23635,445.53703 C 305.92105,456.25556 305.28275,463.32856 304.50885,464.67918 C 302.57155,468.06021 297.51055,471.86678 293.45525,472.99303 C 287.94005,474.52477 278.28775,474.3346 277.65345,472.68171 z M 890.65332,472.68171 C 890.36722,471.93628 890.26892,468.4533 890.43472,464.94176 C 890.69422,459.44523 891.01432,458.51554 892.73612,458.25815 C 901.53302,456.94312 901.62982,456.68621 902.23612,433.03703 L 902.73612,413.53703 L 924.73612,413.53703 L 946.73612,413.53703 L 946.73612,443.03703 L 946.73612,472.53704 L 938.73612,472.53704 L 930.73612,472.53704 L 930.23612,450.53703 L 929.73612,428.53703 L 924.73612,428.53703 L 919.73612,428.53703 L 919.23612,445.03703 C 918.71232,462.32544 918.02252,465.20549 913.40472,469.38448 C 910.25182,472.23782 904.34352,473.94501 897.45482,473.99315 C 893.05952,474.02386 891.01722,473.63007 890.65332,472.68171 z M 30.705248,471.81655 C 30.429748,471.09871 30.324048,457.69216 30.470348,442.0242 L 30.736348,413.53703 L 38.736348,413.53703 L 46.736348,413.53703 L 47.236348,423.53703 L 47.736348,433.53703 L 56.736348,433.53703 L 65.736348,433.53703 L 66.236348,423.53703 L 66.736348,413.53703 L 75.236348,413.53703 L 83.736348,413.53703 L 83.736348,443.03703 L 83.736348,472.53704 L 75.236348,472.53704 L 66.736348,472.53704 L 66.236348,461.53704 L 65.736348,450.53703 L 56.736348,450.53703 L 47.736348,450.53703 L 47.236348,461.53704 L 46.736348,472.53704 L 38.971148,472.82938 C 33.289748,473.04327 31.071648,472.77149 30.705248,471.81655 z M 163.70525,471.81655 C 163.42975,471.09871 163.32405,457.69216 163.47035,442.0242 L 163.73635,413.53703 L 179.26565,413.53703 C 193.95345,413.53703 195.06435,413.67543 199.76565,416.09092 C 206.54015,419.5716 209.73335,425.21968 209.65365,433.58089 C 209.53585,445.94242 202.40405,452.77609 188.43655,453.91124 L 180.73635,454.53704 L 180.23635,463.53704 L 179.73635,472.53704 L 171.97115,472.82938 C 166.28975,473.04327 164.07165,472.77149 163.70525,471.81655 z M 187.67205,438.62832 C 189.52645,437.85353 191.34925,436.25649 191.72295,435.07936 C 193.08075,430.8012 187.75335,426.2217 182.56545,427.20747 C 181.14645,427.47709 180.66685,428.64559 180.42655,432.41896 C 179.91825,440.39945 181.07025,441.38674 187.67205,438.62832 z M 217.70455,471.81491 C 217.42945,471.09797 217.32405,457.69216 217.47035,442.0242 L 217.73635,413.53703 L 225.23635,413.53703 L 232.73635,413.53703 L 233.23635,429.03703 C 233.55205,438.82471 234.10485,444.37248 234.73635,444.09054 C 235.28635,443.84498 240.23635,436.86998 245.73635,428.59054 L 255.73635,413.53703 L 264.23635,413.53703 L 272.73635,413.53703 L 272.73635,443.03703 L 272.73635,472.53704 L 264.23635,472.53704 L 255.73635,472.53704 L 255.45915,457.71276 C 255.26185,447.15731 254.85345,442.99799 254.04095,443.26881 C 253.41345,443.478 248.76185,450.14893 243.70425,458.09311 L 234.50855,472.53704 L 226.35665,472.82774 C 220.36375,473.04145 218.07235,472.77321 217.70455,471.81491 z M 344.71325,471.83742 C 344.43335,471.1081 344.32405,457.69216 344.47035,442.0242 L 344.73635,413.53703 L 353.23635,413.53703 L 361.73635,413.53703 L 362.23635,424.53703 L 362.73635,435.53703 L 371.84085,436.11349 C 382.39565,436.78177 387.50475,438.91011 391.07035,444.12402 C 393.11515,447.11405 393.36245,448.48913 393.06605,455.21953 C 392.67545,464.08752 390.98535,467.1605 384.67965,470.46842 C 381.20535,472.29099 378.62425,472.57429 362.97925,472.85024 C 348.93035,473.09804 345.11585,472.88653 344.71325,471.83742 z M 374.23635,458.03704 C 376.78045,455.49294 376.76605,453.56676 374.18365,450.98439 C 372.58015,449.38087 371.10325,448.99797 367.43365,449.23439 C 362.76505,449.53518 362.73435,449.5606 362.41975,453.3922 C 361.94055,459.22555 362.58605,460.03704 367.70495,460.03704 C 370.90305,460.03704 372.82485,459.44855 374.23635,458.03704 z M 452.70459,471.81491 C 452.42949,471.09797 452.32409,457.69216 452.47039,442.0242 L 452.73639,413.53703 L 461.23639,413.53703 L 469.73639,413.53703 L 470.02139,423.78703 C 470.17809,429.42453 470.65429,434.03703 471.07969,434.03703 C 471.50499,434.03703 475.32669,429.31203 479.57219,423.53703 L 487.29149,413.03703 L 496.76389,413.03703 C 504.12609,413.03703 506.23639,413.34279 506.23639,414.40953 C 506.23639,415.16441 501.73639,421.41168 496.23639,428.29235 C 490.73639,435.17303 486.23639,441.40194 486.23639,442.13437 C 486.23639,442.8668 490.96139,449.65616 496.73639,457.22185 C 502.51139,464.78752 507.23639,471.44099 507.23639,472.00733 C 507.23639,472.64809 503.27869,473.03704 496.75879,473.03704 L 486.28109,473.03704 L 479.23639,462.53704 C 475.36179,456.76204 471.76749,452.03703 471.24899,452.03703 C 470.73049,452.03703 470.17809,456.64954 470.02139,462.28704 L 469.73639,472.53704 L 461.47059,472.82774 C 455.38419,473.04179 453.07299,472.77475 452.70459,471.81491 z M 511.70459,471.81491 C 511.42949,471.09797 511.32409,457.69216 511.47039,442.0242 L 511.73639,413.53703 L 519.73632,413.53703 L 527.73629,413.53703 L 528.01209,429.36177 C 528.18809,439.46264 528.65349,445.06464 529.29879,444.84956 C 529.85469,444.66423 534.90559,437.5431 540.52299,429.02482 L 550.73629,413.53703 L 559.23619,413.53703 L 567.73619,413.53703 L 567.73619,443.03703 L 567.73619,472.53704 L 559.23619,472.53704 L 550.73629,472.53704 L 550.45959,457.78704 C 550.29259,448.88361 549.78959,443.03703 549.19069,443.03703 C 548.64499,443.03703 543.81949,449.67453 538.46739,457.78704 L 528.73629,472.53704 L 520.47062,472.82774 C 514.38422,473.04179 512.07299,472.77475 511.70459,471.81491 z M 577.68889,471.77421 C 577.42239,471.07966 577.32399,457.69216 577.47029,442.0242 L 577.73619,413.53703 L 585.73619,413.53703 L 593.73619,413.53703 L 594.01159,429.28703 C 594.16309,437.94953 594.62699,445.03703 595.04249,445.03703 C 595.74229,445.03703 597.73679,442.07307 611.38719,420.74769 L 616.37309,412.95836 L 624.55469,413.24769 L 632.73619,413.53703 L 632.73619,443.03703 L 632.73619,472.53704 L 624.73619,472.53704 L 616.73619,472.53704 L 616.45979,457.21252 C 616.26169,446.23375 615.85799,441.99643 615.03619,442.27039 C 614.40519,442.4807 609.96369,448.82458 605.16599,456.3679 C 600.36829,463.91121 595.89139,470.74767 595.21719,471.56003 C 593.60409,473.50362 578.42369,473.68912 577.68889,471.77421 z M 663.70502,471.81655 C 663.42962,471.09871 663.32392,457.69216 663.47022,442.0242 L 663.73612,413.53703 L 671.73612,413.53703 L 679.73612,413.53703 L 680.23612,423.53703 L 680.73612,433.53703 L 689.73612,433.53703 L 698.73612,433.53703 L 699.23612,423.53703 L 699.73612,413.53703 L 708.23612,413.53703 L 716.73612,413.53703 L 716.73612,443.03703 L 716.73612,472.53704 L 708.23612,472.53704 L 699.73612,472.53704 L 699.23612,461.53704 L 698.73612,450.53703 L 689.73612,450.53703 L 680.73612,450.53703 L 680.23612,461.53704 L 679.73612,472.53704 L 671.97102,472.82938 C 666.28952,473.04327 664.07152,472.77149 663.70502,471.81655 z M 726.68882,471.77421 C 726.42232,471.07966 726.32392,457.69216 726.47022,442.0242 L 726.73612,413.53703 L 734.73612,413.53703 L 742.73612,413.53703 L 743.01222,428.78703 C 743.21522,440.00489 743.61192,444.03393 744.51222,444.02531 C 745.18542,444.01886 750.18272,437.02661 755.61732,428.48698 L 765.49842,412.96038 L 773.61732,413.24871 L 781.73612,413.53703 L 781.73612,443.03703 L 781.73612,472.53704 L 773.73612,472.53704 L 765.73612,472.53704 L 765.45942,457.78704 C 765.25662,446.97564 764.85602,443.03734 763.95942,443.03819 C 763.28662,443.03882 759.58612,448.06515 755.73612,454.20781 C 751.88612,460.35046 747.49582,467.09994 745.97992,469.20665 L 743.22362,473.03704 L 735.19852,473.03704 C 729.65742,473.03704 727.02342,472.64615 726.68882,471.77421 z M 792.70502,471.81655 C 792.42962,471.09871 792.32392,457.69216 792.47022,442.0242 L 792.73612,413.53703 L 800.73612,413.53703 L 808.73612,413.53703 L 809.02112,423.78703 C 809.18642,429.73212 809.72422,434.03703 810.30162,434.03703 C 810.84922,434.03703 814.76062,429.31203 818.99382,423.53703 L 826.69042,413.03703 L 836.46322,413.03703 C 842.51362,413.03703 846.23612,413.43011 846.23612,414.06898 C 846.23612,414.63656 841.51112,420.98533 835.73612,428.17737 C 829.96112,435.3694 825.23612,441.62161 825.23612,442.07115 C 825.23612,442.82171 838.47402,460.7496 843.91212,467.36377 C 848.13442,472.49923 847.37202,473.03704 835.87022,473.03704 L 825.50422,473.03704 L 818.62022,462.5547 C 814.83402,456.78942 811.18942,452.06441 810.52112,452.05469 C 809.66392,452.04223 809.22222,455.05518 809.02112,462.28704 L 808.73612,472.53704 L 800.97102,472.82938 C 795.28952,473.04327 793.07152,472.77149 792.70502,471.81655 z M 851.69772,471.79738 C 851.42632,471.09009 851.32392,457.69216 851.47022,442.0242 L 851.73612,413.53703 L 869.73612,413.53703 L 887.73612,413.53703 L 887.73612,420.53703 L 887.73612,427.53703 L 878.23612,428.03703 L 868.73612,428.53703 L 868.73612,431.53703 L 868.73612,434.53703 L 876.73612,435.03703 L 884.73612,435.53703 L 884.73612,442.53703 L 884.73612,449.53703 L 876.73612,450.03703 L 868.73612,450.53703 L 868.73612,454.03704 L 868.73612,457.53704 L 878.23612,458.03704 L 887.73612,458.53704 L 887.73612,465.53704 L 887.73612,472.53704 L 869.96362,472.81021 C 856.20272,473.02171 852.07982,472.79311 851.69772,471.79738 z M 957.71302,471.83742 C 957.43322,471.1081 957.32392,457.69216 957.47022,442.0242 L 957.73612,413.53703 L 966.23612,413.53703 L 974.73612,413.53703 L 975.23612,424.53703 L 975.73612,435.53703 L 984.73612,436.12152 C 995.95662,436.85021 1001.3039,439.2895 1004.2225,445.01065 C 1008.7552,453.89547 1005.5563,466.45567 997.73612,470.4791 C 994.22602,472.285 991.56142,472.5754 975.97902,472.85024 C 961.93022,473.09804 958.11562,472.88653 957.71302,471.83742 z M 987.23612,458.03704 C 989.78022,455.49294 989.76592,453.56676 987.18352,450.98439 C 985.58002,449.38087 984.10312,448.99797 980.43352,449.23439 C 975.76492,449.53518 975.73422,449.5606 975.41952,453.3922 C 974.94042,459.22555 975.58592,460.03704 980.70482,460.03704 C 983.90282,460.03704 985.82462,459.44855 987.23612,458.03704 z M 596.61869,409.12328 C 592.66109,407.32607 589.23619,403.78935 589.23619,401.49974 C 589.23619,400.39343 595.38029,397.03703 597.40549,397.03703 C 598.01129,397.03703 599.54949,398.16203 600.82379,399.53703 C 603.86099,402.81424 607.52709,402.75396 610.17859,399.38321 C 612.14429,396.88425 612.49169,396.79699 616.13249,397.88781 C 621.65709,399.54302 622.91059,401.35893 620.77659,404.61582 C 616.91839,410.5041 604.68559,412.78655 596.61869,409.12328 z M 442.92009,329.38743 C 442.54409,329.01138 442.23639,293.0037 442.23639,249.37037 C 442.23639,179.36054 442.41349,170.03703 443.74309,170.03703 C 444.57179,170.03703 470.32079,186.75503 500.96299,207.18815 C 531.60519,227.62127 557.47169,244.54736 558.44429,244.80169 C 560.10959,245.23719 560.22779,243.00229 560.47439,206.40056 L 560.73619,167.53703 L 585.73619,167.53703 L 610.73619,167.53703 L 611.23619,234.53704 C 611.83549,314.83111 611.67829,324.93016 609.81859,325.64381 C 608.53999,326.13445 598.33129,319.43968 525.55232,270.3827 C 508.95109,259.19258 494.89369,250.03704 494.31379,250.03704 C 493.59659,250.03704 493.17569,262.75085 492.99789,289.78703 L 492.73639,329.53703 L 468.17009,329.8041 C 454.65869,329.95099 443.29619,329.76349 442.92009,329.38743 z M 368.92005,205.38743 C 367.69985,204.16722 368.10635,46.235378 369.33165,45.478098 C 369.93415,45.105768 396.08145,61.996918 427.43675,83.013978 C 460.39809,105.10743 484.81899,120.85442 485.32939,120.34401 C 485.81499,119.85846 486.33019,102.15326 486.47429,80.999108 L 486.73639,42.537028 L 511.73639,42.537028 L 536.73629,42.537028 L 536.99239,122.40523 C 537.24269,200.51982 537.20649,202.2625 535.34329,201.77526 C 534.29559,201.50126 508.13639,184.31461 477.21169,163.58269 C 445.70699,142.46187 420.60585,126.2675 420.12265,126.75073 C 419.64835,127.22506 419.14235,145.14602 418.99825,166.57509 L 418.73635,205.53703 L 394.17005,205.8041 C 380.65865,205.95099 369.29615,205.76349 368.92005,205.38743 z " id="path4206" sodipodi:nodetypes="cssssssccssccsssscccssssssccccccccscccccccccccccssccsscccccccccccccssccccccccccccccccccccccccccccccsscccccccssscccccccscccccccccsccccccccccccssssccsssscccccccscccssssscccsccccccccccscccccccccsccccccccccscccccccccsssccccccccccccccccccccccccccccccccscccccccccssccccccccccscccsssscccscccccccccccccccccccccccccccccccccccccsssccssssccssssssccsssscccccssscccccssscccccssscccc"/>
  <g inkscape:groupmode="layer" id="layer1" inkscape:label="треугольник"/>
  <path id="path2196" d="M 114.03151,474.1707 C 100.56791,470.77053 92.478804,460.51236 91.514284,445.61555 C 90.719254,433.33647 95.662044,422.10506 104.33921,416.47367 C 106.24102,415.23942 108.24704,413.88428 108.79704,413.46226 C 110.37573,412.2509 113.12487,411.9405 123.29704,411.82511 C 135.15895,411.69056 141.16818,414.03327 147.75599,421.3605 C 153.09585,427.29971 155.66855,434.39897 155.66855,443.19493 C 155.66855,456.24642 148.8153,467.57475 138.14186,472.16634 C 132.24556,474.70286 120.12766,475.71026 114.03151,474.1707 z M 132.23777,455.75171 C 135.90255,452.24063 137.75012,445.70196 136.82347,439.52263 C 136.27869,435.88979 135.22092,433.88352 132.32185,430.98445 C 128.93816,427.60076 127.99249,427.19493 123.49141,427.19493 C 119.47229,427.19493 117.79928,427.74289 115.23779,429.89824 C 106.30799,437.41217 107.79261,453.88523 117.79704,458.29527 C 121.68492,460.00908 129.1702,458.69064 132.23777,455.75171 z M 420.01454,474.16692 C 411.59241,472.0422 405.41442,466.74103 401.40075,458.19493 C 397.92515,450.79452 397.68766,436.22752 400.92712,429.14413 C 403.84456,422.76487 408.75126,417.51835 414.70702,414.40986 C 418.95718,412.19159 421.11706,411.74843 427.79704,411.72409 C 433.17862,411.70448 437.3297,412.28638 440.47976,413.50195 L 445.16248,415.30896 L 445.47976,424.83967 C 445.65426,430.08156 445.61978,434.54566 445.40313,434.7599 C 445.18648,434.97413 443.50489,433.82859 441.66626,432.21425 C 439.82763,430.59991 436.4881,428.78492 434.24508,428.18094 C 419.21684,424.13426 409.82364,445.19167 421.74873,456.19493 C 424.03631,458.30568 425.43087,458.69493 430.70545,458.69493 C 435.97995,458.69493 437.51413,458.26672 440.55816,455.94493 C 442.54115,454.43243 444.41862,453.19493 444.73032,453.19493 C 445.04202,453.19493 445.29704,457.26789 445.29704,462.24596 L 445.29704,471.29698 L 441.61091,472.83715 C 437.09357,474.72461 425.14215,475.46051 420.01454,474.16692 z M 277.96371,473.52826 C 277.59704,473.1616 277.29704,469.5616 277.29704,465.52826 L 277.29704,458.19493 L 281.24034,458.19493 C 287.93354,458.19493 288.29704,456.92146 288.29704,433.47243 L 288.29704,413.19494 L 311.79704,413.19494 L 335.29704,413.19494 L 335.29704,443.19493 L 335.29704,473.19493 L 326.29704,473.19493 L 317.29704,473.19493 L 317.29704,450.69493 L 317.29704,428.19493 L 311.79704,428.19493 L 306.29704,428.19493 L 306.29704,444.22705 C 306.29704,455.5053 305.89258,461.22719 304.93301,463.52374 C 303.19395,467.68591 298.28296,471.82701 293.51599,473.15093 C 289.35724,474.30592 278.99283,474.55739 277.96371,473.52826 z M 890.96371,473.52826 C 890.59704,473.1616 890.29704,469.5616 890.29704,465.52826 L 890.29704,458.19493 L 894.14205,458.19493 C 896.77885,458.19493 898.58565,457.53426 899.89205,456.09244 C 901.61065,454.19561 901.82705,451.9947 902.10425,433.59244 L 902.41145,413.19494 L 924.85425,413.19494 L 947.29705,413.19494 L 947.29705,443.19493 L 947.29705,473.19493 L 938.79705,473.19493 L 930.29705,473.19493 L 930.29705,450.69493 L 930.29705,428.19493 L 924.79705,428.19493 L 919.29705,428.19493 L 919.27505,443.94493 C 919.24645,464.47636 917.29625,469.29272 907.61325,472.74612 C 903.65735,474.15698 892.13376,474.69832 890.96371,473.52826 z M 30.297034,443.19493 L 30.297034,413.19494 L 38.797034,413.19494 L 47.297034,413.19494 L 47.297034,423.69494 L 47.297034,434.19493 L 56.797034,434.19493 L 66.297034,434.19493 L 66.297034,423.69494 L 66.297034,413.19494 L 75.297034,413.19494 L 84.297034,413.19494 L 84.297034,443.19493 L 84.297034,473.19493 L 75.297034,473.19493 L 66.297034,473.19493 L 66.297034,461.69493 L 66.297034,450.19493 L 56.797034,450.19493 L 47.297034,450.19493 L 47.297034,461.69493 L 47.297034,473.19493 L 38.797034,473.19493 L 30.297034,473.19493 L 30.297034,443.19493 z M 163.29704,443.09015 L 163.29704,412.98538 L 179.07485,413.34016 C 193.65332,413.66797 195.23061,413.88907 199.82485,416.24882 C 206.60091,419.72924 209.79402,425.3764 209.71432,433.73879 C 209.59476,446.28438 202.25847,453.18058 188.16384,453.9965 L 180.29704,454.4519 L 180.29704,463.82342 L 180.29704,473.19493 L 171.79704,473.19493 L 163.29704,473.19493 L 163.29704,443.09015 z M 190.60857,436.98588 C 191.83735,435.51768 192.2167,433.99683 191.78781,432.25816 C 190.88992,428.61827 190.05103,428.03424 184.884,427.45184 L 180.29704,426.93483 L 180.29704,433.69269 L 180.29704,440.45055 L 184.54704,439.80046 C 187.07848,439.41324 189.52957,438.27511 190.60857,436.98588 z M 217.29704,443.23386 L 217.29704,413.19494 L 225.29704,413.19494 L 233.29704,413.19494 L 233.30083,430.44493 L 233.30463,447.69493 L 244.55083,430.44935 L 255.79704,413.20377 L 264.54704,413.19935 L 273.29704,413.19494 L 273.29704,443.19493 L 273.29704,473.19493 L 264.32181,473.19493 L 255.34658,473.19493 L 255.07181,457.01207 L 254.79704,440.82921 L 244.6957,456.76207 L 234.59437,472.69493 L 225.9457,472.98386 L 217.29704,473.2728 L 217.29704,443.23386 z M 344.29704,443.25677 L 344.29704,413.19494 L 353.29704,413.19494 L 362.29704,413.19494 L 362.29704,424.57565 L 362.29704,435.95637 L 371.57452,436.36214 C 382.3358,436.8328 387.45447,438.9057 391.13108,444.28192 C 393.17586,447.27195 393.42318,448.64703 393.12673,455.37743 C 392.73613,464.24541 391.04609,467.31839 384.74035,470.62631 C 381.25141,472.45658 378.69419,472.73086 362.54704,473.00677 L 344.29704,473.31862 L 344.29704,443.25677 z M 374.4683,458.53994 C 376.95466,456.28982 376.77012,452.6397 374.07453,450.75164 C 372.81591,449.87006 369.78007,449.19493 367.07453,449.19493 L 362.29704,449.19493 L 362.29704,454.69493 L 362.29704,460.19493 L 367.4683,460.19493 C 370.87689,460.19493 373.2629,459.63081 374.4683,458.53994 z M 452.29704,443.19493 L 452.29704,413.19494 L 461.29704,413.19494 L 470.29704,413.19494 L 470.29704,424.80878 L 470.29704,436.42264 L 478.63394,425.05878 L 486.97084,413.69494 L 497.13394,413.40995 C 502.72364,413.25321 507.29704,413.48141 507.29704,413.91707 C 507.29704,414.35272 502.32703,420.90638 496.25257,428.48075 L 485.2081,442.25234 L 496.0645,456.47364 C 502.03551,464.29535 507.25708,471.25743 507.66798,471.94493 C 508.24872,472.9166 505.89695,473.18176 497.10606,473.13576 L 485.79704,473.07658 L 478.29704,461.42138 L 470.79704,449.76618 L 470.5153,461.48056 L 470.23357,473.19493 L 461.2653,473.19493 L 452.29704,473.19493 L 452.29704,443.19493 z M 511.29704,443.19493 L 511.29704,413.19494 L 519.79704,413.19494 L 528.29704,413.19494 L 528.32254,430.44493 L 528.34804,447.69493 L 539.57254,430.46143 L 550.79704,413.22793 L 559.54704,413.21144 L 568.29704,413.19494 L 568.29704,443.19493 L 568.29704,473.19493 L 559.32181,473.19493 L 550.34658,473.19493 L 550.07181,456.94608 L 549.79704,440.69722 L 539.29704,456.92556 L 528.79704,473.15389 L 520.04704,473.17441 L 511.29704,473.19493 L 511.29704,443.19493 z M 577.29704,443.19493 L 577.29704,413.19494 L 585.77343,413.19494 L 594.24981,413.19494 L 594.52343,430.15264 L 594.79704,447.11036 L 605.40153,430.40264 L 616.00602,413.69494 L 624.65153,413.406 L 633.29704,413.11707 L 633.29704,443.156 L 633.29704,473.19493 L 624.82122,473.19493 L 616.3454,473.19493 L 616.07122,456.49209 L 615.79704,439.78925 L 605.29704,456.47272 L 594.79704,473.1562 L 586.04704,473.17556 L 577.29704,473.19493 L 577.29704,443.19493 z M 663.29704,443.19493 L 663.29704,413.19494 L 671.79704,413.19494 L 680.29704,413.19494 L 680.29704,423.69494 L 680.29704,434.19493 L 689.79704,434.19493 L 699.29704,434.19493 L 699.29704,423.69494 L 699.29704,413.19494 L 708.29704,413.19494 L 717.29704,413.19494 L 717.29704,443.19493 L 717.29704,473.19493 L 708.29704,473.19493 L 699.29704,473.19493 L 699.29704,461.69493 L 699.29704,450.19493 L 689.79704,450.19493 L 680.29704,450.19493 L 680.29704,461.69493 L 680.29704,473.19493 L 671.79704,473.19493 L 663.29704,473.19493 L 663.29704,443.19493 z M 726.29704,443.19493 L 726.29704,413.19494 L 734.77343,413.19494 L 743.24981,413.19494 L 743.52343,430.17894 L 743.79704,447.16295 L 754.66275,430.17894 L 765.52847,413.19494 L 773.91275,413.19494 L 782.29704,413.19494 L 782.29704,443.19493 L 782.29704,473.19493 L 773.82122,473.19493 L 765.3454,473.19493 L 765.07122,456.69935 L 764.79704,440.20377 L 754.29704,456.69766 L 743.79704,473.19155 L 735.04704,473.19324 L 726.29704,473.19493 L 726.29704,443.19493 z M 792.29704,443.19493 L 792.29704,413.19494 L 800.7653,413.19494 L 809.23357,413.19494 L 809.5153,424.81259 L 809.79704,436.43024 L 818.25783,424.81259 L 826.71862,413.19494 L 837.00783,413.19494 C 842.6669,413.19494 847.29704,413.36407 847.29704,413.57079 C 847.29704,413.7775 842.34704,420.13337 836.29704,427.69493 C 830.24704,435.2565 825.29704,441.84937 825.29704,442.34577 C 825.29704,442.84216 830.2358,449.6488 836.27205,457.47162 C 842.30831,465.29444 847.25831,472.03243 847.27205,472.44493 C 847.2858,472.85743 842.41324,473.19493 836.44416,473.19493 L 825.59128,473.19493 L 817.44889,460.94493 L 809.30651,448.69493 L 809.30177,460.94493 L 809.29704,473.19493 L 800.79704,473.19493 L 792.29704,473.19493 L 792.29704,443.19493 z M 851.29704,443.19493 L 851.29704,413.19494 L 869.79704,413.19494 L 888.29704,413.19494 L 888.29704,420.69494 L 888.29704,428.19493 L 878.29704,428.19493 L 868.29704,428.19493 L 868.29704,431.69493 L 868.29704,435.19493 L 876.79704,435.19493 L 885.29704,435.19493 L 885.29704,442.69493 L 885.29704,450.19493 L 876.79704,450.19493 L 868.29704,450.19493 L 868.29704,454.19493 L 868.29704,458.19493 L 878.29704,458.19493 L 888.29704,458.19493 L 888.29704,465.69493 L 888.29704,473.19493 L 869.79704,473.19493 L 851.29704,473.19493 L 851.29704,443.19493 z M 957.29705,443.25677 L 957.29705,413.19494 L 966.29705,413.19494 L 975.29705,413.19494 L 975.29705,424.57565 L 975.29705,435.95637 L 984.54705,436.39054 C 995.99655,436.92796 1001.2779,439.27686 1004.2835,445.16855 C 1008.8162,454.05337 1005.6173,466.61356 997.79705,470.63699 C 994.27185,472.45066 991.63085,472.73195 975.54705,473.00677 L 957.29705,473.31862 L 957.29705,443.25677 z M 987.46825,458.53994 C 989.95465,456.28982 989.77015,452.6397 987.07455,450.75164 C 985.81595,449.87006 982.78005,449.19493 980.07455,449.19493 L 975.29705,449.19493 L 975.29705,454.69493 L 975.29705,460.19493 L 980.46825,460.19493 C 983.87685,460.19493 986.26285,459.63081 987.46825,458.53994 z M 596.69811,409.2895 C 593.22441,407.71194 587.3094,401.64437 588.43795,400.8163 C 588.63545,400.67139 591.04704,399.60275 593.79704,398.44155 L 598.79704,396.33028 L 600.07232,398.7499 C 602.42414,403.21207 609.60429,403.14721 611.31476,398.64834 L 612.2179,396.27289 L 617.25747,398.36724 C 622.71145,400.63381 623.16007,401.51778 620.66454,405.08064 C 616.71169,410.72413 604.55714,412.85865 596.69811,409.2895 z " style="fill:#000000"/>
</svg>