<!-- by TradingView --><svg width="56" height="56" viewBox="0 0 56 56" xmlns="http://www.w3.org/2000/svg"><path fill="#F0F3FA" d="M0 0h56v56H0z"/><path d="M28 12c-8.83 0-16 7.2-16 16s7.17 16 16 16 16-7.2 16-16-7.17-16-16-16ZM11 28a16.99 16.99 0 1 1 34 0 16.99 16.99 0 1 1-34 0Z"/><path d="M29.66 14.8s-2.2-1.82-1.22-4.11C29.34 8.63 31.53 8 31.53 8s-.16.32-.08.87c.08.79.9 1.74.49 3.32-.41 1.74-2.28 2.6-2.28 2.6Z" fill="#EF2B2F"/><path d="M29.58 14.98s-5.36 13.12-5.52 13.7c-.25.56-.65 5.92 5.6 5.92 6.5 0 5.85-6 5.93-5.93-.32-.57-6-13.7-6-13.7Z"/><path d="M37.58 29c0 1.54-.4 7.31-7.72 7.31a7.06 7.06 0 0 1-7.79-8c.16-.56 4.3-8.89 6.33-13.5h-.57a13.57 13.57 0 0 0-13.64 13.5c0 7.44 6.09 13.5 13.64 13.5 7.4 0 13.32-5.62 13.57-12.81h-3.82Z" fill="#005B9A"/></svg>