<!-- by TradingView --><svg width="56" height="56" viewBox="0 0 56 56" xmlns="http://www.w3.org/2000/svg"><path fill="#D9B138" d="M0 0h56v56H0z"/><path d="M15 13a2 2 0 0 0-2 2v26c0 1.1.9 2 2 2h26a2 2 0 0 0 2-2V15a2 2 0 0 0-2-2H15Zm10.3 25.37-7.5-2.61c-.3-.14-.67-.33-.67-1.32 0-1 .42-4.48.82-6.02.32-1.22 1.5-1.11 2.05-.9l3.2 1.09c-.57-.97-1.85-3.15-2.41-4.07-.57-.92-.15-1.62.13-1.86l5.66-5.14c.2-.31.86-.83 1.78-.37 1.16.58 4.15 2.76 5.13 3.7.78.75.46 1.4.2 1.64l-2.89 2.82 4.88.16c1.04-.02 1.41.65 1.47.99l1.4 7.33c.3 1.46-.29 2.04-.8 2.25L32.88 38c-1.66.43-2.24-.35-2.44-1.15l-.64-3.16-1.56 2.47-1.07 1.7c-.51.78-1.43.65-1.87.5Zm.87-8.7c.42-.52 1.79-1.8 2.42-2.38.1.36.49 2.44.67 3.43-.68-.1-2.35-.75-3.1-1.06Z" fill="#fff"/></svg>