<?xml version="1.0" encoding="utf-8"?>
<!-- Generator: Adobe Illustrator 28.0.0, SVG Export Plug-In . SVG Version: 6.00 Build 0)  -->
<svg version="1.1" id="Слой_1" xmlns="http://www.w3.org/2000/svg" xmlns:xlink="http://www.w3.org/1999/xlink" x="0px" y="0px"
	 viewBox="0 0 1000 203.4" style="enable-background:new 0 0 1000 203.4;" xml:space="preserve">
<style type="text/css">
	.st0{fill:#248341;}
	.st1{fill:#A6CE39;}
	.st2{fill:#FFCB05;}
	.st3{fill:#231F20;}
</style>
<g>
	<path class="st0" d="M208.7,4.2h-76.1v195h76.1V4.2z"/>
	<path class="st1" d="M112.7,4.2H56.3v195h56.3V4.2z"/>
	<path class="st2" d="M38.1,4.2H0v195h38.1V4.2z"/>
	<path class="st3" d="M285.9,4.2h94.6c16.4-0.7,32.7,4.1,46.2,13.7c12,9.1,18,23,18,41.7c0.2,10.5-2.6,20.8-8,29.7
		c-5.3,8.3-13.1,14.7-22.2,18c16.4,3.4,25.7,18.6,28.1,45.4c0,0.9,0.2,3.7,0.5,8.5c0.4,4.8,0.7,8.6,1.1,11.4c0.4,2.8,0.8,6,1.3,10.3
		c0.4,3.5,1.2,6.9,2.4,10.2c0.8,2.3,2.1,4.3,3.8,6h-43c-1.6-3.5-2.7-7.3-3.2-11.1c-0.7-4.4-1.3-10.2-1.9-17.3
		c-0.5-7-0.8-10.9-0.8-11.6c-1.4-13.7-4.8-23.2-10-28.5c-5.2-5.3-14.6-7.9-27.9-7.9h-37.2V199h-41.7V4.2z M327.3,37.9V92h39.6
		c9.4,0.5,18.7-1.4,27.1-5.6c6.5-3.8,9.7-11.1,9.7-22.1c0-10.9-3.2-17.1-9.5-20.8c-7.9-4-16.7-5.9-25.5-5.5L327.3,37.9z"/>
	<path class="st3" d="M615.4,62.3h-39.6c-1.6-19.4-13.6-29-36.1-29c-7.9-0.4-15.8,1.7-22.5,6c-2.6,1.8-4.7,4.2-6.1,7.1
		c-1.4,2.8-2.1,6-2,9.2c0,2.1,0.4,4.1,1.1,6c0.9,2,2.2,3.8,4,5c1.8,1.5,3.8,2.7,5.9,3.8c2.8,1.3,5.7,2.4,8.7,3.3l10.4,3.1
		c3.1,0.9,7.5,2.1,13.2,3.5c5.7,1.4,10.7,2.8,15,4.1c15.2,3.7,29.5,10.7,41.8,20.5c4.7,4.5,8.4,10,10.7,16.1
		c2.4,6.1,3.4,12.7,3,19.2c0.2,10.1-2.1,20.2-6.6,29.2c-4.2,8.1-10.5,14.9-18.1,19.7c-7.7,4.9-16,8.5-24.8,10.7
		c-9.4,2.3-19.1,3.5-28.8,3.4c-25.8,0-46-6-60.5-18c-7.3-6.2-13-14.1-16.9-23c-3.8-8.9-5.6-18.6-5.2-28.3h41.4
		c0.7,24.5,15,36.7,43,36.7c9.1,0.5,18.1-1.9,25.8-7c3-2.1,5.5-4.9,7.1-8.3c1.7-3.3,2.5-7,2.4-10.8c0.1-3.1-0.6-6.2-2.2-8.8
		c-1.6-2.6-3.9-4.8-6.6-6c-11.8-5.3-24-9.6-36.4-12.9c-0.8-0.1-1.6-0.3-2.4-0.5l-2.2-0.4l-2.4-0.7c-6.4-1.8-10.9-3.1-13.3-4
		l-11.7-4.2c-4.1-1.4-8-3.3-11.7-5.5c-2.5-1.7-5.5-4-9.2-6.9c-3.2-2.5-5.9-5.6-7.9-9.2c-1.8-3.9-3.3-7.9-4.4-12
		c-1.4-4.9-2.1-10.1-2-15.2c-0.2-8.2,1.5-16.3,4.9-23.7c3.5-7.4,8.7-13.8,15.1-18.7c15.5-11.2,34.2-16.8,53.2-15.9
		c18.6-0.8,37,4.6,52.4,15.4C608.1,25.9,615.1,41.5,615.4,62.3z"/>
	<path class="st3" d="M806.5,4.2v195h-41.7V115H687v84.2h-41.7V4.2H687v73.4h77.8V4.2H806.5z"/>
	<path class="st3" d="M840.4,4.2h90.1c15.4-0.7,30.7,3.5,43.7,12c8.7,7.2,14.5,17.3,16.3,28.6c1.8,11.3-0.4,22.8-6.3,32.5
		c-4.7,7.1-11.3,12.6-19,16c23.1,6.8,34.7,22.7,34.7,47.7c0.4,8.1-1,16.2-4.1,23.6c-3.2,7.4-7.9,14-14,19.2
		c-13.2,10.5-29.6,15.9-46.3,15.2h-95.1V4.2z M881,37.4v45.7h38.2c21,0,31.5-7.6,31.5-22.7c0.4-3.5-0.2-7.1-1.7-10.3
		c-1.5-3.2-3.9-5.9-6.8-7.8c-7.2-3.5-15.1-5.1-23-4.7L881,37.4z M881,112.1v53.1h42c8.9,0.4,17.8-1.4,25.8-5.5
		c6.3-3.7,9.4-10.7,9.4-21.1c0-10.4-3.3-17.7-10-21.2c-8.6-4-17.9-5.8-27.3-5.3H881z"/>
</g>
</svg>
