<!-- by TradingView --><svg width="56" height="56" xmlns="http://www.w3.org/2000/svg"><path fill="#108CBB" d="M0 0h56v56H0z"/><path fill-rule="evenodd" d="M47.3 28c0 2.664-1.972 5.227-5.495 7.165C38.307 37.088 33.428 38.3 28 38.3c-5.428 0-10.307-1.212-13.805-3.135C10.672 33.227 8.7 30.665 8.7 28c0-2.664 1.973-5.227 5.495-7.165C17.693 18.912 22.572 17.7 28 17.7c5.428 0 10.307 1.212 13.805 3.135 3.523 1.938 5.495 4.5 5.495 7.165zm.7 0c0 6.075-8.954 11-20 11S8 34.075 8 28s8.954-11 20-11 20 4.925 20 11zm-5.564-3c-.327 0-.653-.001-.979-.003-.651-.002-1.302-.005-1.955.003h-.45c-1.299-1.777-3.025-2.932-5.059-3.7-.604-.23-1.208-.448-1.84-.585l-.01-.003c-.067-.016-.15-.037-.15-.129 0-.071.063-.093.121-.113l.022-.007c.26-.088.522-.172.783-.255.614-.197 1.226-.393 1.82-.634.741-.304 1.42-.132 2.12.074 1.504.442 2.98.947 4.375 1.675 1.686.883 3.162 2.112 4.284 3.677-.319-.002-.17 0-.17 0-.65-.008-1.297-.005-1.944-.003-.323.002-.645.003-.968.003zm-.022 6H45.388c-.633.837-1.39 1.417-2.228 2.036-1.532 1.136-3.219 1.967-4.985 2.643a26.241 26.241 0 01-4.25 1.222 26.179 26.179 0 01-3.344.453c-.707.051-1.412.048-2.117.045a61.842 61.842 0 00-.954 0c-.057 0-.114 0-.17-.005-.069 0-.154-.006-.166-.08-.018-.091.054-.103.113-.112.015-.003.03-.005.041-.009a35.846 35.846 0 003.065-.963c2.267-.826 4.478-1.777 6.466-3.182l.334-.234c.765-.532 1.448-1.007 1.99-1.814h3.23z" fill="#CAA870"/><path d="M10.813 25h6.397c.587-.992 1.39-1.734 2.313-2.404 1.19-.866 2.501-1.497 3.869-2.036 1.936-.768 3.942-1.29 5.959-1.794a.721.721 0 01.106-.019c.108-.014.221-.028.213-.142-.01-.116-.17-.112-.293-.11l-.05.001c-1.07-.023-2.141-.046-3.212.034a33.562 33.562 0 00-6.221 1.032c-1.897.51-3.732 1.17-5.435 2.156-1.43.826-2.718 1.883-3.646 3.282zm21.873 1.892h-.064V26.5h-.383v.392h-.058c-.23 0-.438.048-.626.145-.187.096-.333.23-.437.4-.103.17-.155.36-.155.573 0 .211.052.402.155.572.104.17.25.304.437.4.188.097.397.145.626.145h.058v.373h.383v-.373h.072c.226-.003.43-.051.615-.147a1.086 1.086 0 00.59-.974 1.07 1.07 0 00-.592-.967 1.35 1.35 0 00-.62-.147zm-1.119.508c.151-.147.356-.22.614-.22h.058v1.658h-.054c-.262 0-.468-.073-.618-.217-.15-.146-.225-.35-.225-.611 0-.26.075-.464.225-.61zm1.055 1.438V27.18h.05c.268 0 .475.074.622.222.149.149.223.35.223.604 0 .256-.074.46-.223.609-.147.148-.351.223-.614.223h-.058zm-20.311-.332c-.037.294-.155.52-.353.68-.196.159-.458.238-.785.238-.355 0-.64-.117-.854-.352-.213-.235-.319-.55-.319-.942v-.267c0-.258.05-.484.148-.68.1-.195.242-.345.425-.449a1.25 1.25 0 01.635-.158c.319 0 .574.083.767.248.192.163.304.39.336.681h-.398c-.034-.22-.11-.38-.225-.48-.114-.098-.274-.148-.48-.148-.253 0-.451.086-.596.259-.143.172-.214.418-.214.736v.269c0 .3.068.54.204.718a.678.678 0 00.57.266c.22 0 .39-.046.506-.137.118-.093.196-.253.235-.482h.398zm1.572-.283l.69-1.609h.46l-1.06 2.31a1.209 1.209 0 01-.2.313.643.643 0 01-.22.141.873.873 0 01-.31.048.76.76 0 01-.209-.017l.013-.29.187.008a.344.344 0 00.322-.192l.051-.1.079-.169-1.023-2.052h.443l.777 1.609zm2.02 1.163V28.3h.707c.34 0 .6-.072.782-.217.183-.146.274-.354.274-.623a.759.759 0 00-.28-.614c-.186-.155-.443-.233-.771-.233h-1.107v2.772h.396zm.712-1.384h-.711v-1.087h.733c.197.004.351.055.464.154a.501.501 0 01.17.396c0 .174-.057.307-.17.4-.113.091-.275.137-.486.137zm3.417-1.087h-1.447v2.47h-.398v-2.77h1.845v.3zm2.21-.3l-.69 1.608-.778-1.609h-.443l1.023 2.052-.079.17-.051.099a.344.344 0 01-.322.192l-.188-.008-.012.29c.03.011.1.017.208.017a.873.873 0 00.311-.048.642.642 0 00.219-.14c.062-.063.128-.168.2-.315l1.061-2.309h-.46zm3.044.3h-.964v2.47h-.394v-2.47h-.963v-.3h2.321v.3zm2.354 2.47h.398v-2.77h-.398v1.19h-1.513v-1.19h-.395v2.77h.395v-1.28h1.513v1.28zm2.797-1.28h-1.3v.982h1.51v.299h-1.906v-2.772h1.886v.301h-1.49v.89h1.3v.3zm6.034-1.19h-.965v2.47h-.394v-2.47h-.962v-.3h2.32v.3zm.84 1.19h1.301v-.3h-1.3v-.89h1.49v-.3h-1.886v2.77h1.907v-.298h-1.511v-.982zm3.866-1.19H39.73v2.47h-.398v-2.77h1.845v.3zm.206 2.47l.282-.723h1.258l.286.724h.406l-1.148-2.772h-.346l-1.146 2.772h.408zm1.422-1.023h-1.02l.509-1.297.511 1.297zm2.754-1.003a.413.413 0 00-.175-.35c-.116-.088-.279-.132-.489-.132a.715.715 0 00-.443.135.4.4 0 00-.177.331h-.396c0-.147.043-.279.13-.396a.855.855 0 01.367-.272c.156-.066.33-.099.52-.099.334 0 .595.07.78.21a.68.68 0 01.279.578.544.544 0 01-.128.35.853.853 0 01-.357.25c.353.109.53.325.53.649 0 .249-.1.446-.3.592-.202.146-.47.219-.805.219-.2 0-.38-.032-.544-.097a.872.872 0 01-.38-.28.695.695 0 01-.135-.43h.395c0 .146.063.268.188.365a.757.757 0 00.476.145c.216 0 .388-.046.515-.139a.431.431 0 00.194-.367c0-.325-.218-.49-.653-.497h-.371v-.301h.369c.2-.004.352-.046.455-.126a.404.404 0 00.155-.338zM13.599 31l.957.001c.64.002 1.28.003 1.919 0h.479c.928 1.318 2.062 2.242 3.463 3.044 1.009.58 2.085.992 3.202 1.32.023.006.049.01.076.014.08.012.165.025.169.129 0 .104-.09.122-.175.14a.776.776 0 00-.064.014c-.34.117-.682.232-1.025.346-.529.178-1.059.355-1.585.543-.615.224-1.167.086-1.743-.08-1.025-.304-2.04-.648-3.02-1.09-2.26-1.014-4.255-2.328-5.719-4.38-.033 0 .38-.002.188 0a236.46 236.46 0 011.92-.002l.957.001z" fill="#fff"/><path d="M18.247 25h6.677c.894-1.29 2.05-2.215 3.327-3.093 1.646-1.13 3.43-1.995 5.275-2.729a.777.777 0 01.057-.02c.078-.023.162-.05.148-.14-.017-.086-.098-.085-.174-.084-.025 0-.05 0-.07-.002-.844-.086-1.687 0-2.524.109-1.442.183-2.843.533-4.233.969-2.097.659-4.113 1.507-5.982 2.683-.997.625-1.926 1.361-2.65 2.307h.149zm3.11 6.003c-.284-.002-.57-.003-.854-.003h-2.689-.103.103c.452.625.993 1.041 1.592 1.502l.083.064c1.567 1.21 3.355 1.92 5.258 2.362.325.075.65.115.98-.005a17.67 17.67 0 002.285-1.015c.018-.01.042-.019.067-.027.07-.022.146-.047.12-.14-.018-.078-.107-.09-.188-.1a.996.996 0 01-.056-.008c-.445-.086-.883-.201-1.322-.333-1.402-.413-2.495-.993-3.202-2.3h-.364c-.57.008-1.14.005-1.71.003z" fill="#1B75A2"/><path d="M33.793 24.997l1.004.003h3.242c-.07-.085-.137-.178-.206-.272a4.505 4.505 0 00-.336-.424c-1.675-1.812-3.857-2.672-6.164-3.28a.471.471 0 00-.307.018c-.781.372-1.527.797-2.228 1.313-.131.097-.142.189-.011.298.128.106.252.216.376.327.123.11.247.22.376.326l.072.06c.613.5 1.217.994 1.7 1.634h.472c.669-.008 1.34-.005 2.01-.003zm-9.829 11.517l-.783.3c0 .012 0 .024.002.036l.003.045a5.69 5.69 0 01.786-.05c.139-.003.278-.005.416-.013a7.736 7.736 0 001.202-.15c.154-.033.309-.06.464-.088.24-.043.482-.086.722-.152.281-.078.567-.14.851-.2.366-.079.73-.157 1.085-.27l.165-.053c.624-.2 1.251-.402 1.87-.618a27.89 27.89 0 003.395-1.474 15.577 15.577 0 002.656-1.705c.448-.343.868-.665 1.218-1.122a1390.583 1390.583 0 01-5.173 0c-.702 1.55-2.911 2.737-4.325 3.497l-.045.024a27.99 27.99 0 01-2 .975 40.59 40.59 0 01-1.726.717l-.783.3z" fill="#B39265"/></svg>