<!-- by TradingView --><svg width="56" height="56" viewBox="0 0 56 56" xmlns="http://www.w3.org/2000/svg"><path fill="#F0F3FA" d="M0 0h56v56H0z"/><path d="M14.78 18.39c.3.08 1.06.08 1.35.41.38.28 2.06 1.5 2.41 2 .3.5 1.83 1.72 2.65 2.99.82 1.27 1.35 2.22 1.53 2.44.15.27.23.36.23.36l.53-1.58c.24-.64 1.06-2.27 1.3-2.63.23-.42 1.14-1.86 1.53-2.22.29-.41.97-1.41 1.35-1.58.3-.08.62-.28.91-.08.3.14.82.86.97 1.36.09.41 1.5 2.27 1.74 2.99.3.63 1.06 2.35 1.14 2.71l.39.92s.44-1.22.76-1.78c.3-.5 3.03-3.7 3.56-4.12.62-.42 2.73-1.78 3.12-2.08.44-.28 1.2-.5 1.44-.5.3.08.82.14 1.14.5.3.28 1.74 1.41 2.12 1.72.38.27 1.97 1.85 2.2 2.21.3.28 1.3 1.72 1.5 2.14.24.5.68 1.71.83 2.07.15.36.38 1.28.38 1.86 0 .5-.53 2.5-.76 2.93-.24.42-1.06 1.58-1.44 2.08a12 12 0 0 1-1.83 1.94c-.44.28-1.35.92-1.88 1.28-.53.36-1.44 1-2.35 1-.97.08-2.5-.59-2.94-.87-.44-.36-1.82-1.4-2.27-1.85-.44-.42-1.53-1.77-2.05-2.36-.45-.63-.98-1.58-1.21-2.07a4.34 4.34 0 0 1-.28-1.16s-.4.57-.4.99c0 .42-.44 1.63-.61 2.08-.1.5-.77 1.63-.98 2.21-.23.59-1.05 1.5-1.44 2-.44.5-1.06 1.13-1.58 1-.53-.09-1.36-.86-1.74-1.36-.38-.58-1.53-2.08-1.88-3-.38-.85-.77-2.35-.97-3.07l-.15-.64s-.23.28-.44.86c-.3.58-.91 1.78-1.44 2.5-.53.72-1.3 1.5-1.59 1.77-.23.28-1.15 1.08-1.59 1.41l-1.44 1.08c-.3.14-1.3.58-1.59.58-.3 0-1.35 0-1.82-.22a8.56 8.56 0 0 1-1.88-1c-.62-.41-1.44-1.21-1.74-1.5-.3-.27-.97-1.07-1.3-1.49-.29-.41-.9-1.4-1.14-1.94a6.69 6.69 0 0 1-.91-4.07c0-.41.38-1.41.53-1.77.23-.36.91-1.58 1.2-1.86.3-.27 1.36-1.5 1.68-1.77.3-.22 1.5-1.22 1.74-1.5.29-.27 1.67-1.13 1.97-1.5a3.24 3.24 0 0 1 1.44-.82Z" fill="#668BB7"/><path d="m42.8 29.94-.23.28-.38-.42-.68-.36-.15.22-.38.42h-.06l-.38-.06h-.09l-.53.5-.53.28-.08.08-.06.7.14.35.24.45-.15.41.97-.05h.1l.2-.22h.53l.08.13.15.28 1 .3.3-.08h.05l1-1.85-.9-1.42-.15.06ZM43.25 28.53l-.21-.09-.23.22-.77.06-.3-.14-.14.14.3.22.43.22.1.28.38.08h.05v-.22l.1-.14.29.14h.47l.3-.22-.92-.28.15-.27ZM40.69 28.08l-.15.58.38-.22.15-.08.15-.28-.3-.14v-.08l-.23.22ZM40.45 27.45h.3l-.3-.64-.09-.36-.29.05.3.95h.08ZM39.92 29.66h.53l.3-.08v-.42l-.3.06h-.44l-.32.3.23.14ZM39.63 28.94l.3-1.36-.54.14-.61.14v1h.61l.24.08ZM27.95 19.52l.1-.05.2-.17v-.33h-.2l-.33.2.09.21.14.14ZM16.22 25.59l.23.86h.24l.44-.08-.44-.28-.47-.5ZM14.72 26.86h.23c.1.14.15.23.15.36.09.09.09.09.15.09.09.08.15.08.23.14.15.08.24.13.39.13-.1.23-.24.42-.39.59.1.27 0 .5 0 .77v.5c.15.08.24.08.39.14.08.22.23.5.38.77.09.09.23.14.38.23-.38 1.22-.68 2.43-1.06 3.57.15 0 .38 0 .53.08.09-.14.15-.27.3-.41h.29c.09 0 .09-.09.15-.09.14-.13.38-.27.61-.5h.3c.09-.08.15-.22.3-.35l.52-.5.44-.64c.15-.22.38-.42.62-.64.09.09.15.09.3.14.14-.14.29-.28.44-.36a8.9 8.9 0 0 1 .76-1.58c-.09-.22-.09-.41-.15-.64-.53-.08-1.06-.22-1.5-.27 0-.22 0-.42.1-.64h-.3c-.24-.22-.44-.36-.68-.58h-.53c-.23-.08-.44-.22-.62-.28l-.61.22c-.1 0-.1-.08-.15-.08a.56.56 0 0 0-.3-.14c-.08.09-.14.22-.23.36-.24 0-.44-.08-.68-.08-.08 0-.14 0-.23-.08l-.24-.42c-.09-.22-.14-.28-.23-.5h-.15l.09.28v.41Z" fill="#F69A5B"/><path d="M31.07 22.16c-.15-.28-.23-.5-.44-.78a11.5 11.5 0 0 0-.77-1.22c-.29-.41-.61-.91-.9-1.41 0 0-.1 0-.1-.09-.23-.27-.52-.36-.82-.27-.3.08-.53.14-.62.22-.29.36-.53.72-.82 1.08-1.73 2.22-2.94 4.21-3.65 6.92a20.58 20.58 0 0 0-6.29-7.42c-.09-.14-.24-.22-.38-.36-.3-.14-.53-.28-.83-.36-.08-.08-.14-.08-.23-.08a.8.8 0 0 0-.62 0c-.09 0-.23 0-.38.08-.15 0-.3.08-.38.14-2.6 2.22-5.62 4.21-7.27 7.12a7.24 7.24 0 0 0-.44 4.13c1.06 3.13 3.32 6.2 6.3 7.56.38.28 1.05.5 1.82.58h.38c.24 0 .38-.08.62-.08.09 0 .15 0 .23-.09.24-.08.53-.13.77-.27.15-.09.3-.22.44-.28 2.88-1.86 5.44-4.57 6.35-7.48.24 2.85 1.88 5.62 3.56 7.42.09.09.15.09.24.14.44.36.82.58 1.2.5.24 0 .53-.14.82-.41l.1-.09a10.85 10.85 0 0 0 1.67-2.07c.23-.28.38-.59.53-.86.82-1.5 1.35-3.22 1.68-4.85.38 2.27 3.17 5.98 6.58 7.78.24.14.44.22.77.28.09.08.23.14.3.14.14.08.29.08.43.08.15.08.3.08.44.08.45-.08.83-.13 1.21-.36.09 0 .15 0 .24-.08 1.52-.58 2.5-1.5 3.79-2.63 2.06-2.08 3.8-4.63 3.32-7.2-.9-4.07-3.85-6.7-7.11-9.14-.1-.14-.24-.23-.3-.28-.53-.22-.82-.28-1.15-.22-.14 0-.29 0-.44.08a.57.57 0 0 0-.3.14c-.08 0-.08 0-.14.08-.38.22-.67.42-1.06.64-3.26 2-5.67 4.43-6.58 7.56-.42-1.52-1-2.93-1.77-4.37Zm.06 5.92.23-1.27c.39-.22.77-.5 1.15-.72.15 1.22.38 2.35 0 3.43a13.38 13.38 0 0 1-1.35 4.5c-.15.27-.3.57-.53.85-.24.42-.44.78-.77 1.14-.29.41-.61.77-.9 1.13-.1.08-.15.14-.24.14-.24.22-.44.28-.68.36-.3.08-.53-.08-.82-.22-.24-.22-.38-.42-.62-.64-2.65-3.07-3.65-6.12-3.41-9.92l1.2 1.14h1.15c.44-.14.91.14 1.06.64h.09c0 .14 0 .22-.09.36.15.14.3.41.38.58v.72c-.09.08-.23.14-.3.28.24.22.4.5.68.72 0 .36.15.63.15 1 .09.58.3.5.53.5.09 0 .09.08.15.08.3-.14.53-.28.76-.42.1-.08.1-.14.15-.28l.68-.63c0-.28-.1-.5-.1-.78.1 0 .1 0 .16-.08.23-.09.38-.14.52-.22 0-.28 0-.59-.08-.86a2.82 2.82 0 0 1-.24-.5c.15-.14.38-.28.53-.5l.56-.53Zm-.53-4.84v.13l.15.36-.15-.08-.06-.05-.15-.23.21-.13Zm-1.26 1.44h-.92c-.14-.09-.29-.09-.38-.09-.15-.08-.3-.08-.44-.08h-.62c0-.22.1-.36.15-.5h-1.06v-.58c.15-.08.38-.08.53-.14.09 0 .09 0 .15-.08.14.22.3.41.44.63h.44c.15.09.23.14.38.14.15.09.3.14.53.14.09 0 .24.08.38.08h.39c.03.17.03.31.03.48Zm-.62-1.3.14-.23.1.09.14.08-.15.08h-.23v-.03Zm1.35 2.49-.09.36-.14-.14-.15-.14-.09-.08h.47ZM26.6 20.1c.3-.42.68-.78.97-1.22.09-.14.3-.23.44-.28.24 0 .38 0 .62.14.09.14.15.22.3.36.23.41.52.86.67 1.22h-1.29c-.15-.09-.24-.09-.3-.09-.09 0-.15-.08-.23-.08-.15.14-.3.28-.44.36-.1.14-.1.22-.15.36h-.3c.1.22.1.36.15.58-.09.22-.09.36-.15.58H26.45a.5.5 0 0 1-.14-.27c-.1.08-.1.41-.24.5 0 .13-.15.13-.23.27 0 .22 0 .42-.1.58-.14 0-.43.09-.67.09-.09.36.09.72 0 1.08-.23.22-.68.41-.82.58-.24.28-.44.58-.68.91.44-2.13 1.74-3.96 3.03-5.67Zm-11.44-1.36-.38.08-.15.28-.15.36h-.47l-.23.41h-.15l-.3-.13-.08.36h-.77l1.36-1.14.38-.14.38-.08.62-.14.15.14h-.21Zm.09 1.05.23.36.3.08-.15.23-.15-.14v-.09h-.23l-.24-.08.24-.36Zm-.53 1.44.23-.08h.3v.14l-.15.63-.44-.36v-.08l.09-.22v-.03h-.03Zm-.32-1.5v.23l-.1.22h-.08l-.15-.22.15-.28.18.06ZM16.69 37c-.15.09-.3.22-.44.28-.3.22-.53.28-.77.36-.08 0-.14.08-.23.08-.24 0-.38.09-.62.09-.09 0-.23 0-.38-.09-.38 0-.83-.14-1.3-.27-2.35-.78-5-3.72-6.5-7.2a8.16 8.16 0 0 1 .53-4.72 30.44 30.44 0 0 1 3.47-3.85c.39-.08.68-.08.97-.08 0 .14 0 .28.1.42v.77c-.15.36-.24.72-.3 1.08.15.36.3.72.53 1.14.23.22.44.36.67.58.1.22.1.42.15.64.44.14.91.27 1.35.5.1-.14.24-.23.3-.28h.38v-.28c-.09.08-.23.08-.38.14-.09 0-.15 0-.24.08.1-.5.1-1 .15-1.44H15.22c.09.09.09.22.15.36h.08c.1 0 .1-.08.15-.08 0-.14-.09-.28-.09-.42.1-.13.1-.27.15-.41l.53-.5c.15-.22.3-.5.44-.72.09 0 .09-.08.15-.08v-.72c.09.08.3.14.44.22.09 0 .09-.08.15-.08-.15-.09-.39-.23-.62-.28-.09-.14-.09-.36-.15-.5v-.28h-.53c0-.36.09-.63.09-.91.09.14.24.28.38.5l.1.08c.23.08.43.08.6.14.1-.14.16-.28.24-.42v-.77c1.83 1.58 3.33 3.35 5.24 6.56.15 1 .3 1.86.23 2.86A16.48 16.48 0 0 1 16.7 37Zm26.12.28c-.1.08-.15.08-.24.14-.38.22-.82.28-1.2.22h-.45c-.14 0-.3-.08-.44-.08v-.09c-.3-.08-.67-.22-1.06-.36-2.8-1.5-5.53-4.98-6.44-7.42v-2.77c.24-.42.38-.91.53-1.41.15.08.3.08.44.14.1.08.15.13.3.22l.23.22v.58c.09.14.15.22.3.28 0 .22.08.36.08.5.15 0 .3.08.45.08-.1-.14-.15-.36-.3-.58.15-.09.3-.14.44-.22.44-.23.83-.5 1.3-.72.23.27.44.63.67.91 0 .28 0 .5-.09.72l.39.22c0 .08 0 .14.09.28h-.39c.1.14.15.36.3.64l.38.36c.3.08.62.08.91.13 0-.13 0-.22.09-.36-.24.09-.44.09-.68.14.1-.22.15-.41.15-.63-.24 0-.44 0-.62.08v-.36c.1 0 .15-.08.24-.08-.15-.23-.38-.36-.53-.59v-.41c.09.08.23.14.38.22H38.72v-1.36h.77c.14-.14.29-.22.43-.27.1.08.1.13.15.22.15-.09.24-.22.38-.36 0 0 .1 0 .1-.09h-.1c-.14 0-.3-.08-.44-.13.09-.14.15-.36.24-.5.08-.14.08-.28.08-.42.1-.14.1-.28.15-.41l.09-.09c.09.14.24.22.38.28h.09c.09-.22.09-.42.15-.64.09 0 .14-.08.23-.08.1 0 .15-.08.3-.08.09-.09.23-.09.3-.14v.41a.85.85 0 0 0-.3.22c-.1.14-.1.23-.15.36h.44l.24-.58c.08-.14.08-.27.14-.41a.84.84 0 0 1-.3-.22c.1-.36.24-.64.3-.92-.08-.14-.23-.27-.3-.41.24-.09.4-.23.63-.36h.38c0 .27 0 .5.09.72h.23c-.09-.22-.09-.42-.14-.64.14.08.29.08.44.14.14-.36.38-.72.61-1.08a4.98 4.98 0 0 0-1.05-.28H42.45c-.14-.08-.3-.14-.38-.22h-.53l-.09-.08c0-.09 0-.14-.09-.23H40.68v-.58c-.08.09-.08.09-.14.09-.3.22-.62.36-.91.5h-.15c-.15 0-.3-.09-.38-.09.09-.08.23-.14.38-.28l1.06-.63c.15-.14.3-.22.44-.28.15-.08.3-.14.44-.14.3 0 .62.08 1.15.22.09.14.24.22.3.36 3.46 2.72 6.82 5.71 6.88 10.06-.83 3.93-3.68 6.65-6.94 8.42Z" fill="#F69A5B"/></svg>