<!-- by TradingView --><svg width="56" height="56" viewBox="0 0 56 56" xmlns="http://www.w3.org/2000/svg"><path fill="#0060A9" d="M0 0h56v56H0z"/><path d="M15.6 27.38c1.61.09 3.19-1.22 4.8-1.22 1.9 0 2.86.97 3.83 1.9-1.95-.93-3.83.97-5.77.97a4.32 4.32 0 0 1-2.87-1 12.39 12.39 0 0 0 9.95 12.17v-1.68c-1.97-.7-3.54-2.62-3.54-4.7 0-2.1 1.93-4.7 4-4.7v-2.24c-2.3 0-4-2.6-4-4.68 0-2.08 1.57-4 3.54-4.68v-1.69c-1.82.35-3.52 1.11-4.98 2.24a12.39 12.39 0 0 0-4.95 9.31ZM35.62 29.32c-1.9 0-2.87-.96-3.84-1.9 1.95.94 3.84-.96 5.77-.96a4.32 4.32 0 0 1 2.85 1 12.34 12.34 0 0 0-9.9-11.63v1.7A5.15 5.15 0 0 1 34 22.2c0 2.09-2 4.68-4 4.68v2.23c2.03 0 4 2.61 4 4.7 0 2.1-1.52 4.01-3.5 4.7v1.69a12.39 12.39 0 0 0 9.94-12.09c-1.63-.09-3.21 1.21-4.82 1.21Z" fill="#fff"/><path d="M28.03 12a16 16 0 1 0-.06 32 16 16 0 0 0 .06-32ZM27 17.52c0 .63-.19 1.23-.75 1.52A3.16 3.16 0 0 0 24 22.2c0 1.38.75 2.65 2.04 3.12.66.24.95.9.96 1.6v2.2c0 .69-.3 1.34-.96 1.55A3.26 3.26 0 0 0 24 33.84 3.2 3.2 0 0 0 26.25 37c.57.28.76.89.75 1.52V42a12.84 12.84 0 0 1-6.44-2.01 14.13 14.13 0 0 1-4.85-5.13A14.08 14.08 0 0 1 14 28.02c0-2.4.55-4.75 1.7-6.84a14.14 14.14 0 0 1 4.86-5.13c2-1.26 4.09-1.93 6.44-2.05v3.52ZM35.48 40c-2 1.27-4.12 1.9-6.48 2.01v-3.48c-.01-.63.19-1.24.75-1.52 1.4-.4 2.24-1.7 2.25-3.16 0-1.4-.73-2.68-2.04-3.17-.66-.2-.96-.86-.96-1.56v-2.19c0-.7.3-1.36.96-1.6 1.3-.47 2.03-1.74 2.04-3.12 0-1.46-.84-2.78-2.25-3.16-.55-.29-.75-.89-.75-1.52V14c2.36.11 4.48.79 6.48 2.05a14.09 14.09 0 0 1 4.88 5.12A13.96 13.96 0 0 1 42 28.02c0 2.4-.47 4.75-1.64 6.85a14.09 14.09 0 0 1-4.88 5.12Z" fill="#fff"/></svg>