<!-- by TradingView --><svg xmlns="http://www.w3.org/2000/svg" width="56" height="56" viewBox="0 0 56 56"><path fill="#F0F3FA" d="M0 0h56v56H0z"/><path d="M26.95 24.33C26.95 29.12 17.51 36 13.3 36c-4.21 0-7.63-3.89-7.63-8.67 0-4.79 2.13-9.32 7.97-9.32 6.53 0 13.31 1.54 13.31 6.33Z" fill="#FE0000"/><path d="M28.96 24.43c0 4.74 9.62 11.55 13.91 11.55 4.3 0 7.77-3.84 7.77-8.6 0-4.74-3.47-9.38-7.77-9.38-4.29 0-13.91 1.68-13.91 6.43Z" fill="#009146"/><path d="M34.33 28.97c0 4.26-2.93 8.03-7.04 8.03-3.13 0-7.68-1.06-9.82-3.58-.67-.78 2.35-3.37 2.26-4.45v-4.35c2.2-1.95 5-3.36 7.16-3.36 4.1 0 7.44 3.46 7.44 7.71Z" fill="#FDE044"/><path d="M33.47 27.83c0 3.34-2.6 5.95-5.7 5.95-.99 0-1.92-.26-2.73-.73l-1.66 2.93c1.3.75 2.8.97 4.4.97 3.09 0 5.8-1.38 7.42-3.8a8.97 8.97 0 0 0 7.54 3.8A9.23 9.23 0 0 0 52 27.6c0-5.23-4.1-9.55-9.26-9.55-1.64 0-3.18.43-4.5 1.2l1.65 2.93a5.68 5.68 0 0 1 2.85-.76 6.05 6.05 0 0 1 5.91 6.18c0 3.46-2.7 6.18-5.91 6.18a6.05 6.05 0 0 1-5.92-6.18c-.12-5-4.08-9.1-9.04-9.1-4.89 0-8.8 3.98-9.03 8.87h-.02c0 3.34-2.6 6.22-5.7 6.22-4.01-.43-5.68-2.88-5.68-6.22 0-3.33 2.6-5.95 5.7-5.95.99 0 1.92.26 2.73.73l1.66-2.93a8.8 8.8 0 0 0-4.4-1.17C8 18.05 4 22.27 4 27.37c0 5.1 2.99 9.58 9 9.58 5.71 0 8.84-4.22 9.07-9.12h.02c0-3.33 2.59-5.95 5.69-5.95 3.1 0 5.69 2.62 5.69 5.95Z" fill="#2C3232"/></svg>