<!-- by TradingView --><svg xmlns="http://www.w3.org/2000/svg" width="56" height="56" viewBox="0 0 56 56"><path fill="#FF0508" d="M0 0h56v56H0z"/><path d="M9 38V24h14v-9h22v23H9zm21-3h5v-1.4h-3.63v-1.97H34v-1.35h-2.63v-1.89H35v-1.4h-5V35zm-4.86-1.4c-1.53 0-2.26-.98-2.26-2.56 0-1.57.73-2.65 2.26-2.65 1.54 0 2.27 1.08 2.27 2.65 0 1.58-.73 2.57-2.27 2.57zm0-6.6c-2.3 0-3.67 1.48-3.67 4s1.37 4 3.67 4 3.67-1.53 3.67-4c0-2.47-1.36-4-3.67-4zm10.54 8h1.46l1.66-3.15L40.55 35H42l-2.35-4.18L41.87 27h-1.45l-1.54 2.83L37.31 27h-1.46L38 30.77 35.69 35zM16.1 33.6h-.28L14.46 27H12v8h1.31v-6.56h.29L14.87 35h2.22l1.31-6.61h.29V35H20v-8h-2.5l-1.4 6.6z" fill="#fff"/></svg>