<!-- by TradingView --><svg width="56" height="56" viewBox="0 0 56 56" xmlns="http://www.w3.org/2000/svg"><path fill="#23949C" d="M0 0h56v56H0z"/><path fill-rule="evenodd" d="M15.38 24.68c-1.45.15-4.87 1-4.87 3.53.03 2.78 4.33 3.16 5.84 3.14 2.74-.1 5.65-1.41 8.07-3.2v-.5c-2.42-2.32-6.21-3.23-9.04-2.97Zm12.6 7.25h-.05a5.06 5.06 0 0 0-.74 2.85c.05.32.11.64.25.94l.4.5.06.03h.11l.09-.03.4-.5c.14-.3.2-.59.26-.94a4.77 4.77 0 0 0-.71-2.85h-.06Zm14.2 3.58-.02-.09c-1.09.12-2.91.1-4-.05-1.25-.21-2.48-.56-3.67-1.06v.09c.02.64.02 1.29 0 1.93-.06.7-.2 1.41-.4 2.06 2.62-.56 5.73-1.41 8.1-2.88Zm-28.36-.03.02-.08c1.09.11 2.88.08 3.97-.06 1.25-.2 2.48-.56 3.68-1.06v.09c-.03.64-.03 1.29.02 1.93.06.7.2 1.41.4 2.06-2.62-.53-5.76-1.38-8.1-2.88ZM33.2 21.43l.06.11c2.65-.7 5.9-1.14 8.64-.7l.03-.12c-2.08-1.61-5.25-2.46-7.79-3-.2 1.3-.54 2.53-.94 3.7Zm-10.4 0-.09.11c-2.65-.7-5.9-1.14-8.6-.7l-.04-.12c2.08-1.61 5.25-2.46 7.79-3 .17 1.3.5 2.53.94 3.7Zm5.16-1.44h.08c.43-.88.72-2.06.83-3.05-.29-.03-.57-.03-.86-.03-.28 0-.57 0-.85.03a8.9 8.9 0 0 0 .8 3.05Zm12.66 4.7c1.45.14 4.87 1 4.84 3.52-.03 2.78-4.33 3.16-5.84 3.14-2.74-.1-5.62-1.41-8.07-3.2v-.5c2.42-2.32 6.21-3.23 9.07-2.97Zm-6.25 3.13a13.3 13.3 0 0 0 4.85 1.59c.74.09 4.39.12 4.39-1.35 0-1.3-2.94-1.59-3.85-1.64-1.88-.06-3.65.4-5.39 1.26v.14Zm-2.16 3.64.3-.47a14.54 14.54 0 0 0 7.4 2.4c3.33.16 5.87-1.05 7.58-3.66l.42.35C46.46 38.07 35.08 40.82 29.87 41l-.12-.53c3.45-1.32 3.74-5.43 2.46-9Zm-4.08-2.5a8.05 8.05 0 0 1 2.3 5.11c.06 1.88-.56 3.97-2.19 4.44l-.25.02-.26-.02c-1.63-.47-2.25-2.53-2.2-4.44.17-2.05 1-3.84 2.31-5.1h.29Zm2.65-13.87c-.37 2.96-1.11 5.84-2.62 8.19h-.35c-1.5-2.35-2.25-5.23-2.62-8.2a44.48 44.48 0 0 1 5.59 0Zm-7.01 16.37c-1.26 3.55-1 7.7 2.45 9.01l-.09.53c-5.16-.06-16.48-2.7-18.07-11l.45-.27c2.08 2.7 4.65 3.87 7.56 3.67 2.65-.09 5.07-1 7.38-2.4l.32.46Zm-7.07-8.8c-3.65 0-6.88 1.32-8.36 4.66L8 27.1c.11-7.37 9.38-10.83 15.11-11.7.43 3.25 1.4 6.15 2.9 8.85l.5.83-.1.14-.68-.35a21.15 21.15 0 0 0-9.03-2.2Zm22.58 0c-3.11.12-6.1.82-9.01 2.2l-.66.35-.14-.14.51-.83c1.51-2.7 2.45-5.6 2.9-8.86C39.37 16.61 47.67 19.43 48 27.1l-.34.23c-1.86-3.52-4.2-4.66-8.38-4.66ZM21.6 27.82c-1.54.85-3.2 1.38-4.85 1.59-.77.09-4.36.12-4.39-1.35 0-1.3 2.97-1.59 3.85-1.64 1.88-.06 3.65.4 5.39 1.26v.14Z" fill="#fff"/></svg>