<!-- by TradingView --><svg xmlns="http://www.w3.org/2000/svg" width="56" height="56" viewBox="0 0 56 56"><path fill="#F0F3FA" d="M0 0h56v56H0z"/><path d="M5.74 26.92c0-5.31 9.07-9.77 21.23-10.92C13.96 16.82 4 21.41 4 26.95 4 32.78 15.01 37.55 29 38c-13.17-.83-23.26-5.47-23.26-11.08zM31.5 32h-1.92l1.46-8h1.92l-.54 3h1.03l.53-3h1.92l-1.46 8h-1.92l.77-4h-1.02l-.77 4z" fill="#3459C3"/><path d="M37.3 28.18a.32.32 0 0 1 .1-.21.3.3 0 0 1 .23-.08c.18 0 .25.1.22.3l-.17.81h-.55l.18-.82zm1.83.2l.02-.31a.95.95 0 0 0-.4-.85c-.3-.16-.63-.24-.97-.22-.44-.02-.87.1-1.23.36a1.5 1.5 0 0 0-.58 1.02l-.4 2.32c-.02.08-.02.17-.03.25a.92.92 0 0 0 .41.8c.3.18.63.27.98.25.4.02.82-.08 1.18-.3a1.37 1.37 0 0 0 .61-.97l.13-.73h-1.3l-.1.64a.93.93 0 0 1-.13.35.27.27 0 0 1-.23.12c-.14 0-.21-.1-.21-.3v-.16l.16-.99h1.86l.23-1.28zM43.07 28.2c.13 0 .2.06.2.2v.04l-.01.07-.35 2.07c-.05.22-.15.32-.3.32a.2.2 0 0 1-.22-.14.2.2 0 0 1-.01-.09v-.04a.2.2 0 0 1 0-.05l.35-2.07c.05-.21.17-.32.34-.32zm-1.5-.42a.71.71 0 0 0-.15-.53.75.75 0 0 0-.54-.16.99.99 0 0 0-.8.39c-.19.24-.3.53-.35.83l-.45 2.64-.02.14-.01.16a.68.68 0 0 0 .45.71c.1.04.2.05.3.03.21 0 .41-.05.58-.18.17-.13.3-.3.4-.5l-.3 1.69h1.28l.31-1.67a.62.62 0 0 0 .19.5c.16.13.35.18.55.17a.98.98 0 0 0 .81-.38c.17-.24.29-.52.33-.8l.47-2.65c0-.03 0-.08.02-.14v-.16a.8.8 0 0 0-.17-.56.76.76 0 0 0-.58-.2 1 1 0 0 0-.6.2c-.18.13-.32.3-.42.51L43.2 26h-1.28l-.33 1.78zm-.28.41c.12 0 .19.07.19.2l-.02.12-.35 2.07c-.04.22-.14.32-.3.32-.14 0-.18-.07-.18-.2v-.05l.01-.07.35-2.07c.05-.21.14-.32.3-.32zM47.73 28h-.67l-.68 4h-1.31l.68-4h-.66l.15-1h2.64l-.15 1zM49.57 29.79c.03.03.06.07.08.12.02.05.03.1.02.16l-.03.35c-.02.2-.1.4-.2.58a.67.67 0 0 1-.49.12l.25-1.4c.12-.02.25 0 .37.07zm-.23-.79l.32-2h-1.32l-.84 5h1.32c.77 0 1.28-.1 1.56-.28.27-.2.46-.62.58-1.3.22-1.3-.41-1.42-1.62-1.42zM39.75 24.7l-.94-3.78-2.04 3.32c-.82 1.34.3 2.46 1.13 2.58.82.13 2.23-.6 1.85-2.12zm-1.33.22a.5.5 0 0 1-.34-.77l.6-1 .3 1.13a.5.5 0 0 1-.56.64z" fill="#191D1D"/><path d="M14.45 23.3c.39 0 .58.19.58.57a77.16 77.16 0 0 0-.1.88c-.1.57-.2.95-.32 1.15-.11.2-.33.3-.65.3h-.3l.49-2.9h.3zm-.99 4.21h.7a2.8 2.8 0 0 0 1.61-.46 2 2 0 0 0 .62-.63c.16-.25.27-.54.31-.85l.27-1.64.03-.45c0-.57-.2-.96-.6-1.19a3.4 3.4 0 0 0-1.62-.29h-2.33L11 31h1.9l.56-3.49z" fill="#E90C15"/><path d="M17.62 25H19l-.15 3.4 1.08-3.4h1.14l-2 5.17c-.22.55-.64.83-1.26.83h-1.1l.2-1h.71c.16 0 .25-.05.27-.14v-.22L17.62 25zm5.99 2.31l.14-.84v-.11c0-.2-.1-.3-.29-.3a.38.38 0 0 0-.28.11.5.5 0 0 0-.14.3l-.55 3.06v.13c0 .19.1.29.28.29a.37.37 0 0 0 .28-.12.59.59 0 0 0 .13-.3l.17-1.23h1.64l-.16 1.18a1.65 1.65 0 0 1-.77 1.17c-.37.23-.88.35-1.5.35-.56 0-1-.1-1.29-.31a1.08 1.08 0 0 1-.44-.94l.01-.2v-.04l.03-.14.5-2.73c.07-.48.34-.9.73-1.18a2.5 2.5 0 0 1 1.54-.46c.53 0 .94.09 1.23.27.34.21.51.55.51 1.02l-.03.37-.1.65h-1.64zm4.73-.83l-.14.84h1.66l.07-.66.03-.37c0-.47-.17-.81-.5-1.02-.3-.18-.7-.27-1.24-.27a2.5 2.5 0 0 0-1.53.46c-.4.28-.67.7-.74 1.18l-.5 2.73v.02l-.02.16-.02.2a1.06 1.06 0 0 0 .45.94c.3.2.72.31 1.28.31.63 0 1.13-.12 1.5-.35a1.68 1.68 0 0 0 .78-1.17l.16-1.18h-1.65l-.15 1.24a.6.6 0 0 1-.13.3.36.36 0 0 1-.29.1c-.19 0-.28-.1-.28-.28v-.12l.56-3.07c0-.1.05-.2.13-.29a.37.37 0 0 1 .29-.12c.19 0 .28.1.28.3v.12zM30.03 23.65h.26l.07-.39h-.21a.2.2 0 0 0-.14.05.23.23 0 0 0-.08.14v.05a.13.13 0 0 0 .04.11l.06.04zm.16.25l-.4.6h-.37l.43-.6a.2.2 0 0 1-.08-.03.2.2 0 0 1-.07-.06.42.42 0 0 1-.08-.27v-.04-.06a.5.5 0 0 1 .2-.33.64.64 0 0 1 .38-.1h.52l-.25 1.49h-.32l.1-.6h-.06zM18 24.5h.32l.08-.47.16-.17.18.64h.38l-.29-.92.52-.58h-.39l-.49.57.1-.57h-.32L18 24.5zm2.47-.9a.36.36 0 0 0-.04-.2.18.18 0 0 0-.08-.06.21.21 0 0 0-.1-.02c-.06 0-.11.01-.16.04a.28.28 0 0 0-.1.1.79.79 0 0 0-.1.29c-.02.02-.02.05-.02.07v.08c0 .07.01.13.05.2l.07.06.1.02c.06 0 .11-.02.16-.04a.28.28 0 0 0 .1-.1.79.79 0 0 0 .11-.29l.01-.15zm.31.15a.98.98 0 0 1-.28.57.63.63 0 0 1-.21.13.69.69 0 0 1-.45.02.45.45 0 0 1-.16-.1.56.56 0 0 1-.14-.42l.02-.2a.97.97 0 0 1 .29-.57c.05-.06.12-.1.2-.13a.68.68 0 0 1 .44-.02c.07.02.12.06.16.1.1.12.16.27.15.42v.1l-.02.1zm1.68-.27l-.48 1.02h-.26l-.13-1.02-.01.08v.04a.2.2 0 0 1-.02.06l-.14.84h-.3l.26-1.5h.43l.12 1.02.47-1.02h.43l-.26 1.5h-.29l.14-.84a1.22 1.22 0 0 1 .04-.18zm1.43 1.02h.32l.23-1.5h-1.06l-.26 1.5h.32l.2-1.18h.44l-.2 1.18zm1.62-.55a.33.33 0 0 1-.12.2.34.34 0 0 1-.21.08.13.13 0 0 1-.08-.03.13.13 0 0 1-.03-.04v-.1c0-.03 0-.06.02-.09a.23.23 0 0 1 .06-.07c.05-.03.1-.04.16-.05.05 0 .1-.02.16-.04a.3.3 0 0 0 .08-.04l-.04.18zm.4-.54v-.09c.01-.04 0-.08-.01-.11a.3.3 0 0 0-.07-.1.48.48 0 0 0-.32-.1.67.67 0 0 0-.36.08.64.64 0 0 0-.26.4h.3l.06-.12a.2.2 0 0 1 .08-.05.22.22 0 0 1 .08-.02c.05 0 .1 0 .13.02a.1.1 0 0 1 .05.05v.11a.1.1 0 0 1-.02.04l-.03.03a.18.18 0 0 1-.08.03l-.29.05a.5.5 0 0 0-.28.14.56.56 0 0 0-.14.32l-.01.06v.04c0 .09.02.17.09.24.02.02.05.04.09.05a.47.47 0 0 0 .36-.05c.06-.04.12-.09.16-.14V24.46h.34v-.06a.06.06 0 0 1-.02-.03.17.17 0 0 1-.01-.07v-.12l.16-.77zM27 24.5h.33l.25-1.5h-.32l-.1.59h-.45l.1-.59h-.32l-.25 1.5h.32l.1-.6h.45l-.1.6zm1.63 0l.16-.9-.57.9h-.34l.26-1.5h.31l-.16.9.58-.9h.33l-.25 1.5h-.32z" fill="#191D1D"/></svg>