<!-- by TradingView --><svg width="56" height="56" viewBox="0 0 56 56" xmlns="http://www.w3.org/2000/svg"><path fill="#003C82" d="M0 0h56v56H0z"/><path d="M28 14.4a1.7 1.7 0 1 0 0-3.4 1.7 1.7 0 0 0 0 3.4Zm-3.28 2.86a1.53 1.53 0 1 0 0-3.06 1.53 1.53 0 0 0 0 3.06Zm-4.13 1.7a1.53 1.53 0 1 1-3.05 0 1.53 1.53 0 0 1 3.05 0Zm-1.82 5a1.29 1.29 0 1 0 0-2.58 1.29 1.29 0 0 0 0 2.58Zm-.1 4.04a1.29 1.29 0 1 1-2.59 0 1.29 1.29 0 0 1 2.58 0Zm.1 6.63a1.29 1.29 0 1 0 0-2.58 1.29 1.29 0 0 0 0 2.58Zm5.2 2.6a1.29 1.29 0 1 1-2.57 0 1.29 1.29 0 0 1 2.57 0ZM28 39.94a1.29 1.29 0 1 0 0-2.58 1.29 1.29 0 0 0 0 2.58Zm6.64-2.71a1.29 1.29 0 1 1-2.57 0 1.29 1.29 0 0 1 2.57 0Zm2.59-2.62a1.29 1.29 0 1 0 0-2.58 1.29 1.29 0 0 0 0 2.58ZM39.9 28a1.29 1.29 0 1 1-2.57 0 1.29 1.29 0 0 1 2.57 0Zm-2.65-4.05a1.29 1.29 0 1 0 0-2.57 1.29 1.29 0 0 0 0 2.57Zm-2.6-5.14a1.29 1.29 0 1 1-2.58 0 1.29 1.29 0 0 1 2.58 0ZM28 18.65a1.29 1.29 0 1 0 0-2.58 1.29 1.29 0 0 0 0 2.58Zm-3.99.16a1.29 1.29 0 1 1-2.58 0 1.29 1.29 0 0 1 2.58 0ZM22 23a1 1 0 1 0 0-2 1 1 0 0 0 0 2Zm-1 3a1 1 0 1 1-2 0 1 1 0 0 1 2 0Zm-1 5a1 1 0 1 0 0-2 1 1 0 0 0 0 2Zm3 3a1 1 0 1 1-2 0 1 1 0 0 1 2 0Zm3 3a1 1 0 1 0 0-2 1 1 0 0 0 0 2Zm5-1a1 1 0 1 1-2 0 1 1 0 0 1 2 0Zm3-1a1 1 0 1 0 0-2 1 1 0 0 0 0 2Zm3-5a1 1 0 1 1-2 0 1 1 0 0 1 2 0Zm-1-3a1 1 0 1 0 0-2 1 1 0 0 0 0 2Zm-1-5a1 1 0 1 1-2 0 1 1 0 0 1 2 0Zm-5-1a1 1 0 1 0 0-2 1 1 0 0 0 0 2Zm-3-1a1 1 0 1 1-2 0 1 1 0 0 1 2 0Zm-11.3 6.2a1.53 1.53 0 1 0 0-3.06 1.53 1.53 0 0 0 0 3.05Zm1.53 5.13a1.53 1.53 0 1 1-3.05 0 1.53 1.53 0 0 1 3.05 0ZM19 38.52a1.53 1.53 0 1 0 0-3.06 1.53 1.53 0 0 0 0 3.06Zm7.3 1.78a1.53 1.53 0 1 1-3.05 0 1.53 1.53 0 0 1 3.05 0Zm5.04 1.53a1.53 1.53 0 1 0 0-3.05 1.53 1.53 0 0 0 0 3.05Zm7.18-4.78a1.53 1.53 0 1 1-3.06 0 1.53 1.53 0 0 1 3.06 0Zm1.78-4.2a1.53 1.53 0 1 0 0-3.06 1.53 1.53 0 0 0 0 3.05Zm1.56-8.08a1.53 1.53 0 1 1-3.06 0 1.53 1.53 0 0 1 3.06 0Zm-4.79-4.28a1.53 1.53 0 1 0 0-3.06 1.53 1.53 0 0 0 0 3.06Zm-4.26-4.82a1.53 1.53 0 1 1-3.06 0 1.53 1.53 0 0 1 3.06 0Zm-12.44.84a1.7 1.7 0 1 0 0-3.4 1.7 1.7 0 0 0 0 3.4Zm-3.87 3.85a1.7 1.7 0 1 1-3.4 0 1.7 1.7 0 0 1 3.4 0Zm-3.8 9.34a1.7 1.7 0 1 0 0-3.4 1.7 1.7 0 0 0 0 3.4Zm3.76 5.96a1.7 1.7 0 1 1-3.4 0 1.7 1.7 0 0 1 3.4 0ZM20.34 43a1.7 1.7 0 1 0 0-3.4 1.7 1.7 0 0 0 0 3.4Zm9.36.3a1.7 1.7 0 1 1-3.4 0 1.7 1.7 0 0 1 3.4 0Zm5.96-.3a1.7 1.7 0 1 0 0-3.4 1.7 1.7 0 0 0 0 3.4Zm7.32-7.38a1.7 1.7 0 1 1-3.4 0 1.7 1.7 0 0 1 3.4 0Zm.32-5.92a1.7 1.7 0 1 0 0-3.4 1.7 1.7 0 0 0 0 3.4Zm-.34-9.35a1.7 1.7 0 1 1-3.4 0 1.7 1.7 0 0 1 3.4 0Zm-7.28-3.86a1.7 1.7 0 1 0 0-3.4 1.7 1.7 0 0 0 0 3.4Z" fill="#FCB813"/></svg>