<!-- by TradingView --><svg width="56" height="56" viewBox="0 0 56 56" xmlns="http://www.w3.org/2000/svg"><path fill="#252B33" d="M0 0h56v56H0z"/><path fill-rule="evenodd" d="M20.63 27.55 17.16 33h-1.5L18 29.5l1.67-2.32c-.89-.5-2.67-1.7-2.67-2.46s2.16-.82 3.24-.76c-.21-.32-1.02-.92-.74-1.96.38-1.43 2.2-3.53 4.95-5.46H22.2a.62.62 0 0 1-.62-.62.6.6 0 0 1 .39-.57c.64-.25 1.91-.7 2.48-.7h.38s.11-.38.57-.38c.42 0 .57.38.57.38h.23V14c-.7 0-2.4-.34-1.94-2a6.3 6.3 0 0 0 3.81 2h3.83c.57 0 1.49-.94 2.1-2h1.9c-.26.76-1.65 2.65-5.16 2.65H27.5v.38c.76-.07 2.29-.04 2.29.56 0 .61-1.53.64-2.29.57-.36.65-.73 1.16-1.04 1.6-.5.71-.87 1.22-.87 1.8 0 .39.42 1.07 2.1.76C28.91 20.1 30.53 20 32 20c1.05 0 2.03.12 2.75.44.92.4 1.75 3.56 2.27 5.37.2 1.2.93 3.86 2.45 4.16.07.7.46 2.05 1.53 1.9V33c-.65-.1-2.37-1.4-4.17-5.1-.49-1-1.62-2.66-3.6-2.66-.13.13-.35.53-.2 1.14.13.19.12.72-.95 1.32-1.07.6-2.5 2.53-3.46 3.4v1.33c-.2.38-.73.57-1.34.57-.25-.25-.26-1.25 1.72-3.22l2.5-3.21c.39-.38-.22-2.08-1.14-2.08l-4.01.98a7.3 7.3 0 0 1-3.05.38c-.39 0-1.57.87-1.72 1.33 0 .12.27.34 1.33.18 1.34-.18 1.34.95.77 1.14-.57.19-2.1 0-3.05-.95Zm-.58-1.5a2.23 2.23 0 0 1-1.52-.77c.33-.06.86-.13 1.33-.12 1 .03 1.5 1.02.2.88Z" fill="url(#az5yy3dy3)"/><path d="M23 37v-2h-6.5c-.33.17-1.5 1-1.5 3s1.17 2.83 1.5 3H23v-3h-1.5v1h-2v-2H23Zm3-2h4.5l2.5 6h-4l-.32-1h-2.43L26 41h-2l2-6Zm.5 4h1.85l-.65-2H27l-.5 2Zm7.5-4v2h2.2L34 39v2h8v-2h-2.8l2.8-2.5V35h-8Z" fill="url(#bz5yy3dy3)"/><defs><linearGradient id="az5yy3dy3" x1="28.33" y1="12" x2="28.33" y2="33" gradientUnits="userSpaceOnUse"><stop stop-color="#BCBEBF"/><stop offset=".52" stop-color="#F3F3F3"/><stop offset="1" stop-color="#BDBEC2"/></linearGradient><linearGradient id="bz5yy3dy3" x1="28.5" y1="35" x2="28.5" y2="41" gradientUnits="userSpaceOnUse"><stop stop-color="#DFE0E0"/><stop offset=".5" stop-color="#ECECEC"/><stop offset="1" stop-color="#6C6F6F"/></linearGradient></defs></svg>