<!-- by TradingView --><svg width="56" height="56" viewBox="0 0 56 56" xmlns="http://www.w3.org/2000/svg"><path fill="#002D8B" d="M0 0h56v56H0z"/><path d="m29.95 27.04 9.16-9.17.4.08L32.26 27h6.69a5.5 5.5 0 0 0-2.93-2.89l3.47-4.32c5.14 1.8 8.5 4.76 8.5 8.14C48 33.46 39.05 38 28.02 38c-1.5 0-2.99-.08-4.47-.25l4.13-4.25h.3c5.21 0 9.59-1.78 10.78-4.19h-8.38L20.72 39l-.39-.08 7.65-9.64-9.26 9.23-.4-.07 7.65-9.6-9.2 9.22-.36-.07 8.5-10.68L35.2 17l.39.08-7.6 9.6 9.2-9.23.39.1-7.63 9.5ZM8 27.97c0 3.32 3.36 6.34 8.5 8.14l3.47-4.32c-1.9-1-3.07-2.34-3.07-3.8 0-3.06 4.97-5.54 11.1-5.54h.33l4.16-4.17c-1.5-.17-3-.28-4.5-.28C16.94 18 8 22.44 8 27.97Z" fill="#fff"/></svg>