<!-- by TradingView --><svg width="56" height="56" viewBox="0 0 56 56" xmlns="http://www.w3.org/2000/svg"><path fill="url(#arp5za1jg)" d="M0 0h56v56H0z"/><path d="M47 30.77c0 2.26 1.45 3.37 2.8 4.23l1.2-1.62-.04-.03c-1.1-.7-1.96-1.25-1.96-2.58V18h-2v12.77zm-29.66 2.07C16.14 34.17 14.5 35 12 35c-3.59 0-6-3-6-6.5S8.5 22 12 22c4.5 0 6 3.5 6 6 0 .17 0 .84-.02 1H12v-2h3.74c0-1.5-1.74-3-3.74-3-2.5 0-4 2.01-4 4.5S9.51 33 12 33c1.37 0 3.1-.61 3.92-1.58l1.42 1.42zM26 22c-1.69 0-2.88.86-4 2v-2h-2v8h2v-2.54C22 25 23.94 24 26 24c1.76 0 3 1.4 3 3.22V35h2v-7.78c0-2.88-2.2-5.22-5-5.22zm13 13c2.5 0 4.15-.83 5.34-2.16l-1.42-1.42C42.1 32.4 40.37 33 39 33c-2.49 0-4-2.01-4-4.5s1.5-4.5 4-4.5c2 0 3.74 1.5 3.74 3H39v2h5.98l.02-1c0-2.5-1.5-6-6-6-3.5 0-6 3-6 6.5s2.41 6.5 6 6.5z" fill="#fff"/><defs><linearGradient id="arp5za1jg" x1="28" y1="0" x2="28" y2="56" gradientUnits="userSpaceOnUse"><stop stop-color="#E71701"/><stop offset="1" stop-color="#FF580E"/></linearGradient></defs></svg>