<!-- by TradingView --><svg xmlns="http://www.w3.org/2000/svg" width="56" height="56" viewBox="0 0 56 56"><path fill="#F0F3FA" d="M0 0h56v56H0z"/><path d="M18.6 27.8c0 .4-.34.73-.76.73-.49 0-.84-.33-.84-.73 0-.47.35-.8.84-.8.42 0 .77.33.77.8zm1.61 0c0 .4-.35.73-.83.73a.76.76 0 0 1-.77-.73c0-.47.35-.8.77-.8.48 0 .83.33.83.8zm.77.73c.42 0 .77-.33.77-.73 0-.47-.35-.8-.77-.8a.77.77 0 0 0-.77.8c0 .4.35.73.77.73zm2.38-.73c0 .4-.35.73-.77.73-.5 0-.84-.33-.84-.73 0-.47.35-.8.84-.8.42 0 .77.33.77.8 0-.47.35-.8.77-.8.4 0 .7.22.8.56a.86.86 0 0 1 .8-.56c.42 0 .77.33.77.8 0 .4-.35.73-.77.73a.88.88 0 0 1-.8-.52c-.1.3-.4.52-.8.52a.76.76 0 0 1-.77-.73zm3.9.73c.5 0 .85-.33.85-.73 0 .4.35.73.76.73.35 0 .7-.22.8-.52.1.3.4.52.81.52.42 0 .77-.33.77-.73 0 .4.35.73.77.73.49 0 .84-.33.84-.73 0-.47-.35-.8-.84-.8a.77.77 0 0 0-.77.8c0-.47-.35-.8-.77-.8-.4 0-.7.22-.8.56a.85.85 0 0 0-.8-.56.77.77 0 0 0-.77.8c0-.47-.35-.8-.84-.8a.77.77 0 0 0-.77.8c0 .4.35.73.77.73zm6.36 0c.42 0 .77-.33.77-.73 0-.47-.35-.8-.77-.8a.77.77 0 0 0-.76.8c0 .4.35.73.76.73zM36 27.8c0 .4-.35.73-.77.73-.49 0-.84-.33-.84-.73 0-.47.35-.8.84-.8.42 0 .77.33.77.8zm-18.16 2.33c.42 0 .77-.33.77-.8 0-.4-.35-.73-.77-.73-.49 0-.84.33-.84.73 0 .47.35.8.84.8zm2.37-.8c0 .47-.35.8-.83.8a.77.77 0 0 1-.77-.8c0-.4.35-.73.77-.73.48 0 .83.33.83.73zm.77.8c.42 0 .77-.33.77-.8 0-.4-.35-.73-.77-.73a.76.76 0 0 0-.77.73c0 .47.35.8.77.8zm2.38-.8c0 .47-.35.8-.77.8-.5 0-.84-.33-.84-.8 0-.4.35-.73.84-.73.42 0 .77.33.77.73 0-.4.35-.73.77-.73.4 0 .7.22.8.53.11-.3.46-.53.8-.53.42 0 .77.33.77.73 0 .47-.35.8-.77.8a.85.85 0 0 1-.8-.56c-.1.34-.4.56-.8.56a.77.77 0 0 1-.77-.8zm3.9.8c.5 0 .85-.33.85-.8 0 .47.35.8.76.8.35 0 .7-.22.8-.56.1.34.4.56.81.56.42 0 .77-.33.77-.8 0 .47.35.8.77.8.49 0 .84-.33.84-.8 0 .47.35.8.76.8.42 0 .77-.33.77-.8 0 .47.35.8.84.8.42 0 .77-.33.77-.8 0-.4-.35-.73-.77-.73-.49 0-.84.33-.84.73 0-.4-.35-.73-.77-.73a.76.76 0 0 0-.76.73c0-.4-.35-.73-.84-.73a.76.76 0 0 0-.77.73c0-.4-.35-.73-.77-.73-.4 0-.7.23-.8.53a.88.88 0 0 0-.8-.53.76.76 0 0 0-.77.73c0-.4-.35-.73-.84-.73a.76.76 0 0 0-.77.73c0 .47.35.8.77.8zm-9.42 1.54c.42 0 .77-.34.77-.74 0-.4-.35-.73-.77-.73-.49 0-.84.33-.84.73 0 .4.35.74.84.74zm2.37-.74c0 .4-.35.74-.83.74a.76.76 0 0 1-.77-.74c0-.4.35-.73.77-.73.48 0 .83.33.83.73 0-.4.35-.73.77-.73.42 0 .77.33.77.73 0-.4.35-.73.84-.73.42 0 .77.33.77.73 0-.4.35-.73.77-.73.4 0 .7.23.8.53.11-.3.46-.53.8-.53.42 0 .77.33.77.73 0 .4-.35.74-.77.74a.88.88 0 0 1-.8-.53c-.1.3-.4.53-.8.53a.76.76 0 0 1-.77-.74c0 .4-.35.74-.77.74-.5 0-.84-.34-.84-.74 0 .4-.35.74-.77.74a.76.76 0 0 1-.77-.74zm7.06.74c.49 0 .84-.34.84-.74 0 .4.35.74.76.74.35 0 .7-.23.8-.53.1.3.4.53.81.53.42 0 .77-.34.77-.74 0 .4.35.74.77.74.49 0 .84-.34.84-.74 0 .4.35.74.76.74.42 0 .77-.34.77-.74 0 .4.35.74.84.74.42 0 .77-.34.77-.74 0-.4-.35-.73-.77-.73-.49 0-.84.33-.84.73 0-.4-.35-.73-.77-.73a.76.76 0 0 0-.76.73c0-.4-.35-.73-.84-.73a.76.76 0 0 0-.77.73c0-.4-.35-.73-.77-.73-.4 0-.7.23-.8.53a.88.88 0 0 0-.8-.53.76.76 0 0 0-.77.73c0-.4-.35-.73-.84-.73a.76.76 0 0 0-.77.73c0 .4.35.74.77.74zm-9.43 1.6c.42 0 .77-.34.77-.74 0-.46-.35-.8-.77-.8-.49 0-.84.34-.84.8 0 .4.35.74.84.74zm2.37-.74c0 .4-.35.74-.83.74a.76.76 0 0 1-.77-.74c0-.46.35-.8.77-.8.48 0 .83.34.83.8 0-.46.35-.8.77-.8.42 0 .77.34.77.8 0-.46.35-.8.84-.8.42 0 .77.34.77.8 0-.46.35-.8.77-.8.4 0 .7.23.8.57a.85.85 0 0 1 .8-.57c.42 0 .77.34.77.8 0 .4-.35.74-.77.74a.87.87 0 0 1-.8-.53c-.1.3-.4.53-.8.53a.76.76 0 0 1-.77-.74c0 .4-.35.74-.77.74-.5 0-.84-.34-.84-.74 0 .4-.35.74-.77.74a.76.76 0 0 1-.77-.74zm7.06.74c.49 0 .84-.34.84-.74 0 .4.35.74.76.74.35 0 .7-.23.8-.53.1.3.41.53.81.53.42 0 .77-.34.77-.74 0 .4.35.74.77.74.49 0 .84-.34.84-.74 0 .4.35.74.77.74.41 0 .76-.34.76-.74 0 .4.35.74.84.74a.77.77 0 0 0 0-1.53c-.49 0-.84.33-.84.8 0-.47-.35-.8-.76-.8a.77.77 0 0 0-.77.8c0-.47-.35-.8-.84-.8a.77.77 0 0 0-.77.8c0-.47-.35-.8-.77-.8-.4 0-.7.22-.8.56a.85.85 0 0 0-.8-.57.77.77 0 0 0-.77.8c0-.46-.35-.8-.84-.8a.77.77 0 0 0-.77.8c0 .4.35.74.77.74zm-9.43 1.6c.42 0 .77-.34.77-.8 0-.4-.35-.74-.77-.74-.49 0-.84.34-.84.74 0 .46.35.8.84.8zm3.14-1.54a.76.76 0 0 0-.77.74c0-.4-.35-.74-.83-.74a.76.76 0 0 0-.77.74c0 .46.35.8.77.8.48 0 .83-.34.83-.8 0 .46.35.8.77.8.42 0 .77-.34.77-.8 0 .46.35.8.84.8.42 0 .77-.34.77-.8 0 .46.35.8.77.8.4 0 .7-.23.8-.57.11.34.46.57.8.57.42 0 .77-.34.77-.8 0-.4-.35-.74-.77-.74a.88.88 0 0 0-.8.53c-.1-.3-.4-.53-.8-.53a.76.76 0 0 0-.77.74c0-.4-.35-.74-.77-.74-.5 0-.84.34-.84.74 0-.4-.35-.74-.77-.74zm6.29 1.54c.49 0 .84-.34.84-.8 0 .46.35.8.76.8.35 0 .7-.23.8-.57.1.34.41.57.81.57.42 0 .77-.34.77-.8 0 .46.35.8.77.8.49 0 .84-.34.84-.8 0 .46.35.8.77.8.41 0 .76-.34.76-.8 0 .46.35.8.84.8.42 0 .77-.34.77-.8 0-.4-.35-.74-.77-.74-.49 0-.84.34-.84.74 0-.4-.35-.74-.76-.74a.76.76 0 0 0-.77.74c0-.4-.35-.74-.84-.74a.76.76 0 0 0-.77.74c0-.4-.35-.74-.77-.74-.4 0-.7.23-.8.53a.88.88 0 0 0-.8-.53.76.76 0 0 0-.77.74c0-.4-.35-.74-.84-.74a.76.76 0 0 0-.77.74c0 .46.35.8.77.8zm-9.43 1.53c.42 0 .77-.33.77-.73 0-.4-.35-.8-.77-.8-.49 0-.84.4-.84.8s.35.73.84.73zm3.14-1.53c-.42 0-.77.4-.77.8 0-.4-.35-.8-.83-.8-.42 0-.77.4-.77.8s.35.73.77.73c.48 0 .83-.33.83-.73 0 .4.35.73.77.73.42 0 .77-.33.77-.73 0 .4.35.73.84.73.42 0 .77-.33.77-.73 0 .4.35.73.77.73.4 0 .7-.22.8-.53.11.3.46.53.8.53.42 0 .77-.33.77-.73 0-.4-.35-.8-.77-.8a.9.9 0 0 0-.8.59.84.84 0 0 0-.8-.6c-.42 0-.77.4-.77.8 0-.4-.35-.8-.77-.8-.5 0-.84.4-.84.8 0-.4-.35-.8-.77-.8zm6.29 1.53c.49 0 .84-.33.84-.73 0 .4.35.73.77.73.34 0 .68-.22.8-.53.1.3.4.53.8.53.42 0 .77-.33.77-.73 0 .4.35.73.77.73.49 0 .84-.33.84-.73 0 .4.35.73.77.73.41 0 .76-.33.76-.73 0 .4.35.73.84.73.42 0 .77-.33.77-.73 0-.4-.35-.8-.77-.8-.49 0-.84.4-.84.8 0-.4-.34-.8-.76-.8s-.77.4-.77.8c0-.4-.35-.8-.84-.8-.42 0-.77.4-.77.8 0-.4-.35-.8-.77-.8-.4 0-.7.27-.8.59a.9.9 0 0 0-.8-.6c-.42 0-.77.4-.77.8 0-.4-.35-.8-.84-.8-.42 0-.77.4-.77.8s.35.74.77.74zM17.84 38c.42 0 .77-.33.77-.8 0-.4-.35-.73-.77-.73-.49 0-.84.33-.84.73 0 .47.35.8.84.8zm3.14-1.53a.76.76 0 0 0-.77.73c0-.4-.35-.73-.83-.73a.76.76 0 0 0-.77.73c0 .47.35.8.77.8.48 0 .83-.33.83-.8 0 .47.35.8.77.8.42 0 .77-.33.77-.8 0 .47.35.8.84.8.42 0 .77-.33.77-.8 0 .47.35.8.77.8.4 0 .7-.22.8-.56.11.34.46.56.8.56.42 0 .77-.33.77-.8 0-.4-.35-.73-.77-.73a.88.88 0 0 0-.8.52c-.1-.3-.4-.52-.8-.52a.76.76 0 0 0-.77.73c0-.4-.35-.73-.77-.73-.5 0-.84.33-.84.73 0-.4-.35-.73-.77-.73zM27.27 38c.49 0 .84-.33.84-.8 0 .47.35.8.77.8.34 0 .68-.22.8-.56.1.34.4.56.8.56.42 0 .77-.33.77-.8 0 .47.35.8.77.8.49 0 .84-.33.84-.8 0 .47.35.8.77.8.41 0 .76-.33.76-.8 0 .47.35.8.84.8.42 0 .77-.33.77-.8 0-.4-.35-.73-.77-.73-.49 0-.84.33-.84.73 0-.4-.34-.73-.76-.73a.76.76 0 0 0-.77.73c0-.4-.35-.73-.84-.73a.76.76 0 0 0-.77.73c0-.4-.35-.73-.77-.73-.4 0-.7.22-.8.52a.88.88 0 0 0-.8-.52.76.76 0 0 0-.77.73c0-.4-.35-.73-.84-.73a.76.76 0 0 0-.77.73c0 .47.35.8.77.8z" fill="#F80C30"/><path d="M37 14v4.71A13.73 13.73 0 0 0 26.5 14C18.53 14 12 20.3 12 28c0 7.76 6.53 14 14.5 14 4.33 0 7.89-1.8 10.5-4.64V42h6V14h-6zM26.5 37c-5.15 0-9.5-4.02-9.5-9 0-4.91 4.35-9 9.5-9 5.16 0 9.5 4.09 9.5 9 0 4.98-4.34 9-9.5 9z" fill="#00423A"/></svg>