<!-- by TradingView --><svg xmlns="http://www.w3.org/2000/svg" width="56" height="56"><path fill="#F0F3FA" d="M0 0h56v56H0z"/><path d="M26.03 11.7A13.9 13.9 0 0013.7 24.33 13.9 13.9 0 0026.03 11.7zm1.01-6.16c-1.08 2.24-1.3 5.32-1 6.16.84.27 3.91-.02 6.13-1.15l-3.94-1.1-1.2-3.91z" fill="#EE3224"/><path d="M12.3 25.26a14.38 14.38 0 008.06 16c.86-3.54.46-11.68-8.06-16zM6.8 22.2c1.78 1.79 4.61 3.05 5.5 3.06.52-.7 1.21-3.7.84-6.18l-2.27 3.34-4.07-.22z" fill="#80C342"/><path d="M42.53 21.22a14.42 14.42 0 00-15.78-8.47 14.42 14.42 0 0015.78 8.47z" fill="#F99D28"/><path d="M48.73 20.54c-2.47-.44-5.49.17-6.2.68-.02.88 1.17 3.75 2.91 5.58l-.1-4.07 3.4-2.2z" fill="#F99D28"/><path d="M39.47 40.45c2.71-2.4 6.97-9.28 2.3-17.61-2.71 2.4-6.97 9.28-2.3 17.61z" fill="#939598"/><path d="M42.34 46.05c-.48-2.46-2.13-5.1-2.87-5.6-.83.28-3.1 2.35-4.19 4.58l3.79-1.44 3.27 2.46z" fill="#939598"/><path d="M20.48 42.9a14.11 14.11 0 0017.56-2.6 14.11 14.11 0 00-17.56 2.6zm-4.51 4.28c2.22-1.13 4.24-3.44 4.5-4.28-.51-.72-3.17-2.33-5.64-2.77l2.52 3.23-1.38 3.82z" fill="#0077C0"/></svg>