<!-- by TradingView --><svg width="56" height="56" viewBox="0 0 56 56" xmlns="http://www.w3.org/2000/svg"><path fill="#FFD302" d="M0 0h56v56H0z"/><path d="M21 46h14V35.42l6-6.16V19h-3v-3h-3v-3h-3v-3h-8v3h-3v3h-3v3h-3v10.26l6 5.96V46Z" fill="#fff"/><path d="M18 21h2v9.74l-2-2.53V21ZM21 18h2v15.9l-2-2.62V18ZM24 15h2v15h-2V15ZM27 12h2v15h-2V12ZM30 15h2v15h-2V15ZM33 18h2v13.23l-2 2.65V18ZM36 21h2v7.06l-2 2.76V21Z" fill="#241C24"/><path d="M24 31h2v13h-2V31ZM27 28h2v16h-2V28ZM30 31h2v13h-2V31Z" fill="#FFD302"/></svg>