<!-- by TradingView --><svg xmlns="http://www.w3.org/2000/svg" width="56" height="56" viewBox="0 0 56 56"><path fill="#1D8C2E" d="M0 0h56v56H0z"/><path d="M25.7 11.2c-1.93.34-3.48.96-5.1 2.02-.68.45-1.7 1.37-3.53 3.17-3.46 3.41-4.46 4.73-5.25 6.87A11.14 11.14 0 0 0 11 27.9c0 1.98.11 2.79.64 4.38.8 2.4 1.5 3.4 4.9 6.81 2.96 3 3.98 3.83 5.69 4.65 2.05.98 3.93 1.34 6.39 1.24 2.58-.1 4.81-.84 7-2.34a64 64 0 0 0 6.84-6.77 12.77 12.77 0 0 0 2.54-7.8c0-3.55-1.13-6.4-3.64-9.2a57.38 57.38 0 0 0-5.73-5.48 13.66 13.66 0 0 0-9.92-2.2zm8.41 8.95c-1.98-1.95-2.57-2.54-4.11-2.93a7.44 7.44 0 0 0-5.25.64c-.65.35-1.37.95-3.14 2.68a59.44 59.44 0 0 0-3.03 3.23A6.97 6.97 0 0 0 17 28.24c0 1.68.54 3.17 1.58 4.47.3.38 1.77 1.87 2.81 2.88 2.13 2.09 3.04 2.52 4.55 2.9 1.07.28 2.52.3 3.53.06 1.77-.41 3.14-1.17 6.18-4.3 1.99-1.78 2.57-2.92 3.04-4.28.27-.78.31-1.07.31-2.2 0-1.09-.05-1.42-.3-2.2-.45-1.34-1.5-2.37-3.66-4.5l-.41-.4-.52-.52zm-3.39-6.82c1.13.3 2.58.8 3.58 1.46a68.3 68.3 0 0 1 6.64 6.45c.87 1.15 1.4 2.72 1.77 4.11.22.88.28 1.38.3 2.55a10.7 10.7 0 0 1-2.03 6.66c-.65.87-5.87 6.03-6.68 6.62-.81.58-2.53 1.27-3.58 1.56-1.32.36-4.2.36-5.53 0a12.2 12.2 0 0 1-3.26-1.44c-.76-.5-5.84-5.45-6.7-6.51a13.18 13.18 0 0 1-1.96-4.03 8.51 8.51 0 0 1-.27-2.8c0-1.69.05-1.95.33-2.86.75-2.45 1.45-3.68 4.8-7.06 3.34-3.37 4.35-3.83 6.5-4.53 1.75-.57 4.3-.65 6.1-.18zm-7.63 3.15c.9-.58 2.1-1.09 3.11-1.3 1.27-.27 3.09-.24 4.35.08 2.14.55 3.04 1.45 5.97 4.42l.15.16.26.26c2.6 2.63 3.27 3.3 3.88 5.6.29 1.08.26 3.25-.06 4.44a9.9 9.9 0 0 1-1.64 3.37 61.43 61.43 0 0 1-6.01 5.88 9.56 9.56 0 0 1-10.54.05 56.7 56.7 0 0 1-5.74-5.65A8.05 8.05 0 0 1 15 28.76c0-2.49.55-4.45 1.99-6.3.79-1.02 5.33-5.5 6.1-5.98zm-.35 5.54c-2.86 2.88-3.14 3.25-3.55 4.62a5.86 5.86 0 0 0 6.36 7.3c1.47-.2 2.36-.73 3.94-2.33l1.34-1.35-.76-1.96c-.05-.08-.6.48-1.53 1.4l-.13.13C26.53 31.7 26.05 32 24.77 32c-1.4 0-2.74-1.1-3.4-2.4a2.77 2.77 0 0 1-.37-1.46c0-1.26.58-1.89 3.12-4.42l2.2-2.2-.72-2c-.1-.26-.33-.06-2.86 2.5zm7.15.15c-1.18.32-1.83.76-3.28 2.17l-1.38 1.37.75 1.87c.08.18.35-.04 1.71-1.4 1.9-1.89 2.34-2.18 3.65-2.18C33.3 24 35 25.83 35 27.81c0 1.33-.19 1.61-2.75 4.18A30.15 30.15 0 0 0 30 34.4l.54 2.15c.1.11 5.22-5.1 5.64-5.75.65-.98.88-1.95.82-3.4a5.63 5.63 0 0 0-2.91-4.72 6.01 6.01 0 0 0-4.2-.5z" fill="#fff"/></svg>