<?xml version="1.0" encoding="UTF-8" standalone="no"?>
<svg
   viewBox="0 0 499.99947 389.46702"
   version="1.1"
   id="svg4"
   sodipodi:docname="logo1.svg"
   width="499.99948"
   height="389.46701"
   inkscape:version="1.1.1 (3bf5ae0d25, 2021-09-20)"
   xmlns:inkscape="http://www.inkscape.org/namespaces/inkscape"
   xmlns:sodipodi="http://sodipodi.sourceforge.net/DTD/sodipodi-0.dtd"
   xmlns="http://www.w3.org/2000/svg"
   xmlns:svg="http://www.w3.org/2000/svg">
  <defs
     id="defs8" />
  <sodipodi:namedview
     id="namedview6"
     pagecolor="#ffffff"
     bordercolor="#666666"
     borderopacity="1.0"
     inkscape:pageshadow="2"
     inkscape:pageopacity="0.0"
     inkscape:pagecheckerboard="0"
     showgrid="false"
     fit-margin-top="0"
     fit-margin-left="0"
     fit-margin-right="0"
     fit-margin-bottom="0"
     inkscape:zoom="1.5757178"
     inkscape:cx="270.98761"
     inkscape:cy="231.32315"
     inkscape:window-width="1920"
     inkscape:window-height="1017"
     inkscape:window-x="-8"
     inkscape:window-y="-8"
     inkscape:window-maximized="1"
     inkscape:current-layer="svg4" />
  <path
     d="m 0,183.50954 h 498.8899 v 29.27617 H 0 Z M 0,389.467 H 30.556473 V 356.34992 H 205.27463 V 241.97653 H 0 Z M 30.556473,271.25271 H 174.71815 v 55.82104 H 30.556473 Z M 235.14827,356.34992 H 350.80196 V 389.467 h 31.83678 V 356.34992 H 498.8899 V 241.97653 H 235.14827 Z m 147.49047,-85.09721 h 85.69468 v 55.82104 h -85.69468 z m -116.93399,0 h 85.09721 v 55.82104 H 265.70475 Z M 457.32285,28.593348 h 33.45849 V 0 h -143.0521 v 153.89195 h 94.9982 c 40.5428,0 57.27205,-20.39943 57.27205,-47.79783 0,-27.14234 -15.5343,-47.115007 -56.33317,-47.115007 H 381.35844 V 28.593348 Z m -13.65653,58.808406 c 15.5343,0 21.50903,8.87674 21.50903,19.033776 0,10.15704 -5.97473,18.77772 -21.50903,18.77772 H 381.35844 V 87.3164 h 62.30788 z M 250.85327,125.29861 h -72.97704 v 28.6787 h 76.13512 c 45.06652,0 75.7937,-31.2393 75.7937,-76.988656 C 329.80505,31.239299 299.07787,0 254.01135,0 h -76.13512 v 28.678701 h 73.0624 v 0.08535 c 21.50902,0 37.38473,13.400465 42.16452,34.312017 H 194.34941 V 90.98659 h 98.75374 c -4.86514,20.82621 -20.6555,34.31202 -42.24988,34.31202 z M 154.14801,42.249872 C 154.14801,16.899949 137.24807,0 96.705261,0 H 0.17070655 V 153.97731 H 102.59463 c 40.54281,0 57.27206,-18.69237 57.27206,-44.3837 0,-16.899953 -7.25504,-29.361531 -24.41104,-35.763027 12.88834,-6.401495 18.69236,-17.156008 18.69236,-31.580711 z M 33.799897,28.593348 h 64.014957 c 15.363586,0 21.509026,9.218153 21.509026,19.03378 0,9.64492 -5.97473,17.326714 -21.509026,17.326714 H 33.799897 Z M 103.61887,125.46931 H 33.799897 V 88.425993 h 69.818973 c 15.79036,0 21.50903,8.449975 21.50903,18.436307 0,9.98633 -5.80402,18.60701 -21.50903,18.60701 z"
     fill="#30454f"
     id="path2"
     style="stroke-width:0.853533" />
</svg>
