<!-- by TradingView --><svg xmlns="http://www.w3.org/2000/svg" width="56" height="56" viewBox="0 0 56 56"><path fill="#FF8261" d="M0 0h56v56H0z"/><path d="M52 20h-9.16v16H52V20z"/><path d="M40 23h10v2h-7.15v2H49v2h-6.15v2H50v2H40V23z" fill="#FF8261"/><path d="M43 20H4v16h39V20z" fill="#fff"/><path d="M8.51 29.53c.22.96 1.02 1.5 2.57 1.5 1.78 0 2.4-.37 2.4-.94 0-.54-.27-.76-1.6-.9L9.43 29c-2.2-.21-3.2-1.2-3.2-2.83 0-1.98 1.7-3.18 4.79-3.18 2.83 0 4.38.94 4.75 2.9l-2.51.41c-.22-.88-.85-1.3-2.29-1.3-1.65 0-2.2.36-2.2.9 0 .5.32.73 1.49.86l2.49.18c2.26.23 3.25 1.17 3.25 2.85 0 2-1.57 3.2-4.96 3.2-3.02 0-4.66-.99-5.04-3.1l2.51-.37zM18 23h6.29c2.26 0 3.71 1.42 3.71 3.66 0 2.2-1.48 3.34-3.83 3.34H20.5v3H18V23zm2.5 5h3.26c1 0 1.74-.61 1.74-1.5 0-.95-.74-1.5-1.74-1.5H20.5v3zM30.01 23h6.6c1.89 0 3.05.96 3.05 2.59 0 .97-.5 1.75-1.51 2.24 1.2.38 1.85 1.23 1.85 2.4 0 1.75-1.2 2.77-3.23 2.77H30V23h.01zm2.5 2.08V27h3.6c.68 0 1.04-.37 1.04-1s-.36-1-1.04-1h-3.6v.08zm0 3.92v2h3.78c.73 0 1.09-.38 1.09-1 0-.65-.36-1-1.06-1H32.5z" fill="#FF8261"/></svg>