<!-- by TradingView --><svg width="56" height="56" viewBox="0 0 56 56" xmlns="http://www.w3.org/2000/svg"><path fill="#005D9C" d="M0 0h56v56H0z"/><path d="M26.03 34a101.2 101.2 0 0 1-15.88-1.63c-.1-.02-.11-.07-.51-1.45-.23-.8-.43-1.45-.44-1.46-.02-.02-4.96-.39-5.16-.38-.03 0-.04-.23-.04-1v-1h.08c.26 0 5.1-.33 5.12-.35l.44-1.47.42-1.45a90.76 90.76 0 0 1 35.95.01c.02.02.2.7.42 1.51.33 1.26.4 1.48.46 1.5.06 0 4.94.25 5.07.24.03 0 .04.23.04 1.02v1.02l-.28.02-2.57.16c-1.26.08-2.3.16-2.32.17 0 .01-.2.66-.4 1.43-.22.78-.4 1.43-.42 1.44-.03.04-.6.15-2.1.4a100.14 100.14 0 0 1-17.88 1.26Zm5.27-1.07c3.61-.12 7.1-.43 10.82-.96 1.38-.2 2.95-.53 2.98-.57.04-.05.52-1.9.5-1.93-.02 0-2.09.13-4.6.32l-4.65.33h-.08v-.99l-.01-.99-.7 1.05c-.38.57-.7 1.05-.72 1.05l-3.39.16-3.45.16v-1.84l-1.35 1.8L24 30.4v-3.13l-2.38.17c-.04.01-.05.33-.05 1.4 0 1.18 0 1.4-.05 1.4l-.55-.04c-2.17-.17-10.41-.74-10.51-.73l-.13.01.27.97.29.97c.02.03 2.42.49 3.7.66 5.57.76 11 1.04 16.7.85Zm.98-3.54h.44v-.81h1.53l.92-1.37.92-1.37.23-.7.24-.69h.17l1.83.1c.92.05 1.43.1 1.44.1v4.12h.18a478.8 478.8 0 0 1 5.32-.25l.14-.02v-.27c0-.15-.01-.28-.03-.29a40.3 40.3 0 0 0-1.8-.12c-.98-.05-1.49-.1-1.6-.11l-.21-.03v-1.11h.27l1.61.1 1.72.07c.02-.02-.46-1.98-.49-2.01-.05-.05-2.64-.6-4.23-.83a92.6 92.6 0 0 0-8.8-.84 90.06 90.06 0 0 0-17.56.93c-1.64.25-3.61.71-3.65.76-.03.04-.55 2.1-.53 2.12l1.68-.06 3.65-.17 1.97-.08v-.72h-.54l-.54.02v.27l-.02.28-.2.02-.63.05c-.25 0-.56.03-.7.04l-.24.02v-1.66l.08-.02a415.54 415.54 0 0 0 6.03-.31l.15-.02v1.37l-.22.24-.21.24h.2c.2 0 6.2-.38 6.2-.38v1.74l1.15-1.9c.17 0 6.33.39 6.34.4l-.36.54-.37.53-1.23-.01H31v2.14l.56-.03.72-.02Zm-14.67-1.13v-.67l-3.55.18-3.64.19c-.1 0-.1 0-.1.25v.24l.4.03c1.74.13 6.47.44 6.66.44h.23v-.66Z" fill="#fff"/></svg>