<!-- by TradingView --><svg width="56" height="56" viewBox="0 0 56 56" xmlns="http://www.w3.org/2000/svg"><path fill="#F0F3FA" d="M0 0h56v56H0z"/><path fill-rule="evenodd" d="M8 31.94a7.03 7.03 0 0 0 5.97 3.55c4.24.1 6.13.2 6.43.93.25.57-2.92 1.78-4.54 2.31 1.16.57 4.02 1.3 6.23-.3h2.1c-.37.32-.79.71-1.23 1.14-1.73 1.63-3.9 3.68-5.04 4.04 2 .6 5.99.76 9.17-4.1l2.2-.31c-.48.77-1.37 2.6-1.13 3.7l3.07-3.09c.08.43.13 1.7-.36 3.35-.61 2.06.56 3.91 2.6 4.84a9.25 9.25 0 0 1 .56-5.1 7.2 7.2 0 0 0 1.3-4.7c.23.07.76.4 1.05 1.3.27-.51.76-1.94.58-3.53.47.05 1.53.57 2 2.24a3.7 3.7 0 0 0 2.54 2.58c-.4-.67-.66-2.18-.69-4.37a11 11 0 0 0-.94-4.48c.38-.02 1.3.06 1.88.56-.24-.61-.77-1.92-.94-2.27-.1-.2.07-.13.39 0 .43.15 1.15.43 1.93.36 1.38-.1 3.85.05 4.87 1.35.06-.87-1.36-3.52-7.52-7.24.1-.33.7-1 2.36-1a5.74 5.74 0 0 0-2.97-2c.4-.07 1.46-.32 2.54-.85.41-.2.67-.41.9-.6.5-.44.9-.76 2.65-.6L44.13 18c-1.12-.13-3.52-.3-6.48 0 .05-.28.42-.97 1.5-1.47-.57-.34-2.05-.7-3.53.55-.3-.17-.52-.79 1.02-1.9 1.54-1.12 1.92-2.44 1.92-2.97-.15.4-.94 1.19-2.94 1.25-2 .05-3.2 1.75-3.56 2.6-.6-.63-1.28-2.34.87-4.22a6.09 6.09 0 0 0-6.28 3.34c-.47-.37-1.18-1.63-.25-3.74.93-2.1.56-3.17.25-3.44.03.3-.54 1.47-3 3.84-2.48 2.38-2.4 4.73-2.04 5.6l-1.2 1.29c.29-1.88.25-5.89-2.25-6.89.4.93.85 3.35-.55 5.6-1.39 2.26-.87 3.58-.43 3.96-.88-.57-2.58-2.24-2.29-4.32-1.18 1.46-2.64 5.64.98 10.7-.78-.13-2.9-.32-5.1 0 .02 0 .07.07.14.18.26.42.94 1.49 3.06 2 2.15.5 2.35 1.2 2.19 1.49-.7 0-2.45.23-3.76 1.05-1.31.81-3.48-.04-4.4-.56Zm20.27 5.82c5.8 0 10.5-4.75 10.5-10.6 0-5.84-4.7-10.59-10.5-10.59s-10.5 4.75-10.5 10.6c0 5.84 4.7 10.59 10.5 10.59Z" fill="#ECBA4B"/><path fill-rule="evenodd" d="M38 27.23a9.75 9.75 0 1 1-19.5 0 9.75 9.75 0 0 1 19.5 0Zm-1.55 0a8.2 8.2 0 1 1-16.4 0 8.2 8.2 0 0 1 16.4 0Zm-8.2 7.72a7.7 7.7 0 0 0 2.65-.47h-1.38v-.44h1.5v.4a7.7 7.7 0 0 0 1.6-.84H31.4v-.45h1.51v.23a7.71 7.71 0 0 0 3-5.25h-3.15v3.34h-5.88v-1.18h-.7l-.23-4.81h-.82l-.27 4.81h-.73l-.43-6.83h-.8l-.47 6.83h-1.27a7.72 7.72 0 0 0 7.09 4.66Zm.9-2.69h-1.52v.45h1.51v-.45Zm-1.52.89h1.51v.45h-1.51v-.45Zm1.51.89h-1.51v.44h1.51v-.44Zm.38-1.78h1.5v.45h-1.5v-.45Zm1.5.89h-1.5v.45h1.5v-.45Zm1.9-.89H31.4v.45h1.51v-.45Zm2.29-3.14h-1.96v.44h1.96v-.44Zm-1.96.7h1.96v.45h-1.96v-.45Zm1.03.8h-1.03v.44h1.03v-.45Zm-1.03.8h1.03v.45h-1.03v-.44Zm-12.58-4.24v-.66l1.71-.64v1.3h-1.7Zm6.36-3.09-2.98 1.23.1.65.66-.15.15-.6 1.86-.13-.55 1.43.19 3.54h.81v1.17h3.74l-.91-4.03h5.6v-.68l-6.34-2.43-.97-4.17h-.41l-.95 4.17Zm1.16-2.23L27.65 24h1.07l-.53-2.13Zm1.73 4.72-.41-1.68 4.17 1.68h-3.76Zm-2.84-.01.6-2.04h1l.61 2.04-1.06.93-1.15-.93Zm-.44 2.19.3-1.48.79.7-1.1.78Zm2.86-1.48.3 1.48-1.08-.79.78-.69Zm-2.56 2.11 1.25-1.08 1.24 1.08-1.24.68-1.25-.68Zm3.08.3-1.11.65 1.42.77-.3-1.42Zm-5.22-3.2h-.65l.08.7h.47l.1-.7Zm7.76-5.04c.23.04.4.17.5.27l.25-.22a1.2 1.2 0 0 0-.7-.38 1.4 1.4 0 0 0-1.12.35c-.4.34-.82.33-1.19.2a2.5 2.5 0 0 1-.82-.53l-.24.25c.16.15.51.44.95.6.45.16 1 .18 1.52-.25.34-.28.63-.32.85-.29Zm-8.69 0a.85.85 0 0 0-.49.27l-.26-.22c.13-.16.38-.33.7-.38.33-.06.72.02 1.12.35.41.34.83.33 1.2.2.36-.14.67-.4.82-.53l.23.25c-.16.15-.5.44-.94.6-.45.16-1 .18-1.52-.25-.34-.28-.63-.32-.86-.29Zm-.49.93c.09-.1.26-.23.5-.27.22-.03.5.01.85.29a1.5 1.5 0 0 0 1.52.25c.43-.16.78-.45.94-.6l-.23-.25c-.15.14-.46.4-.83.53-.36.13-.78.14-1.19-.2a1.4 1.4 0 0 0-1.12-.35 1.2 1.2 0 0 0-.7.38l.26.22Zm9.18-.27c.23.04.4.17.5.27l.25-.22a1.2 1.2 0 0 0-.7-.38 1.4 1.4 0 0 0-1.12.35c-.4.34-.82.33-1.19.2a2.5 2.5 0 0 1-.82-.53l-.24.25c.16.15.51.44.95.6.45.16 1 .18 1.52-.25.34-.28.63-.32.85-.29Zm-9.18.94c.09-.1.26-.23.5-.26.22-.04.5 0 .85.28a1.5 1.5 0 0 0 1.52.25c.43-.15.78-.45.94-.6l-.23-.25c-.15.14-.46.4-.83.53-.36.13-.78.14-1.19-.2a1.4 1.4 0 0 0-1.12-.35 1.2 1.2 0 0 0-.7.38l.26.22Zm9.18-.26c.23.03.4.16.5.26l.25-.22a1.2 1.2 0 0 0-.7-.38 1.4 1.4 0 0 0-1.12.35c-.4.34-.82.33-1.19.2a2.5 2.5 0 0 1-.82-.53l-.24.25c.16.15.51.45.95.6.45.16 1 .18 1.52-.25.34-.27.63-.32.85-.28Z" fill="#1C4F9E"/></svg>