<!-- by TradingView --><svg xmlns="http://www.w3.org/2000/svg" width="56" height="56"><path d="M0 28a28 28 0 1156 0 28 28 0 01-56 0z" fill="#D70B38"/><path d="M33 21.01c-3.48 0-6.22-1.35-6.15-3 .06-1.65 2.9-3.01 6.39-3.01 3.48 0 6.21 1.36 6.15 3-.06 1.66-2.9 3.01-6.39 3.01zm3.97 5.73c-1.72-.97-4.28-1.05-7.73 2.86-1.66 1.86-3.25 4.46-5.16 6.6-1.91 2.13-4.14 3.8-7.07 3.8-3.72 0-5.5-2.63-6.33-5.9-.41-1.65-.6-3.45-.65-5.16-.06-1.71-.01-3.33.03-4.61.02-.7.22-1.8.5-2.5a8.17 8.17 0 019.74-4.61c3 .9 4.93 3.44 4.8 6.26-.05 1.43-.16 2.93-.23 4.17a12.1 12.1 0 00.03 2.64c.16.59.8.58 1.17.26.18-.16.66-.67 1.23-1.26.56-.6 1.23-1.3 1.78-1.84a11 11 0 018.15-3.32c5.01 0 8.93 3.55 8.76 7.93-.16 4.4-3.24 7.94-9.37 7.94-5.11 0-7.9-2.98-6.5-6.77 1.26-3.44 6.4-4.44 8.55-3.8.04-.02.01-1.72-1.7-2.69" fill="#fff"/></svg>