<!-- by TradingView --><svg width="56" height="56" viewBox="0 0 56 56" xmlns="http://www.w3.org/2000/svg"><path fill="#F0F3FA" d="M0 0h56v56H0z"/><path d="M28.47 27.55c-.2-.16-.98-.66-1.34-.89.32-.55-.14-.74-.25-.57-.1.16-.47.28-.3 0 .17-.28.16-.48-.36-.5-.52-.01-.3-.16-1-.63-.68-.47-1.6-.2-1.6.31 0 .42-.17.45-.25.4a.5.5 0 0 0-.68 0c-.12-.18-.4-.5-.63-.34-.22.17-.33.07-.36 0-.4-.26-.65-.21-.72-.16-.12.97.39 1.1.66 1.06-.14.12.1.46.23.62-.57.21-.54.6-.45.76.38.5.03.53-.2.48-.11.27-.4.78-.62.64-.23-.15-.41-.15-.48-.14-.28.2 0 .68.16.9-.16.43.33.84.6 1-.47.1-.6.54-.6.75.05.71.6.86.86.85.07-.23.26-.6.41-.28.16.32.37.1.46-.06.67.02 1.94-.02 1.66-.34s-.16-.55-.06-.63c.74-.11 2.23-.07 2.32 1.03.08 1.1 1.38 1.11 2.03.98.44.5 1.35 0 1.01-.38-.34-.38-.5-.92.62-1.07.9-.12 1.29-.05 1.37 0-.01.15.05.47.32.54.28.07.62-.18.76-.31.14.23 1.14.23 1.32-.56.14-.63.41-.86.53-.9.84.11 1.62-.4 1.9-.66.83-.2.71-1.03.18-.94-.43.08-.23-.18-.07-.32-.05.03-.17-.1-.22-.85-.05-.75-.25-1.1-.34-1.18v-.66c-.33-.24-.32-.64-.28-.82-.2-.6-1.13-.19-1.58.1-.13-.96-.53-1.14-.71-1.11-1.02.27-1.16 1.3-1.1 1.77-1.31-.08-1.55 1.1-1.5 1.71.09.28.18.82-.16.69l-.79-.29c-.5-.56-.7-.23-.75 0Z" fill="url(#auf4ro5qm)"/><path fill-rule="evenodd" d="M32.78 23.72c-.5.13-.77.44-.92.78-.15.34-.17.7-.14.93v.06h-.06c-.32-.02-.57.04-.76.14-.2.1-.34.26-.45.43-.2.35-.25.79-.23 1.08.05.14.09.35.08.51 0 .08-.02.16-.08.21-.05.06-.14.06-.23.02a20.8 20.8 0 0 0-.78-.28h-.02v-.01c-.25-.29-.4-.32-.5-.29a.22.22 0 0 0-.11.1.49.49 0 0 0-.06.16l-.02.09-.06-.06c-.2-.16-.97-.66-1.34-.89l-.04-.02.02-.05c.16-.26.12-.42.05-.49a.18.18 0 0 0-.12-.06c-.04 0-.07.01-.08.04a.44.44 0 0 1-.14.12.46.46 0 0 1-.15.07h-.08a.1.1 0 0 1-.07-.06.13.13 0 0 1 0-.09.4.4 0 0 1 .05-.1.67.67 0 0 0 .08-.18v-.11c-.02-.03-.05-.06-.12-.08a.98.98 0 0 0-.28-.05.93.93 0 0 1-.3-.04.45.45 0 0 1-.17-.12 2.8 2.8 0 0 1-.05-.05c-.09-.1-.22-.24-.5-.43a1.34 1.34 0 0 0-1.03-.2c-.3.06-.5.25-.5.47 0 .21-.05.34-.11.41a.18.18 0 0 1-.22.04.43.43 0 0 0-.36-.12.51.51 0 0 0-.26.11l-.04.04-.03-.05a1.13 1.13 0 0 0-.26-.29c-.11-.08-.21-.1-.3-.04-.11.09-.21.11-.3.1a.2.2 0 0 1-.13-.1c-.2-.12-.34-.17-.45-.18a.34.34 0 0 0-.19.01c-.05.46.05.71.18.85.13.13.3.15.43.13l.18-.03-.14.12c-.02.01-.03.04-.03.08s.03.1.05.15c.06.12.15.24.21.31l.05.06-.07.02c-.27.1-.39.25-.43.37a.4.4 0 0 0 .01.32c.1.13.15.23.17.31.02.09 0 .16-.05.2a.28.28 0 0 1-.18.07l-.15-.01c-.06.13-.15.31-.26.45a.65.65 0 0 1-.2.17c-.06.04-.14.05-.22 0-.2-.13-.37-.14-.43-.13-.1.08-.11.22-.06.38s.16.33.24.43l.02.03v.02c-.08.2-.01.39.12.56.13.17.32.31.45.39l.11.06-.13.03a.66.66 0 0 0-.44.3.82.82 0 0 0-.12.4c.03.34.17.54.33.66.15.1.32.14.44.14.04-.1.1-.25.18-.33.04-.04.1-.08.16-.07.07 0 .12.06.16.15.04.07.07.1.1.12a.1.1 0 0 0 .09 0 .3.3 0 0 0 .1-.08.62.62 0 0 0 .08-.1l.01-.03h.03c.33.01.82 0 1.18-.04.18-.03.33-.06.4-.1l.07-.06-.03-.06c-.15-.16-.2-.31-.18-.44a.37.37 0 0 1 .13-.26h.02c.38-.06.94-.08 1.43.05.24.07.47.18.64.34a1 1 0 0 1 .3.67c.03.27.12.46.25.61.14.15.32.24.53.3.4.12.88.1 1.2.03h.03l.01.02c.2.22.52.23.75.12.11-.05.2-.12.23-.2a.2.2 0 0 0 .02-.12.23.23 0 0 0-.06-.12c-.08-.1-.16-.2-.2-.32a.52.52 0 0 1-.04-.34c.06-.24.33-.41.9-.49a5.86 5.86 0 0 1 1.26-.04l.13.05.03.01v.03c0 .07 0 .18.05.28.04.1.12.18.24.2a.6.6 0 0 0 .4-.07c.12-.06.24-.15.3-.22l.05-.04.03.05c.01.02.03.04.07.06a.5.5 0 0 0 .14.04c.1.02.24.02.38-.02a.8.8 0 0 0 .64-.62c.07-.32.18-.54.28-.69.1-.14.21-.22.29-.24h.02c.4.05.8-.05 1.13-.2.33-.14.59-.32.73-.45v-.01h.02c.4-.1.55-.35.56-.54a.3.3 0 0 0-.1-.24c-.05-.06-.14-.09-.27-.07-.1.02-.18.02-.24 0a.11.11 0 0 1-.06-.06.13.13 0 0 1 0-.08.4.4 0 0 1 .08-.14l.06-.08a.4.4 0 0 1-.07-.13 3.13 3.13 0 0 1-.1-.73 3.22 3.22 0 0 0-.16-.83.83.83 0 0 0-.17-.31l-.02-.02v-.65a.85.85 0 0 1-.28-.84.36.36 0 0 0-.23-.24.8.8 0 0 0-.4 0c-.31.06-.65.23-.88.36l-.06.05-.01-.08c-.07-.47-.2-.74-.33-.9-.12-.14-.25-.17-.32-.16Zm.74.97c-.07-.44-.2-.7-.34-.87-.15-.17-.3-.22-.42-.2-.53.14-.83.48-1 .84-.14.33-.17.68-.15.93-.3-.02-.56.05-.76.15-.21.12-.37.28-.48.47-.23.38-.27.84-.25 1.14v.02c.05.14.09.33.08.48 0 .07-.02.12-.04.14-.02.02-.06.03-.13 0-.33-.13-.65-.24-.78-.28-.24-.28-.44-.36-.59-.3a.32.32 0 0 0-.17.14.55.55 0 0 0-.05.12c-.26-.2-.9-.61-1.25-.83.14-.26.11-.46.01-.57a.28.28 0 0 0-.18-.09.19.19 0 0 0-.18.08.34.34 0 0 1-.1.1.36.36 0 0 1-.12.05h-.04v-.02a.3.3 0 0 1 .04-.07.77.77 0 0 0 .1-.21.26.26 0 0 0-.02-.2.3.3 0 0 0-.17-.12 1.08 1.08 0 0 0-.31-.05.83.83 0 0 1-.26-.03.35.35 0 0 1-.14-.1l-.05-.05c-.09-.1-.22-.24-.51-.44-.36-.24-.78-.3-1.11-.22-.33.07-.59.28-.59.57 0 .2-.04.3-.08.34-.03.03-.06.03-.09.02a.53.53 0 0 0-.43-.13c-.1.02-.2.06-.26.1a1.2 1.2 0 0 0-.25-.27c-.12-.09-.28-.14-.42-.04-.1.08-.17.09-.21.08a.1.1 0 0 1-.07-.06v-.01l-.02-.01c-.21-.13-.38-.19-.51-.2-.13-.02-.22 0-.27.04l-.02.02v.02c-.06.49.03.78.2.95.12.13.28.17.42.17v.07c0 .06.02.12.05.19.05.1.12.2.18.28-.25.1-.38.25-.43.4a.5.5 0 0 0 .03.4c.1.13.14.22.15.28.02.06 0 .1-.02.11-.02.02-.06.03-.11.04-.06 0-.11 0-.17-.02h-.04l-.01.03c-.06.14-.16.33-.27.46a.56.56 0 0 1-.16.15c-.05.03-.09.03-.13 0-.23-.15-.43-.16-.51-.14l-.02.01c-.16.12-.16.32-.1.5.05.16.15.33.24.44-.08.23.01.45.15.63.11.15.26.27.38.35a.75.75 0 0 0-.4.33.92.92 0 0 0-.13.44c.03.37.18.6.37.74.18.13.4.17.54.16h.03l.01-.03c.04-.11.1-.26.17-.33.04-.04.06-.05.08-.04.01 0 .04.01.08.09s.09.14.14.17a.2.2 0 0 0 .18 0 .4.4 0 0 0 .13-.1.72.72 0 0 0 .08-.1c.33.01.8 0 1.16-.04.19-.03.35-.06.45-.12.04-.02.09-.06.1-.11.02-.05 0-.1-.04-.15-.14-.16-.17-.28-.16-.37 0-.08.05-.15.08-.18.37-.06.9-.07 1.37.06.23.06.44.16.6.31a.9.9 0 0 1 .28.61c.02.29.12.5.27.67.15.16.35.26.57.33.41.12.9.1 1.22.04.24.24.6.24.84.12a.57.57 0 0 0 .28-.25.3.3 0 0 0-.05-.34c-.08-.1-.15-.2-.2-.3a.42.42 0 0 1-.03-.28c.05-.17.26-.33.82-.41a5.77 5.77 0 0 1 1.23-.04l.08.02c0 .08.01.19.06.29.05.11.14.22.3.26.16.04.33 0 .47-.08.12-.06.22-.13.3-.2.01.02.04.04.07.05l.16.05c.12.02.28.02.43-.02a.9.9 0 0 0 .7-.7c.08-.3.18-.51.27-.65.1-.12.18-.18.23-.2.42.05.83-.05 1.17-.2.33-.15.6-.34.75-.47.42-.11.61-.38.62-.63a.4.4 0 0 0-.13-.32.4.4 0 0 0-.35-.08h-.19v-.02a.3.3 0 0 1 .05-.11l.11-.12-.05-.08h.01a.29.29 0 0 1-.05-.1 3.05 3.05 0 0 1-.1-.7 3.31 3.31 0 0 0-.17-.86 1 1 0 0 0-.18-.34v-.66l-.02-.02c-.3-.22-.3-.6-.26-.76v-.03a.46.46 0 0 0-.3-.31.9.9 0 0 0-.45-.01c-.3.06-.62.2-.84.34Z"/><path d="M28 25.9a3.44 3.44 0 1 0-2.18-6.1c.35.28.68.69.9 1.23a1.95 1.95 0 0 1 3.18.72h-2.56v1.45h2.54a1.96 1.96 0 0 1-3.11.71c-.21.52-.53.94-.88 1.27.59.45 1.32.72 2.11.72Z" fill="url(#buf4ro5qm)"/><path fill-rule="evenodd" d="M29.83 23.3a1.96 1.96 0 0 1-3.06.61l-.04.1a3.58 3.58 0 0 1-.84 1.17 3.43 3.43 0 0 0 2.11.72 3.44 3.44 0 1 0-2.18-6.1l.07.06a3.16 3.16 0 0 1 .83 1.17 1.96 1.96 0 0 1 3.18.72h-2.56v1.45h2.54l-.05.1Zm-2.4-.2h2.6l-.06.13a2.06 2.06 0 0 1-3.16.85c-.2.43-.47.8-.76 1.1a3.34 3.34 0 1 0-.07-5.38c.3.26.57.61.78 1.06a2.05 2.05 0 0 1 3.23.85l.05.14h-2.6v1.25Z"/><path d="M34 28.1a3.44 3.44 0 1 1-.02-6.48l.3 1.87a1.95 1.95 0 0 0-3.35 1.37 1.96 1.96 0 0 0 3.3 1.43L34 28.1Z" fill="url(#cuf4ro5qm)"/><path d="M33.9 28.03a3.34 3.34 0 1 1 0-6.33l.24 1.53a2.06 2.06 0 1 0-.05 3.3l-.18 1.5Zm.21-1.64a1.96 1.96 0 1 1 .17-2.9l-.3-1.87A3.44 3.44 0 1 0 34 28.1l.23-1.81-.12.1Z"/><path d="m23.19 19.67-1.25 4.64 1.12.16.38-2.12 1.14 2.26 1.11-2.26.42 2.12 1.06-.16-1.13-4.64-1.46 2.92-1.4-2.92Z" fill="url(#duf4ro5qm)"/><path d="m26.05 19.53 1.18 4.82-1.16.18-.4-2.02-1.1 2.22-1.1-2.22-.37 2.01-1.22-.17 1.3-4.82 1.4 2.94 1.47-2.94Zm-.03.29-1.44 2.88-1.38-2.89-1.2 4.46 1.02.14.4-2.21 1.16 2.3 1.13-2.3.44 2.21.96-.14-1.09-4.45Z"/><path d="M32 26.18v-2.67h.64v1.15h.12l.79-1.2.66.3-.87 1.05.87 1.25-.66.18-.8-1.27h-.11v1.21H32Z" fill="url(#euf4ro5qm)"/><path d="m33.53 23.4.76.35-.9 1.07.9 1.27-.76.2-.8-1.27h-.04v1.21h-.73v-2.77h.73v1.15h.04l.8-1.2Zm.04.13-.79 1.18h-.2v-1.15h-.52v2.57h.53v-1.2h.2l.78 1.25.55-.15-.85-1.22.86-1.02-.56-.26Z"/><path fill-rule="evenodd" d="M25.3 25.5h-.73v.36l-.99.6.97.13v.22l-1.66.8 1.58.21-.05.43-1.14.83.97.16c-.13.7-.3 1.25-.4 1.56h-.02c-.11.44-.4 1.16-.73 1.88l-.75 1.64-.12.25.27.13.12-.25.02-.04c.18-.24.44-.57.71-.89l-.15.7.18.08c.2-.3.5-.76.82-1.13.16-.18.32-.34.47-.45.14-.1.25-.14.32-.14.26.1.94.58 1.5 1.71l.19-.06-.17-.87c.31.39.6.8.8 1.1l.12.24.27-.13a25.25 25.25 0 0 1-1.58-3.76v-.02c-.2-.47-.34-1-.45-1.55l.95-.16-1.12-.82-.06-.44 1.4-.22-1.49-.79-.01-.24.84-.11-.87-.57-.01-.29v-.1Zm1.55 7.97c-.25-.54-.45-1.02-.61-1.42l.18.9.43.52Zm-1.28-3.73-.1-.48h-1.02l-.15.7-.19.9h.02l-.06.2-.37 1.77c.23-.24.46-.46.67-.62.22-.16.45-.29.65-.29.19 0 .4.12.62.28.17.13.34.3.52.48l-.59-2.94Zm-1.94 2.48a35.48 35.48 0 0 1-.63 1.4l.44-.5.19-.9Zm.54-5.89.4-.24v.3l-.4-.06Zm-.6 1.17.96-.46-.04.58-.91-.12Zm.2 1.46.61-.44-.09.53-.51-.09Zm2.35 0-.5.08a15.7 15.7 0 0 1-.08-.5l.58.42Zm.1-1.46-.8.12-.05-.57.84.45Zm-.6-1.17-.3.04v-.23l.3.2Zm-.2 2.73h-.93c.07-.37.14-.79.18-1.23h.57c.05.4.1.81.19 1.23Zm-.2-1.43h-.53c.05-.51.09-1.38.08-1.93h.33c0 .42.06 1.31.12 1.93Zm-1.17 5.41c-.2.22-.38.47-.54.7l.11-.53a11.15 11.15 0 0 1 .87-.84c.22-.16.4-.24.53-.24.12 0 .29.07.5.23a5.03 5.03 0 0 1 .72.69l.12.6a3.15 3.15 0 0 0-1.3-1.26h-.02c-.17-.03-.34.06-.5.17-.16.12-.33.3-.49.48Z"/><path fill-rule="evenodd" d="M8 31.94a7.03 7.03 0 0 0 5.97 3.55c4.24.1 6.13.2 6.43.93.25.57-2.92 1.78-4.54 2.31 1.16.57 4.02 1.3 6.23-.3h2.1c-.37.32-.79.71-1.23 1.14-1.73 1.63-3.9 3.68-5.04 4.04 2 .6 5.99.76 9.17-4.1l2.2-.31c-.48.77-1.37 2.6-1.13 3.7l3.07-3.09c.08.43.13 1.7-.36 3.35-.61 2.06.56 3.91 2.6 4.84a9.25 9.25 0 0 1 .56-5.1 7.2 7.2 0 0 0 1.3-4.7c.23.07.76.4 1.05 1.3.27-.51.76-1.94.58-3.53.47.05 1.53.57 2 2.24a3.7 3.7 0 0 0 2.54 2.58c-.4-.67-.66-2.18-.69-4.37a11 11 0 0 0-.94-4.48c.38-.02 1.3.06 1.88.56-.24-.61-.77-1.92-.94-2.27-.1-.2.07-.13.39 0 .43.15 1.15.43 1.93.36 1.38-.1 3.85.05 4.87 1.35.06-.87-1.36-3.52-7.52-7.24.1-.33.7-1 2.36-1a5.74 5.74 0 0 0-2.97-2c.4-.07 1.46-.32 2.54-.85.41-.2.67-.41.9-.6.5-.44.9-.76 2.65-.6L44.13 18c-1.12-.13-3.52-.3-6.48 0 .05-.28.42-.97 1.5-1.47-.57-.34-2.05-.7-3.53.55-.3-.17-.52-.79 1.02-1.9 1.54-1.12 1.92-2.44 1.92-2.97-.15.4-.94 1.19-2.94 1.25-2 .05-3.2 1.75-3.56 2.6-.6-.63-1.28-2.34.87-4.22a6.09 6.09 0 0 0-6.28 3.34c-.47-.37-1.18-1.63-.25-3.74.93-2.1.56-3.17.25-3.44.03.3-.54 1.47-3 3.84-2.48 2.38-2.4 4.73-2.04 5.6l-1.2 1.29c.29-1.88.25-5.89-2.25-6.89.4.93.85 3.35-.55 5.6-1.39 2.26-.87 3.58-.43 3.96-.88-.57-2.58-2.24-2.29-4.32-1.18 1.46-2.64 5.64.98 10.7-.78-.13-2.9-.32-5.1 0 .02 0 .07.07.14.18.26.42.94 1.49 3.06 2 2.15.5 2.35 1.2 2.19 1.49-.7 0-2.45.23-3.76 1.05-1.31.81-3.48-.04-4.4-.56Zm20.33 5.4c5.7 0 10.32-4.66 10.32-10.42 0-5.75-4.62-10.41-10.32-10.41S18 21.17 18 26.92c0 5.76 4.62 10.42 10.33 10.42Z" fill="#F8BD19"/><defs><linearGradient id="auf4ro5qm" x1="28.2" y1="23.67" x2="28.2" y2="33" gradientUnits="userSpaceOnUse"><stop offset=".25" stop-color="#D6142B"/><stop offset=".59" stop-color="#fff"/><stop offset=".82" stop-color="#3B029B"/></linearGradient><linearGradient id="buf4ro5qm" x1="29.49" y1="19.27" x2="26.99" y2="24.93" gradientUnits="userSpaceOnUse"><stop stop-color="#555"/><stop offset=".5" stop-color="#DEDEDE"/><stop offset="1" stop-color="#3E3B39"/></linearGradient><linearGradient id="cuf4ro5qm" x1="33.26" y1="21.42" x2="30.77" y2="27.67" gradientUnits="userSpaceOnUse"><stop stop-color="#3E3E3E"/><stop offset=".43" stop-color="#D7D7D7"/><stop offset="1" stop-color="#404040"/></linearGradient><linearGradient id="duf4ro5qm" x1="25.58" y1="19.18" x2="21.94" y2="24.36" gradientUnits="userSpaceOnUse"><stop stop-color="#D5D5D5"/><stop offset=".43" stop-color="#9B9B9B"/><stop offset="1" stop-color="#4E4E4E"/></linearGradient><linearGradient id="euf4ro5qm" x1="33.88" y1="23.47" x2="32.6" y2="26.24" gradientUnits="userSpaceOnUse"><stop stop-color="#777"/><stop offset=".46" stop-color="#E3E3E1"/><stop offset="1" stop-color="#786F69"/></linearGradient></defs></svg>