<!-- by TradingView --><svg width="56" height="56" viewBox="0 0 56 56" xmlns="http://www.w3.org/2000/svg"><path fill="#F0F3FA" d="M0 0h56v56H0z"/><path d="M41.03 21.44c-.8 2.64-1.9 4.93-2.87 7.5h-.91c-.91-2.56-1.94-4.85-2.6-7.5-.06 2.61-.18 4.95-.35 7.56h-1.26l.66-9h1.54c.89 2.44 1.9 4.86 2.53 7.38h.05c.65-2.52 1.71-4.95 2.64-7.38H42l.59 9h-1.32c-.15-2.6-.27-4.95-.24-7.56ZM51 28.52a8.8 8.8 0 0 1-2.8.48 4.8 4.8 0 0 1-3.43-1.16 4.45 4.45 0 0 1-1.27-3.29c.01-2.63 1.88-4.55 4.95-4.55 1.06 0 1.89.22 2.28.4l-.29.93a4.88 4.88 0 0 0-2.02-.37c-2.22 0-3.67 1.33-3.67 3.54 0 2.24 1.4 3.5 3.52 3.5.78 0 1.16-.11 1.43-.25V25H48v-1h3v4.52ZM47.77 32.66v-2.1h.26v1.87H49v.23h-1.23ZM45.91 32.66h-.26l.76-2.1h.27l.77 2.1h-.27l-.63-1.76h-.01l-.63 1.76Zm.1-.82h1.07v.23h-1.07v-.23ZM45.41 31.22h-.25a.53.53 0 0 0-.21-.33.58.58 0 0 0-.18-.09.7.7 0 0 0-.2-.03.64.64 0 0 0-.34.1.67.67 0 0 0-.25.28c-.06.13-.09.28-.09.46s.03.34.1.46c.05.12.13.22.24.28.1.07.21.1.34.1a.7.7 0 0 0 .2-.03.54.54 0 0 0 .39-.42h.25c-.02.11-.05.2-.1.3a.78.78 0 0 1-.44.34.94.94 0 0 1-.78-.09.9.9 0 0 1-.32-.37 1.27 1.27 0 0 1-.12-.57c0-.22.04-.4.12-.57a.9.9 0 0 1 .32-.37c.14-.09.3-.13.48-.13a.82.82 0 0 1 .74.4c.05.08.08.17.1.28ZM43.22 30.57v2.09h-.25v-2.1h.25ZM41.54 32.66h-.65v-2.1h.68c.2 0 .38.05.52.13.15.08.26.2.33.36.08.16.12.34.12.56 0 .22-.04.4-.12.56a.83.83 0 0 1-.34.36c-.15.09-.33.13-.54.13Zm-.4-.23h.38c.18 0 .32-.03.43-.1.12-.06.2-.16.26-.28.06-.13.08-.27.08-.44 0-.17-.02-.32-.08-.44a.61.61 0 0 0-.25-.28.78.78 0 0 0-.4-.1h-.41v1.64ZM39.17 32.66v-2.1h1.26v.23h-1v.7h.94v.23h-.95v.71h1.03v.23h-1.28ZM36.6 30.57h.3l.72 1.73h.03l.7-1.73h.31v2.09h-.24v-1.6h-.02l-.65 1.6h-.23l-.66-1.6h-.02v1.6h-.23v-2.1ZM34.37 32.66h-.65v-2.1h.68c.2 0 .38.05.52.13.15.08.26.2.33.36.08.16.12.34.12.56 0 .22-.04.4-.12.56a.83.83 0 0 1-.34.36c-.15.09-.33.13-.54.13Zm-.4-.23h.38c.18 0 .32-.03.44-.1.1-.06.2-.16.25-.28.06-.13.08-.27.08-.44 0-.17-.02-.32-.08-.44a.61.61 0 0 0-.25-.28.78.78 0 0 0-.4-.1h-.41v1.64ZM32 32.66v-2.1h1.26v.23h-1v.7h.94v.23h-.95v.71h1.03v.23H32ZM30.04 30.8v-.23h1.57v.22h-.66v1.87h-.25v-1.87h-.66ZM29.64 30.57v2.09h-.25v-2.1h.25ZM28.88 30.57v2.09h-.25l-1.14-1.64h-.02v1.64h-.25v-2.1h.24l1.15 1.65h.02v-1.64h.25ZM26.46 30.57h.25v1.38a.7.7 0 0 1-.38.65.91.91 0 0 1-.43.1.91.91 0 0 1-.43-.1.72.72 0 0 1-.29-.27.73.73 0 0 1-.1-.38v-1.38h.26v1.36c0 .1.02.2.06.27.05.08.11.14.2.19.08.04.18.07.3.07.11 0 .21-.03.3-.07.08-.05.15-.1.19-.19a.54.54 0 0 0 .07-.27v-1.36ZM33.4 35.96v-2.09h.7c.17 0 .3.03.41.1.1.05.18.13.23.23.06.1.08.21.08.33 0 .13-.02.24-.08.34a.56.56 0 0 1-.23.24.8.8 0 0 1-.4.09h-.5v-.23h.5c.1 0 .2-.01.27-.05.06-.04.11-.1.14-.16a.52.52 0 0 0 .05-.23.52.52 0 0 0-.05-.22.34.34 0 0 0-.15-.16.57.57 0 0 0-.27-.05h-.45v1.86h-.25ZM32.64 33.87h.25v1.39a.71.71 0 0 1-.38.65.91.91 0 0 1-.43.09.91.91 0 0 1-.43-.1.72.72 0 0 1-.29-.26.73.73 0 0 1-.1-.38v-1.39h.26v1.37c0 .1.02.19.06.27.05.08.11.14.2.19.08.04.18.06.3.06.11 0 .22-.02.3-.06.08-.05.15-.11.2-.2a.54.54 0 0 0 .06-.26v-1.37ZM30.84 34.92c0 .22-.04.4-.12.57a.9.9 0 0 1-.33.37.88.88 0 0 1-.48.13.88.88 0 0 1-.48-.13.9.9 0 0 1-.32-.37 1.27 1.27 0 0 1-.12-.57c0-.22.04-.41.12-.57a.9.9 0 0 1 .32-.38c.14-.08.3-.13.48-.13s.34.05.48.13a.9.9 0 0 1 .33.38c.08.16.12.35.12.57Zm-.25 0c0-.18-.03-.34-.09-.46a.63.63 0 0 0-.59-.38.64.64 0 0 0-.34.1.67.67 0 0 0-.25.28c-.06.12-.09.28-.09.46s.03.33.1.46c.05.12.13.21.24.28.1.06.21.1.34.1a.63.63 0 0 0 .59-.38c.06-.13.09-.28.09-.46ZM27.22 35.96v-2.09h.71c.17 0 .3.03.4.09.11.05.19.13.24.22.05.1.07.21.07.33 0 .13-.02.24-.07.33a.53.53 0 0 1-.23.23.87.87 0 0 1-.4.08h-.58v-.23h.57c.11 0 .2-.02.27-.05a.31.31 0 0 0 .15-.14.47.47 0 0 0 .04-.22.49.49 0 0 0-.04-.22.32.32 0 0 0-.15-.14.61.61 0 0 0-.28-.05h-.44v1.86h-.26Zm1-.94.5.94h-.29l-.5-.94h.28ZM26.51 34.53a.74.74 0 0 0-.08-.19.57.57 0 0 0-.51-.26.62.62 0 0 0-.58.38c-.06.12-.1.28-.1.46s.04.33.1.46c.06.12.14.21.24.28.1.06.22.1.35.1.12 0 .23-.03.32-.08.1-.05.16-.13.22-.22.05-.1.07-.2.07-.33l.08.01H26v-.22h.8v.22c0 .17-.04.32-.11.45a.76.76 0 0 1-.3.3.91.91 0 0 1-.45.1.9.9 0 0 1-.49-.13.88.88 0 0 1-.32-.37 1.3 1.3 0 0 1-.12-.57c0-.17.02-.32.07-.45.04-.13.1-.24.19-.34a.83.83 0 0 1 .66-.29.93.93 0 0 1 .56.2.8.8 0 0 1 .3.49h-.27ZM26.3 20v5.24c0 1.99.88 2.76 2.15 2.76 1.4 0 2.25-.8 2.25-2.76V20H32v5.16c0 2.72-1.54 3.84-3.6 3.84-1.94 0-3.4-1.04-3.4-3.78V20h1.3Z" fill="#175096"/><path fill-rule="evenodd" d="M5 36h16V20H5v16Zm11.78-13.06.3.36.37.09-.19.16.3.4-.43-.29-.23.17-.06-.36-.43-.3.4.08-.03-.31Zm2.03 2.56-.34-.44.1.43-.4-.01.47.3.14.5.17-.3.45.29-.36-.47.13-.28-.36-.02Zm.1 2.33.46.63.43-.09-.13.52.48.69-.58-.33-.18.6-.2-.83-.6-.37.48-.13-.16-.69Zm-8.43-5.91-.28-.52-.3.4-.97-.2.75.48-.33.48.82-.18.75.44-.27-.55.66-.17-.83-.18Zm6.03 8.88.59 1.02.75-.3-.36 1.01.63 1.17-.9-.41-.51 1.3-.1-1.6-.95-.5.9-.43-.05-1.26Zm-8.17-5.79-.31-.8-.61.76-1.57-.05 1.13.63-.72 1.01 1.46-.62 1.1.56-.29-.92 1.07-.5-1.26-.07Zm2.26 4.2.47 1.16 1.3-.27-.98 1.1.48 1.37-1.26-.54-1.45 1.5.6-1.89-1.3-.64 1.65-.42.5-1.37Zm3.52-7.4-.27-.39-.08.3-.56-.15.51.35-.07.34.4-.12.51.33-.26-.4.33-.13-.5-.14Z" fill="#777776"/></svg>