<!-- by TradingView --><svg xmlns="http://www.w3.org/2000/svg" width="56" height="56" viewBox="0 0 56 56"><path fill="#007BFB" d="M0 0h56v56H0z"/><path d="M18 16.08c0 .31.13.61.37.84l8.56 7.96c.24.23.56.32.89.32.34 0 .69-.1.96-.36l3.84-3.67a1.21 1.21 0 0 0 .03-1.73l-8.51-8.06a1.3 1.3 0 0 0-.89-.38c-.34 0-.7.16-.96.41l-3.88 3.78c-.27.25-.41.57-.41.9zm17.79 6.22c-.37 0-.73.16-1 .42L18.46 38a1.4 1.4 0 0 0-.47.98c0 .3.22.6.47.84l4.03 3.8a1.41 1.41 0 0 0 1.93 0l16.2-15.27c.24-.23.37-.54.37-.85 0-.35-.1-.7-.38-.97l-3.9-3.8c-.26-.25-.6-.43-.93-.43z" fill="#fff"/></svg>