<svg xmlns:svg="http://www.w3.org/2000/svg" xmlns="http://www.w3.org/2000/svg" viewBox="0 0 192.756 99.256" overflow="visible">
  <polygon points="0 0 192.756 0 192.756 99.256 0 99.256" clip-rule="evenodd" fill="none" fill-rule="evenodd"/>
  <polygon points="73.476 74.141 73.476 72.435 69.136 72.435 69.136 74.141 68.629 74.141 68.629 70.481 69.136 70.481 69.136 72.068 73.476 72.068 73.476 70.481 73.977 70.481 73.977 74.141" clip-rule="evenodd" fill="#201c26" fill-rule="evenodd"/>
  <polygon points="75.684 74.141 75.684 70.481 80.007 70.481 80.007 70.846 76.183 70.846 76.183 72.068 79.906 72.068 79.906 72.43 76.183 72.43 76.183 73.774 80.007 73.774 80.007 74.141" clip-rule="evenodd" fill="#201c26" fill-rule="evenodd"/>
  <path d="M88.78 72.527v-.456c0-.87-.432-1.308-1.801-1.308h-1.49v-.325h-.508v.325h-1.472c-1.378 0-1.81.365-1.81 1.308v.456c0 .931.488 1.253 1.81 1.253h1.472v.36h.508v-.36h1.49c1.314 0 1.801-.305 1.801-1.253zm-.509 0c0 .705-.341.891-1.292.891h-1.49v-2.289h1.49c.903 0 1.292.212 1.292.922zm-3.29.891h-1.472c-.952 0-1.315-.186-1.315-.896v-.487c0-.7.398-.906 1.315-.906h1.472z" clip-rule="evenodd" fill="#201c26" fill-rule="evenodd"/>
  <polygon points="92.642 70.846 92.642 74.141 93.147 74.141 93.147 70.846 95.534 70.846 95.534 70.481 90.273 70.481 90.273 70.846" clip-rule="evenodd" fill="#201c26" fill-rule="evenodd"/>
  <path d="M101.905 74.141v-3.659h-3.29c-1.215 0-1.716.301-1.716 1.133 0 .688.501 1.009 1.459 1.009l-1.661 1.518h.703l1.563-1.518h2.433v1.518h.509zm-.509-1.879h-2.94c-.782 0-1.055-.102-1.055-.647 0-.568.286-.769 1.005-.769h2.99z" clip-rule="evenodd" fill="#201c26" fill-rule="evenodd"/>
  <polygon points="108.589 74.141 108.589 72.435 104.252 72.435 104.252 74.141 103.747 74.141 103.747 70.481 104.252 70.481 104.252 72.068 108.589 72.068 108.589 70.481 109.096 70.481 109.096 74.141" clip-rule="evenodd" fill="#201c26" fill-rule="evenodd"/>
  <path d="M116.272 74.141l-2.53-3.659h-.777l-2.528 3.659h.558l.628-.918h3.434l.622.918zm-1.479-1.292h-2.896l1.444-2.105z" clip-rule="evenodd" fill="#201c26" fill-rule="evenodd"/>
  <path d="M122.041 74.141v-1.518h-2.432l-1.571 1.518h-.693l1.649-1.518c-.956 0-1.451-.321-1.451-1.009 0-.832.495-1.133 1.71-1.133h3.297v3.659h-.509zm0-3.295h-2.989c-.717 0-1.014.2-1.014.769 0 .546.276.647 1.062.647h2.941z" clip-rule="evenodd" fill="#201c26" fill-rule="evenodd"/>
  <polygon points="131.92 74.141 132.807 74.141 129.275 72.223 132.728 70.481 131.833 70.481 128.75 72.051 127.93 72.051 127.93 70.481 127.423 70.481 127.423 74.141 127.93 74.141 127.93 72.419 128.771 72.419" clip-rule="evenodd" fill="#201c26" fill-rule="evenodd"/>
  <path d="M139.379 72.886c0 .716-.239.889-1.265.889h-2.137c-.951 0-1.306-.184-1.306-.889v-1.168c0-.712.389-.905 1.306-.905h2.137c.974 0 1.265.181 1.265.905zm.501 0v-1.145c0-1.064-.582-1.303-1.766-1.303h-2.132c-1.387 0-1.818.374-1.818 1.303v1.145c0 .94.492 1.255 1.818 1.255h2.132c1.298 0 1.766-.213 1.766-1.255z" clip-rule="evenodd" fill="#201c26" fill-rule="evenodd"/>
  <polygon points="147.561 70.481 148.648 70.481 148.648 74.141 148.141 74.141 148.141 70.778 147.86 70.778 145.224 74.141 144.965 74.141 142.333 70.778 142.048 70.778 142.048 74.141 141.545 74.141 141.545 70.481 142.625 70.481 145.101 73.602" clip-rule="evenodd" fill="#201c26" fill-rule="evenodd"/>
  <polygon points="150.971 74.141 150.971 70.846 155.297 70.846 155.297 74.141 155.808 74.141 155.808 70.481 150.458 70.481 150.458 74.141" clip-rule="evenodd" fill="#201c26" fill-rule="evenodd"/>
  <path d="M162.393 74.141l-.621-.918h-3.434l-.637.918h-.558l2.534-3.659h.768l2.53 3.659zm-2.333-3.398l-1.454 2.105h2.901z" clip-rule="evenodd" fill="#201c26" fill-rule="evenodd"/>
  <polygon points="169.771 74.141 169.771 70.481 169.268 70.481 169.268 72.068 164.937 72.068 164.937 70.481 164.424 70.481 164.424 74.141 164.937 74.141 164.937 72.435 169.268 72.435 169.268 74.141" clip-rule="evenodd" fill="#201c26" fill-rule="evenodd"/>
  <polygon points="176.857 74.141 176.857 70.481 175.871 70.481 172.011 73.856 171.967 73.856 171.967 70.481 171.468 70.481 171.468 74.141 172.289 74.141 176.159 70.764 176.346 70.764 176.346 74.141" clip-rule="evenodd" fill="#201c26" fill-rule="evenodd"/>
  <path d="M182.965 72.262h-2.947c-.786 0-1.05-.102-1.05-.647 0-.568.278-.769.995-.769h3.002zm.497 1.879v-3.659h-3.287c-1.207 0-1.714.301-1.714 1.133 0 .688.507 1.009 1.462 1.009l-1.667 1.518h.712l1.555-1.518h2.442v1.518h.497z" clip-rule="evenodd" fill="#201c26" fill-rule="evenodd"/>
  <path d="M68.585 79.563s10.996-.148 11.877.442c.88.582 1.759 1.176 1.906 2.343.146 1.174-.586 4.834-3.373 4.983-2.783.146-6.004-.149-6.004-.149l-.144 2.933-4.398-.146z" clip-rule="evenodd" fill="#201c26" fill-rule="evenodd"/>
  <path d="M73.133 82.492l-.142 1.762s3.514.73 4.246 0c.733-.731.145-1.905-1.024-1.905-1.17 0-3.08.143-3.08.143z" clip-rule="evenodd" fill="#fff" fill-rule="evenodd"/>
  <path d="M82.369 82.349c1.178-1.317 3.228-3.371 7.91-3.08 4.691.295 7.188 2.195 7.188 4.406 0 2.191.139 5.121-2.645 5.996-2.781.884-5.57.884-7.473.596-1.906-.297-4.98-2.059-5.418-4.4-.441-2.345.438-3.518.438-3.518z" clip-rule="evenodd" fill="#241c24" fill-rule="evenodd"/>
  <path d="M86.768 85.131c-.268-1.893 1.314-3.079 2.633-3.079 1.317 0 3.51.149 3.365 2.642-.143 2.489-.284 2.342-1.602 2.784-1.32.439-3.959.883-4.396-2.347z" clip-rule="evenodd" fill="#fff" fill-rule="evenodd"/>
  <path d="M113.137 83.675c-.729-1.326-2.336-3.822-4.833-3.963-2.49-.148-5.863-.443-7.473.141-1.616.592-2.924 2.052-3.221 3.371-.291 1.323-.593 4.254 1.317 5.572 1.903 1.319 4.988 2.348 7.914 1.759 2.925-.585 5.712-1.759 6.152-4.251h-4.979s-1.325 1.761-2.931 1.613c0 0-1.475.444-2.497-1.019-1.02-1.473-.877-2.79.146-4.111 1.035-1.323 3.813-.883 4.108-.295.291.588.731 1.465.731 1.465z" clip-rule="evenodd" fill="#241c24" fill-rule="evenodd"/>
  <polygon points="112.702 79.853 117.247 79.853 117.247 83.375 121.782 83.375 121.782 79.563 126.476 79.563 126.476 90.115 122.076 90.115 122.076 86.598 117.394 86.598 117.394 90.115 112.554 90.115" clip-rule="evenodd" fill="#241c24" fill-rule="evenodd"/>
  <polygon points="127.946 79.563 140.987 79.712 140.987 82.349 133.076 82.349 133.076 83.375 139.671 83.375 139.671 86.304 132.779 86.304 132.779 87.629 141.278 87.629 141.278 90.409 128.09 90.409" clip-rule="evenodd" fill="#241c24" fill-rule="evenodd"/>
  <path d="M147.726 79.563h4.544s-.29.735.302.59c.577-.147 4.534-.301 5.711 1.172 1.169 1.462 1.612 3.368.435 4.688-1.177 1.32-2.201 1.904-2.926 1.904-.74 0-3.22.147-3.22.147v2.345h-4.846v-2.492s-3.079-.147-4.104-.439c-1.021-.295-2.931-1.465-2.931-3.369 0-1.907 1.026-3.521 2.497-3.664 1.459-.146 4.245-.146 4.245-.146z" clip-rule="evenodd" fill="#241c24" fill-rule="evenodd"/>
  <path d="M147.726 82.787l-.146 2.197s-2.343.295-2.343-.579c0-.883.442-1.763 2.489-1.618z" clip-rule="evenodd" fill="#fff" fill-rule="evenodd"/>
  <path d="M152.571 82.933l.139 2.052s1.319.589 2.057-.438c.724-1.025-.594-1.76-2.196-1.614z" clip-rule="evenodd" fill="#fff" fill-rule="evenodd"/>
  <path d="M161.793 82.787v7.768h4.688v-7.768h4.247l.887-1.169-1.318-1.612h-12.31c.003 0-.589 2.343.729 2.486 1.318.15 3.077.295 3.077.295z" clip-rule="evenodd" fill="#241c24" fill-rule="evenodd"/>
  <path d="M175.42 80.006v2.927s5.574-.291 6.601.291c1.025.588 2.05 1.47 2.196 2.49.146 1.032-.146 2.647-1.171 3.522-1.025.879-2.194 1.464-3.376 1.464h-8.492V80.153z" clip-rule="evenodd" fill="#241c24" fill-rule="evenodd"/>
  <path d="M175.867 86.013v1.757h2.926c.729 0 1.76-1.611.438-1.903-1.316-.294-3.364.146-3.364.146z" clip-rule="evenodd" fill="#fff" fill-rule="evenodd"/>
  <polygon points="8.504 31.203 15.981 31.203 15.981 56.558 8.504 49.96" clip-rule="evenodd" fill="#241c24" fill-rule="evenodd"/>
  <polygon points="17.448 22.851 24.628 22.851 24.628 64.766 17.448 57.869" clip-rule="evenodd" fill="#241c24" fill-rule="evenodd"/>
  <polygon points="26.096 14.499 33.424 14.499 33.424 54.211 26.096 54.211" clip-rule="evenodd" fill="#241c24" fill-rule="evenodd"/>
  <polygon points="34.884 6.146 42.505 6.146 42.505 46.005 34.884 46.005" clip-rule="evenodd" fill="#241c24" fill-rule="evenodd"/>
  <polygon points="43.531 14.055 50.861 14.055 50.861 54.211 43.531 54.211" clip-rule="evenodd" fill="#241c24" fill-rule="evenodd"/>
  <polygon points="52.62 22.697 59.8 22.697 59.8 57.724 52.62 64.766" clip-rule="evenodd" fill="#241c24" fill-rule="evenodd"/>
  <polygon points="61.115 31.055 68.449 31.055 68.449 49.376 61.115 56.558" clip-rule="evenodd" fill="#241c24" fill-rule="evenodd"/>
  <polygon points="26.096 55.097 33.424 55.097 33.424 91.868 26.096 91.868" clip-rule="evenodd" fill="#b3b31c" fill-rule="evenodd"/>
  <polygon points="34.884 47.183 42.062 47.183 42.062 91.868 34.884 91.868" clip-rule="evenodd" fill="#b3b31c" fill-rule="evenodd"/>
  <polygon points="43.531 55.237 50.861 55.237 50.861 91.868 43.531 91.868" clip-rule="evenodd" fill="#b3b31c" fill-rule="evenodd"/>
</svg>
