<!-- by TradingView --><svg xmlns="http://www.w3.org/2000/svg" width="56" height="56" viewBox="0 0 56 56"><path fill="#F0F3FA" d="M0 0h56v56H0z"/><path fill-rule="evenodd" d="M42 14H14v28h28V14zm-10.2 9.36c-4.48-4.38-12.24-4.83-15.8-4.28 4.99.39 7.75 1.63 12.89 6.03 7.17 6.14 7.68 11.6 7.97 14.83v.04c.83-6.03-.15-11.83-5.05-16.62zM18 26h-2v2h2v4h2v-4h2v-2h-4zm12 6h-2v6h2v-2.05L31.08 38H33l-1.56-3L33 32h-1.92L30 34.05V32zm-7.89-3H21v6h1.5v-4.17l.8 4.17h1.3l.9-4.27V35H27v-6h-2.4l-.6 3.26-.58-3.26h-1.31z" fill="#F37022"/></svg>