<?xml version="1.0" encoding="UTF-8" standalone="no"?>
<svg
   xmlns:svg="http://www.w3.org/2000/svg"
   xmlns="http://www.w3.org/2000/svg"
   xmlns:xlink="http://www.w3.org/1999/xlink"
   version="1.1"
   width="546.85986"
   height="213.44859"
   id="svg4452">
  <defs
     id="defs4454">
    <linearGradient
       x1="0"
       y1="0"
       x2="1"
       y2="0"
       id="linearGradient4290-0"
       xlink:href="#linearGradient932-9"
       gradientUnits="userSpaceOnUse"
       gradientTransform="matrix(76.91032,85.203409,85.203409,-76.91032,176.38471,469.21569)"
       spreadMethod="pad" />
    <linearGradient
       x1="0"
       y1="0"
       x2="1"
       y2="0"
       id="linearGradient932-9"
       gradientUnits="userSpaceOnUse"
       gradientTransform="matrix(20.644394,-22.870438,22.870438,20.644394,71.717697,760.66798)"
       spreadMethod="pad">
      <stop
         id="stop934-2"
         style="stop-color:#fff799;stop-opacity:1"
         offset="0" />
      <stop
         id="stop936-4"
         style="stop-color:#fff200;stop-opacity:1"
         offset="1" />
    </linearGradient>
    <linearGradient
       x1="0"
       y1="0"
       x2="1"
       y2="0"
       id="linearGradient4300-8"
       xlink:href="#linearGradient984-8"
       gradientUnits="userSpaceOnUse"
       gradientTransform="matrix(65.339134,-64.663687,-64.663687,-65.339134,110.81443,559.48117)"
       spreadMethod="pad" />
    <linearGradient
       x1="0"
       y1="0"
       x2="1"
       y2="0"
       id="linearGradient984-8"
       gradientUnits="userSpaceOnUse"
       gradientTransform="matrix(17.538437,17.357132,-17.357132,17.538437,54.117218,736.43877)"
       spreadMethod="pad">
      <stop
         id="stop986-3"
         style="stop-color:#c5ca74;stop-opacity:1"
         offset="0" />
      <stop
         id="stop988-0"
         style="stop-color:#9fa617;stop-opacity:1"
         offset="0.95341498" />
      <stop
         id="stop990-0"
         style="stop-color:#9fa617;stop-opacity:1"
         offset="0.95341498" />
      <stop
         id="stop992-0"
         style="stop-color:#9fa617;stop-opacity:1"
         offset="1" />
    </linearGradient>
    <linearGradient
       x1="0"
       y1="0"
       x2="1"
       y2="0"
       id="linearGradient4285-6"
       xlink:href="#linearGradient902-8"
       gradientUnits="userSpaceOnUse"
       gradientTransform="matrix(-95.251341,81.879997,81.879997,95.251341,257.17909,533.63292)"
       spreadMethod="pad" />
    <linearGradient
       x1="0"
       y1="0"
       x2="1"
       y2="0"
       id="linearGradient902-8"
       gradientUnits="userSpaceOnUse"
       gradientTransform="matrix(-25.56752,-21.978363,21.978363,-25.56752,93.404663,743.377)"
       spreadMethod="pad">
      <stop
         id="stop904-0"
         style="stop-color:#d4d4d5;stop-opacity:1"
         offset="0" />
      <stop
         id="stop906-0"
         style="stop-color:#717073;stop-opacity:1"
         offset="0.86956799" />
      <stop
         id="stop908-4"
         style="stop-color:#717073;stop-opacity:1"
         offset="0.86956799" />
      <stop
         id="stop910-3"
         style="stop-color:#717073;stop-opacity:1"
         offset="1" />
    </linearGradient>
    <linearGradient
       x1="0"
       y1="0"
       x2="1"
       y2="0"
       id="linearGradient4295-2"
       xlink:href="#linearGradient958-8"
       gradientUnits="userSpaceOnUse"
       gradientTransform="matrix(-86.600696,-75.69125,-75.69125,86.600696,203.91013,591.71755)"
       spreadMethod="pad" />
    <linearGradient
       x1="0"
       y1="0"
       x2="1"
       y2="0"
       id="linearGradient958-8"
       gradientUnits="userSpaceOnUse"
       gradientTransform="matrix(-23.245499,20.317169,-20.317169,-23.245499,79.106125,727.78583)"
       spreadMethod="pad">
      <stop
         id="stop960-1"
         style="stop-color:#aaa9ab;stop-opacity:1"
         offset="0" />
      <stop
         id="stop962-2"
         style="stop-color:#717073;stop-opacity:1"
         offset="1" />
    </linearGradient>
  </defs>
  <g
     transform="translate(-76.570075,-425.63792)"
     id="layer1">
    <path
       d="m 590.60804,489.46994 c 0,0 -25.0725,26.70798 -29.40151,31.32385 l 0,-31.32385 -20.16976,0 0,85.62649 20.16976,0 0,-28.88739 c 0.62961,-0.64452 4.73509,-4.87295 6.41155,-6.59412 1.89628,2.70098 24.90485,35.48151 24.90485,35.48151 l 25.907,0 c 0,0 -35.18717,-48.2152 -36.61777,-50.18225 1.6951,-1.70255 35.33621,-35.44424 35.33621,-35.44424 l -26.54033,0 m -132.47406,28.47013 -0.11921,1.5945 19.93132,0 0.29805,-1.09156 c 1.30019,-4.75371 3.71058,-13.59429 17.01054,-13.59429 3.25981,0 13.84018,1.2704 17.58432,16.61193 l -22.82607,0 0,17.20801 23.72015,0 c -0.99471,7.41743 -4.70901,21.04897 -18.59761,21.04897 -8.8368,0 -14.98389,-5.37587 -16.86522,-14.74546 l -0.24215,-1.19216 -20.20698,0 0.33529,1.75844 c 3.82603,20.15486 17.43154,31.71503 37.32933,31.71503 24.30505,0 39.40066,-17.18566 39.40066,-44.85481 0,-27.38975 -15.55758,-45.08579 -39.63167,-45.08579 -23.9325,0 -36.02169,15.87429 -37.12068,30.62719 m -19.73954,-28.47013 c 0,0 -14.22761,38.28305 -16.32506,43.92716 -2.63019,-5.45038 -21.20544,-43.92716 -21.20544,-43.92716 l -22.87074,0 c 0,0 33.62993,64.04477 34.36385,65.44554 -2.43274,4.35882 -3.46842,5.0294 -7.19019,5.0294 -1.93724,0 -4.82077,-0.64823 -6.10606,-1.22941 l -2.09744,-0.94999 0,18.13564 1.1251,0.28314 c 1.9149,0.48059 7.3392,1.06922 10.94174,1.06922 8.81448,0 15.05095,-2.58549 20.83662,-15.79978 0,-0.004 31.31268,-71.98376 31.31268,-71.98376 l -22.78506,0 m -120.83527,9.27048 c -7.43979,7.95019 -11.37017,19.58859 -11.37017,33.65974 0,27.66543 15.00997,44.8548 39.16973,44.8548 19.89034,0 33.49208,-11.56017 37.31814,-31.71503 l 0.3353,-1.76215 -20.19956,0 -0.24216,1.19216 c -1.89254,9.37331 -8.03959,14.74546 -16.87644,14.74546 -14.26486,0 -19.35015,-13.99292 -19.35015,-27.09172 0,-20.47897 9.9992,-27.77719 19.35015,-27.77719 13.20312,0 15.60605,8.84429 16.89879,13.59056 l 0.30177,1.09529 19.92388,0 -0.11922,-1.59451 c -1.10647,-14.74918 -13.19566,-30.62718 -37.11325,-30.62718 -11.34409,0 -21.03407,3.95274 -28.02681,11.42977"
       id="path882"
       style="fill:#717073;fill-opacity:1;fill-rule:nonzero;stroke:none" />
    <path
       d="m 217.3624,547.34642 c -0.84568,0.84569 -29.39405,28.98425 -31.39463,30.99601 l 0,0 c 3.88567,2.79411 20.56838,13.16586 42.87656,5.51372 l 0,0 c 1.6951,-0.60726 4.69039,-1.37099 6.44509,-2.21294 l 0,0 1.78078,-1.91117 c 5.39078,-6.26627 12.46919,-14.71566 16.44801,-32.38562 l 0,0 c -6.43391,-2.72332 -13.97801,-4.51155 -20.87761,-4.51155 l 0,0 c -5.94214,0 -11.4037,1.32253 -15.2782,4.51155"
       id="path912"
       style="fill:url(#linearGradient4285-6);stroke:none" />
    <path
       d="m 168.5176,462.61406 c 0,0 -7.59253,2.04528 -7.6037,2.04901 l 0,0 -4.31412,1.55353 c -6.39292,2.58175 -12.09663,6.36311 -17.45015,10.63998 l 0,0 c 26.13426,-7.77882 44.69833,7.45095 44.98892,7.69684 l 0,0 c 0,0 32.32228,25.97033 33.22385,26.8719 l 0,0 c 7.98371,7.99116 26.51053,8.66175 35.15364,1.96706 l 0,0 c -2.08626,-8.98586 -10.37919,-24.76701 -19.28308,-32.38189 l 0,0 -2.47,-2.2651 c -6.70959,-5.62547 -12.33507,-9.27645 -20.96329,-12.75977 l 0,0 -4.56744,-1.60197 c 0,0 -7.26097,-1.87391 -7.26469,-1.87391 l 0,0 c -4.74254,-0.97607 -10.11841,-1.40078 -14.98389,-1.40078 l 0,0 c -4.8543,0 -9.71979,0.50294 -14.46605,1.5051"
       id="path938"
       style="fill:url(#linearGradient4290-0);stroke:none" />
    <path
       d="m 128.75553,562.09188 c 0,4.66803 0.69294,9.79802 2.46627,15.25585 l 0,0 c 0.64824,1.93725 1.45667,3.89686 2.39549,5.90116 l 0,0 0.11176,0.25334 c 6.65371,6.48233 14.34683,11.54526 22.90054,15.00251 l 0,0 4.32901,1.54608 7.5888,2.06019 c 4.74627,0.9947 9.62293,1.50137 14.48841,1.50137 l 0,0 c 4.85803,0 9.72723,-0.32411 14.46604,-1.3151 l 0,0 c 0,0 7.75273,-1.95215 7.76391,-1.95587 l 0,0 5.12999,-1.83667 c 6.3892,-2.58549 12.78958,-6.35939 18.1431,-10.65488 l 0,0 c -26.13799,7.78253 -46.345,-7.43234 -46.5648,-7.60371 l 0,0 -0.0447,-0.0373 c 0,0 -42.65305,-42.64559 -44.90697,-44.89578 l 0,0 c -2.05646,2.87608 -8.26684,12.74487 -8.26684,26.77876"
       id="path964"
       style="fill:url(#linearGradient4295-2);stroke:none" />
    <path
       d="m 137.15277,480.85402 c -1.66902,0.61098 -3.40137,1.32999 -5.13372,2.16077 l 0,0 -0.14901,0.0559 c -6.49352,6.66117 -11.549,14.36919 -14.9988,22.91171 l 0,0 -1.55725,4.31412 -2.05646,7.60743 c -0.99471,4.72763 -1.4902,9.59311 -1.4902,14.46232 l 0,0 c 0,4.86921 0.49549,9.74958 1.4902,14.48468 l 0,0 2.05646,7.59626 1.55725,4.32155 c 2.58921,6.40783 6.36313,12.11527 10.65861,17.45389 l 0,0 c -1.57961,-5.29018 -2.3098,-10.31959 -2.3098,-14.8982 l 0,0 c 0,-18.02761 9.75331,-29.8374 9.88743,-29.99386 l 0,0 0.0522,-0.0595 c 0,0 42.65677,-42.64933 44.90696,-44.89579 l 0,0 c -2.88352,-2.06023 -12.7635,-8.27806 -26.75269,-8.28178 l 0,0 c -4.91764,0 -10.34566,0.77117 -16.16114,2.76057"
       id="path994"
       style="fill:url(#linearGradient4300-8);stroke:none" />
    <path
       d="m 266.61477,526.72551 0,-0.47315 c 3.7143,-7.9986 10.69585,-8.1588 18.38525,-0.87175 0,-12.19724 -2.61902,-21.87976 -8.49038,-27.34877 -8.30409,-7.37272 -16.99192,-2.57058 -24.09268,-12.59958 -0.83824,-8.74743 5.18587,-12.45429 15.53525,-9.99919 -6.17685,-10.46115 -13.3186,-17.5284 -21.0825,-19.33898 -1.74726,-0.39118 -3.32686,-0.49177 -4.84312,-0.31667 -2.93196,0.1453 -5.46529,1.02079 -7.92038,1.74353 -1.27039,0.38372 -2.55196,0.78235 -3.81489,1.03569 -0.87177,0.14528 -1.74353,0.30176 -2.70098,0.30176 -2.32098,0.15647 -4.88038,-0.24588 -7.89429,-1.6504 -4.98842,-7.10821 -1.80687,-13.10251 7.89429,-16.19466 0.24588,-0.0521 0.41725,-0.1304 0.56628,-0.23471 -0.14903,-0.0671 -0.3204,-0.15647 -0.56628,-0.21234 -5.30136,-3.03256 -10.45743,-5.17471 -15.13663,-6.19922 -4.52647,-0.94999 -8.64685,-1.02823 -12.27919,0.0783 -8.40469,2.85372 -10.23018,9.83154 -16.9733,13.07271 -1.43059,0.7302 -3.23744,1.27412 -5.39077,1.51628 l -0.47314,0 c -8.00606,-3.73667 -8.16625,-10.70704 -0.88294,-18.39644 -9.3435,0 -17.27879,1.59451 -22.9825,4.91764 -1.66156,1.02823 -3.16666,2.21666 -4.44822,3.56528 -6.64999,7.62607 -3.25235,15.53154 -10.30469,22.27467 -0.6296,0.64078 -1.40078,1.22196 -2.21666,1.82921 l -0.38745,0 -0.0894,0 c -1.42314,0.0857 -2.68607,0 -3.88195,-0.23099 -5.63293,-1.35606 -7.68567,-6.89958 -5.63293,-15.30427 -0.7749,0.46941 -1.57216,0.94628 -2.36941,1.42313 -9.19449,5.7894 -15.46448,12.36115 -17.12604,19.49545 -2.22039,10.96037 6.419,16.10898 1.03568,27.43445 -7.21998,5.15234 -13.400557,1.82549 -16.425648,-8.38978 -6.094889,10.61762 -8.643119,20.35975 -6.33332,27.97464 3.557835,10.39409 13.240363,10.62507 14.659772,22.43486 l 0,0.4843 c -3.639796,8.00234 -10.69586,8.23332 -18.381529,0.95373 0,12.12272 2.686073,21.87976 8.553707,27.35249 8.307825,7.28332 16.999378,2.49607 24.111318,12.52134 0.83079,8.73998 -5.18959,12.44312 -15.550159,9.98802 6.199199,10.54312 13.326049,17.68114 21.093679,19.43212 1.58333,0.32411 3.01392,0.3949 4.36254,0.3949 2.93568,-0.16019 5.46528,-0.94999 8.00234,-1.7398 1.27039,-0.40608 2.54077,-0.79353 3.88195,-1.12509 l 0.0894,0 c 0.86804,-0.1453 1.74725,-0.32039 2.60411,-0.38001 2.52215,-0.14901 5.19332,0.22725 8.32273,1.69883 4.95862,7.1641 1.68764,13.23663 -8.32273,16.3027 0,0 -0.0708,0.0708 -0.15274,0.0708 0.082,0.0894 0.15274,0.0894 0.15274,0.14157 5.23803,2.95058 10.15939,4.99587 14.75291,6.12097 4.8245,1.11019 9.19076,1.19588 13.07644,0 8.319,-2.77177 10.16684,-9.67135 16.65291,-12.92743 1.5796,-0.79725 3.40136,-1.34489 5.70744,-1.65411 l 0.47314,0 c 8.01723,3.72175 8.18115,10.70704 0.87921,18.38898 8.94861,0 16.57094,-1.42686 22.1927,-4.51157 1.98568,-1.12136 3.73665,-2.39548 5.24175,-3.9788 6.5643,-7.53292 3.32685,-15.28938 9.89488,-21.95427 0.80098,-0.79353 1.67647,-1.51255 2.70098,-2.23157 -0.0745,0.082 -0.14902,0.082 -0.14902,0.082 0,-0.082 0.0745,-0.082 0.14902,-0.14902 0,0 0.0782,-0.0783 0.15274,-0.0783 -0.0485,0.0447 -0.0931,0.0931 -0.15274,0.14529 1.34489,-0.0671 2.63763,0 3.81489,0.16393 5.92724,1.11764 8.1588,6.74684 6.09488,15.39369 0.63334,-0.32784 1.26667,-0.72647 1.8255,-1.13254 9.52233,-5.86019 15.94133,-12.59586 17.61407,-19.88663 2.21667,-11.0237 -6.44136,-16.08663 -1.11764,-27.43817 0,0.0857 -0.0857,0.1751 -0.0857,0.23842 7.21999,-5.07038 13.39312,-1.73607 16.41821,8.40842 6.10233,-10.54684 8.64684,-20.29643 6.32959,-27.90759 -3.48705,-10.38664 -13.23291,-10.70331 -14.57036,-22.52426 m -24.58819,-45.58873 c 11.97743,13.72468 19.2682,31.64797 19.2682,51.22538 0,19.58486 -7.29077,37.50443 -19.2682,51.21421 -2.45136,2.86861 -5.07782,5.46901 -7.92037,7.92409 -1.27039,1.03196 -2.55195,2.06765 -3.8149,3.09216 -0.87176,0.64078 -1.74352,1.27784 -2.70097,1.91489 -4.66803,3.25235 -9.73841,6.02039 -15.13663,8.24449 -9.03802,3.64353 -18.9478,5.63667 -29.25249,5.63667 -10.46488,0 -20.53858,-2.06766 -29.72935,-5.87881 -5.15234,-2.2204 -10.14821,-4.9102 -14.75291,-8.16254 -0.85686,-0.63705 -1.73607,-1.27039 -2.60411,-1.90372 l -0.0894,-0.0782 c -1.34117,-1.03569 -2.61156,-2.04903 -3.88195,-3.18157 -2.85745,-2.44765 -5.54725,-5.14489 -8.00234,-8.00234 -11.74272,-13.62781 -18.86584,-31.47288 -18.86584,-50.8193 0,-19.43212 7.12312,-37.17659 18.86584,-50.90871 2.45509,-2.85 5.14489,-5.53979 8.00234,-7.99489 1.27039,-1.11765 2.54078,-2.15333 3.88195,-3.17784 0,0 0.0894,0 0.0894,-0.0783 0.86804,-0.64452 1.74725,-1.26667 2.60411,-1.89628 4.6047,-3.10705 9.60057,-5.87881 14.75291,-8.01351 9.19077,-3.80372 19.26447,-5.9496 29.72935,-5.9496 10.30469,0 20.21447,2.05647 29.25249,5.70372 5.39822,2.15705 10.4686,4.92509 15.13663,8.16626 0.95745,0.56627 1.82921,1.27783 2.70097,1.92235 1.26295,0.94627 2.54451,1.95588 3.8149,3.00646 l 7.92037,7.99488"
       id="path1006"
       style="fill:#c6c6c7;fill-opacity:1;fill-rule:nonzero;stroke:none" />
  </g>
</svg>
