<!-- by TradingView --><svg width="56" height="56" viewBox="0 0 56 56" xmlns="http://www.w3.org/2000/svg"><path fill="#F0F3FA" d="M0 0h56v56H0z"/><path d="M21.08 37.52a8.7 8.7 0 0 0-1.67 1.25c-.25.25-.67.8-.72 1.23-.1 1.06.96 1.75 1.45 2l.24.15c2.56 1.19 7.43 1.8 8 .72.6-1.08-1.48-2.75-7.3-5.35Z" fill="url(#atpl4zoiq)"/><path d="M34.8 18.46c.27-.14 2.35-1.34 2.42-2.6.08-1.25-1.05-1.57-1.45-1.93l-.63-.34c-2.62-1.25-7.28-1.82-7.86-.74-.58 1.08 1.7 2.94 7.51 5.6Z" fill="url(#btpl4zoiq)"/><path d="M35.08 39.36c5.42-2.5 7.69-4.7 8.56-6.52A16.4 16.4 0 0 1 27.98 44c-2.74-.06 2.33-2.5 7.1-4.64Z" fill="url(#ctpl4zoiq)"/><path d="M12.03 31.54c.35 2.6 2.62 7.65 8.32 10.6-.11-.07-.23-.18-.34-.24-5.13-3.28 6-6.57 14.72-10.36 5.88-2.6 9.55-4.64 9.2-7.14-.35-2.49-2.62-7.64-8.38-10.59.12.06.12.08.35.23 5.18 3.28-6 6.57-14.73 10.42-5.82 2.55-9.55 4.59-9.14 7.08Z" fill="url(#dtpl4zoiq)"/><path d="M41.6 27.97a43.3 43.3 0 0 1-6.87 3.51c-2.2.97-4.54 1.93-6.75 2.83 3.73 1.53 7.01 2.98 8.47 4.4 1.4-.69 2.73-1.48 4.01-2.39.88-.67 1.96-1.48 2.6-2.4.23-.34.46-.68.64-1.08.11-.4.23-.85.29-1.24.12-1.3-.76-2.44-2.39-3.63Z" fill="url(#etpl4zoiq)"/><path d="M14.36 27.97a43.3 43.3 0 0 1 6.87-3.51c2.21-.96 4.54-1.93 6.75-2.83-3.72-1.53-7.04-3-8.5-4.4-1.8.84-3.42 1.83-4.94 3.08-.9.87-1.76 1.56-2.26 2.8-.13.43-.2.84-.25 1.24-.17 1.3.64 2.43 2.33 3.62Z" fill="url(#ftpl4zoiq)"/><path d="M20.82 16.59c-5.35 2.49-7.68 4.7-8.56 6.57A16.33 16.33 0 0 1 27.92 12c2.74 0-2.33 2.44-7.1 4.59Z" fill="url(#gtpl4zoiq)"/><defs><linearGradient id="atpl4zoiq" x1="18.69" y1="39.79" x2="28.48" y2="42.94" gradientUnits="userSpaceOnUse"><stop stop-color="#E96024"/><stop offset=".48" stop-color="#F18621"/><stop offset="1" stop-color="#F08022"/></linearGradient><linearGradient id="btpl4zoiq" x1="36.02" y1="13.79" x2="34.66" y2="15.37" gradientUnits="userSpaceOnUse"><stop stop-color="#E96024"/><stop offset="1" stop-color="#F18621"/></linearGradient><linearGradient id="ctpl4zoiq" x1="42.65" y1="34.74" x2="27.68" y2="43.4" gradientUnits="userSpaceOnUse"><stop stop-color="#4790CD"/><stop offset=".69" stop-color="#135B9C"/><stop offset="1" stop-color="#317ABA"/></linearGradient><linearGradient id="dtpl4zoiq" x1="42.13" y1="20.15" x2="13.63" y2="36" gradientUnits="userSpaceOnUse"><stop offset=".03" stop-color="#366BAA"/><stop offset=".33" stop-color="#6294CE"/><stop offset=".61" stop-color="#275F9F"/><stop offset=".88" stop-color="#164685"/><stop offset="1" stop-color="#3B7CBD"/></linearGradient><linearGradient id="etpl4zoiq" x1="37.09" y1="33.92" x2="40.99" y2="36.89" gradientUnits="userSpaceOnUse"><stop stop-color="#F18621"/><stop offset="1" stop-color="#E96024"/></linearGradient><linearGradient id="ftpl4zoiq" x1="12.01" y1="24.55" x2="26.14" y2="24.41" gradientUnits="userSpaceOnUse"><stop stop-color="#E96024"/><stop offset="1" stop-color="#F18621"/></linearGradient><linearGradient id="gtpl4zoiq" x1="27.31" y1="12" x2="12.26" y2="21.86" gradientUnits="userSpaceOnUse"><stop stop-color="#4189C7"/><stop offset=".36" stop-color="#1F65A7"/><stop offset="1" stop-color="#4790CD"/></linearGradient></defs></svg>