<!-- by TradingView --><svg width="56" height="56" xmlns="http://www.w3.org/2000/svg"><path fill="url(#paint0_linear)" d="M0 0h56v56H0z"/><path d="M22.193 15.537a.078.078 0 100-.156.078.078 0 000 .156zM24.868 15.559a.1.1 0 00.1-.1.1.1 0 00-.2 0 .1.1 0 00.1.1zM27.542 15.503a.044.044 0 100-.089.044.044 0 000 .09zM20.853 15.503c.025 0 .045-.02.045-.044a.044.044 0 00-.09 0c0 .024.02.044.045.044zM23.527 16.95a.166.166 0 100-.333.166.166 0 000 .333zM26.205 16.983a.2.2 0 100-.4.2.2 0 000 .4zM28.88 16.939a.155.155 0 100-.31.155.155 0 000 .31zM31.554 16.85a.067.067 0 100-.133.067.067 0 000 .134zM23.522 18.333a.177.177 0 100-.355.177.177 0 000 .355zM26.2 18.455a.3.3 0 10.002-.6.3.3 0 00-.002.6zM28.875 18.455a.3.3 0 100-.6.3.3 0 000 .6zM31.549 18.366a.21.21 0 100-.421.21.21 0 000 .421zM34.224 18.256a.1.1 0 100-.2.1.1 0 000 .2zM27.543 19.867a.378.378 0 100-.756.378.378 0 000 .756zM30.217 19.9a.412.412 0 100-.822.412.412 0 000 .823zM32.892 19.799a.311.311 0 100-.622.311.311 0 000 .622zM35.566 19.678a.189.189 0 100-.378.189.189 0 000 .378zM27.543 21.197a.39.39 0 100-.779.39.39 0 000 .779zM30.217 21.319a.511.511 0 100-1.023.511.511 0 000 1.023zM32.892 21.285a.478.478 0 100-.956.478.478 0 000 .956zM35.566 21.139a.333.333 0 10.001-.666.333.333 0 00-.001.666zM38.24 20.995a.189.189 0 100-.377.189.189 0 000 .378zM28.872 22.615a.456.456 0 100-.913.456.456 0 000 .913zM31.546 22.726a.567.567 0 100-1.134.567.567 0 000 1.134zM34.22 22.726a.567.567 0 10.001-1.134.567.567 0 000 1.134zM36.895 22.56a.4.4 0 100-.802.4.4 0 000 .801zM39.57 22.39a.233.233 0 100-.465.233.233 0 000 .466zM42.244 22.236a.078.078 0 100-.155.078.078 0 000 .155zM44.922 27.572a.078.078 0 100-.155.078.078 0 000 .155zM31.554 24.07a.567.567 0 100-1.134.567.567 0 000 1.134zM34.229 24.07a.567.567 0 100-1.134.567.567 0 000 1.134zM36.903 24.059a.556.556 0 100-1.112.556.556 0 000 1.112zM39.578 23.858a.356.356 0 100-.711.356.356 0 000 .71zM42.252 23.68a.178.178 0 100-.355.178.178 0 000 .355zM19.519 24.945a.056.056 0 100-.112.056.056 0 000 .112zM22.193 25.011a.122.122 0 100-.244.122.122 0 000 .244zM24.867 25.133a.244.244 0 10.001-.488.244.244 0 000 .488zM27.543 25.256a.367.367 0 100-.734.367.367 0 000 .734zM30.217 25.378a.49.49 0 100-.978.49.49 0 000 .979zM34.238 25.456a.567.567 0 100-1.134.567.567 0 000 1.134zM36.903 25.456a.567.567 0 100-1.134.567.567 0 000 1.134zM39.578 25.356a.467.467 0 100-.934.467.467 0 000 .934zM42.252 25.143a.255.255 0 100-.51.255.255 0 000 .51zM36.903 26.731a.567.567 0 10.001-1.134.567.567 0 000 1.134zM39.578 26.731a.567.567 0 100-1.134.567.567 0 000 1.134zM42.252 26.474a.31.31 0 10.002-.622.31.31 0 00-.002.622zM44.927 26.197a.033.033 0 00.033-.033.033.033 0 00-.066 0c0 .018.014.033.033.033zM39.578 28.062a.567.567 0 100-1.135.567.567 0 000 1.135zM42.252 27.815a.322.322 0 10.002-.644.322.322 0 00-.002.644zM44.932 28.88a.033.033 0 100-.066.033.033 0 000 .067zM39.583 29.414a.567.567 0 100-1.134.567.567 0 000 1.134zM42.257 29.113a.266.266 0 100-.533.266.266 0 000 .533z" fill="#FF144B"/><path d="M44.932 28.87c.012 0 .022-.01.022-.023a.022.022 0 10-.022.022zM38.24 30.75a.567.567 0 10.001-1.134.567.567 0 000 1.134zM40.915 30.573a.39.39 0 100-.779.39.39 0 000 .779zM43.59 30.344a.11.11 0 100-.222.11.11 0 000 .222zM39.578 31.995a.49.49 0 100-.978.49.49 0 000 .979zM42.252 31.672a.166.166 0 100-.333.166.166 0 000 .333zM38.24 33.32a.49.49 0 10.001-.978.49.49 0 000 .978zM40.915 32.997a.166.166 0 100-.333.166.166 0 000 .333zM38.24 34.467a.311.311 0 10.002-.622.311.311 0 00-.001.622zM35.55 35.948a.434.434 0 10.001-.868.434.434 0 000 .868zM38.225 35.636a.122.122 0 100-.244.122.122 0 000 .244zM36.903 36.936a.089.089 0 100-.178.089.089 0 000 .178zM32.892 39.553a.033.033 0 100-.067.033.033 0 000 .067z" fill="#FF144B"/><path d="M30.214 40.732a.111.111 0 100 .222.111.111 0 000-.222zM30.214 39.167a.352.352 0 100 .705.352.352 0 000-.705zM31.551 37.757a.426.426 0 100 .853.426.426 0 000-.853zM34.226 38.09a.092.092 0 100 .186.092.092 0 000-.185zM32.889 36.42a.427.427 0 100 .855.427.427 0 000-.855zM35.563 33.763a.395.395 0 100 .79.395.395 0 000-.79zM19.515 19.716a.222.222 0 100-.444.222.222 0 000 .444zM22.19 19.734a.24.24 0 100-.48.24.24 0 000 .48zM26.202 21.102a.296.296 0 10.001-.592.296.296 0 000 .592zM20.853 21.159a.352.352 0 100-.704.352.352 0 000 .704zM23.528 21.159a.352.352 0 100-.704.352.352 0 000 .704zM22.185 18.267a.111.111 0 100-.222.111.111 0 000 .222zM18.178 16.858a.074.074 0 100-.148.074.074 0 000 .148zM20.853 16.895a.11.11 0 100-.222.11.11 0 000 .222zM23.527 16.876a.093.093 0 100-.185.093.093 0 000 .185zM19.51 18.267a.11.11 0 100-.222.11.11 0 000 .222zM24.863 18.248a.092.092 0 100-.184.092.092 0 100 .184zM16.841 19.587a.093.093 0 100-.185.093.093 0 000 .185zM26.202 19.66a.166.166 0 100-.332.166.166 0 000 .333zM36.9 25.06a.166.166 0 100-.332.166.166 0 000 .332zM16.841 20.973a.166.166 0 100-.332.166.166 0 000 .332zM28.876 21.01a.203.203 0 100-.407.203.203 0 000 .407zM15.496 22.27a.11.11 0 100-.222.11.11 0 000 .221zM31.557 23.869a.352.352 0 10.001-.704.352.352 0 000 .704zM28.882 22.453a.296.296 0 100-.592.296.296 0 000 .592zM15.504 23.669a.166.166 0 100-.333.166.166 0 000 .333zM32.889 23.835a.333.333 0 100-.667.333.333 0 000 .667zM35.57 25.162a.259.259 0 100-.518.259.259 0 000 .518zM15.504 25.116a.222.222 0 100-.444.222.222 0 000 .444zM34.238 25.246a.343.343 0 100-.686.343.343 0 000 .686zM15.504 26.422a.259.259 0 100-.518.259.259 0 000 .518zM14.166 27.624a.13.13 0 100-.26.13.13 0 000 .26zM16.841 27.958a.463.463 0 100-.927.463.463 0 000 .927zM35.566 26.553a.39.39 0 100-.778.39.39 0 000 .778zM38.239 29.236a.389.389 0 100-.778.389.389 0 000 .778zM14.171 28.995a.148.148 0 100-.296.148.148 0 000 .296zM16.846 29.329a.482.482 0 100-.964.482.482 0 000 .964zM39.577 27.734a.24.24 0 100-.48.24.24 0 000 .48zM14.166 30.33a.148.148 0 100-.295.148.148 0 000 .296zM16.841 30.683a.5.5 0 100-1 .5.5 0 000 1zM14.166 31.34a.166.166 0 100 .332.166.166 0 000-.332zM16.841 30.988a.519.519 0 100 1.038.519.519 0 000-1.038zM36.903 32.393a.439.439 0 100 .877.439.439 0 000-.877zM15.504 32.503a.333.333 0 100 .667.333.333 0 000-.667zM38.238 32.54a.296.296 0 10-.001.593.296.296 0 000-.593zM15.504 33.824a.333.333 0 10-.001.666.333.333 0 00.001-.666zM36.9 33.824a.333.333 0 100 .666.333.333 0 000-.666zM16.826 35.014a.5.5 0 100 1.001.5.5 0 000-1zM14.166 35.385a.13.13 0 100 .259.13.13 0 000-.259zM16.841 36.366a.482.482 0 100 .963.482.482 0 000-.963zM15.504 37.905a.278.278 0 100 .555.278.278 0 000-.555zM14.166 38.11a.074.074 0 100 .147.074.074 0 000-.148zM16.841 39.13a.39.39 0 100 .779.39.39 0 000-.779zM15.504 40.658a.185.185 0 100 .37.185.185 0 000-.37zM18.179 40.362a.482.482 0 100 .963.482.482 0 000-.963zM28.877 40.565a.278.278 0 10.278.277.278.278 0 00-.278-.277zM16.84 41.932a.259.259 0 100 .518.259.259 0 000-.518zM19.516 41.691a.5.5 0 100 1.001.5.5 0 000-1zM22.19 41.617a.575.575 0 100 1.15.575.575 0 000-1.15zM24.865 41.766a.426.426 0 100 .852.426.426 0 000-.852zM27.54 42.006a.185.185 0 10-.001.37.185.185 0 000-.37zM16.841 43.359a.166.166 0 100 .333.166.166 0 000-.333zM19.516 43.192a.333.333 0 10-.001.666.333.333 0 00.001-.666zM22.19 43.155a.37.37 0 100 .741.37.37 0 000-.74zM24.865 43.34a.185.185 0 100 .37.185.185 0 000-.37zM18.178 44.704a.13.13 0 100 .259.13.13 0 000-.259zM20.853 44.667a.166.166 0 100 .333.166.166 0 000-.333zM23.528 44.778a.055.055 0 100 .11.055.055 0 100-.11zM15.504 43.47a.055.055 0 100 .111.055.055 0 000-.111z" fill="#0041FF"/><path d="M37.574 30.183a.67.67 0 00-.127-.392.67.67 0 00-.055-.516.645.645 0 00.033-.814.647.647 0 00-.117-.58.561.561 0 10-.818-.768.645.645 0 00-.417-.048.666.666 0 00-1.062.055c-.01-.022-.024-.042-.036-.063a2.118 2.118 0 00-.12-.658.621.621 0 00-.475-.768 2.122 2.122 0 00-1.161-.617.352.352 0 10-.664-.011 2.117 2.117 0 00-.456.116 2.156 2.156 0 00-.221-.07.35.35 0 00-.32-.497.348.348 0 00-.211.072c-.224-.361-.55-.65-.94-.825a.351.351 0 00-.19-.648.352.352 0 00-.322.494 2.13 2.13 0 00-.569-.022.467.467 0 00-.708-.509 2.133 2.133 0 00-.708-.806.408.408 0 00-.75-.317 2.13 2.13 0 00-.44-.047c-.044 0-.087.004-.13.007a.444.444 0 00-.804.023 2.14 2.14 0 00-.339-.03c-.06 0-.118.004-.177.009a.462.462 0 00-.83.007 2.15 2.15 0 00-.484-.003.481.481 0 00-.868-.009c-.027 0-.054-.004-.08-.004-.13 0-.256.014-.379.036a.482.482 0 00-.895.004 2.14 2.14 0 00-.407-.04l-.051.003a.48.48 0 00-.757-.14.714.714 0 00-.764-.017.443.443 0 00-.349-.063.711.711 0 00-1.038.12.37.37 0 10-.197.683.37.37 0 00.1-.016.715.715 0 00.231.317 2.12 2.12 0 00-.132.251.463.463 0 10-.191.884l.014-.001c.002.136.015.27.042.399-.019-.002-.037-.006-.056-.006a.538.538 0 00-.314.972.566.566 0 00-.083.395.59.59 0 00-.034.846.589.589 0 00-.043.453.666.666 0 00.1 1.025.901.901 0 00-.049.263.684.684 0 00-.001 1.07.777.777 0 00-.058.289.7.7 0 00.002 1.027.776.776 0 00-.034.328.701.701 0 00.024.986.773.773 0 00-.017.337.7.7 0 00-.06.905.777.777 0 00-.03.531.7.7 0 00.101.873.777.777 0 000 .368.683.683 0 00-.024.952.77.77 0 00.02.372.702.702 0 00-.004.99.775.775 0 00-.013.371.708.708 0 00.016.976.683.683 0 00-.018.342.69.69 0 10.988.958.72.72 0 00.416.39.7.7 0 00.96 1.018.696.696 0 00.305 0 .76.76 0 001.04-.037.783.783 0 00.294.004.7.7 0 001.006-.002.816.816 0 00.358-.008.702.702 0 001.009-.022.959.959 0 00.302 0 .713.713 0 001.01.04.949.949 0 00.321-.017.698.698 0 00.933-.997.93.93 0 00.508-.359.643.643 0 10.83-.98.929.929 0 00.384-.341.74.74 0 001.121-.017.738.738 0 00.355-.043.585.585 0 00.993-.424.583.583 0 00-.16-.401.977.977 0 00.16-.397.829.829 0 00.066-.08.94.94 0 00.316-.015.612.612 0 10.737-.976c0-.015 0-.03-.002-.043a.855.855 0 00.39-.389.686.686 0 10.973-.933.894.894 0 00.395-.372.703.703 0 10.998-.977.892.892 0 00.349-.362.685.685 0 10.911-.991.836.836 0 00.404-.42.626.626 0 10.984-.766.672.672 0 00-.03-.334.672.672 0 00.29-.553z" fill="#0041FF"/><path d="M18.872 12.26a.13.13 0 100-.26.13.13 0 000 .26zM26.84 14.88a.078.078 0 100-.156.078.078 0 000 .156zM16.165 13.557a.09.09 0 100-.182.09.09 0 000 .182zM18.839 13.634a.169.169 0 100-.337.169.169 0 000 .337zM21.514 13.595a.13.13 0 100-.26.13.13 0 000 .26zM24.188 13.478a.012.012 0 00.012-.012.013.013 0 00-.012-.013.013.013 0 000 .025zM16.164 14.996a.195.195 0 100-.39.195.195 0 000 .39zM18.84 15.14a.338.338 0 100-.676.338.338 0 000 .675zM21.514 15.112a.312.312 0 100-.624.312.312 0 000 .624zM24.188 15.01a.208.208 0 100-.416.208.208 0 000 .415z" fill="#00C8FF"/><path d="M24.192 13.522a.052.052 0 100-.104.052.052 0 100 .104zM17.482 12.181a.052.052 0 100-.103.052.052 0 000 .103zM16.164 16.41a.273.273 0 100-.545.273.273 0 000 .545zM18.84 16.645a.507.507 0 100-1.014.507.507 0 000 1.014zM21.514 16.62a.481.481 0 100-.963.481.481 0 000 .963zM24.188 16.502a.364.364 0 100-.728.364.364 0 000 .728zM26.862 16.371a.234.234 0 100-.467.234.234 0 000 .467zM29.537 16.203a.065.065 0 100-.13.065.065 0 000 .13zM16.165 17.785a.312.312 0 100-.624.312.312 0 000 .624zM18.84 18.137a.663.663 0 100-1.326.663.663 0 000 1.326zM21.514 18.112a.638.638 0 100-1.276.638.638 0 000 1.276zM24.188 17.994a.52.52 0 100-1.04.52.52 0 000 1.04zM26.863 17.864a.39.39 0 100-.78.39.39 0 000 .78zM29.537 17.707a.234.234 0 100-.467.234.234 0 000 .467zM32.212 17.526a.052.052 0 100-.104.052.052 0 000 .104zM16.165 19.16a.351.351 0 100-.701.351.351 0 000 .702zM18.84 19.474a.664.664 0 100-1.327.664.664 0 000 1.327zM21.514 19.474a.664.664 0 100-1.328.664.664 0 000 1.328zM24.188 19.46a.65.65 0 100-1.3.65.65 0 000 1.3zM26.863 19.344a.534.534 0 100-1.067.534.534 0 000 1.067zM29.537 19.188a.377.377 0 100-.755.377.377 0 000 .755zM32.211 19.03a.22.22 0 100-.441.22.22 0 000 .441zM14.827 20.34a.195.195 0 100-.389.195.195 0 000 .39zM17.502 20.758a.611.611 0 100-1.223.611.611 0 000 1.223zM20.176 20.81a.664.664 0 100-1.327.664.664 0 000 1.327zM22.85 20.81a.664.664 0 10.001-1.327.664.664 0 000 1.327zM25.526 20.81a.663.663 0 100-1.327.663.663 0 000 1.327zM28.2 20.732a.585.585 0 100-1.171.585.585 0 000 1.17zM30.875 20.589a.442.442 0 100-.885.442.442 0 000 .885zM33.548 20.418a.273.273 0 10.001-.545.273.273 0 000 .545zM36.223 20.211a.065.065 0 100-.13.065.065 0 000 .13zM16.165 21.847a.364.364 0 100-.73.364.364 0 000 .73zM18.84 22.146a.664.664 0 100-1.327.664.664 0 000 1.327zM21.514 22.146a.664.664 0 100-1.327.664.664 0 000 1.327zM24.188 22.146a.664.664 0 100-1.327.664.664 0 000 1.327zM26.863 22.146a.664.664 0 100-1.327.664.664 0 000 1.327zM29.537 22.12a.637.637 0 100-1.275.637.637 0 000 1.275zM32.212 21.964a.481.481 0 100-.963.481.481 0 000 .963zM34.886 21.78a.299.299 0 10.001-.598.299.299 0 000 .598zM37.56 21.573a.09.09 0 100-.182.09.09 0 000 .182zM16.165 23.196a.377.377 0 100-.755.377.377 0 000 .755zM18.84 23.482a.663.663 0 100-1.327.663.663 0 000 1.327zM21.514 23.482a.663.663 0 100-1.327.663.663 0 000 1.327zM24.188 23.482a.663.663 0 10.001-1.327.663.663 0 000 1.327zM26.863 23.482a.663.663 0 100-1.327.663.663 0 000 1.327zM29.537 23.482a.663.663 0 10.001-1.327.663.663 0 000 1.327zM32.212 23.417a.599.599 0 100-1.197.599.599 0 000 1.197zM34.886 23.235a.416.416 0 100-.833.416.416 0 000 .833zM37.56 23.026a.208.208 0 100-.416.208.208 0 000 .416zM14.827 24.374a.22.22 0 100-.44.22.22 0 000 .44zM17.502 24.74a.585.585 0 100-1.171.585.585 0 000 1.17zM20.176 24.818a.664.664 0 100-1.327.664.664 0 000 1.327zM22.85 24.818a.664.664 0 10.001-1.327.664.664 0 000 1.327zM25.516 24.818a.664.664 0 100-1.327.664.664 0 000 1.327zM28.2 24.818a.663.663 0 100-1.327.663.663 0 000 1.327zM30.875 24.818a.663.663 0 100-1.327.663.663 0 000 1.327zM33.549 24.766a.612.612 0 100-1.223.612.612 0 000 1.223zM36.224 24.52a.341.341 0 100-.683.341.341 0 000 .683zM38.898 24.336a.182.182 0 100-.364.182.182 0 000 .364zM14.827 25.71a.22.22 0 100-.44.22.22 0 000 .44zM17.502 26.05a.56.56 0 100-1.119.56.56 0 000 1.119z" fill="#00C8FF"/><path d="M20.176 26.154a.664.664 0 100-1.327.664.664 0 000 1.327zM22.85 26.154a.664.664 0 10.001-1.327.664.664 0 000 1.327zM25.526 26.154a.663.663 0 100-1.327.663.663 0 000 1.327zM28.2 26.154a.663.663 0 100-1.327.663.663 0 000 1.327zM30.875 26.154a.663.663 0 100-1.327.663.663 0 000 1.327zM33.55 26.154a.663.663 0 100-1.327.663.663 0 000 1.327zM36.224 25.946a.455.455 0 100-.91.455.455 0 000 .91zM38.898 25.736a.247.247 0 100-.493.247.247 0 000 .493zM14.827 27.047a.22.22 0 100-.442.22.22 0 000 .442zM17.502 27.36a.533.533 0 100-1.067.533.533 0 000 1.067z" fill="#00C8FF"/><path d="M20.176 27.49a.664.664 0 100-1.327.664.664 0 000 1.327zM22.85 27.49a.664.664 0 10.001-1.327.664.664 0 000 1.327zM25.526 27.49a.664.664 0 100-1.327.664.664 0 000 1.327zM28.2 27.49a.663.663 0 100-1.327.663.663 0 000 1.327zM30.875 27.49a.664.664 0 100-1.327.664.664 0 000 1.327zM33.55 27.49a.663.663 0 100-1.327.663.663 0 000 1.327zM36.224 27.36a.533.533 0 100-1.067.533.533 0 000 1.067zM38.898 27.086a.26.26 0 100-.52.26.26 0 000 .52zM14.827 28.383a.22.22 0 100-.442.22.22 0 000 .442zM17.502 28.683a.52.52 0 100-1.04.52.52 0 000 1.04z" fill="#00C8FF"/><path d="M20.176 28.826a.664.664 0 100-1.327.664.664 0 000 1.327zM22.85 28.826a.664.664 0 10.001-1.327.664.664 0 000 1.327zM25.526 28.826a.664.664 0 100-1.327.664.664 0 000 1.327zM28.2 28.826a.663.663 0 100-1.327.663.663 0 000 1.327zM30.875 28.826a.664.664 0 100-1.327.664.664 0 000 1.327zM33.55 28.826a.664.664 0 100-1.327.664.664 0 000 1.327zM36.224 28.826a.664.664 0 100-1.327.664.664 0 000 1.327zM38.898 28.434a.273.273 0 100-.545.273.273 0 000 .545zM14.827 29.706a.208.208 0 100-.416.208.208 0 000 .416zM17.502 29.993a.494.494 0 100-.989.494.494 0 000 .989z" fill="#00C8FF"/><path d="M20.176 30.162a.664.664 0 100-1.327.664.664 0 000 1.327zM22.85 30.162a.664.664 0 10.001-1.327.664.664 0 000 1.327zM25.526 30.162a.664.664 0 100-1.327.664.664 0 000 1.327zM28.2 30.162a.663.663 0 100-1.327.663.663 0 000 1.327zM30.875 30.162a.664.664 0 100-1.327.664.664 0 000 1.327zM33.55 30.162a.663.663 0 100-1.327.663.663 0 000 1.327zM36.224 30.162a.663.663 0 100-1.327.663.663 0 000 1.327zM38.898 29.77a.273.273 0 100-.545.273.273 0 000 .545zM14.827 31.029a.195.195 0 100-.39.195.195 0 000 .39zM17.502 31.29a.455.455 0 100-.91.455.455 0 000 .91z" fill="#00C8FF"/><path d="M20.176 31.498a.664.664 0 100-1.327.664.664 0 000 1.327zM22.85 31.498a.664.664 0 10.001-1.327.664.664 0 000 1.327zM25.526 31.498a.663.663 0 100-1.327.663.663 0 000 1.327zM28.2 31.498a.663.663 0 100-1.327.663.663 0 000 1.327zM30.875 31.498a.663.663 0 100-1.327.663.663 0 000 1.327zM33.55 31.498a.663.663 0 100-1.327.663.663 0 000 1.327zM36.224 31.498a.663.663 0 100-1.327.663.663 0 000 1.327zM38.898 31.055a.22.22 0 100-.441.22.22 0 000 .44zM14.827 32.352a.182.182 0 100-.363.182.182 0 000 .363zM17.502 32.535a.364.364 0 100-.728.364.364 0 000 .728z" fill="#00C8FF"/><path d="M20.176 32.834a.664.664 0 100-1.327.664.664 0 000 1.327zM22.85 32.834a.664.664 0 10.001-1.327.664.664 0 000 1.327zM25.526 32.834a.664.664 0 100-1.327.664.664 0 000 1.327zM28.2 32.834a.663.663 0 100-1.327.663.663 0 000 1.327zM30.875 32.834a.664.664 0 100-1.327.664.664 0 000 1.327zM33.55 32.834a.664.664 0 100-1.327.664.664 0 000 1.327zM36.224 32.73a.56.56 0 100-1.119.56.56 0 000 1.12zM38.898 32.326a.156.156 0 100-.311.156.156 0 000 .311zM16.164 33.779a.273.273 0 100-.545.273.273 0 000 .545zM18.84 34.027a.52.52 0 100-1.04.52.52 0 000 1.04zM21.514 34.17a.663.663 0 100-1.327.663.663 0 000 1.327zM24.188 34.17a.663.663 0 10.001-1.326.663.663 0 000 1.326zM26.863 34.17a.663.663 0 100-1.326.663.663 0 000 1.326zM29.537 34.17a.663.663 0 100-1.327.663.663 0 000 1.327zM32.212 34.17a.664.664 0 100-1.327.664.664 0 000 1.327zM34.886 34.101a.594.594 0 100-1.188.594.594 0 000 1.188zM37.56 33.753a.247.247 0 10.001-.493.247.247 0 000 .493zM14.827 34.998a.156.156 0 100-.311.156.156 0 000 .311zM17.502 35.207a.364.364 0 100-.728.364.364 0 000 .728zM20.176 35.428a.585.585 0 10.001-1.17.585.585 0 000 1.17zM22.85 35.506a.664.664 0 10.001-1.327.664.664 0 000 1.327zM25.526 35.506a.664.664 0 100-1.327.664.664 0 000 1.327zM28.2 35.506a.663.663 0 100-1.327.663.663 0 000 1.327zM30.875 35.506a.664.664 0 100-1.327.664.664 0 000 1.327zM33.549 35.413a.57.57 0 100-1.14.57.57 0 000 1.14zM36.223 35.115a.272.272 0 100-.545.272.272 0 000 .545zM14.827 36.308a.13.13 0 100-.26.13.13 0 000 .26zM17.502 36.502a.325.325 0 10-.325-.324c0 .18.145.325.325.325zM20.176 36.7a.52.52 0 10.001-1.041.52.52 0 000 1.04zM22.85 36.843a.664.664 0 10.001-1.328.664.664 0 000 1.328zM25.526 36.843a.664.664 0 100-1.328.664.664 0 000 1.328zM28.2 36.843a.663.663 0 100-1.327.663.663 0 000 1.327zM30.875 36.778a.598.598 0 100-1.197.598.598 0 000 1.197zM33.549 36.556a.377.377 0 100-.754.377.377 0 000 .755zM36.223 36.27a.091.091 0 100-.182.091.091 0 000 .182zM16.164 37.71a.195.195 0 100-.39.195.195 0 000 .39zM18.84 37.893a.377.377 0 100-.755.377.377 0 000 .755zM21.514 38.049a.534.534 0 100-1.068.534.534 0 000 1.068zM24.188 38.166a.65.65 0 10.001-1.301.65.65 0 000 1.3zM26.863 38.178a.663.663 0 100-1.326.663.663 0 000 1.326zM29.537 38.062a.547.547 0 100-1.093.547.547 0 000 1.093zM32.212 37.824a.31.31 0 10.001-.618.31.31 0 00-.001.618zM34.886 37.567a.052.052 0 100-.104.052.052 0 100 .104zM16.164 39.006a.156.156 0 10.001-.31.156.156 0 000 .31zM18.84 39.228a.377.377 0 100-.754.377.377 0 000 .754zM21.514 39.306a.455.455 0 100-.91.455.455 0 000 .91zM24.188 39.385a.533.533 0 100-1.067.533.533 0 000 1.067zM26.863 39.372a.52.52 0 100-1.041.52.52 0 000 1.04zM29.537 39.27a.418.418 0 100-.837.418.418 0 000 .836zM32.212 38.993a.143.143 0 100-.285.143.143 0 000 .285zM16.164 40.304a.117.117 0 100-.234.117.117 0 000 .234zM18.84 40.512a.326.326 0 100-.652.326.326 0 000 .652zM21.514 40.552a.364.364 0 100-.729.364.364 0 000 .729zM24.188 40.59a.403.403 0 100-.806.403.403 0 000 .806zM26.863 40.552a.364.364 0 100-.729.364.364 0 000 .729zM29.537 40.368a.182.182 0 100-.363.182.182 0 000 .363zM16.165 41.588c.035 0 .065-.029.065-.065a.065.065 0 10-.066.065zM18.839 41.705a.182.182 0 100-.364.182.182 0 000 .364zM21.513 41.782a.26.26 0 100-.52.26.26 0 000 .52zM24.188 41.808a.286.286 0 10.001-.572.286.286 0 000 .572zM25.525 41.76a.238.238 0 100-.476.238.238 0 000 .477zM28.2 41.601a.078.078 0 100-.156.078.078 0 100 .156zM18.839 42.963a.104.104 0 100-.208.104.104 0 000 .208zM21.513 43.015a.156.156 0 100-.311.156.156 0 000 .31zM24.188 43.002a.143.143 0 100-.286.143.143 0 000 .286z" fill="#00C8FF"/><path d="M32.953 26.724a.556.556 0 100-1.112.556.556 0 000 1.112zM20.92 15.563a.1.1 0 100-.2.1.1 0 000 .2zM23.594 15.54a.078.078 0 100-.155.078.078 0 000 .155zM20.917 14.25a.044.044 0 100-.09.044.044 0 000 .09zM22.257 14.25a.044.044 0 100-.09.044.044 0 000 .09zM22.257 16.987a.2.2 0 100-.4.2.2 0 000 .4zM24.932 16.976a.189.189 0 100-.377.189.189 0 000 .377zM27.606 16.898a.11.11 0 100-.221.11.11 0 000 .221zM16.903 18.216c.03 0 .056-.025.056-.056a.056.056 0 00-.111 0c0 .031.024.056.055.056zM22.252 18.404a.244.244 0 100-.488.244.244 0 000 .488zM24.928 18.47a.31.31 0 100-.622.31.31 0 000 .622zM27.601 18.415a.255.255 0 100-.51.255.255 0 000 .51zM30.276 18.315a.155.155 0 100-.31.155.155 0 000 .31zM23.595 19.814a.322.322 0 10.001-.644.322.322 0 00-.001.644zM26.269 19.905a.411.411 0 100-.823.411.411 0 000 .823zM28.944 19.86a.367.367 0 100-.733.367.367 0 000 .733zM31.618 19.747a.255.255 0 100-.51.255.255 0 000 .51zM34.293 19.615a.122.122 0 100-.244.122.122 0 000 .244zM26.27 21.267a.456.456 0 100-.911.456.456 0 000 .911zM28.944 21.334a.523.523 0 100-1.045.523.523 0 000 1.045zM31.618 21.223a.411.411 0 100-.823.411.411 0 000 .823zM34.292 21.066a.255.255 0 100-.51.255.255 0 000 .51zM36.967 20.922a.11.11 0 100-.222.11.11 0 000 .222zM27.598 22.696a.534.534 0 100-1.067.534.534 0 000 1.067zM30.273 22.73a.567.567 0 10.001-1.134.567.567 0 000 1.134zM32.947 22.652a.49.49 0 100-.979.49.49 0 000 .979zM35.622 22.483a.322.322 0 10.002-.644.322.322 0 00-.002.644zM38.296 22.317a.155.155 0 100-.31.155.155 0 000 .31zM42.312 26.246a.077.077 0 10-.078-.078c0 .043.035.078.078.078zM27.607 24.03a.523.523 0 100-1.046.523.523 0 000 1.045zM30.281 24.074a.567.567 0 100-1.134.567.567 0 000 1.134zM32.956 24.074a.567.567 0 100-1.134.567.567 0 000 1.134zM35.63 23.963a.456.456 0 100-.912.456.456 0 000 .912zM38.304 23.772a.266.266 0 100-.532.266.266 0 000 .532zM40.979 23.584a.078.078 0 100-.155.078.078 0 000 .155zM18.246 24.948a.055.055 0 100-.11.055.055 0 000 .11zM20.92 25.07a.178.178 0 100-.355.178.178 0 000 .355zM23.595 25.192a.3.3 0 100-.599.3.3 0 100 .599zM26.27 25.316a.422.422 0 100-.845.422.422 0 000 .845zM30.281 25.46a.567.567 0 100-1.134.567.567 0 000 1.134zM32.956 25.46a.567.567 0 100-1.134.567.567 0 000 1.134zM35.63 25.46a.567.567 0 10.001-1.134.567.567 0 000 1.134zM38.305 25.26a.367.367 0 100-.734.367.367 0 000 .734zM40.98 25.037a.144.144 0 100-.288.144.144 0 000 .288zM35.63 26.735a.567.567 0 10.001-1.134.567.567 0 000 1.134zM38.305 26.602a.434.434 0 100-.867.434.434 0 000 .867zM40.979 26.334a.166.166 0 100-.333.166.166 0 000 .333zM35.63 28.066a.567.567 0 10.001-1.134.567.567 0 000 1.134zM38.304 27.977a.478.478 0 100-.956.478.478 0 000 .956zM40.98 27.675a.177.177 0 100-.354.177.177 0 000 .354zM35.635 29.418a.567.567 0 100-1.134.567.567 0 000 1.134zM38.31 29.33a.478.478 0 100-.957.478.478 0 000 .956zM40.984 29.017a.167.167 0 100-.333.167.167 0 000 .333zM42.316 24.994a.033.033 0 100-.066.033.033 0 000 .066zM36.968 30.754a.567.567 0 100-1.134.567.567 0 000 1.134zM39.642 30.442a.255.255 0 100-.51.255.255 0 000 .51zM35.63 32.077a.567.567 0 10.001-1.134.567.567 0 000 1.134zM38.305 31.83a.322.322 0 100-.643.322.322 0 000 .644zM34.293 33.402a.567.567 0 100-1.134.567.567 0 000 1.134zM36.967 33.167a.333.333 0 10.002-.667.333.333 0 00-.002.667zM34.29 34.65a.49.49 0 100-.978.49.49 0 000 .978zM36.967 34.316a.155.155 0 100-.31.155.155 0 000 .31zM34.277 35.806a.289.289 0 10.001-.578.289.289 0 000 .578zM32.955 37.072a.222.222 0 100-.444.222.222 0 000 .444zM32.955 38.22a.033.033 0 10-.033-.034c0 .02.015.035.033.035zM28.944 25.46a.567.567 0 10.001-1.134.567.567 0 000 1.134z" fill="#FF144B"/><path d="M26.266 39.083a.44.44 0 100 .881.44.44 0 000-.881zM28.94 39.32a.203.203 0 100 .406.203.203 0 000-.406zM30.278 37.928a.259.259 0 100 .518.259.259 0 000-.518zM31.615 36.555a.296.296 0 10-.001.592.296.296 0 00.001-.592zM31.6 35.087a.432.432 0 100 .864.432.432 0 000-.864zM15.568 19.683a.185.185 0 100-.37.185.185 0 000 .37zM18.242 19.738a.24.24 0 10.001-.48.24.24 0 000 .48zM20.917 19.72a.222.222 0 100-.444.222.222 0 000 .444zM22.255 21.143a.333.333 0 100-.666.333.333 0 000 .666zM19.58 21.163a.352.352 0 100-.705.352.352 0 000 .705zM16.906 21.143a.333.333 0 10.001-.666.333.333 0 00-.001.666zM18.238 18.27a.111.111 0 100-.221.111.111 0 000 .222zM16.905 16.898a.11.11 0 100-.221.11.11 0 000 .221zM19.58 16.898a.11.11 0 100-.221.11.11 0 000 .221zM15.563 18.234a.074.074 0 100-.148.074.074 0 000 .148zM20.912 18.252a.092.092 0 100-.184.092.092 0 100 .184zM24.932 19.591a.092.092 0 100-.185.092.092 0 000 .185zM22.254 19.701a.204.204 0 100-.407.204.204 0 000 .407zM27.606 20.977a.166.166 0 100-.332.166.166 0 000 .332zM12.893 20.867a.055.055 0 100-.111.055.055 0 000 .11zM15.568 21.088a.278.278 0 10.001-.555.278.278 0 000 .555zM24.932 21.014a.203.203 0 100-.407.203.203 0 000 .407zM14.222 22.42a.259.259 0 100-.517.259.259 0 000 .518zM27.595 22.457a.296.296 0 10.001-.592.296.296 0 000 .592zM28.932 22.402a.24.24 0 100-.48.24.24 0 000 .48zM14.231 23.82a.315.315 0 10.001-.629.315.315 0 000 .63zM31.614 23.765a.259.259 0 10.001-.518.259.259 0 000 .518zM11.556 24.954a.055.055 0 100-.11.055.055 0 000 .11zM14.231 25.27a.37.37 0 100-.742.37.37 0 000 .741zM11.556 26.26a.092.092 0 100-.185.092.092 0 000 .185zM14.231 26.594a.426.426 0 100-.852.426.426 0 000 .852zM12.893 27.794a.296.296 0 10.001-.593.296.296 0 000 .593zM34.295 26.557a.39.39 0 100-.778.39.39 0 000 .778zM35.63 27.888a.39.39 0 100-.779.39.39 0 000 .779zM35.635 29.798a.39.39 0 100 .779.39.39 0 000-.779zM12.898 29.164a.315.315 0 10.001-.629.315.315 0 000 .63zM36.969 28.61a.24.24 0 100 .481.24.24 0 000-.48zM35.626 26.408a.24.24 0 100-.48.24.24 0 000 .48zM12.893 29.854a.333.333 0 10-.001.666.333.333 0 00.001-.666zM36.964 29.947a.24.24 0 100 .48.24.24 0 000-.48zM12.893 31.177a.333.333 0 10-.001.667.333.333 0 00.001-.667zM35.628 31.121a.39.39 0 10-.001.779.39.39 0 000-.779zM11.556 32.674a.166.166 0 100 .333.166.166 0 000-.333zM14.23 32.322a.519.519 0 100 1.037.519.519 0 000-1.037zM11.556 34.013a.148.148 0 100 .296.148.148 0 000-.296zM14.23 33.642a.519.519 0 100 1.038.519.519 0 000-1.038zM12.879 35.204a.315.315 0 10-.002.629.315.315 0 00.002-.63zM32.94 35.185a.333.333 0 10-.001.666.333.333 0 00.001-.666zM12.893 36.555a.296.296 0 10-.001.592.296.296 0 00.001-.592zM11.556 36.759a.093.093 0 100 .185.093.093 0 000-.185zM14.231 37.743a.445.445 0 100 .89.445.445 0 000-.89zM12.893 39.301a.222.222 0 100 .444.222.222 0 000-.444zM30.278 39.486a.037.037 0 100 .074.037.037 0 000-.074zM14.231 40.514a.333.333 0 10-.001.666.333.333 0 00.001-.666zM24.93 40.44a.408.408 0 10-.001.815.408.408 0 000-.815zM12.893 42.084a.111.111 0 100 .223.111.111 0 000-.223zM15.568 41.806a.39.39 0 100 .779.39.39 0 000-.779zM18.242 41.64a.556.556 0 100 1.112.556.556 0 000-1.112zM20.918 41.658a.538.538 0 100 1.075.538.538 0 000-1.075zM23.591 41.88a.315.315 0 100 .63.315.315 0 000-.63zM11.54 39.486a.037.037 0 10.038.037.037.037 0 00-.037-.037zM15.568 43.27a.259.259 0 100 .518.259.259 0 000-.518zM18.243 43.16a.37.37 0 100 .74.37.37 0 000-.74zM20.918 43.233a.296.296 0 10-.001.592.296.296 0 000-.592zM23.592 43.455a.074.074 0 100 .148.074.074 0 000-.148zM16.905 44.67a.166.166 0 100 .334.166.166 0 000-.333zM19.58 44.708a.13.13 0 100 .259.13.13 0 000-.259zM14.231 44.782a.055.055 0 100 .11.055.055 0 000-.11zM26.266 42.14a.055.055 0 100 .11.055.055 0 000-.11z" fill="#0041FF"/><path d="M12.216 41.49a.037.037 0 100 .074.037.037 0 000-.074zM17.6 12.211a.078.078 0 100-.155.078.078 0 000 .155zM26.927 16.22a.078.078 0 100-.156.078.078 0 000 .156zM14.891 13.625a.156.156 0 100-.312.156.156 0 000 .312zM17.566 13.625a.156.156 0 100-.312.156.156 0 000 .312zM20.24 13.548a.078.078 0 10.001-.156.078.078 0 000 .156zM12.217 14.897a.09.09 0 100-.182.09.09 0 000 .182zM14.892 15.09a.286.286 0 100-.571.286.286 0 000 .572zM17.566 15.143a.338.338 0 100-.676.338.338 0 000 .676zM20.24 15.065a.26.26 0 100-.52.26.26 0 000 .52zM22.915 14.935a.13.13 0 100-.259.13.13 0 000 .26zM18.937 12.185a.052.052 0 100-.104.052.052 0 000 .104zM12.217 16.284a.143.143 0 100-.285.143.143 0 000 .285zM14.891 16.572a.43.43 0 100-.86.43.43 0 000 .86zM17.566 16.65a.507.507 0 100-1.015.507.507 0 000 1.014zM20.24 16.572a.43.43 0 10.001-.86.43.43 0 000 .86zM22.916 16.44a.299.299 0 100-.598.299.299 0 000 .598zM25.59 16.297a.156.156 0 100-.311.156.156 0 000 .311zM12.216 17.646a.169.169 0 10.001-.337.169.169 0 000 .337zM14.892 17.998a.52.52 0 100-1.04.52.52 0 000 1.04zM17.566 18.141a.664.664 0 100-1.327.664.664 0 000 1.327zM20.24 18.063a.585.585 0 10.001-1.17.585.585 0 000 1.17zM22.915 17.933a.455.455 0 100-.91.455.455 0 000 .91zM25.59 17.789a.312.312 0 100 0zM28.264 17.62a.143.143 0 100-.285.143.143 0 000 .285zM12.217 18.995a.182.182 0 100-.363.182.182 0 000 .363zM14.892 19.413a.599.599 0 100-1.197.599.599 0 000 1.197zM17.566 19.478a.664.664 0 100-1.328.664.664 0 000 1.328zM20.24 19.478a.664.664 0 10.001-1.328.664.664 0 000 1.328zM22.915 19.413a.598.598 0 100-1.197.598.598 0 000 1.197zM25.59 19.27a.455.455 0 100-.911.455.455 0 000 .91zM28.264 19.112a.299.299 0 10.001-.598.299.299 0 00-.001.598zM30.938 18.93a.117.117 0 100-.233.117.117 0 000 .234zM13.554 20.515a.364.364 0 100-.729.364.364 0 000 .729zM16.23 20.814a.663.663 0 100-1.327.663.663 0 000 1.327zM18.903 20.814a.664.664 0 100-1.327.664.664 0 000 1.327zM21.578 20.814a.663.663 0 100-1.327.663.663 0 000 1.327zM24.252 20.8a.65.65 0 100-1.3.65.65 0 000 1.3zM26.927 20.657a.507.507 0 100-1.014.507.507 0 000 1.014zM29.601 20.5a.351.351 0 10.001-.702.351.351 0 000 .703zM32.275 20.319a.169.169 0 100-.338.169.169 0 000 .338zM12.216 21.693a.208.208 0 10.001-.415.208.208 0 000 .415zM14.892 22.098a.611.611 0 100-1.223.611.611 0 000 1.223zM17.566 22.15a.664.664 0 100-1.328.664.664 0 000 1.328zM20.24 22.15a.664.664 0 10.001-1.328.664.664 0 000 1.328zM22.915 22.15a.664.664 0 100-1.328.664.664 0 000 1.328zM25.59 22.15a.664.664 0 100-1.327.664.664 0 000 1.327zM28.264 22.046a.56.56 0 100-1.12.56.56 0 000 1.12zM30.938 21.876a.39.39 0 100-.78.39.39 0 000 .78zM33.613 21.68a.195.195 0 100-.389.195.195 0 000 .39zM12.216 23.03a.208.208 0 10.001-.416.208.208 0 000 .415zM14.892 23.42a.599.599 0 100-1.196.599.599 0 000 1.197zM17.566 23.485a.663.663 0 100-1.326.663.663 0 000 1.326zM20.24 23.485a.664.664 0 10.002-1.327.664.664 0 00-.001 1.327zM22.915 23.485a.663.663 0 100-1.326.663.663 0 000 1.326zM25.59 23.485a.663.663 0 100-1.326.663.663 0 000 1.326zM28.264 23.485a.663.663 0 10.001-1.326.663.663 0 000 1.326zM30.938 23.33a.507.507 0 100-1.015.507.507 0 000 1.015zM33.613 23.133a.312.312 0 10.001-.624.312.312 0 000 .624zM36.287 22.913a.09.09 0 100-.182.09.09 0 000 .182zM13.554 24.536a.377.377 0 100-.755.377.377 0 000 .755zM16.23 24.822a.663.663 0 100-1.327.663.663 0 000 1.327zM18.903 24.822a.664.664 0 100-1.327.664.664 0 000 1.327zM21.578 24.822a.663.663 0 100-1.327.663.663 0 000 1.327zM24.253 24.822a.663.663 0 100-1.327.663.663 0 000 1.327zM26.927 24.822a.664.664 0 100-1.327.664.664 0 000 1.327zM29.601 24.822a.664.664 0 100-1.327.664.664 0 000 1.327zM32.282 24.706a.523.523 0 100-1.047.523.523 0 000 1.047zM34.95 24.456a.299.299 0 10.002-.598.299.299 0 00-.001.598zM37.624 24.223a.065.065 0 100-.13.065.065 0 000 .13zM13.554 25.872a.377.377 0 100-.755.377.377 0 000 .755zM16.23 26.158a.663.663 0 100-1.327.663.663 0 000 1.327zM18.903 26.158a.663.663 0 100-1.327.663.663 0 000 1.327zM21.578 26.158a.663.663 0 100-1.327.663.663 0 000 1.327zM24.253 26.158a.663.663 0 100-1.327.663.663 0 000 1.327z" fill="#00C8FF"/><path d="M26.927 26.158a.664.664 0 100-1.327.664.664 0 000 1.327zM29.601 26.158a.664.664 0 100-1.327.664.664 0 000 1.327zM32.276 26.074a.58.58 0 100-1.16.58.58 0 000 1.16zM34.95 25.832a.338.338 0 10.001-.676.338.338 0 000 .676zM37.625 25.611a.117.117 0 100-.234.117.117 0 000 .234zM13.554 27.195a.364.364 0 100-.729.364.364 0 000 .729zM16.23 27.494a.663.663 0 100-1.327.663.663 0 000 1.327zM18.903 27.494a.664.664 0 100-1.327.664.664 0 000 1.327zM21.578 27.494a.663.663 0 100-1.327.663.663 0 000 1.327zM24.253 27.494a.663.663 0 100-1.327.663.663 0 000 1.327z" fill="#00C8FF"/><path d="M26.927 27.494a.664.664 0 100-1.327.664.664 0 000 1.327zM29.601 27.494a.664.664 0 100-1.327.664.664 0 000 1.327zM32.276 27.455a.625.625 0 100-1.25.625.625 0 000 1.25zM34.95 27.22a.39.39 0 100-.78.39.39 0 000 .78zM37.624 26.973a.143.143 0 100-.285.143.143 0 000 .285zM13.554 28.517a.351.351 0 10.001-.702.351.351 0 000 .702zM16.23 28.83a.663.663 0 100-1.327.663.663 0 000 1.327zM18.903 28.83a.664.664 0 100-1.327.664.664 0 000 1.327zM21.578 28.83a.664.664 0 100-1.327.664.664 0 000 1.327zM24.253 28.83a.664.664 0 100-1.327.664.664 0 000 1.327z" fill="#00C8FF"/><path d="M26.927 28.83a.664.664 0 100-1.327.664.664 0 000 1.327zM29.601 28.83a.664.664 0 100-1.327.664.664 0 000 1.327zM32.276 28.83a.664.664 0 100-1.327.664.664 0 000 1.327zM34.95 28.609a.442.442 0 100-.885.442.442 0 000 .885zM37.624 28.31a.143.143 0 100-.286.143.143 0 000 .285zM13.554 29.84a.338.338 0 10.001-.676.338.338 0 00-.001.676zM16.229 30.153a.65.65 0 100-1.301.65.65 0 000 1.301zM18.903 30.166a.664.664 0 100-1.327.664.664 0 000 1.327zM21.578 30.166a.663.663 0 100-1.327.663.663 0 000 1.327zM24.253 30.166a.663.663 0 100-1.327.663.663 0 000 1.327z" fill="#00C8FF"/><path d="M26.927 30.166a.664.664 0 100-1.327.664.664 0 000 1.327zM29.601 30.166a.664.664 0 100-1.327.664.664 0 000 1.327zM32.276 30.166a.664.664 0 100-1.327.664.664 0 000 1.327zM34.932 29.942a.42.42 0 100-.84.42.42 0 000 .84zM37.625 29.62a.117.117 0 100-.234.117.117 0 000 .233zM13.554 31.162a.325.325 0 10.001-.65.325.325 0 00-.001.65zM16.229 31.437a.598.598 0 100-1.197.598.598 0 000 1.197zM18.903 31.502a.664.664 0 100-1.327.664.664 0 000 1.327zM21.578 31.502a.663.663 0 100-1.327.663.663 0 000 1.327zM24.253 31.502a.663.663 0 100-1.327.663.663 0 000 1.327z" fill="#00C8FF"/><path d="M26.927 31.502a.664.664 0 100-1.327.664.664 0 000 1.327zM29.601 31.502a.664.664 0 100-1.327.664.664 0 000 1.327zM32.276 31.502a.663.663 0 100-1.327.663.663 0 000 1.327zM34.95 31.236a.397.397 0 100-.795.397.397 0 000 .795zM37.625 30.916a.078.078 0 100-.155.078.078 0 000 .155zM13.554 32.472a.299.299 0 10.001-.597.299.299 0 000 .597zM16.229 32.734a.56.56 0 100-1.119.56.56 0 000 1.119zM18.903 32.838a.664.664 0 100-1.327.664.664 0 000 1.327zM21.578 32.838a.664.664 0 100-1.327.664.664 0 000 1.327zM24.253 32.838a.664.664 0 100-1.327.664.664 0 000 1.327z" fill="#00C8FF"/><path d="M26.927 32.838a.664.664 0 100-1.327.664.664 0 000 1.327zM29.601 32.838a.664.664 0 100-1.327.664.664 0 000 1.327zM32.276 32.838a.664.664 0 100-1.327.664.664 0 000 1.327zM34.95 32.482a.309.309 0 10.001-.617.309.309 0 00-.001.617zM12.216 33.679a.169.169 0 10.001-.338.169.169 0 000 .338zM14.892 33.875a.364.364 0 100-.728.364.364 0 000 .728zM17.566 34.161a.65.65 0 100-1.3.65.65 0 000 1.3zM20.24 34.174a.664.664 0 10.002-1.327.664.664 0 00-.001 1.327zM22.915 34.174a.663.663 0 100-1.327.663.663 0 000 1.327zM25.59 34.174a.663.663 0 100-1.326.663.663 0 000 1.326zM28.264 34.174a.663.663 0 10.001-1.327.663.663 0 000 1.327zM30.939 34.174a.663.663 0 100-1.327.663.663 0 000 1.327zM33.613 33.927a.416.416 0 100-.832.416.416 0 000 .832zM36.287 33.576a.065.065 0 100-.13.065.065 0 000 .13zM13.553 35.093a.247.247 0 100-.494.247.247 0 000 .494zM16.23 35.315a.468.468 0 100-.936.468.468 0 000 .936zM18.903 35.51a.664.664 0 100-1.327.664.664 0 000 1.327zM21.578 35.51a.664.664 0 100-1.327.664.664 0 000 1.327zM24.253 35.51a.664.664 0 100-1.327.664.664 0 000 1.327zM26.927 35.51a.664.664 0 100-1.327.664.664 0 000 1.327zM29.602 35.484a.637.637 0 100-1.275.637.637 0 000 1.275zM32.276 35.263a.416.416 0 100-.832.416.416 0 000 .832zM34.95 34.938a.09.09 0 100-.182.09.09 0 000 .182zM13.554 36.403a.22.22 0 100-.441.22.22 0 000 .44zM16.23 36.612a.43.43 0 100-.858.43.43 0 000 .858zM18.903 36.807a.624.624 0 100-1.248.624.624 0 000 1.248z" fill="#00C8FF"/><path d="M21.578 36.846a.664.664 0 100-1.327.664.664 0 000 1.328zM24.253 36.846a.664.664 0 100-1.327.664.664 0 000 1.328zM26.927 36.846a.664.664 0 100-1.327.664.664 0 000 1.328zM29.602 36.664a.481.481 0 100-.962.481.481 0 000 .962zM32.275 36.442a.26.26 0 100-.52.26.26 0 000 .52zM12.216 37.636a.117.117 0 100-.234.117.117 0 000 .234zM14.892 37.804a.286.286 0 100-.572.286.286 0 000 .572zM17.566 37.974a.455.455 0 100-.91.455.455 0 000 .91zM20.24 38.13a.611.611 0 10.001-1.222.611.611 0 000 1.223zM22.915 38.182a.663.663 0 100-1.327.663.663 0 000 1.327zM25.59 38.144a.625.625 0 100-1.25.625.625 0 000 1.25zM28.264 37.948a.43.43 0 100-.858.43.43 0 000 .858zM30.938 37.726a.208.208 0 100-.415.208.208 0 000 .415zM12.216 38.933a.078.078 0 100-.156.078.078 0 000 .156zM14.891 39.097a.243.243 0 100-.485.243.243 0 000 .485zM17.566 39.246a.39.39 0 100-.781.39.39 0 000 .78zM20.24 39.362a.507.507 0 10.001-1.014.507.507 0 000 1.014zM22.915 39.388a.533.533 0 10.001-1.066.533.533 0 000 1.066zM25.59 39.31a.455.455 0 100-.91.455.455 0 000 .91zM28.264 39.114a.26.26 0 100-.52.26.26 0 000 .52zM12.217 40.243a.052.052 0 00.052-.052.052.052 0 00-.104 0c0 .029.023.052.052.052zM14.89 40.372a.182.182 0 10.001-.363.182.182 0 000 .363zM17.566 40.502a.312.312 0 10.002-.624.312.312 0 00-.002.623zM20.24 40.582a.39.39 0 10.001-.781.39.39 0 000 .78zM22.915 40.594a.403.403 0 100-.806.403.403 0 000 .806zM25.59 40.476a.286.286 0 10.001-.572.286.286 0 00-.001.572zM28.264 40.256a.065.065 0 100-.13.065.065 0 100 .13zM14.892 41.657a.13.13 0 100-.26.13.13 0 000 .26zM17.565 41.758a.232.232 0 100-.464.232.232 0 000 .465zM20.24 41.812a.286.286 0 10.001-.572.286.286 0 000 .572zM22.914 41.8a.274.274 0 10.001-.547.274.274 0 000 .547zM24.252 41.721a.195.195 0 100-.39.195.195 0 000 .39zM14.892 42.915a.052.052 0 100-.104.052.052 0 000 .104zM17.565 42.993a.13.13 0 100-.26.13.13 0 000 .26zM20.24 43.019a.156.156 0 100-.312.156.156 0 000 .312zM22.915 42.941a.078.078 0 100-.156.078.078 0 000 .156z" fill="#00C8FF"/><defs><linearGradient id="paint0_linear" x1="10.418" y1="9.712" x2="68.147" y2="76.017" gradientUnits="userSpaceOnUse"><stop stop-color="#1A1E21"/><stop offset="1" stop-color="#06060A"/></linearGradient></defs></svg>