<!-- by TradingView --><svg xmlns="http://www.w3.org/2000/svg" width="56" height="56"><path fill="#F0F3FA" d="M0 0h56v56H0z"/><path d="M45 28a17 17 0 11-34 0 17 17 0 0134 0z" fill="url(#avmmq31uk)"/><path fill-rule="evenodd" d="M28 44a16 16 0 100-32 16 16 0 000 32zm0 1a17 17 0 100-34 17 17 0 000 34z" fill="#043A84"/><ellipse cx="28" cy="20.34" rx="12" ry="8.34" fill="url(#bvmmq31uk)"/><path d="M18.95 25c1.29.03 3.02.37 3.73.53l-.58 1.55c-.29-.14-1.3-.54-2.32-.6-1.02-.05-1.61.26-1.62.67-.01.32.43.55.79.67 2.48.83 2.8 1.63 2.8 2.1 0 1.44-2.55 2.1-4.97 2.08-1.94 0-3.54-.31-4.1-.46l.57-1.62c.81.32 2.08.51 3.1.54 1.03.02 1.58-.28 1.58-.65 0-.3-.37-.54-.79-.68-2.3-.74-2.77-1.56-2.77-2.13 0-1.47 2.97-2.03 4.58-2z" fill="#F0F3FA"/><path d="M22.27 28.67c0-3.6 7.36-4.13 11.27-3.37L33 26.9c-5.24-1.25-6.9.72-6.9 1.77 0 2.27 4.97 2.1 7.25 1.47l-3.73 1.83c-5.98.31-7.36-2-7.36-3.3zM35.26 25h8.66l-.53 1.69h-4.7L38.26 28h3.9l-.6 1.64H37.7L36.97 32H33l.59-1.83L38.17 28h-3.89l.98-3z" fill="#F0F3FA"/><defs><linearGradient id="avmmq31uk" x1="28" y1="11" x2="28" y2="45" gradientUnits="userSpaceOnUse"><stop offset=".47" stop-color="#043A84"/><stop offset="1" stop-color="#74B6EC"/></linearGradient><linearGradient id="bvmmq31uk" x1="28" y1="12" x2="28" y2="28.68" gradientUnits="userSpaceOnUse"><stop offset=".08" stop-color="#7C96BC"/><stop offset=".94" stop-color="#0F468E"/></linearGradient></defs></svg>