<!-- by TradingView --><svg width="56" height="56" viewBox="0 0 56 56" xmlns="http://www.w3.org/2000/svg"><path fill="#981535" d="M0 0h56v56H0z"/><path fill-rule="evenodd" d="M20.5 11H19v8h1.5v-2.57h2.33L24 15.35v-3.32L22.83 11H20.5Zm0 1.42h2V15h-2v-2.58ZM30.5 29H29v8h1.5v-2.57h2.33L34 33.35v-3.32L32.83 29H30.5Zm0 1.42h2V33h-2v-2.58ZM26.09 11h2.8L30 12.16v5.7L28.9 19h-2.81L25 17.86v-5.7L26.09 11Zm.41 1.55h2v4.9h-2v-4.9ZM35.9 20h-2.81L32 21.16v5.7L33.09 28h2.8L37 26.86v-5.7L35.9 20Zm-.4 1.55h-2v4.9h2v-4.9ZM32.12 11H35v1.55h-2.5v4.9H35V19h-2.88L31 17.86v-5.7L32.12 11ZM42 20h-2.88L38 21.16v5.7L39.12 28H42v-1.55h-2.5v-4.9H42V20Zm-21.88 9H23v1.55h-2.5v4.9H23V37h-2.88L19 35.86v-5.7L20.12 29Zm8.92-9H28v8h1.5v-6.45h1.94V20h-2.4ZM24 29h4v1.55h-1.25V37h-1.5v-6.45H24V29Zm-1.71 16 1.45-7h2.49l1.5 7h-1.5l-.32-1.63h-1.84L23.74 45H22.3Zm2.02-3 .55-2.62h.25l.54 2.62h-1.34Zm3.75-4h1.43l.82 2.64h.25l.8-2.64h1.47l-1.03 3.4 1.03 3.6h-1.47l-.8-2.75h-.25L29.49 45h-1.43l1.02-3.6-1.02-3.4Z" fill="#fff"/></svg>