<!-- by TradingView --><svg width="56" height="56" viewBox="0 0 56 56" xmlns="http://www.w3.org/2000/svg"><path fill="#D60000" d="M0 0h56v56H0z"/><path fill-rule="evenodd" d="M12 20h6.58a5.42 5.42 0 0 1 3.65 9.42A5.42 5.42 0 0 1 20.58 40H12V20Zm4 3h1a3 3 0 1 1 0 6h-1v-6Zm0 8h3a3 3 0 1 1 0 6h-3v-6Z" fill="#fff"/><path d="M27 27h4v8.05L37 27h4v13h-4v-8.05L31 40h-4V27Z" fill="#fff"/><path fill-rule="evenodd" d="M39 25a6 6 0 1 0 0-12 6 6 0 0 0 0 12Zm-4.5-4a.5.5 0 1 0 0-1 .5.5 0 0 0 0 1Zm2.5-4h-1v5h1v-2.06c.32.35.77.56 1.27.56.95 0 1.73-.78 1.73-1.75S39.22 17 38.27 17c-.5 0-.95.21-1.27.56V17Zm0 2.33v-1.16c.2-.26.51-.42.87-.42.59 0 1.06.45 1.06 1s-.47 1-1.06 1c-.36 0-.68-.16-.87-.42ZM40 17h1l1.04 1.82L43 17h1l-2.63 5h-1l1.19-2.25L40 17Z" fill="#fff"/></svg>