<!-- by TradingView --><svg width="56" height="56" xmlns="http://www.w3.org/2000/svg"><path fill="#021483" d="M0 0h56v56H0z"/><path d="M16 44V12h24v32H16zm23-1V13H17v30h22z" fill="#fff"/><path d="M39 14.005v1.392l-12.844 8.061c-.56.333-.936.95-.979 1.607-.042.657.276 1.223.766 1.722 1.743 1.779 2.86 2.764 2.86 2.764.422.364.76.834.732 1.388-.028.553-.427 1.003-.867 1.306a79.078 79.078 0 01-3.708 2.4c.161-.377.234-.788.213-1.2a2.162 2.162 0 00-.491-.985l-3.352-3.192s-3.17-2.265.28-4.598C21.787 24.546 39 14.004 39 14.004z" fill="#fff"/><path d="M17 42.222V40.83l12.809-8.017c1.178-.711 1.21-2.314.213-3.329-1.737-1.766-2.858-2.763-2.858-2.763-.347-.375-.61-.572-.697-.976-.15-.683.25-1.3.843-1.708 1.962-1.347 3.71-2.411 3.71-2.411a2.83 2.83 0 00-.203 1.2c.069.37.236.715.482.996l3.363 3.183s3.194 2.265-.28 4.608L17 42.222z" fill="#fff"/></svg>