<!-- by TradingView --><svg width="56" height="56" viewBox="0 0 56 56" xmlns="http://www.w3.org/2000/svg"><path fill="#393939" d="M0 0h56v56H0z"/><path fill="url(#ayptfrgax)" d="M15 16h31v5H15z"/><path fill="url(#byptfrgax)" d="M16 26h36v5H16z"/><path d="M16 36h34v5H16v-5Z" fill="url(#cyptfrgax)"/><path d="M37.96 40.25a.83.83 0 0 1-.8.75h-3.71a.8.8 0 0 1-.7-.41L26.5 29.66l-6.26 10.93a.8.8 0 0 1-.69.41h-3.71a.83.83 0 0 1-.8-.75L12 16.98c-.07-.52.31-.98.8-.98h3.24c.4 0 .75.32.8.75l2.28 17.27 4.7-8.57c.14-.26.4-.45.69-.45h3.96c.28 0 .55.2.7.45l4.69 8.57 2.28-17.27c.05-.43.4-.75.8-.75h3.24c.49 0 .87.46.8.98l-3.03 23.27Z" fill="#fff"/><defs><linearGradient id="ayptfrgax" x1="20.51" y1="18.5" x2="43.59" y2="18.5" gradientUnits="userSpaceOnUse"><stop offset=".86" stop-color="#CA1A01"/><stop offset="1" stop-color="#CA1A01" stop-opacity="0"/></linearGradient><linearGradient id="byptfrgax" x1="30.49" y1="28.5" x2="52" y2="28.5" gradientUnits="userSpaceOnUse"><stop offset=".75" stop-color="#CA1A01"/><stop offset="1" stop-color="#CA1A01" stop-opacity="0"/></linearGradient><linearGradient id="cyptfrgax" x1="18.11" y1="41" x2="46.99" y2="41" gradientUnits="userSpaceOnUse"><stop offset=".82" stop-color="#CA1A01"/><stop offset=".97" stop-color="#CA1A01" stop-opacity="0"/></linearGradient></defs></svg>