<!-- by TradingView --><svg width="56" height="56" viewBox="0 0 56 56" xmlns="http://www.w3.org/2000/svg"><path fill="#F0F3FA" d="M0 0h56v56H0z"/><path d="M32.12 35.41A9.18 9.18 0 0 1 19.98 30h5.05l-1.33 2h8.97l-.55 3.41Zm-12.65-7.87h7.2l-1.29 1.95h7.5l.66-3.49h-5.85l1.35-2h-9.11a9.17 9.17 0 0 0-.46 3.54ZM21.62 21a9.16 9.16 0 0 1 12.79-1.2l-.28 3.2H29.7l1.3-2h-9.38Z" fill="#ED1B24"/><path fill-rule="evenodd" d="M8 31.94a7.03 7.03 0 0 0 5.97 3.55c4.24.1 6.13.2 6.43.93.25.57-2.92 1.78-4.54 2.31 1.16.57 4.02 1.3 6.23-.3h2.1c-.37.32-.79.71-1.23 1.14-1.73 1.63-3.9 3.68-5.04 4.04 2 .6 5.99.75 9.17-4.1l2.2-.31c-.48.77-1.37 2.6-1.13 3.7l3.07-3.09c.08.43.13 1.7-.36 3.35-.61 2.06.56 3.91 2.6 4.84a9.25 9.25 0 0 1 .56-5.1 7.2 7.2 0 0 0 1.3-4.7c.23.07.76.4 1.05 1.3.27-.51.76-1.94.58-3.53.47.05 1.53.57 2 2.24a3.7 3.7 0 0 0 2.54 2.58c-.4-.67-.66-2.18-.69-4.37a11 11 0 0 0-.94-4.48c.38-.02 1.3.06 1.88.56-.24-.61-.77-1.92-.94-2.27-.1-.2.07-.13.39 0 .43.15 1.15.43 1.93.36 1.38-.1 3.85.05 4.87 1.35.06-.87-1.36-3.52-7.52-7.24.1-.33.7-1 2.36-1a5.74 5.74 0 0 0-2.97-2c.4-.07 1.46-.32 2.54-.85.41-.2.67-.41.9-.6.5-.44.9-.76 2.65-.6L44.13 18c-1.12-.13-3.52-.3-6.48 0 .05-.28.42-.97 1.5-1.47-.57-.34-2.05-.7-3.53.55-.3-.17-.52-.79 1.02-1.9 1.54-1.12 1.92-2.44 1.92-2.97-.15.4-.94 1.19-2.94 1.25-2 .05-3.2 1.75-3.56 2.6-.6-.63-1.28-2.34.87-4.22a6.09 6.09 0 0 0-6.28 3.34c-.47-.37-1.18-1.63-.25-3.74.93-2.1.56-3.17.25-3.44.03.3-.54 1.47-3 3.84-2.48 2.38-2.4 4.73-2.04 5.6l-1.2 1.29c.29-1.88.25-5.89-2.25-6.89.4.93.85 3.35-.55 5.6-1.39 2.26-.87 3.58-.43 3.96-.88-.57-2.58-2.24-2.29-4.32-1.18 1.46-2.64 5.64.98 10.7-.78-.13-2.9-.32-5.1 0 .02 0 .07.07.14.18.26.42.94 1.49 3.06 2 2.15.5 2.35 1.2 2.19 1.49-.7 0-2.45.23-3.76 1.05-1.31.81-3.48-.04-4.4-.56Zm20.5 5.75c5.8 0 10.5-4.74 10.5-10.6 0-5.84-4.7-10.58-10.5-10.58S18 21.25 18 27.1s4.7 10.59 10.5 10.59Z" fill="#8E6E35" fill-opacity=".7"/></svg>