<!-- by TradingView --><svg width="56" height="56" xmlns="http://www.w3.org/2000/svg"><path fill="#FFC920" d="M0 0h56v56H0z"/><path d="M43.657 25.898l-11.473 1.77a.414.414 0 01-.345-.127.434.434 0 01-.118-.356l.34-6.282c-.013-.311.09-.615.288-.85a1.19 1.19 0 01.777-.42l7.335-1.11c.291-.06.594-.005.849.151.255.157.444.404.53.696l2.123 5.927a.44.44 0 01-.133.523.415.415 0 01-.173.078zM35.29 42.553l-5.254-10.61a.45.45 0 01.133-.528.425.425 0 01.173-.081l5.922-1.694a1.17 1.17 0 01.878.013c.28.118.507.34.634.623l3.362 6.773a1.248 1.248 0 01-.43 1.685l-4.79 3.929a.418.418 0 01-.339.092.416.416 0 01-.29-.202zm-18.173-3.031l8.26-8.349a.419.419 0 01.353-.107.416.416 0 01.3.217l3.304 5.284a1.249 1.249 0 01-.132 1.693l-5.287 5.343a1.179 1.179 0 01-1.652.11l-5.104-3.489a.426.426 0 01-.207-.336.44.44 0 01.149-.366h.016zm-2.775-18.586l10.309 5.462a.426.426 0 01.207.31.443.443 0 01-.108.359l-3.866 4.893a1.198 1.198 0 01-.718.515 1.172 1.172 0 01-.868-.125l-6.608-3.497a1.216 1.216 0 01-.603-.652 1.257 1.257 0 01-.008-.897l1.652-6.054a.438.438 0 01.227-.317.413.413 0 01.384.003zM30.78 12.47l-1.908 11.753a.436.436 0 01-.225.301.414.414 0 01-.37.003l-5.74-2.269a1.203 1.203 0 01-.686-.55 1.254 1.254 0 01-.141-.88l1.223-7.511c.039-.308.19-.588.423-.786.233-.198.53-.298.832-.28l6.137-.246a.411.411 0 01.355.125.434.434 0 01.116.366l-.016-.026z" fill="#4C4F50"/></svg>