<!-- by TradingView --><svg width="56" height="56" viewBox="0 0 56 56" xmlns="http://www.w3.org/2000/svg"><path fill="#00654F" d="M0 0h56v56H0z"/><path d="m26.47 21 1.57-13 1.55 13h-3.12Zm-14.23 6.42c-.45-2.19-.6-6.5 2.72-6.97 1.17-.16 3.04.3 2.87 3.16-.2 3.24-1.96 4.99-3.57 6.59l-.5.5c.4-1.13 1.05-3.5.43-4.08-.62-.57-1.56.3-1.95.8Zm28.8-6.97c3.32.46 3.17 4.78 2.72 6.97-.39-.5-1.33-1.37-1.95-.8-.62.57.02 2.95.43 4.07l-.5-.5c-1.6-1.59-3.38-3.34-3.57-6.58-.17-2.86 1.7-3.32 2.87-3.16ZM19 22.82v1.2c.01.77-.16 2.37-1.24 3.53l-.39.4c-1.58 1.65-5.08 5.3-5 8.3.09 3.26 2.25 4.88 6.62 4.74v-7.35c-.65-.2-1.8-.94-1.76-2.28.03-1.16.73-2.2 1.27-2.79l.09-.09c.55-.6 1.54-1.66 1.54-3.07 0-1-.76-2.34-1.13-2.6ZM37 24.02v-1.2a4.2 4.2 0 0 0-1.13 2.59c0 1.4.99 2.47 1.54 3.07l.09.1a4.58 4.58 0 0 1 1.27 2.78c.04 1.34-1.11 2.08-1.76 2.28V41c4.37.14 6.53-1.48 6.62-4.75.08-2.99-3.42-6.64-5-8.29l-.39-.4A5.24 5.24 0 0 1 37 24.02ZM33 22H23v4h10v-4Zm-12 5h14v6H21v-6Zm15 7H20v7h16v-7Z" fill="#fff"/></svg>