<!-- by TradingView --><svg width="56" height="56" viewBox="0 0 56 56" xmlns="http://www.w3.org/2000/svg"><path fill="#F0F3FA" d="M0 0h56v56H0z"/><path fill-rule="evenodd" d="M13 13h30v30H13V13Zm8 6.63L23.4 15H26v7h-2v-5l-2.16 4h-1.67L18 17v5h-2v-7h2.61L21 19.63Zm12-3.13V15h8v1.5h-3V22h-2v-5.5h-3Zm6.25 22.12c-.15.92-1.17.9-1.97.88H37c-1.3 0-2-.26-2-1.66v-1.68c0-1.4.74-1.66 2.05-1.66h.07c.82 0 1.96 0 2.13 1H41c-.19-2.01-2.3-2.5-3.95-2.5a6.3 6.3 0 0 0-2.17.33c-.6.23-1.07.6-1.4 1.12-.3.5-.47 1.16-.48 1.97v1.16c.01.81.17 1.48.48 1.97.33.52.8.9 1.4 1.12.6.22 1.33.33 2.17.33 1.64 0 3.79-.49 3.95-2.5h-1.75v.12Z" fill="#FF0032"/></svg>