<!-- by TradingView --><svg width="56" height="56" viewBox="0 0 56 56" xmlns="http://www.w3.org/2000/svg"><path fill="#004D7F" d="M0 0h56v56H0z"/><path d="M40.7 31h-5.33a16.92 16.92 0 0 1-4.92 5.41 20.74 20.74 0 0 1-7.16 3.13c-6.03 1.41-12.5-.43-14.04-5.4-1.12-4.11 1.69-8.22 4.5-10.5A20.31 20.31 0 0 1 24.42 19h10.1c-.07.14-.2.38-.35.62l-.35.62c-.47.78-.72 1.21-1.1 1.46-.46.3-1.13.3-2.69.3h-.6c-2.2 0-4.5 0-6.56.51-3.65 1-7.02 3.69-8.28 6.81-2.1 4.82 1.33 8.09 6.1 7.66 2.1-.14 4.15-1.13 5.7-2.13 1.11-.7 3.36-2.72 3.78-3.85h-7.02c0-.2.41-.86.7-1.35.13-.2.24-.38.28-.47l.06-.1c.38-.64.56-.94 1.63-1.08h17.13l-.46.8c-.19.32-.37.64-.53.95-.25.5-.56 1.1-1.26 1.25Zm4.5-9h-9.83c0-.4 1.13-2.03 1.4-2.37.36-.46.7-.63 1.4-.63H48l-.13.26c-.15.3-.36.73-.57 1.03-.15.22-.27.42-.37.6-.4.7-.63 1.11-1.74 1.11Z" fill="#fff"/></svg>