<!-- by TradingView --><svg xmlns="http://www.w3.org/2000/svg" width="56" height="56"><path d="M0 28a28 28 0 1156 0 28 28 0 01-56 0z" fill="#F0F3FA"/><path d="M48.8 17.02a30.71 30.71 0 00-12.16 3.77 21.9 21.9 0 00-9.84 11.32c-.55 1.46-.77 2.4-.8 3.57-.03 1.33.28 2.85 1.74 3.25.34.1 1.16.09 1.54-.01 1.52-.42 2.9-1.92 3.91-4.28.49-1.14.78-2.35 1.24-3.5 2.33-5.82 6.7-10.26 13.25-13.49l1.02-.49c.26-.11.35-.17.27-.16l-.17.02z" fill="#1F1F20"/><path d="M39.67 17.02a30.66 30.66 0 00-12.15 3.77 21.9 21.9 0 00-9.83 11.32c-.56 1.46-.77 2.4-.8 3.57-.03 1.33.28 2.85 1.74 3.25.34.1 1.16.09 1.54-.01 1.51-.42 2.88-1.92 3.9-4.28.5-1.14.78-2.35 1.24-3.5 2.33-5.82 6.69-10.26 13.24-13.49l1.02-.49c.26-.11.35-.17.27-.16l-.17.02z" fill="#22C2FD"/><path d="M30.78 17.02a30.66 30.66 0 00-12.14 3.77A21.9 21.9 0 008.8 32.11c-.55 1.46-.76 2.4-.8 3.57-.03 1.33.28 2.85 1.74 3.25.34.1 1.16.09 1.54-.01 1.52-.42 2.89-1.92 3.9-4.28.5-1.14.78-2.35 1.24-3.5 2.33-5.82 6.69-10.26 13.24-13.49l1.02-.49c.26-.11.35-.17.27-.16l-.17.02z" fill="#A8A8A8"/></svg>