<!-- by TradingView --><svg width="56" height="56" viewBox="0 0 56 56" xmlns="http://www.w3.org/2000/svg"><path fill="#ED1B24" d="M0 0h56v56H0z"/><path d="M35.9 32h-4.43c-.69 0-1.23.09-1.25.2l-1.27 7.57c0 .04.03.08.09.1.38.1.77.15 1.17.12h4.38c.04 0 .08-.04.1-.08.26-.52.36-1.16.31-1.73-.02-.16-.05-.18-.1-.18h-3.16l.21-1h2.55c.04 0 .08-.04.1-.08.12-.26.2-.73.24-1 .02-.13.17-.92-.05-.92h-2.52l.18-1h3.16c.04 0 .08-.04.1-.08.25-.5.34-1.2.3-1.74-.04-.18-.07-.18-.11-.18ZM26.46 35.44l2.8-3.2c.05-.05.03-.08 0-.1a4.1 4.1 0 0 0-1.3-.14c-.46 0-.8.02-1.2.13a.3.3 0 0 0-.12.09l-2.48 2.82.48-2.82c0-.06-.07-.08-.12-.1a6.1 6.1 0 0 0-1.2-.12c-.36 0-.72.03-1.06.12-.06.02-.1.04-.12.1l-1.27 7.54c0 .06 0 .08.06.1.37.1.57.14 1.15.14s.8-.02 1.2-.13c.04-.02.07-.03.08-.08l.6-3.57 1.38 3.54c.02.05.02.07.1.1a6.68 6.68 0 0 0 2.8 0c.06-.03.11-.05.09-.12l-1.86-4.3ZM43.94 32.18a4.53 4.53 0 0 0-2.49-.02.2.2 0 0 0-.1.09l-1.65 2.5-.67-2.49c0-.04-.02-.06-.09-.1-.35-.1-.74-.15-1.12-.15-.4 0-.8.06-1.17.15-.07.03-.13.05-.1.12l1.55 4.77-.46 2.7c0 .06 0 .08.05.1.38.11.81.15 1.16.15.4 0 .8-.03 1.2-.14.04-.02.06-.03.08-.07l.46-2.7 3.39-4.8c.04-.05 0-.08-.04-.1ZM21.02 33.2l1.3-2.17a.09.09 0 0 0-.02-.11c-.44-.2-1-.18-1.45-.06-.07.02-.14.06-.15.1l-.47 2.23c0 .02 0 .03.03.05a1.11 1.11 0 0 0 .66.02.16.16 0 0 0 .1-.07ZM16.72 32a4.47 4.47 0 0 0-3.43 1.46 4.8 4.8 0 0 0-1.28 3.6c.06 1.89 1.3 2.94 3.28 2.94a4.71 4.71 0 0 0 4.7-5c-.04-1.63-1.04-3-3.27-3Zm-1.1 6.14c-.83 0-1.11-.63-1.14-1.35-.03-1.16.49-2.93 1.88-2.93.83 0 1.16.62 1.19 1.39.04 1.49-.73 2.9-1.92 2.9Z" fill="#fff"/><path d="M21.7 19c-3.2 5.6.97 9.33 3.3 10.5C29.5 29 37 25 35 15c-8.5 1-10.5 9-10.5 9 0-.68.36-2.25.36-2.25-.82-1.46-2.53-2.43-3.16-2.75Z" fill="url(#ahci2dqhi)"/><path fill-rule="evenodd" d="M25 30c-3-1.5-8.5-6-4-13 3 1 4 3.5 4 3.5.83-2.67 4.4-8.1 12-8.5 1 5 2.5 16.5-12 18Zm0-.5c-2.33-1.17-6.5-4.9-3.3-10.5.63.32 2.34 1.29 3.16 2.75 0 0-.36 1.57-.36 2.25 0 0 2-8 10.5-9 2 10-5.5 14-10 14.5Z" fill="#fff"/><defs><linearGradient id="ahci2dqhi" x1="27.93" y1="15" x2="27.93" y2="29.5" gradientUnits="userSpaceOnUse"><stop stop-color="#00AE4D"/><stop offset="1" stop-color="#8CC540"/></linearGradient></defs></svg>