<?xml version="1.0" encoding="UTF-8"?>
<!DOCTYPE svg PUBLIC "-//W3C//DTD SVG 1.1//EN" "http://www.w3.org/Graphics/SVG/1.1/DTD/svg11.dtd">
<!-- Creator: CorelDRAW 2018 -->
<svg xmlns="http://www.w3.org/2000/svg" xml:space="preserve" width="47mm" height="42mm" version="1.1" style="shape-rendering:geometricPrecision; text-rendering:geometricPrecision; image-rendering:optimizeQuality; fill-rule:evenodd; clip-rule:evenodd"
viewBox="0 0 4700 4200"
 xmlns:xlink="http://www.w3.org/1999/xlink">
 <defs>
  <style type="text/css">
   <![CDATA[
    .fil0 {fill:#4E565A;fill-rule:nonzero}
   ]]>
  </style>
 </defs>
 <g id="Layer_x0020_1">
  <metadata id="CorelCorpID_0Corel-Layer"/>
  <g id="_48870408">
   <path class="fil0" d="M2274.02 760.13c-114,136.55 -225.33,292.26 -298.59,441.53l106.76 0c34.42,-69.64 139.33,-208.96 191.83,-269.65l0 -171.88z"/>
   <path class="fil0" d="M2274.02 1056.89c-19.89,26.23 -86.01,119.47 -98.67,144.79l96.9 0c1.77,-2.71 1.77,-144.79 1.77,-144.79z"/>
   <path class="fil0" d="M2274.02 512.15l-677.73 0 0 689.53 302.21 0c100.35,-190.01 236.2,-362.85 375.52,-513.03l0 -176.5z"/>
   <path class="fil0" d="M1703.08 1947.23l60.54 0c52.47,-203.53 155.71,-471.28 277.81,-678.63l-101.31 0c-120.41,217.2 -188.2,449.82 -237.04,678.63z"/>
   <path class="fil0" d="M1846.92 1947.23l69.68 0c74.16,-220.72 167.36,-464.15 320.35,-678.63l-102.25 0c-138.47,219.1 -221.76,461.58 -287.78,678.63z"/>
   <path class="fil0" d="M1596.3 1947.23l9.99 0c25.28,-154.65 129.34,-459.53 255.05,-678.63l-265.04 0 0 678.63z"/>
   <path class="fil0" d="M1989.84 1947.23l102.34 0c56.93,-117.52 109.43,-239.75 181.83,-358.19l0 -225.39c-130.27,187.4 -213.62,409.03 -284.17,583.58z"/>
   <path class="fil0" d="M2171.74 1947.23l100.49 0 1.81 -188.07c-49.79,72.36 -76.11,141.13 -102.3,188.07z"/>
   <path class="fil0" d="M2785.29 440.7l-26.22 -9.05c-46.21,35.37 -100.49,78.73 -100.49,78.73l-83.29 0c87.82,-103.15 284.12,-249.76 390.08,-323.91l-22.7 -9.1c-199.06,132.14 -412.61,278.75 -601.72,506.7l0 166.51c125.8,-151.12 282.28,-283.22 444.34,-409.88z"/>
   <path class="fil0" d="M3066.65 446.11l-29.75 -7.15c-37.18,18.94 -74.3,45.13 -106.82,71.41l-76.96 0c28.94,-35.28 165.64,-120.34 165.64,-120.34l-30.84 -13.56c-259.71,170.07 -463.24,358.33 -646.93,590.86l0 151.04c200.92,-267.76 412.55,-469.59 725.66,-672.26z"/>
   <path class="fil0" d="M2546.34 439.76l-28.03 -12.65c0,0 -67.84,53.4 -103.2,85.02l-74.12 0 0 108.62c47.94,-53.41 114.01,-112.2 205.35,-180.99z"/>
   <path class="fil0" d="M3101.94 740.22l-19.91 -26.23c-18.08,13.57 -47.02,34.37 -65.12,47.93l0 -117.66c27.14,-22.61 88.73,-67.87 136.66,-99.49l-31.7 -15.42c-276.88,178.26 -562.77,427.98 -731.17,672.35l173.78 0c171.03,-200.92 350.24,-336.67 537.46,-461.48z"/>
   <path class="fil0" d="M3139.05 928.4c-36.17,21.75 -86.87,64.26 -119.52,87.77l-0.81 -52.46c0,0 102.24,-75.97 164.7,-114.95l-14.6 -24.42c-158.33,100.48 -313.93,230.77 -471.31,377.32l164.66 0c100.38,-92.29 180.02,-175.49 284.16,-247l-7.28 -26.26z"/>
   <path class="fil0" d="M3118.21 1103.04l-22.56 -22.61c-40.84,38.98 -88.73,85.1 -128.47,121.23l56.07 0c20.84,-28.94 62.4,-72.36 94.96,-98.62z"/>
   <path class="fil0" d="M2340.08 1268.64l0.91 217.15c46.17,-65.93 94.96,-137.52 168.22,-217.15l-169.13 0z"/>
   <path class="fil0" d="M2340.98 1647.74l0 295.93c104.95,-221.67 273.21,-488.66 461.48,-675.02l-163.8 0c-107.67,111.25 -228,273.32 -297.68,379.09z"/>
   <path class="fil0" d="M2907.4 1268.64c-194.49,219.05 -359.24,438.87 -459.72,678.63l571.05 0 0 -678.63c0.86,-2.66 -111.33,0 -111.33,0z"/>
  </g>
  <g id="_137385280">
   <path class="fil0" d="M515.26 3526.38l0 -518.44c211.86,11.28 322.47,-57.07 320.53,-277.31l0 -292.35c5.61,-180.3 -91.87,-263.91 -311.21,-263.91l-207.94 0 0 1352.01 198.62 0zm0 -1190.71c78.89,-5.75 121.82,3.76 121.82,129.13l0 321.01c-5.61,62.69 -63.77,60.78 -121.82,60.78l0 -510.92z"/>
   <path class="fil0" d="M1044.85 2174.39c0,0 91.83,433.04 108.73,575.39l3.62 0c5.7,-106.45 105.12,-575.39 105.12,-575.39l185.58 0 -322.48 1352.01 -189.29 0 118.15 -505.06 -213.74 -846.95 204.31 0z"/>
   <path class="fil0" d="M1785.62 2673.7l0 -275.26c0,-68.5 -20.52,-83.54 -59.95,-83.54 -41.3,0 -61.76,15.04 -61.76,83.54l0 915.01c0,68.63 20.46,83.69 61.76,83.69 39.43,0 59.95,-15.06 59.95,-83.69l0 -292.1 198.56 0 0 309.51c0,176.54 -136.64,227.88 -260.39,227.88 -121.71,0 -258.6,-51.34 -258.6,-227.88l0 -949.51c0,-176.73 136.89,-227.95 258.6,-227.95 123.75,0 260.39,51.22 260.39,227.95l0 292.35 -198.56 0z"/>
   <path class="fil0" d="M2042.39 3526.38l179.99 0 43.07 -366.65 140.52 0 37.38 366.65 200.69 0 -151.7 -1352.01 -298.19 0 -151.76 1352.01zm241.76 -543.19l48.9 -562.06 13.13 0 41.09 562.06 -103.12 0z"/>
   <polygon class="fil0" points="2730.35,3526.36 2730.35,2174.33 3172.54,2174.33 3172.54,2350.94 2928.91,2350.94 2928.91,3526.36 "/>
   <path class="fil0" d="M3446.11 3526.38l0 -518.44c211.85,11.28 322.47,-57.07 320.48,-277.31l0 -292.35c5.59,-180.3 -91.62,-263.91 -311.06,-263.91l-207.98 0 0 1352.01 198.56 0zm0 -1190.71c78.84,-5.75 121.92,3.76 121.92,129.13l0 321.01c-5.82,62.69 -63.71,60.78 -121.92,60.78l0 -510.92z"/>
   <path class="fil0" d="M3840.05 3325.15c0,176.41 136.95,227.7 258.6,227.7 123.81,0 260.59,-51.29 260.59,-227.7l0 -949.64c0,-176.66 -136.78,-227.81 -260.59,-227.81 -121.65,0 -258.6,51.15 -258.6,227.81l0 949.64zm198.61 -932.61c0,-68.12 20.73,-83.43 62.04,-83.43 39.31,0 59.79,15.31 59.79,83.43l0 915.4c0,68.3 -20.48,83.54 -59.79,83.54 -41.31,0 -62.04,-15.24 -62.04,-83.54l0 -915.4z"/>
  </g>
  <g id="_802977040">
   <path class="fil0" d="M338.14 3751.89l0 192.24 32.35 0 0 -165.35 92.66 0 0 -26.89 -125.01 0zm317.38 23.62c46.52,0 49.79,49.42 49.79,81.04 0,51.24 -30.53,65.05 -50.88,65.05 -35.25,0 -51.6,-32.34 -51.6,-74.14 0,-25.07 2.54,-71.95 52.69,-71.95zm-85.04 244.57l32.35 0 0 -98.48c9.08,15.63 26.16,27.98 51.96,27.98 65.42,0 83.59,-61.42 83.59,-107.2 0,-54.52 -28.71,-95.95 -79.59,-95.95 -33.43,0 -47.61,17.09 -58.15,32.71l0 -27.25 -30.16 0 0 268.19zm265.05 -268.19l71.23 197.33c-15.63,39.61 -17.81,44.33 -34.16,44.33 -8.73,0 -15.63,-1.81 -19.63,-3.27l0 29.44c5.09,1.45 9.09,2.91 13.81,2.91 37.07,0 45.43,-10.54 59.6,-43.61 26.53,-61.78 62.14,-164.26 84.67,-227.13l-35.61 0 -51.24 156.63 -0.73 0 -51.24 -156.63 -36.7 0zm283.21 0l0 192.24 32.35 0 0 -165.35 89.76 0 0 165.35 32.34 0 0 -192.24 -154.45 0zm281.76 0l0 192.24 32.35 0 0 -165.35 89.76 0 0 165.35 32.34 0 0 -192.24 -154.45 0zm310.47 58.51c1.82,-14.54 6.91,-37.07 43.61,-37.07 30.53,0 44.7,9.81 44.7,30.89 0,19.98 -3.63,23.98 -54.15,27.98 -67.59,5.09 -73.41,38.88 -73.41,61.78 0,33.43 24.71,55.6 59.97,55.6 37.43,0 56.69,-17.81 69.41,-31.25 1.45,14.53 5.45,29.43 34.16,29.43 7.27,0 11.99,-2.18 17.44,-3.63l0 -23.62c-3.63,0.73 -7.63,1.45 -10.54,1.45 -6.54,0 -10.54,-4 -10.54,-11.99l0 -109.75c0,-49.42 -55.96,-53.79 -71.23,-53.79 -47.6,0 -79.22,17.81 -79.22,63.97l29.8 0zm88.31 67.23c0,25.8 -29.07,45.06 -59.24,45.06 -23.98,0 -35.25,-12.72 -35.25,-33.8 0,-24.35 25.44,-28.71 41.43,-30.89 39.98,-5.09 47.97,-7.99 53.06,-11.99l0 31.62z"/>
   <path class="fil0" d="M2351.65 3944.13l-97.76 -101.39 93.39 -90.85 -41.06 0 -82.49 83.58 0 -83.58 -32.35 0 0 192.24 32.35 0 0 -87.22 81.76 87.22 46.16 0zm86.24 -96.3c0,49.42 27.62,101.75 89.04,101.75 61.41,0 89.03,-52.33 89.03,-101.75 0,-49.43 -27.62,-101.4 -89.03,-101.4 -61.42,0 -89.04,51.97 -89.04,101.4zm33.07 0c0,-25.81 9.82,-73.41 55.97,-73.41 46.15,0 55.96,47.6 55.96,73.41 0,25.8 -9.81,73.77 -55.96,73.77 -46.15,0 -55.97,-47.97 -55.97,-73.77zm261.78 -95.94l0 192.24 31.62 0 0 -111.57c0,-20.35 -1.82,-41.43 -1.82,-41.43l2.55 0 60.32 153 23.26 0 60.33 -153 2.54 0c0,0 -1.82,21.08 -1.82,41.43l0 111.57 31.62 0 0 -192.24 -44.7 0 -59.24 150.81 -59.23 -150.81 -45.43 0zm335.91 0l0 192.24 32.35 0 0 -165.35 89.76 0 0 165.35 32.34 0 0 -192.24 -154.45 0zm310.47 58.51c1.82,-14.54 6.91,-37.07 43.61,-37.07 30.53,0 44.7,9.81 44.7,30.89 0,19.98 -3.63,23.98 -54.15,27.98 -67.59,5.09 -73.41,38.88 -73.41,61.78 0,33.43 24.71,55.6 59.97,55.6 37.43,0 56.69,-17.81 69.41,-31.25 1.45,14.53 5.45,29.43 34.16,29.43 7.27,0 11.99,-2.18 17.44,-3.63l0 -23.62c-3.63,0.73 -7.63,1.45 -10.54,1.45 -6.54,0 -10.54,-4 -10.54,-11.99l0 -109.75c0,-49.42 -55.96,-53.79 -71.23,-53.79 -47.6,0 -79.22,17.81 -79.22,63.97l29.8 0zm88.31 67.23c0,25.8 -29.07,45.06 -59.24,45.06 -23.98,0 -35.25,-12.72 -35.25,-33.8 0,-24.35 25.44,-28.71 41.43,-30.89 39.98,-5.09 47.97,-7.99 53.06,-11.99l0 31.62zm199.27 -125.74l-32.35 0 0 192.24 32.35 0 0 -87.95 89.76 0 0 87.95 32.34 0 0 -192.24 -32.34 0 0 77.4 -89.76 0 0 -77.4zm281.76 0l-32.35 0 0 192.24 33.8 0 94.12 -143.91 0.73 0 0 143.91 32.34 0 0 -192.24 -33.79 0 -94.13 143.91 -0.72 0 0 -143.91zm391.14 -71.6l-25.44 0c-0.73,15.99 -7.27,27.62 -29.43,27.62 -22.17,0 -28.71,-11.63 -29.44,-27.62l-25.44 0c0,16.36 6.54,50.15 54.88,50.15 48.33,0 54.87,-33.79 54.87,-50.15zm25.8 263.84l0 -192.24 -33.79 0 -94.13 143.91 -0.72 0 0 -143.91 -32.35 0 0 192.24 33.8 0 94.12 -143.91 0.73 0 0 143.91 32.34 0z"/>
  </g>
 </g>
</svg>
