<?xml version="1.0" encoding="UTF-8" standalone="no"?>
<svg
   xmlns:dc="http://purl.org/dc/elements/1.1/"
   xmlns:cc="http://creativecommons.org/ns#"
   xmlns:rdf="http://www.w3.org/1999/02/22-rdf-syntax-ns#"
   xmlns:svg="http://www.w3.org/2000/svg"
   xmlns="http://www.w3.org/2000/svg"
   viewBox="0 0 1348.6267 410.81332"
   height="410.81332"
   width="1348.6267"
   xml:space="preserve"
   id="svg2"
   version="1.1"><metadata
     id="metadata8"><rdf:RDF><cc:Work
         rdf:about=""><dc:format>image/svg+xml</dc:format><dc:type
           rdf:resource="http://purl.org/dc/dcmitype/StillImage" /></cc:Work></rdf:RDF></metadata><defs
     id="defs6" /><g
     transform="matrix(1.3333333,0,0,-1.3333333,0,410.81333)"
     id="g10"><g
       transform="scale(0.1)"
       id="g12"><path
         id="path14"
         style="fill:#100f0d;fill-opacity:1;fill-rule:nonzero;stroke:none"
         d="M 2479.75,460.398 2187.41,946.309 1901.12,460.398 h -342.77 l 440.36,731.872 -448.78,679.47 h 358.05 l 287.5,-453.65 274.2,453.65 h 342.74 L 2370.89,1170.1 2824.52,460.398 h -344.77" /><path
         id="path16"
         style="fill:#100f0d;fill-opacity:1;fill-rule:nonzero;stroke:none"
         d="m 3938.62,940.25 c 0,-310.488 -233.87,-504.039 -540.34,-504.039 -270.17,0 -497.64,149.187 -519.81,473.801 h 292.34 c 20.16,-141.133 133.07,-201.621 256.07,-201.621 153.22,0 219.4,102.828 219.4,235.898 0,139.121 -102.82,225.811 -245.98,225.811 -118.95,0 -197.58,-56.45 -233.87,-116.94 h -279.45 l 96.61,818.58 h 919.11 l -30.61,-274.21 h -657.46 l -26.1,-270.89 c 0,0 69.08,81.37 278.31,81.37 252.03,0 471.78,-169.36 471.78,-467.76" /><path
         id="path18"
         style="fill:#55b435;fill-opacity:1;fill-rule:nonzero;stroke:none"
         d="M 2913.1,2047.51 C 2757.39,2654.57 2263.24,3081.07 1237.93,3081.07 H 0.00390625 L 168.051,1944.78 C 294.465,919.461 686.613,589.59 1380.57,468.148 c 3.27,-0.507 25.16,-3.628 25.49,22.102 0.11,9.25 -5.78,17.238 -13.8,20.629 C 923.191,708.398 869.656,1356.03 769.484,2005.99 l -77.558,517.92 h 706.694 c 651.56,0 1154.52,10.29 1473.07,-492.6 4.77,-7.11 12.11,-12.32 20.84,-12.32 12.33,0 21.44,10 21.44,22.33 0,2.15 -0.31,4.22 -0.87,6.19" /><path
         id="path20"
         style="fill:#100f0d;fill-opacity:1;fill-rule:nonzero;stroke:none"
         d="m 4183.83,1167.14 c 0,438.43 318.31,754.74 760.74,754.74 296.29,0 564.55,-172.17 642.63,-408.4 l -166.16,-56.06 c -60.06,176.18 -258.25,304.3 -476.47,304.3 -338.33,0 -578.56,-246.24 -578.56,-594.58 0,-344.339 242.23,-596.581 578.56,-596.581 304.3,0 544.53,218.211 552.54,502.491 l -700.68,2 v 162.16 h 884.86 c 30.03,-480.472 -278.27,-826.812 -736.72,-826.812 -442.43,0 -760.74,318.313 -760.74,756.742" /><path
         id="path22"
         style="fill:#100f0d;fill-opacity:1;fill-rule:nonzero;stroke:none"
         d="m 5900.32,1471.43 h 162.16 V 1335.3 h 18.02 c 46.05,92.09 158.15,156.15 270.26,156.15 46.05,0 94.1,-10.01 124.13,-26.02 v -154.15 c -52.06,22.02 -112.11,30.03 -150.15,30.03 -152.15,0 -258.25,-136.13 -258.25,-336.33 V 460.449 H 5900.32 V 1471.43" /><path
         id="path24"
         style="fill:#100f0d;fill-opacity:1;fill-rule:nonzero;stroke:none"
         d="m 7487.29,966.941 c 0,228.229 -158.16,394.389 -376.37,394.389 -220.21,0 -376.37,-166.16 -376.37,-394.389 0,-230.222 156.16,-396.382 376.37,-396.382 218.21,0 376.37,166.16 376.37,396.382 z m -918.9,0 c 0,318.309 224.22,544.529 542.53,544.529 316.31,0 542.53,-226.22 542.53,-544.529 0,-320.312 -226.22,-546.531 -542.53,-546.531 -318.31,0 -542.53,226.219 -542.53,546.531" /><path
         id="path26"
         style="fill:#100f0d;fill-opacity:1;fill-rule:nonzero;stroke:none"
         d="M 8770.96,460.449 H 8604.8 v 138.129 h -20.02 C 8514.71,488.48 8400.6,424.41 8268.47,424.41 c -258.25,0 -420.41,186.18 -420.41,444.442 v 602.578 h 166.16 V 868.852 c 0,-172.172 100.1,-294.293 274.27,-294.293 170.16,0 316.31,130.132 316.31,308.3 v 588.571 h 166.16 V 460.449" /><path
         id="path28"
         style="fill:#100f0d;fill-opacity:1;fill-rule:nonzero;stroke:none"
         d="m 9197.8,966.941 c 0,-222.211 158.15,-396.382 376.36,-396.382 216.21,0 374.37,174.171 374.37,396.382 0,226.219 -158.16,394.389 -374.37,394.389 -218.21,0 -376.36,-172.17 -376.36,-394.389 z m 916.9,0 c 0,-316.312 -226.23,-546.531 -520.52,-546.531 -162.16,0 -298.29,70.07 -372.36,190.18 H 9203.8 V 0 h -166.16 v 1471.43 h 166.16 v -154.15 h 18.02 c 74.07,122.12 204.2,194.19 370.36,194.19 294.29,0 522.52,-228.22 522.52,-544.529" /></g></g></svg>