<svg width="264" height="49" viewBox="0 0 264 49" fill="none" xmlns="http://www.w3.org/2000/svg">
<path d="M18.452 8.39233e-05C18.452 8.39233e-05 22.3888 8.72839 26.0735 11.1942C26.0735 11.1942 23.9019 12.301 18.3819 12.301C12.8619 12.301 10.8164 11.1942 10.8164 11.1942C16.0982 6.72494 18.452 8.39233e-05 18.452 8.39233e-05Z" fill="url(#paint0_linear_4001_433)"/>
<path d="M18.3396 43.4493C17.4009 43.4493 16.5043 43.4353 15.6356 43.4073V48.2268H21.3378V43.3933C20.3851 43.4353 19.3903 43.4493 18.3396 43.4493Z" fill="url(#paint1_linear_4001_433)"/>
<path d="M29.9818 30.0779C27.6 30.6664 23.8453 31.2828 18.3814 31.2828C13.0155 31.2828 9.35884 30.6944 7.03316 30.12C4.98768 33.1462 2.64796 36.1163 4.56729e-05 38.8203C4.56729e-05 38.8203 4.95964 42.0566 18.3533 42.0566C31.733 42.0566 37.0289 38.8203 37.0289 38.8203C34.6471 36.9009 32.2374 33.7206 29.9818 30.0779Z" fill="url(#paint2_linear_4001_433)"/>
<path d="M27.2794 20.7641C25.5001 21.1844 22.642 21.6187 18.453 21.6187C14.306 21.6187 11.518 21.1844 9.76671 20.7641C8.02945 23.1178 6.04005 25.4435 3.7564 27.531C3.7564 27.531 7.70726 29.8567 18.383 29.8567C29.0447 29.8567 33.2617 27.531 33.2617 27.531C31.2443 26.102 29.1988 23.5942 27.2794 20.7641Z" fill="url(#paint3_linear_4001_433)"/>
<path d="M24.6183 13.0785C23.4134 13.3727 21.396 13.7089 18.3978 13.7089C15.6238 13.7089 13.7324 13.4287 12.5275 13.1485C11.0985 15.0399 9.41729 16.9173 7.44186 18.5985C7.44186 18.5985 10.412 20.2236 18.4539 20.2236C26.4957 20.2236 29.662 18.5985 29.662 18.5985C27.9527 17.4496 26.2014 15.3761 24.6183 13.0785Z" fill="url(#paint4_linear_4001_433)"/>
<path d="M74.8092 13.5149C74.5226 13.5145 74.2388 13.5696 73.9739 13.6771C73.7091 13.7846 73.4685 13.9423 73.2658 14.1413C73.0632 14.3402 72.9025 14.5765 72.7931 14.8365C72.6836 15.0965 72.6275 15.3752 72.6279 15.6565V26.0375C72.6359 27.335 72.3621 28.6192 71.8246 29.8046C71.3022 30.9588 70.5558 32.002 69.6271 32.8759C68.6868 33.7559 67.5885 34.4571 66.3878 34.9438C65.1381 35.4494 63.7982 35.7055 62.4466 35.6972C60.1037 35.7121 57.3276 34.9354 55.5211 33.4707C54.6594 32.7687 53.9223 31.9313 53.3398 30.9925C52.9295 30.3287 52.6006 29.6195 52.3602 28.8797C52.2158 28.4414 51.932 28.0601 51.5506 27.7918C51.1692 27.5235 50.7102 27.3823 50.241 27.3889C49.8933 27.3862 49.55 27.4658 49.2403 27.621C48.9305 27.7761 48.6633 28.0022 48.4614 28.2802C48.2536 28.5515 48.1154 28.8679 48.0586 29.2028C48.0017 29.5376 48.0279 29.881 48.1349 30.2038C48.4303 31.1192 48.8255 32.0006 49.3137 32.8327C50.1486 34.2433 51.2257 35.5014 52.4974 36.5516C53.7875 37.6221 55.2554 38.4668 56.837 39.0491C58.4786 39.656 60.7218 39.9458 62.476 39.9387C64.4067 39.9419 66.319 39.5692 68.1021 38.8423C69.8235 38.1488 71.3915 37.134 72.7193 35.8543C74.0297 34.5791 75.0832 33.0727 75.8247 31.414C76.5955 29.6972 76.9883 27.84 76.9774 25.9638V15.6469C76.9731 15.0833 76.7434 14.544 76.3378 14.1451C75.9322 13.7463 75.3832 13.52 74.8092 13.5149Z" fill="#166CB7"/>
<path d="M74.7316 7.74297H67.5086C66.9128 7.74297 66.3414 7.97536 65.9201 8.38901C65.4987 8.80266 65.2621 9.3637 65.2621 9.94869C65.2621 10.5337 65.4987 11.0947 65.9201 11.5084C66.3414 11.922 66.9128 12.1544 67.5086 12.1544H74.7316C75.3251 12.1544 75.8946 11.9238 76.3155 11.5129C76.7365 11.102 76.9747 10.5443 76.9781 9.96151C76.9794 9.6709 76.9223 9.38288 76.81 9.11398C76.6977 8.84508 76.5325 8.60058 76.3238 8.39448C76.1151 8.18838 75.867 8.02475 75.5938 7.91295C75.3206 7.80115 75.0276 7.74339 74.7316 7.74297Z" fill="#166CB7"/>
<path d="M50.3897 12.1525H57.6029C57.8982 12.1521 58.1905 12.0945 58.4631 11.9831C58.7357 11.8716 58.9833 11.7085 59.1916 11.5031C59.4 11.2976 59.565 11.0538 59.6774 10.7857C59.7897 10.5176 59.847 10.2303 59.8462 9.94038C59.8428 9.35953 59.6064 8.80337 59.1884 8.39234C58.7704 7.98131 58.2043 7.74848 57.6127 7.74428H50.3897C50.0877 7.73297 49.7865 7.7816 49.5041 7.88728C49.2216 7.99295 48.9639 8.15348 48.7461 8.35927C48.5284 8.56506 48.3551 8.81186 48.2368 9.08492C48.1185 9.35797 48.0575 9.65166 48.0575 9.9484C48.0575 10.2451 48.1185 10.5388 48.2368 10.8119C48.3551 11.0849 48.5284 11.3317 48.7461 11.5375C48.9639 11.7433 49.2216 11.9038 49.5041 12.0095C49.7865 12.1152 50.0877 12.1638 50.3897 12.1525Z" fill="#166CB7"/>
<path d="M91.4399 13.716C88.0015 13.716 85.0169 14.9984 82.581 17.544C80.1483 20.0222 78.914 23.1 78.914 26.6875C78.8807 28.3675 79.3352 30.3569 79.9647 31.9194C80.5942 33.4819 81.5337 34.906 82.7285 36.109C85.1971 38.6193 88.1784 39.8921 91.5874 39.8921C94.9964 39.8921 98.0201 38.6097 100.489 36.109C101.684 34.9056 102.624 33.481 103.253 31.9179C103.883 30.3549 104.042 28.3648 104.008 26.6843C104.008 23.0968 102.774 20.0222 100.344 17.544C99.2225 16.3199 97.8485 15.3439 96.3133 14.6807C94.7782 14.0174 93.117 13.6821 91.4399 13.6968V13.716ZM97.5238 33.2236C96.7841 34.033 95.8774 34.6785 94.864 35.1174C93.8506 35.5563 92.7537 35.7785 91.6462 35.7692C90.5373 35.7911 89.437 35.5753 88.4218 35.1368C87.4067 34.6982 86.5012 34.0475 85.7686 33.23C84.1284 31.5414 83.0856 28.9659 83.1296 26.633C83.0857 24.2994 83.9823 22.0433 85.6243 20.3556C86.3567 19.5381 87.2622 18.8875 88.2775 18.4495C89.2927 18.0114 90.3932 17.7965 91.5019 17.8197C92.6089 17.8077 93.7058 18.0278 94.7194 18.4651C95.7329 18.9024 96.6398 19.5469 97.3795 20.3556C99.0209 22.0437 99.9174 24.2996 99.8743 26.633C99.9151 28.9647 99.165 31.5378 97.5238 33.2236Z" fill="#166CB7"/>
<path d="M125.265 13.6995C124.868 13.6993 124.479 13.8126 124.147 14.0255C123.814 14.2384 123.551 14.5418 123.391 14.8986L115.51 33.6008L107.518 14.8986C107.356 14.5422 107.093 14.2394 106.76 14.0267C106.427 13.814 106.038 13.7003 105.641 13.6995C105.299 13.7 104.964 13.7839 104.664 13.9437C104.364 14.1035 104.109 14.3342 103.923 14.6148C103.737 14.8955 103.624 15.2173 103.596 15.5512C103.569 15.885 103.626 16.2205 103.763 16.5272L113.126 38.2559C113.167 38.3483 113.189 38.4482 113.189 38.5492C113.189 38.6502 113.167 38.7501 113.126 38.8426L110.161 45.3956C110.023 45.7022 109.965 46.0377 109.993 46.3718C110.02 46.7059 110.132 47.028 110.318 47.309C110.504 47.59 110.758 47.8211 111.058 47.9812C111.358 48.1414 111.694 48.2257 112.035 48.2265H112.078C112.475 48.2259 112.863 48.1123 113.196 47.8995C113.528 47.6867 113.791 47.3838 113.952 47.0275L127.153 16.524C127.291 16.2176 127.349 15.8822 127.321 15.5483C127.294 15.2143 127.182 14.8923 126.996 14.6115C126.81 14.3307 126.555 14.0999 126.255 13.9401C125.955 13.7803 125.62 13.6965 125.278 13.6963L125.265 13.6995Z" fill="#166CB7"/>
<path d="M175.862 13.7156C172.421 13.7156 169.439 14.998 167.003 17.5435C164.571 20.0217 163.336 23.0995 163.336 26.687C163.303 28.367 163.564 30.3564 164.194 31.9189C164.823 33.4814 165.763 34.9056 166.957 36.1085C169.426 38.6188 172.404 39.8916 175.816 39.8916C177.487 39.9042 179.141 39.5741 180.674 38.9227C182.207 38.2713 183.584 37.3128 184.718 36.1085C185.912 34.9046 186.851 33.4798 187.48 31.9168C188.109 30.3538 188.461 28.364 188.427 26.6838C188.427 23.0963 187.196 20.0185 184.764 17.5435C183.642 16.3195 182.269 15.3436 180.734 14.6803C179.2 14.017 177.539 13.7009 175.862 13.7156ZM184.28 26.6453C184.321 28.9708 183.383 31.5385 181.749 33.2232C181.01 34.0327 180.103 34.6783 179.09 35.1172C178.076 35.5561 176.979 35.7782 175.872 35.7687C174.763 35.7909 173.663 35.5751 172.647 35.1366C171.632 34.698 170.727 34.0472 169.994 33.2296C168.352 31.542 167.501 28.9661 167.545 26.6325C167.502 24.2991 168.399 22.0433 170.04 20.3552C170.773 19.5381 171.679 18.8879 172.694 18.4499C173.709 18.0119 174.809 17.7967 175.918 17.8192C177.025 17.8079 178.121 18.0282 179.135 18.4654C180.148 18.9027 181.055 19.5469 181.795 20.3552C183.435 22.0443 184.33 24.2997 184.287 26.6325L184.28 26.6453Z" fill="#166CB7"/>
<path d="M201.532 13.696C198.084 13.696 195.302 14.8342 193.261 17.0784C191.22 19.3226 190.185 22.256 190.185 25.7826V37.9135C190.207 38.4449 190.437 38.9475 190.827 39.3161C191.218 39.6847 191.738 39.8905 192.28 39.8905C192.822 39.8905 193.342 39.6847 193.733 39.3161C194.123 38.9475 194.353 38.4449 194.375 37.9135V25.7826C194.375 23.282 195.028 21.2943 196.314 19.8772C197.601 18.4602 199.328 17.7677 201.591 17.7677C203.854 17.7677 205.565 18.4569 206.839 19.874C208.112 21.291 208.798 23.282 208.798 25.7826V37.7748C208.787 38.0487 208.832 38.322 208.931 38.5783C209.03 38.8346 209.181 39.0686 209.375 39.2662C209.568 39.4639 209.8 39.6211 210.057 39.7285C210.314 39.836 210.59 39.8913 210.87 39.8913C211.149 39.8913 211.425 39.836 211.682 39.7285C211.939 39.6211 212.171 39.4639 212.365 39.2662C212.558 39.0686 212.709 38.8346 212.808 38.5783C212.907 38.322 212.953 38.0487 212.941 37.7748V25.7826C212.941 22.256 211.903 19.329 209.849 17.0752C207.795 14.8214 204.977 13.696 201.532 13.696Z" fill="#166CB7"/>
<path d="M227.619 13.6967C225.944 13.6792 224.285 14.0115 222.751 14.6714C221.217 15.3314 219.843 16.3039 218.721 17.5247C216.285 20.0029 215.051 23.0774 215.051 26.6681C215.017 28.3485 215.304 30.2994 215.934 31.8621C216.564 33.4248 217.505 34.8486 218.702 36.0506C219.834 37.2563 221.21 38.216 222.743 38.8681C224.275 39.5201 225.93 39.8502 227.6 39.8369C230.154 39.8601 232.645 39.0605 234.692 37.5606C236.458 36.3056 237.882 34.643 238.839 32.7196C238.919 32.5085 238.945 32.2816 238.916 32.0583C238.887 31.835 238.804 31.6219 238.673 31.4372C238.457 31.0974 237.925 30.5299 236.759 30.5299H236.739C235.339 30.5299 234.561 31.8123 234.477 31.9405C233.839 32.9695 232.969 33.8405 231.933 34.4861C230.652 35.3262 229.146 35.7726 227.606 35.7685C226.493 35.7879 225.39 35.5665 224.374 35.1199C223.358 34.6733 222.455 34.0125 221.729 33.1845C220.354 31.7788 219.517 29.6811 219.315 27.7421C219.311 27.7041 219.314 27.6655 219.326 27.629C219.338 27.5925 219.358 27.5589 219.384 27.5306C219.41 27.5029 219.441 27.4806 219.476 27.4652C219.511 27.4497 219.548 27.4414 219.586 27.4408H237.957C238.937 27.4408 239.446 27.101 239.714 26.8156C239.873 26.6434 239.992 26.44 240.065 26.2189C240.138 25.9978 240.162 25.7641 240.135 25.5332C239.924 22.509 238.627 19.6564 236.475 17.483C234.009 14.9695 231.028 13.6967 227.619 13.6967ZM222.44 19.647C223.884 18.4591 225.708 17.8081 227.591 17.8081C229.475 17.8081 231.299 18.4591 232.743 19.647C233.844 20.558 234.709 21.7129 235.267 23.0165C235.282 23.053 235.288 23.0928 235.283 23.1321C235.279 23.1714 235.264 23.2089 235.241 23.2409C235.216 23.2795 235.182 23.3112 235.141 23.3331C235.101 23.355 235.055 23.3663 235.009 23.366H220.184C220.138 23.3654 220.093 23.3537 220.052 23.3319C220.012 23.3101 219.977 23.2789 219.952 23.2409C219.929 23.2085 219.915 23.1711 219.911 23.1319C219.906 23.0928 219.911 23.0532 219.926 23.0165C220.481 21.7138 221.343 20.559 222.44 19.647Z" fill="#166CB7"/>
<path d="M263.123 14.6009C262.921 14.2976 262.64 14.0533 262.309 13.8938C261.977 13.7344 261.608 13.6657 261.241 13.6949C260.873 13.7241 260.52 13.8502 260.219 14.0598C259.918 14.2695 259.68 14.555 259.531 14.8862L251.573 33.4552L243.655 14.8862C243.435 14.3977 243.026 14.015 242.519 13.8223C242.012 13.6296 241.447 13.6427 240.95 13.8587C240.452 14.0746 240.062 14.4758 239.866 14.9739C239.67 15.4721 239.683 16.0263 239.903 16.5148L249.19 38.1263C249.232 38.219 249.255 38.3195 249.255 38.4212C249.255 38.523 249.232 38.6235 249.19 38.7162L246.228 45.2724C246.09 45.5791 246.032 45.9148 246.059 46.249C246.087 46.5832 246.199 46.9054 246.386 47.1863C246.572 47.4672 246.827 47.6979 247.128 47.8575C247.428 48.0171 247.764 48.1005 248.106 48.1001H248.142C248.539 48.1005 248.928 47.9874 249.262 47.7745C249.595 47.5616 249.858 47.2582 250.019 46.9011L263.283 16.5148C263.423 16.207 263.482 15.8695 263.454 15.5334C263.427 15.1973 263.314 14.8733 263.126 14.5912L263.123 14.6009Z" fill="#166CB7"/>
<path d="M151.406 13.6958C149.765 13.6905 148.158 14.1624 146.789 15.0519C145.801 15.6737 144.928 16.4552 144.206 17.3634C143.481 16.4386 142.586 15.6547 141.568 15.0519C140.21 14.1747 138.622 13.7036 136.996 13.6958C135.767 13.6812 134.547 13.9131 133.412 14.3773C132.276 14.8414 131.249 15.5281 130.394 16.3952C129.521 17.2264 128.831 18.2239 128.365 19.3266C127.9 20.4292 127.669 21.6137 127.687 22.8072L127.687 37.8414C127.687 38.3839 127.906 38.9041 128.297 39.2877C128.688 39.6713 129.218 39.8868 129.77 39.8868C130.323 39.8868 130.852 39.6713 131.243 39.2877C131.634 38.9041 131.853 38.3839 131.853 37.8414L131.853 22.7912C131.842 22.1269 131.97 21.4675 132.231 20.8544C132.492 20.2414 132.879 19.6881 133.368 19.2293C133.83 18.7516 134.388 18.3729 135.006 18.1169C135.624 17.8609 136.289 17.7332 136.96 17.7417C138.329 17.7375 139.645 18.2668 140.617 19.2134C141.589 20.1601 142.139 21.4468 142.146 22.7912L142.146 37.7843C142.135 38.0569 142.18 38.329 142.278 38.5841C142.377 38.8392 142.527 39.0721 142.72 39.2688C142.912 39.4656 143.143 39.6221 143.399 39.729C143.655 39.8359 143.93 39.8911 144.208 39.8911C144.486 39.8911 144.761 39.8359 145.016 39.729C145.272 39.6221 145.503 39.4656 145.696 39.2688C145.888 39.0721 146.038 38.8392 146.137 38.5841C146.236 38.329 146.281 38.0569 146.27 37.7843L146.27 22.7912C146.258 22.1295 146.385 21.4724 146.643 20.8612C146.902 20.25 147.286 19.6977 147.772 19.2389C148.49 18.5335 149.405 18.0527 150.401 17.857C151.397 17.6614 152.43 17.7598 153.369 18.1398C154.308 18.5197 155.112 19.1643 155.678 19.9921C156.245 20.8198 156.549 21.7938 156.552 22.7912L156.552 37.8414C156.552 38.3839 156.772 38.9041 157.163 39.2877C157.553 39.6713 158.083 39.8868 158.636 39.8868C159.188 39.8868 159.718 39.6713 160.109 39.2877C160.499 38.9041 160.719 38.3839 160.719 37.8414L160.719 22.7912C160.734 21.5975 160.497 20.4136 160.025 19.3136C159.552 18.2137 158.854 17.2212 157.973 16.3984C157.127 15.5287 156.108 14.8398 154.978 14.3747C153.849 13.9097 152.634 13.6786 151.409 13.6958H151.406Z" fill="#166CB7"/>
<defs>
<linearGradient id="paint0_linear_4001_433" x1="10.8164" y1="6.15053" x2="26.0301" y2="6.15053" gradientUnits="userSpaceOnUse">
<stop stop-color="#7CF364"/>
<stop offset="1" stop-color="#00E0FF"/>
</linearGradient>
<linearGradient id="paint1_linear_4001_433" x1="15.6356" y1="45.81" x2="21.3216" y2="45.81" gradientUnits="userSpaceOnUse">
<stop stop-color="#7CF364"/>
<stop offset="1" stop-color="#00E0FF"/>
</linearGradient>
<linearGradient id="paint2_linear_4001_433" x1="4.56729e-05" y1="36.0673" x2="36.9237" y2="36.0673" gradientUnits="userSpaceOnUse">
<stop stop-color="#7CF364"/>
<stop offset="1" stop-color="#00E0FF"/>
</linearGradient>
<linearGradient id="paint3_linear_4001_433" x1="3.7564" y1="25.3104" x2="33.1779" y2="25.3104" gradientUnits="userSpaceOnUse">
<stop stop-color="#7CF364"/>
<stop offset="1" stop-color="#00E0FF"/>
</linearGradient>
<linearGradient id="paint4_linear_4001_433" x1="7.44186" y1="16.6511" x2="29.5988" y2="16.6511" gradientUnits="userSpaceOnUse">
<stop stop-color="#7CF364"/>
<stop offset="1" stop-color="#00E0FF"/>
</linearGradient>
</defs>
</svg>
