<!-- by TradingView --><svg width="18" height="18" viewBox="0 0 18 18" xmlns="http://www.w3.org/2000/svg"><path fill="#F0F3FA" d="M0 0h18v18H0z"/><path d="m7.03 9.98.22-.1c.5-.17 1.35-.39 1.75-1-.73.02-1.37.63-1.78.96-.06.06-.13.1-.19.14Z" fill="#6DB131"/><path d="M4 4v10h8.2c-.76-.42-1.32-1.67-1.32-1.67l.5-.17s1.03 1.69 1.76 1.84H14V4H4Zm5.42 9.2c-1.13.28-1.49-.49-1.49-.49v-.03l-.03.02s-.71.46-1.52-.37c0 0-.78-.9.12-1.96 0 0 .13-.15.37-.3-.26.12-.45.15-.45.15-1.38.2-1.74-.93-1.74-.93-.28-1.13.49-1.49.49-1.49h.03l-.02-.03s-.46-.71.37-1.52c0 0 .9-.78 1.97.12 0 0 .15.13.3.36-.13-.25-.15-.44-.15-.44-.21-1.38.93-1.74.93-1.74 1.13-.27 1.48.49 1.48.49l.01.03.03-.02s.7-.46 1.52.37c0 0 .78.9-.13 1.97 0 0-.25.31-.75.48-.49.17-1.35.4-1.75 1v.01c.02.73.63 1.38.96 1.78.33.4.38.8.38.8.2 1.39-.93 1.74-.93 1.74Zm3.44-3.25-.03.01.02.03s.46.7-.37 1.52c0 0-.9.78-1.97-.13 0 0-.31-.25-.48-.74-.17-.5-.4-1.36-1-1.76.73-.02 1.37-.63 1.78-.96.4-.33.8-.38.8-.38 1.38-.21 1.74.93 1.74.93.28 1.13-.49 1.48-.49 1.48Z" fill="#6DB131"/><path d="m7.9 6.9.1.22c.17.5.4 1.35 1 1.75-.02-.73-.63-1.38-.96-1.78-.05-.07-.1-.13-.13-.2Z" fill="#6DB131"/><path d="M9.3 7.9c.13-.13.15-.23.92-.4.78-.19 1.05-.64 1.05-.64.46-.84-.01-1.24-.01-1.24-.63-.67-1.34.1-1.34.1s-.19-1.02-1.08-.8c0 0-.61.1-.67 1.06 0 0 0 .53.56 1.09s.52.65.57.83ZM8.1 8.57c-.12-.14-.22-.15-.4-.92-.17-.78-.63-1.05-.63-1.05-.84-.47-1.24.01-1.24.01-.67.63.1 1.34.1 1.34s-1.02.18-.8 1.08c0 0 .1.61 1.05.67 0 0 .54 0 1.1-.56s.65-.52.83-.57ZM12.95 8.64s-.08-.62-1.04-.67c0 0-.53 0-1.1.55-.56.57-.65.53-.83.58.13.13.23.14.4.92.19.77.64 1.05.64 1.05.85.46 1.24-.02 1.24-.02.67-.63-.1-1.33-.1-1.33s1.03-.2.8-1.08ZM8.78 9.76c-.14.13-.15.23-.93.4-.77.19-1.05.64-1.05.64-.46.84.02 1.24.02 1.24.63.67 1.34-.1 1.34-.1s.18 1.02 1.07.79c0 0 .62-.09.68-1.05 0 0 0-.53-.56-1.09s-.52-.65-.57-.83Z" fill="#E57F14"/></svg>