<svg width="214" height="40" viewBox="0 0 214 40" fill="none" xmlns="http://www.w3.org/2000/svg">
<path fill-rule="evenodd" clip-rule="evenodd" d="M100.238 23.71H94.129L97.184 15.8663L100.238 23.71ZM102.297 28.995L103.66 32.5H110.381L100.274 7.5H94.197L84.088 32.5H90.705L92.071 28.995H102.297ZM73.375 32.502V17.644L66.814 25.492L60.256 17.644V32.502H53.685V7.5018H60.166L66.814 16.098L73.464 7.5018H79.945V32.502H73.375ZM114.559 7.5021V32.502H121.132V13.3079H130.321V7.5021H114.559ZM151.295 22.708V32.502H157.867V7.5021H151.295V16.832H141.534V7.5021H134.963V32.502H141.534V22.708H151.295ZM199.183 32.502V13.3079H191.505V7.5021H213.467V13.3079H205.755V32.502H199.183ZM180.311 18.254V32.502H186.886V7.5021H181.211L170.928 21.6V7.5021H164.354V32.502H169.851L180.311 18.254ZM0 11.9576C0 8.7718 1.257 5.7717 3.543 3.5085C5.827 1.2462 8.855 0 12.068 0H39.935V6.0765H12.068C10.493 6.0765 9.005 6.6906 7.878 7.8048C6.753 8.9218 6.131 10.3972 6.131 11.9576L6.096 22.157C5.812 24.866 3.751 27.051 1.085 27.454L0 27.619V11.9576ZM0 40V33.923H27.867C29.442 33.923 30.93 33.309 32.053 32.192C33.183 31.079 33.802 29.605 33.802 28.042L33.807 18.362C33.807 15.4791 35.975 12.9791 38.851 12.5442L39.935 12.381V28.042C39.935 31.228 38.678 34.227 36.391 36.49C34.108 38.754 31.083 40 27.867 40H0ZM23.647 27.619V19.876L19.967 24.113L16.286 19.876V27.619H11.41V12.381H16.029L19.967 17.28L23.904 12.381H28.525V27.619H23.647Z" fill="#E6000E"/>
</svg>
