<svg width="36" height="33" viewBox="0 0 36 33" fill="none" xmlns="http://www.w3.org/2000/svg">
<g clip-path="url(#clip0_18802_9402)">
<path fill-rule="evenodd" clip-rule="evenodd" d="M20.5261 6.56792C29.0537 7.17385 35.7061 11.437 35.7061 16.5676C35.7061 21.6982 29.615 25.7828 21.2608 26.4818C19.8372 27.0227 18.9175 27.6554 18.4468 28.5764C18.2554 28.2843 17.1839 26.8875 15.8368 26.6132C15.7743 26.6005 15.6289 26.5265 15.5498 26.5035C7.38577 25.7088 1.19385 21.6561 1.19385 16.5676C1.19385 11.4791 7.87562 7.17129 16.4032 6.56537C15.8292 6.01557 15.435 5.59206 15.435 4.33428C15.435 3.07651 16.7872 1.32251 18.4468 1.32251C20.1064 1.32251 21.4624 3.07778 21.4624 4.33428C21.4624 5.59078 21.1027 6.01812 20.5286 6.56792H20.5261ZM12.288 25.182C10.4345 24.252 8.36674 22.794 7.80418 21.8845C7.80418 21.8755 7.63707 21.7173 7.84245 21.9342C7.3321 22.2068 6.83724 22.5074 6.36016 22.8348C8.20691 23.9107 10.2053 24.702 12.288 25.182ZM5.69556 22.3998L5.64453 16.9503L1.95795 16.9324C2.14037 19.0283 3.4683 20.8869 5.69046 22.4049L5.69556 22.3998ZM6.37164 16.9618L11.1668 19.9544C11.1425 19.6202 10.6106 18.2553 10.7139 16.9082L6.36909 16.9273C6.36846 16.9388 6.36846 16.9503 6.36909 16.9618H6.37164ZM9.4523 21.165C9.96893 21.5668 10.8708 22.3692 12.6618 22.8233C12.0061 22.1102 11.7689 21.4061 11.4129 20.5348C10.7481 20.7085 10.0935 20.9193 9.4523 21.1663V21.165ZM13.6338 22.9241C14.3278 22.7965 15.5779 22.6116 16.1456 21.6689C16.518 21.1752 16.7119 20.2414 16.8548 19.5551C15.2439 19.6483 13.6453 19.8926 12.0801 20.2848C12.3212 20.9953 12.8238 22.2901 13.6338 22.9241ZM17.0283 18.9951C17.1004 18.3083 17.1349 17.618 17.1316 16.9273H11.3351C11.4027 17.9376 11.4346 18.8982 11.8122 19.7733C13.5191 19.333 15.2672 19.0722 17.0283 18.9951ZM17.1456 16.1887C17.1648 15.7844 17.2069 14.9807 17.2592 14.0546C15.4126 13.9778 13.5809 13.6906 11.7995 13.1987C11.4818 14.1222 11.3709 15.1312 11.3543 16.1887H17.1456ZM17.3077 13.3824C17.4237 11.4383 17.698 9.19062 17.6329 9.18935H14.4732C13.3596 9.98407 12.5597 11.5174 12.0265 12.6463C13.6568 13.08 15.4376 13.3007 17.3077 13.3849V13.3824ZM14.2398 8.55918V8.24027C11.973 8.84748 10.0378 10.0172 8.70605 11.4294C9.57065 11.8364 10.4697 12.166 11.3925 12.4141C11.9321 11.011 13.0649 9.30288 14.2385 8.56046L14.2398 8.55918ZM14.1887 7.63945C11.5329 7.89458 8.64738 8.8934 6.47625 10.1716C6.9865 10.5874 7.48272 10.8349 8.07079 11.1232C9.40638 9.45085 11.7701 8.28747 14.1938 7.63945H14.1887ZM22.6972 7.63945C24.89 8.1497 27.352 9.61158 28.8419 11.1653C29.4798 10.9 29.9147 10.5913 30.4326 10.2392C29.902 9.74807 25.7613 7.77977 22.6972 7.63945ZM22.6653 8.25303L22.6972 8.64975C23.8236 9.46616 24.9398 10.9612 25.436 12.4767C26.3781 12.2217 27.2976 11.8893 28.185 11.4829C26.6516 9.9523 24.7511 8.84065 22.6653 8.2543V8.25303ZM22.4013 9.21358L19.2874 9.18807C19.2874 9.18807 19.3959 11.1857 19.5426 13.39C21.3215 13.328 23.088 13.0687 24.8097 12.617C24.1119 11.2138 23.6616 10.2188 22.3987 9.21358H22.4013ZM19.6012 14.0699C19.651 14.7766 19.7033 15.4986 19.7569 16.1926L25.5062 16.1492C25.4896 15.1083 25.4232 14.1337 25.0788 13.2242C23.2922 13.718 21.4537 13.9998 19.6012 14.0635V14.0699ZM19.8143 16.9337C19.8768 17.7106 19.8844 18.3535 19.9418 18.939C21.6679 19.0298 23.3801 19.2965 25.052 19.735C25.3799 18.7961 25.399 17.9491 25.4666 16.9286L19.8143 16.9337ZM20.0605 19.6253C20.0975 19.9021 20.1702 20.3307 20.2033 20.4404C20.2671 21.4865 21.4713 22.9611 23.2496 22.9011C24.029 22.2773 24.3389 21.2288 24.8466 20.3244C23.2754 19.9461 21.673 19.7117 20.0592 19.624L20.0605 19.6253ZM24.1604 22.8233C24.8466 22.743 25.3735 22.4266 26.0738 22.0401C26.7741 21.6536 27.0293 21.3512 27.3367 21.1803C26.7326 20.92 26.1137 20.6956 25.4832 20.508C25.0763 21.3257 24.7625 22.1944 24.1553 22.8233H24.1604ZM28.162 20.8818C28.3674 20.7606 28.2896 20.79 28.1314 20.869L28.162 20.8818ZM25.649 19.9608L30.4964 16.9707L26.1822 16.9324C26.2141 17.5613 25.7995 20.0093 25.6503 19.9595L25.649 19.9608ZM31.1572 16.9324L31.1164 22.4177C33.3015 20.9099 34.678 19.0092 34.8591 16.9324H31.1572ZM29.0652 21.9317C28.4835 22.3922 27.0637 24.141 24.5915 25.1207L24.464 25.1769C26.6797 24.6755 28.8866 23.8145 30.5117 22.8501C30.0502 22.5143 29.5693 22.206 29.0715 21.9266L29.0652 21.9317ZM18.4468 2.96042C18.1747 2.96017 17.9087 3.04064 17.6823 3.19164C17.456 3.34265 17.2795 3.5574 17.1753 3.80873C17.0711 4.06005 17.0437 4.33665 17.0967 4.60352C17.1498 4.87039 17.2808 5.11553 17.4732 5.30792C17.6655 5.50032 17.9107 5.63131 18.1776 5.68433C18.4444 5.73735 18.721 5.71001 18.9723 5.60577C19.2237 5.50153 19.4384 5.32508 19.5894 5.09874C19.7404 4.87241 19.8209 4.60637 19.8207 4.33428C19.82 3.97012 19.675 3.62107 19.4175 3.36356C19.16 3.10606 18.811 2.9611 18.4468 2.96042ZM31.0756 10.5785C30.5137 10.989 29.9213 11.3562 29.3037 11.6768C30.3752 13.006 31.0194 14.547 31.0896 16.1913H34.8693C34.7609 14.0457 33.3181 12.1322 31.073 10.5785H31.0756ZM28.7067 11.9396C27.7237 12.4204 26.699 12.8107 25.6452 13.1055C25.9883 14.0976 26.1717 15.1379 26.1886 16.1875H30.4862C30.4352 14.6389 29.518 12.9461 28.7003 11.9396H28.7067ZM11.1489 13.0469C10.1385 12.7581 9.15918 12.3701 8.22514 11.8886C7.14213 13.1578 6.40226 14.6019 6.34996 16.1875H10.6871C10.7107 15.1254 10.8667 14.0704 11.1514 13.0469H11.1489ZM7.61539 11.6016C7.01548 11.2894 6.44171 10.9293 5.89966 10.5249C3.57801 12.0927 2.06383 14.0036 1.95413 16.1913H5.80909C5.86011 14.2358 6.50814 12.9499 7.61539 11.6054V11.6016Z" fill="#141760"/>
<path fill-rule="evenodd" clip-rule="evenodd" d="M2.58326 23.8125L3.5183 24.4733L4.16887 27.4914L5.31694 25.5244L6.38847 26.1622L4.26454 29.6575L3.31164 29.1102L2.66617 26.0104L1.48749 28.0132L0.454224 27.3575L2.58326 23.8125ZM15.8065 31.2813L15.7389 32.3018C15.3332 32.5212 14.3357 32.5315 13.9415 32.4626C13.3675 32.3618 12.5141 31.9408 12.2538 31.3847C12.0584 30.958 11.9838 30.4859 12.0383 30.0197C12.0591 29.7472 12.1392 29.4825 12.2729 29.2441C12.4066 29.0057 12.5908 28.7993 12.8126 28.6395C13.2259 28.3142 13.9606 28.1841 14.661 28.2568C14.9454 28.2861 15.7975 28.5515 16.1101 28.7671L15.9698 29.8934C15.6088 29.5631 15.3868 29.373 14.8651 29.2671C14.2272 29.1395 13.356 29.5222 13.2756 30.2289C13.2503 30.3829 13.2576 30.5406 13.2972 30.6915C13.3367 30.8425 13.4076 30.9835 13.5052 31.1053C13.6404 31.2839 14.0665 31.5135 14.5181 31.5377C14.9697 31.562 15.6381 31.3936 15.8065 31.2903V31.2813ZM23.2983 32.0467L23.246 31.1091C23.6657 31.2494 23.9514 31.3643 24.403 31.3489C24.7576 31.3413 24.9222 31.2214 24.9349 30.9318C24.9005 30.5644 24.2805 30.5491 24.0088 30.4751C23.3251 30.2825 22.8454 30.0312 22.8225 29.4406C22.7918 28.6599 22.9003 28.2708 23.9846 27.9991C24.505 27.8716 25.2372 27.9366 25.5459 28.0897L25.5982 28.9826C25.1939 28.7964 24.5535 28.7339 24.2741 28.8194C23.8532 28.9992 24.019 29.3857 24.3392 29.4814C25.1518 29.7212 25.9835 29.7008 26.1468 30.6065C26.2654 31.2635 25.9197 31.9472 24.9834 32.1245C24.0471 32.3018 23.6389 32.1539 23.2983 32.0442V32.0467ZM31.5516 25.541L33.3222 24.3929C33.4751 24.2848 33.6484 24.2092 33.8316 24.1706C34.0147 24.1319 34.2039 24.1312 34.3874 24.1684C34.5555 24.1999 34.7149 24.2673 34.8546 24.3659C34.9944 24.4645 35.1113 24.5921 35.1974 24.7399C35.3038 24.8897 35.3769 25.0606 35.4119 25.241C35.4469 25.4214 35.4429 25.6072 35.4002 25.7859C35.3109 26.1239 35.043 26.4314 34.6004 26.7082L33.9983 27.0845L34.8236 28.4073L33.7483 29.0451L31.5516 25.5346V25.541ZM33.5467 26.3689L33.8171 26.2005C34.0289 26.0678 34.1565 25.9377 34.1998 25.8101C34.2195 25.7498 34.2254 25.6858 34.217 25.6228C34.2086 25.5599 34.1862 25.4997 34.1514 25.4466C34.0868 25.3399 33.9827 25.2629 33.8618 25.2323C33.7342 25.2017 33.5748 25.2489 33.3694 25.3777L33.0556 25.5741L33.5467 26.3689Z" fill="#EE3124"/>
<path fill-rule="evenodd" clip-rule="evenodd" d="M0.363647 5.57958L1.41349 4.89838L2.20056 6.18933L3.69688 5.2224L2.90854 3.95824L3.9367 3.33573L6.08869 6.75826L5.05925 7.41649L4.20586 6.05156L2.68275 7.03635L3.52084 8.36811L2.51437 8.997L0.363647 5.57958ZM8.93973 1.42611L10.0023 1.24114L11.5025 2.453L12.4362 0.649247L13.5473 0.5L14.2515 4.38303L13.1034 4.6254L12.6263 2.37263L11.7678 3.97228L10.4093 2.86885L10.8124 5.14586L9.74721 5.36272L8.93718 1.42611H8.93973ZM23.2881 0.5051L27.3701 1.27048L27.1928 2.23359L25.7628 1.92743L25.1722 4.96472L23.9259 4.72235L24.5165 1.68506L23.1452 1.41335L23.2881 0.50893V0.5051ZM33.6386 8.47143L32.6716 7.85786L34.1348 5.19688L32.4918 4.28608L31.0363 7.02359L29.9507 6.42787L31.9381 2.86758L35.6604 4.9239L33.6386 8.47143Z" fill="#EE3124"/>
</g>
<defs>
<clipPath id="clip0_18802_9402">
<rect width="35.6364" height="32" fill="white" transform="translate(0.363647 0.5)"/>
</clipPath>
</defs>
</svg>
