<?xml version="1.0" encoding="utf-8"?>
<!-- Generator: Adobe Illustrator 28.0.0, SVG Export Plug-In . SVG Version: 6.00 Build 0)  -->
<svg version="1.1" id="Слой_1" xmlns="http://www.w3.org/2000/svg" xmlns:xlink="http://www.w3.org/1999/xlink" x="0px" y="0px"
	 viewBox="0 0 1000 899.4011841" enable-background="new 0 0 1000 899.4011841" xml:space="preserve">
<path fill="#FF335F" d="M999.999939,488.3033752C994.0119019,217.3253479,772.6147461,0,500.2793884,0
	C224.1117554,0,0,223.9121704,0,499.8003845h200c0,220.5987854,179.2015991,399.6007996,400,399.6007996
	c217.0059204,0,394.0119629-172.9740601,400-388.6626587C1000,510.7385254,1000,488.3033752,999.999939,488.3033752z
	 M599.999939,699.600769c-110.2362671,0.220459-199.7791748-88.9648438-199.9997253-199.2011108
	c-0.0003967-0.1997681-0.0004883-0.3995667-0.0002747-0.5993042
	c-0.1104736-110.2364197,89.1642761-199.6902466,199.4006958-199.8006897
	c0.199707-0.0002136,0.3995361-0.0001221,0.5993042,0.0002747c110.2362061-0.22052,199.7791748,88.9648438,199.9996948,199.2011108
	c0.0003662,0.1997375,0.0004883,0.3995361,0.0003052,0.5993042
	c0.1104736,110.2363892-89.1642456,199.6901855-199.4006958,199.8007202
	C600.3994751,699.6012573,600.199707,699.6011353,599.999939,699.600769z"/>
</svg>
