<?xml version="1.0" encoding="utf-8"?>
<!-- Generator: Adobe Illustrator 28.0.0, SVG Export Plug-In . SVG Version: 6.00 Build 0)  -->
<svg version="1.1" id="Слой_1" xmlns="http://www.w3.org/2000/svg" xmlns:xlink="http://www.w3.org/1999/xlink" x="0px" y="0px"
	 viewBox="0 0 1000 555.3" style="enable-background:new 0 0 1000 555.3;" xml:space="preserve">
<style type="text/css">
	.st0{fill:#B18538;}
	.st1{fill-rule:evenodd;clip-rule:evenodd;fill:#006295;}
	.st2{fill-rule:evenodd;clip-rule:evenodd;fill:#B18538;}
	.st3{fill-rule:evenodd;clip-rule:evenodd;fill:#CB9B45;}
	.st4{fill-rule:evenodd;clip-rule:evenodd;fill:#0078AD;}
</style>
<path class="st0" d="M844.1,93.6C756.2,45.4,634.6,15.7,500,15.7S243.8,45.4,155.9,93.6C69.1,141,15.5,206.1,15.5,277.6
	s53.6,136.6,140.4,184.1c87.9,48.1,209.6,77.9,344.1,77.9s256.2-29.8,344.1-77.9c86.7-47.4,140.4-112.6,140.4-184.1
	S930.9,141,844.1,93.6 M500,0c137.3,0,261.7,30.6,352,80.2c91.5,50.2,148,120,148,197.5s-56.6,147.3-148,197.5
	c-90.2,49.5-214.7,80.2-352,80.2s-261.7-30.6-352-80.2C56.6,424.9,0,355.1,0,277.6S56.6,130.4,148,80.2C238.3,30.6,362.7,0,500,0z"
	/>
<path class="st1" d="M145.6,277.2l12.2-34.3h15.9l-19.1,51.6c-2.7,7.6-5.7,13.3-9,17.3c-3.3,4-7.9,5.9-13.7,5.7
	c-2.3-0.2-4.6-0.6-6.8-1.3v-12c1.3,0.4,2.6,0.6,4,0.6c2.1,0.1,4.2-0.7,5.6-2.2c1.7-2.1,2.9-4.6,3.7-7.2l-26.4-52.4h16.8L145.6,277.2
	z M200.4,279.7h7.1c3.5,0.2,7-0.8,9.8-2.9c2.3-1.9,3.5-5,3.6-9.1c0.3-8.5-4.1-12.8-13.5-12.8h-7L200.4,279.7z M200.4,292.1v23.7h-16
	v-72.9h22.5c10.3,0,18.3,1.8,23.9,5.5s8.3,10.2,8.1,19.6c-0.2,16-10.1,24-29.7,24L200.4,292.1z M294.9,255.1h-28.2v60.7h-15.9v-72.8
	h44.1L294.9,255.1z M333.4,277.2l12.3-34.3h15.8l-19.1,51.6c-2.7,7.6-5.7,13.3-9,17.3c-3.3,4-7.9,5.9-13.7,5.7
	c-2.3-0.2-4.6-0.6-6.8-1.3v-12c1.3,0.4,2.6,0.6,4,0.6c2.1,0.1,4.2-0.7,5.6-2.2c1.7-2.1,2.9-4.6,3.7-7.2l-26.3-52.4h16.8L333.4,277.2
	z M400.7,255v60.8h-15.9V255h-18.6v-12h53.1v12L400.7,255z M445.9,282.3v33.5H430v-72.9h15.9v27.2h26.5v-27.2h15.9v72.9h-15.9v-33.5
	H445.9z M550.2,255.1h-29.1v17.2h24.4V285h-24.4v19h32.8v11.8h-48.8v-72.9h45.1V255.1z M609.7,258.1v35.1c6.1,0.4,10.5-0.7,13.3-3.4
	c2.8-2.7,4.2-7.4,4.2-14.2C627.2,263.3,621.4,257.4,609.7,258.1z M594,258.2c-11.1-1-16.6,4.8-16.6,17.3c0,6.8,1.3,11.6,3.9,14.2
	c2.6,2.7,6.9,3.8,12.7,3.4V258.2z M594,315.8v-10.7c-0.4,0-0.8,0-1.1,0c-0.4,0-0.9,0-1.3,0c-6.3-0.1-10.8-0.8-13.7-1.8
	c-5-2-9.1-5.5-11.8-10.1c-3.2-5.3-4.8-11.4-4.6-17.6c0-4.5,0.9-9,2.4-13.2c1.9-4.8,5.3-8.8,9.7-11.6c4.8-3.3,11.6-4.7,20.3-4.3v-8.6
	h15.7v8.6c9-0.3,15.9,1.1,20.9,4.3c4.5,2.7,7.9,6.7,9.9,11.6c1.6,4.2,2.4,8.7,2.5,13.2c0.1,6.2-1.5,12.3-4.7,17.6
	c-2.8,4.7-7.1,8.3-12.2,10.1c-2.9,1.1-7.6,1.7-14,1.8c-0.4,0-0.8,0-1.3,0c-0.3,0-0.7,0-1.1,0v10.7L594,315.8z M683.9,255v60.8H668
	V255h-18.6v-12h53.1v12L683.9,255z M758.4,255.1h-29.1v17.2h24.4V285h-24.4v19H762v11.8h-48.8v-72.9h45.1L758.4,255.1z M818.1,255.1
	h-28.2v60.7H774v-72.8h44.1L818.1,255.1z M849.2,288.3h17.7l-9.1-22.9L849.2,288.3z M844.5,300.8l-5.6,15h-16l27.5-72.9h15l28,72.9
	h-16l-6.1-15.3L844.5,300.8z M908.4,259.5l-7-10c7.4-5.6,16.5-8.5,25.7-8.4c5-0.2,10,0.7,14.6,2.7c3.4,1.6,6.4,4.1,8.4,7.2
	c1.7,2.7,2.8,5.8,3.2,9c0.2,2.5-0.1,5-0.8,7.4c-0.8,2.4-2.2,4.6-4.1,6.3c-2.2,1.8-4.8,3-7.6,3.5v1.1c4,0.3,7.7,2,10.5,4.8
	c3,3,4.5,7.1,4.3,11.3c0,3.9-1.1,7.7-3.3,11c-2.5,3.7-5.9,6.6-9.9,8.5c-5.1,2.4-10.6,3.6-16.1,3.6c-9.9,0.3-19.4-3.3-28.4-10.6
	l7.6-9.8c0.3,0.1,0.6,0.2,0.9,0.4c0.2,0.2,0.5,0.4,0.8,0.6c0.8,0.4,1.6,0.9,2.3,1.4c0.9,0.6,2,1.3,3.2,1.9c4.2,2.2,9,3.2,13.8,2.7
	c3.2-0.3,6.2-1.8,8.4-4.2c1.9-2,2.9-4.8,2.7-7.6c-0.2-5.5-3.9-8.3-11.1-8.3h-7v-12.3h5.8c4.4,0,7.4-1,8.9-3c1.5-1.8,2.1-4.2,1.7-6.5
	c-0.3-2.4-1.7-4.5-3.7-5.9c-2.5-1.6-5.4-2.4-8.4-2.3C919.3,254.2,914.1,256,908.4,259.5L908.4,259.5z M104.3,251.4l-7.9,9.6
	c-5.7-5-11.3-7.1-17-6.3c-2.5,0.4-4.8,1.3-7,2.5c-2.9,1.8-5.2,4.5-6.7,7.6c-1.9,3.6-2.8,8.5-2.8,14.6c0.2,8.5,2,14.5,5.3,17.9
	c2.9,3.2,6.8,5.3,11,6.1c6.3,1,12.5-1.9,18.4-8.5l8.8,7.8c-8,9.9-17.5,14.8-28.5,14.8c-6.1,0.1-12.1-1.6-17.3-4.8
	c-5.2-3.3-9.4-8-12-13.6c-3-6-4.5-12.7-4.3-19.5c0.2-12.7,3.9-22.3,11.1-28.8c6.7-6.3,15.5-9.7,24.7-9.7c4.7,0,9.3,0.9,13.6,2.7
	C97.8,245.6,101.4,248.2,104.3,251.4z"/>
<path class="st2" d="M760.9,347.2c-66.6,99.1-250.4,148.2-372.4,166.1c-22.2-2.8-28.9-3.6-49.8-7c74-24.6,244.5-68.2,275.5-159.1
	L760.9,347.2z M582.8,98.1c59.9,17,133.8,45.1,176.9,110.2h-176c-2.4-3-4.9-6.1-7.4-9.1l0,0l0,0v-0.1l-2.1-2.5l0,0l-0.7-0.8l0,0
	c-1.9-2.2-3.8-4.4-5.7-6.6l0,0l-0.7-0.8l-1.4-1.6l0,0l-3-3.2l0,0l-2.2-2.4l0,0l-3-3.2l0,0l-0.8-0.8l0,0l-1.8-1.8l0,0l-2.3-2.3
	l-1.6-1.5l0,0l-0.8-0.8l0,0l-1.6-1.4l0,0l-0.8-0.8l0,0l-0.8-0.8l0,0l-1.6-1.4l-0.8-0.7l0,0l-0.8-0.7l-0.8-0.8l-0.7-0.6l0,0l-0.7-0.6
	l0,0l-0.7-0.6l-0.7-0.6l0,0l-0.7-0.7l-0.7-0.6l0,0l-0.7-0.6l-0.7-0.6l0,0l-0.7-0.6l-1.4-1.2l-0.7-0.6l0,0l-0.7-0.6l-0.7-0.6l0,0
	l-0.7-0.6l-1.4-1.2l0,0l-0.7-0.6l-0.7-0.6l-0.7-0.6l0,0l-1.4-1.2l0,0l-0.7-0.6l0,0l-0.7-0.6l0,0l-1.4-1.2l-2.7-2.3l0,0
	c-1.4-1.1-2.7-2.3-4.1-3.4l0,0c-1.4-1.1-2.7-2.2-4-3.2l0,0l-0.1-0.6C530.7,125.9,562.7,107.4,582.8,98.1z"/>
<path class="st3" d="M778.9,347.2C721.6,447,546.4,502.5,440.8,518.5c20,0.8,37.4,2.2,60.8,2.2c130.1-0.1,246.3-28,331.2-72.9
	c57-30.9,92-64,113-100.6L778.9,347.2z M604.2,87.8c76.2,27.2,133.6,55.4,175.1,120.4l166.3-0.5C896.8,122.7,783.6,78,689.5,55.7
	C672.8,60.2,611.3,84.1,604.2,87.8z"/>
<path class="st1" d="M239.1,347.2c34.5,49.8,88.2,82.5,152.8,101.8c10.9,3.3,29.3,6.8,40.2,8.9c17.6-4.3,59.1-20.8,86.2-36
	l-16.6,0.7h-8l-1.4-0.1l0,0l-1.4-0.1l-1.4-0.1l-1.4-0.1l0,0l-1.4-0.1l0,0l-1.4-0.1l0,0l-1.4-0.2l0,0l-1.4-0.2l0,0
	c-27-3.6-52.3-14.9-70.4-32.9c-11.8-11.7-20.9-25.8-26.6-41.4L239.1,347.2z M612,42.3c-174.9,25.2-319.2,85.6-371.9,165.9h176.7
	l0.5-0.7l1.3-1.7l0,0l1.3-1.7l0,0l0.7-0.9l0,0l2-2.5l0,0c1.1-1.4,2.3-2.8,3.4-4.2l0,0l0.7-0.8l0,0c1.9-2.2,3.8-4.4,5.7-6.6l0,0
	l0.7-0.8l0,0l1.4-1.6l0,0l3-3.2l0,0l2.2-2.4l0,0l3-3.2l0,0l0.8-0.8l0,0l1.5-1.6l2.3-2.3l0,0l1.5-1.5l0,0l0.8-0.8l0,0l1.6-1.4l0,0
	l0.8-0.8l0,0l0.8-0.8l0,0l1.1-1.1c6.5-6.4,13.4-12.5,20.5-18.5l1.7-1.4l1.3-1.1l0,0c1.4-1.2,2.7-2.3,4.1-3.4l0,0
	c1.3-1.1,2.7-2.2,4-3.2l0,0c4.2-3.3,8.4-6.4,12.4-9.1C551,91.7,614.4,63.5,662,49.3l-1.9-0.5C647.1,46.3,625.7,44.1,612,42.3
	L612,42.3z"/>
<path class="st4" d="M220.8,208.3C282.2,103.9,462.2,53.9,559.7,37.2c-22.4-1.7-37.9-2.6-61.2-2.6c-130.1,0.1-247.5,28-332.4,72.9
	C116.2,135.7,76.5,170,54.2,208L220.8,208.3z M359.8,453.8C300.6,429.7,254,402.1,221,347.2H54.6c47.7,83.2,161.8,129.6,255.5,152.9
	c18-4.8,79.1-24.9,97.6-32.5C391.3,464.4,375.3,459.8,359.8,453.8z"/>
</svg>
