<?xml version="1.0" encoding="UTF-8" standalone="no"?>
<!-- Created with Inkscape (http://www.inkscape.org/) -->
<!DOCTYPE svg PUBLIC "-//W3C//DTD SVG 1.1//EN" "http://www.w3.org/Graphics/SVG/1.1/DTD/svg11.dtd">
<svg
   xmlns:svg="http://www.w3.org/2000/svg"
   xmlns="http://www.w3.org/2000/svg"
   version="1.1"
   width="400"
   height="125"
   id="svg2816"
   xml:space="preserve"><defs
     id="defs2820"><clipPath
       id="clipPath2866"><path
         d="m 220.507,683.981 -169.412,0 0,-46.573 169.412,0 0,46.573 z"
         id="path2868" /></clipPath></defs><g
     transform="matrix(1.25,0,0,-1.25,0,124.99995)"
     id="g2826"><g
       transform="matrix(1.794442,0,0,1.794442,-83.687018,-1135.578)"
       id="g2918"><g
         id="g2862"><g
           clip-path="url(#clipPath2866)"
           id="g2864"><path
             d="m 70.171,674.268 c 2.993,-7.595 -1.887,-12.47 -6.748,-17.353 -4.524,-4.989 -8.509,-10.175 -0.494,-19.508 -2.994,7.594 1.887,12.47 6.744,17.348 4.528,5 8.513,10.179 0.498,19.513"
             id="path2870"
             style="fill:#ef3d42;fill-opacity:1;fill-rule:nonzero;stroke:none" /><path
             d="m 62.929,683.981 c 2.998,-7.598 -1.88,-12.47 -6.745,-17.35 -4.523,-4.993 -8.507,-10.179 -0.489,-19.512 -2.996,7.6 1.884,12.471 6.744,17.351 4.526,4.994 8.506,10.178 0.49,19.511"
             id="path2872"
             style="fill:#00b274;fill-opacity:1;fill-rule:nonzero;stroke:none" /></g></g><path
         d="m 185.928,653.902 0,-15.524 6.799,0 0,5.683 7.471,0 0,3.398 -7.471,0 0,3.045 14.82,0 0,-12.126 6.8,0 0,12.126 6.16,0 0,3.398 -34.579,0"
         id="path2874"
         style="fill:#00b274;fill-opacity:1;fill-rule:nonzero;stroke:none" /><path
         d="m 171.34,641.747 0,2.691 8.866,0 0,3.401 -8.866,0 0,2.665 11.388,0 0,3.398 -18.187,0 0,-15.524 18.327,0 0,3.369 -11.528,0"
         id="path2876"
         style="fill:#00b274;fill-opacity:1;fill-rule:nonzero;stroke:none" /><path
         d="m 99.629,653.902 -18.841,0 0,-3.398 6.021,0 0,-12.126 6.799,0 0,12.126 6.021,0 0,3.398"
         id="path2878"
         style="fill:#ef3d42;fill-opacity:1;fill-rule:nonzero;stroke:none" /><path
         d="m 104.777,644.26 3.146,6.009 3.011,-6.009 -6.157,0 z m 8.276,9.642 -7.288,0 -8.486,-15.524 4.419,0 1.395,2.665 9.529,0 1.391,-2.665 7.53,0 -8.49,15.524"
         id="path2880"
         style="fill:#ef3d42;fill-opacity:1;fill-rule:nonzero;stroke:none" /><path
         d="m 156.198,653.902 0,-7.761 -10.874,7.761 -5.277,0 0,-15.524 4.654,0 0,8.541 11.166,-8.541 4.984,0 0,15.524 -4.653,0"
         id="path2882"
         style="fill:#00b274;fill-opacity:1;fill-rule:nonzero;stroke:none" /><path
         d="m 137.737,653.902 -18.446,0 0,-3.398 6.02,0 0,-12.126 6.8,0 0,12.126 5.626,0 0,3.398"
         id="path2884"
         style="fill:#ef3d42;fill-opacity:1;fill-rule:nonzero;stroke:none" /></g></g></svg>